<svg version="1.1" style="font-family:&quot;lucida grande&quot;, &quot;lucida sans unicode&quot;, arial, helvetica, sans-serif;font-size:12px;" xmlns="http://www.w3.org/2000/svg" width="584" height="400" viewBox="0 0 584 400"><desc>Created with Highcharts 4.1.6</desc><defs><clipPath id="highcharts-1"><rect x="0" y="-80" width="624" height="480"></rect></clipPath></defs><rect x="0" y="0" width="584" height="400" strokeWidth="0" fill="#FFFFFF" class=" highcharts-background" stroke="transparent"></rect><g  style="stroke:rgba(255,255,255,0);"><path fill="rgb(230,230,230)" fill-opacity="0" d="M 554.3 89.2 L 538.4 332.4 L 538.5 332.0 L 554.3 89.0 Z"  stroke-linejoin="round"></path><path fill="rgb(255,255,255)" fill-opacity="0" d="M 554.3 89.2 L 554.3 89.0 L 91.1 71.7 L 90.6 71.8 Z"  stroke-linejoin="round"></path><path fill="rgb(255,255,255)" fill-opacity="0" d="M 102.7 290.2 L 538.4 332.4 L 554.3 89.2 L 90.6 71.8 Z"  stroke-linejoin="round"></path></g><g  style="stroke:rgba(255,255,255,0);"><path fill="rgb(255,255,255)" fill-opacity="0" d="M 73.7 76.8 L 91.5 71.8 L 90.6 71.8 L 72.9 76.8 Z"  stroke-linejoin="round"></path><path fill="rgb(255,255,255)" fill-opacity="0" d="M 86.4 302.3 L 87.2 302.4 L 73.7 76.8 L 72.9 76.8 Z"  stroke-linejoin="round"></path><path fill="rgb(230,230,230)" fill-opacity="0" d="M 73.7 76.8 L 87.2 302.4 L 103.5 290.2 L 91.5 71.8 Z"  stroke-linejoin="round"></path></g><g  style="stroke:rgba(255,255,255,0);"><path fill="rgb(230,230,230)" fill-opacity="0" d="M 536.8 346.7 L 536.8 347.6 L 538.4 332.4 L 538.5 331.5 Z"  stroke-linejoin="round"></path><path fill="rgb(255,255,255)" fill-opacity="0" d="M 87.2 302.4 L 536.8 347.6 L 536.8 346.7 L 87.2 301.5 Z"  stroke-linejoin="round"></path><path fill="rgb(255,255,255)" fill-opacity="0" d="M 536.8 346.7 L 538.5 331.5 L 103.5 289.4 L 87.2 301.5 Z"  stroke-linejoin="round"></path></g><g class="highcharts-grid" ><path fill="none" d="M 175.1 75.0 L 175.1 75.0 L 182.5 297.0 L 168.6 309.7" stroke="#D8D8D8" stroke-width="1"  opacity="1"></path><path fill="none" d="M 263.1 78.3 L 263.1 78.3 L 265.5 305.1 L 254.2 318.3" stroke="#D8D8D8" stroke-width="1"  opacity="1"></path><path fill="none" d="M 355.3 81.7 L 355.3 81.7 L 352.2 313.5 L 343.8 327.3" stroke="#D8D8D8" stroke-width="1"  opacity="1"></path><path fill="none" d="M 452.0 85.3 L 452.0 85.3 L 442.9 322.2 L 437.7 336.7" stroke="#D8D8D8" stroke-width="1"  opacity="1"></path><path fill="none" d="M 554.8 89.2 L 554.8 89.2 L 539.0 331.5 L 537.4 346.7" stroke="#D8D8D8" stroke-width="1"  opacity="1"></path><path fill="none" d="M 91.1 71.8 L 91.1 71.8 L 103.1 289.4 L 86.7 301.5" stroke="#D8D8D8" stroke-width="1"  opacity="1"></path></g><g class="highcharts-grid" ></g><g class="highcharts-grid" ><path fill="none" d="M 87.2 301.9 L 103.5 289.8 L 538.5 331.9 L 538.5 331.9" stroke="#D8D8D8" stroke-width="1"  opacity="1"></path><path fill="none" d="M 85.1 266.3 L 101.6 255.3 L 540.9 293.7 L 540.9 293.7" stroke="#D8D8D8" stroke-width="1"  opacity="1"></path><path fill="none" d="M 82.9 230.0 L 99.7 220.1 L 543.5 254.7 L 543.5 254.7" stroke="#D8D8D8" stroke-width="1"  opacity="1"></path><path fill="none" d="M 80.7 193.0 L 97.7 184.2 L 546.1 214.8 L 546.1 214.8" stroke="#D8D8D8" stroke-width="1"  opacity="1"></path><path fill="none" d="M 78.4 155.2 L 95.7 147.6 L 548.7 174.0 L 548.7 174.0" stroke="#D8D8D8" stroke-width="1"  opacity="1"></path><path fill="none" d="M 76.1 116.6 L 93.6 110.3 L 551.5 132.3 L 551.5 132.3" stroke="#D8D8D8" stroke-width="1"  opacity="1"></path><path fill="none" d="M 73.7 76.3 L 91.5 71.4 L 554.3 88.6 L 554.3 88.6" stroke="#D8D8D8" stroke-width="1"  opacity="1"></path></g><g class="highcharts-axis" ><path fill="none" d="M 0 0" stroke="#C0D0E0" stroke-width="1"  visibility="visible"></path></g><g class="highcharts-axis" ></g><g class="highcharts-axis" ><text x="47.5"  text-anchor="middle" transform="translate(0,0) rotate(270 47.5 190.2)" class=" highcharts-yaxis-title" style="color:#707070;fill:#707070;" visibility="visible" y="190.2" z="71.0"><tspan>Number of fruits</tspan></text></g><g class="highcharts-series-group" ><g class="highcharts-series highcharts-tracker" visibility="visible"  transform="translate(64,80) scale(1 1)" style="" clip-path="url(#highcharts-1)"><g  stroke="#434348" stroke-width="1" r="0"><path fill="#434348" d="M 41.6 223.4 L 61.9 225.5 L 59.3 171.8 L 38.7 170.0 Z"  stroke-linejoin="round"></path><path fill="rgb(92,92,97)" fill-opacity="1" d="M 59.3 171.8 L 74.8 161.1 L 54.8 159.4 L 38.7 170.0 Z"  stroke-linejoin="round"></path><path fill="rgb(42,42,47)" fill-opacity="1" d="M 59.3 171.8 L 61.9 225.5 L 77.1 213.1 L 74.8 161.1 Z"  stroke-linejoin="round"></path></g><g  stroke="#434348" stroke-width="1" r="0"><path fill="#434348" d="M 124.2 231.7 L 145.5 233.9 L 143.5 159.8 L 121.9 158.0 Z"  stroke-linejoin="round"></path><path fill="rgb(92,92,97)" fill-opacity="1" d="M 143.5 159.8 L 156.5 149.2 L 135.5 147.6 L 121.9 158.0 Z"  stroke-linejoin="round"></path><path fill="rgb(42,42,47)" fill-opacity="1" d="M 143.5 159.8 L 145.5 233.9 L 158.1 221.0 L 156.5 149.2 Z"  stroke-linejoin="round"></path></g><g  stroke="#434348" stroke-width="1" r="0"><path fill="#434348" d="M 210.6 240.4 L 232.9 242.7 L 232.7 167.0 L 210.0 165.2 Z"  stroke-linejoin="round"></path><path fill="rgb(92,92,97)" fill-opacity="1" d="M 232.7 167.0 L 242.8 155.9 L 220.9 154.2 L 210.0 165.2 Z"  stroke-linejoin="round"></path><path fill="rgb(42,42,47)" fill-opacity="1" d="M 232.7 167.0 L 232.9 242.7 L 242.8 229.2 L 242.8 155.9 Z"  stroke-linejoin="round"></path></g><g  stroke="#434348" stroke-width="1" r="0"><path fill="#434348" d="M 301.1 249.5 L 324.4 251.9 L 325.3 213.6 L 301.8 211.5 Z"  stroke-linejoin="round"></path><path fill="rgb(92,92,97)" fill-opacity="1" d="M 325.3 213.6 L 332.2 200.7 L 309.5 198.7 L 301.8 211.5 Z"  stroke-linejoin="round"></path><path fill="rgb(42,42,47)" fill-opacity="1" d="M 325.3 213.6 L 324.4 251.9 L 331.3 237.7 L 332.2 200.7 Z"  stroke-linejoin="round"></path></g><g  stroke="#434348" stroke-width="1" r="0"><path fill="#434348" d="M 396.0 259.0 L 420.4 261.5 L 425.4 162.7 L 400.3 160.8 Z"  stroke-linejoin="round"></path><path fill="rgb(92,92,97)" fill-opacity="1" d="M 425.4 162.7 L 428.8 151.2 L 404.6 149.5 L 400.3 160.8 Z"  stroke-linejoin="round"></path><path fill="rgb(42,42,47)" fill-opacity="1" d="M 425.4 162.7 L 420.4 261.5 L 424.0 246.7 L 428.8 151.2 Z"  stroke-linejoin="round"></path></g></g><g class="highcharts-markers" visibility="visible"  transform="translate(64,80) scale(1 1)"></g><g class="highcharts-series highcharts-tracker" visibility="visible"  transform="translate(64,80) scale(1 1)" style="" clip-path="url(#highcharts-1)"><g  stroke="#7cb5ec" stroke-width="1" r="0"><path fill="#7cb5ec" d="M 38.7 170.0 L 59.3 171.8 L 54.6 77.4 L 33.6 76.1 Z"  stroke-linejoin="round"></path><path fill="rgb(149,206,255)" fill-opacity="1" d="M 54.6 77.4 L 70.7 69.7 L 50.2 68.5 L 33.6 76.1 Z"  stroke-linejoin="round"></path><path fill="rgb(99,156,211)" fill-opacity="1" d="M 54.6 77.4 L 59.3 171.8 L 74.8 161.1 L 70.7 69.7 Z"  stroke-linejoin="round"></path></g><g  stroke="#7cb5ec" stroke-width="1" r="0"><path fill="#7cb5ec" d="M 121.9 158.0 L 143.5 159.8 L 142.0 102.7 L 120.0 101.3 Z"  stroke-linejoin="round"></path><path fill="rgb(149,206,255)" fill-opacity="1" d="M 142.0 102.7 L 155.3 94.0 L 134.0 92.6 L 120.0 101.3 Z"  stroke-linejoin="round"></path><path fill="rgb(99,156,211)" fill-opacity="1" d="M 142.0 102.7 L 143.5 159.8 L 156.5 149.2 L 155.3 94.0 Z"  stroke-linejoin="round"></path></g><g  stroke="#7cb5ec" stroke-width="1" r="0"><path fill="#7cb5ec" d="M 210.0 165.2 L 232.7 167.0 L 232.6 88.1 L 209.4 86.7 Z"  stroke-linejoin="round"></path><path fill="rgb(149,206,255)" fill-opacity="1" d="M 232.6 88.1 L 242.9 79.7 L 220.5 78.4 L 209.4 86.7 Z"  stroke-linejoin="round"></path><path fill="rgb(99,156,211)" fill-opacity="1" d="M 232.6 88.1 L 232.7 167.0 L 242.8 155.9 L 242.9 79.7 Z"  stroke-linejoin="round"></path></g><g  stroke="#7cb5ec" stroke-width="1" r="0"><path fill="rgb(149,206,255)" fill-opacity="1" d="M 328.6 73.7 L 335.6 65.6 L 312.0 64.3 L 304.1 72.4 Z"  stroke-linejoin="round"></path><path fill="#7cb5ec" d="M 301.8 211.5 L 325.3 213.6 L 328.6 73.7 L 304.1 72.4 Z"  stroke-linejoin="round"></path><path fill="rgb(99,156,211)" fill-opacity="1" d="M 328.6 73.7 L 325.3 213.6 L 332.2 200.7 L 335.6 65.6 Z"  stroke-linejoin="round"></path></g><g  stroke="#7cb5ec" stroke-width="1" r="0"><path fill="#7cb5ec" d="M 400.3 160.8 L 425.4 162.7 L 427.5 121.5 L 402.0 119.8 Z"  stroke-linejoin="round"></path><path fill="rgb(149,206,255)" fill-opacity="1" d="M 427.5 121.5 L 430.9 111.4 L 406.4 109.9 L 402.0 119.8 Z"  stroke-linejoin="round"></path><path fill="rgb(99,156,211)" fill-opacity="1" d="M 427.5 121.5 L 425.4 162.7 L 428.8 151.2 L 430.9 111.4 Z"  stroke-linejoin="round"></path></g></g><g class="highcharts-markers" visibility="visible"  transform="translate(64,80) scale(1 1)"></g><g class="highcharts-series highcharts-tracker" visibility="visible"  transform="translate(64,80) scale(1 1)" style="" clip-path="url(#highcharts-1)"><g  stroke="#f7a35c" stroke-width="1" r="0"><path fill="#f7a35c" d="M 66.2 225.9 L 86.8 228.0 L 84.5 173.9 L 63.6 172.1 Z"  stroke-linejoin="round"></path><path fill="rgb(255,188,117)" fill-opacity="1" d="M 84.5 173.9 L 99.2 163.1 L 78.9 161.4 L 63.6 172.1 Z"  stroke-linejoin="round"></path><path fill="rgb(222,138,67)" fill-opacity="1" d="M 84.5 173.9 L 86.8 228.0 L 101.2 215.5 L 99.2 163.1 Z"  stroke-linejoin="round"></path></g><g  stroke="#f7a35c" stroke-width="1" r="0"><path fill="#f7a35c" d="M 0 0"  stroke-linejoin="round"></path><path fill="rgb(222,138,67)" fill-opacity="1" d="M 0 0"  stroke-linejoin="round"></path><path fill="rgb(255,188,117)" fill-opacity="1" d="M 171.4 236.5 L 183.3 223.4 L 162.4 221.4 L 149.9 234.3 Z"  stroke-linejoin="round"></path></g><g  stroke="#f7a35c" stroke-width="1" r="0"><path fill="#f7a35c" d="M 237.5 243.1 L 260.1 245.4 L 260.5 169.3 L 237.5 167.4 Z"  stroke-linejoin="round"></path><path fill="rgb(255,188,117)" fill-opacity="1" d="M 260.5 169.3 L 269.7 158.0 L 247.4 156.3 L 237.5 167.4 Z"  stroke-linejoin="round"></path><path fill="rgb(222,138,67)" fill-opacity="1" d="M 260.5 169.3 L 260.1 245.4 L 269.1 231.7 L 269.7 158.0 Z"  stroke-linejoin="round"></path></g><g  stroke="#f7a35c" stroke-width="1" r="0"><path fill="#f7a35c" d="M 329.3 252.3 L 353.0 254.7 L 355.4 176.9 L 331.2 175.0 Z"  stroke-linejoin="round"></path><path fill="rgb(255,188,117)" fill-opacity="1" d="M 355.4 176.9 L 361.3 165.2 L 338.0 163.3 L 331.2 175.0 Z"  stroke-linejoin="round"></path><path fill="rgb(222,138,67)" fill-opacity="1" d="M 355.4 176.9 L 353.0 254.7 L 358.8 240.4 L 361.3 165.2 Z"  stroke-linejoin="round"></path></g><g  stroke="#f7a35c" stroke-width="1" r="0"><path fill="#f7a35c" d="M 425.6 262.0 L 450.4 264.5 L 453.8 205.7 L 428.6 203.5 Z"  stroke-linejoin="round"></path><path fill="rgb(255,188,117)" fill-opacity="1" d="M 453.8 205.7 L 456.2 192.6 L 431.9 190.6 L 428.6 203.5 Z"  stroke-linejoin="round"></path><path fill="rgb(222,138,67)" fill-opacity="1" d="M 453.8 205.7 L 450.4 264.5 L 452.8 249.5 L 456.2 192.6 Z"  stroke-linejoin="round"></path></g></g><g class="highcharts-markers" visibility="visible"  transform="translate(64,80) scale(1 1)"></g><g class="highcharts-series highcharts-tracker" visibility="visible"  transform="translate(64,80) scale(1 1)" style="" clip-path="url(#highcharts-1)"><g  stroke="#90ed7d" stroke-width="1" r="0"><path fill="#90ed7d" d="M 63.6 172.1 L 84.5 173.9 L 82.9 136.7 L 61.8 135.1 Z"  stroke-linejoin="round"></path><path fill="rgb(169,255,150)" fill-opacity="1" d="M 82.9 136.7 L 97.8 127.0 L 77.4 125.5 L 61.8 135.1 Z"  stroke-linejoin="round"></path><path fill="rgb(119,212,100)" fill-opacity="1" d="M 82.9 136.7 L 84.5 173.9 L 99.2 163.1 L 97.8 127.0 Z"  stroke-linejoin="round"></path></g><g  stroke="#90ed7d" stroke-width="1" r="0"><path fill="#90ed7d" d="M 149.9 234.3 L 171.4 236.5 L 169.7 143.3 L 147.6 141.6 Z"  stroke-linejoin="round"></path><path fill="rgb(169,255,150)" fill-opacity="1" d="M 169.7 143.3 L 181.9 133.2 L 160.5 131.6 L 147.6 141.6 Z"  stroke-linejoin="round"></path><path fill="rgb(119,212,100)" fill-opacity="1" d="M 169.7 143.3 L 171.4 236.5 L 183.3 223.4 L 181.9 133.2 Z"  stroke-linejoin="round"></path></g><g  stroke="#90ed7d" stroke-width="1" r="0"><path fill="#90ed7d" d="M 237.5 167.4 L 260.5 169.3 L 261.2 48.9 L 237.4 47.7 Z"  stroke-linejoin="round"></path><path fill="rgb(169,255,150)" fill-opacity="1" d="M 261.2 48.9 L 270.6 41.7 L 247.7 40.6 L 237.4 47.7 Z"  stroke-linejoin="round"></path><path fill="rgb(119,212,100)" fill-opacity="1" d="M 261.2 48.9 L 260.5 169.3 L 269.7 158.0 L 270.6 41.7 Z"  stroke-linejoin="round"></path></g><g  stroke="#90ed7d" stroke-width="1" r="0"><path fill="#90ed7d" d="M 331.2 175.0 L 355.4 176.9 L 356.7 136.8 L 332.2 135.1 Z"  stroke-linejoin="round"></path><path fill="rgb(169,255,150)" fill-opacity="1" d="M 356.7 136.8 L 362.6 126.4 L 339.0 124.8 L 332.2 135.1 Z"  stroke-linejoin="round"></path><path fill="rgb(119,212,100)" fill-opacity="1" d="M 356.7 136.8 L 355.4 176.9 L 361.3 165.2 L 362.6 126.4 Z"  stroke-linejoin="round"></path></g><g  stroke="#90ed7d" stroke-width="1" r="0"><path fill="#90ed7d" d="M 428.6 203.5 L 453.8 205.7 L 455.0 185.0 L 429.7 183.0 Z"  stroke-linejoin="round"></path><path fill="rgb(119,212,100)" fill-opacity="1" d="M 455.0 185.0 L 453.8 205.7 L 456.2 192.6 L 457.4 172.6 Z"  stroke-linejoin="round"></path><path fill="rgb(169,255,150)" fill-opacity="1" d="M 455.0 185.0 L 457.4 172.6 L 432.9 170.7 L 429.7 183.0 Z"  stroke-linejoin="round"></path></g></g><g class="highcharts-markers" visibility="visible"  transform="translate(64,80) scale(1 1)"></g></g><text x="292" text-anchor="middle" class="highcharts-title"  style="color:#333333;font-size:18px;fill:#333333;width:520px;" y="24"><tspan>Total fruit consumption, grouped by gender</tspan></text><g class="highcharts-legend"  transform="translate(158,359)"><g ><g><g class="highcharts-legend-item"  transform="translate(8,3)"><text x="21" style="color:#333333;font-size:12px;font-weight:bold;cursor:pointer;fill:#333333;" text-anchor="start"  y="15">John</text><rect x="0" y="4" width="16" height="12"  fill="#7cb5ec"></rect></g><g class="highcharts-legend-item"  transform="translate(78,3)"><text x="21" y="15" style="color:#333333;font-size:12px;font-weight:bold;cursor:pointer;fill:#333333;" text-anchor="start" >Joe</text><rect x="0" y="4" width="16" height="12"  fill="#434348"></rect></g><g class="highcharts-legend-item"  transform="translate(139,3)"><text x="21" y="15" style="color:#333333;font-size:12px;font-weight:bold;cursor:pointer;fill:#333333;" text-anchor="start" >Jane</text><rect x="0" y="4" width="16" height="12"  fill="#90ed7d"></rect></g><g class="highcharts-legend-item"  transform="translate(207,3)"><text x="21" y="15" style="color:#333333;font-size:12px;font-weight:bold;cursor:pointer;fill:#333333;" text-anchor="start" >Janet</text><rect x="0" y="4" width="16" height="12"  fill="#f7a35c"></rect></g></g></g></g><g class="highcharts-axis-labels highcharts-xaxis-labels" ><text x="128.4" style="color:#606060;cursor:default;font-size:11px;fill:#606060;width:86px;text-overflow:clip;" text-anchor="middle" transform="translate(0,0)" y="322.0" z="86.0" old="[object Object]" opacity="1">Apples</text><text x="211.8" style="color:#606060;cursor:default;font-size:11px;fill:#606060;width:86px;text-overflow:clip;" text-anchor="middle" transform="translate(0,0)" y="330.7" z="62.0" old="[object Object]" opacity="1">Oranges</text><text x="299.0" style="color:#606060;cursor:default;font-size:11px;fill:#606060;width:86px;text-overflow:clip;" text-anchor="middle" transform="translate(0,0)" y="339.9" z="38.0" old="[object Object]" opacity="1">Pears</text><text x="390.3" style="color:#606060;cursor:default;font-size:11px;fill:#606060;width:86px;text-overflow:clip;" text-anchor="middle" transform="translate(0,0)" y="349.5" z="14.0" old="[object Object]" opacity="1">Grapes</text><text x="486.0" style="color:#606060;cursor:default;font-size:11px;fill:#606060;width:86px;text-overflow:clip;" text-anchor="middle" transform="translate(0,0)" y="359.5" z="-9.9" old="[object Object]" opacity="1">Bananas</text></g><g class="highcharts-axis-labels highcharts-zaxis-labels" ></g><g class="highcharts-axis-labels highcharts-yaxis-labels" ><text x="75.0" style="color:#606060;cursor:default;font-size:11px;fill:#606060;width:183px;text-overflow:clip;" text-anchor="end" transform="translate(0,0)" y="304.5" z="98.2" old="[object Object]" opacity="1">0</text><text x="72.7" style="color:#606060;cursor:default;font-size:11px;fill:#606060;width:183px;text-overflow:clip;" text-anchor="end" transform="translate(0,0)" y="269.1" z="87.6" old="[object Object]" opacity="1">2</text><text x="70.4" style="color:#606060;cursor:default;font-size:11px;fill:#606060;width:183px;text-overflow:clip;" text-anchor="end" transform="translate(0,0)" y="233.0" z="76.9" old="[object Object]" opacity="1">4</text><text x="68.1" style="color:#606060;cursor:default;font-size:11px;fill:#606060;width:183px;text-overflow:clip;" text-anchor="end" transform="translate(0,0)" y="196.1" z="66.3" old="[object Object]" opacity="1">6</text><text x="65.7" style="color:#606060;cursor:default;font-size:11px;fill:#606060;width:183px;text-overflow:clip;" text-anchor="end" transform="translate(0,0)" y="158.6" z="55.7" old="[object Object]" opacity="1">8</text><text x="63.3" style="color:#606060;cursor:default;font-size:11px;fill:#606060;width:183px;text-overflow:clip;" text-anchor="end" transform="translate(0,0)" y="120.2" z="45.1" old="[object Object]" opacity="1">10</text><text x="60.9" style="color:#606060;cursor:default;font-size:11px;fill:#606060;width:183px;text-overflow:clip;" text-anchor="end" transform="translate(0,0)" y="81.1" z="34.5" old="[object Object]" opacity="1">12</text></g><g class="highcharts-tooltip"  style="cursor:default;padding:0;white-space:nowrap;" transform="translate(0,-9999)"><path fill="none" d="M 3.5 0.5 L 13.5 0.5 C 16.5 0.5 16.5 0.5 16.5 3.5 L 16.5 13.5 C 16.5 16.5 16.5 16.5 13.5 16.5 L 3.5 16.5 C 0.5 16.5 0.5 16.5 0.5 13.5 L 0.5 3.5 C 0.5 0.5 0.5 0.5 3.5 0.5"  stroke="black" stroke-opacity="0.0" stroke-width="5" transform="translate(1, 1)"></path><path fill="none" d="M 3.5 0.5 L 13.5 0.5 C 16.5 0.5 16.5 0.5 16.5 3.5 L 16.5 13.5 C 16.5 16.5 16.5 16.5 13.5 16.5 L 3.5 16.5 C 0.5 16.5 0.5 16.5 0.5 13.5 L 0.5 3.5 C 0.5 0.5 0.5 0.5 3.5 0.5"  stroke="black" stroke-opacity="0.0" stroke-width="3" transform="translate(1, 1)"></path><path fill="none" d="M 3.5 0.5 L 13.5 0.5 C 16.5 0.5 16.5 0.5 16.5 3.5 L 16.5 13.5 C 16.5 16.5 16.5 16.5 13.5 16.5 L 3.5 16.5 C 0.5 16.5 0.5 16.5 0.5 13.5 L 0.5 3.5 C 0.5 0.5 0.5 0.5 3.5 0.5"  stroke="black" stroke-opacity="0.1" stroke-width="1" transform="translate(1, 1)"></path><path fill="rgb(249, 249, 249)" fill-opacity=" .85" d="M 3.5 0.5 L 13.5 0.5 C 16.5 0.5 16.5 0.5 16.5 3.5 L 16.5 13.5 C 16.5 16.5 16.5 16.5 13.5 16.5 L 3.5 16.5 C 0.5 16.5 0.5 16.5 0.5 13.5 L 0.5 3.5 C 0.5 0.5 0.5 0.5 3.5 0.5"></path><text x="8"  style="font-size:12px;color:#333333;fill:#333333;" y="20"></text></g></svg>