<svg version="1.1" style="font-family: signika, serif; font-size: 12px; background-image: url(http://www.highcharts.com/samples/graphics/sand.png); background-position: initial initial; background-repeat: initial initial;" xmlns="http://www.w3.org/2000/svg" width="584" height="400" viewBox="0 0 584 400" xmlns:xlink="http://www.w3.org/1999/xlink"><style type="text/css"><![CDATA[@import url(http://fonts.googleapis.com/css?family=Signika:700);]]></style><desc>Created with Highcharts 4.1.7</desc><defs><clipPath id="highcharts-1"><rect x="0" y="-80" width="624" height="480"></rect></clipPath></defs><g  style="stroke:rgba(255,255,255,0);"><path fill="rgb(230,230,230)" fill-opacity="0" d="M 554.7 89.2 L 538.3 336.5 L 538.4 336.2 L 554.7 89.0 Z"  stroke-linejoin="round"></path><path fill="rgb(255,255,255)" fill-opacity="0" d="M 554.7 89.2 L 554.7 89.0 L 85.4 71.7 L 85.0 71.8 Z"  stroke-linejoin="round"></path><path fill="rgb(255,255,255)" fill-opacity="0" d="M 97.4 293.6 L 538.3 336.5 L 554.7 89.2 L 85.0 71.8 Z"  stroke-linejoin="round"></path></g><g  style="stroke:rgba(255,255,255,0);"><path fill="rgb(255,255,255)" fill-opacity="0" d="M 68.0 76.7 L 85.8 71.9 L 85.0 71.8 L 67.1 76.7 Z"  stroke-linejoin="round"></path><path fill="rgb(255,255,255)" fill-opacity="0" d="M 81.0 305.7 L 81.8 305.8 L 68.0 76.7 L 67.1 76.7 Z"  stroke-linejoin="round"></path><path fill="rgb(230,230,230)" fill-opacity="0" d="M 68.0 76.7 L 81.8 305.8 L 98.2 293.7 L 85.8 71.9 Z"  stroke-linejoin="round"></path></g><g  style="stroke:rgba(255,255,255,0);"><path fill="rgb(230,230,230)" fill-opacity="0" d="M 536.9 350.9 L 536.8 351.9 L 538.3 336.5 L 538.4 335.6 Z"  stroke-linejoin="round"></path><path fill="rgb(255,255,255)" fill-opacity="0" d="M 81.8 305.8 L 536.8 351.9 L 536.9 350.9 L 81.8 305.0 Z"  stroke-linejoin="round"></path><path fill="rgb(255,255,255)" fill-opacity="0" d="M 536.9 350.9 L 538.4 335.6 L 98.1 292.8 L 81.8 305.0 Z"  stroke-linejoin="round"></path></g><g class="highcharts-grid" ><path fill="none" d="M 170.2 75.0 L 170.2 75.0 L 177.9 300.6 L 163.9 313.3" stroke="#D8D8D8" stroke-width="1"  opacity="1"></path><path fill="none" d="M 259.1 78.3 L 259.1 78.3 L 261.6 308.7 L 250.3 322.0" stroke="#D8D8D8" stroke-width="1"  opacity="1"></path><path fill="none" d="M 353.3 81.7 L 353.3 81.7 L 350.1 317.3 L 341.7 331.2" stroke="#D8D8D8" stroke-width="1"  opacity="1"></path><path fill="none" d="M 451.2 85.4 L 451.2 85.4 L 441.8 326.2 L 436.7 340.8" stroke="#D8D8D8" stroke-width="1"  opacity="1"></path><path fill="none" d="M 555.2 89.2 L 555.2 89.2 L 538.9 335.7 L 537.4 351.0" stroke="#D8D8D8" stroke-width="1"  opacity="1"></path><path fill="none" d="M 85.4 71.8 L 85.4 71.8 L 97.7 292.8 L 81.3 304.9" stroke="#D8D8D8" stroke-width="1"  opacity="1"></path></g><g class="highcharts-grid" ></g><g class="highcharts-grid" ><path fill="none" d="M 81.8 305.4 L 98.2 293.2 L 538.4 336.1 L 538.4 336.1" stroke="#D8D8D8" stroke-width="1"  opacity="1"></path><path fill="none" d="M 79.6 269.0 L 96.2 257.9 L 541.0 296.9 L 541.0 296.9" stroke="#D8D8D8" stroke-width="1"  opacity="1"></path><path fill="none" d="M 77.4 232.7 L 94.2 222.8 L 543.5 257.9 L 543.5 257.9" stroke="#D8D8D8" stroke-width="1"  opacity="1"></path><path fill="none" d="M 75.1 194.8 L 92.2 186.0 L 546.2 217.0 L 546.2 217.0" stroke="#D8D8D8" stroke-width="1"  opacity="1"></path><path fill="none" d="M 72.8 156.1 L 90.1 148.6 L 549.0 175.2 L 549.0 175.2" stroke="#D8D8D8" stroke-width="1"  opacity="1"></path><path fill="none" d="M 70.4 117.5 L 88.0 111.3 L 551.7 133.4 L 551.7 133.4" stroke="#D8D8D8" stroke-width="1"  opacity="1"></path><path fill="none" d="M 68.0 76.3 L 85.8 71.4 L 554.7 88.7 L 554.7 88.7" stroke="#D8D8D8" stroke-width="1"  opacity="1"></path></g><g class="highcharts-axis" ><path fill="none" d="M 0 0" stroke="#C0D0E0" stroke-width="1"  visibility="visible"></path></g><g class="highcharts-axis" ></g><g class="highcharts-axis" ><text x="44.5"  text-anchor="middle" transform="translate(0,0) rotate(270 44.5 192.2)" class=" highcharts-yaxis-title" style="color:#707070;fill:#707070;" visibility="visible" y="192.2" z="71.0"><tspan>Number of fruits</tspan></text></g><g class="highcharts-series-group" ><g class="highcharts-series highcharts-tracker" visibility="visible"  transform="translate(58,80) scale(1 1)" style="" clip-path="url(#highcharts-1)"><g  stroke="black" stroke-width="5" r="0"  stroke-opacity="0.0" transform="translate(1, 1)" fill="none" height="0"></g><g  stroke="black" stroke-width="3" r="0"  stroke-opacity="0.0" transform="translate(1, 1)" fill="none" height="0"></g><g  stroke="black" stroke-width="1" r="0"  stroke-opacity="0.1" transform="translate(1, 1)" fill="none" height="0"></g><g  stroke="#8085e9" stroke-width="1" r="0"><path fill="#8085e9" d="M 42.2 226.9 L 62.4 228.9 L 59.7 174.4 L 39.2 172.7 Z"  stroke-linejoin="round"></path><path fill="rgb(153,158,255)" fill-opacity="1" d="M 59.7 174.4 L 75.3 163.7 L 55.3 162.1 L 39.2 172.7 Z"  stroke-linejoin="round"></path><path fill="rgb(103,108,208)" fill-opacity="1" d="M 59.7 174.4 L 62.4 228.9 L 77.7 216.6 L 75.3 163.7 Z"  stroke-linejoin="round"></path></g><g  stroke="black" stroke-width="5" r="0"  stroke-opacity="0.0" transform="translate(1, 1)" fill="none" height="0"></g><g  stroke="black" stroke-width="3" r="0"  stroke-opacity="0.0" transform="translate(1, 1)" fill="none" height="0"></g><g  stroke="black" stroke-width="1" r="0"  stroke-opacity="0.1" transform="translate(1, 1)" fill="none" height="0"></g><g  stroke="#8085e9" stroke-width="1" r="0"><path fill="#8085e9" d="M 126.4 235.4 L 147.6 237.5 L 145.6 162.6 L 124.0 160.9 Z"  stroke-linejoin="round"></path><path fill="rgb(153,158,255)" fill-opacity="1" d="M 145.6 162.6 L 158.6 152.0 L 137.7 150.4 L 124.0 160.9 Z"  stroke-linejoin="round"></path><path fill="rgb(103,108,208)" fill-opacity="1" d="M 145.6 162.6 L 147.6 237.5 L 160.3 224.6 L 158.6 152.0 Z"  stroke-linejoin="round"></path></g><g  stroke="black" stroke-width="5" r="0"  stroke-opacity="0.0" transform="translate(1, 1)" fill="none" height="0"></g><g  stroke="black" stroke-width="3" r="0"  stroke-opacity="0.0" transform="translate(1, 1)" fill="none" height="0"></g><g  stroke="black" stroke-width="1" r="0"  stroke-opacity="0.1" transform="translate(1, 1)" fill="none" height="0"></g><g  stroke="#8085e9" stroke-width="1" r="0"><path fill="#8085e9" d="M 213.6 244.2 L 235.9 246.5 L 235.7 170.0 L 213.0 168.1 Z"  stroke-linejoin="round"></path><path fill="rgb(153,158,255)" fill-opacity="1" d="M 235.7 170.0 L 245.8 158.8 L 223.9 157.1 L 213.0 168.1 Z"  stroke-linejoin="round"></path><path fill="rgb(103,108,208)" fill-opacity="1" d="M 235.7 170.0 L 235.9 246.5 L 245.8 232.9 L 245.8 158.8 Z"  stroke-linejoin="round"></path></g><g  stroke="black" stroke-width="5" r="0"  stroke-opacity="0.0" transform="translate(1, 1)" fill="none" height="0"></g><g  stroke="black" stroke-width="3" r="0"  stroke-opacity="0.0" transform="translate(1, 1)" fill="none" height="0"></g><g  stroke="black" stroke-width="1" r="0"  stroke-opacity="0.1" transform="translate(1, 1)" fill="none" height="0"></g><g  stroke="#8085e9" stroke-width="1" r="0"><path fill="#8085e9" d="M 305.1 253.4 L 328.4 255.8 L 329.3 216.7 L 305.7 214.5 Z"  stroke-linejoin="round"></path><path fill="rgb(153,158,255)" fill-opacity="1" d="M 329.3 216.7 L 336.2 203.7 L 313.4 201.7 L 305.7 214.5 Z"  stroke-linejoin="round"></path><path fill="rgb(103,108,208)" fill-opacity="1" d="M 329.3 216.7 L 328.4 255.8 L 335.2 241.6 L 336.2 203.7 Z"  stroke-linejoin="round"></path></g><g  stroke="black" stroke-width="5" r="0"  stroke-opacity="0.0" transform="translate(1, 1)" fill="none" height="0"></g><g  stroke="black" stroke-width="3" r="0"  stroke-opacity="0.0" transform="translate(1, 1)" fill="none" height="0"></g><g  stroke="black" stroke-width="1" r="0"  stroke-opacity="0.1" transform="translate(1, 1)" fill="none" height="0"></g><g  stroke="#8085e9" stroke-width="1" r="0"><path fill="#8085e9" d="M 401.0 263.1 L 425.4 265.6 L 430.5 164.9 L 405.4 163.0 Z"  stroke-linejoin="round"></path><path fill="rgb(153,158,255)" fill-opacity="1" d="M 430.5 164.9 L 433.9 153.4 L 409.6 151.6 L 405.4 163.0 Z"  stroke-linejoin="round"></path><path fill="rgb(103,108,208)" fill-opacity="1" d="M 430.5 164.9 L 425.4 265.6 L 428.9 250.7 L 433.9 153.4 Z"  stroke-linejoin="round"></path></g></g><g class="highcharts-markers" visibility="visible"  transform="translate(58,80) scale(1 1)"></g><g class="highcharts-series highcharts-tracker" visibility="visible"  transform="translate(58,80) scale(1 1)" style="" clip-path="url(#highcharts-1)"><g  stroke="black" stroke-width="5" r="0"  stroke-opacity="0.0" transform="translate(1, 1)" fill="none" height="0"></g><g  stroke="black" stroke-width="3" r="0"  stroke-opacity="0.0" transform="translate(1, 1)" fill="none" height="0"></g><g  stroke="black" stroke-width="1" r="0"  stroke-opacity="0.1" transform="translate(1, 1)" fill="none" height="0"></g><g  stroke="#f45b5b" stroke-width="1" r="0"><path fill="#f45b5b" d="M 39.2 172.7 L 59.7 174.4 L 55.0 78.3 L 33.9 77.0 Z"  stroke-linejoin="round"></path><path fill="rgb(255,116,116)" fill-opacity="1" d="M 55.0 78.3 L 71.1 70.6 L 50.6 69.5 L 33.9 77.0 Z"  stroke-linejoin="round"></path><path fill="rgb(219,66,66)" fill-opacity="1" d="M 55.0 78.3 L 59.7 174.4 L 75.3 163.7 L 71.1 70.6 Z"  stroke-linejoin="round"></path></g><g  stroke="black" stroke-width="5" r="0"  stroke-opacity="0.0" transform="translate(1, 1)" fill="none" height="0"></g><g  stroke="black" stroke-width="3" r="0"  stroke-opacity="0.0" transform="translate(1, 1)" fill="none" height="0"></g><g  stroke="black" stroke-width="1" r="0"  stroke-opacity="0.1" transform="translate(1, 1)" fill="none" height="0"></g><g  stroke="#f45b5b" stroke-width="1" r="0"><path fill="#f45b5b" d="M 124.0 160.9 L 145.6 162.6 L 144.1 103.7 L 122.1 102.3 Z"  stroke-linejoin="round"></path><path fill="rgb(255,116,116)" fill-opacity="1" d="M 144.1 103.7 L 157.3 95.0 L 136.1 93.7 L 122.1 102.3 Z"  stroke-linejoin="round"></path><path fill="rgb(219,66,66)" fill-opacity="1" d="M 144.1 103.7 L 145.6 162.6 L 158.6 152.0 L 157.3 95.0 Z"  stroke-linejoin="round"></path></g><g  stroke="black" stroke-width="5" r="0"  stroke-opacity="0.0" transform="translate(1, 1)" fill="none" height="0"></g><g  stroke="black" stroke-width="3" r="0"  stroke-opacity="0.0" transform="translate(1, 1)" fill="none" height="0"></g><g  stroke="black" stroke-width="1" r="0"  stroke-opacity="0.1" transform="translate(1, 1)" fill="none" height="0"></g><g  stroke="#f45b5b" stroke-width="1" r="0"><path fill="#f45b5b" d="M 213.0 168.1 L 235.7 170.0 L 235.6 89.2 L 212.4 87.8 Z"  stroke-linejoin="round"></path><path fill="rgb(255,116,116)" fill-opacity="1" d="M 235.6 89.2 L 245.9 80.7 L 223.5 79.5 L 212.4 87.8 Z"  stroke-linejoin="round"></path><path fill="rgb(219,66,66)" fill-opacity="1" d="M 235.6 89.2 L 235.7 170.0 L 245.8 158.8 L 245.9 80.7 Z"  stroke-linejoin="round"></path></g><g  stroke="black" stroke-width="5" r="0"  stroke-opacity="0.0" transform="translate(1, 1)" fill="none" height="0"></g><g  stroke="black" stroke-width="3" r="0"  stroke-opacity="0.0" transform="translate(1, 1)" fill="none" height="0"></g><g  stroke="black" stroke-width="1" r="0"  stroke-opacity="0.1" transform="translate(1, 1)" fill="none" height="0"></g><g  stroke="#f45b5b" stroke-width="1" r="0"><path fill="rgb(255,116,116)" fill-opacity="1" d="M 332.7 74.8 L 339.7 66.6 L 316.0 65.4 L 308.2 73.4 Z"  stroke-linejoin="round"></path><path fill="#f45b5b" d="M 305.7 214.5 L 329.3 216.7 L 332.7 74.8 L 308.2 73.4 Z"  stroke-linejoin="round"></path><path fill="rgb(219,66,66)" fill-opacity="1" d="M 332.7 74.8 L 329.3 216.7 L 336.2 203.7 L 339.7 66.6 Z"  stroke-linejoin="round"></path></g><g  stroke="black" stroke-width="5" r="0"  stroke-opacity="0.0" transform="translate(1, 1)" fill="none" height="0"></g><g  stroke="black" stroke-width="3" r="0"  stroke-opacity="0.0" transform="translate(1, 1)" fill="none" height="0"></g><g  stroke="black" stroke-width="1" r="0"  stroke-opacity="0.1" transform="translate(1, 1)" fill="none" height="0"></g><g  stroke="#f45b5b" stroke-width="1" r="0"><path fill="#f45b5b" d="M 405.4 163.0 L 430.5 164.9 L 432.7 122.6 L 407.2 120.9 Z"  stroke-linejoin="round"></path><path fill="rgb(255,116,116)" fill-opacity="1" d="M 432.7 122.6 L 436.0 112.6 L 411.5 111.0 L 407.2 120.9 Z"  stroke-linejoin="round"></path><path fill="rgb(219,66,66)" fill-opacity="1" d="M 432.7 122.6 L 430.5 164.9 L 433.9 153.4 L 436.0 112.6 Z"  stroke-linejoin="round"></path></g></g><g class="highcharts-markers" visibility="visible"  transform="translate(58,80) scale(1 1)"></g><g class="highcharts-series highcharts-tracker" visibility="visible"  transform="translate(58,80) scale(1 1)" style="" clip-path="url(#highcharts-1)"><g  stroke="black" stroke-width="5" r="0"  stroke-opacity="0.0" transform="translate(1, 1)" fill="none" height="0"></g><g  stroke="black" stroke-width="3" r="0"  stroke-opacity="0.0" transform="translate(1, 1)" fill="none" height="0"></g><g  stroke="black" stroke-width="1" r="0"  stroke-opacity="0.1" transform="translate(1, 1)" fill="none" height="0"></g><g  stroke="#7798BF" stroke-width="1" r="0"><path fill="#7798BF" d="M 67.6 229.5 L 88.1 231.5 L 85.8 176.7 L 64.9 174.9 Z"  stroke-linejoin="round"></path><path fill="rgb(144,177,216)" fill-opacity="1" d="M 85.8 176.7 L 100.5 165.8 L 80.3 164.1 L 64.9 174.9 Z"  stroke-linejoin="round"></path><path fill="rgb(94,127,166)" fill-opacity="1" d="M 85.8 176.7 L 88.1 231.5 L 102.6 219.0 L 100.5 165.8 Z"  stroke-linejoin="round"></path></g><g  stroke="black" stroke-width="5" r="0"  stroke-opacity="0.0" transform="translate(1, 1)" fill="none" height="0"></g><g  stroke="black" stroke-width="3" r="0"  stroke-opacity="0.0" transform="translate(1, 1)" fill="none" height="0"></g><g  stroke="black" stroke-width="1" r="0"  stroke-opacity="0.1" transform="translate(1, 1)" fill="none" height="0"></g><g  stroke="#7798BF" stroke-width="1" r="0"><path fill="#7798BF" d="M 0 0"  stroke-linejoin="round"></path><path fill="rgb(94,127,166)" fill-opacity="1" d="M 0 0"  stroke-linejoin="round"></path><path fill="rgb(144,177,216)" fill-opacity="1" d="M 173.6 240.2 L 185.4 227.0 L 164.6 225.0 L 152.1 238.0 Z"  stroke-linejoin="round"></path></g><g  stroke="black" stroke-width="5" r="0"  stroke-opacity="0.0" transform="translate(1, 1)" fill="none" height="0"></g><g  stroke="black" stroke-width="3" r="0"  stroke-opacity="0.0" transform="translate(1, 1)" fill="none" height="0"></g><g  stroke="black" stroke-width="1" r="0"  stroke-opacity="0.1" transform="translate(1, 1)" fill="none" height="0"></g><g  stroke="#7798BF" stroke-width="1" r="0"><path fill="#7798BF" d="M 240.5 246.9 L 263.1 249.2 L 263.5 172.2 L 240.5 170.3 Z"  stroke-linejoin="round"></path><path fill="rgb(144,177,216)" fill-opacity="1" d="M 263.5 172.2 L 272.7 160.9 L 250.4 159.2 L 240.5 170.3 Z"  stroke-linejoin="round"></path><path fill="rgb(94,127,166)" fill-opacity="1" d="M 263.5 172.2 L 263.1 249.2 L 272.1 235.5 L 272.7 160.9 Z"  stroke-linejoin="round"></path></g><g  stroke="black" stroke-width="5" r="0"  stroke-opacity="0.0" transform="translate(1, 1)" fill="none" height="0"></g><g  stroke="black" stroke-width="3" r="0"  stroke-opacity="0.0" transform="translate(1, 1)" fill="none" height="0"></g><g  stroke="black" stroke-width="1" r="0"  stroke-opacity="0.1" transform="translate(1, 1)" fill="none" height="0"></g><g  stroke="#7798BF" stroke-width="1" r="0"><path fill="#7798BF" d="M 333.2 256.3 L 356.9 258.7 L 359.4 180.0 L 335.2 178.0 Z"  stroke-linejoin="round"></path><path fill="rgb(144,177,216)" fill-opacity="1" d="M 359.4 180.0 L 365.3 168.2 L 341.9 166.4 L 335.2 178.0 Z"  stroke-linejoin="round"></path><path fill="rgb(94,127,166)" fill-opacity="1" d="M 359.4 180.0 L 356.9 258.7 L 362.7 244.3 L 365.3 168.2 Z"  stroke-linejoin="round"></path></g><g  stroke="black" stroke-width="5" r="0"  stroke-opacity="0.0" transform="translate(1, 1)" fill="none" height="0"></g><g  stroke="black" stroke-width="3" r="0"  stroke-opacity="0.0" transform="translate(1, 1)" fill="none" height="0"></g><g  stroke="black" stroke-width="1" r="0"  stroke-opacity="0.1" transform="translate(1, 1)" fill="none" height="0"></g><g  stroke="#7798BF" stroke-width="1" r="0"><path fill="#7798BF" d="M 430.5 266.1 L 455.3 268.6 L 458.9 208.9 L 433.6 206.7 Z"  stroke-linejoin="round"></path><path fill="rgb(144,177,216)" fill-opacity="1" d="M 458.9 208.9 L 461.2 195.7 L 436.9 193.7 L 433.6 206.7 Z"  stroke-linejoin="round"></path><path fill="rgb(94,127,166)" fill-opacity="1" d="M 458.9 208.9 L 455.3 268.6 L 457.7 253.5 L 461.2 195.7 Z"  stroke-linejoin="round"></path></g></g><g class="highcharts-markers" visibility="visible"  transform="translate(58,80) scale(1 1)"></g><g class="highcharts-series highcharts-tracker" visibility="visible"  transform="translate(58,80) scale(1 1)" style="" clip-path="url(#highcharts-1)"><g  stroke="black" stroke-width="5" r="0"  stroke-opacity="0.0" transform="translate(1, 1)" fill="none" height="0"></g><g  stroke="black" stroke-width="3" r="0"  stroke-opacity="0.0" transform="translate(1, 1)" fill="none" height="0"></g><g  stroke="black" stroke-width="1" r="0"  stroke-opacity="0.1" transform="translate(1, 1)" fill="none" height="0"></g><g  stroke="#8d4654" stroke-width="1" r="0"><path fill="#8d4654" d="M 64.9 174.9 L 85.8 176.7 L 84.1 138.6 L 63.1 137.0 Z"  stroke-linejoin="round"></path><path fill="rgb(166,95,109)" fill-opacity="1" d="M 84.1 138.6 L 99.1 128.9 L 78.7 127.4 L 63.1 137.0 Z"  stroke-linejoin="round"></path><path fill="rgb(116,45,59)" fill-opacity="1" d="M 84.1 138.6 L 85.8 176.7 L 100.5 165.8 L 99.1 128.9 Z"  stroke-linejoin="round"></path></g><g  stroke="black" stroke-width="5" r="0"  stroke-opacity="0.0" transform="translate(1, 1)" fill="none" height="0"></g><g  stroke="black" stroke-width="3" r="0"  stroke-opacity="0.0" transform="translate(1, 1)" fill="none" height="0"></g><g  stroke="black" stroke-width="1" r="0"  stroke-opacity="0.1" transform="translate(1, 1)" fill="none" height="0"></g><g  stroke="#8d4654" stroke-width="1" r="0"><path fill="#8d4654" d="M 152.1 238.0 L 173.6 240.2 L 171.7 145.2 L 149.7 143.6 Z"  stroke-linejoin="round"></path><path fill="rgb(166,95,109)" fill-opacity="1" d="M 171.7 145.2 L 184.0 135.1 L 162.6 133.5 L 149.7 143.6 Z"  stroke-linejoin="round"></path><path fill="rgb(116,45,59)" fill-opacity="1" d="M 171.7 145.2 L 173.6 240.2 L 185.4 227.0 L 184.0 135.1 Z"  stroke-linejoin="round"></path></g><g  stroke="black" stroke-width="5" r="0"  stroke-opacity="0.0" transform="translate(1, 1)" fill="none" height="0"></g><g  stroke="black" stroke-width="3" r="0"  stroke-opacity="0.0" transform="translate(1, 1)" fill="none" height="0"></g><g  stroke="black" stroke-width="1" r="0"  stroke-opacity="0.1" transform="translate(1, 1)" fill="none" height="0"></g><g  stroke="#8d4654" stroke-width="1" r="0"><path fill="#8d4654" d="M 240.5 170.3 L 263.5 172.2 L 264.2 49.9 L 240.4 48.7 Z"  stroke-linejoin="round"></path><path fill="rgb(166,95,109)" fill-opacity="1" d="M 264.2 49.9 L 273.6 42.7 L 250.7 41.6 L 240.4 48.7 Z"  stroke-linejoin="round"></path><path fill="rgb(116,45,59)" fill-opacity="1" d="M 264.2 49.9 L 263.5 172.2 L 272.7 160.9 L 273.6 42.7 Z"  stroke-linejoin="round"></path></g><g  stroke="black" stroke-width="5" r="0"  stroke-opacity="0.0" transform="translate(1, 1)" fill="none" height="0"></g><g  stroke="black" stroke-width="3" r="0"  stroke-opacity="0.0" transform="translate(1, 1)" fill="none" height="0"></g><g  stroke="black" stroke-width="1" r="0"  stroke-opacity="0.1" transform="translate(1, 1)" fill="none" height="0"></g><g  stroke="#8d4654" stroke-width="1" r="0"><path fill="#8d4654" d="M 335.2 178.0 L 359.4 180.0 L 360.7 138.9 L 336.2 137.1 Z"  stroke-linejoin="round"></path><path fill="rgb(166,95,109)" fill-opacity="1" d="M 360.7 138.9 L 366.6 128.4 L 343.0 126.8 L 336.2 137.1 Z"  stroke-linejoin="round"></path><path fill="rgb(116,45,59)" fill-opacity="1" d="M 360.7 138.9 L 359.4 180.0 L 365.3 168.2 L 366.6 128.4 Z"  stroke-linejoin="round"></path></g><g  stroke="black" stroke-width="5" r="0"  stroke-opacity="0.0" transform="translate(1, 1)" fill="none" height="0"></g><g  stroke="black" stroke-width="3" r="0"  stroke-opacity="0.0" transform="translate(1, 1)" fill="none" height="0"></g><g  stroke="black" stroke-width="1" r="0"  stroke-opacity="0.1" transform="translate(1, 1)" fill="none" height="0"></g><g  stroke="#8d4654" stroke-width="1" r="0"><path fill="#8d4654" d="M 433.6 206.7 L 458.9 208.9 L 460.1 188.2 L 434.7 186.1 Z"  stroke-linejoin="round"></path><path fill="rgb(116,45,59)" fill-opacity="1" d="M 460.1 188.2 L 458.9 208.9 L 461.2 195.7 L 462.4 175.8 Z"  stroke-linejoin="round"></path><path fill="rgb(166,95,109)" fill-opacity="1" d="M 460.1 188.2 L 462.4 175.8 L 437.9 173.8 L 434.7 186.1 Z"  stroke-linejoin="round"></path></g></g><g class="highcharts-markers" visibility="visible"  transform="translate(58,80) scale(1 1)"></g></g><text x="292" text-anchor="middle" class="highcharts-title"  style="color:black;font-size:16px;font-weight:bold;fill:black;width:520px;" y="22"><tspan>Total fruit consumption, grouped by gender</tspan></text><g class="highcharts-legend"  transform="translate(161,361)"><g ><g><g class="highcharts-legend-item"  transform="translate(8,3)"><text x="21" style="color:#333333;font-size:13px;font-weight:bold;cursor:pointer;fill:#333333;" text-anchor="start"  y="16">John</text><rect x="0" y="4" width="16" height="13"  fill="#f45b5b"></rect></g><g class="highcharts-legend-item"  transform="translate(76.4,3)"><text x="21" y="16" style="color:#333333;font-size:13px;font-weight:bold;cursor:pointer;fill:#333333;" text-anchor="start" >Joe</text><rect x="0" y="4" width="16" height="13"  fill="#8085e9"></rect></g><g class="highcharts-legend-item"  transform="translate(136.2,3)"><text x="21" y="16" style="color:#333333;font-size:13px;font-weight:bold;cursor:pointer;fill:#333333;" text-anchor="start" >Jane</text><rect x="0" y="4" width="16" height="13"  fill="#8d4654"></rect></g><g class="highcharts-legend-item"  transform="translate(203.1,3)"><text x="21" y="16" style="color:#333333;font-size:13px;font-weight:bold;cursor:pointer;fill:#333333;" text-anchor="start" >Janet</text><rect x="0" y="4" width="16" height="13"  fill="#7798BF"></rect></g></g></g></g><g class="highcharts-axis-labels highcharts-xaxis-labels" ><text x="123.5" style="color:#6e6e70;cursor:default;font-size:11px;fill:#6e6e70;width:97px;text-overflow:clip;" text-anchor="middle" transform="translate(0,0)" y="325.5" z="87.2" old="[object Object]" opacity="1">Apples</text><text x="207.7" style="color:#6e6e70;cursor:default;font-size:11px;fill:#6e6e70;width:97px;text-overflow:clip;" text-anchor="middle" transform="translate(0,0)" y="334.4" z="62.9" old="[object Object]" opacity="1">Oranges</text><text x="296.0" style="color:#6e6e70;cursor:default;font-size:11px;fill:#6e6e70;width:97px;text-overflow:clip;" text-anchor="middle" transform="translate(0,0)" y="343.7" z="38.6" old="[object Object]" opacity="1">Pears</text><text x="388.4" style="color:#6e6e70;cursor:default;font-size:11px;fill:#6e6e70;width:97px;text-overflow:clip;" text-anchor="middle" transform="translate(0,0)" y="353.4" z="14.3" old="[object Object]" opacity="1">Grapes</text><text x="485.4" style="color:#6e6e70;cursor:default;font-size:11px;fill:#6e6e70;width:97px;text-overflow:clip;" text-anchor="middle" transform="translate(0,0)" y="363.7" z="-9.9" old="[object Object]" opacity="1">Bananas</text></g><g class="highcharts-axis-labels highcharts-zaxis-labels" ></g><g class="highcharts-axis-labels highcharts-yaxis-labels" ><text x="69.6" style="color:#6e6e70;cursor:default;font-size:11px;fill:#6e6e70;width:183px;text-overflow:clip;" text-anchor="end" transform="translate(0,0)" y="308.8" z="99.7" old="[object Object]" opacity="1">0</text><text x="67.3" style="color:#6e6e70;cursor:default;font-size:11px;fill:#6e6e70;width:183px;text-overflow:clip;" text-anchor="end" transform="translate(0,0)" y="272.6" z="88.8" old="[object Object]" opacity="1">2</text><text x="65.0" style="color:#6e6e70;cursor:default;font-size:11px;fill:#6e6e70;width:183px;text-overflow:clip;" text-anchor="end" transform="translate(0,0)" y="235.7" z="78.0" old="[object Object]" opacity="1">4</text><text x="62.6" style="color:#6e6e70;cursor:default;font-size:11px;fill:#6e6e70;width:183px;text-overflow:clip;" text-anchor="end" transform="translate(0,0)" y="198.9" z="67.3" old="[object Object]" opacity="1">6</text><text x="60.2" style="color:#6e6e70;cursor:default;font-size:11px;fill:#6e6e70;width:183px;text-overflow:clip;" text-anchor="end" transform="translate(0,0)" y="160.4" z="56.5" old="[object Object]" opacity="1">8</text><text x="57.7" style="color:#6e6e70;cursor:default;font-size:11px;fill:#6e6e70;width:183px;text-overflow:clip;" text-anchor="end" transform="translate(0,0)" y="121.2" z="45.6" old="[object Object]" opacity="1">10</text><text x="55.2" style="color:#6e6e70;cursor:default;font-size:11px;fill:#6e6e70;width:183px;text-overflow:clip;" text-anchor="end" transform="translate(0,0)" y="82.0" z="35.0" old="[object Object]" opacity="1">12</text></g><g class="highcharts-tooltip"  style="cursor:default;padding:0;white-space:nowrap;" transform="translate(0,-9999)"><path fill="none" d="M 3 0 L 13 0 C 16 0 16 0 16 3 L 16 13 C 16 16 16 16 13 16 L 3 16 C 0 16 0 16 0 13 L 0 3 C 0 0 0 0 3 0"  stroke="black" stroke-opacity="0.0" stroke-width="5" transform="translate(1, 1)"></path><path fill="none" d="M 3 0 L 13 0 C 16 0 16 0 16 3 L 16 13 C 16 16 16 16 13 16 L 3 16 C 0 16 0 16 0 13 L 0 3 C 0 0 0 0 3 0"  stroke="black" stroke-opacity="0.0" stroke-width="3" transform="translate(1, 1)"></path><path fill="none" d="M 3 0 L 13 0 C 16 0 16 0 16 3 L 16 13 C 16 16 16 16 13 16 L 3 16 C 0 16 0 16 0 13 L 0 3 C 0 0 0 0 3 0"  stroke="black" stroke-opacity="0.1" stroke-width="1" transform="translate(1, 1)"></path><path fill="rgb(249, 249, 249)" fill-opacity=" .85" d="M 3 0 L 13 0 C 16 0 16 0 16 3 L 16 13 C 16 16 16 16 13 16 L 3 16 C 0 16 0 16 0 13 L 0 3 C 0 0 0 0 3 0"></path><text x="8"  style="font-size:12px;color:#333333;fill:#333333;" y="20"></text></g></svg>