<svg version="1.1" style="font-family: signika, serif; font-size: 12px; background-image: url(http://www.highcharts.com/samples/graphics/sand.png); background-position: initial initial; background-repeat: initial initial;" xmlns="http://www.w3.org/2000/svg" width="584" height="400" viewBox="0 0 584 400" xmlns:xlink="http://www.w3.org/1999/xlink"><style type="text/css"><![CDATA[@import url(http://fonts.googleapis.com/css?family=Signika:700);]]></style><desc>Created with Highcharts 4.1.7</desc><defs><clipPath id="highcharts-1"><rect x="0" y="0" width="584" height="400"></rect></clipPath></defs><g class="highcharts-series-group" ><g class="highcharts-series highcharts-tracker" visibility="visible"  transform="translate(10,53) scale(1 1)" style=""><g class="highcharts-shadow"><g class="highcharts-shadow" transform="translate(0,0)"><g  stroke="black" stroke-width="5" stroke-linejoin="round"  stroke-opacity="0.0" transform="translate(1, 1)" fill="none"></g><g  stroke="black" stroke-width="3" stroke-linejoin="round"  stroke-opacity="0.0" transform="translate(1, 1)" fill="none"></g><g  stroke="black" stroke-width="1" stroke-linejoin="round"  stroke-opacity="0.1" transform="translate(1, 1)" fill="none"></g></g><g class="highcharts-shadow" transform="translate(0,0)"><g  stroke="black" stroke-width="5" stroke-linejoin="round"  stroke-opacity="0.0" transform="translate(1, 1)" fill="none"></g><g  stroke="black" stroke-width="3" stroke-linejoin="round"  stroke-opacity="0.0" transform="translate(1, 1)" fill="none"></g><g  stroke="black" stroke-width="1" stroke-linejoin="round"  stroke-opacity="0.1" transform="translate(1, 1)" fill="none"></g></g><g class="highcharts-shadow" transform="translate(0,0)"><g  stroke="black" stroke-width="5" stroke-linejoin="round"  stroke-opacity="0.0" transform="translate(1, 1)" fill="none"></g><g  stroke="black" stroke-width="3" stroke-linejoin="round"  stroke-opacity="0.0" transform="translate(1, 1)" fill="none"></g><g  stroke="black" stroke-width="1" stroke-linejoin="round"  stroke-opacity="0.1" transform="translate(1, 1)" fill="none"></g></g><g class="highcharts-shadow" transform="translate(0,0)"><g  stroke="black" stroke-width="5" stroke-linejoin="round"  stroke-opacity="0.0" transform="translate(1, 1)" fill="none"></g><g  stroke="black" stroke-width="3" stroke-linejoin="round"  stroke-opacity="0.0" transform="translate(1, 1)" fill="none"></g><g  stroke="black" stroke-width="1" stroke-linejoin="round"  stroke-opacity="0.1" transform="translate(1, 1)" fill="none"></g></g><g class="highcharts-shadow" transform="translate(0,0)"><g  stroke="black" stroke-width="5" stroke-linejoin="round"  stroke-opacity="0.0" transform="translate(1, 1)" fill="none"></g><g  stroke="black" stroke-width="3" stroke-linejoin="round"  stroke-opacity="0.0" transform="translate(1, 1)" fill="none"></g><g  stroke="black" stroke-width="1" stroke-linejoin="round"  stroke-opacity="0.1" transform="translate(1, 1)" fill="none"></g></g><g class="highcharts-shadow" transform="translate(0,0)"><g  stroke="black" stroke-width="5" stroke-linejoin="round"  stroke-opacity="0.0" transform="translate(1, 1)" fill="none"></g><g  stroke="black" stroke-width="3" stroke-linejoin="round"  stroke-opacity="0.0" transform="translate(1, 1)" fill="none"></g><g  stroke="black" stroke-width="1" stroke-linejoin="round"  stroke-opacity="0.1" transform="translate(1, 1)" fill="none"></g></g><g class="highcharts-shadow" transform="translate(0,0)"><g  stroke="black" stroke-width="5" stroke-linejoin="round"  stroke-opacity="0.0" transform="translate(1, 1)" fill="none"></g><g  stroke="black" stroke-width="3" stroke-linejoin="round"  stroke-opacity="0.0" transform="translate(1, 1)" fill="none"></g><g  stroke="black" stroke-width="1" stroke-linejoin="round"  stroke-opacity="0.1" transform="translate(1, 1)" fill="none"></g></g><g class="highcharts-shadow" transform="translate(0,0)"><g  stroke="black" stroke-width="5" stroke-linejoin="round"  stroke-opacity="0.0" transform="translate(1, 1)" fill="none"></g><g  stroke="black" stroke-width="3" stroke-linejoin="round"  stroke-opacity="0.0" transform="translate(1, 1)" fill="none"></g><g  stroke="black" stroke-width="1" stroke-linejoin="round"  stroke-opacity="0.1" transform="translate(1, 1)" fill="none"></g></g><g class="highcharts-shadow" transform="translate(0,0)"><g  stroke="black" stroke-width="5" stroke-linejoin="round"  stroke-opacity="0.0" transform="translate(1, 1)" fill="none"></g><g  stroke="black" stroke-width="3" stroke-linejoin="round"  stroke-opacity="0.0" transform="translate(1, 1)" fill="none"></g><g  stroke="black" stroke-width="1" stroke-linejoin="round"  stroke-opacity="0.1" transform="translate(1, 1)" fill="none"></g></g></g><path fill="rgb(198,58,58)" fill-opacity="1" d="M 254.9 57.3 L 254.9 81.2 L 273.3 155.0 L 273.3 131.1 Z"  transform="translate(0,0)" visibility="visible"></path><path fill="rgb(219,66,66)" fill-opacity="1" d="M 435.6 146.7 L 435.6 170.6 L 331.2 183.7 L 331.2 159.8 Z"  transform="translate(0,0)" visibility="visible"></path><path fill="rgb(198,58,58)" fill-opacity="1" d="M 273.3 131.1 C 276.3 130.8 278.9 130.6 281.9 130.6 L 281.9 154.5 C 278.9 154.5 276.3 154.6 273.3 155.0 Z"  transform="translate(0,0)" visibility="visible"></path><path fill="rgb(198,58,58)" fill-opacity="1" d="M 254.9 57.3 C 264.3 56.1 272.3 55.6 281.9 55.6 L 281.9 79.5 C 272.3 79.5 264.3 80.0 254.9 81.2 Z"  transform="translate(0,0)" visibility="visible"></path><path fill="rgb(198,58,58)" fill-opacity="1" d="M 281.9 55.6 L 281.9 79.5 L 281.9 154.5 L 281.9 130.6 Z"  transform="translate(0,0)" visibility="visible"></path><path fill="rgb(60,166,34)" fill-opacity="1" d="M 228.5 62.3 L 228.5 86.2 L 264.8 156.6 L 264.8 132.7 Z"  transform="translate(0,0)" visibility="visible"></path><path fill="rgb(60,166,34)" fill-opacity="1" d="M 264.8 132.7 C 267.7 132.0 270.2 131.5 273.3 131.1 L 273.3 155.0 C 270.2 155.4 267.7 155.9 264.8 156.6 Z"  transform="translate(0,0)" visibility="visible"></path><path fill="rgb(60,166,34)" fill-opacity="1" d="M 228.5 62.3 C 237.6 60.0 245.4 58.5 254.9 57.3 L 254.9 81.2 C 245.4 82.4 237.6 83.8 228.5 86.2 Z"  transform="translate(0,0)" visibility="visible"></path><path fill="rgb(60,166,34)" fill-opacity="1" d="M 254.9 57.3 L 254.9 81.2 L 273.3 155.0 L 273.3 131.1 Z"  transform="translate(0,0)" visibility="visible"></path><path fill="rgb(213,145,213)" fill-opacity="1" d="M 146.8 110.8 L 146.8 134.7 L 238.6 172.1 L 238.6 148.3 Z"  transform="translate(0,0)" visibility="visible"></path><path fill="rgb(213,145,213)" fill-opacity="1" d="M 228.5 62.3 L 228.5 86.2 L 264.8 156.6 L 264.8 132.7 Z"  transform="translate(0,0)" visibility="visible"></path><path fill="rgb(213,145,213)" fill-opacity="1" d="M 238.6 148.3 C 244.8 140.8 253.3 135.7 264.8 132.7 L 264.8 156.6 C 253.3 159.6 244.8 164.6 238.6 172.1 Z"  transform="translate(0,0)" visibility="visible"></path><path fill="rgb(213,145,213)" fill-opacity="1" d="M 146.8 110.8 C 166.0 87.4 192.6 71.6 228.5 62.3 L 228.5 86.2 C 192.6 95.4 166.0 111.2 146.8 134.7 Z"  transform="translate(0,0)" visibility="visible"></path><path fill="rgb(230,0,77)" fill-opacity="1" d="M 128.3 185.1 L 128.3 209.0 L 232.7 196.0 L 232.7 172.1 Z"  transform="translate(0,0)" visibility="visible"></path><path fill="rgb(219,66,66)" fill-opacity="1" d="M 281.9 130.6 C 306.5 130.6 326.9 142.7 331.2 159.8 L 331.2 183.7 C 326.9 166.6 306.5 154.5 281.9 154.5 Z"  transform="translate(0,0)" visibility="visible"></path><path fill="rgb(219,66,66)" fill-opacity="1" d="M 281.9 55.6 C 358.5 55.6 422.2 93.4 435.6 146.7 L 435.6 170.6 C 422.2 117.3 358.5 79.5 281.9 79.5 Z"  transform="translate(0,0)" visibility="visible"></path><path fill="rgb(103,108,208)" fill-opacity="1" d="M 428.5 203.7 L 428.5 227.5 L 328.9 201.9 L 328.9 178.0 Z"  transform="translate(0,0)" visibility="visible"></path><path fill="rgb(219,66,66)" fill-opacity="1" d="M 281.9 55.6 L 281.9 79.5 L 281.9 154.5 L 281.9 130.6 Z"  transform="translate(0,0)" visibility="visible"></path><path fill="rgb(145,213,213)" fill-opacity="1" d="M 281.9 276.3 L 281.9 300.1 L 281.9 225.2 L 281.9 201.3 Z"  transform="translate(0,0)" visibility="visible"></path><path fill="rgb(230,0,77)" fill-opacity="1" d="M 146.8 110.8 L 146.8 134.7 L 238.6 172.1 L 238.6 148.3 Z"  transform="translate(0,0)" visibility="visible"></path><path fill="rgb(230,0,77)" fill-opacity="1" d="M 128.3 185.1 C 126.7 178.4 126 172.7 126 166 L 126 189.8 C 126 196.6 126.7 202.3 128.3 209.0 Z"  transform="translate(0,0)" visibility="visible"></path><path fill="rgb(230,0,77)" fill-opacity="1" d="M 232.7 172.1 C 230.6 163.5 232.5 155.8 238.6 148.3 L 238.6 172.1 C 232.5 179.7 230.6 187.4 232.7 196.0 Z"  transform="translate(0,0)" visibility="visible"></path><path fill="rgb(103,108,208)" fill-opacity="1" d="M 435.6 146.7 L 435.6 170.6 L 331.2 183.7 L 331.2 159.8 Z"  transform="translate(0,0)" visibility="visible"></path><path fill="rgb(116,45,59)" fill-opacity="1" d="M 417.0 221.1 L 417.0 245.0 L 325.2 207.5 L 325.2 183.6 Z"  transform="translate(0,0)" visibility="visible"></path><path fill="rgb(103,108,208)" fill-opacity="1" d="M 438 166 C 438 179.5 435.1 191.0 428.5 203.7 L 428.5 227.5 C 435.1 214.8 438 203.4 438 189.8 Z"  transform="translate(0,0)" visibility="visible"></path><path fill="rgb(103,108,208)" fill-opacity="1" d="M 331.2 159.8 C 332.8 166.2 332.1 171.9 328.9 178.0 L 328.9 201.9 C 332.1 195.8 332.8 190.1 331.2 183.7 Z"  transform="translate(0,0)" visibility="visible"></path><path fill="rgb(116,45,59)" fill-opacity="1" d="M 428.5 203.7 L 428.5 227.5 L 328.9 201.9 L 328.9 178.0 Z"  transform="translate(0,0)" visibility="visible"></path><path fill="rgb(94,127,166)" fill-opacity="1" d="M 281.9 276.3 L 281.9 300.1 L 281.9 225.2 L 281.9 201.3 Z"  transform="translate(0,0)" visibility="visible"></path><path fill="rgb(116,45,59)" fill-opacity="1" d="M 428.5 203.7 C 425.3 210.0 421.8 215.3 417.0 221.1 L 417.0 245.0 C 421.8 239.1 425.3 233.9 428.5 227.5 Z"  transform="translate(0,0)" visibility="visible"></path><path fill="rgb(116,45,59)" fill-opacity="1" d="M 328.9 178.0 C 327.9 180.1 326.8 181.8 325.2 183.6 L 325.2 207.5 C 326.8 205.6 327.9 203.9 328.9 201.9 Z"  transform="translate(0,0)" visibility="visible"></path><path fill="rgb(94,127,166)" fill-opacity="1" d="M 417.0 221.1 L 417.0 245.0 L 325.2 207.5 L 325.2 183.6 Z"  transform="translate(0,0)" visibility="visible"></path><path fill="rgb(145,213,213)" fill-opacity="1" d="M 128.3 185.1 L 128.3 209.0 L 232.7 196.0 L 232.7 172.1 Z"  transform="translate(0,0)" visibility="visible"></path><path fill="rgb(94,127,166)" fill-opacity="1" d="M 417.0 221.1 C 388.3 256.3 339.3 276.3 281.9 276.3 L 281.9 300.1 C 339.3 300.1 388.3 280.2 417.0 245.0 Z"  transform="translate(0,0)" visibility="visible"></path><path fill="rgb(94,127,166)" fill-opacity="1" d="M 325.2 183.6 C 316.0 194.9 300.3 201.3 281.9 201.3 L 281.9 225.2 C 300.3 225.2 316.0 218.8 325.2 207.5 Z"  transform="translate(0,0)" visibility="visible"></path><path fill="rgb(145,213,213)" fill-opacity="1" d="M 281.9 276.3 C 205.3 276.2 141.6 238.4 128.3 185.1 L 128.3 209.0 C 141.6 262.3 205.3 300.1 281.9 300.1 Z"  transform="translate(0,0)" visibility="visible"></path><path fill="rgb(145,213,213)" fill-opacity="1" d="M 281.9 201.3 C 257.4 201.3 237.0 189.2 232.7 172.1 L 232.7 196.0 C 237.0 213.0 257.4 225.2 281.9 225.2 Z"  transform="translate(0,0)" visibility="visible"></path><g  stroke="#f45b5b" stroke-width="1" stroke-linejoin="round"><path fill="#f45b5b" d="M 281.9 55.6 C 358.5 55.6 422.2 93.4 435.6 146.7 L 331.2 159.8 C 326.9 142.7 306.5 130.6 281.9 130.6 Z"  transform="translate(0,0)" visibility="visible"></path></g><g  stroke="#8085e9" stroke-width="1" stroke-linejoin="round"><path fill="#8085e9" d="M 435.6 146.7 C 440.6 166.8 438.4 184.6 428.5 203.7 L 328.9 178.0 C 332.1 171.9 332.8 166.2 331.2 159.8 Z"  transform="translate(0,0)" visibility="visible"></path></g><g  stroke="#8d4654" stroke-width="1" stroke-linejoin="round"><path fill="#8d4654" d="M 428.5 203.7 C 425.3 210.0 421.8 215.3 417.0 221.1 L 325.2 183.6 C 326.8 181.8 327.9 180.1 328.9 178.0 Z"  transform="translate(0,0)" visibility="visible"></path></g><g  stroke="#7798BF" stroke-width="1" stroke-linejoin="round"><path fill="#7798BF" d="M 417.0 221.1 C 388.3 256.3 339.3 276.3 281.9 276.3 L 281.9 201.3 C 300.3 201.3 316.0 194.9 325.2 183.6 Z"  transform="translate(0,0)" visibility="visible"></path></g><g  stroke="#aaeeee" stroke-width="1" stroke-linejoin="round"><path fill="#aaeeee" d="M 281.9 276.3 C 205.3 276.2 141.6 238.4 128.3 185.1 L 232.7 172.1 C 237.0 189.2 257.4 201.3 281.9 201.3 Z"  transform="translate(0,0)" visibility="visible"></path></g><g  stroke="#ff0066" stroke-width="1" stroke-linejoin="round"><path fill="#ff0066" d="M 128.3 185.1 C 121.7 158.5 127.7 134.3 146.8 110.8 L 238.6 148.3 C 232.5 155.8 230.6 163.5 232.7 172.1 Z"  transform="translate(0,0)" visibility="visible"></path></g><g  stroke="#eeaaee" stroke-width="1" stroke-linejoin="round"><path fill="#eeaaee" d="M 146.8 110.8 C 166.0 87.4 192.6 71.6 228.5 62.3 L 264.8 132.7 C 253.3 135.7 244.8 140.8 238.6 148.3 Z"  transform="translate(0,0)" visibility="visible"></path></g><g  stroke="#55BF3B" stroke-width="1" stroke-linejoin="round"><path fill="#55BF3B" d="M 228.5 62.3 C 237.6 60.0 245.4 58.5 254.9 57.3 L 273.3 131.1 C 270.2 131.5 267.7 132.0 264.8 132.7 Z"  transform="translate(0,0)" visibility="visible"></path></g><g  stroke="#DF5353" stroke-width="1" stroke-linejoin="round"><path fill="#DF5353" d="M 254.9 57.3 C 264.3 56.1 272.3 55.6 281.9 55.6 L 281.9 130.6 C 278.9 130.6 276.3 130.8 273.3 131.1 Z"  transform="translate(0,0)" visibility="visible"></path></g></g><g class="highcharts-markers" visibility="visible"  transform="translate(10,53) scale(1 1)"></g></g><text x="292" text-anchor="middle" class="highcharts-title"  style="color:black;font-size:16px;font-weight:bold;fill:black;width:520px;" y="22"><tspan>Contents of Highsoft's weekly fruit delivery</tspan></text><text x="292" text-anchor="middle" class="highcharts-subtitle"  style="color:black;fill:black;width:520px;" y="40"><tspan>3D donut in Highcharts</tspan></text><g class="highcharts-data-labels highcharts-tracker" visibility="visible"  transform="translate(10,53) scale(1 1)" style=""><path fill="none" d="M 438.8 58.5 C 433.8 58.5 396.4 64.6 389.3 73.0 L 382.2 81.5" stroke="#f45b5b" stroke-width="1" visibility="inherit"></path><path fill="none" d="M 469.4 202.1 C 464.4 202.1 459.3 201.4 448.3 200.4 L 437.4 199.4" stroke="#8085e9" stroke-width="1" visibility="inherit"></path><path fill="none" d="M 453.3 249.1 C 448.3 249.1 443.3 245.7 433.3 241.1 L 423.3 236.4" stroke="#8d4654" stroke-width="1" visibility="inherit"></path><path fill="none" d="M 403.0 311.3 C 398.0 311.3 371.0 304.4 365.5 294.9 L 360.0 285.3" stroke="#7798BF" stroke-width="1" visibility="inherit"></path><path fill="none" d="M 145.3 297.3 C 150.3 297.3 167.5 291.2 174.6 282.7 L 181.7 274.3" stroke="#aaeeee" stroke-width="1" visibility="inherit"></path><path fill="none" d="M 92.6 141.6 C 97.6 141.6 106.7 143.0 117.5 144.9 L 128.3 146.8" stroke="#ff0066" stroke-width="1" visibility="inherit"></path><path fill="none" d="M 122.1 63 C 127.1 63 167.5 64.6 174.6 73.0 L 181.7 81.4" stroke="#eeaaee" stroke-width="1" visibility="inherit"></path><path fill="none" d="M 138.3 42 C 143.3 42 235.9 38.1 238.7 48.8 L 241.6 59.4" stroke="#55BF3B" stroke-width="1" visibility="inherit"></path><path fill="none" d="M 160.5 21 C 165.5 21 266.4 34.1 267.4 45.1 L 268.4 56.1" stroke="#DF5353" stroke-width="1" visibility="inherit"></path><g  style="" transform="translate(444,49)" visibility="inherit"><text x="5"  style="font-size: 11px; font-weight: bold; color: rgb(0, 0, 0); fill: #000000; text-shadow: rgb(255, 255, 255) 0px 0px 6px, rgb(255, 255, 255) 0px 0px 3px; text-rendering: geometricprecision;" y="16"><tspan>Bananas</tspan></text></g><g  style="" transform="translate(474,192)" visibility="inherit"><text x="5"  style="font-size: 11px; font-weight: bold; color: rgb(0, 0, 0); fill: #000000; text-shadow: rgb(255, 255, 255) 0px 0px 6px, rgb(255, 255, 255) 0px 0px 3px; text-rendering: geometricprecision;" y="16"><tspan>Kiwi</tspan></text></g><g  style="" transform="translate(458,239)" visibility="inherit"><text x="5"  style="font-size: 11px; font-weight: bold; color: rgb(0, 0, 0); fill: #000000; text-shadow: rgb(255, 255, 255) 0px 0px 6px, rgb(255, 255, 255) 0px 0px 3px; text-rendering: geometricprecision;" y="16"><tspan>Mixed nuts</tspan></text></g><g  style="" transform="translate(408,301)" visibility="inherit"><text x="5"  style="font-size: 11px; font-weight: bold; color: rgb(0, 0, 0); fill: #000000; text-shadow: rgb(255, 255, 255) 0px 0px 6px, rgb(255, 255, 255) 0px 0px 3px; text-rendering: geometricprecision;" y="16"><tspan>Oranges</tspan></text></g><g  style="" transform="translate(103,287)" visibility="inherit"><text x="5"  style="font-size: 11px; font-weight: bold; color: rgb(0, 0, 0); fill: #000000; text-shadow: rgb(255, 255, 255) 0px 0px 6px, rgb(255, 255, 255) 0px 0px 3px; text-rendering: geometricprecision;" y="16"><tspan>Apples</tspan></text></g><g  style="" transform="translate(56,132)" visibility="inherit"><text x="5"  style="font-size: 11px; font-weight: bold; color: rgb(0, 0, 0); fill: #000000; text-shadow: rgb(255, 255, 255) 0px 0px 6px, rgb(255, 255, 255) 0px 0px 3px; text-rendering: geometricprecision;" y="16"><tspan>Pears</tspan></text></g><g  style="" transform="translate(54,53)" visibility="inherit"><text x="5"  style="font-size: 11px; font-weight: bold; color: rgb(0, 0, 0); fill: #000000; text-shadow: rgb(255, 255, 255) 0px 0px 6px, rgb(255, 255, 255) 0px 0px 3px; text-rendering: geometricprecision;" y="16"><tspan>Clementines</tspan></text></g><g  style="" transform="translate(63,32)" visibility="inherit"><text x="5"  style="font-size: 11px; font-weight: bold; color: rgb(0, 0, 0); fill: #000000; text-shadow: rgb(255, 255, 255) 0px 0px 6px, rgb(255, 255, 255) 0px 0px 3px; text-rendering: geometricprecision;" y="16"><tspan>Reddish (bag)</tspan></text></g><g  style="" transform="translate(77,11)" visibility="inherit"><text x="5"  style="font-size: 11px; font-weight: bold; color: rgb(0, 0, 0); fill: #000000; text-shadow: rgb(255, 255, 255) 0px 0px 6px, rgb(255, 255, 255) 0px 0px 3px; text-rendering: geometricprecision;" y="16"><tspan>Grapes (bunch)</tspan></text></g></g><g class="highcharts-legend" ><g ><g></g></g></g><g class="highcharts-tooltip"  style="cursor:default;padding:0;white-space:nowrap;" transform="translate(0,-9999)"><path fill="none" d="M 3 0 L 13 0 C 16 0 16 0 16 3 L 16 13 C 16 16 16 16 13 16 L 3 16 C 0 16 0 16 0 13 L 0 3 C 0 0 0 0 3 0"  stroke="black" stroke-opacity="0.0" stroke-width="5" transform="translate(1, 1)"></path><path fill="none" d="M 3 0 L 13 0 C 16 0 16 0 16 3 L 16 13 C 16 16 16 16 13 16 L 3 16 C 0 16 0 16 0 13 L 0 3 C 0 0 0 0 3 0"  stroke="black" stroke-opacity="0.0" stroke-width="3" transform="translate(1, 1)"></path><path fill="none" d="M 3 0 L 13 0 C 16 0 16 0 16 3 L 16 13 C 16 16 16 16 13 16 L 3 16 C 0 16 0 16 0 13 L 0 3 C 0 0 0 0 3 0"  stroke="black" stroke-opacity="0.1" stroke-width="1" transform="translate(1, 1)"></path><path fill="rgb(249, 249, 249)" fill-opacity=" .85" d="M 3 0 L 13 0 C 16 0 16 0 16 3 L 16 13 C 16 16 16 16 13 16 L 3 16 C 0 16 0 16 0 13 L 0 3 C 0 0 0 0 3 0"></path><text x="8"  style="font-size:12px;color:#333333;fill:#333333;" y="20"></text></g></svg>