<svg version="1.1" style="font-family: signika, serif; font-size: 12px; background-image: url(http://www.highcharts.com/samples/graphics/sand.png); background-position: initial initial; background-repeat: initial initial;" xmlns="http://www.w3.org/2000/svg" width="584" height="400" viewBox="0 0 584 400" xmlns:xlink="http://www.w3.org/1999/xlink"><style type="text/css"><![CDATA[@import url(http://fonts.googleapis.com/css?family=Signika:700);]]></style><desc>Created with Highcharts 4.1.7</desc><defs><clipPath id="highcharts-1"><rect x="0" y="0" width="584" height="400"></rect></clipPath></defs><g class="highcharts-series-group" ><g class="highcharts-series highcharts-tracker" visibility="visible"  transform="translate(10,41) scale(1 1)" style="cursor:pointer;"><g class="highcharts-shadow"><g class="highcharts-shadow" transform="translate(0,0)"><g  stroke="black" stroke-width="5" stroke-linejoin="round"  stroke-opacity="0.0" transform="translate(1, 1)" fill="none"></g><g  stroke="black" stroke-width="3" stroke-linejoin="round"  stroke-opacity="0.0" transform="translate(1, 1)" fill="none"></g><g  stroke="black" stroke-width="1" stroke-linejoin="round"  stroke-opacity="0.1" transform="translate(1, 1)" fill="none"></g></g><g class="highcharts-shadow" transform="translate(0,0)"><g  stroke="black" stroke-width="5" stroke-linejoin="round"  stroke-opacity="0.0" transform="translate(1, 1)" fill="none"></g><g  stroke="black" stroke-width="3" stroke-linejoin="round"  stroke-opacity="0.0" transform="translate(1, 1)" fill="none"></g><g  stroke="black" stroke-width="1" stroke-linejoin="round"  stroke-opacity="0.1" transform="translate(1, 1)" fill="none"></g></g><g class="highcharts-shadow" transform="translate(-7,-1)"><g  stroke-linejoin="round"  stroke="black" stroke-opacity="0.0" stroke-width="5" transform="translate(1, 1)" fill="none"></g><g  stroke-linejoin="round"  stroke="black" stroke-opacity="0.0" stroke-width="3" transform="translate(1, 1)" fill="none"></g><g  stroke-linejoin="round"  stroke="black" stroke-opacity="0.1" stroke-width="1" transform="translate(1, 1)" fill="none"></g></g><g class="highcharts-shadow" transform="translate(0,0)"><g  stroke="black" stroke-width="5" stroke-linejoin="round"  stroke-opacity="0.0" transform="translate(1, 1)" fill="none"></g><g  stroke="black" stroke-width="3" stroke-linejoin="round"  stroke-opacity="0.0" transform="translate(1, 1)" fill="none"></g><g  stroke="black" stroke-width="1" stroke-linejoin="round"  stroke-opacity="0.1" transform="translate(1, 1)" fill="none"></g></g><g class="highcharts-shadow" transform="translate(0,0)"><g  stroke="black" stroke-width="5" stroke-linejoin="round"  stroke-opacity="0.0" transform="translate(1, 1)" fill="none"></g><g  stroke="black" stroke-width="3" stroke-linejoin="round"  stroke-opacity="0.0" transform="translate(1, 1)" fill="none"></g><g  stroke="black" stroke-width="1" stroke-linejoin="round"  stroke-opacity="0.1" transform="translate(1, 1)" fill="none"></g></g><g class="highcharts-shadow" transform="translate(0,0)"><g  stroke="black" stroke-width="5" stroke-linejoin="round"  stroke-opacity="0.0" transform="translate(1, 1)" fill="none"></g><g  stroke="black" stroke-width="3" stroke-linejoin="round"  stroke-opacity="0.0" transform="translate(1, 1)" fill="none"></g><g  stroke="black" stroke-width="1" stroke-linejoin="round"  stroke-opacity="0.1" transform="translate(1, 1)" fill="none"></g></g></g><path fill="rgb(230,0,77)" fill-opacity="1" d="M 282 172 C 282 172 282 172 282 172 L 282 190.5 C 282 190.5 282 190.5 282 190.5 Z"  transform="translate(0,0)" visibility="visible"></path><path fill="rgb(230,0,77)" fill-opacity="1" d="M 274.8 57.5 C 277.3 57.4 279.4 57.4 281.9 57.4 L 281.9 76.0 C 279.4 76.0 277.3 76.0 274.8 76.1 Z"  transform="translate(0,0)" visibility="visible"></path><path fill="rgb(230,0,77)" fill-opacity="1" d="M 274.8 57.5 L 274.8 76.1 L 282 190.5 L 282 172 Z"  transform="translate(0,0)" visibility="visible"></path><path fill="rgb(230,0,77)" fill-opacity="1" d="M 281.9 57.4 L 281.9 76.0 L 282 190.5 L 282 172 Z"  transform="translate(0,0)" visibility="visible"></path><path fill="rgb(145,213,213)" fill-opacity="1" d="M 213.9 68.0 L 213.9 86.6 L 282 190.5 L 282 172 Z"  transform="translate(0,0)" visibility="visible"></path><path fill="rgb(219,66,66)" fill-opacity="1" d="M 332.0 280.9 L 332.0 299.5 L 282 190.5 L 282 172 Z"  transform="translate(0,0)" visibility="visible"></path><path fill="rgb(145,213,213)" fill-opacity="1" d="M 282 172 C 282 172 282 172 282 172 L 282 190.5 C 282 190.5 282 190.5 282 190.5 Z"  transform="translate(0,0)" visibility="visible"></path><path fill="rgb(145,213,213)" fill-opacity="1" d="M 213.9 68.0 C 234.0 61.4 252.6 58.2 274.8 57.5 L 274.8 76.1 C 252.6 76.8 234.0 80.0 213.9 86.6 Z"  transform="translate(0,0)" visibility="visible"></path><path fill="rgb(145,213,213)" fill-opacity="1" d="M 274.8 57.5 L 274.8 76.1 L 282 190.5 L 282 172 Z"  transform="translate(0,0)" visibility="visible"></path><path fill="rgb(94,127,166)" fill-opacity="1" d="M 148.6 106.9 L 148.6 125.5 L 282 190.5 L 282 172 Z"  transform="translate(0,0)" visibility="visible"></path><path fill="rgb(94,127,166)" fill-opacity="1" d="M 213.9 68.0 L 213.9 86.6 L 282 190.5 L 282 172 Z"  transform="translate(0,0)" visibility="visible"></path><path fill="rgb(94,127,166)" fill-opacity="1" d="M 282 172 C 282 172 282 172 282 172 L 282 190.5 C 282 190.5 282 190.5 282 190.5 Z"  transform="translate(0,0)" visibility="visible"></path><path fill="rgb(94,127,166)" fill-opacity="1" d="M 148.6 106.9 C 165.8 89.2 186.3 77.0 213.9 68.0 L 213.9 86.6 C 186.3 95.6 165.8 107.8 148.6 125.5 Z"  transform="translate(0,0)" visibility="visible"></path><path fill="rgb(116,45,59)" fill-opacity="1" d="M 123.2 194.8 L 123.2 213.3 L 282 190.5 L 282 172 Z"  transform="translate(-7,-1)" visibility="visible"></path><path fill="rgb(103,108,208)" fill-opacity="1" d="M 332.0 280.9 L 332.0 299.5 L 282 190.5 L 282 172 Z"  transform="translate(0,0)" visibility="visible"></path><path fill="rgb(116,45,59)" fill-opacity="1" d="M 148.6 106.9 L 148.6 125.5 L 282 190.5 L 282 172 Z"  transform="translate(-7,-1)" visibility="visible"></path><path fill="rgb(116,45,59)" fill-opacity="1" d="M 123.2 194.8 C 120.9 186.9 120 180.0 120 172 L 120 190.5 C 120 198.6 120.9 205.4 123.2 213.3 Z"  transform="translate(-7,-1)" visibility="visible"></path><path fill="rgb(116,45,59)" fill-opacity="1" d="M 282 172 C 282 172 282 172 282 172 L 282 190.5 C 282 190.5 282 190.5 282 190.5 Z"  transform="translate(-7,-1)" visibility="visible"></path><path fill="rgb(219,66,66)" fill-opacity="1" d="M 281.9 57.4 L 281.9 76.0 L 282 190.5 L 282 172 Z"  transform="translate(0,0)" visibility="visible"></path><path fill="rgb(103,108,208)" fill-opacity="1" d="M 123.2 194.8 L 123.2 213.3 L 282 190.5 L 282 172 Z"  transform="translate(0,0)" visibility="visible"></path><path fill="rgb(219,66,66)" fill-opacity="1" d="M 444 172 C 444 222.6 400.1 265.3 332.0 280.9 L 332.0 299.5 C 400.1 283.8 444 241.1 444 190.5 Z"  transform="translate(0,0)" visibility="visible"></path><path fill="rgb(219,66,66)" fill-opacity="1" d="M 282 172 C 282 172 282 172 282 172 C 282 172 282 172 282 172 L 282 190.5 C 282 190.5 282 190.5 282 190.5 C 282 190.5 282 190.5 282 190.5 Z"  transform="translate(0,0)" visibility="visible"></path><path fill="rgb(103,108,208)" fill-opacity="1" d="M 332.0 280.9 C 246.9 300.4 155.5 267.5 127.9 207.3 C 125.9 203.0 124.5 199.2 123.2 194.8 L 123.2 213.3 C 141.0 275.3 226.6 315.4 314.2 302.8 C 320.5 301.9 325.8 300.9 332.0 299.5 Z"  transform="translate(0,0)" visibility="visible"></path><path fill="rgb(103,108,208)" fill-opacity="1" d="M 282 172 C 282 172 282 172 282 172 C 282 172 282 172 282 172 L 282 190.5 C 282 190.5 282 190.5 282 190.5 C 282 190.5 282 190.5 282 190.5 Z"  transform="translate(0,0)" visibility="visible"></path><g  stroke="#f45b5b" stroke-width="1" stroke-linejoin="round"><path fill="#f45b5b" d="M 281.9 57.4 C 371.4 57.4 443.9 108.7 443.9 171.9 C 444.0 222.6 400.1 265.3 332.0 280.9 L 282 172 C 282 172 282 172 282 172 C 282 172 282 172 282 172 Z"  transform="translate(0,0)" visibility="visible"></path></g><g  stroke="#8085e9" stroke-width="1" stroke-linejoin="round"><path fill="#8085e9" d="M 332.0 280.9 C 246.9 300.4 155.5 267.5 127.9 207.3 C 125.9 203.0 124.5 199.2 123.2 194.8 L 282 172 C 282 172 282 172 282 172 C 282 172 282 172 282 172 Z"  transform="translate(0,0)" visibility="visible"></path></g><g  stroke-linejoin="round"><path fill="#8d4654" d="M 123.2 194.8 C 114.1 163.0 122.6 133.6 148.6 106.9 L 282 172 C 282 172 282 172 282 172 Z"  transform="translate(-7,-1)" visibility="visible"></path></g><g  stroke="#7798BF" stroke-width="1" stroke-linejoin="round"><path fill="#7798BF" d="M 148.6 106.9 C 165.8 89.2 186.3 77.0 213.9 68.0 L 282 172 C 282 172 282 172 282 172 Z"  transform="translate(0,0)" visibility="visible"></path></g><g  stroke="#aaeeee" stroke-width="1" stroke-linejoin="round"><path fill="#aaeeee" d="M 213.9 68.0 C 234.0 61.4 252.6 58.2 274.8 57.5 L 282 172 C 282 172 282 172 282 172 Z"  transform="translate(0,0)" visibility="visible"></path></g><g  stroke="#ff0066" stroke-width="1" stroke-linejoin="round"><path fill="#ff0066" d="M 274.8 57.5 C 277.3 57.4 279.4 57.4 281.9 57.4 L 282 172 C 282 172 282 172 282 172 Z"  transform="translate(0,0)" visibility="visible"></path></g></g><g class="highcharts-markers" visibility="visible"  transform="translate(10,41) scale(1 1)"></g></g><text x="292" text-anchor="middle" class="highcharts-title"  style="color:black;font-size:16px;font-weight:bold;fill:black;width:520px;" y="22"><tspan>Browser market shares at a specific website, 2014</tspan></text><g class="highcharts-data-labels highcharts-tracker" visibility="visible"  transform="translate(10,41) scale(1 1)" style="cursor:pointer;"><path fill="none" d="M 477.6 149.3 C 472.6 149.3 463.7 150.6 452.8 152.3 L 442.0 154.0" stroke="#f45b5b" stroke-width="1" visibility="inherit"></path><path fill="none" d="M 149.3 315.4 C 154.3 315.4 189.3 308.5 194.8 299.0 L 200.4 289.5" stroke="#8085e9" stroke-width="1" visibility="inherit"></path><path fill="none" d="M 87.1 143.1 C 92.1 143.1 101.7 144.7 112.4 146.9 L 123.2 149.1" stroke="#8d4654" stroke-width="1" visibility="inherit"></path><path fill="none" d="M 118.9 63 C 123.9 63 163.3 67.6 170.4 76.0 L 177.5 84.4" stroke="#7798BF" stroke-width="1" visibility="inherit"></path><path fill="none" d="M 135.7 42 C 140.7 42 238.4 39.3 241.0 50.0 L 243.6 60.6" stroke="#aaeeee" stroke-width="1" visibility="inherit"></path><path fill="none" d="M 158.4 21 C 163.4 21 277.9 35.4 278.1 46.4 L 278.4 57.4" stroke="#ff0066" stroke-width="1" visibility="inherit"></path><g  style="cursor:pointer;" transform="translate(483,139)" visibility="inherit"><text x="5"  style="font-size: 11px; font-weight: bold; color: rgb(0, 0, 0); fill: #000000; text-shadow: rgb(255, 255, 255) 0px 0px 6px, rgb(255, 255, 255) 0px 0px 3px; text-rendering: geometricprecision;" y="16"><tspan>Firefox</tspan></text></g><g  style="cursor:pointer;" transform="translate(128,305)" visibility="inherit"><text x="5"  style="font-size: 11px; font-weight: bold; color: rgb(0, 0, 0); fill: #000000; text-shadow: rgb(255, 255, 255) 0px 0px 6px, rgb(255, 255, 255) 0px 0px 3px; text-rendering: geometricprecision;" y="16"><tspan>IE</tspan></text></g><g  style="cursor:pointer;" transform="translate(39,133)" visibility="inherit"><text x="5"  style="font-size: 11px; font-weight: bold; color: rgb(0, 0, 0); fill: #000000; text-shadow: rgb(255, 255, 255) 0px 0px 6px, rgb(255, 255, 255) 0px 0px 3px; text-rendering: geometricprecision;" y="16"><tspan>Chrome</tspan></text></g><g  style="cursor:pointer;" transform="translate(80,53)" visibility="inherit"><text x="5"  style="font-size: 11px; font-weight: bold; color: rgb(0, 0, 0); fill: #000000; text-shadow: rgb(255, 255, 255) 0px 0px 6px, rgb(255, 255, 255) 0px 0px 3px; text-rendering: geometricprecision;" y="16"><tspan>Safari</tspan></text></g><g  style="cursor:pointer;" transform="translate(96,32)" visibility="inherit"><text x="5"  style="font-size: 11px; font-weight: bold; color: rgb(0, 0, 0); fill: #000000; text-shadow: rgb(255, 255, 255) 0px 0px 6px, rgb(255, 255, 255) 0px 0px 3px; text-rendering: geometricprecision;" y="16"><tspan>Opera</tspan></text></g><g  style="cursor:pointer;" transform="translate(116,11)" visibility="inherit"><text x="5"  style="font-size: 11px; font-weight: bold; color: rgb(0, 0, 0); fill: #000000; text-shadow: rgb(255, 255, 255) 0px 0px 6px, rgb(255, 255, 255) 0px 0px 3px; text-rendering: geometricprecision;" y="16"><tspan>Others</tspan></text></g></g><g class="highcharts-legend" ><g ><g></g></g></g><g class="highcharts-tooltip"  style="cursor:default;padding:0;white-space:nowrap;" transform="translate(0,-9999)"><path fill="none" d="M 3 0 L 13 0 C 16 0 16 0 16 3 L 16 13 C 16 16 16 16 13 16 L 3 16 C 0 16 0 16 0 13 L 0 3 C 0 0 0 0 3 0"  stroke="black" stroke-opacity="0.0" stroke-width="5" transform="translate(1, 1)"></path><path fill="none" d="M 3 0 L 13 0 C 16 0 16 0 16 3 L 16 13 C 16 16 16 16 13 16 L 3 16 C 0 16 0 16 0 13 L 0 3 C 0 0 0 0 3 0"  stroke="black" stroke-opacity="0.0" stroke-width="3" transform="translate(1, 1)"></path><path fill="none" d="M 3 0 L 13 0 C 16 0 16 0 16 3 L 16 13 C 16 16 16 16 13 16 L 3 16 C 0 16 0 16 0 13 L 0 3 C 0 0 0 0 3 0"  stroke="black" stroke-opacity="0.1" stroke-width="1" transform="translate(1, 1)"></path><path fill="rgb(249, 249, 249)" fill-opacity=" .85" d="M 3 0 L 13 0 C 16 0 16 0 16 3 L 16 13 C 16 16 16 16 13 16 L 3 16 C 0 16 0 16 0 13 L 0 3 C 0 0 0 0 3 0"></path><text x="8"  style="font-size:12px;color:#333333;fill:#333333;" y="20"></text></g></svg>