<svg version="1.1" style="font-family:&quot;lucida grande&quot;, &quot;lucida sans unicode&quot;, arial, helvetica, sans-serif;font-size:12px;" xmlns="http://www.w3.org/2000/svg" width="584" height="400" viewBox="0 0 584 400"><desc>Created with Highcharts 4.1.6</desc><defs><clipPath id="highcharts-1"><rect x="0" y="0" width="529" height="318"></rect></clipPath><clipPath id="highcharts-2"><rect x="-99" y="-46" width="628" height="400"></rect></clipPath><clipPath id="highcharts-3"><rect x="0" y="0" width="529" height="318"></rect></clipPath></defs><rect x="0" y="0" width="584" height="400" strokeWidth="0" fill="#FFFFFF" class=" highcharts-background"></rect><g class="highcharts-grid" ></g><g class="highcharts-grid" ><path fill="none" d="M 45 364.5 L 574 364.5" stroke="#D8D8D8" stroke-width="1"  opacity="1"></path><path fill="none" d="M 45 311.5 L 574 311.5" stroke="#D8D8D8" stroke-width="1"  opacity="1"></path><path fill="none" d="M 45 258.5 L 574 258.5" stroke="#D8D8D8" stroke-width="1"  opacity="1"></path><path fill="none" d="M 45 205.5 L 574 205.5" stroke="#D8D8D8" stroke-width="1"  opacity="1"></path><path fill="none" d="M 45 152.5 L 574 152.5" stroke="#D8D8D8" stroke-width="1"  opacity="1"></path><path fill="none" d="M 45 99.5 L 574 99.5" stroke="#D8D8D8" stroke-width="1"  opacity="1"></path><path fill="none" d="M 45 45.5 L 574 45.5" stroke="#D8D8D8" stroke-width="1"  opacity="1"></path></g><g class="highcharts-axis" ><path fill="none" d="M 49.5 364 L 49.5 374" stroke="#C0D0E0" stroke-width="1" opacity="1"></path><path fill="none" d="M 133.5 364 L 133.5 374" stroke="#C0D0E0" stroke-width="1" opacity="1"></path><path fill="none" d="M 220.5 364 L 220.5 374" stroke="#C0D0E0" stroke-width="1" opacity="1"></path><path fill="none" d="M 307.5 364 L 307.5 374" stroke="#C0D0E0" stroke-width="1" opacity="1"></path><path fill="none" d="M 395.5 364 L 395.5 374" stroke="#C0D0E0" stroke-width="1" opacity="1"></path><path fill="none" d="M 482.5 364 L 482.5 374" stroke="#C0D0E0" stroke-width="1" opacity="1"></path><path fill="none" d="M 569.5 364 L 569.5 374" stroke="#C0D0E0" stroke-width="1" opacity="1"></path><path fill="none" d="M 45 364.5 L 574 364.5" stroke="#C0D0E0" stroke-width="1"  visibility="visible"></path></g><g class="highcharts-axis" ></g><g class="highcharts-series-group" ><g class="highcharts-series" visibility="visible"  transform="translate(45,46) scale(1 1)" clip-path="url(#highcharts-3)"><path fill="rgb(124,181,236)" fill-opacity="0.7" d="M 5.1 242.7 L 6.6 233.7 L 8.0 214.6 L 9.4 259.1 L 10.8 263.4 L 12.3 230.0 L 13.7 232.6 L 15.1 224.7 L 16.5 191.8 L 18.0 195.5 L 19.4 212 L 20.8 182.3 L 22.2 192.9 L 23.7 231.0 L 25.1 243.8 L 26.5 232.1 L 27.9 204.0 L 29.4 212 L 30.8 217.8 L 32.2 209.3 L 33.6 212 L 35.1 215.1 L 36.5 207.7 L 37.9 208.8 L 39.3 232.6 L 40.8 234.7 L 42.2 244.3 L 43.6 213.5 L 45.0 227.3 L 46.5 233.2 L 47.9 235.3 L 49.3 238.5 L 50.7 239.5 L 52.2 245.3 L 53.6 240.6 L 55.0 223.1 L 56.4 236.3 L 57.9 240.6 L 59.3 258.1 L 60.7 239.5 L 62.1 257.5 L 63.6 257.0 L 65.0 237.4 L 66.4 255.9 L 67.8 257.5 L 69.3 228.9 L 70.7 215.7 L 72.1 210.9 L 73.5 212 L 75.0 205.6 L 76.4 205.1 L 77.8 206.7 L 79.2 206.1 L 80.7 206.7 L 82.1 207.2 L 83.5 204.0 L 84.9 209.3 L 86.3 237.9 L 87.8 240.6 L 89.2 222.0 L 90.6 207.2 L 92.0 202.9 L 93.5 212 L 94.9 198.7 L 96.3 200.8 L 97.7 204.0 L 99.2 208.8 L 100.6 201.9 L 102.0 202.4 L 103.4 210.9 L 104.9 213.5 L 106.3 203.5 L 107.7 214.1 L 109.1 222.6 L 110.6 200.3 L 112.0 212 L 113.4 207.7 L 114.8 221.0 L 116.3 222.6 L 117.7 213.5 L 119.1 202.9 L 120.5 216.2 L 122.0 230.5 L 123.4 225.7 L 124.8 215.7 L 126.2 226.8 L 127.7 227.3 L 129.1 210.4 L 130.5 209.3 L 131.9 203.5 L 133.3 219.4 L 134.7 197.1 L 136.2 193.9 L 137.6 208.8 L 139.0 182.8 L 140.4 194.5 L 141.9 208.8 L 143.3 196.1 L 144.7 177.0 L 146.1 182.3 L 147.6 182.3 L 149.0 190.2 L 150.4 209.8 L 151.8 209.3 L 153.3 191.8 L 154.7 180.2 L 156.1 191.3 L 157.5 207.7 L 159.0 196.6 L 160.4 174.3 L 161.8 199.2 L 163.2 187.0 L 164.7 201.4 L 166.1 161.6 L 167.5 193.9 L 168.9 176.4 L 170.4 186.0 L 171.8 167.4 L 173.2 190.2 L 174.6 177.0 L 176.1 165.8 L 177.5 163.2 L 178.9 179.1 L 180.3 212 L 181.8 188.1 L 183.2 195.0 L 184.6 195.5 L 186.0 178.0 L 187.5 185.5 L 188.9 186.5 L 190.3 193.4 L 191.7 188.1 L 193.2 201.4 L 194.6 189.2 L 196.0 188.1 L 197.4 169.6 L 198.8 172.7 L 200.3 167.4 L 201.7 168.0 L 203.1 168.0 L 204.5 176.4 L 206.0 171.7 L 207.4 177.0 L 208.8 165.8 L 210.2 164.8 L 211.7 167.4 L 213.1 180.7 L 214.5 184.9 L 215.9 168.0 L 217.4 179.1 L 218.8 170.6 L 220.2 173.3 L 221.6 165.8 L 223.1 173.3 L 224.5 191.3 L 225.9 178.0 L 227.3 196.6 L 228.8 191.3 L 230.2 177.5 L 231.6 169.6 L 233.0 170.6 L 234.5 166.4 L 235.9 168.5 L 237.3 161.6 L 238.7 181.7 L 240.2 174.9 L 241.6 189.2 L 243.0 192.9 L 244.4 154.7 L 245.9 166.4 L 247.3 155.2 L 248.7 160.5 L 250.1 160.0 L 251.6 144.1 L 253.0 166.4 L 254.4 154.2 L 255.8 140.4 L 257.3 145.7 L 258.7 137.8 L 260.1 133.0 L 261.5 122.4 L 263.0 136.2 L 264.4 135.1 L 265.8 129.8 L 267.2 123.4 L 268.7 124.5 L 270.1 117.6 L 271.5 140.4 L 272.9 156.3 L 274.4 163.2 L 275.8 150.5 L 277.2 155.2 L 278.6 153.7 L 280.1 150.5 L 281.5 149.4 L 282.9 145.2 L 284.3 139.9 L 285.8 151.5 L 287.2 142.0 L 288.6 136.7 L 290.0 142.5 L 291.5 147.3 L 292.9 148.4 L 294.3 148.4 L 295.7 144.6 L 297.2 146.2 L 298.6 145.2 L 300.0 148.9 L 301.4 153.7 L 302.9 154.7 L 304.3 149.4 L 305.7 154.7 L 307.1 164.3 L 308.6 153.7 L 310.0 145.2 L 311.4 135.1 L 312.8 148.9 L 314.3 127.2 L 315.7 138.8 L 317.1 139.3 L 318.5 139.9 L 320.0 156.3 L 321.4 144.1 L 322.8 148.9 L 324.2 154.2 L 325.7 165.3 L 327.1 173.3 L 328.5 155.2 L 329.9 146.8 L 331.4 159.5 L 332.8 171.1 L 334.2 144.6 L 335.6 144.1 L 337.1 155.8 L 338.5 152.1 L 339.9 152.1 L 339.9 138.8 L 338.5 113.9 L 337.1 118.1 L 335.6 104.4 L 334.2 71.5 L 332.8 127.2 L 331.4 114.4 L 329.9 119.2 L 328.5 137.8 L 327.1 139.9 L 325.7 122.9 L 324.2 125.0 L 322.8 114.4 L 321.4 114.4 L 320.0 93.8 L 318.5 94.8 L 317.1 98.0 L 315.7 80.5 L 314.3 98.0 L 312.8 84.8 L 311.4 91.6 L 310.0 92.7 L 308.6 104.9 L 307.1 106.5 L 305.7 126.6 L 304.3 113.9 L 302.9 117.6 L 301.4 109.7 L 300.0 104.9 L 298.6 106.5 L 297.2 109.1 L 295.7 115.0 L 294.3 121.3 L 292.9 101.7 L 291.5 129.8 L 290.0 121.3 L 288.6 97.5 L 287.2 79.5 L 285.8 92.2 L 284.3 108.1 L 282.9 93.2 L 281.5 102.2 L 280.1 86.3 L 278.6 88.5 L 277.2 86.3 L 275.8 96.4 L 274.4 85.8 L 272.9 98.5 L 271.5 80.5 L 270.1 75.7 L 268.7 79.5 L 267.2 49.2 L 265.8 55.1 L 264.4 64.6 L 263.0 65.1 L 261.5 92.7 L 260.1 55.6 L 258.7 63.0 L 257.3 89.0 L 255.8 63.6 L 254.4 71.0 L 253.0 84.2 L 251.6 108.6 L 250.1 102.8 L 248.7 111.8 L 247.3 121.9 L 245.9 125.6 L 244.4 132.5 L 243.0 110.7 L 241.6 128.2 L 240.2 122.4 L 238.7 112.8 L 237.3 121.9 L 235.9 115.5 L 234.5 130.9 L 233.0 126.1 L 231.6 136.7 L 230.2 122.9 L 228.8 117.1 L 227.3 117.1 L 225.9 120.3 L 224.5 129.8 L 223.1 138.3 L 221.6 126.1 L 220.2 96.9 L 218.8 92.2 L 217.4 92.2 L 215.9 127.2 L 214.5 122.4 L 213.1 136.7 L 211.7 151.0 L 210.2 118.1 L 208.8 118.1 L 207.4 120.3 L 206.0 119.2 L 204.5 121.9 L 203.1 117.1 L 201.7 131.4 L 200.3 118.1 L 198.8 102.2 L 197.4 102.2 L 196.0 112.3 L 194.6 115.0 L 193.2 121.9 L 191.7 132.5 L 190.3 143.1 L 188.9 151.0 L 187.5 140.4 L 186.0 134.6 L 184.6 139.3 L 183.2 136.2 L 181.8 152.6 L 180.3 140.9 L 178.9 143.6 L 177.5 125.0 L 176.1 98.5 L 174.6 106.5 L 173.2 113.4 L 171.8 130.9 L 170.4 128.2 L 168.9 110.7 L 167.5 123.4 L 166.1 119.7 L 164.7 125.6 L 163.2 143.6 L 161.8 143.6 L 160.4 147.3 L 159.0 120.3 L 157.5 136.2 L 156.1 138.3 L 154.7 150.5 L 153.3 129.3 L 151.8 139.9 L 150.4 149.4 L 149.0 159 L 147.6 131.4 L 146.1 157.4 L 144.7 131.4 L 143.3 139.3 L 141.9 140.4 L 140.4 168.0 L 139.0 168.0 L 137.6 140.4 L 136.2 148.4 L 134.7 175.9 L 133.3 173.3 L 131.9 187.0 L 130.5 172.2 L 129.1 174.9 L 127.7 179.6 L 126.2 180.2 L 124.8 169.6 L 123.4 185.5 L 122.0 181.7 L 120.5 181.7 L 119.1 180.7 L 117.7 181.7 L 116.3 178.6 L 114.8 172.2 L 113.4 162.7 L 112.0 173.8 L 110.6 176.4 L 109.1 183.3 L 107.7 165.3 L 106.3 168.0 L 104.9 180.7 L 103.4 166.4 L 102.0 174.9 L 100.6 162.1 L 99.2 170.1 L 97.7 175.4 L 96.3 182.3 L 94.9 171.1 L 93.5 163.7 L 92.0 169.0 L 90.6 169.0 L 89.2 190.8 L 87.8 204.5 L 86.3 191.8 L 84.9 183.3 L 83.5 189.2 L 82.1 192.3 L 80.7 177.5 L 79.2 182.8 L 77.8 199.8 L 76.4 181.7 L 75.0 188.1 L 73.5 191.3 L 72.1 195.0 L 70.7 190.2 L 69.3 204.0 L 67.8 206.1 L 66.4 204.5 L 65.0 202.9 L 63.6 211.4 L 62.1 223.6 L 60.7 205.1 L 59.3 225.7 L 57.9 208.8 L 56.4 204.0 L 55.0 204.5 L 53.6 215.1 L 52.2 215.1 L 50.7 224.1 L 49.3 226.3 L 47.9 222.0 L 46.5 217.3 L 45.0 197.6 L 43.6 201.9 L 42.2 214.1 L 40.8 201.4 L 39.3 204.5 L 37.9 188.6 L 36.5 187.0 L 35.1 200.8 L 33.6 198.7 L 32.2 184.9 L 30.8 192.9 L 29.4 188.1 L 27.9 189.7 L 26.5 199.2 L 25.1 219.9 L 23.7 191.8 L 22.2 177.5 L 20.8 162.1 L 19.4 171.7 L 18.0 175.9 L 16.5 175.4 L 15.1 176.4 L 13.7 213.0 L 12.3 195.0 L 10.8 231.6 L 9.4 215.7 L 8.0 190.2 L 6.6 204.5 L 5.1 211.4 M 342.8 159 L 344.2 161.1 L 345.6 144.6 L 347.0 153.1 L 348.5 148.9 L 349.9 154.7 L 351.3 151.0 L 352.7 159 L 354.2 162.7 L 355.6 153.1 L 357.0 156.8 L 357.0 149.4 L 355.6 116.6 L 354.2 122.9 L 352.7 139.3 L 351.3 133.5 L 349.9 145.2 L 348.5 130.9 L 347.0 121.3 L 345.6 138.8 L 344.2 124.5 L 342.8 131.9 M 359.9 154.7 L 361.3 164.3 L 362.7 151.5 L 364.1 160.5 L 365.6 156.8 L 367.0 159 L 368.4 168.0 L 369.8 179.6 L 371.3 182.8 L 372.7 166.9 L 374.1 165.3 L 375.5 162.1 L 376.9 176.4 L 378.4 162.7 L 379.8 167.4 L 381.2 161.6 L 382.6 171.1 L 384.1 174.3 L 385.5 159 L 386.9 138.3 L 388.3 169.6 L 389.8 188.6 L 391.2 187.0 L 391.2 175.4 L 389.8 164.8 L 388.3 131.9 L 386.9 127.2 L 385.5 128.2 L 384.1 148.9 L 382.6 153.1 L 381.2 131.4 L 379.8 132.5 L 378.4 133.0 L 376.9 121.3 L 375.5 129.3 L 374.1 144.1 L 372.7 139.9 L 371.3 135.6 L 369.8 128.7 L 368.4 119.2 L 367.0 139.9 L 365.6 137.8 L 364.1 129.3 L 362.7 124.0 L 361.3 142.5 L 359.9 134.0 M 395.5 192.9 L 396.9 196.1 L 398.3 197.1 L 399.7 204.0 L 401.2 209.3 L 402.6 194.5 L 404.0 193.9 L 405.4 208.2 L 406.9 225.2 L 408.3 209.8 L 409.7 210.9 L 411.1 225.2 L 412.6 228.4 L 414.0 199.8 L 415.4 188.6 L 416.8 210.9 L 418.3 218.3 L 419.7 197.1 L 421.1 216.2 L 422.5 206.7 L 424.0 205.1 L 425.4 196.6 L 426.8 187.0 L 428.2 194.5 L 429.7 212 L 431.2 212 L 432.6 217.8 L 434.0 218.8 L 435.4 210.4 L 436.9 215.7 L 438.3 188.1 L 439.7 212 L 441.1 212 L 442.6 212 L 444.0 223.6 L 445.4 225.7 L 446.8 221.0 L 448.2 212 L 449.7 222.0 L 451.1 225.7 L 452.5 225.7 L 453.9 235.3 L 455.4 239.5 L 455.4 210.9 L 453.9 221.0 L 452.5 205.6 L 451.1 213.0 L 449.7 207.7 L 448.2 184.4 L 446.8 157.4 L 445.4 202.9 L 444.0 184.4 L 442.6 176.4 L 441.1 212 L 439.7 188.6 L 438.3 173.3 L 436.9 186.0 L 435.4 189.2 L 434.0 188.1 L 432.6 183.3 L 431.2 201.4 L 429.7 174.3 L 428.2 154.7 L 426.8 164.3 L 425.4 151.5 L 424.0 189.7 L 422.5 160.5 L 421.1 173.8 L 419.7 178.0 L 418.3 173.8 L 416.8 170.6 L 415.4 154.7 L 414.0 166.9 L 412.6 183.3 L 411.1 183.9 L 409.7 161.1 L 408.3 166.9 L 406.9 179.1 L 405.4 176.4 L 404.0 183.9 L 402.6 163.7 L 401.2 181.2 L 399.7 172.2 L 398.3 164.3 L 396.9 175.9 L 395.5 192.9 M 458.2 205.1 L 459.6 212.5 L 461.1 202.9 L 462.5 188.1 L 463.9 186.5 L 465.3 186.0 L 466.8 199.2 L 468.2 199.2 L 469.6 201.9 L 471.0 196.6 L 472.5 196.6 L 473.9 191.3 L 475.3 207.7 L 476.7 212 L 478.2 204.0 L 479.6 232.1 L 481.0 229.4 L 482.4 226.8 L 483.9 226.3 L 485.3 215.7 L 486.7 210.4 L 488.1 196.6 L 489.6 212 L 491.0 208.8 L 492.4 211.4 L 493.8 197.1 L 495.3 218.3 L 496.7 233.2 L 498.1 215.7 L 499.5 209.3 L 501.0 217.3 L 502.4 253.3 L 503.8 275.0 L 505.2 283.5 L 506.7 253.3 L 508.1 271.3 L 509.5 281.4 L 510.9 281.9 L 512.4 269.7 L 513.8 256.5 L 515.2 244.3 L 516.6 225.7 L 518.1 227.3 L 519.5 226.3 L 520.9 269.2 L 522.3 270.8 L 523.8 276.6 L 523.8 246.4 L 522.3 254.4 L 520.9 218.8 L 519.5 208.2 L 518.1 208.2 L 516.6 218.3 L 515.2 218.3 L 513.8 219.9 L 512.4 252.8 L 510.9 239.5 L 509.5 250.1 L 508.1 215.1 L 506.7 221.0 L 505.2 253.8 L 503.8 253.8 L 502.4 217.3 L 501.0 204.0 L 499.5 203.5 L 498.1 208.2 L 496.7 214.1 L 495.3 200.3 L 493.8 191.3 L 492.4 184.9 L 491.0 197.1 L 489.6 175.9 L 488.1 160.0 L 486.7 179.6 L 485.3 189.7 L 483.9 191.8 L 482.4 215.7 L 481.0 202.9 L 479.6 204.0 L 478.2 193.9 L 476.7 186.5 L 475.3 181.7 L 473.9 171.7 L 472.5 186.0 L 471.0 181.7 L 469.6 184.4 L 468.2 187.6 L 466.8 166.4 L 465.3 156.8 L 463.9 180.7 L 462.5 178.6 L 461.1 180.7 L 459.6 191.3 L 458.2 164.8" ></path><path fill="none" d="M 5.1 242.7 L 6.6 233.7 L 8.0 214.6 L 9.4 259.1 L 10.8 263.4 L 12.3 230.0 L 13.7 232.6 L 15.1 224.7 L 16.5 191.8 L 18.0 195.5 L 19.4 212 L 20.8 182.3 L 22.2 192.9 L 23.7 231.0 L 25.1 243.8 L 26.5 232.1 L 27.9 204.0 L 29.4 212 L 30.8 217.8 L 32.2 209.3 L 33.6 212 L 35.1 215.1 L 36.5 207.7 L 37.9 208.8 L 39.3 232.6 L 40.8 234.7 L 42.2 244.3 L 43.6 213.5 L 45.0 227.3 L 46.5 233.2 L 47.9 235.3 L 49.3 238.5 L 50.7 239.5 L 52.2 245.3 L 53.6 240.6 L 55.0 223.1 L 56.4 236.3 L 57.9 240.6 L 59.3 258.1 L 60.7 239.5 L 62.1 257.5 L 63.6 257.0 L 65.0 237.4 L 66.4 255.9 L 67.8 257.5 L 69.3 228.9 L 70.7 215.7 L 72.1 210.9 L 73.5 212 L 75.0 205.6 L 76.4 205.1 L 77.8 206.7 L 79.2 206.1 L 80.7 206.7 L 82.1 207.2 L 83.5 204.0 L 84.9 209.3 L 86.3 237.9 L 87.8 240.6 L 89.2 222.0 L 90.6 207.2 L 92.0 202.9 L 93.5 212 L 94.9 198.7 L 96.3 200.8 L 97.7 204.0 L 99.2 208.8 L 100.6 201.9 L 102.0 202.4 L 103.4 210.9 L 104.9 213.5 L 106.3 203.5 L 107.7 214.1 L 109.1 222.6 L 110.6 200.3 L 112.0 212 L 113.4 207.7 L 114.8 221.0 L 116.3 222.6 L 117.7 213.5 L 119.1 202.9 L 120.5 216.2 L 122.0 230.5 L 123.4 225.7 L 124.8 215.7 L 126.2 226.8 L 127.7 227.3 L 129.1 210.4 L 130.5 209.3 L 131.9 203.5 L 133.3 219.4 L 134.7 197.1 L 136.2 193.9 L 137.6 208.8 L 139.0 182.8 L 140.4 194.5 L 141.9 208.8 L 143.3 196.1 L 144.7 177.0 L 146.1 182.3 L 147.6 182.3 L 149.0 190.2 L 150.4 209.8 L 151.8 209.3 L 153.3 191.8 L 154.7 180.2 L 156.1 191.3 L 157.5 207.7 L 159.0 196.6 L 160.4 174.3 L 161.8 199.2 L 163.2 187.0 L 164.7 201.4 L 166.1 161.6 L 167.5 193.9 L 168.9 176.4 L 170.4 186.0 L 171.8 167.4 L 173.2 190.2 L 174.6 177.0 L 176.1 165.8 L 177.5 163.2 L 178.9 179.1 L 180.3 212 L 181.8 188.1 L 183.2 195.0 L 184.6 195.5 L 186.0 178.0 L 187.5 185.5 L 188.9 186.5 L 190.3 193.4 L 191.7 188.1 L 193.2 201.4 L 194.6 189.2 L 196.0 188.1 L 197.4 169.6 L 198.8 172.7 L 200.3 167.4 L 201.7 168.0 L 203.1 168.0 L 204.5 176.4 L 206.0 171.7 L 207.4 177.0 L 208.8 165.8 L 210.2 164.8 L 211.7 167.4 L 213.1 180.7 L 214.5 184.9 L 215.9 168.0 L 217.4 179.1 L 218.8 170.6 L 220.2 173.3 L 221.6 165.8 L 223.1 173.3 L 224.5 191.3 L 225.9 178.0 L 227.3 196.6 L 228.8 191.3 L 230.2 177.5 L 231.6 169.6 L 233.0 170.6 L 234.5 166.4 L 235.9 168.5 L 237.3 161.6 L 238.7 181.7 L 240.2 174.9 L 241.6 189.2 L 243.0 192.9 L 244.4 154.7 L 245.9 166.4 L 247.3 155.2 L 248.7 160.5 L 250.1 160.0 L 251.6 144.1 L 253.0 166.4 L 254.4 154.2 L 255.8 140.4 L 257.3 145.7 L 258.7 137.8 L 260.1 133.0 L 261.5 122.4 L 263.0 136.2 L 264.4 135.1 L 265.8 129.8 L 267.2 123.4 L 268.7 124.5 L 270.1 117.6 L 271.5 140.4 L 272.9 156.3 L 274.4 163.2 L 275.8 150.5 L 277.2 155.2 L 278.6 153.7 L 280.1 150.5 L 281.5 149.4 L 282.9 145.2 L 284.3 139.9 L 285.8 151.5 L 287.2 142.0 L 288.6 136.7 L 290.0 142.5 L 291.5 147.3 L 292.9 148.4 L 294.3 148.4 L 295.7 144.6 L 297.2 146.2 L 298.6 145.2 L 300.0 148.9 L 301.4 153.7 L 302.9 154.7 L 304.3 149.4 L 305.7 154.7 L 307.1 164.3 L 308.6 153.7 L 310.0 145.2 L 311.4 135.1 L 312.8 148.9 L 314.3 127.2 L 315.7 138.8 L 317.1 139.3 L 318.5 139.9 L 320.0 156.3 L 321.4 144.1 L 322.8 148.9 L 324.2 154.2 L 325.7 165.3 L 327.1 173.3 L 328.5 155.2 L 329.9 146.8 L 331.4 159.5 L 332.8 171.1 L 334.2 144.6 L 335.6 144.1 L 337.1 155.8 L 338.5 152.1 L 339.9 152.1 M 339.9 138.8 L 338.5 113.9 L 337.1 118.1 L 335.6 104.4 L 334.2 71.5 L 332.8 127.2 L 331.4 114.4 L 329.9 119.2 L 328.5 137.8 L 327.1 139.9 L 325.7 122.9 L 324.2 125.0 L 322.8 114.4 L 321.4 114.4 L 320.0 93.8 L 318.5 94.8 L 317.1 98.0 L 315.7 80.5 L 314.3 98.0 L 312.8 84.8 L 311.4 91.6 L 310.0 92.7 L 308.6 104.9 L 307.1 106.5 L 305.7 126.6 L 304.3 113.9 L 302.9 117.6 L 301.4 109.7 L 300.0 104.9 L 298.6 106.5 L 297.2 109.1 L 295.7 115.0 L 294.3 121.3 L 292.9 101.7 L 291.5 129.8 L 290.0 121.3 L 288.6 97.5 L 287.2 79.5 L 285.8 92.2 L 284.3 108.1 L 282.9 93.2 L 281.5 102.2 L 280.1 86.3 L 278.6 88.5 L 277.2 86.3 L 275.8 96.4 L 274.4 85.8 L 272.9 98.5 L 271.5 80.5 L 270.1 75.7 L 268.7 79.5 L 267.2 49.2 L 265.8 55.1 L 264.4 64.6 L 263.0 65.1 L 261.5 92.7 L 260.1 55.6 L 258.7 63.0 L 257.3 89.0 L 255.8 63.6 L 254.4 71.0 L 253.0 84.2 L 251.6 108.6 L 250.1 102.8 L 248.7 111.8 L 247.3 121.9 L 245.9 125.6 L 244.4 132.5 L 243.0 110.7 L 241.6 128.2 L 240.2 122.4 L 238.7 112.8 L 237.3 121.9 L 235.9 115.5 L 234.5 130.9 L 233.0 126.1 L 231.6 136.7 L 230.2 122.9 L 228.8 117.1 L 227.3 117.1 L 225.9 120.3 L 224.5 129.8 L 223.1 138.3 L 221.6 126.1 L 220.2 96.9 L 218.8 92.2 L 217.4 92.2 L 215.9 127.2 L 214.5 122.4 L 213.1 136.7 L 211.7 151.0 L 210.2 118.1 L 208.8 118.1 L 207.4 120.3 L 206.0 119.2 L 204.5 121.9 L 203.1 117.1 L 201.7 131.4 L 200.3 118.1 L 198.8 102.2 L 197.4 102.2 L 196.0 112.3 L 194.6 115.0 L 193.2 121.9 L 191.7 132.5 L 190.3 143.1 L 188.9 151.0 L 187.5 140.4 L 186.0 134.6 L 184.6 139.3 L 183.2 136.2 L 181.8 152.6 L 180.3 140.9 L 178.9 143.6 L 177.5 125.0 L 176.1 98.5 L 174.6 106.5 L 173.2 113.4 L 171.8 130.9 L 170.4 128.2 L 168.9 110.7 L 167.5 123.4 L 166.1 119.7 L 164.7 125.6 L 163.2 143.6 L 161.8 143.6 L 160.4 147.3 L 159.0 120.3 L 157.5 136.2 L 156.1 138.3 L 154.7 150.5 L 153.3 129.3 L 151.8 139.9 L 150.4 149.4 L 149.0 159 L 147.6 131.4 L 146.1 157.4 L 144.7 131.4 L 143.3 139.3 L 141.9 140.4 L 140.4 168.0 L 139.0 168.0 L 137.6 140.4 L 136.2 148.4 L 134.7 175.9 L 133.3 173.3 L 131.9 187.0 L 130.5 172.2 L 129.1 174.9 L 127.7 179.6 L 126.2 180.2 L 124.8 169.6 L 123.4 185.5 L 122.0 181.7 L 120.5 181.7 L 119.1 180.7 L 117.7 181.7 L 116.3 178.6 L 114.8 172.2 L 113.4 162.7 L 112.0 173.8 L 110.6 176.4 L 109.1 183.3 L 107.7 165.3 L 106.3 168.0 L 104.9 180.7 L 103.4 166.4 L 102.0 174.9 L 100.6 162.1 L 99.2 170.1 L 97.7 175.4 L 96.3 182.3 L 94.9 171.1 L 93.5 163.7 L 92.0 169.0 L 90.6 169.0 L 89.2 190.8 L 87.8 204.5 L 86.3 191.8 L 84.9 183.3 L 83.5 189.2 L 82.1 192.3 L 80.7 177.5 L 79.2 182.8 L 77.8 199.8 L 76.4 181.7 L 75.0 188.1 L 73.5 191.3 L 72.1 195.0 L 70.7 190.2 L 69.3 204.0 L 67.8 206.1 L 66.4 204.5 L 65.0 202.9 L 63.6 211.4 L 62.1 223.6 L 60.7 205.1 L 59.3 225.7 L 57.9 208.8 L 56.4 204.0 L 55.0 204.5 L 53.6 215.1 L 52.2 215.1 L 50.7 224.1 L 49.3 226.3 L 47.9 222.0 L 46.5 217.3 L 45.0 197.6 L 43.6 201.9 L 42.2 214.1 L 40.8 201.4 L 39.3 204.5 L 37.9 188.6 L 36.5 187.0 L 35.1 200.8 L 33.6 198.7 L 32.2 184.9 L 30.8 192.9 L 29.4 188.1 L 27.9 189.7 L 26.5 199.2 L 25.1 219.9 L 23.7 191.8 L 22.2 177.5 L 20.8 162.1 L 19.4 171.7 L 18.0 175.9 L 16.5 175.4 L 15.1 176.4 L 13.7 213.0 L 12.3 195.0 L 10.8 231.6 L 9.4 215.7 L 8.0 190.2 L 6.6 204.5 L 5.1 211.4 M 342.8 159 L 344.2 161.1 L 345.6 144.6 L 347.0 153.1 L 348.5 148.9 L 349.9 154.7 L 351.3 151.0 L 352.7 159 L 354.2 162.7 L 355.6 153.1 L 357.0 156.8 M 357.0 149.4 L 355.6 116.6 L 354.2 122.9 L 352.7 139.3 L 351.3 133.5 L 349.9 145.2 L 348.5 130.9 L 347.0 121.3 L 345.6 138.8 L 344.2 124.5 L 342.8 131.9 M 359.9 154.7 L 361.3 164.3 L 362.7 151.5 L 364.1 160.5 L 365.6 156.8 L 367.0 159 L 368.4 168.0 L 369.8 179.6 L 371.3 182.8 L 372.7 166.9 L 374.1 165.3 L 375.5 162.1 L 376.9 176.4 L 378.4 162.7 L 379.8 167.4 L 381.2 161.6 L 382.6 171.1 L 384.1 174.3 L 385.5 159 L 386.9 138.3 L 388.3 169.6 L 389.8 188.6 L 391.2 187.0 M 391.2 175.4 L 389.8 164.8 L 388.3 131.9 L 386.9 127.2 L 385.5 128.2 L 384.1 148.9 L 382.6 153.1 L 381.2 131.4 L 379.8 132.5 L 378.4 133.0 L 376.9 121.3 L 375.5 129.3 L 374.1 144.1 L 372.7 139.9 L 371.3 135.6 L 369.8 128.7 L 368.4 119.2 L 367.0 139.9 L 365.6 137.8 L 364.1 129.3 L 362.7 124.0 L 361.3 142.5 L 359.9 134.0 M 395.5 192.9 L 396.9 196.1 L 398.3 197.1 L 399.7 204.0 L 401.2 209.3 L 402.6 194.5 L 404.0 193.9 L 405.4 208.2 L 406.9 225.2 L 408.3 209.8 L 409.7 210.9 L 411.1 225.2 L 412.6 228.4 L 414.0 199.8 L 415.4 188.6 L 416.8 210.9 L 418.3 218.3 L 419.7 197.1 L 421.1 216.2 L 422.5 206.7 L 424.0 205.1 L 425.4 196.6 L 426.8 187.0 L 428.2 194.5 L 429.7 212 L 431.2 212 L 432.6 217.8 L 434.0 218.8 L 435.4 210.4 L 436.9 215.7 L 438.3 188.1 L 439.7 212 L 441.1 212 L 442.6 212 L 444.0 223.6 L 445.4 225.7 L 446.8 221.0 L 448.2 212 L 449.7 222.0 L 451.1 225.7 L 452.5 225.7 L 453.9 235.3 L 455.4 239.5 M 455.4 210.9 L 453.9 221.0 L 452.5 205.6 L 451.1 213.0 L 449.7 207.7 L 448.2 184.4 L 446.8 157.4 L 445.4 202.9 L 444.0 184.4 L 442.6 176.4 L 441.1 212 L 439.7 188.6 L 438.3 173.3 L 436.9 186.0 L 435.4 189.2 L 434.0 188.1 L 432.6 183.3 L 431.2 201.4 L 429.7 174.3 L 428.2 154.7 L 426.8 164.3 L 425.4 151.5 L 424.0 189.7 L 422.5 160.5 L 421.1 173.8 L 419.7 178.0 L 418.3 173.8 L 416.8 170.6 L 415.4 154.7 L 414.0 166.9 L 412.6 183.3 L 411.1 183.9 L 409.7 161.1 L 408.3 166.9 L 406.9 179.1 L 405.4 176.4 L 404.0 183.9 L 402.6 163.7 L 401.2 181.2 L 399.7 172.2 L 398.3 164.3 L 396.9 175.9 L 395.5 192.9 M 458.2 205.1 L 459.6 212.5 L 461.1 202.9 L 462.5 188.1 L 463.9 186.5 L 465.3 186.0 L 466.8 199.2 L 468.2 199.2 L 469.6 201.9 L 471.0 196.6 L 472.5 196.6 L 473.9 191.3 L 475.3 207.7 L 476.7 212 L 478.2 204.0 L 479.6 232.1 L 481.0 229.4 L 482.4 226.8 L 483.9 226.3 L 485.3 215.7 L 486.7 210.4 L 488.1 196.6 L 489.6 212 L 491.0 208.8 L 492.4 211.4 L 493.8 197.1 L 495.3 218.3 L 496.7 233.2 L 498.1 215.7 L 499.5 209.3 L 501.0 217.3 L 502.4 253.3 L 503.8 275.0 L 505.2 283.5 L 506.7 253.3 L 508.1 271.3 L 509.5 281.4 L 510.9 281.9 L 512.4 269.7 L 513.8 256.5 L 515.2 244.3 L 516.6 225.7 L 518.1 227.3 L 519.5 226.3 L 520.9 269.2 L 522.3 270.8 L 523.8 276.6 M 523.8 246.4 L 522.3 254.4 L 520.9 218.8 L 519.5 208.2 L 518.1 208.2 L 516.6 218.3 L 515.2 218.3 L 513.8 219.9 L 512.4 252.8 L 510.9 239.5 L 509.5 250.1 L 508.1 215.1 L 506.7 221.0 L 505.2 253.8 L 503.8 253.8 L 502.4 217.3 L 501.0 204.0 L 499.5 203.5 L 498.1 208.2 L 496.7 214.1 L 495.3 200.3 L 493.8 191.3 L 492.4 184.9 L 491.0 197.1 L 489.6 175.9 L 488.1 160.0 L 486.7 179.6 L 485.3 189.7 L 483.9 191.8 L 482.4 215.7 L 481.0 202.9 L 479.6 204.0 L 478.2 193.9 L 476.7 186.5 L 475.3 181.7 L 473.9 171.7 L 472.5 186.0 L 471.0 181.7 L 469.6 184.4 L 468.2 187.6 L 466.8 166.4 L 465.3 156.8 L 463.9 180.7 L 462.5 178.6 L 461.1 180.7 L 459.6 191.3 L 458.2 164.8" stroke="#7cb5ec" stroke-width="1"  stroke-linejoin="round" stroke-linecap="round"></path><path fill="rgb(192,192,192)" fill-opacity="0.0" d="M 5.1 242.7 L 6.6 233.7 L 8.0 214.6 L 9.4 259.1 L 10.8 263.4 L 12.3 230.0 L 13.7 232.6 L 15.1 224.7 L 16.5 191.8 L 18.0 195.5 L 19.4 212 L 20.8 182.3 L 22.2 192.9 L 23.7 231.0 L 25.1 243.8 L 26.5 232.1 L 27.9 204.0 L 29.4 212 L 30.8 217.8 L 32.2 209.3 L 33.6 212 L 35.1 215.1 L 36.5 207.7 L 37.9 208.8 L 39.3 232.6 L 40.8 234.7 L 42.2 244.3 L 43.6 213.5 L 45.0 227.3 L 46.5 233.2 L 47.9 235.3 L 49.3 238.5 L 50.7 239.5 L 52.2 245.3 L 53.6 240.6 L 55.0 223.1 L 56.4 236.3 L 57.9 240.6 L 59.3 258.1 L 60.7 239.5 L 62.1 257.5 L 63.6 257.0 L 65.0 237.4 L 66.4 255.9 L 67.8 257.5 L 69.3 228.9 L 70.7 215.7 L 72.1 210.9 L 73.5 212 L 75.0 205.6 L 76.4 205.1 L 77.8 206.7 L 79.2 206.1 L 80.7 206.7 L 82.1 207.2 L 83.5 204.0 L 84.9 209.3 L 86.3 237.9 L 87.8 240.6 L 89.2 222.0 L 90.6 207.2 L 92.0 202.9 L 93.5 212 L 94.9 198.7 L 96.3 200.8 L 97.7 204.0 L 99.2 208.8 L 100.6 201.9 L 102.0 202.4 L 103.4 210.9 L 104.9 213.5 L 106.3 203.5 L 107.7 214.1 L 109.1 222.6 L 110.6 200.3 L 112.0 212 L 113.4 207.7 L 114.8 221.0 L 116.3 222.6 L 117.7 213.5 L 119.1 202.9 L 120.5 216.2 L 122.0 230.5 L 123.4 225.7 L 124.8 215.7 L 126.2 226.8 L 127.7 227.3 L 129.1 210.4 L 130.5 209.3 L 131.9 203.5 L 133.3 219.4 L 134.7 197.1 L 136.2 193.9 L 137.6 208.8 L 139.0 182.8 L 140.4 194.5 L 141.9 208.8 L 143.3 196.1 L 144.7 177.0 L 146.1 182.3 L 147.6 182.3 L 149.0 190.2 L 150.4 209.8 L 151.8 209.3 L 153.3 191.8 L 154.7 180.2 L 156.1 191.3 L 157.5 207.7 L 159.0 196.6 L 160.4 174.3 L 161.8 199.2 L 163.2 187.0 L 164.7 201.4 L 166.1 161.6 L 167.5 193.9 L 168.9 176.4 L 170.4 186.0 L 171.8 167.4 L 173.2 190.2 L 174.6 177.0 L 176.1 165.8 L 177.5 163.2 L 178.9 179.1 L 180.3 212 L 181.8 188.1 L 183.2 195.0 L 184.6 195.5 L 186.0 178.0 L 187.5 185.5 L 188.9 186.5 L 190.3 193.4 L 191.7 188.1 L 193.2 201.4 L 194.6 189.2 L 196.0 188.1 L 197.4 169.6 L 198.8 172.7 L 200.3 167.4 L 201.7 168.0 L 203.1 168.0 L 204.5 176.4 L 206.0 171.7 L 207.4 177.0 L 208.8 165.8 L 210.2 164.8 L 211.7 167.4 L 213.1 180.7 L 214.5 184.9 L 215.9 168.0 L 217.4 179.1 L 218.8 170.6 L 220.2 173.3 L 221.6 165.8 L 223.1 173.3 L 224.5 191.3 L 225.9 178.0 L 227.3 196.6 L 228.8 191.3 L 230.2 177.5 L 231.6 169.6 L 233.0 170.6 L 234.5 166.4 L 235.9 168.5 L 237.3 161.6 L 238.7 181.7 L 240.2 174.9 L 241.6 189.2 L 243.0 192.9 L 244.4 154.7 L 245.9 166.4 L 247.3 155.2 L 248.7 160.5 L 250.1 160.0 L 251.6 144.1 L 253.0 166.4 L 254.4 154.2 L 255.8 140.4 L 257.3 145.7 L 258.7 137.8 L 260.1 133.0 L 261.5 122.4 L 263.0 136.2 L 264.4 135.1 L 265.8 129.8 L 267.2 123.4 L 268.7 124.5 L 270.1 117.6 L 271.5 140.4 L 272.9 156.3 L 274.4 163.2 L 275.8 150.5 L 277.2 155.2 L 278.6 153.7 L 280.1 150.5 L 281.5 149.4 L 282.9 145.2 L 284.3 139.9 L 285.8 151.5 L 287.2 142.0 L 288.6 136.7 L 290.0 142.5 L 291.5 147.3 L 292.9 148.4 L 294.3 148.4 L 295.7 144.6 L 297.2 146.2 L 298.6 145.2 L 300.0 148.9 L 301.4 153.7 L 302.9 154.7 L 304.3 149.4 L 305.7 154.7 L 307.1 164.3 L 308.6 153.7 L 310.0 145.2 L 311.4 135.1 L 312.8 148.9 L 314.3 127.2 L 315.7 138.8 L 317.1 139.3 L 318.5 139.9 L 320.0 156.3 L 321.4 144.1 L 322.8 148.9 L 324.2 154.2 L 325.7 165.3 L 327.1 173.3 L 328.5 155.2 L 329.9 146.8 L 331.4 159.5 L 332.8 171.1 L 334.2 144.6 L 335.6 144.1 L 337.1 155.8 L 338.5 152.1 L 339.9 152.1 L 339.9 138.8 L 338.5 113.9 L 337.1 118.1 L 335.6 104.4 L 334.2 71.5 L 332.8 127.2 L 331.4 114.4 L 329.9 119.2 L 328.5 137.8 L 327.1 139.9 L 325.7 122.9 L 324.2 125.0 L 322.8 114.4 L 321.4 114.4 L 320.0 93.8 L 318.5 94.8 L 317.1 98.0 L 315.7 80.5 L 314.3 98.0 L 312.8 84.8 L 311.4 91.6 L 310.0 92.7 L 308.6 104.9 L 307.1 106.5 L 305.7 126.6 L 304.3 113.9 L 302.9 117.6 L 301.4 109.7 L 300.0 104.9 L 298.6 106.5 L 297.2 109.1 L 295.7 115.0 L 294.3 121.3 L 292.9 101.7 L 291.5 129.8 L 290.0 121.3 L 288.6 97.5 L 287.2 79.5 L 285.8 92.2 L 284.3 108.1 L 282.9 93.2 L 281.5 102.2 L 280.1 86.3 L 278.6 88.5 L 277.2 86.3 L 275.8 96.4 L 274.4 85.8 L 272.9 98.5 L 271.5 80.5 L 270.1 75.7 L 268.7 79.5 L 267.2 49.2 L 265.8 55.1 L 264.4 64.6 L 263.0 65.1 L 261.5 92.7 L 260.1 55.6 L 258.7 63.0 L 257.3 89.0 L 255.8 63.6 L 254.4 71.0 L 253.0 84.2 L 251.6 108.6 L 250.1 102.8 L 248.7 111.8 L 247.3 121.9 L 245.9 125.6 L 244.4 132.5 L 243.0 110.7 L 241.6 128.2 L 240.2 122.4 L 238.7 112.8 L 237.3 121.9 L 235.9 115.5 L 234.5 130.9 L 233.0 126.1 L 231.6 136.7 L 230.2 122.9 L 228.8 117.1 L 227.3 117.1 L 225.9 120.3 L 224.5 129.8 L 223.1 138.3 L 221.6 126.1 L 220.2 96.9 L 218.8 92.2 L 217.4 92.2 L 215.9 127.2 L 214.5 122.4 L 213.1 136.7 L 211.7 151.0 L 210.2 118.1 L 208.8 118.1 L 207.4 120.3 L 206.0 119.2 L 204.5 121.9 L 203.1 117.1 L 201.7 131.4 L 200.3 118.1 L 198.8 102.2 L 197.4 102.2 L 196.0 112.3 L 194.6 115.0 L 193.2 121.9 L 191.7 132.5 L 190.3 143.1 L 188.9 151.0 L 187.5 140.4 L 186.0 134.6 L 184.6 139.3 L 183.2 136.2 L 181.8 152.6 L 180.3 140.9 L 178.9 143.6 L 177.5 125.0 L 176.1 98.5 L 174.6 106.5 L 173.2 113.4 L 171.8 130.9 L 170.4 128.2 L 168.9 110.7 L 167.5 123.4 L 166.1 119.7 L 164.7 125.6 L 163.2 143.6 L 161.8 143.6 L 160.4 147.3 L 159.0 120.3 L 157.5 136.2 L 156.1 138.3 L 154.7 150.5 L 153.3 129.3 L 151.8 139.9 L 150.4 149.4 L 149.0 159 L 147.6 131.4 L 146.1 157.4 L 144.7 131.4 L 143.3 139.3 L 141.9 140.4 L 140.4 168.0 L 139.0 168.0 L 137.6 140.4 L 136.2 148.4 L 134.7 175.9 L 133.3 173.3 L 131.9 187.0 L 130.5 172.2 L 129.1 174.9 L 127.7 179.6 L 126.2 180.2 L 124.8 169.6 L 123.4 185.5 L 122.0 181.7 L 120.5 181.7 L 119.1 180.7 L 117.7 181.7 L 116.3 178.6 L 114.8 172.2 L 113.4 162.7 L 112.0 173.8 L 110.6 176.4 L 109.1 183.3 L 107.7 165.3 L 106.3 168.0 L 104.9 180.7 L 103.4 166.4 L 102.0 174.9 L 100.6 162.1 L 99.2 170.1 L 97.7 175.4 L 96.3 182.3 L 94.9 171.1 L 93.5 163.7 L 92.0 169.0 L 90.6 169.0 L 89.2 190.8 L 87.8 204.5 L 86.3 191.8 L 84.9 183.3 L 83.5 189.2 L 82.1 192.3 L 80.7 177.5 L 79.2 182.8 L 77.8 199.8 L 76.4 181.7 L 75.0 188.1 L 73.5 191.3 L 72.1 195.0 L 70.7 190.2 L 69.3 204.0 L 67.8 206.1 L 66.4 204.5 L 65.0 202.9 L 63.6 211.4 L 62.1 223.6 L 60.7 205.1 L 59.3 225.7 L 57.9 208.8 L 56.4 204.0 L 55.0 204.5 L 53.6 215.1 L 52.2 215.1 L 50.7 224.1 L 49.3 226.3 L 47.9 222.0 L 46.5 217.3 L 45.0 197.6 L 43.6 201.9 L 42.2 214.1 L 40.8 201.4 L 39.3 204.5 L 37.9 188.6 L 36.5 187.0 L 35.1 200.8 L 33.6 198.7 L 32.2 184.9 L 30.8 192.9 L 29.4 188.1 L 27.9 189.7 L 26.5 199.2 L 25.1 219.9 L 23.7 191.8 L 22.2 177.5 L 20.8 162.1 L 19.4 171.7 L 18.0 175.9 L 16.5 175.4 L 15.1 176.4 L 13.7 213.0 L 12.3 195.0 L 10.8 231.6 L 9.4 215.7 L 8.0 190.2 L 6.6 204.5 L 5.1 211.4 M 342.8 159 L 344.2 161.1 L 345.6 144.6 L 347.0 153.1 L 348.5 148.9 L 349.9 154.7 L 351.3 151.0 L 352.7 159 L 354.2 162.7 L 355.6 153.1 L 357.0 156.8 L 357.0 149.4 L 355.6 116.6 L 354.2 122.9 L 352.7 139.3 L 351.3 133.5 L 349.9 145.2 L 348.5 130.9 L 347.0 121.3 L 345.6 138.8 L 344.2 124.5 L 342.8 131.9 M 359.9 154.7 L 361.3 164.3 L 362.7 151.5 L 364.1 160.5 L 365.6 156.8 L 367.0 159 L 368.4 168.0 L 369.8 179.6 L 371.3 182.8 L 372.7 166.9 L 374.1 165.3 L 375.5 162.1 L 376.9 176.4 L 378.4 162.7 L 379.8 167.4 L 381.2 161.6 L 382.6 171.1 L 384.1 174.3 L 385.5 159 L 386.9 138.3 L 388.3 169.6 L 389.8 188.6 L 391.2 187.0 L 391.2 175.4 L 389.8 164.8 L 388.3 131.9 L 386.9 127.2 L 385.5 128.2 L 384.1 148.9 L 382.6 153.1 L 381.2 131.4 L 379.8 132.5 L 378.4 133.0 L 376.9 121.3 L 375.5 129.3 L 374.1 144.1 L 372.7 139.9 L 371.3 135.6 L 369.8 128.7 L 368.4 119.2 L 367.0 139.9 L 365.6 137.8 L 364.1 129.3 L 362.7 124.0 L 361.3 142.5 L 359.9 134.0 M 395.5 192.9 L 396.9 196.1 L 398.3 197.1 L 399.7 204.0 L 401.2 209.3 L 402.6 194.5 L 404.0 193.9 L 405.4 208.2 L 406.9 225.2 L 408.3 209.8 L 409.7 210.9 L 411.1 225.2 L 412.6 228.4 L 414.0 199.8 L 415.4 188.6 L 416.8 210.9 L 418.3 218.3 L 419.7 197.1 L 421.1 216.2 L 422.5 206.7 L 424.0 205.1 L 425.4 196.6 L 426.8 187.0 L 428.2 194.5 L 429.7 212 L 431.2 212 L 432.6 217.8 L 434.0 218.8 L 435.4 210.4 L 436.9 215.7 L 438.3 188.1 L 439.7 212 L 441.1 212 L 442.6 212 L 444.0 223.6 L 445.4 225.7 L 446.8 221.0 L 448.2 212 L 449.7 222.0 L 451.1 225.7 L 452.5 225.7 L 453.9 235.3 L 455.4 239.5 L 455.4 210.9 L 453.9 221.0 L 452.5 205.6 L 451.1 213.0 L 449.7 207.7 L 448.2 184.4 L 446.8 157.4 L 445.4 202.9 L 444.0 184.4 L 442.6 176.4 L 441.1 212 L 439.7 188.6 L 438.3 173.3 L 436.9 186.0 L 435.4 189.2 L 434.0 188.1 L 432.6 183.3 L 431.2 201.4 L 429.7 174.3 L 428.2 154.7 L 426.8 164.3 L 425.4 151.5 L 424.0 189.7 L 422.5 160.5 L 421.1 173.8 L 419.7 178.0 L 418.3 173.8 L 416.8 170.6 L 415.4 154.7 L 414.0 166.9 L 412.6 183.3 L 411.1 183.9 L 409.7 161.1 L 408.3 166.9 L 406.9 179.1 L 405.4 176.4 L 404.0 183.9 L 402.6 163.7 L 401.2 181.2 L 399.7 172.2 L 398.3 164.3 L 396.9 175.9 L 395.5 192.9 M 458.2 205.1 L 459.6 212.5 L 461.1 202.9 L 462.5 188.1 L 463.9 186.5 L 465.3 186.0 L 466.8 199.2 L 468.2 199.2 L 469.6 201.9 L 471.0 196.6 L 472.5 196.6 L 473.9 191.3 L 475.3 207.7 L 476.7 212 L 478.2 204.0 L 479.6 232.1 L 481.0 229.4 L 482.4 226.8 L 483.9 226.3 L 485.3 215.7 L 486.7 210.4 L 488.1 196.6 L 489.6 212 L 491.0 208.8 L 492.4 211.4 L 493.8 197.1 L 495.3 218.3 L 496.7 233.2 L 498.1 215.7 L 499.5 209.3 L 501.0 217.3 L 502.4 253.3 L 503.8 275.0 L 505.2 283.5 L 506.7 253.3 L 508.1 271.3 L 509.5 281.4 L 510.9 281.9 L 512.4 269.7 L 513.8 256.5 L 515.2 244.3 L 516.6 225.7 L 518.1 227.3 L 519.5 226.3 L 520.9 269.2 L 522.3 270.8 L 523.8 276.6 L 523.8 246.4 L 522.3 254.4 L 520.9 218.8 L 519.5 208.2 L 518.1 208.2 L 516.6 218.3 L 515.2 218.3 L 513.8 219.9 L 512.4 252.8 L 510.9 239.5 L 509.5 250.1 L 508.1 215.1 L 506.7 221.0 L 505.2 253.8 L 503.8 253.8 L 502.4 217.3 L 501.0 204.0 L 499.5 203.5 L 498.1 208.2 L 496.7 214.1 L 495.3 200.3 L 493.8 191.3 L 492.4 184.9 L 491.0 197.1 L 489.6 175.9 L 488.1 160.0 L 486.7 179.6 L 485.3 189.7 L 483.9 191.8 L 482.4 215.7 L 481.0 202.9 L 479.6 204.0 L 478.2 193.9 L 476.7 186.5 L 475.3 181.7 L 473.9 171.7 L 472.5 186.0 L 471.0 181.7 L 469.6 184.4 L 468.2 187.6 L 466.8 166.4 L 465.3 156.8 L 463.9 180.7 L 462.5 178.6 L 461.1 180.7 L 459.6 191.3 L 458.2 164.8" stroke-linejoin="round" visibility="visible" stroke="rgb(192,192,192)" stroke-opacity="0.0" stroke-width="1"  class=" highcharts-tracker" style=""></path></g><g class="highcharts-markers highcharts-tracker" visibility="visible"  transform="translate(45,46) scale(1 1)" clip-path="url(#highcharts-2)" style=""></g></g><text x="292" text-anchor="middle" class="highcharts-title"  style="color:#333333;font-size:18px;fill:#333333;width:520px;" y="24"><tspan>Temperature variation by day</tspan></text><g class="highcharts-axis-labels highcharts-xaxis-labels" ><text x="50.1" style="color:#606060;cursor:default;font-size:11px;fill:#606060;width:84px;text-overflow:clip;" text-anchor="middle" transform="translate(0,0)" y="383" opacity="1"><tspan>Jan '09</tspan></text><text x="134.1" style="color:#606060;cursor:default;font-size:11px;fill:#606060;width:84px;text-overflow:clip;" text-anchor="middle" transform="translate(0,0)" y="383" opacity="1"><tspan>Mar '09</tspan></text><text x="221.1" style="color:#606060;cursor:default;font-size:11px;fill:#606060;width:84px;text-overflow:clip;" text-anchor="middle" transform="translate(0,0)" y="383" opacity="1"><tspan>May '09</tspan></text><text x="308.0" style="color:#606060;cursor:default;font-size:11px;fill:#606060;width:84px;text-overflow:clip;" text-anchor="middle" transform="translate(0,0)" y="383" opacity="1"><tspan>Jul '09</tspan></text><text x="396.3" style="color:#606060;cursor:default;font-size:11px;fill:#606060;width:84px;text-overflow:clip;" text-anchor="middle" transform="translate(0,0)" y="383" opacity="1"><tspan>Sep '09</tspan></text><text x="483.2" style="color:#606060;cursor:default;font-size:11px;fill:#606060;width:84px;text-overflow:clip;" text-anchor="middle" transform="translate(0,0)" y="383" opacity="1"><tspan>Nov '09</tspan></text><text x="556" style="color:#606060;cursor:default;font-size:11px;fill:#606060;width:84px;text-overflow:clip;" text-anchor="middle" transform="translate(0,0)" y="383" opacity="1"><tspan>Jan '10</tspan></text></g><g class="highcharts-axis-labels highcharts-yaxis-labels" ><text x="30" style="color:#606060;cursor:default;font-size:11px;fill:#606060;width:183px;text-overflow:clip;" text-anchor="end" transform="translate(0,0)" y="369" opacity="1">-20</text><text x="30" style="color:#606060;cursor:default;font-size:11px;fill:#606060;width:183px;text-overflow:clip;" text-anchor="end" transform="translate(0,0)" y="316" opacity="1">-10</text><text x="30" style="color:#606060;cursor:default;font-size:11px;fill:#606060;width:183px;text-overflow:clip;" text-anchor="end" transform="translate(0,0)" y="263" opacity="1">0</text><text x="30" style="color:#606060;cursor:default;font-size:11px;fill:#606060;width:183px;text-overflow:clip;" text-anchor="end" transform="translate(0,0)" y="210" opacity="1">10</text><text x="30" style="color:#606060;cursor:default;font-size:11px;fill:#606060;width:183px;text-overflow:clip;" text-anchor="end" transform="translate(0,0)" y="157" opacity="1">20</text><text x="30" style="color:#606060;cursor:default;font-size:11px;fill:#606060;width:183px;text-overflow:clip;" text-anchor="end" transform="translate(0,0)" y="104" opacity="1">30</text><text x="30" style="color:#606060;cursor:default;font-size:11px;fill:#606060;width:183px;text-overflow:clip;" text-anchor="end" transform="translate(0,0)" y="51" opacity="1">40</text></g><g class="highcharts-tooltip"  style="cursor:default;padding:0;white-space:nowrap;" transform="translate(0,-9999)"><path fill="none" d="M 3.5 0.5 L 13.5 0.5 C 16.5 0.5 16.5 0.5 16.5 3.5 L 16.5 13.5 C 16.5 16.5 16.5 16.5 13.5 16.5 L 3.5 16.5 C 0.5 16.5 0.5 16.5 0.5 13.5 L 0.5 3.5 C 0.5 0.5 0.5 0.5 3.5 0.5"  stroke="black" stroke-opacity="0.0" stroke-width="5" transform="translate(1, 1)"></path><path fill="none" d="M 3.5 0.5 L 13.5 0.5 C 16.5 0.5 16.5 0.5 16.5 3.5 L 16.5 13.5 C 16.5 16.5 16.5 16.5 13.5 16.5 L 3.5 16.5 C 0.5 16.5 0.5 16.5 0.5 13.5 L 0.5 3.5 C 0.5 0.5 0.5 0.5 3.5 0.5"  stroke="black" stroke-opacity="0.0" stroke-width="3" transform="translate(1, 1)"></path><path fill="none" d="M 3.5 0.5 L 13.5 0.5 C 16.5 0.5 16.5 0.5 16.5 3.5 L 16.5 13.5 C 16.5 16.5 16.5 16.5 13.5 16.5 L 3.5 16.5 C 0.5 16.5 0.5 16.5 0.5 13.5 L 0.5 3.5 C 0.5 0.5 0.5 0.5 3.5 0.5"  stroke="black" stroke-opacity="0.1" stroke-width="1" transform="translate(1, 1)"></path><path fill="rgb(249, 249, 249)" fill-opacity=" .85" d="M 3.5 0.5 L 13.5 0.5 C 16.5 0.5 16.5 0.5 16.5 3.5 L 16.5 13.5 C 16.5 16.5 16.5 16.5 13.5 16.5 L 3.5 16.5 C 0.5 16.5 0.5 16.5 0.5 13.5 L 0.5 3.5 C 0.5 0.5 0.5 0.5 3.5 0.5"></path><text x="8"  style="font-size:12px;color:#333333;fill:#333333;" y="20"></text></g></svg>