<svg version="1.1" style="font-family: signika, serif; font-size: 12px; background-image: url(http://www.highcharts.com/samples/graphics/sand.png); background-position: initial initial; background-repeat: initial initial;" xmlns="http://www.w3.org/2000/svg" width="584" height="400" viewBox="0 0 584 400" xmlns:xlink="http://www.w3.org/1999/xlink"><style type="text/css"><![CDATA[@import url(http://fonts.googleapis.com/css?family=Signika:700);]]></style><desc>Created with Highcharts 4.1.7</desc><defs><clipPath id="highcharts-1"><rect x="0" y="0" width="508" height="325"></rect></clipPath><clipPath id="highcharts-2"><rect x="-99" y="-41" width="607" height="400"></rect></clipPath><clipPath id="highcharts-3"><rect x="0" y="0" width="508" height="325"></rect></clipPath></defs><path fill="rgb(68, 170, 213)" fill-opacity=" .2" d="M 428.5 41 L 428.5 366 573.5 366 573.5 41"></path><g class="highcharts-grid" ></g><g class="highcharts-grid" ><path fill="none" d="M 66 366.5 L 574 366.5" stroke="#D8D8D8" stroke-width="1"  opacity="1"></path><path fill="none" d="M 66 312.5 L 574 312.5" stroke="#D8D8D8" stroke-width="1"  opacity="1"></path><path fill="none" d="M 66 258.5 L 574 258.5" stroke="#D8D8D8" stroke-width="1"  opacity="1"></path><path fill="none" d="M 66 204.5 L 574 204.5" stroke="#D8D8D8" stroke-width="1"  opacity="1"></path><path fill="none" d="M 66 149.5 L 574 149.5" stroke="#D8D8D8" stroke-width="1"  opacity="1"></path><path fill="none" d="M 66 95.5 L 574 95.5" stroke="#D8D8D8" stroke-width="1"  opacity="1"></path><path fill="none" d="M 66 40.5 L 574 40.5" stroke="#D8D8D8" stroke-width="1"  opacity="1"></path></g><g class="highcharts-axis" ><path fill="none" d="M 138.5 366 L 138.5 376" stroke="#C0D0E0" stroke-width="1" opacity="1"></path><path fill="none" d="M 210.5 366 L 210.5 376" stroke="#C0D0E0" stroke-width="1" opacity="1"></path><path fill="none" d="M 283.5 366 L 283.5 376" stroke="#C0D0E0" stroke-width="1" opacity="1"></path><path fill="none" d="M 355.5 366 L 355.5 376" stroke="#C0D0E0" stroke-width="1" opacity="1"></path><path fill="none" d="M 428.5 366 L 428.5 376" stroke="#C0D0E0" stroke-width="1" opacity="1"></path><path fill="none" d="M 500.5 366 L 500.5 376" stroke="#C0D0E0" stroke-width="1" opacity="1"></path><path fill="none" d="M 574.5 366 L 574.5 376" stroke="#C0D0E0" stroke-width="1" opacity="1"></path><path fill="none" d="M 65.5 366 L 65.5 376" stroke="#C0D0E0" stroke-width="1" opacity="1"></path><path fill="none" d="M 66 366.5 L 574 366.5" stroke="#C0D0E0" stroke-width="1"  visibility="visible"></path></g><g class="highcharts-axis" ><text x="21.7"  text-anchor="middle" transform="translate(0,0) rotate(270 21.7 203.5)" class=" highcharts-yaxis-title" style="color:#707070;fill:#707070;" visibility="visible" y="203.5"><tspan>Fruit units</tspan></text></g><g class="highcharts-series-group" ><g class="highcharts-series" visibility="visible"  transform="translate(66,41) scale(1 1)" clip-path="url(#highcharts-3)"><path fill="rgb(244,91,91)" fill-opacity="0.5" d="M 36.2 260 C 36.2 260 79.8 238.3 108.8 238.3 C 137.8 238.3 152.4 260 181.4 260 C 210.4 260 224.9 216.6 254 216.6 C 283.0 216.6 297.5 238.3 326.5 238.3 C 355.6 238.3 370.1 143 399.1 108.3 C 428.1 73.6 471.7 65 471.7 65 L 471.7 325 L 36.2 325" ></path><path fill="none" d="M 36.2 260 C 36.2 260 79.8 238.3 108.8 238.3 C 137.8 238.3 152.4 260 181.4 260 C 210.4 260 224.9 216.6 254 216.6 C 283.0 216.6 297.5 238.3 326.5 238.3 C 355.6 238.3 370.1 143 399.1 108.3 C 428.1 73.6 471.7 65 471.7 65" stroke="black" stroke-width="5"  stroke-linejoin="round" stroke-linecap="round"  stroke-opacity="0.0" transform="translate(1, 1)"></path><path fill="none" d="M 36.2 260 C 36.2 260 79.8 238.3 108.8 238.3 C 137.8 238.3 152.4 260 181.4 260 C 210.4 260 224.9 216.6 254 216.6 C 283.0 216.6 297.5 238.3 326.5 238.3 C 355.6 238.3 370.1 143 399.1 108.3 C 428.1 73.6 471.7 65 471.7 65" stroke="black" stroke-width="3"  stroke-linejoin="round" stroke-linecap="round"  stroke-opacity="0.0" transform="translate(1, 1)"></path><path fill="none" d="M 36.2 260 C 36.2 260 79.8 238.3 108.8 238.3 C 137.8 238.3 152.4 260 181.4 260 C 210.4 260 224.9 216.6 254 216.6 C 283.0 216.6 297.5 238.3 326.5 238.3 C 355.6 238.3 370.1 143 399.1 108.3 C 428.1 73.6 471.7 65 471.7 65" stroke="black" stroke-width="1"  stroke-linejoin="round" stroke-linecap="round"  stroke-opacity="0.1" transform="translate(1, 1)"></path><path fill="none" d="M 36.2 260 C 36.2 260 79.8 238.3 108.8 238.3 C 137.8 238.3 152.4 260 181.4 260 C 210.4 260 224.9 216.6 254 216.6 C 283.0 216.6 297.5 238.3 326.5 238.3 C 355.6 238.3 370.1 143 399.1 108.3 C 428.1 73.6 471.7 65 471.7 65" stroke="#f45b5b" stroke-width="2"  stroke-linejoin="round" stroke-linecap="round"></path><path fill="none" d="M 26.2 260 L 36.2 260 C 36.2 260 79.8 238.3 108.8 238.3 C 137.8 238.3 152.4 260 181.4 260 C 210.4 260 224.9 216.6 254 216.6 C 283.0 216.6 297.5 238.3 326.5 238.3 C 355.6 238.3 370.1 143 399.1 108.3 C 428.1 73.6 471.7 65 471.7 65 L 481.7 65" stroke-linejoin="round" visibility="visible" stroke="rgb(192,192,192)" stroke-opacity="0.0" stroke-width="22"  class=" highcharts-tracker" style=""></path></g><g class="highcharts-markers highcharts-tracker" visibility="visible"  transform="translate(66,41) scale(1 1)" clip-path="url(#highcharts-2)" style=""><path fill="#f45b5b" d="M 471 61 C 476.3 61 476.3 69 471 69 C 465.6 69 465.6 61 471 61 Z"></path><path fill="#f45b5b" d="M 399 104.3 C 404.3 104.3 404.3 112.3 399 112.3 C 393.6 112.3 393.6 104.3 399 104.3 Z"></path><path fill="#f45b5b" d="M 326 234.3 C 331.3 234.3 331.3 242.3 326 242.3 C 320.6 242.3 320.6 234.3 326 234.3 Z"></path><path fill="#f45b5b" d="M 254 212.6 C 259.3 212.6 259.3 220.6 254 220.6 C 248.6 220.6 248.6 212.6 254 212.6 Z"></path><path fill="#f45b5b" d="M 181 256 C 186.3 256 186.3 264 181 264 C 175.6 264 175.6 256 181 256 Z"></path><path fill="#f45b5b" d="M 108 234.3 C 113.3 234.3 113.3 242.3 108 242.3 C 102.6 242.3 102.6 234.3 108 234.3 Z"></path><path fill="#f45b5b" d="M 36 256 C 41.3 256 41.3 264 36 264 C 30.6 264 30.6 256 36 256 Z"></path></g><g class="highcharts-series" visibility="visible"  transform="translate(66,41) scale(1 1)" clip-path="url(#highcharts-3)"><path fill="rgb(128,133,233)" fill-opacity="0.5" d="M 36.2 303.3 C 36.2 303.3 79.8 273 108.8 260 C 137.8 247 152.4 238.3 181.4 238.3 C 210.4 238.3 224.9 260 254 260 C 283.0 260 297.5 260 326.5 260 C 355.6 260 370.1 216.6 399.1 216.6 C 428.1 216.6 471.7 238.3 471.7 238.3 L 471.7 325 L 36.2 325" ></path><path fill="none" d="M 36.2 303.3 C 36.2 303.3 79.8 273 108.8 260 C 137.8 247 152.4 238.3 181.4 238.3 C 210.4 238.3 224.9 260 254 260 C 283.0 260 297.5 260 326.5 260 C 355.6 260 370.1 216.6 399.1 216.6 C 428.1 216.6 471.7 238.3 471.7 238.3" stroke="black" stroke-width="5"  stroke-linejoin="round" stroke-linecap="round"  stroke-opacity="0.0" transform="translate(1, 1)"></path><path fill="none" d="M 36.2 303.3 C 36.2 303.3 79.8 273 108.8 260 C 137.8 247 152.4 238.3 181.4 238.3 C 210.4 238.3 224.9 260 254 260 C 283.0 260 297.5 260 326.5 260 C 355.6 260 370.1 216.6 399.1 216.6 C 428.1 216.6 471.7 238.3 471.7 238.3" stroke="black" stroke-width="3"  stroke-linejoin="round" stroke-linecap="round"  stroke-opacity="0.0" transform="translate(1, 1)"></path><path fill="none" d="M 36.2 303.3 C 36.2 303.3 79.8 273 108.8 260 C 137.8 247 152.4 238.3 181.4 238.3 C 210.4 238.3 224.9 260 254 260 C 283.0 260 297.5 260 326.5 260 C 355.6 260 370.1 216.6 399.1 216.6 C 428.1 216.6 471.7 238.3 471.7 238.3" stroke="black" stroke-width="1"  stroke-linejoin="round" stroke-linecap="round"  stroke-opacity="0.1" transform="translate(1, 1)"></path><path fill="none" d="M 36.2 303.3 C 36.2 303.3 79.8 273 108.8 260 C 137.8 247 152.4 238.3 181.4 238.3 C 210.4 238.3 224.9 260 254 260 C 283.0 260 297.5 260 326.5 260 C 355.6 260 370.1 216.6 399.1 216.6 C 428.1 216.6 471.7 238.3 471.7 238.3" stroke="#8085e9" stroke-width="2"  stroke-linejoin="round" stroke-linecap="round"></path><path fill="none" d="M 26.2 303.3 L 36.2 303.3 C 36.2 303.3 79.8 273 108.8 260 C 137.8 247 152.4 238.3 181.4 238.3 C 210.4 238.3 224.9 260 254 260 C 283.0 260 297.5 260 326.5 260 C 355.6 260 370.1 216.6 399.1 216.6 C 428.1 216.6 471.7 238.3 471.7 238.3 L 481.7 238.3" stroke-linejoin="round" visibility="visible" stroke="rgb(192,192,192)" stroke-opacity="0.0" stroke-width="22"  class=" highcharts-tracker" style=""></path></g><g class="highcharts-markers highcharts-tracker" visibility="visible"  transform="translate(66,41) scale(1 1)" clip-path="url(#highcharts-2)" style=""><path fill="#8085e9" d="M 471 234.3 L 475 238.3 471 242.3 467 238.3 Z"></path><path fill="#8085e9" d="M 399 212.6 L 403 216.6 399 220.6 395 216.6 Z"></path><path fill="#8085e9" d="M 326 256 L 330 260 326 264 322 260 Z"></path><path fill="#8085e9" d="M 254 256 L 258 260 254 264 250 260 Z"></path><path fill="#8085e9" d="M 181 234.3 L 185 238.3 181 242.3 177 238.3 Z"></path><path fill="#8085e9" d="M 108 256 L 112 260 108 264 104 260 Z"></path><path fill="#8085e9" d="M 36 299.3 L 40 303.3 36 307.3 32 303.3 Z"></path></g></g><text x="292" text-anchor="middle" class="highcharts-title"  style="color:black;font-size:16px;font-weight:bold;fill:black;width:520px;" y="22"><tspan>Average fruit consumption during one week</tspan></text><g class="highcharts-legend"  transform="translate(160,110)"><rect x="0.5" y="0.5" width="63" height="36" strokeWidth="1" stroke="#909090" stroke-width="1" fill="#FFFFFF" visibility="visible"></rect><g ><g><g class="highcharts-legend-item"  transform="translate(8,3)"><text x="21" style="color:#333333;font-size:13px;font-weight:bold;cursor:pointer;fill:#333333;" text-anchor="start"  y="16">John</text><rect x="0" y="4" width="16" height="13"  fill="#f45b5b"></rect></g><g class="highcharts-legend-item"  transform="translate(8,16)"><text x="21" y="16" style="color:#333333;font-size:13px;font-weight:bold;cursor:pointer;fill:#333333;" text-anchor="start" >Jane</text><rect x="0" y="4" width="16" height="13"  fill="#8085e9"></rect></g></g></g></g><g class="highcharts-axis-labels highcharts-xaxis-labels" ><text x="102.2" style="color:#6e6e70;cursor:default;font-size:11px;fill:#6e6e70;width:72.5;text-overflow:ellipsis;" text-anchor="middle" transform="translate(0,0)" y="385" opacity="1"><tspan>Monday</tspan></text><text x="174.8" style="color:#6e6e70;cursor:default;font-size:11px;fill:#6e6e70;width:72.5;text-overflow:ellipsis;" text-anchor="middle" transform="translate(0,0)" y="385" opacity="1"><tspan>Tuesday</tspan></text><text x="247.4" style="color:#6e6e70;cursor:default;font-size:11px;fill:#6e6e70;width:72.5;text-overflow:ellipsis;" text-anchor="middle" transform="translate(0,0)" y="385" opacity="1"><tspan>Wednesday</tspan></text><text x="320" style="color:#6e6e70;cursor:default;font-size:11px;fill:#6e6e70;width:72.5;text-overflow:ellipsis;" text-anchor="middle" transform="translate(0,0)" y="385" opacity="1"><tspan>Thursday</tspan></text><text x="392.5" style="color:#6e6e70;cursor:default;font-size:11px;fill:#6e6e70;width:72.5;text-overflow:ellipsis;" text-anchor="middle" transform="translate(0,0)" y="385" opacity="1"><tspan>Friday</tspan></text><text x="465.1" style="color:#6e6e70;cursor:default;font-size:11px;fill:#6e6e70;width:72.5;text-overflow:ellipsis;" text-anchor="middle" transform="translate(0,0)" y="385" opacity="1"><tspan>Saturday</tspan></text><text x="537.7" style="color:#6e6e70;cursor:default;font-size:11px;fill:#6e6e70;width:72.5;text-overflow:ellipsis;" text-anchor="middle" transform="translate(0,0)" y="385" opacity="1"><tspan>Sunday</tspan></text></g><g class="highcharts-axis-labels highcharts-yaxis-labels" ><text x="51" style="color:#6e6e70;cursor:default;font-size:11px;fill:#6e6e70;width:183px;text-overflow:clip;" text-anchor="end" transform="translate(0,0)" y="372" opacity="1">0</text><text x="51" style="color:#6e6e70;cursor:default;font-size:11px;fill:#6e6e70;width:183px;text-overflow:clip;" text-anchor="end" transform="translate(0,0)" y="317" opacity="1">2.5</text><text x="51" style="color:#6e6e70;cursor:default;font-size:11px;fill:#6e6e70;width:183px;text-overflow:clip;" text-anchor="end" transform="translate(0,0)" y="263" opacity="1">5</text><text x="51" style="color:#6e6e70;cursor:default;font-size:11px;fill:#6e6e70;width:183px;text-overflow:clip;" text-anchor="end" transform="translate(0,0)" y="209" opacity="1">7.5</text><text x="51" style="color:#6e6e70;cursor:default;font-size:11px;fill:#6e6e70;width:183px;text-overflow:clip;" text-anchor="end" transform="translate(0,0)" y="155" opacity="1">10</text><text x="51" style="color:#6e6e70;cursor:default;font-size:11px;fill:#6e6e70;width:183px;text-overflow:clip;" text-anchor="end" transform="translate(0,0)" y="101" opacity="1">12.5</text><text x="51" style="color:#6e6e70;cursor:default;font-size:11px;fill:#6e6e70;width:183px;text-overflow:clip;" text-anchor="end" transform="translate(0,0)" y="47" opacity="1">15</text></g><g class="highcharts-tooltip"  style="cursor:default;padding:0;white-space:nowrap;" transform="translate(0,-9999)"><path fill="none" d="M 3 0 L 13 0 C 16 0 16 0 16 3 L 16 13 C 16 16 16 16 13 16 L 3 16 C 0 16 0 16 0 13 L 0 3 C 0 0 0 0 3 0"  stroke="black" stroke-opacity="0.0" stroke-width="5" transform="translate(1, 1)"></path><path fill="none" d="M 3 0 L 13 0 C 16 0 16 0 16 3 L 16 13 C 16 16 16 16 13 16 L 3 16 C 0 16 0 16 0 13 L 0 3 C 0 0 0 0 3 0"  stroke="black" stroke-opacity="0.0" stroke-width="3" transform="translate(1, 1)"></path><path fill="none" d="M 3 0 L 13 0 C 16 0 16 0 16 3 L 16 13 C 16 16 16 16 13 16 L 3 16 C 0 16 0 16 0 13 L 0 3 C 0 0 0 0 3 0"  stroke="black" stroke-opacity="0.1" stroke-width="1" transform="translate(1, 1)"></path><path fill="rgb(249, 249, 249)" fill-opacity=" .85" d="M 3 0 L 13 0 C 16 0 16 0 16 3 L 16 13 C 16 16 16 16 13 16 L 3 16 C 0 16 0 16 0 13 L 0 3 C 0 0 0 0 3 0"></path><text x="8"  style="font-size:12px;color:#333333;fill:#333333;" y="20"></text></g></svg>