<svg version="1.1" style="font-family:&quot;lucida grande&quot;, &quot;lucida sans unicode&quot;, arial, helvetica, sans-serif;font-size:12px;" xmlns="http://www.w3.org/2000/svg" width="584" height="400" viewBox="0 0 584 400"><desc>Created with Highcharts 4.1.6</desc><defs><clipPath id="highcharts-1"><rect x="0" y="0" width="503" height="244"></rect></clipPath><clipPath id="highcharts-2"><rect x="-99" y="-82" width="602" height="400"></rect></clipPath><clipPath id="highcharts-3"><rect x="0" y="0" width="503" height="244"></rect></clipPath></defs><rect x="0" y="0" width="584" height="400" strokeWidth="0" fill="#FFFFFF" class=" highcharts-background" stroke="transparent"></rect><g class="highcharts-grid" ></g><g class="highcharts-grid" ><path fill="none" d="M 71 326.5 L 574 326.5" stroke="#D8D8D8" stroke-width="1"  opacity="1"></path><path fill="none" d="M 71 265.5 L 574 265.5" stroke="#D8D8D8" stroke-width="1"  opacity="1"></path><path fill="none" d="M 71 204.5 L 574 204.5" stroke="#D8D8D8" stroke-width="1"  opacity="1"></path><path fill="none" d="M 71 143.5 L 574 143.5" stroke="#D8D8D8" stroke-width="1"  opacity="1"></path><path fill="none" d="M 71 81.5 L 574 81.5" stroke="#D8D8D8" stroke-width="1"  opacity="1"></path></g><g class="highcharts-axis" ><path fill="none" d="M 106.5 326 L 106.5 336" stroke="#C0D0E0" stroke-width="1" opacity="1"></path><path fill="none" d="M 178.5 326 L 178.5 336" stroke="#C0D0E0" stroke-width="1" opacity="1"></path><path fill="none" d="M 250.5 326 L 250.5 336" stroke="#C0D0E0" stroke-width="1" opacity="1"></path><path fill="none" d="M 322.5 326 L 322.5 336" stroke="#C0D0E0" stroke-width="1" opacity="1"></path><path fill="none" d="M 393.5 326 L 393.5 336" stroke="#C0D0E0" stroke-width="1" opacity="1"></path><path fill="none" d="M 465.5 326 L 465.5 336" stroke="#C0D0E0" stroke-width="1" opacity="1"></path><path fill="none" d="M 537.5 326 L 537.5 336" stroke="#C0D0E0" stroke-width="1" opacity="1"></path><path fill="none" d="M 71 326.5 L 574 326.5" stroke="#C0D0E0" stroke-width="1"  visibility="visible"></path></g><g class="highcharts-axis" ><text x="25"  text-anchor="middle" transform="translate(0,0) rotate(270 25 204)" class=" highcharts-yaxis-title" style="color:#707070;fill:#707070;" visibility="visible" y="204">Percent</text></g><g class="highcharts-series-group" ><g class="highcharts-series" visibility="visible"  transform="translate(71,82) scale(1 1)" clip-path="url(#highcharts-3)"><path fill="rgb(124,181,236)" fill-opacity="0.7" d="M 35.9 0 L 107.7 0 L 179.6 0 L 251.5 0 L 323.3 0 L 395.2 0 L 467.0 0 467.0 144.2 395.2 148.3 323.3 135.6 251.5 140.0 179.6 157.6 107.7 158.4 35.9 154.8" ></path><path fill="none" d="M 35.9 0 L 107.7 0 L 179.6 0 L 251.5 0 L 323.3 0 L 395.2 0 L 467.0 0" stroke="#ffffff" stroke-width="1"  stroke-linejoin="round" stroke-linecap="round"></path><path fill="none" d="M 25.9 0 L 35.9 0 L 107.7 0 L 179.6 0 L 251.5 0 L 323.3 0 L 395.2 0 L 467.0 0 L 477.0 0" stroke-linejoin="round" visibility="visible" stroke="rgb(192,192,192)" stroke-opacity="0.0" stroke-width="21"  class=" highcharts-tracker" style=""></path></g><g class="highcharts-markers highcharts-tracker" visibility="visible"  transform="translate(71,82) scale(1 1)" clip-path="url(#highcharts-2)" style=""><path fill="#7cb5ec" d="M 467 -4 C 472.3 -4 472.3 4 467 4 C 461.6 4 461.6 -4 467 -4 Z" stroke="#ffffff" stroke-width="1"></path><path fill="#7cb5ec" d="M 395 -4 C 400.3 -4 400.3 4 395 4 C 389.6 4 389.6 -4 395 -4 Z" stroke="#ffffff" stroke-width="1"></path><path fill="#7cb5ec" d="M 323 -4 C 328.3 -4 328.3 4 323 4 C 317.6 4 317.6 -4 323 -4 Z" stroke="#ffffff" stroke-width="1"></path><path fill="#7cb5ec" d="M 251 -4 C 256.3 -4 256.3 4 251 4 C 245.6 4 245.6 -4 251 -4 Z" stroke="#ffffff" stroke-width="1"></path><path fill="#7cb5ec" d="M 179 -4 C 184.3 -4 184.3 4 179 4 C 173.6 4 173.6 -4 179 -4 Z" stroke="#ffffff" stroke-width="1"></path><path fill="#7cb5ec" d="M 107 -4 C 112.3 -4 112.3 4 107 4 C 101.6 4 101.6 -4 107 -4 Z" stroke="#ffffff" stroke-width="1"></path><path fill="#7cb5ec" d="M 35 -4 C 40.3 -4 40.3 4 35 4 C 29.6 4 29.6 -4 35 -4 Z" stroke="#ffffff" stroke-width="1"></path></g><g class="highcharts-series" visibility="visible"  transform="translate(71,82) scale(1 1)" clip-path="url(#highcharts-3)"><path fill="rgb(67,67,72)" fill-opacity="0.7" d="M 35.9 154.8 L 107.7 158.4 L 179.6 157.6 L 251.5 140.0 L 323.3 135.6 L 395.2 148.3 L 467.0 144.2 467.0 192.6 395.2 179.6 323.3 157.0 251.5 159.7 179.6 179.2 107.7 185.1 35.9 187.5" ></path><path fill="none" d="M 35.9 154.8 L 107.7 158.4 L 179.6 157.6 L 251.5 140.0 L 323.3 135.6 L 395.2 148.3 L 467.0 144.2" stroke="#ffffff" stroke-width="1"  stroke-linejoin="round" stroke-linecap="round"></path><path fill="none" d="M 25.9 154.8 L 35.9 154.8 L 107.7 158.4 L 179.6 157.6 L 251.5 140.0 L 323.3 135.6 L 395.2 148.3 L 467.0 144.2 L 477.0 144.2" stroke-linejoin="round" visibility="visible" stroke="rgb(192,192,192)" stroke-opacity="0.0" stroke-width="21"  class=" highcharts-tracker" style=""></path></g><g class="highcharts-markers highcharts-tracker" visibility="visible"  transform="translate(71,82) scale(1 1)" clip-path="url(#highcharts-2)" style=""><path fill="#434348" d="M 467 140.2 L 471 144.2 467 148.2 463 144.2 Z" stroke="#ffffff" stroke-width="1"></path><path fill="#434348" d="M 395 144.3 L 399 148.3 395 152.3 391 148.3 Z" stroke="#ffffff" stroke-width="1"></path><path fill="#434348" d="M 323 131.6 L 327 135.6 323 139.6 319 135.6 Z" stroke="#ffffff" stroke-width="1"></path><path fill="#434348" d="M 251 136.0 L 255 140.0 251 144.0 247 140.0 Z" stroke="#ffffff" stroke-width="1"></path><path fill="#434348" d="M 179 153.6 L 183 157.6 179 161.6 175 157.6 Z" stroke="#ffffff" stroke-width="1"></path><path fill="#434348" d="M 107 154.4 L 111 158.4 107 162.4 103 158.4 Z" stroke="#ffffff" stroke-width="1"></path><path fill="#434348" d="M 35 150.8 L 39 154.8 35 158.8 31 154.8 Z" stroke="#ffffff" stroke-width="1"></path></g><g class="highcharts-series" visibility="visible"  transform="translate(71,82) scale(1 1)" clip-path="url(#highcharts-3)"><path fill="rgb(144,237,125)" fill-opacity="0.7" d="M 35.9 187.5 L 107.7 185.1 L 179.6 179.2 L 251.5 159.7 L 323.3 157.0 L 395.2 179.6 L 467.0 192.6 467.0 209.8 395.2 209.3 323.3 209.9 251.5 220.0 179.6 233.0 107.7 235.7 35.9 237.8" ></path><path fill="none" d="M 35.9 187.5 L 107.7 185.1 L 179.6 179.2 L 251.5 159.7 L 323.3 157.0 L 395.2 179.6 L 467.0 192.6" stroke="#ffffff" stroke-width="1"  stroke-linejoin="round" stroke-linecap="round"></path><path fill="none" d="M 25.9 187.5 L 35.9 187.5 L 107.7 185.1 L 179.6 179.2 L 251.5 159.7 L 323.3 157.0 L 395.2 179.6 L 467.0 192.6 L 477.0 192.6" stroke-linejoin="round" visibility="visible" stroke="rgb(192,192,192)" stroke-opacity="0.0" stroke-width="21"  class=" highcharts-tracker" style=""></path></g><g class="highcharts-markers highcharts-tracker" visibility="visible"  transform="translate(71,82) scale(1 1)" clip-path="url(#highcharts-2)" style=""><path fill="#90ed7d" d="M 463 188.6 L 471 188.6 471 196.6 463 196.6 Z" stroke="#ffffff" stroke-width="1"></path><path fill="#90ed7d" d="M 391 175.6 L 399 175.6 399 183.6 391 183.6 Z" stroke="#ffffff" stroke-width="1"></path><path fill="#90ed7d" d="M 319 153.0 L 327 153.0 327 161.0 319 161.0 Z" stroke="#ffffff" stroke-width="1"></path><path fill="#90ed7d" d="M 247 155.7 L 255 155.7 255 163.7 247 163.7 Z" stroke="#ffffff" stroke-width="1"></path><path fill="#90ed7d" d="M 175 175.2 L 183 175.2 183 183.2 175 183.2 Z" stroke="#ffffff" stroke-width="1"></path><path fill="#90ed7d" d="M 103 181.1 L 111 181.1 111 189.1 103 189.1 Z" stroke="#ffffff" stroke-width="1"></path><path fill="#90ed7d" d="M 31 183.5 L 39 183.5 39 191.5 31 191.5 Z" stroke="#ffffff" stroke-width="1"></path></g><g class="highcharts-series" visibility="visible"  transform="translate(71,82) scale(1 1)" clip-path="url(#highcharts-3)"><path fill="rgb(247,163,92)" fill-opacity="0.7" d="M 35.9 237.8 L 107.7 235.7 L 179.6 233.0 L 251.5 220.0 L 323.3 209.9 L 395.2 209.3 L 467.0 209.8 467.0 242.7 395.2 242.7 323.3 242.7 251.5 243.1 179.6 243.6 107.7 243.5 35.9 243.3" ></path><path fill="none" d="M 35.9 237.8 L 107.7 235.7 L 179.6 233.0 L 251.5 220.0 L 323.3 209.9 L 395.2 209.3 L 467.0 209.8" stroke="#ffffff" stroke-width="1"  stroke-linejoin="round" stroke-linecap="round"></path><path fill="none" d="M 25.9 237.8 L 35.9 237.8 L 107.7 235.7 L 179.6 233.0 L 251.5 220.0 L 323.3 209.9 L 395.2 209.3 L 467.0 209.8 L 477.0 209.8" stroke-linejoin="round" visibility="visible" stroke="rgb(192,192,192)" stroke-opacity="0.0" stroke-width="21"  class=" highcharts-tracker" style=""></path></g><g class="highcharts-markers highcharts-tracker" visibility="visible"  transform="translate(71,82) scale(1 1)" clip-path="url(#highcharts-2)" style=""><path fill="#f7a35c" d="M 467 205.8 L 471 213.8 463 213.8 Z" stroke="#ffffff" stroke-width="1"></path><path fill="#f7a35c" d="M 395 205.3 L 399 213.3 391 213.3 Z" stroke="#ffffff" stroke-width="1"></path><path fill="#f7a35c" d="M 323 205.9 L 327 213.9 319 213.9 Z" stroke="#ffffff" stroke-width="1"></path><path fill="#f7a35c" d="M 251 216.0 L 255 224.0 247 224.0 Z" stroke="#ffffff" stroke-width="1"></path><path fill="#f7a35c" d="M 179 229.0 L 183 237.0 175 237.0 Z" stroke="#ffffff" stroke-width="1"></path><path fill="#f7a35c" d="M 107 231.7 L 111 239.7 103 239.7 Z" stroke="#ffffff" stroke-width="1"></path><path fill="#f7a35c" d="M 35 233.8 L 39 241.8 31 241.8 Z" stroke="#ffffff" stroke-width="1"></path></g><g class="highcharts-series" visibility="visible"  transform="translate(71,82) scale(1 1)" clip-path="url(#highcharts-3)"><path fill="rgb(128,133,233)" fill-opacity="0.7" d="M 35.9 243.3 L 107.7 243.5 L 179.6 243.6 L 251.5 243.1 L 323.3 242.7 L 395.2 242.7 L 467.0 242.7 467.0 244 395.2 244 323.3 244 251.5 244 179.6 244 107.7 244 35.9 244" ></path><path fill="none" d="M 35.9 243.3 L 107.7 243.5 L 179.6 243.6 L 251.5 243.1 L 323.3 242.7 L 395.2 242.7 L 467.0 242.7" stroke="#ffffff" stroke-width="1"  stroke-linejoin="round" stroke-linecap="round"></path><path fill="none" d="M 25.9 243.3 L 35.9 243.3 L 107.7 243.5 L 179.6 243.6 L 251.5 243.1 L 323.3 242.7 L 395.2 242.7 L 467.0 242.7 L 477.0 242.7" stroke-linejoin="round" visibility="visible" stroke="rgb(192,192,192)" stroke-opacity="0.0" stroke-width="21"  class=" highcharts-tracker" style=""></path></g><g class="highcharts-markers highcharts-tracker" visibility="visible"  transform="translate(71,82) scale(1 1)" clip-path="url(#highcharts-2)" style=""><path fill="#8085e9" d="M 463 238.7 L 471 238.7 467 246.7 Z" stroke="#ffffff" stroke-width="1"></path><path fill="#8085e9" d="M 391 238.7 L 399 238.7 395 246.7 Z" stroke="#ffffff" stroke-width="1"></path><path fill="#8085e9" d="M 319 238.7 L 327 238.7 323 246.7 Z" stroke="#ffffff" stroke-width="1"></path><path fill="#8085e9" d="M 247 239.1 L 255 239.1 251 247.1 Z" stroke="#ffffff" stroke-width="1"></path><path fill="#8085e9" d="M 175 239.6 L 183 239.6 179 247.6 Z" stroke="#ffffff" stroke-width="1"></path><path fill="#8085e9" d="M 103 239.5 L 111 239.5 107 247.5 Z" stroke="#ffffff" stroke-width="1"></path><path fill="#8085e9" d="M 31 239.3 L 39 239.3 35 247.3 Z" stroke="#ffffff" stroke-width="1"></path></g></g><text x="292" text-anchor="middle" class="highcharts-title"  style="color:#333333;font-size:18px;fill:#333333;width:520px;" y="24"><tspan>Historic and Estimated Worldwide Population Distribution</tspan><tspan dy="21" x="292">by Region</tspan><title>Historic and Estimated Worldwide Population Distribution by Region</title></text><text x="292" text-anchor="middle" class="highcharts-subtitle"  style="color:#555555;fill:#555555;width:520px;" y="66"><tspan>Source: Wikipedia.org</tspan></text><g class="highcharts-legend"  transform="translate(89,359)"><g ><g><g class="highcharts-legend-item"  transform="translate(8,3)"><text x="21" style="color:#333333;font-size:12px;font-weight:bold;cursor:pointer;fill:#333333;" text-anchor="start"  y="15">Asia</text><rect x="0" y="4" width="16" height="12"  fill="#7cb5ec"></rect></g><g class="highcharts-legend-item"  transform="translate(76,3)"><text x="21" y="15" style="color:#333333;font-size:12px;font-weight:bold;cursor:pointer;fill:#333333;" text-anchor="start" >Africa</text><rect x="0" y="4" width="16" height="12"  fill="#434348"></rect></g><g class="highcharts-legend-item"  transform="translate(153,3)"><text x="21" y="15" style="color:#333333;font-size:12px;font-weight:bold;cursor:pointer;fill:#333333;" text-anchor="start" >Europe</text><rect x="0" y="4" width="16" height="12"  fill="#90ed7d"></rect></g><g class="highcharts-legend-item"  transform="translate(237,3)"><text x="21" y="15" style="color:#333333;font-size:12px;font-weight:bold;cursor:pointer;fill:#333333;" text-anchor="start" >America</text><rect x="0" y="4" width="16" height="12"  fill="#f7a35c"></rect></g><g class="highcharts-legend-item"  transform="translate(328,3)"><text x="21" y="15" style="color:#333333;font-size:12px;font-weight:bold;cursor:pointer;fill:#333333;" text-anchor="start" >Oceania</text><rect x="0" y="4" width="16" height="12"  fill="#8085e9"></rect></g></g></g></g><g class="highcharts-axis-labels highcharts-xaxis-labels" ><text x="106.9" style="color:#606060;cursor:default;font-size:11px;fill:#606060;width:71.8;text-overflow:ellipsis;" text-anchor="middle" transform="translate(0,0)" y="345" opacity="1"><tspan>1750</tspan></text><text x="178.7" style="color:#606060;cursor:default;font-size:11px;fill:#606060;width:71.8;text-overflow:ellipsis;" text-anchor="middle" transform="translate(0,0)" y="345" opacity="1"><tspan>1800</tspan></text><text x="250.6" style="color:#606060;cursor:default;font-size:11px;fill:#606060;width:71.8;text-overflow:ellipsis;" text-anchor="middle" transform="translate(0,0)" y="345" opacity="1"><tspan>1850</tspan></text><text x="322.5" style="color:#606060;cursor:default;font-size:11px;fill:#606060;width:71.8;text-overflow:ellipsis;" text-anchor="middle" transform="translate(0,0)" y="345" opacity="1"><tspan>1900</tspan></text><text x="394.3" style="color:#606060;cursor:default;font-size:11px;fill:#606060;width:71.8;text-overflow:ellipsis;" text-anchor="middle" transform="translate(0,0)" y="345" opacity="1"><tspan>1950</tspan></text><text x="466.2" style="color:#606060;cursor:default;font-size:11px;fill:#606060;width:71.8;text-overflow:ellipsis;" text-anchor="middle" transform="translate(0,0)" y="345" opacity="1"><tspan>1999</tspan></text><text x="538.0" style="color:#606060;cursor:default;font-size:11px;fill:#606060;width:71.8;text-overflow:ellipsis;" text-anchor="middle" transform="translate(0,0)" y="345" opacity="1"><tspan>2050</tspan></text></g><g class="highcharts-axis-labels highcharts-yaxis-labels" ><text x="56" style="color:#606060;cursor:default;font-size:11px;fill:#606060;width:183px;text-overflow:clip;" text-anchor="end" transform="translate(0,0)" y="331" opacity="1">0</text><text x="56" style="color:#606060;cursor:default;font-size:11px;fill:#606060;width:183px;text-overflow:clip;" text-anchor="end" transform="translate(0,0)" y="270" opacity="1">25</text><text x="56" style="color:#606060;cursor:default;font-size:11px;fill:#606060;width:183px;text-overflow:clip;" text-anchor="end" transform="translate(0,0)" y="209" opacity="1">50</text><text x="56" style="color:#606060;cursor:default;font-size:11px;fill:#606060;width:183px;text-overflow:clip;" text-anchor="end" transform="translate(0,0)" y="148" opacity="1">75</text><text x="56" style="color:#606060;cursor:default;font-size:11px;fill:#606060;width:183px;text-overflow:clip;" text-anchor="end" transform="translate(0,0)" y="87" opacity="1">100</text></g><g class="highcharts-tooltip"  style="cursor:default;padding:0;white-space:nowrap;" transform="translate(0,-9999)"><path fill="none" d="M 3.5 0.5 L 13.5 0.5 C 16.5 0.5 16.5 0.5 16.5 3.5 L 16.5 13.5 C 16.5 16.5 16.5 16.5 13.5 16.5 L 3.5 16.5 C 0.5 16.5 0.5 16.5 0.5 13.5 L 0.5 3.5 C 0.5 0.5 0.5 0.5 3.5 0.5"  stroke="black" stroke-opacity="0.0" stroke-width="5" transform="translate(1, 1)"></path><path fill="none" d="M 3.5 0.5 L 13.5 0.5 C 16.5 0.5 16.5 0.5 16.5 3.5 L 16.5 13.5 C 16.5 16.5 16.5 16.5 13.5 16.5 L 3.5 16.5 C 0.5 16.5 0.5 16.5 0.5 13.5 L 0.5 3.5 C 0.5 0.5 0.5 0.5 3.5 0.5"  stroke="black" stroke-opacity="0.0" stroke-width="3" transform="translate(1, 1)"></path><path fill="none" d="M 3.5 0.5 L 13.5 0.5 C 16.5 0.5 16.5 0.5 16.5 3.5 L 16.5 13.5 C 16.5 16.5 16.5 16.5 13.5 16.5 L 3.5 16.5 C 0.5 16.5 0.5 16.5 0.5 13.5 L 0.5 3.5 C 0.5 0.5 0.5 0.5 3.5 0.5"  stroke="black" stroke-opacity="0.1" stroke-width="1" transform="translate(1, 1)"></path><path fill="rgb(249, 249, 249)" fill-opacity=" .85" d="M 3.5 0.5 L 13.5 0.5 C 16.5 0.5 16.5 0.5 16.5 3.5 L 16.5 13.5 C 16.5 16.5 16.5 16.5 13.5 16.5 L 3.5 16.5 C 0.5 16.5 0.5 16.5 0.5 13.5 L 0.5 3.5 C 0.5 0.5 0.5 0.5 3.5 0.5"></path><text x="8"  style="font-size:12px;color:#333333;fill:#333333;" y="20"></text></g></svg>