<svg version="1.1" style="font-family: signika, serif; font-size: 12px; background-image: url(http://www.highcharts.com/samples/graphics/sand.png); background-position: initial initial; background-repeat: initial initial;" xmlns="http://www.w3.org/2000/svg" width="584" height="400" viewBox="0 0 584 400" xmlns:xlink="http://www.w3.org/1999/xlink"><style type="text/css"><![CDATA[@import url(http://fonts.googleapis.com/css?family=Signika:700);]]></style><desc>Created with Highcharts 4.1.7</desc><defs><clipPath id="highcharts-1"><rect x="0" y="0" width="510" height="277"></rect></clipPath><clipPath id="highcharts-2"><rect x="-99" y="-53" width="609" height="400"></rect></clipPath><clipPath id="highcharts-3"><rect x="0" y="0" width="510" height="277"></rect></clipPath></defs><g class="highcharts-grid" ></g><g class="highcharts-grid" ><path fill="none" d="M 64 330.5 L 574 330.5" stroke="#D8D8D8" stroke-width="1"  opacity="1"></path><path fill="none" d="M 64 275.5 L 574 275.5" stroke="#D8D8D8" stroke-width="1"  opacity="1"></path><path fill="none" d="M 64 219.5 L 574 219.5" stroke="#D8D8D8" stroke-width="1"  opacity="1"></path><path fill="none" d="M 64 164.5 L 574 164.5" stroke="#D8D8D8" stroke-width="1"  opacity="1"></path><path fill="none" d="M 64 108.5 L 574 108.5" stroke="#D8D8D8" stroke-width="1"  opacity="1"></path><path fill="none" d="M 64 52.5 L 574 52.5" stroke="#D8D8D8" stroke-width="1"  opacity="1"></path></g><g class="highcharts-axis" ><path fill="none" d="M 68.5 330 L 68.5 340" stroke="#C0D0E0" stroke-width="1" opacity="1"></path><path fill="none" d="M 144.5 330 L 144.5 340" stroke="#C0D0E0" stroke-width="1" opacity="1"></path><path fill="none" d="M 220.5 330 L 220.5 340" stroke="#C0D0E0" stroke-width="1" opacity="1"></path><path fill="none" d="M 295.5 330 L 295.5 340" stroke="#C0D0E0" stroke-width="1" opacity="1"></path><path fill="none" d="M 371.5 330 L 371.5 340" stroke="#C0D0E0" stroke-width="1" opacity="1"></path><path fill="none" d="M 447.5 330 L 447.5 340" stroke="#C0D0E0" stroke-width="1" opacity="1"></path><path fill="none" d="M 523.5 330 L 523.5 340" stroke="#C0D0E0" stroke-width="1" opacity="1"></path><path fill="none" d="M 64 330.5 L 574 330.5" stroke="#C0D0E0" stroke-width="1"  visibility="visible"></path></g><g class="highcharts-axis" ><text x="22.5"  text-anchor="middle" transform="translate(0,0) rotate(270 22.5 191.5)" class=" highcharts-yaxis-title" style="color:#707070;fill:#707070;" visibility="visible" y="191.5"><tspan>Nuclear weapon states</tspan></text></g><g class="highcharts-series-group" ><g class="highcharts-series" visibility="visible"  transform="translate(64,53) scale(1 1)" clip-path="url(#highcharts-3)"><path fill="rgb(244,91,91)" fill-opacity="0.7" d="M 42.8 276.9 L 50.4 276.9 L 58.0 276.8 L 65.6 276.3 L 73.1 275.6 L 80.7 274.9 L 88.3 273.4 L 95.9 271.4 L 103.4 269.0 L 111.0 265.5 L 118.6 260.0 L 126.2 251.4 L 133.7 241.3 L 141.3 222.5 L 148.9 191.3 L 156.5 163.7 L 164.0 143.3 L 171.6 125.2 L 179.2 113.7 L 186.8 104.9 L 194.3 99.8 L 201.9 99.4 L 209.5 103.9 L 217.1 115.0 L 224.6 125.5 L 232.2 129.2 L 239.8 127.6 L 247.4 122.3 L 255 116.3 L 262.5 116.5 L 270.1 122.8 L 277.7 135.2 L 285.3 134.5 L 292.8 139.4 L 300.4 140.6 L 308.0 142.3 L 315.6 147.0 L 323.1 145.6 L 330.7 143.4 L 338.3 142.0 L 345.9 142.7 L 353.4 141.8 L 361.0 142.1 L 368.6 146.3 L 376.2 153.0 L 383.7 160.6 L 391.3 181.2 L 398.9 195.3 L 406.5 204.5 L 414.0 207.4 L 421.6 209.7 L 429.2 216.0 L 436.8 216.3 L 444.3 216.7 L 451.9 217.0 L 459.5 218.4 L 467.1 218.6 L 474.6 218.9 L 482.2 219.2 L 489.8 219.6 L 497.4 219.9 L 504.9 221.0 L 504.9 277 L 42.8 277" ></path><path fill="none" d="M 42.8 276.9 L 50.4 276.9 L 58.0 276.8 L 65.6 276.3 L 73.1 275.6 L 80.7 274.9 L 88.3 273.4 L 95.9 271.4 L 103.4 269.0 L 111.0 265.5 L 118.6 260.0 L 126.2 251.4 L 133.7 241.3 L 141.3 222.5 L 148.9 191.3 L 156.5 163.7 L 164.0 143.3 L 171.6 125.2 L 179.2 113.7 L 186.8 104.9 L 194.3 99.8 L 201.9 99.4 L 209.5 103.9 L 217.1 115.0 L 224.6 125.5 L 232.2 129.2 L 239.8 127.6 L 247.4 122.3 L 255 116.3 L 262.5 116.5 L 270.1 122.8 L 277.7 135.2 L 285.3 134.5 L 292.8 139.4 L 300.4 140.6 L 308.0 142.3 L 315.6 147.0 L 323.1 145.6 L 330.7 143.4 L 338.3 142.0 L 345.9 142.7 L 353.4 141.8 L 361.0 142.1 L 368.6 146.3 L 376.2 153.0 L 383.7 160.6 L 391.3 181.2 L 398.9 195.3 L 406.5 204.5 L 414.0 207.4 L 421.6 209.7 L 429.2 216.0 L 436.8 216.3 L 444.3 216.7 L 451.9 217.0 L 459.5 218.4 L 467.1 218.6 L 474.6 218.9 L 482.2 219.2 L 489.8 219.6 L 497.4 219.9 L 504.9 221.0" stroke="black" stroke-width="5"  stroke-linejoin="round" stroke-linecap="round"  stroke-opacity="0.0" transform="translate(1, 1)"></path><path fill="none" d="M 42.8 276.9 L 50.4 276.9 L 58.0 276.8 L 65.6 276.3 L 73.1 275.6 L 80.7 274.9 L 88.3 273.4 L 95.9 271.4 L 103.4 269.0 L 111.0 265.5 L 118.6 260.0 L 126.2 251.4 L 133.7 241.3 L 141.3 222.5 L 148.9 191.3 L 156.5 163.7 L 164.0 143.3 L 171.6 125.2 L 179.2 113.7 L 186.8 104.9 L 194.3 99.8 L 201.9 99.4 L 209.5 103.9 L 217.1 115.0 L 224.6 125.5 L 232.2 129.2 L 239.8 127.6 L 247.4 122.3 L 255 116.3 L 262.5 116.5 L 270.1 122.8 L 277.7 135.2 L 285.3 134.5 L 292.8 139.4 L 300.4 140.6 L 308.0 142.3 L 315.6 147.0 L 323.1 145.6 L 330.7 143.4 L 338.3 142.0 L 345.9 142.7 L 353.4 141.8 L 361.0 142.1 L 368.6 146.3 L 376.2 153.0 L 383.7 160.6 L 391.3 181.2 L 398.9 195.3 L 406.5 204.5 L 414.0 207.4 L 421.6 209.7 L 429.2 216.0 L 436.8 216.3 L 444.3 216.7 L 451.9 217.0 L 459.5 218.4 L 467.1 218.6 L 474.6 218.9 L 482.2 219.2 L 489.8 219.6 L 497.4 219.9 L 504.9 221.0" stroke="black" stroke-width="3"  stroke-linejoin="round" stroke-linecap="round"  stroke-opacity="0.0" transform="translate(1, 1)"></path><path fill="none" d="M 42.8 276.9 L 50.4 276.9 L 58.0 276.8 L 65.6 276.3 L 73.1 275.6 L 80.7 274.9 L 88.3 273.4 L 95.9 271.4 L 103.4 269.0 L 111.0 265.5 L 118.6 260.0 L 126.2 251.4 L 133.7 241.3 L 141.3 222.5 L 148.9 191.3 L 156.5 163.7 L 164.0 143.3 L 171.6 125.2 L 179.2 113.7 L 186.8 104.9 L 194.3 99.8 L 201.9 99.4 L 209.5 103.9 L 217.1 115.0 L 224.6 125.5 L 232.2 129.2 L 239.8 127.6 L 247.4 122.3 L 255 116.3 L 262.5 116.5 L 270.1 122.8 L 277.7 135.2 L 285.3 134.5 L 292.8 139.4 L 300.4 140.6 L 308.0 142.3 L 315.6 147.0 L 323.1 145.6 L 330.7 143.4 L 338.3 142.0 L 345.9 142.7 L 353.4 141.8 L 361.0 142.1 L 368.6 146.3 L 376.2 153.0 L 383.7 160.6 L 391.3 181.2 L 398.9 195.3 L 406.5 204.5 L 414.0 207.4 L 421.6 209.7 L 429.2 216.0 L 436.8 216.3 L 444.3 216.7 L 451.9 217.0 L 459.5 218.4 L 467.1 218.6 L 474.6 218.9 L 482.2 219.2 L 489.8 219.6 L 497.4 219.9 L 504.9 221.0" stroke="black" stroke-width="1"  stroke-linejoin="round" stroke-linecap="round"  stroke-opacity="0.1" transform="translate(1, 1)"></path><path fill="none" d="M 42.8 276.9 L 50.4 276.9 L 58.0 276.8 L 65.6 276.3 L 73.1 275.6 L 80.7 274.9 L 88.3 273.4 L 95.9 271.4 L 103.4 269.0 L 111.0 265.5 L 118.6 260.0 L 126.2 251.4 L 133.7 241.3 L 141.3 222.5 L 148.9 191.3 L 156.5 163.7 L 164.0 143.3 L 171.6 125.2 L 179.2 113.7 L 186.8 104.9 L 194.3 99.8 L 201.9 99.4 L 209.5 103.9 L 217.1 115.0 L 224.6 125.5 L 232.2 129.2 L 239.8 127.6 L 247.4 122.3 L 255 116.3 L 262.5 116.5 L 270.1 122.8 L 277.7 135.2 L 285.3 134.5 L 292.8 139.4 L 300.4 140.6 L 308.0 142.3 L 315.6 147.0 L 323.1 145.6 L 330.7 143.4 L 338.3 142.0 L 345.9 142.7 L 353.4 141.8 L 361.0 142.1 L 368.6 146.3 L 376.2 153.0 L 383.7 160.6 L 391.3 181.2 L 398.9 195.3 L 406.5 204.5 L 414.0 207.4 L 421.6 209.7 L 429.2 216.0 L 436.8 216.3 L 444.3 216.7 L 451.9 217.0 L 459.5 218.4 L 467.1 218.6 L 474.6 218.9 L 482.2 219.2 L 489.8 219.6 L 497.4 219.9 L 504.9 221.0" stroke="#f45b5b" stroke-width="2"  stroke-linejoin="round" stroke-linecap="round"></path><path fill="none" d="M 32.8 276.9 L 42.8 276.9 L 50.4 276.9 L 58.0 276.8 L 65.6 276.3 L 73.1 275.6 L 80.7 274.9 L 88.3 273.4 L 95.9 271.4 L 103.4 269.0 L 111.0 265.5 L 118.6 260.0 L 126.2 251.4 L 133.7 241.3 L 141.3 222.5 L 148.9 191.3 L 156.5 163.7 L 164.0 143.3 L 171.6 125.2 L 179.2 113.7 L 186.8 104.9 L 194.3 99.8 L 201.9 99.4 L 209.5 103.9 L 217.1 115.0 L 224.6 125.5 L 232.2 129.2 L 239.8 127.6 L 247.4 122.3 L 255 116.3 L 262.5 116.5 L 270.1 122.8 L 277.7 135.2 L 285.3 134.5 L 292.8 139.4 L 300.4 140.6 L 308.0 142.3 L 315.6 147.0 L 323.1 145.6 L 330.7 143.4 L 338.3 142.0 L 345.9 142.7 L 353.4 141.8 L 361.0 142.1 L 368.6 146.3 L 376.2 153.0 L 383.7 160.6 L 391.3 181.2 L 398.9 195.3 L 406.5 204.5 L 414.0 207.4 L 421.6 209.7 L 429.2 216.0 L 436.8 216.3 L 444.3 216.7 L 451.9 217.0 L 459.5 218.4 L 467.1 218.6 L 474.6 218.9 L 482.2 219.2 L 489.8 219.6 L 497.4 219.9 L 504.9 221.0 L 514.9 221.0" stroke-linejoin="round" visibility="visible" stroke="rgb(192,192,192)" stroke-opacity="0.0" stroke-width="22"  class=" highcharts-tracker" style=""></path></g><g class="highcharts-markers highcharts-tracker" visibility="visible"  transform="translate(64,53) scale(1 1)" clip-path="url(#highcharts-2)" style=""></g><g class="highcharts-series" visibility="visible"  transform="translate(64,53) scale(1 1)" clip-path="url(#highcharts-3)"><path fill="rgb(128,133,233)" fill-opacity="0.7" d="M 80.7 276.9 L 88.3 276.8 L 95.9 276.7 L 103.4 276.3 L 111.0 276.1 L 118.6 275.8 L 126.2 274.6 L 133.7 273.3 L 141.3 272.1 L 148.9 271.1 L 156.5 268.1 L 164.0 263.3 L 171.6 258.5 L 179.2 253.5 L 186.8 248.0 L 194.3 243.0 L 201.9 237.7 L 209.5 230.8 L 217.1 224.9 L 224.6 218.6 L 232.2 212.4 L 239.8 204.4 L 247.4 196.7 L 255 188.8 L 262.5 180.6 L 270.1 171.4 L 277.7 159.5 L 285.3 149.3 L 292.8 136.3 L 300.4 122.2 L 308.0 110.4 L 315.6 99.4 L 323.1 88.9 L 330.7 78.6 L 338.3 69.6 L 345.9 59.8 L 353.4 27.7 L 361.0 38.7 L 368.6 49.8 L 376.2 60.9 L 383.7 72.0 L 391.3 83.1 L 398.9 94.1 L 406.5 105.2 L 414.0 116.3 L 421.6 127.4 L 429.2 138.5 L 436.8 144.0 L 444.3 149.5 L 451.9 155.1 L 459.5 160.6 L 467.1 166.2 L 474.6 171.7 L 482.2 177.2 L 489.8 177.2 L 497.4 182.8 L 504.9 188.3 L 504.9 277 L 80.7 277" ></path><path fill="none" d="M 80.7 276.9 L 88.3 276.8 L 95.9 276.7 L 103.4 276.3 L 111.0 276.1 L 118.6 275.8 L 126.2 274.6 L 133.7 273.3 L 141.3 272.1 L 148.9 271.1 L 156.5 268.1 L 164.0 263.3 L 171.6 258.5 L 179.2 253.5 L 186.8 248.0 L 194.3 243.0 L 201.9 237.7 L 209.5 230.8 L 217.1 224.9 L 224.6 218.6 L 232.2 212.4 L 239.8 204.4 L 247.4 196.7 L 255 188.8 L 262.5 180.6 L 270.1 171.4 L 277.7 159.5 L 285.3 149.3 L 292.8 136.3 L 300.4 122.2 L 308.0 110.4 L 315.6 99.4 L 323.1 88.9 L 330.7 78.6 L 338.3 69.6 L 345.9 59.8 L 353.4 27.7 L 361.0 38.7 L 368.6 49.8 L 376.2 60.9 L 383.7 72.0 L 391.3 83.1 L 398.9 94.1 L 406.5 105.2 L 414.0 116.3 L 421.6 127.4 L 429.2 138.5 L 436.8 144.0 L 444.3 149.5 L 451.9 155.1 L 459.5 160.6 L 467.1 166.2 L 474.6 171.7 L 482.2 177.2 L 489.8 177.2 L 497.4 182.8 L 504.9 188.3" stroke="black" stroke-width="5"  stroke-linejoin="round" stroke-linecap="round"  stroke-opacity="0.0" transform="translate(1, 1)"></path><path fill="none" d="M 80.7 276.9 L 88.3 276.8 L 95.9 276.7 L 103.4 276.3 L 111.0 276.1 L 118.6 275.8 L 126.2 274.6 L 133.7 273.3 L 141.3 272.1 L 148.9 271.1 L 156.5 268.1 L 164.0 263.3 L 171.6 258.5 L 179.2 253.5 L 186.8 248.0 L 194.3 243.0 L 201.9 237.7 L 209.5 230.8 L 217.1 224.9 L 224.6 218.6 L 232.2 212.4 L 239.8 204.4 L 247.4 196.7 L 255 188.8 L 262.5 180.6 L 270.1 171.4 L 277.7 159.5 L 285.3 149.3 L 292.8 136.3 L 300.4 122.2 L 308.0 110.4 L 315.6 99.4 L 323.1 88.9 L 330.7 78.6 L 338.3 69.6 L 345.9 59.8 L 353.4 27.7 L 361.0 38.7 L 368.6 49.8 L 376.2 60.9 L 383.7 72.0 L 391.3 83.1 L 398.9 94.1 L 406.5 105.2 L 414.0 116.3 L 421.6 127.4 L 429.2 138.5 L 436.8 144.0 L 444.3 149.5 L 451.9 155.1 L 459.5 160.6 L 467.1 166.2 L 474.6 171.7 L 482.2 177.2 L 489.8 177.2 L 497.4 182.8 L 504.9 188.3" stroke="black" stroke-width="3"  stroke-linejoin="round" stroke-linecap="round"  stroke-opacity="0.0" transform="translate(1, 1)"></path><path fill="none" d="M 80.7 276.9 L 88.3 276.8 L 95.9 276.7 L 103.4 276.3 L 111.0 276.1 L 118.6 275.8 L 126.2 274.6 L 133.7 273.3 L 141.3 272.1 L 148.9 271.1 L 156.5 268.1 L 164.0 263.3 L 171.6 258.5 L 179.2 253.5 L 186.8 248.0 L 194.3 243.0 L 201.9 237.7 L 209.5 230.8 L 217.1 224.9 L 224.6 218.6 L 232.2 212.4 L 239.8 204.4 L 247.4 196.7 L 255 188.8 L 262.5 180.6 L 270.1 171.4 L 277.7 159.5 L 285.3 149.3 L 292.8 136.3 L 300.4 122.2 L 308.0 110.4 L 315.6 99.4 L 323.1 88.9 L 330.7 78.6 L 338.3 69.6 L 345.9 59.8 L 353.4 27.7 L 361.0 38.7 L 368.6 49.8 L 376.2 60.9 L 383.7 72.0 L 391.3 83.1 L 398.9 94.1 L 406.5 105.2 L 414.0 116.3 L 421.6 127.4 L 429.2 138.5 L 436.8 144.0 L 444.3 149.5 L 451.9 155.1 L 459.5 160.6 L 467.1 166.2 L 474.6 171.7 L 482.2 177.2 L 489.8 177.2 L 497.4 182.8 L 504.9 188.3" stroke="black" stroke-width="1"  stroke-linejoin="round" stroke-linecap="round"  stroke-opacity="0.1" transform="translate(1, 1)"></path><path fill="none" d="M 80.7 276.9 L 88.3 276.8 L 95.9 276.7 L 103.4 276.3 L 111.0 276.1 L 118.6 275.8 L 126.2 274.6 L 133.7 273.3 L 141.3 272.1 L 148.9 271.1 L 156.5 268.1 L 164.0 263.3 L 171.6 258.5 L 179.2 253.5 L 186.8 248.0 L 194.3 243.0 L 201.9 237.7 L 209.5 230.8 L 217.1 224.9 L 224.6 218.6 L 232.2 212.4 L 239.8 204.4 L 247.4 196.7 L 255 188.8 L 262.5 180.6 L 270.1 171.4 L 277.7 159.5 L 285.3 149.3 L 292.8 136.3 L 300.4 122.2 L 308.0 110.4 L 315.6 99.4 L 323.1 88.9 L 330.7 78.6 L 338.3 69.6 L 345.9 59.8 L 353.4 27.7 L 361.0 38.7 L 368.6 49.8 L 376.2 60.9 L 383.7 72.0 L 391.3 83.1 L 398.9 94.1 L 406.5 105.2 L 414.0 116.3 L 421.6 127.4 L 429.2 138.5 L 436.8 144.0 L 444.3 149.5 L 451.9 155.1 L 459.5 160.6 L 467.1 166.2 L 474.6 171.7 L 482.2 177.2 L 489.8 177.2 L 497.4 182.8 L 504.9 188.3" stroke="#8085e9" stroke-width="2"  stroke-linejoin="round" stroke-linecap="round"></path><path fill="none" d="M 70.7 276.9 L 80.7 276.9 L 88.3 276.8 L 95.9 276.7 L 103.4 276.3 L 111.0 276.1 L 118.6 275.8 L 126.2 274.6 L 133.7 273.3 L 141.3 272.1 L 148.9 271.1 L 156.5 268.1 L 164.0 263.3 L 171.6 258.5 L 179.2 253.5 L 186.8 248.0 L 194.3 243.0 L 201.9 237.7 L 209.5 230.8 L 217.1 224.9 L 224.6 218.6 L 232.2 212.4 L 239.8 204.4 L 247.4 196.7 L 255 188.8 L 262.5 180.6 L 270.1 171.4 L 277.7 159.5 L 285.3 149.3 L 292.8 136.3 L 300.4 122.2 L 308.0 110.4 L 315.6 99.4 L 323.1 88.9 L 330.7 78.6 L 338.3 69.6 L 345.9 59.8 L 353.4 27.7 L 361.0 38.7 L 368.6 49.8 L 376.2 60.9 L 383.7 72.0 L 391.3 83.1 L 398.9 94.1 L 406.5 105.2 L 414.0 116.3 L 421.6 127.4 L 429.2 138.5 L 436.8 144.0 L 444.3 149.5 L 451.9 155.1 L 459.5 160.6 L 467.1 166.2 L 474.6 171.7 L 482.2 177.2 L 489.8 177.2 L 497.4 182.8 L 504.9 188.3 L 514.9 188.3" stroke-linejoin="round" visibility="visible" stroke="rgb(192,192,192)" stroke-opacity="0.0" stroke-width="22"  class=" highcharts-tracker" style=""></path></g><g class="highcharts-markers highcharts-tracker" visibility="visible"  transform="translate(64,53) scale(1 1)" clip-path="url(#highcharts-2)" style=""></g></g><text x="292" text-anchor="middle" class="highcharts-title"  style="color:black;font-size:16px;font-weight:bold;fill:black;width:520px;" y="22"><tspan>US and USSR nuclear stockpiles</tspan></text><text x="292" text-anchor="middle" class="highcharts-subtitle"  style="color:black;fill:black;width:520px;" y="40"><tspan>Source: </tspan><tspan onclick="location.href=&quot;http://thebulletin.metapress.com/content/c4120650912x74k7/fulltext.pdf&quot;" dx="0" style="cursor: pointer;">thebulletin.metapress.com</tspan></text><g class="highcharts-legend"  transform="translate(203,361)"><g ><g><g class="highcharts-legend-item"  transform="translate(8,3)"><text x="21" style="color:#333333;font-size:13px;font-weight:bold;cursor:pointer;fill:#333333;" text-anchor="start"  y="16">USA</text><rect x="0" y="4" width="16" height="13"  fill="#f45b5b"></rect></g><g class="highcharts-legend-item"  transform="translate(74.9,3)"><text x="21" y="16" style="color:#333333;font-size:13px;font-weight:bold;cursor:pointer;fill:#333333;" text-anchor="start" >USSR/Russia</text><rect x="0" y="4" width="16" height="13"  fill="#8085e9"></rect></g></g></g></g><g class="highcharts-axis-labels highcharts-xaxis-labels" ><text x="69.0" style="color:#6e6e70;cursor:default;font-size:11px;fill:#6e6e70;width:85;text-overflow:ellipsis;" text-anchor="middle" transform="translate(0,0)" y="349" opacity="1"><tspan>1940</tspan></text><text x="144.7" style="color:#6e6e70;cursor:default;font-size:11px;fill:#6e6e70;width:85;text-overflow:ellipsis;" text-anchor="middle" transform="translate(0,0)" y="349" opacity="1"><tspan>1950</tspan></text><text x="220.5" style="color:#6e6e70;cursor:default;font-size:11px;fill:#6e6e70;width:85;text-overflow:ellipsis;" text-anchor="middle" transform="translate(0,0)" y="349" opacity="1"><tspan>1960</tspan></text><text x="296.2" style="color:#6e6e70;cursor:default;font-size:11px;fill:#6e6e70;width:85;text-overflow:ellipsis;" text-anchor="middle" transform="translate(0,0)" y="349" opacity="1"><tspan>1970</tspan></text><text x="372.0" style="color:#6e6e70;cursor:default;font-size:11px;fill:#6e6e70;width:85;text-overflow:ellipsis;" text-anchor="middle" transform="translate(0,0)" y="349" opacity="1"><tspan>1980</tspan></text><text x="447.7" style="color:#6e6e70;cursor:default;font-size:11px;fill:#6e6e70;width:85;text-overflow:ellipsis;" text-anchor="middle" transform="translate(0,0)" y="349" opacity="1"><tspan>1990</tspan></text><text x="523.5" style="color:#6e6e70;cursor:default;font-size:11px;fill:#6e6e70;width:85;text-overflow:ellipsis;" text-anchor="middle" transform="translate(0,0)" y="349" opacity="1"><tspan>2000</tspan></text></g><g class="highcharts-axis-labels highcharts-yaxis-labels" ><text x="49" style="color:#6e6e70;cursor:default;font-size:11px;fill:#6e6e70;width:183px;text-overflow:clip;" text-anchor="end" transform="translate(0,0)" y="336" opacity="1">0k</text><text x="49" style="color:#6e6e70;cursor:default;font-size:11px;fill:#6e6e70;width:183px;text-overflow:clip;" text-anchor="end" transform="translate(0,0)" y="280" opacity="1">10k</text><text x="49" style="color:#6e6e70;cursor:default;font-size:11px;fill:#6e6e70;width:183px;text-overflow:clip;" text-anchor="end" transform="translate(0,0)" y="225" opacity="1">20k</text><text x="49" style="color:#6e6e70;cursor:default;font-size:11px;fill:#6e6e70;width:183px;text-overflow:clip;" text-anchor="end" transform="translate(0,0)" y="169" opacity="1">30k</text><text x="49" style="color:#6e6e70;cursor:default;font-size:11px;fill:#6e6e70;width:183px;text-overflow:clip;" text-anchor="end" transform="translate(0,0)" y="114" opacity="1">40k</text><text x="49" style="color:#6e6e70;cursor:default;font-size:11px;fill:#6e6e70;width:183px;text-overflow:clip;" text-anchor="end" transform="translate(0,0)" y="59" opacity="1">50k</text></g><g class="highcharts-tooltip"  style="cursor:default;padding:0;white-space:nowrap;" transform="translate(0,-9999)"><path fill="none" d="M 3 0 L 13 0 C 16 0 16 0 16 3 L 16 13 C 16 16 16 16 13 16 L 3 16 C 0 16 0 16 0 13 L 0 3 C 0 0 0 0 3 0"  stroke="black" stroke-opacity="0.0" stroke-width="5" transform="translate(1, 1)"></path><path fill="none" d="M 3 0 L 13 0 C 16 0 16 0 16 3 L 16 13 C 16 16 16 16 13 16 L 3 16 C 0 16 0 16 0 13 L 0 3 C 0 0 0 0 3 0"  stroke="black" stroke-opacity="0.0" stroke-width="3" transform="translate(1, 1)"></path><path fill="none" d="M 3 0 L 13 0 C 16 0 16 0 16 3 L 16 13 C 16 16 16 16 13 16 L 3 16 C 0 16 0 16 0 13 L 0 3 C 0 0 0 0 3 0"  stroke="black" stroke-opacity="0.1" stroke-width="1" transform="translate(1, 1)"></path><path fill="rgb(249, 249, 249)" fill-opacity=" .85" d="M 3 0 L 13 0 C 16 0 16 0 16 3 L 16 13 C 16 16 16 16 13 16 L 3 16 C 0 16 0 16 0 13 L 0 3 C 0 0 0 0 3 0"></path><text x="8"  style="font-size:12px;color:#333333;fill:#333333;" y="20"></text></g></svg>