<svg version="1.1" style="font-family: signika, serif; font-size: 12px; background-image: url(http://www.highcharts.com/samples/graphics/sand.png); background-position: initial initial; background-repeat: initial initial;" xmlns="http://www.w3.org/2000/svg" width="584" height="400" viewBox="0 0 584 400" xmlns:xlink="http://www.w3.org/1999/xlink"><style type="text/css"><![CDATA[@import url(http://fonts.googleapis.com/css?family=Signika:700);]]></style><desc>Created with Highcharts 4.1.7</desc><defs><clipPath id="highcharts-1"><rect x="0" y="0" width="538" height="289"></rect></clipPath><clipPath id="highcharts-2"><rect x="-99" y="-41" width="637" height="400"></rect></clipPath><clipPath id="highcharts-3"><rect x="0" y="0" width="538" height="289"></rect></clipPath></defs><g class="highcharts-grid" ></g><g class="highcharts-grid" ><path fill="none" d="M 36 330.5 L 574 330.5" stroke="#D8D8D8" stroke-width="1"  opacity="1"></path><path fill="none" d="M 36 282.5 L 574 282.5" stroke="#D8D8D8" stroke-width="1"  opacity="1"></path><path fill="none" d="M 36 234.5 L 574 234.5" stroke="#D8D8D8" stroke-width="1"  opacity="1"></path><path fill="none" d="M 36 186.5 L 574 186.5" stroke="#D8D8D8" stroke-width="1"  opacity="1"></path><path fill="none" d="M 36 137.5 L 574 137.5" stroke="#D8D8D8" stroke-width="1"  opacity="1"></path><path fill="none" d="M 36 89.5 L 574 89.5" stroke="#D8D8D8" stroke-width="1"  opacity="1"></path><path fill="none" d="M 36 40.5 L 574 40.5" stroke="#D8D8D8" stroke-width="1"  opacity="1"></path></g><g class="highcharts-axis" ><path fill="none" d="M 128.5 330 L 128.5 340" stroke="#C0D0E0" stroke-width="1" opacity="1"></path><path fill="none" d="M 251.5 330 L 251.5 340" stroke="#C0D0E0" stroke-width="1" opacity="1"></path><path fill="none" d="M 374.5 330 L 374.5 340" stroke="#C0D0E0" stroke-width="1" opacity="1"></path><path fill="none" d="M 497.5 330 L 497.5 340" stroke="#C0D0E0" stroke-width="1" opacity="1"></path><path fill="none" d="M 36 330.5 L 574 330.5" stroke="#C0D0E0" stroke-width="1"  visibility="visible"></path></g><g class="highcharts-axis" ></g><g class="highcharts-series-group" ><g class="highcharts-series" visibility="visible"  transform="translate(36,41) scale(1 1)" clip-path="url(#highcharts-3)"><path fill="rgb(244,91,91)" fill-opacity="0.3" d="M 5.2 199.4 L 22.8 197.4 L 40.4 187.8 L 58.0 176.2 L 75.6 178.2 L 93.1 165.6 L 110.7 207.1 L 128.3 236.0 L 145.9 248.5 L 163.5 225.4 L 181.0 234.0 L 198.6 231.2 L 216.2 225.4 L 233.8 223.4 L 251.4 215.7 L 269 206.1 L 286.5 227.3 L 304.1 210.0 L 321.7 200.3 L 339.3 210.9 L 356.9 219.6 L 374.4 221.5 L 392.0 221.5 L 409.6 214.8 L 427.2 217.7 L 444.8 215.7 L 462.3 222.5 L 479.9 231.2 L 497.5 233.1 L 515.1 223.4 L 532.7 233.1 L 532.7 182.0 L 515.1 158.9 L 497.5 165.6 L 479.9 151.2 L 462.3 142.5 L 444.8 145.4 L 427.2 150.2 L 409.6 160.8 L 392.0 172.4 L 374.4 136.7 L 356.9 187.8 L 339.3 172.4 L 321.7 129.0 L 304.1 96.3 L 286.5 119.4 L 269 148.3 L 251.4 121.3 L 233.8 137.7 L 216.2 108.8 L 198.6 112.7 L 181.0 108.8 L 163.5 127.1 L 145.9 107.8 L 128.3 131.0 L 110.7 98.2 L 93.1 89.5 L 75.6 96.3 L 58.0 41.4 L 40.4 52.0 L 22.8 69.3 L 5.2 70.3" ></path><path fill="none" d="M 5.2 199.4 L 22.8 197.4 L 40.4 187.8 L 58.0 176.2 L 75.6 178.2 L 93.1 165.6 L 110.7 207.1 L 128.3 236.0 L 145.9 248.5 L 163.5 225.4 L 181.0 234.0 L 198.6 231.2 L 216.2 225.4 L 233.8 223.4 L 251.4 215.7 L 269 206.1 L 286.5 227.3 L 304.1 210.0 L 321.7 200.3 L 339.3 210.9 L 356.9 219.6 L 374.4 221.5 L 392.0 221.5 L 409.6 214.8 L 427.2 217.7 L 444.8 215.7 L 462.3 222.5 L 479.9 231.2 L 497.5 233.1 L 515.1 223.4 L 532.7 233.1 M 532.7 182.0 L 515.1 158.9 L 497.5 165.6 L 479.9 151.2 L 462.3 142.5 L 444.8 145.4 L 427.2 150.2 L 409.6 160.8 L 392.0 172.4 L 374.4 136.7 L 356.9 187.8 L 339.3 172.4 L 321.7 129.0 L 304.1 96.3 L 286.5 119.4 L 269 148.3 L 251.4 121.3 L 233.8 137.7 L 216.2 108.8 L 198.6 112.7 L 181.0 108.8 L 163.5 127.1 L 145.9 107.8 L 128.3 131.0 L 110.7 98.2 L 93.1 89.5 L 75.6 96.3 L 58.0 41.4 L 40.4 52.0 L 22.8 69.3 L 5.2 70.3"  stroke-linejoin="round" stroke-linecap="round"  stroke="black" stroke-opacity="0.0" stroke-width="5" transform="translate(1, 1)"></path><path fill="none" d="M 5.2 199.4 L 22.8 197.4 L 40.4 187.8 L 58.0 176.2 L 75.6 178.2 L 93.1 165.6 L 110.7 207.1 L 128.3 236.0 L 145.9 248.5 L 163.5 225.4 L 181.0 234.0 L 198.6 231.2 L 216.2 225.4 L 233.8 223.4 L 251.4 215.7 L 269 206.1 L 286.5 227.3 L 304.1 210.0 L 321.7 200.3 L 339.3 210.9 L 356.9 219.6 L 374.4 221.5 L 392.0 221.5 L 409.6 214.8 L 427.2 217.7 L 444.8 215.7 L 462.3 222.5 L 479.9 231.2 L 497.5 233.1 L 515.1 223.4 L 532.7 233.1 M 532.7 182.0 L 515.1 158.9 L 497.5 165.6 L 479.9 151.2 L 462.3 142.5 L 444.8 145.4 L 427.2 150.2 L 409.6 160.8 L 392.0 172.4 L 374.4 136.7 L 356.9 187.8 L 339.3 172.4 L 321.7 129.0 L 304.1 96.3 L 286.5 119.4 L 269 148.3 L 251.4 121.3 L 233.8 137.7 L 216.2 108.8 L 198.6 112.7 L 181.0 108.8 L 163.5 127.1 L 145.9 107.8 L 128.3 131.0 L 110.7 98.2 L 93.1 89.5 L 75.6 96.3 L 58.0 41.4 L 40.4 52.0 L 22.8 69.3 L 5.2 70.3"  stroke-linejoin="round" stroke-linecap="round"  stroke="black" stroke-opacity="0.0" stroke-width="3" transform="translate(1, 1)"></path><path fill="none" d="M 5.2 199.4 L 22.8 197.4 L 40.4 187.8 L 58.0 176.2 L 75.6 178.2 L 93.1 165.6 L 110.7 207.1 L 128.3 236.0 L 145.9 248.5 L 163.5 225.4 L 181.0 234.0 L 198.6 231.2 L 216.2 225.4 L 233.8 223.4 L 251.4 215.7 L 269 206.1 L 286.5 227.3 L 304.1 210.0 L 321.7 200.3 L 339.3 210.9 L 356.9 219.6 L 374.4 221.5 L 392.0 221.5 L 409.6 214.8 L 427.2 217.7 L 444.8 215.7 L 462.3 222.5 L 479.9 231.2 L 497.5 233.1 L 515.1 223.4 L 532.7 233.1 M 532.7 182.0 L 515.1 158.9 L 497.5 165.6 L 479.9 151.2 L 462.3 142.5 L 444.8 145.4 L 427.2 150.2 L 409.6 160.8 L 392.0 172.4 L 374.4 136.7 L 356.9 187.8 L 339.3 172.4 L 321.7 129.0 L 304.1 96.3 L 286.5 119.4 L 269 148.3 L 251.4 121.3 L 233.8 137.7 L 216.2 108.8 L 198.6 112.7 L 181.0 108.8 L 163.5 127.1 L 145.9 107.8 L 128.3 131.0 L 110.7 98.2 L 93.1 89.5 L 75.6 96.3 L 58.0 41.4 L 40.4 52.0 L 22.8 69.3 L 5.2 70.3"  stroke-linejoin="round" stroke-linecap="round"  stroke="black" stroke-opacity="0.1" stroke-width="1" transform="translate(1, 1)"></path><path fill="none" d="M 5.2 199.4 L 22.8 197.4 L 40.4 187.8 L 58.0 176.2 L 75.6 178.2 L 93.1 165.6 L 110.7 207.1 L 128.3 236.0 L 145.9 248.5 L 163.5 225.4 L 181.0 234.0 L 198.6 231.2 L 216.2 225.4 L 233.8 223.4 L 251.4 215.7 L 269 206.1 L 286.5 227.3 L 304.1 210.0 L 321.7 200.3 L 339.3 210.9 L 356.9 219.6 L 374.4 221.5 L 392.0 221.5 L 409.6 214.8 L 427.2 217.7 L 444.8 215.7 L 462.3 222.5 L 479.9 231.2 L 497.5 233.1 L 515.1 223.4 L 532.7 233.1 M 532.7 182.0 L 515.1 158.9 L 497.5 165.6 L 479.9 151.2 L 462.3 142.5 L 444.8 145.4 L 427.2 150.2 L 409.6 160.8 L 392.0 172.4 L 374.4 136.7 L 356.9 187.8 L 339.3 172.4 L 321.7 129.0 L 304.1 96.3 L 286.5 119.4 L 269 148.3 L 251.4 121.3 L 233.8 137.7 L 216.2 108.8 L 198.6 112.7 L 181.0 108.8 L 163.5 127.1 L 145.9 107.8 L 128.3 131.0 L 110.7 98.2 L 93.1 89.5 L 75.6 96.3 L 58.0 41.4 L 40.4 52.0 L 22.8 69.3 L 5.2 70.3"  stroke-linejoin="round" stroke-linecap="round"></path><path fill="rgb(192,192,192)" fill-opacity="0.0" d="M 5.2 199.4 L 22.8 197.4 L 40.4 187.8 L 58.0 176.2 L 75.6 178.2 L 93.1 165.6 L 110.7 207.1 L 128.3 236.0 L 145.9 248.5 L 163.5 225.4 L 181.0 234.0 L 198.6 231.2 L 216.2 225.4 L 233.8 223.4 L 251.4 215.7 L 269 206.1 L 286.5 227.3 L 304.1 210.0 L 321.7 200.3 L 339.3 210.9 L 356.9 219.6 L 374.4 221.5 L 392.0 221.5 L 409.6 214.8 L 427.2 217.7 L 444.8 215.7 L 462.3 222.5 L 479.9 231.2 L 497.5 233.1 L 515.1 223.4 L 532.7 233.1 L 532.7 182.0 L 515.1 158.9 L 497.5 165.6 L 479.9 151.2 L 462.3 142.5 L 444.8 145.4 L 427.2 150.2 L 409.6 160.8 L 392.0 172.4 L 374.4 136.7 L 356.9 187.8 L 339.3 172.4 L 321.7 129.0 L 304.1 96.3 L 286.5 119.4 L 269 148.3 L 251.4 121.3 L 233.8 137.7 L 216.2 108.8 L 198.6 112.7 L 181.0 108.8 L 163.5 127.1 L 145.9 107.8 L 128.3 131.0 L 110.7 98.2 L 93.1 89.5 L 75.6 96.3 L 58.0 41.4 L 40.4 52.0 L 22.8 69.3 L 5.2 70.3" stroke-linejoin="round" visibility="visible"  class=" highcharts-tracker" style=""></path></g><g class="highcharts-markers highcharts-tracker" visibility="visible"  transform="translate(36,41) scale(1 1)" clip-path="url(#highcharts-2)" style=""></g><g class="highcharts-series" visibility="visible"  transform="translate(36,41) scale(1 1)" clip-path="url(#highcharts-3)"><path fill="none" d="M 5.2 130.0 L 22.8 124.2 L 40.4 115.6 L 58.0 107.8 L 75.6 131.0 L 93.1 131.9 L 110.7 160.8 L 128.3 188.8 L 145.9 179.1 L 163.5 166.6 L 181.0 168.5 L 198.6 167.6 L 216.2 166.6 L 233.8 175.3 L 251.4 166.6 L 269 180.1 L 286.5 165.6 L 304.1 162.8 L 321.7 171.4 L 339.3 198.4 L 356.9 205.1 L 374.4 185.9 L 392.0 196.5 L 409.6 189.7 L 427.2 189.7 L 444.8 184.9 L 462.3 190.7 L 479.9 194.5 L 497.5 198.4 L 515.1 192.6 L 532.7 206.1" stroke="black" stroke-width="5"  stroke-linejoin="round" stroke-linecap="round"  stroke-opacity="0.0" transform="translate(1, 1)"></path><path fill="none" d="M 5.2 130.0 L 22.8 124.2 L 40.4 115.6 L 58.0 107.8 L 75.6 131.0 L 93.1 131.9 L 110.7 160.8 L 128.3 188.8 L 145.9 179.1 L 163.5 166.6 L 181.0 168.5 L 198.6 167.6 L 216.2 166.6 L 233.8 175.3 L 251.4 166.6 L 269 180.1 L 286.5 165.6 L 304.1 162.8 L 321.7 171.4 L 339.3 198.4 L 356.9 205.1 L 374.4 185.9 L 392.0 196.5 L 409.6 189.7 L 427.2 189.7 L 444.8 184.9 L 462.3 190.7 L 479.9 194.5 L 497.5 198.4 L 515.1 192.6 L 532.7 206.1" stroke="black" stroke-width="3"  stroke-linejoin="round" stroke-linecap="round"  stroke-opacity="0.0" transform="translate(1, 1)"></path><path fill="none" d="M 5.2 130.0 L 22.8 124.2 L 40.4 115.6 L 58.0 107.8 L 75.6 131.0 L 93.1 131.9 L 110.7 160.8 L 128.3 188.8 L 145.9 179.1 L 163.5 166.6 L 181.0 168.5 L 198.6 167.6 L 216.2 166.6 L 233.8 175.3 L 251.4 166.6 L 269 180.1 L 286.5 165.6 L 304.1 162.8 L 321.7 171.4 L 339.3 198.4 L 356.9 205.1 L 374.4 185.9 L 392.0 196.5 L 409.6 189.7 L 427.2 189.7 L 444.8 184.9 L 462.3 190.7 L 479.9 194.5 L 497.5 198.4 L 515.1 192.6 L 532.7 206.1" stroke="black" stroke-width="1"  stroke-linejoin="round" stroke-linecap="round"  stroke-opacity="0.1" transform="translate(1, 1)"></path><path fill="none" d="M 5.2 130.0 L 22.8 124.2 L 40.4 115.6 L 58.0 107.8 L 75.6 131.0 L 93.1 131.9 L 110.7 160.8 L 128.3 188.8 L 145.9 179.1 L 163.5 166.6 L 181.0 168.5 L 198.6 167.6 L 216.2 166.6 L 233.8 175.3 L 251.4 166.6 L 269 180.1 L 286.5 165.6 L 304.1 162.8 L 321.7 171.4 L 339.3 198.4 L 356.9 205.1 L 374.4 185.9 L 392.0 196.5 L 409.6 189.7 L 427.2 189.7 L 444.8 184.9 L 462.3 190.7 L 479.9 194.5 L 497.5 198.4 L 515.1 192.6 L 532.7 206.1" stroke="#f45b5b" stroke-width="2"  stroke-linejoin="round" stroke-linecap="round"></path><path fill="none" d="M -4.7 130.0 L 5.2 130.0 L 22.8 124.2 L 40.4 115.6 L 58.0 107.8 L 75.6 131.0 L 93.1 131.9 L 110.7 160.8 L 128.3 188.8 L 145.9 179.1 L 163.5 166.6 L 181.0 168.5 L 198.6 167.6 L 216.2 166.6 L 233.8 175.3 L 251.4 166.6 L 269 180.1 L 286.5 165.6 L 304.1 162.8 L 321.7 171.4 L 339.3 198.4 L 356.9 205.1 L 374.4 185.9 L 392.0 196.5 L 409.6 189.7 L 427.2 189.7 L 444.8 184.9 L 462.3 190.7 L 479.9 194.5 L 497.5 198.4 L 515.1 192.6 L 532.7 206.1 L 542.7 206.1" stroke-linejoin="round" visibility="visible" stroke="rgb(192,192,192)" stroke-opacity="0.0" stroke-width="22"  class=" highcharts-tracker" style=""></path></g><g class="highcharts-markers highcharts-tracker" visibility="visible"  transform="translate(36,41) scale(1 1)" clip-path="url(#highcharts-2)" style=""><path fill="white" d="M 532 202.1 C 537.3 202.1 537.3 210.1 532 210.1 C 526.6 210.1 526.6 202.1 532 202.1 Z" stroke="#f45b5b" stroke-width="2"></path><path fill="white" d="M 515 188.6 C 520.3 188.6 520.3 196.6 515 196.6 C 509.6 196.6 509.6 188.6 515 188.6 Z" stroke="#f45b5b" stroke-width="2"></path><path fill="white" d="M 497 194.4 C 502.3 194.4 502.3 202.4 497 202.4 C 491.6 202.4 491.6 194.4 497 194.4 Z" stroke="#f45b5b" stroke-width="2"></path><path fill="white" d="M 479 190.5 C 484.3 190.5 484.3 198.5 479 198.5 C 473.6 198.5 473.6 190.5 479 190.5 Z" stroke="#f45b5b" stroke-width="2"></path><path fill="white" d="M 462 186.7 C 467.3 186.7 467.3 194.7 462 194.7 C 456.6 194.7 456.6 186.7 462 186.7 Z" stroke="#f45b5b" stroke-width="2"></path><path fill="white" d="M 444 180.9 C 449.3 180.9 449.3 188.9 444 188.9 C 438.6 188.9 438.6 180.9 444 180.9 Z" stroke="#f45b5b" stroke-width="2"></path><path fill="white" d="M 427 185.7 C 432.3 185.7 432.3 193.7 427 193.7 C 421.6 193.7 421.6 185.7 427 185.7 Z" stroke="#f45b5b" stroke-width="2"></path><path fill="white" d="M 409 185.7 C 414.3 185.7 414.3 193.7 409 193.7 C 403.6 193.7 403.6 185.7 409 185.7 Z" stroke="#f45b5b" stroke-width="2"></path><path fill="white" d="M 392 192.5 C 397.3 192.5 397.3 200.5 392 200.5 C 386.6 200.5 386.6 192.5 392 192.5 Z" stroke="#f45b5b" stroke-width="2"></path><path fill="white" d="M 374 181.9 C 379.3 181.9 379.3 189.9 374 189.9 C 368.6 189.9 368.6 181.9 374 181.9 Z" stroke="#f45b5b" stroke-width="2"></path><path fill="white" d="M 356 201.1 C 361.3 201.1 361.3 209.1 356 209.1 C 350.6 209.1 350.6 201.1 356 201.1 Z" stroke="#f45b5b" stroke-width="2"></path><path fill="white" d="M 339 194.4 C 344.3 194.4 344.3 202.4 339 202.4 C 333.6 202.4 333.6 194.4 339 194.4 Z" stroke="#f45b5b" stroke-width="2"></path><path fill="white" d="M 321 167.4 C 326.3 167.4 326.3 175.4 321 175.4 C 315.6 175.4 315.6 167.4 321 167.4 Z" stroke="#f45b5b" stroke-width="2"></path><path fill="white" d="M 304 158.8 C 309.3 158.8 309.3 166.8 304 166.8 C 298.6 166.8 298.6 158.8 304 158.8 Z" stroke="#f45b5b" stroke-width="2"></path><path fill="white" d="M 286 161.6 C 291.3 161.6 291.3 169.6 286 169.6 C 280.6 169.6 280.6 161.6 286 161.6 Z" stroke="#f45b5b" stroke-width="2"></path><path fill="white" d="M 269 176.1 C 274.3 176.1 274.3 184.1 269 184.1 C 263.6 184.1 263.6 176.1 269 176.1 Z" stroke="#f45b5b" stroke-width="2"></path><path fill="white" d="M 251 162.6 C 256.3 162.6 256.3 170.6 251 170.6 C 245.6 170.6 245.6 162.6 251 162.6 Z" stroke="#f45b5b" stroke-width="2"></path><path fill="white" d="M 233 171.3 C 238.3 171.3 238.3 179.3 233 179.3 C 227.6 179.3 227.6 171.3 233 171.3 Z" stroke="#f45b5b" stroke-width="2"></path><path fill="white" d="M 216 162.6 C 221.3 162.6 221.3 170.6 216 170.6 C 210.6 170.6 210.6 162.6 216 162.6 Z" stroke="#f45b5b" stroke-width="2"></path><path fill="white" d="M 198 163.6 C 203.3 163.6 203.3 171.6 198 171.6 C 192.6 171.6 192.6 163.6 198 163.6 Z" stroke="#f45b5b" stroke-width="2"></path><path fill="white" d="M 181 164.5 C 186.3 164.5 186.3 172.5 181 172.5 C 175.6 172.5 175.6 164.5 181 164.5 Z" stroke="#f45b5b" stroke-width="2"></path><path fill="white" d="M 163 162.6 C 168.3 162.6 168.3 170.6 163 170.6 C 157.6 170.6 157.6 162.6 163 162.6 Z" stroke="#f45b5b" stroke-width="2"></path><path fill="white" d="M 145 175.1 C 150.3 175.1 150.3 183.1 145 183.1 C 139.6 183.1 139.6 175.1 145 175.1 Z" stroke="#f45b5b" stroke-width="2"></path><path fill="white" d="M 128 184.8 C 133.3 184.8 133.3 192.8 128 192.8 C 122.6 192.8 122.6 184.8 128 184.8 Z" stroke="#f45b5b" stroke-width="2"></path><path fill="white" d="M 110 156.8 C 115.3 156.8 115.3 164.8 110 164.8 C 104.6 164.8 104.6 156.8 110 156.8 Z" stroke="#f45b5b" stroke-width="2"></path><path fill="white" d="M 93 127.9 C 98.3 127.9 98.3 135.9 93 135.9 C 87.6 135.9 87.6 127.9 93 127.9 Z" stroke="#f45b5b" stroke-width="2"></path><path fill="white" d="M 75 127.0 C 80.3 127.0 80.3 135.0 75 135.0 C 69.6 135.0 69.6 127.0 75 127.0 Z" stroke="#f45b5b" stroke-width="2"></path><path fill="white" d="M 58 103.8 C 63.3 103.8 63.3 111.8 58 111.8 C 52.6 111.8 52.6 103.8 58 103.8 Z" stroke="#f45b5b" stroke-width="2"></path><path fill="white" d="M 40 111.6 C 45.3 111.6 45.3 119.6 40 119.6 C 34.6 119.6 34.6 111.6 40 111.6 Z" stroke="#f45b5b" stroke-width="2"></path><path fill="white" d="M 22 120.2 C 27.3 120.2 27.3 128.2 22 128.2 C 16.6 128.2 16.6 120.2 22 120.2 Z" stroke="#f45b5b" stroke-width="2"></path><path fill="white" d="M 5 126.0 C 10.3 126.0 10.3 134.0 5 134.0 C -0.3 134.0 -0.3 126.0 5 126.0 Z" stroke="#f45b5b" stroke-width="2"></path></g></g><text x="292" text-anchor="middle" class="highcharts-title"  style="color:black;font-size:16px;font-weight:bold;fill:black;width:520px;" y="22"><tspan>July temperatures</tspan></text><g class="highcharts-legend"  transform="translate(237,361)"><g ><g><g class="highcharts-legend-item"  transform="translate(8,3)"><path fill="none" d="M 0 12 L 16 12" stroke="#f45b5b" stroke-width="2"></path><path fill="white" d="M 8 8 C 13.3 8 13.3 16 8 16 C 2.6 16 2.6 8 8 8 Z" stroke="#f45b5b" stroke-width="2"></path><text x="21" style="color:#333333;font-size:13px;font-weight:bold;cursor:pointer;fill:#333333;" text-anchor="start"  y="16">Temperature</text></g></g></g></g><g class="highcharts-axis-labels highcharts-xaxis-labels" ><text x="129.1" style="color:#6e6e70;cursor:default;font-size:11px;fill:#6e6e70;width:178px;text-overflow:clip;" text-anchor="middle" transform="translate(0,0)" y="349" opacity="1"><tspan>6. Jul</tspan></text><text x="252.2" style="color:#6e6e70;cursor:default;font-size:11px;fill:#6e6e70;width:178px;text-overflow:clip;" text-anchor="middle" transform="translate(0,0)" y="349" opacity="1"><tspan>13. Jul</tspan></text><text x="375.3" style="color:#6e6e70;cursor:default;font-size:11px;fill:#6e6e70;width:178px;text-overflow:clip;" text-anchor="middle" transform="translate(0,0)" y="349" opacity="1"><tspan>20. Jul</tspan></text><text x="498.3" style="color:#6e6e70;cursor:default;font-size:11px;fill:#6e6e70;width:178px;text-overflow:clip;" text-anchor="middle" transform="translate(0,0)" y="349" opacity="1"><tspan>27. Jul</tspan></text></g><g class="highcharts-axis-labels highcharts-yaxis-labels" ><text x="21" style="color:#6e6e70;cursor:default;font-size:11px;fill:#6e6e70;width:183px;text-overflow:clip;" text-anchor="end" transform="translate(0,0)" y="336" opacity="1">5</text><text x="21" style="color:#6e6e70;cursor:default;font-size:11px;fill:#6e6e70;width:183px;text-overflow:clip;" text-anchor="end" transform="translate(0,0)" y="287" opacity="1">10</text><text x="21" style="color:#6e6e70;cursor:default;font-size:11px;fill:#6e6e70;width:183px;text-overflow:clip;" text-anchor="end" transform="translate(0,0)" y="239" opacity="1">15</text><text x="21" style="color:#6e6e70;cursor:default;font-size:11px;fill:#6e6e70;width:183px;text-overflow:clip;" text-anchor="end" transform="translate(0,0)" y="191" opacity="1">20</text><text x="21" style="color:#6e6e70;cursor:default;font-size:11px;fill:#6e6e70;width:183px;text-overflow:clip;" text-anchor="end" transform="translate(0,0)" y="143" opacity="1">25</text><text x="21" style="color:#6e6e70;cursor:default;font-size:11px;fill:#6e6e70;width:183px;text-overflow:clip;" text-anchor="end" transform="translate(0,0)" y="95" opacity="1">30</text><text x="21" style="color:#6e6e70;cursor:default;font-size:11px;fill:#6e6e70;width:183px;text-overflow:clip;" text-anchor="end" transform="translate(0,0)" y="47" opacity="1">35</text></g><g class="highcharts-tooltip"  style="cursor:default;padding:0;white-space:nowrap;" transform="translate(0,-9999)"><path fill="none" d="M 3 0 L 13 0 C 16 0 16 0 16 3 L 16 13 C 16 16 16 16 13 16 L 3 16 C 0 16 0 16 0 13 L 0 3 C 0 0 0 0 3 0"  stroke="black" stroke-opacity="0.0" stroke-width="5" transform="translate(1, 1)"></path><path fill="none" d="M 3 0 L 13 0 C 16 0 16 0 16 3 L 16 13 C 16 16 16 16 13 16 L 3 16 C 0 16 0 16 0 13 L 0 3 C 0 0 0 0 3 0"  stroke="black" stroke-opacity="0.0" stroke-width="3" transform="translate(1, 1)"></path><path fill="none" d="M 3 0 L 13 0 C 16 0 16 0 16 3 L 16 13 C 16 16 16 16 13 16 L 3 16 C 0 16 0 16 0 13 L 0 3 C 0 0 0 0 3 0"  stroke="black" stroke-opacity="0.1" stroke-width="1" transform="translate(1, 1)"></path><path fill="rgb(249, 249, 249)" fill-opacity=" .85" d="M 3 0 L 13 0 C 16 0 16 0 16 3 L 16 13 C 16 16 16 16 13 16 L 3 16 C 0 16 0 16 0 13 L 0 3 C 0 0 0 0 3 0"></path><text x="8"  style="font-size:12px;color:#333333;fill:#333333;" y="20"></text></g></svg>