<svg version="1.1" style="font-family: signika, serif; font-size: 12px; background-image: url(http://www.highcharts.com/samples/graphics/sand.png); background-position: initial initial; background-repeat: initial initial;" xmlns="http://www.w3.org/2000/svg" width="584" height="400" viewBox="0 0 584 400" xmlns:xlink="http://www.w3.org/1999/xlink"><style type="text/css"><![CDATA[@import url(http://fonts.googleapis.com/css?family=Signika:700);]]></style><desc>Created with Highcharts 4.1.7</desc><defs><clipPath id="highcharts-1"><rect x="0" y="0" width="510" height="277"></rect></clipPath><clipPath id="highcharts-2"><rect x="-99" y="-53" width="609" height="400"></rect></clipPath><clipPath id="highcharts-3"><rect x="0" y="0" width="510" height="277"></rect></clipPath></defs><g class="highcharts-grid" ></g><g class="highcharts-grid" ><path fill="none" d="M 64 330.5 L 574 330.5" stroke="#D8D8D8" stroke-width="1"  opacity="1"></path><path fill="none" d="M 64 261.5 L 574 261.5" stroke="#D8D8D8" stroke-width="1"  opacity="1"></path><path fill="none" d="M 64 192.5 L 574 192.5" stroke="#D8D8D8" stroke-width="1"  opacity="1"></path><path fill="none" d="M 64 122.5 L 574 122.5" stroke="#D8D8D8" stroke-width="1"  opacity="1"></path><path fill="none" d="M 64 52.5 L 574 52.5" stroke="#D8D8D8" stroke-width="1"  opacity="1"></path></g><g class="highcharts-axis" ><path fill="none" d="M 99.5 330 L 99.5 340" stroke="#C0D0E0" stroke-width="1" opacity="1"></path><path fill="none" d="M 172.5 330 L 172.5 340" stroke="#C0D0E0" stroke-width="1" opacity="1"></path><path fill="none" d="M 245.5 330 L 245.5 340" stroke="#C0D0E0" stroke-width="1" opacity="1"></path><path fill="none" d="M 318.5 330 L 318.5 340" stroke="#C0D0E0" stroke-width="1" opacity="1"></path><path fill="none" d="M 391.5 330 L 391.5 340" stroke="#C0D0E0" stroke-width="1" opacity="1"></path><path fill="none" d="M 464.5 330 L 464.5 340" stroke="#C0D0E0" stroke-width="1" opacity="1"></path><path fill="none" d="M 537.5 330 L 537.5 340" stroke="#C0D0E0" stroke-width="1" opacity="1"></path><path fill="none" d="M 64 330.5 L 574 330.5" stroke="#C0D0E0" stroke-width="1"  visibility="visible"></path></g><g class="highcharts-axis" ><text x="22.5"  text-anchor="middle" transform="translate(0,0) rotate(270 22.5 191.5)" class=" highcharts-yaxis-title" style="color:#707070;fill:#707070;" visibility="visible" y="191.5">Percent</text></g><g class="highcharts-series-group" ><g class="highcharts-series" visibility="visible"  transform="translate(64,53) scale(1 1)" clip-path="url(#highcharts-3)"><path fill="rgb(244,91,91)" fill-opacity="0.7" d="M 36.4 0 L 109.2 0 L 182.1 0 L 255 0 L 327.8 0 L 400.7 0 L 473.5 0 473.5 163.7 400.7 168.3 327.8 153.9 255 158.9 182.1 178.9 109.2 179.8 36.4 175.7" ></path><path fill="none" d="M 36.4 0 L 109.2 0 L 182.1 0 L 255 0 L 327.8 0 L 400.7 0 L 473.5 0" stroke="black" stroke-width="5"  stroke-linejoin="round" stroke-linecap="round"  stroke-opacity="0.0" transform="translate(1, 1)"></path><path fill="none" d="M 36.4 0 L 109.2 0 L 182.1 0 L 255 0 L 327.8 0 L 400.7 0 L 473.5 0" stroke="black" stroke-width="3"  stroke-linejoin="round" stroke-linecap="round"  stroke-opacity="0.0" transform="translate(1, 1)"></path><path fill="none" d="M 36.4 0 L 109.2 0 L 182.1 0 L 255 0 L 327.8 0 L 400.7 0 L 473.5 0" stroke="black" stroke-width="1"  stroke-linejoin="round" stroke-linecap="round"  stroke-opacity="0.1" transform="translate(1, 1)"></path><path fill="none" d="M 36.4 0 L 109.2 0 L 182.1 0 L 255 0 L 327.8 0 L 400.7 0 L 473.5 0" stroke="#ffffff" stroke-width="1"  stroke-linejoin="round" stroke-linecap="round"></path><path fill="none" d="M 26.4 0 L 36.4 0 L 109.2 0 L 182.1 0 L 255 0 L 327.8 0 L 400.7 0 L 473.5 0 L 483.5 0" stroke-linejoin="round" visibility="visible" stroke="rgb(192,192,192)" stroke-opacity="0.0" stroke-width="21"  class=" highcharts-tracker" style=""></path></g><g class="highcharts-markers highcharts-tracker" visibility="visible"  transform="translate(64,53) scale(1 1)" clip-path="url(#highcharts-2)" style=""><path fill="#f45b5b" d="M 473 -4 C 478.3 -4 478.3 4 473 4 C 467.6 4 467.6 -4 473 -4 Z" stroke="#ffffff" stroke-width="1"></path><path fill="#f45b5b" d="M 400 -4 C 405.3 -4 405.3 4 400 4 C 394.6 4 394.6 -4 400 -4 Z" stroke="#ffffff" stroke-width="1"></path><path fill="#f45b5b" d="M 327 -4 C 332.3 -4 332.3 4 327 4 C 321.6 4 321.6 -4 327 -4 Z" stroke="#ffffff" stroke-width="1"></path><path fill="#f45b5b" d="M 255 -4 C 260.3 -4 260.3 4 255 4 C 249.6 4 249.6 -4 255 -4 Z" stroke="#ffffff" stroke-width="1"></path><path fill="#f45b5b" d="M 182 -4 C 187.3 -4 187.3 4 182 4 C 176.6 4 176.6 -4 182 -4 Z" stroke="#ffffff" stroke-width="1"></path><path fill="#f45b5b" d="M 109 -4 C 114.3 -4 114.3 4 109 4 C 103.6 4 103.6 -4 109 -4 Z" stroke="#ffffff" stroke-width="1"></path><path fill="#f45b5b" d="M 36 -4 C 41.3 -4 41.3 4 36 4 C 30.6 4 30.6 -4 36 -4 Z" stroke="#ffffff" stroke-width="1"></path></g><g class="highcharts-series" visibility="visible"  transform="translate(64,53) scale(1 1)" clip-path="url(#highcharts-3)"><path fill="rgb(128,133,233)" fill-opacity="0.7" d="M 36.4 175.7 L 109.2 179.8 L 182.1 178.9 L 255 158.9 L 327.8 153.9 L 400.7 168.3 L 473.5 163.7 473.5 218.7 400.7 203.9 327.8 178.2 255 181.3 182.1 203.5 109.2 210.1 36.4 212.9" ></path><path fill="none" d="M 36.4 175.7 L 109.2 179.8 L 182.1 178.9 L 255 158.9 L 327.8 153.9 L 400.7 168.3 L 473.5 163.7" stroke="black" stroke-width="5"  stroke-linejoin="round" stroke-linecap="round"  stroke-opacity="0.0" transform="translate(1, 1)"></path><path fill="none" d="M 36.4 175.7 L 109.2 179.8 L 182.1 178.9 L 255 158.9 L 327.8 153.9 L 400.7 168.3 L 473.5 163.7" stroke="black" stroke-width="3"  stroke-linejoin="round" stroke-linecap="round"  stroke-opacity="0.0" transform="translate(1, 1)"></path><path fill="none" d="M 36.4 175.7 L 109.2 179.8 L 182.1 178.9 L 255 158.9 L 327.8 153.9 L 400.7 168.3 L 473.5 163.7" stroke="black" stroke-width="1"  stroke-linejoin="round" stroke-linecap="round"  stroke-opacity="0.1" transform="translate(1, 1)"></path><path fill="none" d="M 36.4 175.7 L 109.2 179.8 L 182.1 178.9 L 255 158.9 L 327.8 153.9 L 400.7 168.3 L 473.5 163.7" stroke="#ffffff" stroke-width="1"  stroke-linejoin="round" stroke-linecap="round"></path><path fill="none" d="M 26.4 175.7 L 36.4 175.7 L 109.2 179.8 L 182.1 178.9 L 255 158.9 L 327.8 153.9 L 400.7 168.3 L 473.5 163.7 L 483.5 163.7" stroke-linejoin="round" visibility="visible" stroke="rgb(192,192,192)" stroke-opacity="0.0" stroke-width="21"  class=" highcharts-tracker" style=""></path></g><g class="highcharts-markers highcharts-tracker" visibility="visible"  transform="translate(64,53) scale(1 1)" clip-path="url(#highcharts-2)" style=""><path fill="#8085e9" d="M 473 159.7 L 477 163.7 473 167.7 469 163.7 Z" stroke="#ffffff" stroke-width="1"></path><path fill="#8085e9" d="M 400 164.3 L 404 168.3 400 172.3 396 168.3 Z" stroke="#ffffff" stroke-width="1"></path><path fill="#8085e9" d="M 327 149.9 L 331 153.9 327 157.9 323 153.9 Z" stroke="#ffffff" stroke-width="1"></path><path fill="#8085e9" d="M 255 154.9 L 259 158.9 255 162.9 251 158.9 Z" stroke="#ffffff" stroke-width="1"></path><path fill="#8085e9" d="M 182 174.9 L 186 178.9 182 182.9 178 178.9 Z" stroke="#ffffff" stroke-width="1"></path><path fill="#8085e9" d="M 109 175.8 L 113 179.8 109 183.8 105 179.8 Z" stroke="#ffffff" stroke-width="1"></path><path fill="#8085e9" d="M 36 171.7 L 40 175.7 36 179.7 32 175.7 Z" stroke="#ffffff" stroke-width="1"></path></g><g class="highcharts-series" visibility="visible"  transform="translate(64,53) scale(1 1)" clip-path="url(#highcharts-3)"><path fill="rgb(141,70,84)" fill-opacity="0.7" d="M 36.4 212.9 L 109.2 210.1 L 182.1 203.5 L 255 181.3 L 327.8 178.2 L 400.7 203.9 L 473.5 218.7 473.5 238.2 400.7 237.7 327.8 238.3 255 249.8 182.1 264.6 109.2 267.6 36.4 269.9" ></path><path fill="none" d="M 36.4 212.9 L 109.2 210.1 L 182.1 203.5 L 255 181.3 L 327.8 178.2 L 400.7 203.9 L 473.5 218.7" stroke="black" stroke-width="5"  stroke-linejoin="round" stroke-linecap="round"  stroke-opacity="0.0" transform="translate(1, 1)"></path><path fill="none" d="M 36.4 212.9 L 109.2 210.1 L 182.1 203.5 L 255 181.3 L 327.8 178.2 L 400.7 203.9 L 473.5 218.7" stroke="black" stroke-width="3"  stroke-linejoin="round" stroke-linecap="round"  stroke-opacity="0.0" transform="translate(1, 1)"></path><path fill="none" d="M 36.4 212.9 L 109.2 210.1 L 182.1 203.5 L 255 181.3 L 327.8 178.2 L 400.7 203.9 L 473.5 218.7" stroke="black" stroke-width="1"  stroke-linejoin="round" stroke-linecap="round"  stroke-opacity="0.1" transform="translate(1, 1)"></path><path fill="none" d="M 36.4 212.9 L 109.2 210.1 L 182.1 203.5 L 255 181.3 L 327.8 178.2 L 400.7 203.9 L 473.5 218.7" stroke="#ffffff" stroke-width="1"  stroke-linejoin="round" stroke-linecap="round"></path><path fill="none" d="M 26.4 212.9 L 36.4 212.9 L 109.2 210.1 L 182.1 203.5 L 255 181.3 L 327.8 178.2 L 400.7 203.9 L 473.5 218.7 L 483.5 218.7" stroke-linejoin="round" visibility="visible" stroke="rgb(192,192,192)" stroke-opacity="0.0" stroke-width="21"  class=" highcharts-tracker" style=""></path></g><g class="highcharts-markers highcharts-tracker" visibility="visible"  transform="translate(64,53) scale(1 1)" clip-path="url(#highcharts-2)" style=""><path fill="#8d4654" d="M 469 214.7 L 477 214.7 477 222.7 469 222.7 Z" stroke="#ffffff" stroke-width="1"></path><path fill="#8d4654" d="M 396 199.9 L 404 199.9 404 207.9 396 207.9 Z" stroke="#ffffff" stroke-width="1"></path><path fill="#8d4654" d="M 323 174.2 L 331 174.2 331 182.2 323 182.2 Z" stroke="#ffffff" stroke-width="1"></path><path fill="#8d4654" d="M 251 177.3 L 259 177.3 259 185.3 251 185.3 Z" stroke="#ffffff" stroke-width="1"></path><path fill="#8d4654" d="M 178 199.5 L 186 199.5 186 207.5 178 207.5 Z" stroke="#ffffff" stroke-width="1"></path><path fill="#8d4654" d="M 105 206.1 L 113 206.1 113 214.1 105 214.1 Z" stroke="#ffffff" stroke-width="1"></path><path fill="#8d4654" d="M 32 208.9 L 40 208.9 40 216.9 32 216.9 Z" stroke="#ffffff" stroke-width="1"></path></g><g class="highcharts-series" visibility="visible"  transform="translate(64,53) scale(1 1)" clip-path="url(#highcharts-3)"><path fill="rgb(119,152,191)" fill-opacity="0.7" d="M 36.4 269.9 L 109.2 267.6 L 182.1 264.6 L 255 249.8 L 327.8 238.3 L 400.7 237.7 L 473.5 238.2 473.5 275.5 400.7 275.6 327.8 275.5 255 275.9 182.1 276.5 109.2 276.4 36.4 276.2" ></path><path fill="none" d="M 36.4 269.9 L 109.2 267.6 L 182.1 264.6 L 255 249.8 L 327.8 238.3 L 400.7 237.7 L 473.5 238.2" stroke="black" stroke-width="5"  stroke-linejoin="round" stroke-linecap="round"  stroke-opacity="0.0" transform="translate(1, 1)"></path><path fill="none" d="M 36.4 269.9 L 109.2 267.6 L 182.1 264.6 L 255 249.8 L 327.8 238.3 L 400.7 237.7 L 473.5 238.2" stroke="black" stroke-width="3"  stroke-linejoin="round" stroke-linecap="round"  stroke-opacity="0.0" transform="translate(1, 1)"></path><path fill="none" d="M 36.4 269.9 L 109.2 267.6 L 182.1 264.6 L 255 249.8 L 327.8 238.3 L 400.7 237.7 L 473.5 238.2" stroke="black" stroke-width="1"  stroke-linejoin="round" stroke-linecap="round"  stroke-opacity="0.1" transform="translate(1, 1)"></path><path fill="none" d="M 36.4 269.9 L 109.2 267.6 L 182.1 264.6 L 255 249.8 L 327.8 238.3 L 400.7 237.7 L 473.5 238.2" stroke="#ffffff" stroke-width="1"  stroke-linejoin="round" stroke-linecap="round"></path><path fill="none" d="M 26.4 269.9 L 36.4 269.9 L 109.2 267.6 L 182.1 264.6 L 255 249.8 L 327.8 238.3 L 400.7 237.7 L 473.5 238.2 L 483.5 238.2" stroke-linejoin="round" visibility="visible" stroke="rgb(192,192,192)" stroke-opacity="0.0" stroke-width="21"  class=" highcharts-tracker" style=""></path></g><g class="highcharts-markers highcharts-tracker" visibility="visible"  transform="translate(64,53) scale(1 1)" clip-path="url(#highcharts-2)" style=""><path fill="#7798BF" d="M 473 234.2 L 477 242.2 469 242.2 Z" stroke="#ffffff" stroke-width="1"></path><path fill="#7798BF" d="M 400 233.7 L 404 241.7 396 241.7 Z" stroke="#ffffff" stroke-width="1"></path><path fill="#7798BF" d="M 327 234.3 L 331 242.3 323 242.3 Z" stroke="#ffffff" stroke-width="1"></path><path fill="#7798BF" d="M 255 245.8 L 259 253.8 251 253.8 Z" stroke="#ffffff" stroke-width="1"></path><path fill="#7798BF" d="M 182 260.6 L 186 268.6 178 268.6 Z" stroke="#ffffff" stroke-width="1"></path><path fill="#7798BF" d="M 109 263.6 L 113 271.6 105 271.6 Z" stroke="#ffffff" stroke-width="1"></path><path fill="#7798BF" d="M 36 265.9 L 40 273.9 32 273.9 Z" stroke="#ffffff" stroke-width="1"></path></g><g class="highcharts-series" visibility="visible"  transform="translate(64,53) scale(1 1)" clip-path="url(#highcharts-3)"><path fill="rgb(170,238,238)" fill-opacity="0.7" d="M 36.4 276.2 L 109.2 276.4 L 182.1 276.5 L 255 275.9 L 327.8 275.5 L 400.7 275.6 L 473.5 275.5 473.5 277 400.7 277 327.8 277 255 277 182.1 277 109.2 277 36.4 277" ></path><path fill="none" d="M 36.4 276.2 L 109.2 276.4 L 182.1 276.5 L 255 275.9 L 327.8 275.5 L 400.7 275.6 L 473.5 275.5" stroke="black" stroke-width="5"  stroke-linejoin="round" stroke-linecap="round"  stroke-opacity="0.0" transform="translate(1, 1)"></path><path fill="none" d="M 36.4 276.2 L 109.2 276.4 L 182.1 276.5 L 255 275.9 L 327.8 275.5 L 400.7 275.6 L 473.5 275.5" stroke="black" stroke-width="3"  stroke-linejoin="round" stroke-linecap="round"  stroke-opacity="0.0" transform="translate(1, 1)"></path><path fill="none" d="M 36.4 276.2 L 109.2 276.4 L 182.1 276.5 L 255 275.9 L 327.8 275.5 L 400.7 275.6 L 473.5 275.5" stroke="black" stroke-width="1"  stroke-linejoin="round" stroke-linecap="round"  stroke-opacity="0.1" transform="translate(1, 1)"></path><path fill="none" d="M 36.4 276.2 L 109.2 276.4 L 182.1 276.5 L 255 275.9 L 327.8 275.5 L 400.7 275.6 L 473.5 275.5" stroke="#ffffff" stroke-width="1"  stroke-linejoin="round" stroke-linecap="round"></path><path fill="none" d="M 26.4 276.2 L 36.4 276.2 L 109.2 276.4 L 182.1 276.5 L 255 275.9 L 327.8 275.5 L 400.7 275.6 L 473.5 275.5 L 483.5 275.5" stroke-linejoin="round" visibility="visible" stroke="rgb(192,192,192)" stroke-opacity="0.0" stroke-width="21"  class=" highcharts-tracker" style=""></path></g><g class="highcharts-markers highcharts-tracker" visibility="visible"  transform="translate(64,53) scale(1 1)" clip-path="url(#highcharts-2)" style=""><path fill="#aaeeee" d="M 469 271.5 L 477 271.5 473 279.5 Z" stroke="#ffffff" stroke-width="1"></path><path fill="#aaeeee" d="M 396 271.6 L 404 271.6 400 279.6 Z" stroke="#ffffff" stroke-width="1"></path><path fill="#aaeeee" d="M 323 271.5 L 331 271.5 327 279.5 Z" stroke="#ffffff" stroke-width="1"></path><path fill="#aaeeee" d="M 251 271.9 L 259 271.9 255 279.9 Z" stroke="#ffffff" stroke-width="1"></path><path fill="#aaeeee" d="M 178 272.5 L 186 272.5 182 280.5 Z" stroke="#ffffff" stroke-width="1"></path><path fill="#aaeeee" d="M 105 272.4 L 113 272.4 109 280.4 Z" stroke="#ffffff" stroke-width="1"></path><path fill="#aaeeee" d="M 32 272.2 L 40 272.2 36 280.2 Z" stroke="#ffffff" stroke-width="1"></path></g></g><text x="292" text-anchor="middle" class="highcharts-title"  style="color:black;font-size:16px;font-weight:bold;fill:black;width:520px;" y="22"><tspan>Historic and Estimated Worldwide Population Distribution by Region</tspan></text><text x="292" text-anchor="middle" class="highcharts-subtitle"  style="color:black;fill:black;width:520px;" y="40"><tspan>Source: Wikipedia.org</tspan></text><g class="highcharts-legend"  transform="translate(94,361)"><g ><g><g class="highcharts-legend-item"  transform="translate(8,3)"><text x="21" style="color:#333333;font-size:13px;font-weight:bold;cursor:pointer;fill:#333333;" text-anchor="start"  y="16">Asia</text><rect x="0" y="4" width="16" height="13"  fill="#f45b5b"></rect></g><g class="highcharts-legend-item"  transform="translate(73.5,3)"><text x="21" y="16" style="color:#333333;font-size:13px;font-weight:bold;cursor:pointer;fill:#333333;" text-anchor="start" >Africa</text><rect x="0" y="4" width="16" height="13"  fill="#8085e9"></rect></g><g class="highcharts-legend-item"  transform="translate(149.8,3)"><text x="21" y="16" style="color:#333333;font-size:13px;font-weight:bold;cursor:pointer;fill:#333333;" text-anchor="start" >Europe</text><rect x="0" y="4" width="16" height="13"  fill="#8d4654"></rect></g><g class="highcharts-legend-item"  transform="translate(232,3)"><text x="21" y="16" style="color:#333333;font-size:13px;font-weight:bold;cursor:pointer;fill:#333333;" text-anchor="start" >America</text><rect x="0" y="4" width="16" height="13"  fill="#7798BF"></rect></g><g class="highcharts-legend-item"  transform="translate(320.6,3)"><text x="21" y="16" style="color:#333333;font-size:13px;font-weight:bold;cursor:pointer;fill:#333333;" text-anchor="start" >Oceania</text><rect x="0" y="4" width="16" height="13"  fill="#aaeeee"></rect></g></g></g></g><g class="highcharts-axis-labels highcharts-xaxis-labels" ><text x="100.4" style="color:#6e6e70;cursor:default;font-size:11px;fill:#6e6e70;width:72.8;text-overflow:ellipsis;" text-anchor="middle" transform="translate(0,0)" y="349" opacity="1"><tspan>1750</tspan></text><text x="173.2" style="color:#6e6e70;cursor:default;font-size:11px;fill:#6e6e70;width:72.8;text-overflow:ellipsis;" text-anchor="middle" transform="translate(0,0)" y="349" opacity="1"><tspan>1800</tspan></text><text x="246.1" style="color:#6e6e70;cursor:default;font-size:11px;fill:#6e6e70;width:72.8;text-overflow:ellipsis;" text-anchor="middle" transform="translate(0,0)" y="349" opacity="1"><tspan>1850</tspan></text><text x="319" style="color:#6e6e70;cursor:default;font-size:11px;fill:#6e6e70;width:72.8;text-overflow:ellipsis;" text-anchor="middle" transform="translate(0,0)" y="349" opacity="1"><tspan>1900</tspan></text><text x="391.8" style="color:#6e6e70;cursor:default;font-size:11px;fill:#6e6e70;width:72.8;text-overflow:ellipsis;" text-anchor="middle" transform="translate(0,0)" y="349" opacity="1"><tspan>1950</tspan></text><text x="464.7" style="color:#6e6e70;cursor:default;font-size:11px;fill:#6e6e70;width:72.8;text-overflow:ellipsis;" text-anchor="middle" transform="translate(0,0)" y="349" opacity="1"><tspan>1999</tspan></text><text x="537.5" style="color:#6e6e70;cursor:default;font-size:11px;fill:#6e6e70;width:72.8;text-overflow:ellipsis;" text-anchor="middle" transform="translate(0,0)" y="349" opacity="1"><tspan>2050</tspan></text></g><g class="highcharts-axis-labels highcharts-yaxis-labels" ><text x="49" style="color:#6e6e70;cursor:default;font-size:11px;fill:#6e6e70;width:183px;text-overflow:clip;" text-anchor="end" transform="translate(0,0)" y="336" opacity="1">0</text><text x="49" style="color:#6e6e70;cursor:default;font-size:11px;fill:#6e6e70;width:183px;text-overflow:clip;" text-anchor="end" transform="translate(0,0)" y="266" opacity="1">25</text><text x="49" style="color:#6e6e70;cursor:default;font-size:11px;fill:#6e6e70;width:183px;text-overflow:clip;" text-anchor="end" transform="translate(0,0)" y="197" opacity="1">50</text><text x="49" style="color:#6e6e70;cursor:default;font-size:11px;fill:#6e6e70;width:183px;text-overflow:clip;" text-anchor="end" transform="translate(0,0)" y="128" opacity="1">75</text><text x="49" style="color:#6e6e70;cursor:default;font-size:11px;fill:#6e6e70;width:183px;text-overflow:clip;" text-anchor="end" transform="translate(0,0)" y="59" opacity="1">100</text></g><g class="highcharts-tooltip"  style="cursor:default;padding:0;white-space:nowrap;" transform="translate(0,-9999)"><path fill="none" d="M 3 0 L 13 0 C 16 0 16 0 16 3 L 16 13 C 16 16 16 16 13 16 L 3 16 C 0 16 0 16 0 13 L 0 3 C 0 0 0 0 3 0"  stroke="black" stroke-opacity="0.0" stroke-width="5" transform="translate(1, 1)"></path><path fill="none" d="M 3 0 L 13 0 C 16 0 16 0 16 3 L 16 13 C 16 16 16 16 13 16 L 3 16 C 0 16 0 16 0 13 L 0 3 C 0 0 0 0 3 0"  stroke="black" stroke-opacity="0.0" stroke-width="3" transform="translate(1, 1)"></path><path fill="none" d="M 3 0 L 13 0 C 16 0 16 0 16 3 L 16 13 C 16 16 16 16 13 16 L 3 16 C 0 16 0 16 0 13 L 0 3 C 0 0 0 0 3 0"  stroke="black" stroke-opacity="0.1" stroke-width="1" transform="translate(1, 1)"></path><path fill="rgb(249, 249, 249)" fill-opacity=" .85" d="M 3 0 L 13 0 C 16 0 16 0 16 3 L 16 13 C 16 16 16 16 13 16 L 3 16 C 0 16 0 16 0 13 L 0 3 C 0 0 0 0 3 0"></path><text x="8"  style="font-size:12px;color:#333333;fill:#333333;" y="20"></text></g></svg>