<svg version="1.1" style="font-family: signika, serif; font-size: 12px; background-image: url(http://www.highcharts.com/samples/graphics/sand.png); background-position: initial initial; background-repeat: initial initial;" xmlns="http://www.w3.org/2000/svg" width="584" height="400" viewBox="0 0 584 400" xmlns:xlink="http://www.w3.org/1999/xlink"><style type="text/css"><![CDATA[@import url(http://fonts.googleapis.com/css?family=Signika:700);]]></style><desc>Created with Highcharts 4.1.7</desc><defs><clipPath id="highcharts-1"><rect x="0" y="0" width="308" height="498"></rect></clipPath><clipPath id="highcharts-2"><rect x="-99" y="-76" width="407" height="584"></rect></clipPath><clipPath id="highcharts-3"><rect x="0" y="0" width="308" height="498"></rect></clipPath></defs><g class="highcharts-grid" ></g><g class="highcharts-grid" ><path fill="none" d="M 75.5 41 L 75.5 349" stroke="#D8D8D8" stroke-width="1"  opacity="1"></path><path fill="none" d="M 146.5 41 L 146.5 349" stroke="#D8D8D8" stroke-width="1"  opacity="1"></path><path fill="none" d="M 217.5 41 L 217.5 349" stroke="#D8D8D8" stroke-width="1"  opacity="1"></path><path fill="none" d="M 288.5 41 L 288.5 349" stroke="#D8D8D8" stroke-width="1"  opacity="1"></path><path fill="none" d="M 360.5 41 L 360.5 349" stroke="#D8D8D8" stroke-width="1"  opacity="1"></path><path fill="none" d="M 431.5 41 L 431.5 349" stroke="#D8D8D8" stroke-width="1"  opacity="1"></path><path fill="none" d="M 502.5 41 L 502.5 349" stroke="#D8D8D8" stroke-width="1"  opacity="1"></path><path fill="none" d="M 574.5 41 L 574.5 349" stroke="#D8D8D8" stroke-width="1"  opacity="1"></path></g><g class="highcharts-axis" ><path fill="none" d="M 76 85.5 L 66 85.5" stroke="#C0D0E0" stroke-width="1" opacity="1"></path><path fill="none" d="M 76 129.5 L 66 129.5" stroke="#C0D0E0" stroke-width="1" opacity="1"></path><path fill="none" d="M 76 173.5 L 66 173.5" stroke="#C0D0E0" stroke-width="1" opacity="1"></path><path fill="none" d="M 76 217.5 L 66 217.5" stroke="#C0D0E0" stroke-width="1" opacity="1"></path><path fill="none" d="M 76 261.5 L 66 261.5" stroke="#C0D0E0" stroke-width="1" opacity="1"></path><path fill="none" d="M 76 305.5 L 66 305.5" stroke="#C0D0E0" stroke-width="1" opacity="1"></path><path fill="none" d="M 76 349.5 L 66 349.5" stroke="#C0D0E0" stroke-width="1" opacity="1"></path><path fill="none" d="M 76 40.5 L 66 40.5" stroke="#C0D0E0" stroke-width="1" opacity="1"></path><path fill="none" d="M 75.5 41 L 75.5 349" stroke="#C0D0E0" stroke-width="1"  visibility="visible"></path></g><g class="highcharts-axis" ><text x="325"  text-anchor="middle" transform="translate(0,0)" class=" highcharts-yaxis-title" style="color:#707070;fill:#707070;" visibility="visible" y="385"><tspan>Number of units</tspan></text></g><g class="highcharts-series-group" ><g class="highcharts-series" visibility="visible"  transform="translate(574,349) rotate(90) scale(-1,1) scale(1 1)" clip-path="url(#highcharts-3)" width="498" height="308"><path fill="rgb(244,91,91)" fill-opacity="0.5" d="M 286 391.2 L 242 355.7 L 198 391.2 L 154 320.1 L 110 355.7 L 66 142.2 L 22 71.1 L 22 498 L 286 498" ></path><path fill="none" d="M 286 391.2 L 242 355.7 L 198 391.2 L 154 320.1 L 110 355.7 L 66 142.2 L 22 71.1" stroke="black" stroke-width="5"  stroke-linejoin="round" stroke-linecap="round"  stroke-opacity="0.0" transform="translate(-1,-1)"></path><path fill="none" d="M 286 391.2 L 242 355.7 L 198 391.2 L 154 320.1 L 110 355.7 L 66 142.2 L 22 71.1" stroke="black" stroke-width="3"  stroke-linejoin="round" stroke-linecap="round"  stroke-opacity="0.0" transform="translate(-1,-1)"></path><path fill="none" d="M 286 391.2 L 242 355.7 L 198 391.2 L 154 320.1 L 110 355.7 L 66 142.2 L 22 71.1" stroke="black" stroke-width="1"  stroke-linejoin="round" stroke-linecap="round"  stroke-opacity="0.1" transform="translate(-1,-1)"></path><path fill="none" d="M 286 391.2 L 242 355.7 L 198 391.2 L 154 320.1 L 110 355.7 L 66 142.2 L 22 71.1" stroke="#f45b5b" stroke-width="2"  stroke-linejoin="round" stroke-linecap="round"></path><path fill="none" d="M 276 391.2 L 286 391.2 L 242 355.7 L 198 391.2 L 154 320.1 L 110 355.7 L 66 142.2 L 22 71.1 L 32 71.1" stroke-linejoin="round" visibility="visible" stroke="rgb(192,192,192)" stroke-opacity="0.0" stroke-width="22"  class=" highcharts-tracker" style=""></path></g><g class="highcharts-markers highcharts-tracker" visibility="visible"  transform="translate(574,349) rotate(90) scale(-1,1) scale(1 1)" clip-path="url(#highcharts-2)" style="" width="498" height="308"><path fill="#f45b5b" d="M 22 67.1 C 27.3 67.1 27.3 75.1 22 75.1 C 16.6 75.1 16.6 67.1 22 67.1 Z"></path><path fill="#f45b5b" d="M 66 138.2 C 71.3 138.2 71.3 146.2 66 146.2 C 60.6 146.2 60.6 138.2 66 138.2 Z"></path><path fill="#f45b5b" d="M 110 351.7 C 115.3 351.7 115.3 359.7 110 359.7 C 104.6 359.7 104.6 351.7 110 351.7 Z"></path><path fill="#f45b5b" d="M 154 316.1 C 159.3 316.1 159.3 324.1 154 324.1 C 148.6 324.1 148.6 316.1 154 316.1 Z"></path><path fill="#f45b5b" d="M 198 387.2 C 203.3 387.2 203.3 395.2 198 395.2 C 192.6 395.2 192.6 387.2 198 387.2 Z"></path><path fill="#f45b5b" d="M 242 351.7 C 247.3 351.7 247.3 359.7 242 359.7 C 236.6 359.7 236.6 351.7 242 351.7 Z"></path><path fill="#f45b5b" d="M 286 387.2 C 291.3 387.2 291.3 395.2 286 395.2 C 280.6 395.2 280.6 387.2 286 387.2 Z"></path></g><g class="highcharts-series" visibility="visible"  transform="translate(574,349) rotate(90) scale(-1,1) scale(1 1)" clip-path="url(#highcharts-3)" width="498" height="308"><path fill="rgb(128,133,233)" fill-opacity="0.5" d="M 286 462.4 L 242 391.2 L 198 355.7 L 154 391.2 L 110 391.2 L 66 320.1 L 22 355.7 L 22 498 L 286 498" ></path><path fill="none" d="M 286 462.4 L 242 391.2 L 198 355.7 L 154 391.2 L 110 391.2 L 66 320.1 L 22 355.7" stroke="black" stroke-width="5"  stroke-linejoin="round" stroke-linecap="round"  stroke-opacity="0.0" transform="translate(-1,-1)"></path><path fill="none" d="M 286 462.4 L 242 391.2 L 198 355.7 L 154 391.2 L 110 391.2 L 66 320.1 L 22 355.7" stroke="black" stroke-width="3"  stroke-linejoin="round" stroke-linecap="round"  stroke-opacity="0.0" transform="translate(-1,-1)"></path><path fill="none" d="M 286 462.4 L 242 391.2 L 198 355.7 L 154 391.2 L 110 391.2 L 66 320.1 L 22 355.7" stroke="black" stroke-width="1"  stroke-linejoin="round" stroke-linecap="round"  stroke-opacity="0.1" transform="translate(-1,-1)"></path><path fill="none" d="M 286 462.4 L 242 391.2 L 198 355.7 L 154 391.2 L 110 391.2 L 66 320.1 L 22 355.7" stroke="#8085e9" stroke-width="2"  stroke-linejoin="round" stroke-linecap="round"></path><path fill="none" d="M 276 462.4 L 286 462.4 L 242 391.2 L 198 355.7 L 154 391.2 L 110 391.2 L 66 320.1 L 22 355.7 L 32 355.7" stroke-linejoin="round" visibility="visible" stroke="rgb(192,192,192)" stroke-opacity="0.0" stroke-width="22"  class=" highcharts-tracker" style=""></path></g><g class="highcharts-markers highcharts-tracker" visibility="visible"  transform="translate(574,349) rotate(90) scale(-1,1) scale(1 1)" clip-path="url(#highcharts-2)" style="" width="498" height="308"><path fill="#8085e9" d="M 22 351.7 L 26 355.7 22 359.7 18 355.7 Z"></path><path fill="#8085e9" d="M 66 316.1 L 70 320.1 66 324.1 62 320.1 Z"></path><path fill="#8085e9" d="M 110 387.2 L 114 391.2 110 395.2 106 391.2 Z"></path><path fill="#8085e9" d="M 154 387.2 L 158 391.2 154 395.2 150 391.2 Z"></path><path fill="#8085e9" d="M 198 351.7 L 202 355.7 198 359.7 194 355.7 Z"></path><path fill="#8085e9" d="M 242 387.2 L 246 391.2 242 395.2 238 391.2 Z"></path><path fill="#8085e9" d="M 286 458.4 L 290 462.4 286 466.4 282 462.4 Z"></path></g></g><text x="292" text-anchor="middle" class="highcharts-title"  style="color:black;font-size:16px;font-weight:bold;fill:black;width:520px;" y="22"><tspan>Average fruit consumption during one week</tspan></text><g class="highcharts-legend"  transform="translate(360,110)"><rect x="0.5" y="0.5" width="63" height="36" strokeWidth="1" stroke="#909090" stroke-width="1" fill="#FFFFFF" visibility="visible"></rect><g ><g><g class="highcharts-legend-item"  transform="translate(8,3)"><text x="21" style="color:#333333;font-size:13px;font-weight:bold;cursor:pointer;fill:#333333;" text-anchor="start"  y="16">John</text><rect x="0" y="4" width="16" height="13"  fill="#f45b5b"></rect></g><g class="highcharts-legend-item"  transform="translate(8,16)"><text x="21" y="16" style="color:#333333;font-size:13px;font-weight:bold;cursor:pointer;fill:#333333;" text-anchor="start" >Jane</text><rect x="0" y="4" width="16" height="13"  fill="#8085e9"></rect></g></g></g></g><g class="highcharts-axis-labels highcharts-xaxis-labels" ><text x="61" style="color:#6e6e70;cursor:default;font-size:11px;fill:#6e6e70;width:183px;text-overflow:clip;" text-anchor="end" transform="translate(0,0)" y="69" opacity="1">Monday</text><text x="61" style="color:#6e6e70;cursor:default;font-size:11px;fill:#6e6e70;width:183px;text-overflow:clip;" text-anchor="end" transform="translate(0,0)" y="113" opacity="1">Tuesday</text><text x="61" style="color:#6e6e70;cursor:default;font-size:11px;fill:#6e6e70;width:183px;text-overflow:clip;" text-anchor="end" transform="translate(0,0)" y="157" opacity="1">Wednesday</text><text x="61" style="color:#6e6e70;cursor:default;font-size:11px;fill:#6e6e70;width:183px;text-overflow:clip;" text-anchor="end" transform="translate(0,0)" y="201" opacity="1">Thursday</text><text x="61" style="color:#6e6e70;cursor:default;font-size:11px;fill:#6e6e70;width:183px;text-overflow:clip;" text-anchor="end" transform="translate(0,0)" y="245" opacity="1">Friday</text><text x="61" style="color:#6e6e70;cursor:default;font-size:11px;fill:#6e6e70;width:183px;text-overflow:clip;" text-anchor="end" transform="translate(0,0)" y="289" opacity="1">Saturday</text><text x="61" style="color:#6e6e70;cursor:default;font-size:11px;fill:#6e6e70;width:183px;text-overflow:clip;" text-anchor="end" transform="translate(0,0)" y="333" opacity="1">Sunday</text></g><g class="highcharts-axis-labels highcharts-yaxis-labels" ><text x="76" style="color:#6e6e70;cursor:default;font-size:11px;fill:#6e6e70;width:71.1;text-overflow:ellipsis;" text-anchor="middle" transform="translate(0,0)" y="368" opacity="1"><tspan>0</tspan></text><text x="147.1" style="color:#6e6e70;cursor:default;font-size:11px;fill:#6e6e70;width:71.1;text-overflow:ellipsis;" text-anchor="middle" transform="translate(0,0)" y="368" opacity="1"><tspan>2</tspan></text><text x="218.2" style="color:#6e6e70;cursor:default;font-size:11px;fill:#6e6e70;width:71.1;text-overflow:ellipsis;" text-anchor="middle" transform="translate(0,0)" y="368" opacity="1"><tspan>4</tspan></text><text x="289.4" style="color:#6e6e70;cursor:default;font-size:11px;fill:#6e6e70;width:71.1;text-overflow:ellipsis;" text-anchor="middle" transform="translate(0,0)" y="368" opacity="1"><tspan>6</tspan></text><text x="360.5" style="color:#6e6e70;cursor:default;font-size:11px;fill:#6e6e70;width:71.1;text-overflow:ellipsis;" text-anchor="middle" transform="translate(0,0)" y="368" opacity="1"><tspan>8</tspan></text><text x="431.7" style="color:#6e6e70;cursor:default;font-size:11px;fill:#6e6e70;width:71.1;text-overflow:ellipsis;" text-anchor="middle" transform="translate(0,0)" y="368" opacity="1"><tspan>10</tspan></text><text x="502.8" style="color:#6e6e70;cursor:default;font-size:11px;fill:#6e6e70;width:71.1;text-overflow:ellipsis;" text-anchor="middle" transform="translate(0,0)" y="368" opacity="1"><tspan>12</tspan></text><text x="568.5" style="color:#6e6e70;cursor:default;font-size:11px;fill:#6e6e70;width:35.5;text-overflow:ellipsis;" text-anchor="middle" transform="translate(0,0)" y="368" opacity="1"><tspan>14</tspan></text></g><g class="highcharts-tooltip"  style="cursor:default;padding:0;white-space:nowrap;" transform="translate(0,-9999)"><path fill="none" d="M 3 0 L 13 0 C 16 0 16 0 16 3 L 16 13 C 16 16 16 16 13 16 L 3 16 C 0 16 0 16 0 13 L 0 3 C 0 0 0 0 3 0"  stroke="black" stroke-opacity="0.0" stroke-width="5" transform="translate(1, 1)"></path><path fill="none" d="M 3 0 L 13 0 C 16 0 16 0 16 3 L 16 13 C 16 16 16 16 13 16 L 3 16 C 0 16 0 16 0 13 L 0 3 C 0 0 0 0 3 0"  stroke="black" stroke-opacity="0.0" stroke-width="3" transform="translate(1, 1)"></path><path fill="none" d="M 3 0 L 13 0 C 16 0 16 0 16 3 L 16 13 C 16 16 16 16 13 16 L 3 16 C 0 16 0 16 0 13 L 0 3 C 0 0 0 0 3 0"  stroke="black" stroke-opacity="0.1" stroke-width="1" transform="translate(1, 1)"></path><path fill="rgb(249, 249, 249)" fill-opacity=" .85" d="M 3 0 L 13 0 C 16 0 16 0 16 3 L 16 13 C 16 16 16 16 13 16 L 3 16 C 0 16 0 16 0 13 L 0 3 C 0 0 0 0 3 0"></path><text x="8"  style="font-size:12px;color:#333333;fill:#333333;" y="20"></text></g></svg>