<svg version="1.1" style="font-family: signika, serif; font-size: 12px; background-image: url(http://www.highcharts.com/samples/graphics/sand.png); background-position: initial initial; background-repeat: initial initial;" xmlns="http://www.w3.org/2000/svg" width="584" height="400" viewBox="0 0 584 400" xmlns:xlink="http://www.w3.org/1999/xlink"><style type="text/css"><![CDATA[@import url(http://fonts.googleapis.com/css?family=Signika:700);]]></style><desc>Created with Highcharts 4.1.7</desc><defs><clipPath id="highcharts-1"><rect x="0" y="0" width="513" height="277"></rect></clipPath><clipPath id="highcharts-2"><rect x="-99" y="-53" width="612" height="400"></rect></clipPath><clipPath id="highcharts-3"><rect x="0" y="0" width="513" height="277"></rect></clipPath></defs><g class="highcharts-grid" ></g><g class="highcharts-grid" ><path fill="none" d="M 61 330.5 L 574 330.5" stroke="#D8D8D8" stroke-width="1"  opacity="1"></path><path fill="none" d="M 61 261.5 L 574 261.5" stroke="#D8D8D8" stroke-width="1"  opacity="1"></path><path fill="none" d="M 61 192.5 L 574 192.5" stroke="#D8D8D8" stroke-width="1"  opacity="1"></path><path fill="none" d="M 61 122.5 L 574 122.5" stroke="#D8D8D8" stroke-width="1"  opacity="1"></path><path fill="none" d="M 61 52.5 L 574 52.5" stroke="#D8D8D8" stroke-width="1"  opacity="1"></path></g><g class="highcharts-axis" ><path fill="none" d="M 97.5 330 L 97.5 340" stroke="#C0D0E0" stroke-width="1" opacity="1"></path><path fill="none" d="M 170.5 330 L 170.5 340" stroke="#C0D0E0" stroke-width="1" opacity="1"></path><path fill="none" d="M 243.5 330 L 243.5 340" stroke="#C0D0E0" stroke-width="1" opacity="1"></path><path fill="none" d="M 317.5 330 L 317.5 340" stroke="#C0D0E0" stroke-width="1" opacity="1"></path><path fill="none" d="M 390.5 330 L 390.5 340" stroke="#C0D0E0" stroke-width="1" opacity="1"></path><path fill="none" d="M 463.5 330 L 463.5 340" stroke="#C0D0E0" stroke-width="1" opacity="1"></path><path fill="none" d="M 536.5 330 L 536.5 340" stroke="#C0D0E0" stroke-width="1" opacity="1"></path><path fill="none" d="M 61 330.5 L 574 330.5" stroke="#C0D0E0" stroke-width="1"  visibility="visible"></path></g><g class="highcharts-axis" ><text x="22.2"  text-anchor="middle" transform="translate(0,0) rotate(270 22.2 191.5)" class=" highcharts-yaxis-title" style="color:#707070;fill:#707070;" visibility="visible" y="191.5">Billions</text></g><g class="highcharts-series-group" ><g class="highcharts-series" visibility="visible"  transform="translate(61,53) scale(1 1)" clip-path="url(#highcharts-3)"><path fill="rgb(244,91,91)" fill-opacity="0.7" d="M 36.6 255.0 L 109.9 249.9 L 183.2 242.3 L 256.5 231.2 L 329.7 207.1 L 403.0 111.4 L 476.3 30.2 476.3 176.1 403.0 212.0 329.7 245.9 256.5 257.5 183.2 264.7 109.9 267.4 36.6 268.9" ></path><path fill="none" d="M 36.6 255.0 L 109.9 249.9 L 183.2 242.3 L 256.5 231.2 L 329.7 207.1 L 403.0 111.4 L 476.3 30.2" stroke="black" stroke-width="5"  stroke-linejoin="round" stroke-linecap="round"  stroke-opacity="0.0" transform="translate(1, 1)"></path><path fill="none" d="M 36.6 255.0 L 109.9 249.9 L 183.2 242.3 L 256.5 231.2 L 329.7 207.1 L 403.0 111.4 L 476.3 30.2" stroke="black" stroke-width="3"  stroke-linejoin="round" stroke-linecap="round"  stroke-opacity="0.0" transform="translate(1, 1)"></path><path fill="none" d="M 36.6 255.0 L 109.9 249.9 L 183.2 242.3 L 256.5 231.2 L 329.7 207.1 L 403.0 111.4 L 476.3 30.2" stroke="black" stroke-width="1"  stroke-linejoin="round" stroke-linecap="round"  stroke-opacity="0.1" transform="translate(1, 1)"></path><path fill="none" d="M 36.6 255.0 L 109.9 249.9 L 183.2 242.3 L 256.5 231.2 L 329.7 207.1 L 403.0 111.4 L 476.3 30.2" stroke="#666666" stroke-width="1"  stroke-linejoin="round" stroke-linecap="round"></path><path fill="none" d="M 26.6 255.0 L 36.6 255.0 L 109.9 249.9 L 183.2 242.3 L 256.5 231.2 L 329.7 207.1 L 403.0 111.4 L 476.3 30.2 L 486.3 30.2" stroke-linejoin="round" visibility="visible" stroke="rgb(192,192,192)" stroke-opacity="0.0" stroke-width="21"  class=" highcharts-tracker" style=""></path></g><g class="highcharts-markers highcharts-tracker" visibility="visible"  transform="translate(61,53) scale(1 1)" clip-path="url(#highcharts-2)" style=""><path fill="#f45b5b" d="M 476 26.2 C 481.3 26.2 481.3 34.2 476 34.2 C 470.6 34.2 470.6 26.2 476 26.2 Z" stroke="#666666" stroke-width="1"></path><path fill="#f45b5b" d="M 403 107.4 C 408.3 107.4 408.3 115.4 403 115.4 C 397.6 115.4 397.6 107.4 403 107.4 Z" stroke="#666666" stroke-width="1"></path><path fill="#f45b5b" d="M 329 203.1 C 334.3 203.1 334.3 211.1 329 211.1 C 323.6 211.1 323.6 203.1 329 203.1 Z" stroke="#666666" stroke-width="1"></path><path fill="#f45b5b" d="M 256 227.2 C 261.3 227.2 261.3 235.2 256 235.2 C 250.6 235.2 250.6 227.2 256 227.2 Z" stroke="#666666" stroke-width="1"></path><path fill="#f45b5b" d="M 183 238.3 C 188.3 238.3 188.3 246.3 183 246.3 C 177.6 246.3 177.6 238.3 183 238.3 Z" stroke="#666666" stroke-width="1"></path><path fill="#f45b5b" d="M 109 245.9 C 114.3 245.9 114.3 253.9 109 253.9 C 103.6 253.9 103.6 245.9 109 245.9 Z" stroke="#666666" stroke-width="1"></path><path fill="#f45b5b" d="M 36 251.0 C 41.3 251.0 41.3 259.0 36 259.0 C 30.6 259.0 30.6 251.0 36 251.0 Z" stroke="#666666" stroke-width="1"></path></g><g class="highcharts-series" visibility="visible"  transform="translate(61,53) scale(1 1)" clip-path="url(#highcharts-3)"><path fill="rgb(128,133,233)" fill-opacity="0.7" d="M 36.6 268.9 L 109.9 267.4 L 183.2 264.7 L 256.5 257.5 L 329.7 245.9 L 403.0 212.0 L 476.3 176.1 476.3 225.0 403.0 233.3 329.7 252.0 256.5 261.2 183.2 267.8 109.9 270.4 36.6 271.9" ></path><path fill="none" d="M 36.6 268.9 L 109.9 267.4 L 183.2 264.7 L 256.5 257.5 L 329.7 245.9 L 403.0 212.0 L 476.3 176.1" stroke="black" stroke-width="5"  stroke-linejoin="round" stroke-linecap="round"  stroke-opacity="0.0" transform="translate(1, 1)"></path><path fill="none" d="M 36.6 268.9 L 109.9 267.4 L 183.2 264.7 L 256.5 257.5 L 329.7 245.9 L 403.0 212.0 L 476.3 176.1" stroke="black" stroke-width="3"  stroke-linejoin="round" stroke-linecap="round"  stroke-opacity="0.0" transform="translate(1, 1)"></path><path fill="none" d="M 36.6 268.9 L 109.9 267.4 L 183.2 264.7 L 256.5 257.5 L 329.7 245.9 L 403.0 212.0 L 476.3 176.1" stroke="black" stroke-width="1"  stroke-linejoin="round" stroke-linecap="round"  stroke-opacity="0.1" transform="translate(1, 1)"></path><path fill="none" d="M 36.6 268.9 L 109.9 267.4 L 183.2 264.7 L 256.5 257.5 L 329.7 245.9 L 403.0 212.0 L 476.3 176.1" stroke="#666666" stroke-width="1"  stroke-linejoin="round" stroke-linecap="round"></path><path fill="none" d="M 26.6 268.9 L 36.6 268.9 L 109.9 267.4 L 183.2 264.7 L 256.5 257.5 L 329.7 245.9 L 403.0 212.0 L 476.3 176.1 L 486.3 176.1" stroke-linejoin="round" visibility="visible" stroke="rgb(192,192,192)" stroke-opacity="0.0" stroke-width="21"  class=" highcharts-tracker" style=""></path></g><g class="highcharts-markers highcharts-tracker" visibility="visible"  transform="translate(61,53) scale(1 1)" clip-path="url(#highcharts-2)" style=""><path fill="#8085e9" d="M 476 172.1 L 480 176.1 476 180.1 472 176.1 Z" stroke="#666666" stroke-width="1"></path><path fill="#8085e9" d="M 403 208.0 L 407 212.0 403 216.0 399 212.0 Z" stroke="#666666" stroke-width="1"></path><path fill="#8085e9" d="M 329 241.9 L 333 245.9 329 249.9 325 245.9 Z" stroke="#666666" stroke-width="1"></path><path fill="#8085e9" d="M 256 253.5 L 260 257.5 256 261.5 252 257.5 Z" stroke="#666666" stroke-width="1"></path><path fill="#8085e9" d="M 183 260.7 L 187 264.7 183 268.7 179 264.7 Z" stroke="#666666" stroke-width="1"></path><path fill="#8085e9" d="M 109 263.4 L 113 267.4 109 271.4 105 267.4 Z" stroke="#666666" stroke-width="1"></path><path fill="#8085e9" d="M 36 264.9 L 40 268.9 36 272.9 32 268.9 Z" stroke="#666666" stroke-width="1"></path></g><g class="highcharts-series" visibility="visible"  transform="translate(61,53) scale(1 1)" clip-path="url(#highcharts-3)"><path fill="rgb(141,70,84)" fill-opacity="0.7" d="M 36.6 271.9 L 109.9 270.4 L 183.2 267.8 L 256.5 261.2 L 329.7 252.0 L 403.0 233.3 L 476.3 225.0 476.3 242.4 403.0 253.5 329.7 267.2 256.5 272.5 183.2 275.4 109.9 276.0 36.6 276.4" ></path><path fill="none" d="M 36.6 271.9 L 109.9 270.4 L 183.2 267.8 L 256.5 261.2 L 329.7 252.0 L 403.0 233.3 L 476.3 225.0" stroke="black" stroke-width="5"  stroke-linejoin="round" stroke-linecap="round"  stroke-opacity="0.0" transform="translate(1, 1)"></path><path fill="none" d="M 36.6 271.9 L 109.9 270.4 L 183.2 267.8 L 256.5 261.2 L 329.7 252.0 L 403.0 233.3 L 476.3 225.0" stroke="black" stroke-width="3"  stroke-linejoin="round" stroke-linecap="round"  stroke-opacity="0.0" transform="translate(1, 1)"></path><path fill="none" d="M 36.6 271.9 L 109.9 270.4 L 183.2 267.8 L 256.5 261.2 L 329.7 252.0 L 403.0 233.3 L 476.3 225.0" stroke="black" stroke-width="1"  stroke-linejoin="round" stroke-linecap="round"  stroke-opacity="0.1" transform="translate(1, 1)"></path><path fill="none" d="M 36.6 271.9 L 109.9 270.4 L 183.2 267.8 L 256.5 261.2 L 329.7 252.0 L 403.0 233.3 L 476.3 225.0" stroke="#666666" stroke-width="1"  stroke-linejoin="round" stroke-linecap="round"></path><path fill="none" d="M 26.6 271.9 L 36.6 271.9 L 109.9 270.4 L 183.2 267.8 L 256.5 261.2 L 329.7 252.0 L 403.0 233.3 L 476.3 225.0 L 486.3 225.0" stroke-linejoin="round" visibility="visible" stroke="rgb(192,192,192)" stroke-opacity="0.0" stroke-width="21"  class=" highcharts-tracker" style=""></path></g><g class="highcharts-markers highcharts-tracker" visibility="visible"  transform="translate(61,53) scale(1 1)" clip-path="url(#highcharts-2)" style=""><path fill="#8d4654" d="M 472 221.0 L 480 221.0 480 229.0 472 229.0 Z" stroke="#666666" stroke-width="1"></path><path fill="#8d4654" d="M 399 229.3 L 407 229.3 407 237.3 399 237.3 Z" stroke="#666666" stroke-width="1"></path><path fill="#8d4654" d="M 325 248.0 L 333 248.0 333 256.0 325 256.0 Z" stroke="#666666" stroke-width="1"></path><path fill="#8d4654" d="M 252 257.2 L 260 257.2 260 265.2 252 265.2 Z" stroke="#666666" stroke-width="1"></path><path fill="#8d4654" d="M 179 263.8 L 187 263.8 187 271.8 179 271.8 Z" stroke="#666666" stroke-width="1"></path><path fill="#8d4654" d="M 105 266.4 L 113 266.4 113 274.4 105 274.4 Z" stroke="#666666" stroke-width="1"></path><path fill="#8d4654" d="M 32 267.9 L 40 267.9 40 275.9 32 275.9 Z" stroke="#666666" stroke-width="1"></path></g><g class="highcharts-series" visibility="visible"  transform="translate(61,53) scale(1 1)" clip-path="url(#highcharts-3)"><path fill="rgb(119,152,191)" fill-opacity="0.7" d="M 36.6 276.4 L 109.9 276.0 L 183.2 275.4 L 256.5 272.5 L 329.7 267.2 L 403.0 253.5 L 476.3 242.4 476.3 275.7 403.0 276.1 329.7 276.6 256.5 276.8 183.2 276.9 109.9 276.9 36.6 276.9" ></path><path fill="none" d="M 36.6 276.4 L 109.9 276.0 L 183.2 275.4 L 256.5 272.5 L 329.7 267.2 L 403.0 253.5 L 476.3 242.4" stroke="black" stroke-width="5"  stroke-linejoin="round" stroke-linecap="round"  stroke-opacity="0.0" transform="translate(1, 1)"></path><path fill="none" d="M 36.6 276.4 L 109.9 276.0 L 183.2 275.4 L 256.5 272.5 L 329.7 267.2 L 403.0 253.5 L 476.3 242.4" stroke="black" stroke-width="3"  stroke-linejoin="round" stroke-linecap="round"  stroke-opacity="0.0" transform="translate(1, 1)"></path><path fill="none" d="M 36.6 276.4 L 109.9 276.0 L 183.2 275.4 L 256.5 272.5 L 329.7 267.2 L 403.0 253.5 L 476.3 242.4" stroke="black" stroke-width="1"  stroke-linejoin="round" stroke-linecap="round"  stroke-opacity="0.1" transform="translate(1, 1)"></path><path fill="none" d="M 36.6 276.4 L 109.9 276.0 L 183.2 275.4 L 256.5 272.5 L 329.7 267.2 L 403.0 253.5 L 476.3 242.4" stroke="#666666" stroke-width="1"  stroke-linejoin="round" stroke-linecap="round"></path><path fill="none" d="M 26.6 276.4 L 36.6 276.4 L 109.9 276.0 L 183.2 275.4 L 256.5 272.5 L 329.7 267.2 L 403.0 253.5 L 476.3 242.4 L 486.3 242.4" stroke-linejoin="round" visibility="visible" stroke="rgb(192,192,192)" stroke-opacity="0.0" stroke-width="21"  class=" highcharts-tracker" style=""></path></g><g class="highcharts-markers highcharts-tracker" visibility="visible"  transform="translate(61,53) scale(1 1)" clip-path="url(#highcharts-2)" style=""><path fill="#7798BF" d="M 476 238.4 L 480 246.4 472 246.4 Z" stroke="#666666" stroke-width="1"></path><path fill="#7798BF" d="M 403 249.5 L 407 257.5 399 257.5 Z" stroke="#666666" stroke-width="1"></path><path fill="#7798BF" d="M 329 263.2 L 333 271.2 325 271.2 Z" stroke="#666666" stroke-width="1"></path><path fill="#7798BF" d="M 256 268.5 L 260 276.5 252 276.5 Z" stroke="#666666" stroke-width="1"></path><path fill="#7798BF" d="M 183 271.4 L 187 279.4 179 279.4 Z" stroke="#666666" stroke-width="1"></path><path fill="#7798BF" d="M 109 272.0 L 113 280.0 105 280.0 Z" stroke="#666666" stroke-width="1"></path><path fill="#7798BF" d="M 36 272.4 L 40 280.4 32 280.4 Z" stroke="#666666" stroke-width="1"></path></g><g class="highcharts-series" visibility="visible"  transform="translate(61,53) scale(1 1)" clip-path="url(#highcharts-3)"><path fill="rgb(170,238,238)" fill-opacity="0.7" d="M 36.6 276.9 L 109.9 276.9 L 183.2 276.9 L 256.5 276.8 L 329.7 276.6 L 403.0 276.1 L 476.3 275.7 476.3 277 403.0 277 329.7 277 256.5 277 183.2 277 109.9 277 36.6 277" ></path><path fill="none" d="M 36.6 276.9 L 109.9 276.9 L 183.2 276.9 L 256.5 276.8 L 329.7 276.6 L 403.0 276.1 L 476.3 275.7" stroke="black" stroke-width="5"  stroke-linejoin="round" stroke-linecap="round"  stroke-opacity="0.0" transform="translate(1, 1)"></path><path fill="none" d="M 36.6 276.9 L 109.9 276.9 L 183.2 276.9 L 256.5 276.8 L 329.7 276.6 L 403.0 276.1 L 476.3 275.7" stroke="black" stroke-width="3"  stroke-linejoin="round" stroke-linecap="round"  stroke-opacity="0.0" transform="translate(1, 1)"></path><path fill="none" d="M 36.6 276.9 L 109.9 276.9 L 183.2 276.9 L 256.5 276.8 L 329.7 276.6 L 403.0 276.1 L 476.3 275.7" stroke="black" stroke-width="1"  stroke-linejoin="round" stroke-linecap="round"  stroke-opacity="0.1" transform="translate(1, 1)"></path><path fill="none" d="M 36.6 276.9 L 109.9 276.9 L 183.2 276.9 L 256.5 276.8 L 329.7 276.6 L 403.0 276.1 L 476.3 275.7" stroke="#666666" stroke-width="1"  stroke-linejoin="round" stroke-linecap="round"></path><path fill="none" d="M 26.6 276.9 L 36.6 276.9 L 109.9 276.9 L 183.2 276.9 L 256.5 276.8 L 329.7 276.6 L 403.0 276.1 L 476.3 275.7 L 486.3 275.7" stroke-linejoin="round" visibility="visible" stroke="rgb(192,192,192)" stroke-opacity="0.0" stroke-width="21"  class=" highcharts-tracker" style=""></path></g><g class="highcharts-markers highcharts-tracker" visibility="visible"  transform="translate(61,53) scale(1 1)" clip-path="url(#highcharts-2)" style=""><path fill="#aaeeee" d="M 472 271.7 L 480 271.7 476 279.7 Z" stroke="#666666" stroke-width="1"></path><path fill="#aaeeee" d="M 399 272.1 L 407 272.1 403 280.1 Z" stroke="#666666" stroke-width="1"></path><path fill="#aaeeee" d="M 325 272.6 L 333 272.6 329 280.6 Z" stroke="#666666" stroke-width="1"></path><path fill="#aaeeee" d="M 252 272.8 L 260 272.8 256 280.8 Z" stroke="#666666" stroke-width="1"></path><path fill="#aaeeee" d="M 179 272.9 L 187 272.9 183 280.9 Z" stroke="#666666" stroke-width="1"></path><path fill="#aaeeee" d="M 105 272.9 L 113 272.9 109 280.9 Z" stroke="#666666" stroke-width="1"></path><path fill="#aaeeee" d="M 32 272.9 L 40 272.9 36 280.9 Z" stroke="#666666" stroke-width="1"></path></g></g><text x="292" text-anchor="middle" class="highcharts-title"  style="color:black;font-size:16px;font-weight:bold;fill:black;width:520px;" y="22"><tspan>Historic and Estimated Worldwide Population Growth by Region</tspan></text><text x="292" text-anchor="middle" class="highcharts-subtitle"  style="color:black;fill:black;width:520px;" y="40"><tspan>Source: Wikipedia.org</tspan></text><g class="highcharts-legend"  transform="translate(94,361)"><g ><g><g class="highcharts-legend-item"  transform="translate(8,3)"><text x="21" style="color:#333333;font-size:13px;font-weight:bold;cursor:pointer;fill:#333333;" text-anchor="start"  y="16">Asia</text><rect x="0" y="4" width="16" height="13"  fill="#f45b5b"></rect></g><g class="highcharts-legend-item"  transform="translate(73.5,3)"><text x="21" y="16" style="color:#333333;font-size:13px;font-weight:bold;cursor:pointer;fill:#333333;" text-anchor="start" >Africa</text><rect x="0" y="4" width="16" height="13"  fill="#8085e9"></rect></g><g class="highcharts-legend-item"  transform="translate(149.8,3)"><text x="21" y="16" style="color:#333333;font-size:13px;font-weight:bold;cursor:pointer;fill:#333333;" text-anchor="start" >Europe</text><rect x="0" y="4" width="16" height="13"  fill="#8d4654"></rect></g><g class="highcharts-legend-item"  transform="translate(232,3)"><text x="21" y="16" style="color:#333333;font-size:13px;font-weight:bold;cursor:pointer;fill:#333333;" text-anchor="start" >America</text><rect x="0" y="4" width="16" height="13"  fill="#7798BF"></rect></g><g class="highcharts-legend-item"  transform="translate(320.6,3)"><text x="21" y="16" style="color:#333333;font-size:13px;font-weight:bold;cursor:pointer;fill:#333333;" text-anchor="start" >Oceania</text><rect x="0" y="4" width="16" height="13"  fill="#aaeeee"></rect></g></g></g></g><g class="highcharts-axis-labels highcharts-xaxis-labels" ><text x="97.6" style="color:#6e6e70;cursor:default;font-size:11px;fill:#6e6e70;width:71px;text-overflow:clip;" text-anchor="middle" transform="translate(0,0)" y="349" opacity="1">1750</text><text x="170.9" style="color:#6e6e70;cursor:default;font-size:11px;fill:#6e6e70;width:71px;text-overflow:clip;" text-anchor="middle" transform="translate(0,0)" y="349" opacity="1">1800</text><text x="244.2" style="color:#6e6e70;cursor:default;font-size:11px;fill:#6e6e70;width:71px;text-overflow:clip;" text-anchor="middle" transform="translate(0,0)" y="349" opacity="1">1850</text><text x="317.5" style="color:#6e6e70;cursor:default;font-size:11px;fill:#6e6e70;width:71px;text-overflow:clip;" text-anchor="middle" transform="translate(0,0)" y="349" opacity="1">1900</text><text x="390.7" style="color:#6e6e70;cursor:default;font-size:11px;fill:#6e6e70;width:71px;text-overflow:clip;" text-anchor="middle" transform="translate(0,0)" y="349" opacity="1">1950</text><text x="464.0" style="color:#6e6e70;cursor:default;font-size:11px;fill:#6e6e70;width:71px;text-overflow:clip;" text-anchor="middle" transform="translate(0,0)" y="349" opacity="1">1999</text><text x="537.3" style="color:#6e6e70;cursor:default;font-size:11px;fill:#6e6e70;width:71px;text-overflow:clip;" text-anchor="middle" transform="translate(0,0)" y="349" opacity="1">2050</text></g><g class="highcharts-axis-labels highcharts-yaxis-labels" ><text x="46" style="color:#6e6e70;cursor:default;font-size:11px;fill:#6e6e70;width:183px;text-overflow:clip;" text-anchor="end" transform="translate(0,0)" y="336" opacity="1">0</text><text x="46" style="color:#6e6e70;cursor:default;font-size:11px;fill:#6e6e70;width:183px;text-overflow:clip;" text-anchor="end" transform="translate(0,0)" y="266" opacity="1">2.5</text><text x="46" style="color:#6e6e70;cursor:default;font-size:11px;fill:#6e6e70;width:183px;text-overflow:clip;" text-anchor="end" transform="translate(0,0)" y="197" opacity="1">5</text><text x="46" style="color:#6e6e70;cursor:default;font-size:11px;fill:#6e6e70;width:183px;text-overflow:clip;" text-anchor="end" transform="translate(0,0)" y="128" opacity="1">7.5</text><text x="46" style="color:#6e6e70;cursor:default;font-size:11px;fill:#6e6e70;width:183px;text-overflow:clip;" text-anchor="end" transform="translate(0,0)" y="59" opacity="1">10</text></g><g class="highcharts-tooltip"  style="cursor:default;padding:0;white-space:nowrap;" transform="translate(0,-9999)"><path fill="none" d="M 3 0 L 13 0 C 16 0 16 0 16 3 L 16 13 C 16 16 16 16 13 16 L 3 16 C 0 16 0 16 0 13 L 0 3 C 0 0 0 0 3 0"  stroke="black" stroke-opacity="0.0" stroke-width="5" transform="translate(1, 1)"></path><path fill="none" d="M 3 0 L 13 0 C 16 0 16 0 16 3 L 16 13 C 16 16 16 16 13 16 L 3 16 C 0 16 0 16 0 13 L 0 3 C 0 0 0 0 3 0"  stroke="black" stroke-opacity="0.0" stroke-width="3" transform="translate(1, 1)"></path><path fill="none" d="M 3 0 L 13 0 C 16 0 16 0 16 3 L 16 13 C 16 16 16 16 13 16 L 3 16 C 0 16 0 16 0 13 L 0 3 C 0 0 0 0 3 0"  stroke="black" stroke-opacity="0.1" stroke-width="1" transform="translate(1, 1)"></path><path fill="rgb(249, 249, 249)" fill-opacity=" .85" d="M 3 0 L 13 0 C 16 0 16 0 16 3 L 16 13 C 16 16 16 16 13 16 L 3 16 C 0 16 0 16 0 13 L 0 3 C 0 0 0 0 3 0"></path><text x="8"  style="font-size:12px;color:#333333;fill:#333333;" y="20"></text></g></svg>