<svg version="1.1" style="font-family:&quot;lucida grande&quot;, &quot;lucida sans unicode&quot;, arial, helvetica, sans-serif;font-size:12px;" xmlns="http://www.w3.org/2000/svg" width="584" height="400" viewBox="0 0 584 400"><desc>Created with Highcharts 4.1.6</desc><defs><clipPath id="highcharts-1"><rect x="0" y="0" width="535" height="280"></rect></clipPath><clipPath id="highcharts-2"><rect x="-99" y="-46" width="634" height="400"></rect></clipPath><clipPath id="highcharts-3"><rect x="0" y="0" width="535" height="280"></rect></clipPath></defs><rect x="0" y="0" width="584" height="400" strokeWidth="0" fill="#FFFFFF" class=" highcharts-background" stroke="transparent"></rect><g class="highcharts-grid" ></g><g class="highcharts-grid" ><path fill="none" d="M 39 326.5 L 574 326.5" stroke="#D8D8D8" stroke-width="1"  opacity="1"></path><path fill="none" d="M 39 279.5 L 574 279.5" stroke="#D8D8D8" stroke-width="1"  opacity="1"></path><path fill="none" d="M 39 233.5 L 574 233.5" stroke="#D8D8D8" stroke-width="1"  opacity="1"></path><path fill="none" d="M 39 186.5 L 574 186.5" stroke="#D8D8D8" stroke-width="1"  opacity="1"></path><path fill="none" d="M 39 139.5 L 574 139.5" stroke="#D8D8D8" stroke-width="1"  opacity="1"></path><path fill="none" d="M 39 93.5 L 574 93.5" stroke="#D8D8D8" stroke-width="1"  opacity="1"></path><path fill="none" d="M 39 45.5 L 574 45.5" stroke="#D8D8D8" stroke-width="1"  opacity="1"></path></g><g class="highcharts-axis" ><path fill="none" d="M 131.5 326 L 131.5 336" stroke="#C0D0E0" stroke-width="1" opacity="1"></path><path fill="none" d="M 253.5 326 L 253.5 336" stroke="#C0D0E0" stroke-width="1" opacity="1"></path><path fill="none" d="M 375.5 326 L 375.5 336" stroke="#C0D0E0" stroke-width="1" opacity="1"></path><path fill="none" d="M 498.5 326 L 498.5 336" stroke="#C0D0E0" stroke-width="1" opacity="1"></path><path fill="none" d="M 39 326.5 L 574 326.5" stroke="#C0D0E0" stroke-width="1"  visibility="visible"></path></g><g class="highcharts-axis" ></g><g class="highcharts-series-group" ><g class="highcharts-series" visibility="visible"  transform="translate(39,46) scale(1 1)" clip-path="url(#highcharts-3)"><path fill="rgb(124,181,236)" fill-opacity="0.3" d="M 5.2 193.2 L 22.7 191.3 L 40.2 182 L 57.6 170.8 L 75.1 172.6 L 92.6 160.5 L 110.1 200.6 L 127.6 228.6 L 145.1 240.8 L 162.5 218.4 L 180.0 226.8 L 197.5 224 L 215.0 218.4 L 232.5 216.5 L 250.0 209.0 L 267.5 199.7 L 284.9 220.2 L 302.4 203.4 L 319.9 194.1 L 337.4 204.3 L 354.9 212.8 L 372.4 214.6 L 389.8 214.6 L 407.3 208.1 L 424.8 210.9 L 442.3 209.0 L 459.8 215.6 L 477.3 224 L 494.7 225.8 L 512.2 216.5 L 529.7 225.8 L 529.7 176.3 L 512.2 154 L 494.7 160.5 L 477.3 146.5 L 459.8 138.1 L 442.3 140.9 L 424.8 145.6 L 407.3 155.8 L 389.8 167.0 L 372.4 132.5 L 354.9 182 L 337.4 167.0 L 319.9 125.0 L 302.4 93.3 L 284.9 115.7 L 267.5 143.7 L 250.0 117.6 L 232.5 133.4 L 215.0 105.4 L 197.5 109.1 L 180.0 105.4 L 162.5 123.1 L 145.1 104.5 L 127.6 126.9 L 110.1 95.1 L 92.6 86.7 L 75.1 93.3 L 57.6 40.1 L 40.2 50.3 L 22.7 67.1 L 5.2 68.1" ></path><path fill="none" d="M 5.2 193.2 L 22.7 191.3 L 40.2 182 L 57.6 170.8 L 75.1 172.6 L 92.6 160.5 L 110.1 200.6 L 127.6 228.6 L 145.1 240.8 L 162.5 218.4 L 180.0 226.8 L 197.5 224 L 215.0 218.4 L 232.5 216.5 L 250.0 209.0 L 267.5 199.7 L 284.9 220.2 L 302.4 203.4 L 319.9 194.1 L 337.4 204.3 L 354.9 212.8 L 372.4 214.6 L 389.8 214.6 L 407.3 208.1 L 424.8 210.9 L 442.3 209.0 L 459.8 215.6 L 477.3 224 L 494.7 225.8 L 512.2 216.5 L 529.7 225.8 M 529.7 176.3 L 512.2 154 L 494.7 160.5 L 477.3 146.5 L 459.8 138.1 L 442.3 140.9 L 424.8 145.6 L 407.3 155.8 L 389.8 167.0 L 372.4 132.5 L 354.9 182 L 337.4 167.0 L 319.9 125.0 L 302.4 93.3 L 284.9 115.7 L 267.5 143.7 L 250.0 117.6 L 232.5 133.4 L 215.0 105.4 L 197.5 109.1 L 180.0 105.4 L 162.5 123.1 L 145.1 104.5 L 127.6 126.9 L 110.1 95.1 L 92.6 86.7 L 75.1 93.3 L 57.6 40.1 L 40.2 50.3 L 22.7 67.1 L 5.2 68.1"  stroke-linejoin="round" stroke-linecap="round"></path><path fill="rgb(192,192,192)" fill-opacity="0.0" d="M 5.2 193.2 L 22.7 191.3 L 40.2 182 L 57.6 170.8 L 75.1 172.6 L 92.6 160.5 L 110.1 200.6 L 127.6 228.6 L 145.1 240.8 L 162.5 218.4 L 180.0 226.8 L 197.5 224 L 215.0 218.4 L 232.5 216.5 L 250.0 209.0 L 267.5 199.7 L 284.9 220.2 L 302.4 203.4 L 319.9 194.1 L 337.4 204.3 L 354.9 212.8 L 372.4 214.6 L 389.8 214.6 L 407.3 208.1 L 424.8 210.9 L 442.3 209.0 L 459.8 215.6 L 477.3 224 L 494.7 225.8 L 512.2 216.5 L 529.7 225.8 L 529.7 176.3 L 512.2 154 L 494.7 160.5 L 477.3 146.5 L 459.8 138.1 L 442.3 140.9 L 424.8 145.6 L 407.3 155.8 L 389.8 167.0 L 372.4 132.5 L 354.9 182 L 337.4 167.0 L 319.9 125.0 L 302.4 93.3 L 284.9 115.7 L 267.5 143.7 L 250.0 117.6 L 232.5 133.4 L 215.0 105.4 L 197.5 109.1 L 180.0 105.4 L 162.5 123.1 L 145.1 104.5 L 127.6 126.9 L 110.1 95.1 L 92.6 86.7 L 75.1 93.3 L 57.6 40.1 L 40.2 50.3 L 22.7 67.1 L 5.2 68.1" stroke-linejoin="round" visibility="visible"  class=" highcharts-tracker" style=""></path></g><g class="highcharts-markers highcharts-tracker" visibility="visible"  transform="translate(39,46) scale(1 1)" clip-path="url(#highcharts-2)" style=""></g><g class="highcharts-series" visibility="visible"  transform="translate(39,46) scale(1 1)" clip-path="url(#highcharts-3)"><path fill="none" d="M 5.2 126 L 22.7 120.3 L 40.2 112 L 57.6 104.5 L 75.1 126.9 L 92.6 127.8 L 110.1 155.8 L 127.6 182.9 L 145.1 173.6 L 162.5 161.4 L 180.0 163.3 L 197.5 162.3 L 215.0 161.4 L 232.5 169.8 L 250.0 161.4 L 267.5 174.5 L 284.9 160.5 L 302.4 157.7 L 319.9 166.1 L 337.4 192.2 L 354.9 198.8 L 372.4 180.1 L 389.8 190.3 L 407.3 183.8 L 424.8 183.8 L 442.3 179.2 L 459.8 184.8 L 477.3 188.5 L 494.7 192.2 L 512.2 186.6 L 529.7 199.7" stroke="#7cb5ec" stroke-width="2"  stroke-linejoin="round" stroke-linecap="round"></path><path fill="none" d="M -4.7 126 L 5.2 126 L 22.7 120.3 L 40.2 112 L 57.6 104.5 L 75.1 126.9 L 92.6 127.8 L 110.1 155.8 L 127.6 182.9 L 145.1 173.6 L 162.5 161.4 L 180.0 163.3 L 197.5 162.3 L 215.0 161.4 L 232.5 169.8 L 250.0 161.4 L 267.5 174.5 L 284.9 160.5 L 302.4 157.7 L 319.9 166.1 L 337.4 192.2 L 354.9 198.8 L 372.4 180.1 L 389.8 190.3 L 407.3 183.8 L 424.8 183.8 L 442.3 179.2 L 459.8 184.8 L 477.3 188.5 L 494.7 192.2 L 512.2 186.6 L 529.7 199.7 L 539.7 199.7" stroke-linejoin="round" visibility="visible" stroke="rgb(192,192,192)" stroke-opacity="0.0" stroke-width="22"  class=" highcharts-tracker" style=""></path></g><g class="highcharts-markers highcharts-tracker" visibility="visible"  transform="translate(39,46) scale(1 1)" clip-path="url(#highcharts-2)" style=""><path fill="white" d="M 529 195.7 C 534.3 195.7 534.3 203.7 529 203.7 C 523.6 203.7 523.6 195.7 529 195.7 Z" stroke="#7cb5ec" stroke-width="2"></path><path fill="white" d="M 512 182.6 C 517.3 182.6 517.3 190.6 512 190.6 C 506.6 190.6 506.6 182.6 512 182.6 Z" stroke="#7cb5ec" stroke-width="2"></path><path fill="white" d="M 494 188.2 C 499.3 188.2 499.3 196.2 494 196.2 C 488.6 196.2 488.6 188.2 494 188.2 Z" stroke="#7cb5ec" stroke-width="2"></path><path fill="white" d="M 477 184.5 C 482.3 184.5 482.3 192.5 477 192.5 C 471.6 192.5 471.6 184.5 477 184.5 Z" stroke="#7cb5ec" stroke-width="2"></path><path fill="white" d="M 459 180.8 C 464.3 180.8 464.3 188.8 459 188.8 C 453.6 188.8 453.6 180.8 459 180.8 Z" stroke="#7cb5ec" stroke-width="2"></path><path fill="white" d="M 442 175.2 C 447.3 175.2 447.3 183.2 442 183.2 C 436.6 183.2 436.6 175.2 442 175.2 Z" stroke="#7cb5ec" stroke-width="2"></path><path fill="white" d="M 424 179.8 C 429.3 179.8 429.3 187.8 424 187.8 C 418.6 187.8 418.6 179.8 424 179.8 Z" stroke="#7cb5ec" stroke-width="2"></path><path fill="white" d="M 407 179.8 C 412.3 179.8 412.3 187.8 407 187.8 C 401.6 187.8 401.6 179.8 407 179.8 Z" stroke="#7cb5ec" stroke-width="2"></path><path fill="white" d="M 389 186.3 C 394.3 186.3 394.3 194.3 389 194.3 C 383.6 194.3 383.6 186.3 389 186.3 Z" stroke="#7cb5ec" stroke-width="2"></path><path fill="white" d="M 372 176.1 C 377.3 176.1 377.3 184.1 372 184.1 C 366.6 184.1 366.6 176.1 372 176.1 Z" stroke="#7cb5ec" stroke-width="2"></path><path fill="white" d="M 354 194.8 C 359.3 194.8 359.3 202.8 354 202.8 C 348.6 202.8 348.6 194.8 354 194.8 Z" stroke="#7cb5ec" stroke-width="2"></path><path fill="white" d="M 337 188.2 C 342.3 188.2 342.3 196.2 337 196.2 C 331.6 196.2 331.6 188.2 337 188.2 Z" stroke="#7cb5ec" stroke-width="2"></path><path fill="white" d="M 319 162.1 C 324.3 162.1 324.3 170.1 319 170.1 C 313.6 170.1 313.6 162.1 319 162.1 Z" stroke="#7cb5ec" stroke-width="2"></path><path fill="white" d="M 302 153.7 C 307.3 153.7 307.3 161.7 302 161.7 C 296.6 161.7 296.6 153.7 302 153.7 Z" stroke="#7cb5ec" stroke-width="2"></path><path fill="white" d="M 284 156.5 C 289.3 156.5 289.3 164.5 284 164.5 C 278.6 164.5 278.6 156.5 284 156.5 Z" stroke="#7cb5ec" stroke-width="2"></path><path fill="white" d="M 267 170.5 C 272.3 170.5 272.3 178.5 267 178.5 C 261.6 178.5 261.6 170.5 267 170.5 Z" stroke="#7cb5ec" stroke-width="2"></path><path fill="white" d="M 250 157.4 C 255.3 157.4 255.3 165.4 250 165.4 C 244.6 165.4 244.6 157.4 250 157.4 Z" stroke="#7cb5ec" stroke-width="2"></path><path fill="white" d="M 232 165.8 C 237.3 165.8 237.3 173.8 232 173.8 C 226.6 173.8 226.6 165.8 232 165.8 Z" stroke="#7cb5ec" stroke-width="2"></path><path fill="white" d="M 215 157.4 C 220.3 157.4 220.3 165.4 215 165.4 C 209.6 165.4 209.6 157.4 215 157.4 Z" stroke="#7cb5ec" stroke-width="2"></path><path fill="white" d="M 197 158.3 C 202.3 158.3 202.3 166.3 197 166.3 C 191.6 166.3 191.6 158.3 197 158.3 Z" stroke="#7cb5ec" stroke-width="2"></path><path fill="white" d="M 180 159.3 C 185.3 159.3 185.3 167.3 180 167.3 C 174.6 167.3 174.6 159.3 180 159.3 Z" stroke="#7cb5ec" stroke-width="2"></path><path fill="white" d="M 162 157.4 C 167.3 157.4 167.3 165.4 162 165.4 C 156.6 165.4 156.6 157.4 162 157.4 Z" stroke="#7cb5ec" stroke-width="2"></path><path fill="white" d="M 145 169.6 C 150.3 169.6 150.3 177.6 145 177.6 C 139.6 177.6 139.6 169.6 145 169.6 Z" stroke="#7cb5ec" stroke-width="2"></path><path fill="white" d="M 127 178.9 C 132.3 178.9 132.3 186.9 127 186.9 C 121.6 186.9 121.6 178.9 127 178.9 Z" stroke="#7cb5ec" stroke-width="2"></path><path fill="white" d="M 110 151.8 C 115.3 151.8 115.3 159.8 110 159.8 C 104.6 159.8 104.6 151.8 110 151.8 Z" stroke="#7cb5ec" stroke-width="2"></path><path fill="white" d="M 92 123.8 C 97.3 123.8 97.3 131.8 92 131.8 C 86.6 131.8 86.6 123.8 92 123.8 Z" stroke="#7cb5ec" stroke-width="2"></path><path fill="white" d="M 75 122.9 C 80.3 122.9 80.3 130.9 75 130.9 C 69.6 130.9 69.6 122.9 75 122.9 Z" stroke="#7cb5ec" stroke-width="2"></path><path fill="white" d="M 57 100.5 C 62.3 100.5 62.3 108.5 57 108.5 C 51.6 108.5 51.6 100.5 57 100.5 Z" stroke="#7cb5ec" stroke-width="2"></path><path fill="white" d="M 40 108 C 45.3 108 45.3 116 40 116 C 34.6 116 34.6 108 40 108 Z" stroke="#7cb5ec" stroke-width="2"></path><path fill="white" d="M 22 116.3 C 27.3 116.3 27.3 124.3 22 124.3 C 16.6 124.3 16.6 116.3 22 116.3 Z" stroke="#7cb5ec" stroke-width="2"></path><path fill="white" d="M 5 122 C 10.3 122 10.3 130 5 130 C -0.3 130 -0.3 122 5 122 Z" stroke="#7cb5ec" stroke-width="2"></path></g></g><text x="292" text-anchor="middle" class="highcharts-title"  style="color:#333333;font-size:18px;fill:#333333;width:520px;" y="24"><tspan>July temperatures</tspan></text><g class="highcharts-legend"  transform="translate(234,359)"><g ><g><g class="highcharts-legend-item"  transform="translate(8,3)"><path fill="none" d="M 0 11 L 16 11" stroke="#7cb5ec" stroke-width="2"></path><path fill="white" d="M 8 7 C 13.3 7 13.3 15 8 15 C 2.6 15 2.6 7 8 7 Z" stroke="#7cb5ec" stroke-width="2"></path><text x="21" style="color:#333333;font-size:12px;font-weight:bold;cursor:pointer;fill:#333333;" text-anchor="start"  y="15">Temperature</text></g></g></g></g><g class="highcharts-axis-labels highcharts-xaxis-labels" ><text x="131.6" style="color:#606060;cursor:default;font-size:11px;fill:#606060;width:178px;text-overflow:clip;" text-anchor="middle" transform="translate(0,0)" y="345" opacity="1"><tspan>6. Jul</tspan></text><text x="254.0" style="color:#606060;cursor:default;font-size:11px;fill:#606060;width:178px;text-overflow:clip;" text-anchor="middle" transform="translate(0,0)" y="345" opacity="1"><tspan>13. Jul</tspan></text><text x="376.4" style="color:#606060;cursor:default;font-size:11px;fill:#606060;width:178px;text-overflow:clip;" text-anchor="middle" transform="translate(0,0)" y="345" opacity="1"><tspan>20. Jul</tspan></text><text x="498.8" style="color:#606060;cursor:default;font-size:11px;fill:#606060;width:178px;text-overflow:clip;" text-anchor="middle" transform="translate(0,0)" y="345" opacity="1"><tspan>27. Jul</tspan></text></g><g class="highcharts-axis-labels highcharts-yaxis-labels" ><text x="24" style="color:#606060;cursor:default;font-size:11px;fill:#606060;width:183px;text-overflow:clip;" text-anchor="end" transform="translate(0,0)" y="331" opacity="1">5</text><text x="24" style="color:#606060;cursor:default;font-size:11px;fill:#606060;width:183px;text-overflow:clip;" text-anchor="end" transform="translate(0,0)" y="284" opacity="1">10</text><text x="24" style="color:#606060;cursor:default;font-size:11px;fill:#606060;width:183px;text-overflow:clip;" text-anchor="end" transform="translate(0,0)" y="237" opacity="1">15</text><text x="24" style="color:#606060;cursor:default;font-size:11px;fill:#606060;width:183px;text-overflow:clip;" text-anchor="end" transform="translate(0,0)" y="191" opacity="1">20</text><text x="24" style="color:#606060;cursor:default;font-size:11px;fill:#606060;width:183px;text-overflow:clip;" text-anchor="end" transform="translate(0,0)" y="144" opacity="1">25</text><text x="24" style="color:#606060;cursor:default;font-size:11px;fill:#606060;width:183px;text-overflow:clip;" text-anchor="end" transform="translate(0,0)" y="97" opacity="1">30</text><text x="24" style="color:#606060;cursor:default;font-size:11px;fill:#606060;width:183px;text-overflow:clip;" text-anchor="end" transform="translate(0,0)" y="51" opacity="1">35</text></g><g class="highcharts-tooltip"  style="cursor:default;padding:0;white-space:nowrap;" transform="translate(0,-9999)"><path fill="none" d="M 3.5 0.5 L 13.5 0.5 C 16.5 0.5 16.5 0.5 16.5 3.5 L 16.5 13.5 C 16.5 16.5 16.5 16.5 13.5 16.5 L 3.5 16.5 C 0.5 16.5 0.5 16.5 0.5 13.5 L 0.5 3.5 C 0.5 0.5 0.5 0.5 3.5 0.5"  stroke="black" stroke-opacity="0.0" stroke-width="5" transform="translate(1, 1)"></path><path fill="none" d="M 3.5 0.5 L 13.5 0.5 C 16.5 0.5 16.5 0.5 16.5 3.5 L 16.5 13.5 C 16.5 16.5 16.5 16.5 13.5 16.5 L 3.5 16.5 C 0.5 16.5 0.5 16.5 0.5 13.5 L 0.5 3.5 C 0.5 0.5 0.5 0.5 3.5 0.5"  stroke="black" stroke-opacity="0.0" stroke-width="3" transform="translate(1, 1)"></path><path fill="none" d="M 3.5 0.5 L 13.5 0.5 C 16.5 0.5 16.5 0.5 16.5 3.5 L 16.5 13.5 C 16.5 16.5 16.5 16.5 13.5 16.5 L 3.5 16.5 C 0.5 16.5 0.5 16.5 0.5 13.5 L 0.5 3.5 C 0.5 0.5 0.5 0.5 3.5 0.5"  stroke="black" stroke-opacity="0.1" stroke-width="1" transform="translate(1, 1)"></path><path fill="rgb(249, 249, 249)" fill-opacity=" .85" d="M 3.5 0.5 L 13.5 0.5 C 16.5 0.5 16.5 0.5 16.5 3.5 L 16.5 13.5 C 16.5 16.5 16.5 16.5 13.5 16.5 L 3.5 16.5 C 0.5 16.5 0.5 16.5 0.5 13.5 L 0.5 3.5 C 0.5 0.5 0.5 0.5 3.5 0.5"></path><text x="8"  style="font-size:12px;color:#333333;fill:#333333;" y="20"></text></g></svg>