<svg version="1.1" style="font-family:&quot;lucida grande&quot;, &quot;lucida sans unicode&quot;, arial, helvetica, sans-serif;font-size:12px;" xmlns="http://www.w3.org/2000/svg" width="584" height="400" viewBox="0 0 584 400"><desc>Created with Highcharts 4.1.6</desc><defs><clipPath id="highcharts-1"><rect x="0" y="0" width="517" height="259"></rect></clipPath><clipPath id="highcharts-2"><rect x="-99" y="-46" width="616" height="400"></rect></clipPath><clipPath id="highcharts-3"><rect x="0" y="0" width="517" height="259"></rect></clipPath></defs><rect x="0" y="0" width="584" height="400" strokeWidth="0" fill="#FFFFFF" class=" highcharts-background" stroke="transparent"></rect><g class="highcharts-grid" ></g><g class="highcharts-grid" ><path fill="none" d="M 57 305.5 L 574 305.5" stroke="#D8D8D8" stroke-width="1"  opacity="1"></path><path fill="none" d="M 57 240.5 L 574 240.5" stroke="#D8D8D8" stroke-width="1"  opacity="1"></path><path fill="none" d="M 57 176.5 L 574 176.5" stroke="#D8D8D8" stroke-width="1"  opacity="1"></path><path fill="none" d="M 57 111.5 L 574 111.5" stroke="#D8D8D8" stroke-width="1"  opacity="1"></path><path fill="none" d="M 57 45.5 L 574 45.5" stroke="#D8D8D8" stroke-width="1"  opacity="1"></path></g><g class="highcharts-axis" ><path fill="none" d="M 121.5 305 L 121.5 315" stroke="#C0D0E0" stroke-width="1" opacity="1"></path><path fill="none" d="M 185.5 305 L 185.5 315" stroke="#C0D0E0" stroke-width="1" opacity="1"></path><path fill="none" d="M 250.5 305 L 250.5 315" stroke="#C0D0E0" stroke-width="1" opacity="1"></path><path fill="none" d="M 315.5 305 L 315.5 315" stroke="#C0D0E0" stroke-width="1" opacity="1"></path><path fill="none" d="M 379.5 305 L 379.5 315" stroke="#C0D0E0" stroke-width="1" opacity="1"></path><path fill="none" d="M 444.5 305 L 444.5 315" stroke="#C0D0E0" stroke-width="1" opacity="1"></path><path fill="none" d="M 508.5 305 L 508.5 315" stroke="#C0D0E0" stroke-width="1" opacity="1"></path><path fill="none" d="M 574.5 305 L 574.5 315" stroke="#C0D0E0" stroke-width="1" opacity="1"></path><path fill="none" d="M 56.5 305 L 56.5 315" stroke="#C0D0E0" stroke-width="1" opacity="1"></path><path fill="none" d="M 57 305.5 L 574 305.5" stroke="#C0D0E0" stroke-width="1"  visibility="visible"></path></g><g class="highcharts-axis" ><text x="25"  text-anchor="middle" transform="translate(0,0) rotate(270 25 175.5)" class=" highcharts-yaxis-title" style="color:#707070;fill:#707070;" visibility="visible" y="175.5">Y-Axis</text></g><g class="highcharts-series-group" ><g class="highcharts-series" visibility="visible"  transform="translate(57,46) scale(1 1)" clip-path="url(#highcharts-3)"><path fill="rgb(124,181,236)" fill-opacity="0.5" d="M 32.3 259 L 96.9 226.6 L 161.5 129.5 L 226.1 129.5 L 290.8 97.1 L 355.4 194.2 L 420.0 161.8 L 484.6 32.3 L 484.6 259 L 32.3 259" ></path><path fill="none" d="M 32.3 259 L 96.9 226.6 L 161.5 129.5 L 226.1 129.5 L 290.8 97.1 L 355.4 194.2 L 420.0 161.8 L 484.6 32.3" stroke="#7cb5ec" stroke-width="2"  stroke-linejoin="round" stroke-linecap="round"></path><path fill="none" d="M 22.3 259 L 32.3 259 L 96.9 226.6 L 161.5 129.5 L 226.1 129.5 L 290.8 97.1 L 355.4 194.2 L 420.0 161.8 L 484.6 32.3 L 494.6 32.3" stroke-linejoin="round" visibility="visible" stroke="rgb(192,192,192)" stroke-opacity="0.0" stroke-width="22"  class=" highcharts-tracker" style=""></path></g><g class="highcharts-markers highcharts-tracker" visibility="visible"  transform="translate(57,46) scale(1 1)" clip-path="url(#highcharts-2)" style=""><path fill="#7cb5ec" d="M 484 28.3 C 489.3 28.3 489.3 36.3 484 36.3 C 478.6 36.3 478.6 28.3 484 28.3 Z"></path><path fill="#7cb5ec" d="M 420 157.8 C 425.3 157.8 425.3 165.8 420 165.8 C 414.6 165.8 414.6 157.8 420 157.8 Z"></path><path fill="#7cb5ec" d="M 355 190.2 C 360.3 190.2 360.3 198.2 355 198.2 C 349.6 198.2 349.6 190.2 355 190.2 Z"></path><path fill="#7cb5ec" d="M 290 93.1 C 295.3 93.1 295.3 101.1 290 101.1 C 284.6 101.1 284.6 93.1 290 93.1 Z"></path><path fill="#7cb5ec" d="M 226 125.5 C 231.3 125.5 231.3 133.5 226 133.5 C 220.6 133.5 220.6 125.5 226 125.5 Z"></path><path fill="#7cb5ec" d="M 161 125.5 C 166.3 125.5 166.3 133.5 161 133.5 C 155.6 133.5 155.6 125.5 161 125.5 Z"></path><path fill="#7cb5ec" d="M 96 222.6 C 101.3 222.6 101.3 230.6 96 230.6 C 90.6 230.6 90.6 222.6 96 222.6 Z"></path><path fill="#7cb5ec" d="M 32 255 C 37.3 255 37.3 263 32 263 C 26.6 263 26.6 255 32 255 Z"></path></g><g class="highcharts-series" visibility="visible"  transform="translate(57,46) scale(1 1)" clip-path="url(#highcharts-3)"><path fill="rgb(67,67,72)" fill-opacity="0.5" d="M 32.3 226.6 L 96.9 259 L 161.5 161.8 L 161.5 259 L 32.3 259 M 290.8 161.8 L 355.4 226.6 L 420.0 194.2 L 484.6 226.6 L 484.6 259 L 290.8 259" ></path><path fill="none" d="M 32.3 226.6 L 96.9 259 L 161.5 161.8 M 290.8 161.8 L 355.4 226.6 L 420.0 194.2 L 484.6 226.6" stroke="#434348" stroke-width="2"  stroke-linejoin="round" stroke-linecap="round"></path><path fill="none" d="M 22.3 226.6 L 32.3 226.6 L 96.9 259 L 161.5 161.8 L 171.5 161.8 M 280.8 161.8 L 290.8 161.8 L 355.4 226.6 L 420.0 194.2 L 484.6 226.6 L 494.6 226.6" stroke-linejoin="round" visibility="visible" stroke="rgb(192,192,192)" stroke-opacity="0.0" stroke-width="22"  class=" highcharts-tracker" style=""></path></g><g class="highcharts-markers highcharts-tracker" visibility="visible"  transform="translate(57,46) scale(1 1)" clip-path="url(#highcharts-2)" style=""><path fill="#434348" d="M 484 222.6 L 488 226.6 484 230.6 480 226.6 Z"></path><path fill="#434348" d="M 420 190.2 L 424 194.2 420 198.2 416 194.2 Z"></path><path fill="#434348" d="M 355 222.6 L 359 226.6 355 230.6 351 226.6 Z"></path><path fill="#434348" d="M 290 157.8 L 294 161.8 290 165.8 286 161.8 Z"></path><path fill="#434348" d="M 161 157.8 L 165 161.8 161 165.8 157 161.8 Z"></path><path fill="#434348" d="M 96 255 L 100 259 96 263 92 259 Z"></path><path fill="#434348" d="M 32 222.6 L 36 226.6 32 230.6 28 226.6 Z"></path></g></g><text x="292" text-anchor="middle" class="highcharts-title"  style="color:#333333;font-size:18px;fill:#333333;width:520px;" y="24"><tspan>Fruit consumption *</tspan></text><text x="574" text-anchor="end" class="highcharts-subtitle"  style="color:#555555;fill:#555555;width:520px;" y="385"><tspan>* Jane's banana consumption is unknown</tspan></text><g class="highcharts-legend"  transform="translate(160,110)"><rect x="0.5" y="0.5" width="65" height="40" strokeWidth="1" stroke="#909090" stroke-width="1" fill="#FFFFFF" visibility="visible"></rect><g ><g><g class="highcharts-legend-item"  transform="translate(8,3)"><text x="21" style="color:#333333;font-size:12px;font-weight:bold;cursor:pointer;fill:#333333;" text-anchor="start"  y="15">John</text><rect x="0" y="4" width="16" height="12"  fill="#7cb5ec"></rect></g><g class="highcharts-legend-item"  transform="translate(8,18)"><text x="21" y="15" style="color:#333333;font-size:12px;font-weight:bold;cursor:pointer;fill:#333333;" text-anchor="start" >Jane</text><rect x="0" y="4" width="16" height="12"  fill="#434348"></rect></g></g></g></g><g class="highcharts-axis-labels highcharts-xaxis-labels" ><text x="91.9" style="color:#606060;cursor:default;font-size:11px;fill:#606060;width:400px;text-overflow:ellipsis;" text-anchor="end" transform="translate(0,0) rotate(-45 91.9 321)" y="321" opacity="1"><tspan>Apples</tspan></text><text x="156.5" style="color:#606060;cursor:default;font-size:11px;fill:#606060;width:400px;text-overflow:ellipsis;" text-anchor="end" transform="translate(0,0) rotate(-45 156.5 321)" y="321" opacity="1"><tspan>Pears</tspan></text><text x="221.1" style="color:#606060;cursor:default;font-size:11px;fill:#606060;width:400px;text-overflow:ellipsis;" text-anchor="end" transform="translate(0,0) rotate(-45 221.1 321)" y="321" opacity="1"><tspan>Oranges</tspan></text><text x="285.7" style="color:#606060;cursor:default;font-size:11px;fill:#606060;width:400px;text-overflow:ellipsis;" text-anchor="end" transform="translate(0,0) rotate(-45 285.7 321)" y="321" opacity="1"><tspan>Bananas</tspan></text><text x="350.4" style="color:#606060;cursor:default;font-size:11px;fill:#606060;width:400px;text-overflow:ellipsis;" text-anchor="end" transform="translate(0,0) rotate(-45 350.4 321)" y="321" opacity="1"><tspan>Grapes</tspan></text><text x="415.0" style="color:#606060;cursor:default;font-size:11px;fill:#606060;width:400px;text-overflow:ellipsis;" text-anchor="end" transform="translate(0,0) rotate(-45 415.0 321)" y="321" opacity="1"><tspan>Plums</tspan></text><text x="479.6" style="color:#606060;cursor:default;font-size:11px;fill:#606060;width:400px;text-overflow:ellipsis;" text-anchor="end" transform="translate(0,0) rotate(-45 479.6 321)" y="321" opacity="1"><tspan>Strawberries</tspan></text><text x="544.2" style="color:#606060;cursor:default;font-size:11px;fill:#606060;width:400px;text-overflow:ellipsis;" text-anchor="end" transform="translate(0,0) rotate(-45 544.2 321)" y="321" opacity="1"><tspan>Raspberries</tspan></text></g><g class="highcharts-axis-labels highcharts-yaxis-labels" ><text x="42" style="color:#606060;cursor:default;font-size:11px;fill:#606060;width:183px;text-overflow:clip;" text-anchor="end" transform="translate(0,0)" y="310" opacity="1">0</text><text x="42" style="color:#606060;cursor:default;font-size:11px;fill:#606060;width:183px;text-overflow:clip;" text-anchor="end" transform="translate(0,0)" y="245" opacity="1">2</text><text x="42" style="color:#606060;cursor:default;font-size:11px;fill:#606060;width:183px;text-overflow:clip;" text-anchor="end" transform="translate(0,0)" y="180" opacity="1">4</text><text x="42" style="color:#606060;cursor:default;font-size:11px;fill:#606060;width:183px;text-overflow:clip;" text-anchor="end" transform="translate(0,0)" y="115" opacity="1">6</text><text x="42" style="color:#606060;cursor:default;font-size:11px;fill:#606060;width:183px;text-overflow:clip;" text-anchor="end" transform="translate(0,0)" y="51" opacity="1">8</text></g><g class="highcharts-tooltip"  style="cursor:default;padding:0;white-space:nowrap;" transform="translate(0,-9999)"><path fill="none" d="M 3.5 0.5 L 13.5 0.5 C 16.5 0.5 16.5 0.5 16.5 3.5 L 16.5 13.5 C 16.5 16.5 16.5 16.5 13.5 16.5 L 3.5 16.5 C 0.5 16.5 0.5 16.5 0.5 13.5 L 0.5 3.5 C 0.5 0.5 0.5 0.5 3.5 0.5"  stroke="black" stroke-opacity="0.0" stroke-width="5" transform="translate(1, 1)"></path><path fill="none" d="M 3.5 0.5 L 13.5 0.5 C 16.5 0.5 16.5 0.5 16.5 3.5 L 16.5 13.5 C 16.5 16.5 16.5 16.5 13.5 16.5 L 3.5 16.5 C 0.5 16.5 0.5 16.5 0.5 13.5 L 0.5 3.5 C 0.5 0.5 0.5 0.5 3.5 0.5"  stroke="black" stroke-opacity="0.0" stroke-width="3" transform="translate(1, 1)"></path><path fill="none" d="M 3.5 0.5 L 13.5 0.5 C 16.5 0.5 16.5 0.5 16.5 3.5 L 16.5 13.5 C 16.5 16.5 16.5 16.5 13.5 16.5 L 3.5 16.5 C 0.5 16.5 0.5 16.5 0.5 13.5 L 0.5 3.5 C 0.5 0.5 0.5 0.5 3.5 0.5"  stroke="black" stroke-opacity="0.1" stroke-width="1" transform="translate(1, 1)"></path><path fill="rgb(249, 249, 249)" fill-opacity=" .85" d="M 3.5 0.5 L 13.5 0.5 C 16.5 0.5 16.5 0.5 16.5 3.5 L 16.5 13.5 C 16.5 16.5 16.5 16.5 13.5 16.5 L 3.5 16.5 C 0.5 16.5 0.5 16.5 0.5 13.5 L 0.5 3.5 C 0.5 0.5 0.5 0.5 3.5 0.5"></path><text x="8"  style="font-size:12px;color:#333333;fill:#333333;" y="20"></text></g></svg>