<svg version="1.1" style="font-family: signika, serif; font-size: 12px; background-image: url(http://www.highcharts.com/samples/graphics/sand.png); background-position: initial initial; background-repeat: initial initial;" xmlns="http://www.w3.org/2000/svg" width="584" height="400" viewBox="0 0 584 400" xmlns:xlink="http://www.w3.org/1999/xlink"><style type="text/css"><![CDATA[@import url(http://fonts.googleapis.com/css?family=Signika:700);]]></style><desc>Created with Highcharts 4.1.7</desc><defs><clipPath id="highcharts-1"><rect x="0" y="0" width="521" height="310"></rect></clipPath><clipPath id="highcharts-2"><rect x="-99" y="-41" width="620" height="400"></rect></clipPath><clipPath id="highcharts-3"><rect x="0" y="0" width="521" height="310"></rect></clipPath></defs><g class="highcharts-grid" ></g><g class="highcharts-grid" ><path fill="none" d="M 53 351.5 L 574 351.5" stroke="#D8D8D8" stroke-width="1"  opacity="1"></path><path fill="none" d="M 53 274.5 L 574 274.5" stroke="#D8D8D8" stroke-width="1"  opacity="1"></path><path fill="none" d="M 53 196.5 L 574 196.5" stroke="#D8D8D8" stroke-width="1"  opacity="1"></path><path fill="none" d="M 53 119.5 L 574 119.5" stroke="#D8D8D8" stroke-width="1"  opacity="1"></path><path fill="none" d="M 53 40.5 L 574 40.5" stroke="#D8D8D8" stroke-width="1"  opacity="1"></path></g><g class="highcharts-axis" ><path fill="none" d="M 117.5 351 L 117.5 361" stroke="#C0D0E0" stroke-width="1" opacity="1"></path><path fill="none" d="M 182.5 351 L 182.5 361" stroke="#C0D0E0" stroke-width="1" opacity="1"></path><path fill="none" d="M 247.5 351 L 247.5 361" stroke="#C0D0E0" stroke-width="1" opacity="1"></path><path fill="none" d="M 313.5 351 L 313.5 361" stroke="#C0D0E0" stroke-width="1" opacity="1"></path><path fill="none" d="M 378.5 351 L 378.5 361" stroke="#C0D0E0" stroke-width="1" opacity="1"></path><path fill="none" d="M 443.5 351 L 443.5 361" stroke="#C0D0E0" stroke-width="1" opacity="1"></path><path fill="none" d="M 508.5 351 L 508.5 361" stroke="#C0D0E0" stroke-width="1" opacity="1"></path><path fill="none" d="M 574.5 351 L 574.5 361" stroke="#C0D0E0" stroke-width="1" opacity="1"></path><path fill="none" d="M 52.5 351 L 52.5 361" stroke="#C0D0E0" stroke-width="1" opacity="1"></path><path fill="none" d="M 53 351.5 L 574 351.5" stroke="#C0D0E0" stroke-width="1"  visibility="visible"></path></g><g class="highcharts-axis" ><text x="22.5"  text-anchor="middle" transform="translate(0,0) rotate(270 22.5 196)" class=" highcharts-yaxis-title" style="color:#707070;fill:#707070;" visibility="visible" y="196">Y-Axis</text></g><g class="highcharts-series-group" ><g class="highcharts-series" visibility="visible"  transform="translate(53,41) scale(1 1)" clip-path="url(#highcharts-3)"><path fill="rgb(244,91,91)" fill-opacity="0.5" d="M 32.5 310 L 97.6 271.2 L 162.8 155 L 227.9 155 L 293.0 116.2 L 358.1 232.5 L 423.3 193.7 L 488.4 38.7 L 488.4 310 L 32.5 310" ></path><path fill="none" d="M 32.5 310 L 97.6 271.2 L 162.8 155 L 227.9 155 L 293.0 116.2 L 358.1 232.5 L 423.3 193.7 L 488.4 38.7" stroke="black" stroke-width="5"  stroke-linejoin="round" stroke-linecap="round"  stroke-opacity="0.0" transform="translate(1, 1)"></path><path fill="none" d="M 32.5 310 L 97.6 271.2 L 162.8 155 L 227.9 155 L 293.0 116.2 L 358.1 232.5 L 423.3 193.7 L 488.4 38.7" stroke="black" stroke-width="3"  stroke-linejoin="round" stroke-linecap="round"  stroke-opacity="0.0" transform="translate(1, 1)"></path><path fill="none" d="M 32.5 310 L 97.6 271.2 L 162.8 155 L 227.9 155 L 293.0 116.2 L 358.1 232.5 L 423.3 193.7 L 488.4 38.7" stroke="black" stroke-width="1"  stroke-linejoin="round" stroke-linecap="round"  stroke-opacity="0.1" transform="translate(1, 1)"></path><path fill="none" d="M 32.5 310 L 97.6 271.2 L 162.8 155 L 227.9 155 L 293.0 116.2 L 358.1 232.5 L 423.3 193.7 L 488.4 38.7" stroke="#f45b5b" stroke-width="2"  stroke-linejoin="round" stroke-linecap="round"></path><path fill="none" d="M 22.5 310 L 32.5 310 L 97.6 271.2 L 162.8 155 L 227.9 155 L 293.0 116.2 L 358.1 232.5 L 423.3 193.7 L 488.4 38.7 L 498.4 38.7" stroke-linejoin="round" visibility="visible" stroke="rgb(192,192,192)" stroke-opacity="0.0" stroke-width="22"  class=" highcharts-tracker" style=""></path></g><g class="highcharts-markers highcharts-tracker" visibility="visible"  transform="translate(53,41) scale(1 1)" clip-path="url(#highcharts-2)" style=""><path fill="#f45b5b" d="M 488 34.7 C 493.3 34.7 493.3 42.7 488 42.7 C 482.6 42.7 482.6 34.7 488 34.7 Z"></path><path fill="#f45b5b" d="M 423 189.7 C 428.3 189.7 428.3 197.7 423 197.7 C 417.6 197.7 417.6 189.7 423 189.7 Z"></path><path fill="#f45b5b" d="M 358 228.5 C 363.3 228.5 363.3 236.5 358 236.5 C 352.6 236.5 352.6 228.5 358 228.5 Z"></path><path fill="#f45b5b" d="M 293 112.2 C 298.3 112.2 298.3 120.2 293 120.2 C 287.6 120.2 287.6 112.2 293 112.2 Z"></path><path fill="#f45b5b" d="M 227 151 C 232.3 151 232.3 159 227 159 C 221.6 159 221.6 151 227 151 Z"></path><path fill="#f45b5b" d="M 162 151 C 167.3 151 167.3 159 162 159 C 156.6 159 156.6 151 162 151 Z"></path><path fill="#f45b5b" d="M 97 267.2 C 102.3 267.2 102.3 275.2 97 275.2 C 91.6 275.2 91.6 267.2 97 267.2 Z"></path><path fill="#f45b5b" d="M 32 306 C 37.3 306 37.3 314 32 314 C 26.6 314 26.6 306 32 306 Z"></path></g><g class="highcharts-series" visibility="visible"  transform="translate(53,41) scale(1 1)" clip-path="url(#highcharts-3)"><path fill="rgb(128,133,233)" fill-opacity="0.5" d="M 32.5 271.2 L 97.6 310 L 162.8 193.7 L 162.8 310 L 32.5 310 M 293.0 193.7 L 358.1 271.2 L 423.3 232.5 L 488.4 271.2 L 488.4 310 L 293.0 310" ></path><path fill="none" d="M 32.5 271.2 L 97.6 310 L 162.8 193.7 M 293.0 193.7 L 358.1 271.2 L 423.3 232.5 L 488.4 271.2" stroke="black" stroke-width="5"  stroke-linejoin="round" stroke-linecap="round"  stroke-opacity="0.0" transform="translate(1, 1)"></path><path fill="none" d="M 32.5 271.2 L 97.6 310 L 162.8 193.7 M 293.0 193.7 L 358.1 271.2 L 423.3 232.5 L 488.4 271.2" stroke="black" stroke-width="3"  stroke-linejoin="round" stroke-linecap="round"  stroke-opacity="0.0" transform="translate(1, 1)"></path><path fill="none" d="M 32.5 271.2 L 97.6 310 L 162.8 193.7 M 293.0 193.7 L 358.1 271.2 L 423.3 232.5 L 488.4 271.2" stroke="black" stroke-width="1"  stroke-linejoin="round" stroke-linecap="round"  stroke-opacity="0.1" transform="translate(1, 1)"></path><path fill="none" d="M 32.5 271.2 L 97.6 310 L 162.8 193.7 M 293.0 193.7 L 358.1 271.2 L 423.3 232.5 L 488.4 271.2" stroke="#8085e9" stroke-width="2"  stroke-linejoin="round" stroke-linecap="round"></path><path fill="none" d="M 22.5 271.2 L 32.5 271.2 L 97.6 310 L 162.8 193.7 L 172.8 193.7 M 283.0 193.7 L 293.0 193.7 L 358.1 271.2 L 423.3 232.5 L 488.4 271.2 L 498.4 271.2" stroke-linejoin="round" visibility="visible" stroke="rgb(192,192,192)" stroke-opacity="0.0" stroke-width="22"  class=" highcharts-tracker" style=""></path></g><g class="highcharts-markers highcharts-tracker" visibility="visible"  transform="translate(53,41) scale(1 1)" clip-path="url(#highcharts-2)" style=""><path fill="#8085e9" d="M 488 267.2 L 492 271.2 488 275.2 484 271.2 Z"></path><path fill="#8085e9" d="M 423 228.5 L 427 232.5 423 236.5 419 232.5 Z"></path><path fill="#8085e9" d="M 358 267.2 L 362 271.2 358 275.2 354 271.2 Z"></path><path fill="#8085e9" d="M 293 189.7 L 297 193.7 293 197.7 289 193.7 Z"></path><path fill="#8085e9" d="M 162 189.7 L 166 193.7 162 197.7 158 193.7 Z"></path><path fill="#8085e9" d="M 97 306 L 101 310 97 314 93 310 Z"></path><path fill="#8085e9" d="M 32 267.2 L 36 271.2 32 275.2 28 271.2 Z"></path></g></g><text x="292" text-anchor="middle" class="highcharts-title"  style="color:black;font-size:16px;font-weight:bold;fill:black;width:520px;" y="22"><tspan>Fruit consumption *</tspan></text><text x="574" text-anchor="end" class="highcharts-subtitle"  style="color:black;fill:black;width:520px;" y="385"><tspan>* Jane's banana consumption is unknown</tspan></text><g class="highcharts-legend"  transform="translate(160,110)"><rect x="0.5" y="0.5" width="63" height="36" strokeWidth="1" stroke="#909090" stroke-width="1" fill="#FFFFFF" visibility="visible"></rect><g ><g><g class="highcharts-legend-item"  transform="translate(8,3)"><text x="21" style="color:#333333;font-size:13px;font-weight:bold;cursor:pointer;fill:#333333;" text-anchor="start"  y="16">John</text><rect x="0" y="4" width="16" height="13"  fill="#f45b5b"></rect></g><g class="highcharts-legend-item"  transform="translate(8,16)"><text x="21" y="16" style="color:#333333;font-size:13px;font-weight:bold;cursor:pointer;fill:#333333;" text-anchor="start" >Jane</text><rect x="0" y="4" width="16" height="13"  fill="#8085e9"></rect></g></g></g></g><g class="highcharts-axis-labels highcharts-xaxis-labels" ><text x="85.5" style="color:#6e6e70;cursor:default;font-size:11px;fill:#6e6e70;" text-anchor="middle" transform="translate(0,0)" y="370" opacity="1">Apples</text><text x="150.6" style="color:#6e6e70;cursor:default;font-size:11px;fill:#6e6e70;" text-anchor="middle" transform="translate(0,0)" y="370" opacity="1">Pears</text><text x="215.8" style="color:#6e6e70;cursor:default;font-size:11px;fill:#6e6e70;" text-anchor="middle" transform="translate(0,0)" y="370" opacity="1">Oranges</text><text x="280.9" style="color:#6e6e70;cursor:default;font-size:11px;fill:#6e6e70;" text-anchor="middle" transform="translate(0,0)" y="370" opacity="1">Bananas</text><text x="346.0" style="color:#6e6e70;cursor:default;font-size:11px;fill:#6e6e70;" text-anchor="middle" transform="translate(0,0)" y="370" opacity="1">Grapes</text><text x="411.1" style="color:#6e6e70;cursor:default;font-size:11px;fill:#6e6e70;" text-anchor="middle" transform="translate(0,0)" y="370" opacity="1">Plums</text><text x="476.3" style="color:#6e6e70;cursor:default;font-size:11px;fill:#6e6e70;" text-anchor="middle" transform="translate(0,0)" y="370" opacity="1">Strawberries</text><text x="541.4" style="color:#6e6e70;cursor:default;font-size:11px;fill:#6e6e70;" text-anchor="middle" transform="translate(0,0)" y="370" opacity="1">Raspberries</text></g><g class="highcharts-axis-labels highcharts-yaxis-labels" ><text x="38" style="color:#6e6e70;cursor:default;font-size:11px;fill:#6e6e70;width:183px;text-overflow:clip;" text-anchor="end" transform="translate(0,0)" y="357" opacity="1">0</text><text x="38" style="color:#6e6e70;cursor:default;font-size:11px;fill:#6e6e70;width:183px;text-overflow:clip;" text-anchor="end" transform="translate(0,0)" y="279" opacity="1">2</text><text x="38" style="color:#6e6e70;cursor:default;font-size:11px;fill:#6e6e70;width:183px;text-overflow:clip;" text-anchor="end" transform="translate(0,0)" y="202" opacity="1">4</text><text x="38" style="color:#6e6e70;cursor:default;font-size:11px;fill:#6e6e70;width:183px;text-overflow:clip;" text-anchor="end" transform="translate(0,0)" y="124" opacity="1">6</text><text x="38" style="color:#6e6e70;cursor:default;font-size:11px;fill:#6e6e70;width:183px;text-overflow:clip;" text-anchor="end" transform="translate(0,0)" y="47" opacity="1">8</text></g><g class="highcharts-tooltip"  style="cursor:default;padding:0;white-space:nowrap;" transform="translate(0,-9999)"><path fill="none" d="M 3 0 L 13 0 C 16 0 16 0 16 3 L 16 13 C 16 16 16 16 13 16 L 3 16 C 0 16 0 16 0 13 L 0 3 C 0 0 0 0 3 0"  stroke="black" stroke-opacity="0.0" stroke-width="5" transform="translate(1, 1)"></path><path fill="none" d="M 3 0 L 13 0 C 16 0 16 0 16 3 L 16 13 C 16 16 16 16 13 16 L 3 16 C 0 16 0 16 0 13 L 0 3 C 0 0 0 0 3 0"  stroke="black" stroke-opacity="0.0" stroke-width="3" transform="translate(1, 1)"></path><path fill="none" d="M 3 0 L 13 0 C 16 0 16 0 16 3 L 16 13 C 16 16 16 16 13 16 L 3 16 C 0 16 0 16 0 13 L 0 3 C 0 0 0 0 3 0"  stroke="black" stroke-opacity="0.1" stroke-width="1" transform="translate(1, 1)"></path><path fill="rgb(249, 249, 249)" fill-opacity=" .85" d="M 3 0 L 13 0 C 16 0 16 0 16 3 L 16 13 C 16 16 16 16 13 16 L 3 16 C 0 16 0 16 0 13 L 0 3 C 0 0 0 0 3 0"></path><text x="8"  style="font-size:12px;color:#333333;fill:#333333;" y="20"></text></g></svg>