<svg version="1.1" style="font-family: signika, serif; font-size: 12px; background-image: url(http://www.highcharts.com/samples/graphics/sand.png); background-position: initial initial; background-repeat: initial initial;" xmlns="http://www.w3.org/2000/svg" width="584" height="400" viewBox="0 0 584 400" xmlns:xlink="http://www.w3.org/1999/xlink"><style type="text/css"><![CDATA[@import url(http://fonts.googleapis.com/css?family=Signika:700);]]></style><desc>Created with Highcharts 4.1.7</desc><defs><clipPath id="highcharts-1"><rect x="0" y="0" width="534" height="325"></rect></clipPath><clipPath id="highcharts-2"><rect x="-99" y="-41" width="633" height="400"></rect></clipPath><clipPath id="highcharts-3"><rect x="0" y="0" width="534" height="325"></rect></clipPath></defs><g class="highcharts-grid" ></g><g class="highcharts-grid" ><path fill="none" d="M 40 366.5 L 574 366.5" stroke="#D8D8D8" stroke-width="1"  opacity="1"></path><path fill="none" d="M 40 312.5 L 574 312.5" stroke="#D8D8D8" stroke-width="1"  opacity="1"></path><path fill="none" d="M 40 258.5 L 574 258.5" stroke="#D8D8D8" stroke-width="1"  opacity="1"></path><path fill="none" d="M 40 204.5 L 574 204.5" stroke="#D8D8D8" stroke-width="1"  opacity="1"></path><path fill="none" d="M 40 149.5 L 574 149.5" stroke="#D8D8D8" stroke-width="1"  opacity="1"></path><path fill="none" d="M 40 95.5 L 574 95.5" stroke="#D8D8D8" stroke-width="1"  opacity="1"></path><path fill="none" d="M 40 40.5 L 574 40.5" stroke="#D8D8D8" stroke-width="1"  opacity="1"></path></g><g class="highcharts-axis" ><path fill="none" d="M 44.5 366 L 44.5 376" stroke="#C0D0E0" stroke-width="1" opacity="1"></path><path fill="none" d="M 129.5 366 L 129.5 376" stroke="#C0D0E0" stroke-width="1" opacity="1"></path><path fill="none" d="M 217.5 366 L 217.5 376" stroke="#C0D0E0" stroke-width="1" opacity="1"></path><path fill="none" d="M 305.5 366 L 305.5 376" stroke="#C0D0E0" stroke-width="1" opacity="1"></path><path fill="none" d="M 394.5 366 L 394.5 376" stroke="#C0D0E0" stroke-width="1" opacity="1"></path><path fill="none" d="M 481.5 366 L 481.5 376" stroke="#C0D0E0" stroke-width="1" opacity="1"></path><path fill="none" d="M 569.5 366 L 569.5 376" stroke="#C0D0E0" stroke-width="1" opacity="1"></path><path fill="none" d="M 40 366.5 L 574 366.5" stroke="#C0D0E0" stroke-width="1"  visibility="visible"></path></g><g class="highcharts-axis" ></g><g class="highcharts-series-group" ><g class="highcharts-series" visibility="visible"  transform="translate(40,41) scale(1 1)" clip-path="url(#highcharts-3)"><path fill="rgb(244,91,91)" fill-opacity="0.7" d="M 5.2 210.7 L 6.6 206.9 L 8.1 207.4 L 9.5 202.5 L 10.9 198.7 L 12.4 200.4 L 13.8 195.5 L 15.3 195.5 L 16.7 219.9 L 18.1 219.3 L 19.6 218.2 L 21.0 251.8 L 22.4 256.2 L 23.9 256.2 L 25.3 259.4 L 26.8 242.1 L 28.2 223.1 L 29.6 229.1 L 31.1 227.5 L 32.5 244.2 L 34.0 240.5 L 35.4 251.3 L 36.8 234 L 38.3 246.4 L 39.7 240.5 L 41.1 238.3 L 42.6 235.0 L 44.0 225.8 L 45.5 233.4 L 46.9 242.6 L 48.3 254.5 L 49.8 231.2 L 51.2 223.7 L 52.6 208.5 L 54.1 219.3 L 55.5 217.7 L 57.0 212.8 L 58.4 211.7 L 59.8 207.4 L 61.3 204.7 L 62.7 200.4 L 64.2 209.0 L 65.6 213.4 L 67.0 216.1 L 68.5 198.2 L 69.9 205.8 L 71.3 210.7 L 72.8 210.7 L 74.2 231.8 L 75.7 243.7 L 77.1 247.5 L 78.5 220.4 L 80.0 208.5 L 81.4 186.8 L 82.9 187.9 L 84.3 207.4 L 85.7 198.2 L 87.2 198.2 L 88.6 192.2 L 90.0 205.2 L 91.5 213.4 L 92.9 210.1 L 94.4 202.5 L 95.8 195.5 L 97.2 187.9 L 98.7 202.0 L 100.1 195 L 101.5 183.6 L 103.0 193.9 L 104.4 203.1 L 105.9 215.5 L 107.3 223.1 L 108.7 214.5 L 110.2 215.5 L 111.6 217.2 L 113.1 211.2 L 114.5 222.6 L 115.9 226.9 L 117.4 215.0 L 118.8 203.6 L 120.2 199.3 L 121.7 207.4 L 123.1 218.2 L 124.6 229.6 L 126.0 225.8 L 127.4 194.4 L 128.9 192.8 L 130.3 198.7 L 131.8 200.4 L 133.1 209.0 L 134.6 223.1 L 136.0 204.7 L 137.4 222.0 L 138.9 226.4 L 140.3 215.5 L 141.8 196.6 L 143.2 185.2 L 144.6 187.4 L 146.1 192.2 L 147.5 195.5 L 149.0 192.2 L 150.4 180.9 L 151.8 196.6 L 153.3 197.1 L 154.7 197.7 L 156.1 208.5 L 157.6 190.1 L 159.0 197.7 L 160.5 208.5 L 161.9 207.4 L 163.3 209.0 L 164.8 200.4 L 166.2 186.3 L 167.6 185.7 L 169.1 192.2 L 170.5 199.8 L 172.0 191.2 L 173.4 190.1 L 174.8 179.8 L 176.3 201.5 L 177.7 231.2 L 179.2 226.9 L 180.6 192.2 L 182.0 219.9 L 183.5 195 L 184.9 186.8 L 186.3 181.4 L 187.8 199.3 L 189.2 205.2 L 190.7 181.4 L 192.1 185.7 L 193.5 182.5 L 195.0 187.9 L 196.4 184.1 L 197.9 206.3 L 199.3 177.6 L 200.7 168.4 L 202.2 167.3 L 203.6 171.1 L 205.0 179.8 L 206.5 175.4 L 207.9 156.5 L 209.4 166.2 L 210.8 160.3 L 212.2 185.7 L 213.7 173.8 L 215.1 189.5 L 216.6 175.4 L 218.0 185.7 L 219.4 191.7 L 220.9 178.7 L 222.3 189.0 L 223.7 180.9 L 225.2 164.1 L 226.6 164.6 L 228.1 146.2 L 229.5 146.7 L 230.9 170.6 L 232.4 166.8 L 233.8 159.7 L 235.2 177.1 L 236.7 151.1 L 238.1 156.5 L 239.6 162.5 L 241.0 185.2 L 242.4 176.5 L 243.9 160.8 L 245.3 174.4 L 246.8 153.8 L 248.2 163.5 L 249.6 158.7 L 251.1 167.9 L 252.5 189.0 L 253.9 162.5 L 255.4 188.5 L 256.8 182.5 L 258.3 186.8 L 259.7 171.1 L 261.1 178.2 L 262.6 183.6 L 264.0 171.1 L 265.5 175.4 L 266.9 172.7 L 268.3 156 L 269.8 182 L 271.2 147.8 L 272.6 133.7 L 274.1 134.8 L 275.5 158.1 L 277.0 131.0 L 278.4 131.0 L 279.8 134.3 L 281.3 135.9 L 282.7 145.7 L 284.1 132.7 L 285.6 137.0 L 287.0 138.6 L 288.5 148.4 L 289.9 141.3 L 291.3 155.4 L 292.8 144.6 L 294.2 144.6 L 295.7 140.8 L 297.1 140.2 L 298.5 133.2 L 300.0 124.5 L 301.4 126.7 L 302.8 144.6 L 304.3 125.6 L 305.7 130 L 307.2 138.6 L 308.6 147.3 L 310.0 148.4 L 311.5 154.9 L 312.9 141.3 L 314.4 148.9 L 315.8 150.0 L 317.2 147.3 L 318.7 157.0 L 320.1 137.0 L 321.5 156.5 L 323.0 143.5 L 324.4 142.4 L 325.9 147.3 L 327.3 151.1 L 328.7 169 L 330.2 172.2 L 331.6 157.6 L 333.1 158.7 L 334.5 157.0 L 335.9 151.1 L 337.4 156 L 338.8 163.0 L 340.2 179.2 L 341.7 168.4 L 343.1 172.2 L 344.6 171.1 L 346.0 180.9 L 347.4 182 L 347.4 109.9 L 346.0 108.8 L 344.6 111.0 L 343.1 121.3 L 341.7 133.7 L 340.2 131.6 L 338.8 126.7 L 337.4 138.6 L 335.9 137.0 L 334.5 114.2 L 333.1 129.4 L 331.6 128.3 L 330.2 107.7 L 328.7 95.3 L 327.3 115.3 L 325.9 110.4 L 324.4 91.5 L 323.0 104.5 L 321.5 88.8 L 320.1 95.3 L 318.7 106.1 L 317.2 90.4 L 315.8 89.9 L 314.4 108.8 L 312.9 114.2 L 311.5 109.9 L 310.0 119.1 L 308.6 118.6 L 307.2 113.7 L 305.7 93.1 L 304.3 98.0 L 302.8 77.9 L 301.4 69.8 L 300.0 73.1 L 298.5 48.2 L 297.1 55.2 L 295.7 60.6 L 294.2 55.7 L 292.8 68.2 L 291.3 70.9 L 289.9 84.5 L 288.5 116.4 L 287.0 125.6 L 285.6 107.7 L 284.1 89.3 L 282.7 68.2 L 281.3 64.4 L 279.8 51.4 L 278.4 59.5 L 277.0 55.7 L 275.5 93.1 L 274.1 111.5 L 272.6 99.1 L 271.2 91.5 L 269.8 135.9 L 268.3 118.6 L 266.9 100.2 L 265.5 90.4 L 264.0 94.2 L 262.6 104 L 261.1 90.4 L 259.7 109.9 L 258.3 102.3 L 256.8 101.2 L 255.4 96.9 L 253.9 112.1 L 252.5 144.6 L 251.1 132.7 L 249.6 138.6 L 248.2 130 L 246.8 109.9 L 245.3 125.6 L 243.9 98.0 L 242.4 107.7 L 241.0 89.9 L 239.6 104.5 L 238.1 144.6 L 236.7 118.0 L 235.2 89.9 L 233.8 97.5 L 232.4 100.7 L 230.9 90.9 L 229.5 118.0 L 228.1 108.3 L 226.6 99.6 L 225.2 96.4 L 223.7 83.4 L 222.3 105.0 L 220.9 97.5 L 219.4 108.3 L 218.0 98.0 L 216.6 97.5 L 215.1 94.7 L 213.7 119.7 L 212.2 111.5 L 210.8 112.1 L 209.4 139.2 L 207.9 127.2 L 206.5 140.2 L 205.0 100.2 L 203.6 119.7 L 202.2 105.6 L 200.7 134.3 L 199.3 163.5 L 197.9 174.9 L 196.4 140.2 L 195.0 133.7 L 193.5 133.7 L 192.1 128.9 L 190.7 132.1 L 189.2 143.5 L 187.8 138.1 L 186.3 145.1 L 184.9 165.2 L 183.5 164.1 L 182.0 160.3 L 180.6 170.6 L 179.2 157.6 L 177.7 159.7 L 176.3 166.8 L 174.8 132.1 L 173.4 126.7 L 172.0 114.2 L 170.5 121.3 L 169.1 127.8 L 167.6 123.4 L 166.2 114.8 L 164.8 117 L 163.3 130 L 161.9 132.1 L 160.5 145.7 L 159.0 151.6 L 157.6 165.7 L 156.1 161.4 L 154.7 171.7 L 153.3 180.3 L 151.8 177.1 L 150.4 171.1 L 149.0 173.3 L 147.5 171.1 L 146.1 150.5 L 144.6 169.5 L 143.2 154.9 L 141.8 182 L 140.3 174.9 L 138.9 165.2 L 137.4 161.9 L 136.0 175.4 L 134.6 169 L 133.1 160.3 L 131.8 148.9 L 130.3 157.0 L 128.9 140.8 L 127.4 162.5 L 126.0 160.8 L 124.6 170.0 L 123.1 173.8 L 121.7 197.1 L 120.2 166.8 L 118.8 180.3 L 117.4 192.2 L 115.9 215.0 L 114.5 182.5 L 113.1 186.3 L 111.6 184.1 L 110.2 189.0 L 108.7 180.3 L 107.3 179.2 L 105.9 178.7 L 104.4 167.9 L 103.0 175.4 L 101.5 158.7 L 100.1 170.0 L 98.7 178.2 L 97.2 163.0 L 95.8 165.2 L 94.4 177.1 L 92.9 165.7 L 91.5 183.6 L 90.0 168.4 L 88.6 173.3 L 87.2 177.1 L 85.7 166.2 L 84.3 156.5 L 82.9 153.2 L 81.4 169 L 80.0 174.4 L 78.5 195.5 L 77.1 215.5 L 75.7 216.1 L 74.2 202.5 L 72.8 192.8 L 71.3 191.2 L 69.9 184.7 L 68.5 177.1 L 67.0 174.4 L 65.6 189.0 L 64.2 187.4 L 62.7 180.9 L 61.3 169 L 59.8 195.5 L 58.4 185.7 L 57.0 190.6 L 55.5 188.5 L 54.1 187.9 L 52.6 174.9 L 51.2 172.2 L 49.8 202.5 L 48.3 231.8 L 46.9 226.9 L 45.5 195.5 L 44.0 202.5 L 42.6 212.3 L 41.1 210.7 L 39.7 203.6 L 38.3 221 L 36.8 219.3 L 35.4 231.2 L 34.0 219.3 L 32.5 227.5 L 31.1 215.0 L 29.6 217.2 L 28.2 214.5 L 26.8 211.7 L 25.3 239.4 L 23.9 229.1 L 22.4 235.0 L 21.0 218.8 L 19.6 203.6 L 18.1 187.9 L 16.7 192.2 L 15.3 186.8 L 13.8 184.1 L 12.4 173.8 L 10.9 166.2 L 9.5 176.5 L 8.1 179.2 L 6.6 182 L 5.2 191.2 M 361.8 144.0 L 363.3 145.1 L 364.7 152.2 L 366.1 167.9 L 367.6 184.7 L 369.0 179.8 L 370.4 160.8 L 371.9 169.5 L 373.3 173.8 L 374.8 184.1 L 376.2 191.2 L 377.6 195 L 379.1 192.2 L 380.5 199.8 L 382.0 170.6 L 383.4 175.4 L 384.8 209.6 L 386.3 205.8 L 387.7 189.5 L 389.1 182 L 390.6 172.2 L 392.0 168.4 L 393.5 163.0 L 394.9 188.5 L 396.3 191.7 L 397.8 169 L 399.2 195.5 L 400.6 202.0 L 402.1 161.4 L 403.5 164.6 L 405.0 166.2 L 406.4 172.7 L 407.8 180.3 L 409.3 195 L 410.7 182.5 L 412.2 180.9 L 413.6 180.9 L 415.0 184.7 L 416.5 210.1 L 417.9 217.2 L 419.3 222.0 L 420.8 225.8 L 422.2 219.9 L 423.7 179.2 L 425.1 174.9 L 426.5 196.0 L 428.0 183.0 L 429.4 181.4 L 430.9 173.8 L 432.3 183.6 L 433.7 160.8 L 435.2 178.2 L 436.7 216.6 L 438.1 216.6 L 439.5 195.5 L 441.0 195 L 442.4 190.6 L 443.9 178.7 L 445.3 200.4 L 446.7 201.5 L 448.2 212.3 L 449.6 217.7 L 451.0 219.9 L 452.5 180.9 L 453.9 187.4 L 455.4 200.4 L 456.8 214.5 L 458.2 217.2 L 459.7 190.6 L 461.1 191.7 L 462.6 193.3 L 464.0 198.7 L 465.4 218.8 L 466.9 206.3 L 468.3 217.7 L 469.7 223.7 L 471.2 226.4 L 472.6 231.2 L 474.1 215.0 L 475.5 198.2 L 476.9 212.3 L 478.4 222.0 L 479.8 214.5 L 481.3 223.1 L 482.7 222.6 L 484.1 220.4 L 485.6 213.9 L 487.0 209.0 L 488.4 192.2 L 489.9 214.5 L 491.3 203.1 L 492.8 210.7 L 494.2 205.8 L 495.6 209.0 L 497.1 212.8 L 498.5 206.3 L 499.9 217.7 L 501.4 217.2 L 502.8 222.0 L 504.3 213.9 L 505.7 225.8 L 507.1 215.0 L 508.6 232.9 L 510.0 222.6 L 511.5 212.3 L 512.9 211.7 L 514.3 215.0 L 515.8 213.4 L 517.2 208.5 L 517.2 192.8 L 515.8 187.9 L 514.3 195.5 L 512.9 192.8 L 511.5 198.2 L 510.0 208.5 L 508.6 214.5 L 507.1 201.5 L 505.7 186.3 L 504.3 187.4 L 502.8 196.0 L 501.4 207.4 L 499.9 196.6 L 498.5 195.5 L 497.1 191.7 L 495.6 204.7 L 494.2 192.8 L 492.8 189.5 L 491.3 196.6 L 489.9 162.5 L 488.4 161.4 L 487.0 199.3 L 485.6 203.1 L 484.1 206.9 L 482.7 201.5 L 481.3 206.3 L 479.8 199.8 L 478.4 209.6 L 476.9 183.6 L 475.5 181.4 L 474.1 203.1 L 472.6 209.6 L 471.2 211.7 L 469.7 205.2 L 468.3 196.6 L 466.9 191.2 L 465.4 199.3 L 464.0 176.0 L 462.6 174.9 L 461.1 170.6 L 459.7 169 L 458.2 179.8 L 456.8 199.3 L 455.4 171.1 L 453.9 177.1 L 452.5 160.8 L 451.0 186.8 L 449.6 200.9 L 448.2 190.6 L 446.7 184.7 L 445.3 163.5 L 443.9 170.6 L 442.4 156 L 441.0 190.6 L 439.5 191.7 L 438.1 185.7 L 436.7 161.9 L 435.2 144.6 L 433.7 145.7 L 432.3 157.6 L 430.9 158.7 L 429.4 166.8 L 428.0 170.0 L 426.5 164.1 L 425.1 159.7 L 423.7 161.9 L 422.2 176.0 L 420.8 171.7 L 419.3 165.7 L 417.9 166.8 L 416.5 159.2 L 415.0 160.3 L 413.6 160.8 L 412.2 158.7 L 410.7 161.4 L 409.3 162.5 L 407.8 156 L 406.4 147.8 L 405.0 121.8 L 403.5 119.7 L 402.1 118.0 L 400.6 118.6 L 399.2 150.0 L 397.8 151.1 L 396.3 153.2 L 394.9 148.9 L 393.5 130.5 L 392.0 152.7 L 390.6 144.6 L 389.1 161.9 L 387.7 158.1 L 386.3 157.6 L 384.8 148.4 L 383.4 141.9 L 382.0 150.5 L 380.5 129.4 L 379.1 119.7 L 377.6 114.8 L 376.2 108.8 L 374.8 107.7 L 373.3 113.2 L 371.9 119.7 L 370.4 108.8 L 369.0 128.9 L 367.6 121.8 L 366.1 130.5 L 364.7 114.2 L 363.3 124.0 L 361.8 144.0 M 521.5 239.4 L 523.0 271.9 L 524.4 262.1 L 525.8 244.8 L 527.3 209.6 L 528.7 208 L 528.7 193.9 L 527.3 203.1 L 525.8 203.6 L 524.4 238.8 L 523.0 244.8 L 521.5 238.8" ></path><path fill="none" d="M 5.2 210.7 L 6.6 206.9 L 8.1 207.4 L 9.5 202.5 L 10.9 198.7 L 12.4 200.4 L 13.8 195.5 L 15.3 195.5 L 16.7 219.9 L 18.1 219.3 L 19.6 218.2 L 21.0 251.8 L 22.4 256.2 L 23.9 256.2 L 25.3 259.4 L 26.8 242.1 L 28.2 223.1 L 29.6 229.1 L 31.1 227.5 L 32.5 244.2 L 34.0 240.5 L 35.4 251.3 L 36.8 234 L 38.3 246.4 L 39.7 240.5 L 41.1 238.3 L 42.6 235.0 L 44.0 225.8 L 45.5 233.4 L 46.9 242.6 L 48.3 254.5 L 49.8 231.2 L 51.2 223.7 L 52.6 208.5 L 54.1 219.3 L 55.5 217.7 L 57.0 212.8 L 58.4 211.7 L 59.8 207.4 L 61.3 204.7 L 62.7 200.4 L 64.2 209.0 L 65.6 213.4 L 67.0 216.1 L 68.5 198.2 L 69.9 205.8 L 71.3 210.7 L 72.8 210.7 L 74.2 231.8 L 75.7 243.7 L 77.1 247.5 L 78.5 220.4 L 80.0 208.5 L 81.4 186.8 L 82.9 187.9 L 84.3 207.4 L 85.7 198.2 L 87.2 198.2 L 88.6 192.2 L 90.0 205.2 L 91.5 213.4 L 92.9 210.1 L 94.4 202.5 L 95.8 195.5 L 97.2 187.9 L 98.7 202.0 L 100.1 195 L 101.5 183.6 L 103.0 193.9 L 104.4 203.1 L 105.9 215.5 L 107.3 223.1 L 108.7 214.5 L 110.2 215.5 L 111.6 217.2 L 113.1 211.2 L 114.5 222.6 L 115.9 226.9 L 117.4 215.0 L 118.8 203.6 L 120.2 199.3 L 121.7 207.4 L 123.1 218.2 L 124.6 229.6 L 126.0 225.8 L 127.4 194.4 L 128.9 192.8 L 130.3 198.7 L 131.8 200.4 L 133.1 209.0 L 134.6 223.1 L 136.0 204.7 L 137.4 222.0 L 138.9 226.4 L 140.3 215.5 L 141.8 196.6 L 143.2 185.2 L 144.6 187.4 L 146.1 192.2 L 147.5 195.5 L 149.0 192.2 L 150.4 180.9 L 151.8 196.6 L 153.3 197.1 L 154.7 197.7 L 156.1 208.5 L 157.6 190.1 L 159.0 197.7 L 160.5 208.5 L 161.9 207.4 L 163.3 209.0 L 164.8 200.4 L 166.2 186.3 L 167.6 185.7 L 169.1 192.2 L 170.5 199.8 L 172.0 191.2 L 173.4 190.1 L 174.8 179.8 L 176.3 201.5 L 177.7 231.2 L 179.2 226.9 L 180.6 192.2 L 182.0 219.9 L 183.5 195 L 184.9 186.8 L 186.3 181.4 L 187.8 199.3 L 189.2 205.2 L 190.7 181.4 L 192.1 185.7 L 193.5 182.5 L 195.0 187.9 L 196.4 184.1 L 197.9 206.3 L 199.3 177.6 L 200.7 168.4 L 202.2 167.3 L 203.6 171.1 L 205.0 179.8 L 206.5 175.4 L 207.9 156.5 L 209.4 166.2 L 210.8 160.3 L 212.2 185.7 L 213.7 173.8 L 215.1 189.5 L 216.6 175.4 L 218.0 185.7 L 219.4 191.7 L 220.9 178.7 L 222.3 189.0 L 223.7 180.9 L 225.2 164.1 L 226.6 164.6 L 228.1 146.2 L 229.5 146.7 L 230.9 170.6 L 232.4 166.8 L 233.8 159.7 L 235.2 177.1 L 236.7 151.1 L 238.1 156.5 L 239.6 162.5 L 241.0 185.2 L 242.4 176.5 L 243.9 160.8 L 245.3 174.4 L 246.8 153.8 L 248.2 163.5 L 249.6 158.7 L 251.1 167.9 L 252.5 189.0 L 253.9 162.5 L 255.4 188.5 L 256.8 182.5 L 258.3 186.8 L 259.7 171.1 L 261.1 178.2 L 262.6 183.6 L 264.0 171.1 L 265.5 175.4 L 266.9 172.7 L 268.3 156 L 269.8 182 L 271.2 147.8 L 272.6 133.7 L 274.1 134.8 L 275.5 158.1 L 277.0 131.0 L 278.4 131.0 L 279.8 134.3 L 281.3 135.9 L 282.7 145.7 L 284.1 132.7 L 285.6 137.0 L 287.0 138.6 L 288.5 148.4 L 289.9 141.3 L 291.3 155.4 L 292.8 144.6 L 294.2 144.6 L 295.7 140.8 L 297.1 140.2 L 298.5 133.2 L 300.0 124.5 L 301.4 126.7 L 302.8 144.6 L 304.3 125.6 L 305.7 130 L 307.2 138.6 L 308.6 147.3 L 310.0 148.4 L 311.5 154.9 L 312.9 141.3 L 314.4 148.9 L 315.8 150.0 L 317.2 147.3 L 318.7 157.0 L 320.1 137.0 L 321.5 156.5 L 323.0 143.5 L 324.4 142.4 L 325.9 147.3 L 327.3 151.1 L 328.7 169 L 330.2 172.2 L 331.6 157.6 L 333.1 158.7 L 334.5 157.0 L 335.9 151.1 L 337.4 156 L 338.8 163.0 L 340.2 179.2 L 341.7 168.4 L 343.1 172.2 L 344.6 171.1 L 346.0 180.9 L 347.4 182 M 347.4 109.9 L 346.0 108.8 L 344.6 111.0 L 343.1 121.3 L 341.7 133.7 L 340.2 131.6 L 338.8 126.7 L 337.4 138.6 L 335.9 137.0 L 334.5 114.2 L 333.1 129.4 L 331.6 128.3 L 330.2 107.7 L 328.7 95.3 L 327.3 115.3 L 325.9 110.4 L 324.4 91.5 L 323.0 104.5 L 321.5 88.8 L 320.1 95.3 L 318.7 106.1 L 317.2 90.4 L 315.8 89.9 L 314.4 108.8 L 312.9 114.2 L 311.5 109.9 L 310.0 119.1 L 308.6 118.6 L 307.2 113.7 L 305.7 93.1 L 304.3 98.0 L 302.8 77.9 L 301.4 69.8 L 300.0 73.1 L 298.5 48.2 L 297.1 55.2 L 295.7 60.6 L 294.2 55.7 L 292.8 68.2 L 291.3 70.9 L 289.9 84.5 L 288.5 116.4 L 287.0 125.6 L 285.6 107.7 L 284.1 89.3 L 282.7 68.2 L 281.3 64.4 L 279.8 51.4 L 278.4 59.5 L 277.0 55.7 L 275.5 93.1 L 274.1 111.5 L 272.6 99.1 L 271.2 91.5 L 269.8 135.9 L 268.3 118.6 L 266.9 100.2 L 265.5 90.4 L 264.0 94.2 L 262.6 104 L 261.1 90.4 L 259.7 109.9 L 258.3 102.3 L 256.8 101.2 L 255.4 96.9 L 253.9 112.1 L 252.5 144.6 L 251.1 132.7 L 249.6 138.6 L 248.2 130 L 246.8 109.9 L 245.3 125.6 L 243.9 98.0 L 242.4 107.7 L 241.0 89.9 L 239.6 104.5 L 238.1 144.6 L 236.7 118.0 L 235.2 89.9 L 233.8 97.5 L 232.4 100.7 L 230.9 90.9 L 229.5 118.0 L 228.1 108.3 L 226.6 99.6 L 225.2 96.4 L 223.7 83.4 L 222.3 105.0 L 220.9 97.5 L 219.4 108.3 L 218.0 98.0 L 216.6 97.5 L 215.1 94.7 L 213.7 119.7 L 212.2 111.5 L 210.8 112.1 L 209.4 139.2 L 207.9 127.2 L 206.5 140.2 L 205.0 100.2 L 203.6 119.7 L 202.2 105.6 L 200.7 134.3 L 199.3 163.5 L 197.9 174.9 L 196.4 140.2 L 195.0 133.7 L 193.5 133.7 L 192.1 128.9 L 190.7 132.1 L 189.2 143.5 L 187.8 138.1 L 186.3 145.1 L 184.9 165.2 L 183.5 164.1 L 182.0 160.3 L 180.6 170.6 L 179.2 157.6 L 177.7 159.7 L 176.3 166.8 L 174.8 132.1 L 173.4 126.7 L 172.0 114.2 L 170.5 121.3 L 169.1 127.8 L 167.6 123.4 L 166.2 114.8 L 164.8 117 L 163.3 130 L 161.9 132.1 L 160.5 145.7 L 159.0 151.6 L 157.6 165.7 L 156.1 161.4 L 154.7 171.7 L 153.3 180.3 L 151.8 177.1 L 150.4 171.1 L 149.0 173.3 L 147.5 171.1 L 146.1 150.5 L 144.6 169.5 L 143.2 154.9 L 141.8 182 L 140.3 174.9 L 138.9 165.2 L 137.4 161.9 L 136.0 175.4 L 134.6 169 L 133.1 160.3 L 131.8 148.9 L 130.3 157.0 L 128.9 140.8 L 127.4 162.5 L 126.0 160.8 L 124.6 170.0 L 123.1 173.8 L 121.7 197.1 L 120.2 166.8 L 118.8 180.3 L 117.4 192.2 L 115.9 215.0 L 114.5 182.5 L 113.1 186.3 L 111.6 184.1 L 110.2 189.0 L 108.7 180.3 L 107.3 179.2 L 105.9 178.7 L 104.4 167.9 L 103.0 175.4 L 101.5 158.7 L 100.1 170.0 L 98.7 178.2 L 97.2 163.0 L 95.8 165.2 L 94.4 177.1 L 92.9 165.7 L 91.5 183.6 L 90.0 168.4 L 88.6 173.3 L 87.2 177.1 L 85.7 166.2 L 84.3 156.5 L 82.9 153.2 L 81.4 169 L 80.0 174.4 L 78.5 195.5 L 77.1 215.5 L 75.7 216.1 L 74.2 202.5 L 72.8 192.8 L 71.3 191.2 L 69.9 184.7 L 68.5 177.1 L 67.0 174.4 L 65.6 189.0 L 64.2 187.4 L 62.7 180.9 L 61.3 169 L 59.8 195.5 L 58.4 185.7 L 57.0 190.6 L 55.5 188.5 L 54.1 187.9 L 52.6 174.9 L 51.2 172.2 L 49.8 202.5 L 48.3 231.8 L 46.9 226.9 L 45.5 195.5 L 44.0 202.5 L 42.6 212.3 L 41.1 210.7 L 39.7 203.6 L 38.3 221 L 36.8 219.3 L 35.4 231.2 L 34.0 219.3 L 32.5 227.5 L 31.1 215.0 L 29.6 217.2 L 28.2 214.5 L 26.8 211.7 L 25.3 239.4 L 23.9 229.1 L 22.4 235.0 L 21.0 218.8 L 19.6 203.6 L 18.1 187.9 L 16.7 192.2 L 15.3 186.8 L 13.8 184.1 L 12.4 173.8 L 10.9 166.2 L 9.5 176.5 L 8.1 179.2 L 6.6 182 L 5.2 191.2 M 361.8 144.0 L 363.3 145.1 L 364.7 152.2 L 366.1 167.9 L 367.6 184.7 L 369.0 179.8 L 370.4 160.8 L 371.9 169.5 L 373.3 173.8 L 374.8 184.1 L 376.2 191.2 L 377.6 195 L 379.1 192.2 L 380.5 199.8 L 382.0 170.6 L 383.4 175.4 L 384.8 209.6 L 386.3 205.8 L 387.7 189.5 L 389.1 182 L 390.6 172.2 L 392.0 168.4 L 393.5 163.0 L 394.9 188.5 L 396.3 191.7 L 397.8 169 L 399.2 195.5 L 400.6 202.0 L 402.1 161.4 L 403.5 164.6 L 405.0 166.2 L 406.4 172.7 L 407.8 180.3 L 409.3 195 L 410.7 182.5 L 412.2 180.9 L 413.6 180.9 L 415.0 184.7 L 416.5 210.1 L 417.9 217.2 L 419.3 222.0 L 420.8 225.8 L 422.2 219.9 L 423.7 179.2 L 425.1 174.9 L 426.5 196.0 L 428.0 183.0 L 429.4 181.4 L 430.9 173.8 L 432.3 183.6 L 433.7 160.8 L 435.2 178.2 L 436.7 216.6 L 438.1 216.6 L 439.5 195.5 L 441.0 195 L 442.4 190.6 L 443.9 178.7 L 445.3 200.4 L 446.7 201.5 L 448.2 212.3 L 449.6 217.7 L 451.0 219.9 L 452.5 180.9 L 453.9 187.4 L 455.4 200.4 L 456.8 214.5 L 458.2 217.2 L 459.7 190.6 L 461.1 191.7 L 462.6 193.3 L 464.0 198.7 L 465.4 218.8 L 466.9 206.3 L 468.3 217.7 L 469.7 223.7 L 471.2 226.4 L 472.6 231.2 L 474.1 215.0 L 475.5 198.2 L 476.9 212.3 L 478.4 222.0 L 479.8 214.5 L 481.3 223.1 L 482.7 222.6 L 484.1 220.4 L 485.6 213.9 L 487.0 209.0 L 488.4 192.2 L 489.9 214.5 L 491.3 203.1 L 492.8 210.7 L 494.2 205.8 L 495.6 209.0 L 497.1 212.8 L 498.5 206.3 L 499.9 217.7 L 501.4 217.2 L 502.8 222.0 L 504.3 213.9 L 505.7 225.8 L 507.1 215.0 L 508.6 232.9 L 510.0 222.6 L 511.5 212.3 L 512.9 211.7 L 514.3 215.0 L 515.8 213.4 L 517.2 208.5 M 517.2 192.8 L 515.8 187.9 L 514.3 195.5 L 512.9 192.8 L 511.5 198.2 L 510.0 208.5 L 508.6 214.5 L 507.1 201.5 L 505.7 186.3 L 504.3 187.4 L 502.8 196.0 L 501.4 207.4 L 499.9 196.6 L 498.5 195.5 L 497.1 191.7 L 495.6 204.7 L 494.2 192.8 L 492.8 189.5 L 491.3 196.6 L 489.9 162.5 L 488.4 161.4 L 487.0 199.3 L 485.6 203.1 L 484.1 206.9 L 482.7 201.5 L 481.3 206.3 L 479.8 199.8 L 478.4 209.6 L 476.9 183.6 L 475.5 181.4 L 474.1 203.1 L 472.6 209.6 L 471.2 211.7 L 469.7 205.2 L 468.3 196.6 L 466.9 191.2 L 465.4 199.3 L 464.0 176.0 L 462.6 174.9 L 461.1 170.6 L 459.7 169 L 458.2 179.8 L 456.8 199.3 L 455.4 171.1 L 453.9 177.1 L 452.5 160.8 L 451.0 186.8 L 449.6 200.9 L 448.2 190.6 L 446.7 184.7 L 445.3 163.5 L 443.9 170.6 L 442.4 156 L 441.0 190.6 L 439.5 191.7 L 438.1 185.7 L 436.7 161.9 L 435.2 144.6 L 433.7 145.7 L 432.3 157.6 L 430.9 158.7 L 429.4 166.8 L 428.0 170.0 L 426.5 164.1 L 425.1 159.7 L 423.7 161.9 L 422.2 176.0 L 420.8 171.7 L 419.3 165.7 L 417.9 166.8 L 416.5 159.2 L 415.0 160.3 L 413.6 160.8 L 412.2 158.7 L 410.7 161.4 L 409.3 162.5 L 407.8 156 L 406.4 147.8 L 405.0 121.8 L 403.5 119.7 L 402.1 118.0 L 400.6 118.6 L 399.2 150.0 L 397.8 151.1 L 396.3 153.2 L 394.9 148.9 L 393.5 130.5 L 392.0 152.7 L 390.6 144.6 L 389.1 161.9 L 387.7 158.1 L 386.3 157.6 L 384.8 148.4 L 383.4 141.9 L 382.0 150.5 L 380.5 129.4 L 379.1 119.7 L 377.6 114.8 L 376.2 108.8 L 374.8 107.7 L 373.3 113.2 L 371.9 119.7 L 370.4 108.8 L 369.0 128.9 L 367.6 121.8 L 366.1 130.5 L 364.7 114.2 L 363.3 124.0 L 361.8 144.0 M 521.5 239.4 L 523.0 271.9 L 524.4 262.1 L 525.8 244.8 L 527.3 209.6 L 528.7 208 M 528.7 193.9 L 527.3 203.1 L 525.8 203.6 L 524.4 238.8 L 523.0 244.8 L 521.5 238.8" stroke="black" stroke-width="5"  stroke-linejoin="round" stroke-linecap="round"  stroke-opacity="0.0" transform="translate(1, 1)"></path><path fill="none" d="M 5.2 210.7 L 6.6 206.9 L 8.1 207.4 L 9.5 202.5 L 10.9 198.7 L 12.4 200.4 L 13.8 195.5 L 15.3 195.5 L 16.7 219.9 L 18.1 219.3 L 19.6 218.2 L 21.0 251.8 L 22.4 256.2 L 23.9 256.2 L 25.3 259.4 L 26.8 242.1 L 28.2 223.1 L 29.6 229.1 L 31.1 227.5 L 32.5 244.2 L 34.0 240.5 L 35.4 251.3 L 36.8 234 L 38.3 246.4 L 39.7 240.5 L 41.1 238.3 L 42.6 235.0 L 44.0 225.8 L 45.5 233.4 L 46.9 242.6 L 48.3 254.5 L 49.8 231.2 L 51.2 223.7 L 52.6 208.5 L 54.1 219.3 L 55.5 217.7 L 57.0 212.8 L 58.4 211.7 L 59.8 207.4 L 61.3 204.7 L 62.7 200.4 L 64.2 209.0 L 65.6 213.4 L 67.0 216.1 L 68.5 198.2 L 69.9 205.8 L 71.3 210.7 L 72.8 210.7 L 74.2 231.8 L 75.7 243.7 L 77.1 247.5 L 78.5 220.4 L 80.0 208.5 L 81.4 186.8 L 82.9 187.9 L 84.3 207.4 L 85.7 198.2 L 87.2 198.2 L 88.6 192.2 L 90.0 205.2 L 91.5 213.4 L 92.9 210.1 L 94.4 202.5 L 95.8 195.5 L 97.2 187.9 L 98.7 202.0 L 100.1 195 L 101.5 183.6 L 103.0 193.9 L 104.4 203.1 L 105.9 215.5 L 107.3 223.1 L 108.7 214.5 L 110.2 215.5 L 111.6 217.2 L 113.1 211.2 L 114.5 222.6 L 115.9 226.9 L 117.4 215.0 L 118.8 203.6 L 120.2 199.3 L 121.7 207.4 L 123.1 218.2 L 124.6 229.6 L 126.0 225.8 L 127.4 194.4 L 128.9 192.8 L 130.3 198.7 L 131.8 200.4 L 133.1 209.0 L 134.6 223.1 L 136.0 204.7 L 137.4 222.0 L 138.9 226.4 L 140.3 215.5 L 141.8 196.6 L 143.2 185.2 L 144.6 187.4 L 146.1 192.2 L 147.5 195.5 L 149.0 192.2 L 150.4 180.9 L 151.8 196.6 L 153.3 197.1 L 154.7 197.7 L 156.1 208.5 L 157.6 190.1 L 159.0 197.7 L 160.5 208.5 L 161.9 207.4 L 163.3 209.0 L 164.8 200.4 L 166.2 186.3 L 167.6 185.7 L 169.1 192.2 L 170.5 199.8 L 172.0 191.2 L 173.4 190.1 L 174.8 179.8 L 176.3 201.5 L 177.7 231.2 L 179.2 226.9 L 180.6 192.2 L 182.0 219.9 L 183.5 195 L 184.9 186.8 L 186.3 181.4 L 187.8 199.3 L 189.2 205.2 L 190.7 181.4 L 192.1 185.7 L 193.5 182.5 L 195.0 187.9 L 196.4 184.1 L 197.9 206.3 L 199.3 177.6 L 200.7 168.4 L 202.2 167.3 L 203.6 171.1 L 205.0 179.8 L 206.5 175.4 L 207.9 156.5 L 209.4 166.2 L 210.8 160.3 L 212.2 185.7 L 213.7 173.8 L 215.1 189.5 L 216.6 175.4 L 218.0 185.7 L 219.4 191.7 L 220.9 178.7 L 222.3 189.0 L 223.7 180.9 L 225.2 164.1 L 226.6 164.6 L 228.1 146.2 L 229.5 146.7 L 230.9 170.6 L 232.4 166.8 L 233.8 159.7 L 235.2 177.1 L 236.7 151.1 L 238.1 156.5 L 239.6 162.5 L 241.0 185.2 L 242.4 176.5 L 243.9 160.8 L 245.3 174.4 L 246.8 153.8 L 248.2 163.5 L 249.6 158.7 L 251.1 167.9 L 252.5 189.0 L 253.9 162.5 L 255.4 188.5 L 256.8 182.5 L 258.3 186.8 L 259.7 171.1 L 261.1 178.2 L 262.6 183.6 L 264.0 171.1 L 265.5 175.4 L 266.9 172.7 L 268.3 156 L 269.8 182 L 271.2 147.8 L 272.6 133.7 L 274.1 134.8 L 275.5 158.1 L 277.0 131.0 L 278.4 131.0 L 279.8 134.3 L 281.3 135.9 L 282.7 145.7 L 284.1 132.7 L 285.6 137.0 L 287.0 138.6 L 288.5 148.4 L 289.9 141.3 L 291.3 155.4 L 292.8 144.6 L 294.2 144.6 L 295.7 140.8 L 297.1 140.2 L 298.5 133.2 L 300.0 124.5 L 301.4 126.7 L 302.8 144.6 L 304.3 125.6 L 305.7 130 L 307.2 138.6 L 308.6 147.3 L 310.0 148.4 L 311.5 154.9 L 312.9 141.3 L 314.4 148.9 L 315.8 150.0 L 317.2 147.3 L 318.7 157.0 L 320.1 137.0 L 321.5 156.5 L 323.0 143.5 L 324.4 142.4 L 325.9 147.3 L 327.3 151.1 L 328.7 169 L 330.2 172.2 L 331.6 157.6 L 333.1 158.7 L 334.5 157.0 L 335.9 151.1 L 337.4 156 L 338.8 163.0 L 340.2 179.2 L 341.7 168.4 L 343.1 172.2 L 344.6 171.1 L 346.0 180.9 L 347.4 182 M 347.4 109.9 L 346.0 108.8 L 344.6 111.0 L 343.1 121.3 L 341.7 133.7 L 340.2 131.6 L 338.8 126.7 L 337.4 138.6 L 335.9 137.0 L 334.5 114.2 L 333.1 129.4 L 331.6 128.3 L 330.2 107.7 L 328.7 95.3 L 327.3 115.3 L 325.9 110.4 L 324.4 91.5 L 323.0 104.5 L 321.5 88.8 L 320.1 95.3 L 318.7 106.1 L 317.2 90.4 L 315.8 89.9 L 314.4 108.8 L 312.9 114.2 L 311.5 109.9 L 310.0 119.1 L 308.6 118.6 L 307.2 113.7 L 305.7 93.1 L 304.3 98.0 L 302.8 77.9 L 301.4 69.8 L 300.0 73.1 L 298.5 48.2 L 297.1 55.2 L 295.7 60.6 L 294.2 55.7 L 292.8 68.2 L 291.3 70.9 L 289.9 84.5 L 288.5 116.4 L 287.0 125.6 L 285.6 107.7 L 284.1 89.3 L 282.7 68.2 L 281.3 64.4 L 279.8 51.4 L 278.4 59.5 L 277.0 55.7 L 275.5 93.1 L 274.1 111.5 L 272.6 99.1 L 271.2 91.5 L 269.8 135.9 L 268.3 118.6 L 266.9 100.2 L 265.5 90.4 L 264.0 94.2 L 262.6 104 L 261.1 90.4 L 259.7 109.9 L 258.3 102.3 L 256.8 101.2 L 255.4 96.9 L 253.9 112.1 L 252.5 144.6 L 251.1 132.7 L 249.6 138.6 L 248.2 130 L 246.8 109.9 L 245.3 125.6 L 243.9 98.0 L 242.4 107.7 L 241.0 89.9 L 239.6 104.5 L 238.1 144.6 L 236.7 118.0 L 235.2 89.9 L 233.8 97.5 L 232.4 100.7 L 230.9 90.9 L 229.5 118.0 L 228.1 108.3 L 226.6 99.6 L 225.2 96.4 L 223.7 83.4 L 222.3 105.0 L 220.9 97.5 L 219.4 108.3 L 218.0 98.0 L 216.6 97.5 L 215.1 94.7 L 213.7 119.7 L 212.2 111.5 L 210.8 112.1 L 209.4 139.2 L 207.9 127.2 L 206.5 140.2 L 205.0 100.2 L 203.6 119.7 L 202.2 105.6 L 200.7 134.3 L 199.3 163.5 L 197.9 174.9 L 196.4 140.2 L 195.0 133.7 L 193.5 133.7 L 192.1 128.9 L 190.7 132.1 L 189.2 143.5 L 187.8 138.1 L 186.3 145.1 L 184.9 165.2 L 183.5 164.1 L 182.0 160.3 L 180.6 170.6 L 179.2 157.6 L 177.7 159.7 L 176.3 166.8 L 174.8 132.1 L 173.4 126.7 L 172.0 114.2 L 170.5 121.3 L 169.1 127.8 L 167.6 123.4 L 166.2 114.8 L 164.8 117 L 163.3 130 L 161.9 132.1 L 160.5 145.7 L 159.0 151.6 L 157.6 165.7 L 156.1 161.4 L 154.7 171.7 L 153.3 180.3 L 151.8 177.1 L 150.4 171.1 L 149.0 173.3 L 147.5 171.1 L 146.1 150.5 L 144.6 169.5 L 143.2 154.9 L 141.8 182 L 140.3 174.9 L 138.9 165.2 L 137.4 161.9 L 136.0 175.4 L 134.6 169 L 133.1 160.3 L 131.8 148.9 L 130.3 157.0 L 128.9 140.8 L 127.4 162.5 L 126.0 160.8 L 124.6 170.0 L 123.1 173.8 L 121.7 197.1 L 120.2 166.8 L 118.8 180.3 L 117.4 192.2 L 115.9 215.0 L 114.5 182.5 L 113.1 186.3 L 111.6 184.1 L 110.2 189.0 L 108.7 180.3 L 107.3 179.2 L 105.9 178.7 L 104.4 167.9 L 103.0 175.4 L 101.5 158.7 L 100.1 170.0 L 98.7 178.2 L 97.2 163.0 L 95.8 165.2 L 94.4 177.1 L 92.9 165.7 L 91.5 183.6 L 90.0 168.4 L 88.6 173.3 L 87.2 177.1 L 85.7 166.2 L 84.3 156.5 L 82.9 153.2 L 81.4 169 L 80.0 174.4 L 78.5 195.5 L 77.1 215.5 L 75.7 216.1 L 74.2 202.5 L 72.8 192.8 L 71.3 191.2 L 69.9 184.7 L 68.5 177.1 L 67.0 174.4 L 65.6 189.0 L 64.2 187.4 L 62.7 180.9 L 61.3 169 L 59.8 195.5 L 58.4 185.7 L 57.0 190.6 L 55.5 188.5 L 54.1 187.9 L 52.6 174.9 L 51.2 172.2 L 49.8 202.5 L 48.3 231.8 L 46.9 226.9 L 45.5 195.5 L 44.0 202.5 L 42.6 212.3 L 41.1 210.7 L 39.7 203.6 L 38.3 221 L 36.8 219.3 L 35.4 231.2 L 34.0 219.3 L 32.5 227.5 L 31.1 215.0 L 29.6 217.2 L 28.2 214.5 L 26.8 211.7 L 25.3 239.4 L 23.9 229.1 L 22.4 235.0 L 21.0 218.8 L 19.6 203.6 L 18.1 187.9 L 16.7 192.2 L 15.3 186.8 L 13.8 184.1 L 12.4 173.8 L 10.9 166.2 L 9.5 176.5 L 8.1 179.2 L 6.6 182 L 5.2 191.2 M 361.8 144.0 L 363.3 145.1 L 364.7 152.2 L 366.1 167.9 L 367.6 184.7 L 369.0 179.8 L 370.4 160.8 L 371.9 169.5 L 373.3 173.8 L 374.8 184.1 L 376.2 191.2 L 377.6 195 L 379.1 192.2 L 380.5 199.8 L 382.0 170.6 L 383.4 175.4 L 384.8 209.6 L 386.3 205.8 L 387.7 189.5 L 389.1 182 L 390.6 172.2 L 392.0 168.4 L 393.5 163.0 L 394.9 188.5 L 396.3 191.7 L 397.8 169 L 399.2 195.5 L 400.6 202.0 L 402.1 161.4 L 403.5 164.6 L 405.0 166.2 L 406.4 172.7 L 407.8 180.3 L 409.3 195 L 410.7 182.5 L 412.2 180.9 L 413.6 180.9 L 415.0 184.7 L 416.5 210.1 L 417.9 217.2 L 419.3 222.0 L 420.8 225.8 L 422.2 219.9 L 423.7 179.2 L 425.1 174.9 L 426.5 196.0 L 428.0 183.0 L 429.4 181.4 L 430.9 173.8 L 432.3 183.6 L 433.7 160.8 L 435.2 178.2 L 436.7 216.6 L 438.1 216.6 L 439.5 195.5 L 441.0 195 L 442.4 190.6 L 443.9 178.7 L 445.3 200.4 L 446.7 201.5 L 448.2 212.3 L 449.6 217.7 L 451.0 219.9 L 452.5 180.9 L 453.9 187.4 L 455.4 200.4 L 456.8 214.5 L 458.2 217.2 L 459.7 190.6 L 461.1 191.7 L 462.6 193.3 L 464.0 198.7 L 465.4 218.8 L 466.9 206.3 L 468.3 217.7 L 469.7 223.7 L 471.2 226.4 L 472.6 231.2 L 474.1 215.0 L 475.5 198.2 L 476.9 212.3 L 478.4 222.0 L 479.8 214.5 L 481.3 223.1 L 482.7 222.6 L 484.1 220.4 L 485.6 213.9 L 487.0 209.0 L 488.4 192.2 L 489.9 214.5 L 491.3 203.1 L 492.8 210.7 L 494.2 205.8 L 495.6 209.0 L 497.1 212.8 L 498.5 206.3 L 499.9 217.7 L 501.4 217.2 L 502.8 222.0 L 504.3 213.9 L 505.7 225.8 L 507.1 215.0 L 508.6 232.9 L 510.0 222.6 L 511.5 212.3 L 512.9 211.7 L 514.3 215.0 L 515.8 213.4 L 517.2 208.5 M 517.2 192.8 L 515.8 187.9 L 514.3 195.5 L 512.9 192.8 L 511.5 198.2 L 510.0 208.5 L 508.6 214.5 L 507.1 201.5 L 505.7 186.3 L 504.3 187.4 L 502.8 196.0 L 501.4 207.4 L 499.9 196.6 L 498.5 195.5 L 497.1 191.7 L 495.6 204.7 L 494.2 192.8 L 492.8 189.5 L 491.3 196.6 L 489.9 162.5 L 488.4 161.4 L 487.0 199.3 L 485.6 203.1 L 484.1 206.9 L 482.7 201.5 L 481.3 206.3 L 479.8 199.8 L 478.4 209.6 L 476.9 183.6 L 475.5 181.4 L 474.1 203.1 L 472.6 209.6 L 471.2 211.7 L 469.7 205.2 L 468.3 196.6 L 466.9 191.2 L 465.4 199.3 L 464.0 176.0 L 462.6 174.9 L 461.1 170.6 L 459.7 169 L 458.2 179.8 L 456.8 199.3 L 455.4 171.1 L 453.9 177.1 L 452.5 160.8 L 451.0 186.8 L 449.6 200.9 L 448.2 190.6 L 446.7 184.7 L 445.3 163.5 L 443.9 170.6 L 442.4 156 L 441.0 190.6 L 439.5 191.7 L 438.1 185.7 L 436.7 161.9 L 435.2 144.6 L 433.7 145.7 L 432.3 157.6 L 430.9 158.7 L 429.4 166.8 L 428.0 170.0 L 426.5 164.1 L 425.1 159.7 L 423.7 161.9 L 422.2 176.0 L 420.8 171.7 L 419.3 165.7 L 417.9 166.8 L 416.5 159.2 L 415.0 160.3 L 413.6 160.8 L 412.2 158.7 L 410.7 161.4 L 409.3 162.5 L 407.8 156 L 406.4 147.8 L 405.0 121.8 L 403.5 119.7 L 402.1 118.0 L 400.6 118.6 L 399.2 150.0 L 397.8 151.1 L 396.3 153.2 L 394.9 148.9 L 393.5 130.5 L 392.0 152.7 L 390.6 144.6 L 389.1 161.9 L 387.7 158.1 L 386.3 157.6 L 384.8 148.4 L 383.4 141.9 L 382.0 150.5 L 380.5 129.4 L 379.1 119.7 L 377.6 114.8 L 376.2 108.8 L 374.8 107.7 L 373.3 113.2 L 371.9 119.7 L 370.4 108.8 L 369.0 128.9 L 367.6 121.8 L 366.1 130.5 L 364.7 114.2 L 363.3 124.0 L 361.8 144.0 M 521.5 239.4 L 523.0 271.9 L 524.4 262.1 L 525.8 244.8 L 527.3 209.6 L 528.7 208 M 528.7 193.9 L 527.3 203.1 L 525.8 203.6 L 524.4 238.8 L 523.0 244.8 L 521.5 238.8" stroke="black" stroke-width="3"  stroke-linejoin="round" stroke-linecap="round"  stroke-opacity="0.0" transform="translate(1, 1)"></path><path fill="none" d="M 5.2 210.7 L 6.6 206.9 L 8.1 207.4 L 9.5 202.5 L 10.9 198.7 L 12.4 200.4 L 13.8 195.5 L 15.3 195.5 L 16.7 219.9 L 18.1 219.3 L 19.6 218.2 L 21.0 251.8 L 22.4 256.2 L 23.9 256.2 L 25.3 259.4 L 26.8 242.1 L 28.2 223.1 L 29.6 229.1 L 31.1 227.5 L 32.5 244.2 L 34.0 240.5 L 35.4 251.3 L 36.8 234 L 38.3 246.4 L 39.7 240.5 L 41.1 238.3 L 42.6 235.0 L 44.0 225.8 L 45.5 233.4 L 46.9 242.6 L 48.3 254.5 L 49.8 231.2 L 51.2 223.7 L 52.6 208.5 L 54.1 219.3 L 55.5 217.7 L 57.0 212.8 L 58.4 211.7 L 59.8 207.4 L 61.3 204.7 L 62.7 200.4 L 64.2 209.0 L 65.6 213.4 L 67.0 216.1 L 68.5 198.2 L 69.9 205.8 L 71.3 210.7 L 72.8 210.7 L 74.2 231.8 L 75.7 243.7 L 77.1 247.5 L 78.5 220.4 L 80.0 208.5 L 81.4 186.8 L 82.9 187.9 L 84.3 207.4 L 85.7 198.2 L 87.2 198.2 L 88.6 192.2 L 90.0 205.2 L 91.5 213.4 L 92.9 210.1 L 94.4 202.5 L 95.8 195.5 L 97.2 187.9 L 98.7 202.0 L 100.1 195 L 101.5 183.6 L 103.0 193.9 L 104.4 203.1 L 105.9 215.5 L 107.3 223.1 L 108.7 214.5 L 110.2 215.5 L 111.6 217.2 L 113.1 211.2 L 114.5 222.6 L 115.9 226.9 L 117.4 215.0 L 118.8 203.6 L 120.2 199.3 L 121.7 207.4 L 123.1 218.2 L 124.6 229.6 L 126.0 225.8 L 127.4 194.4 L 128.9 192.8 L 130.3 198.7 L 131.8 200.4 L 133.1 209.0 L 134.6 223.1 L 136.0 204.7 L 137.4 222.0 L 138.9 226.4 L 140.3 215.5 L 141.8 196.6 L 143.2 185.2 L 144.6 187.4 L 146.1 192.2 L 147.5 195.5 L 149.0 192.2 L 150.4 180.9 L 151.8 196.6 L 153.3 197.1 L 154.7 197.7 L 156.1 208.5 L 157.6 190.1 L 159.0 197.7 L 160.5 208.5 L 161.9 207.4 L 163.3 209.0 L 164.8 200.4 L 166.2 186.3 L 167.6 185.7 L 169.1 192.2 L 170.5 199.8 L 172.0 191.2 L 173.4 190.1 L 174.8 179.8 L 176.3 201.5 L 177.7 231.2 L 179.2 226.9 L 180.6 192.2 L 182.0 219.9 L 183.5 195 L 184.9 186.8 L 186.3 181.4 L 187.8 199.3 L 189.2 205.2 L 190.7 181.4 L 192.1 185.7 L 193.5 182.5 L 195.0 187.9 L 196.4 184.1 L 197.9 206.3 L 199.3 177.6 L 200.7 168.4 L 202.2 167.3 L 203.6 171.1 L 205.0 179.8 L 206.5 175.4 L 207.9 156.5 L 209.4 166.2 L 210.8 160.3 L 212.2 185.7 L 213.7 173.8 L 215.1 189.5 L 216.6 175.4 L 218.0 185.7 L 219.4 191.7 L 220.9 178.7 L 222.3 189.0 L 223.7 180.9 L 225.2 164.1 L 226.6 164.6 L 228.1 146.2 L 229.5 146.7 L 230.9 170.6 L 232.4 166.8 L 233.8 159.7 L 235.2 177.1 L 236.7 151.1 L 238.1 156.5 L 239.6 162.5 L 241.0 185.2 L 242.4 176.5 L 243.9 160.8 L 245.3 174.4 L 246.8 153.8 L 248.2 163.5 L 249.6 158.7 L 251.1 167.9 L 252.5 189.0 L 253.9 162.5 L 255.4 188.5 L 256.8 182.5 L 258.3 186.8 L 259.7 171.1 L 261.1 178.2 L 262.6 183.6 L 264.0 171.1 L 265.5 175.4 L 266.9 172.7 L 268.3 156 L 269.8 182 L 271.2 147.8 L 272.6 133.7 L 274.1 134.8 L 275.5 158.1 L 277.0 131.0 L 278.4 131.0 L 279.8 134.3 L 281.3 135.9 L 282.7 145.7 L 284.1 132.7 L 285.6 137.0 L 287.0 138.6 L 288.5 148.4 L 289.9 141.3 L 291.3 155.4 L 292.8 144.6 L 294.2 144.6 L 295.7 140.8 L 297.1 140.2 L 298.5 133.2 L 300.0 124.5 L 301.4 126.7 L 302.8 144.6 L 304.3 125.6 L 305.7 130 L 307.2 138.6 L 308.6 147.3 L 310.0 148.4 L 311.5 154.9 L 312.9 141.3 L 314.4 148.9 L 315.8 150.0 L 317.2 147.3 L 318.7 157.0 L 320.1 137.0 L 321.5 156.5 L 323.0 143.5 L 324.4 142.4 L 325.9 147.3 L 327.3 151.1 L 328.7 169 L 330.2 172.2 L 331.6 157.6 L 333.1 158.7 L 334.5 157.0 L 335.9 151.1 L 337.4 156 L 338.8 163.0 L 340.2 179.2 L 341.7 168.4 L 343.1 172.2 L 344.6 171.1 L 346.0 180.9 L 347.4 182 M 347.4 109.9 L 346.0 108.8 L 344.6 111.0 L 343.1 121.3 L 341.7 133.7 L 340.2 131.6 L 338.8 126.7 L 337.4 138.6 L 335.9 137.0 L 334.5 114.2 L 333.1 129.4 L 331.6 128.3 L 330.2 107.7 L 328.7 95.3 L 327.3 115.3 L 325.9 110.4 L 324.4 91.5 L 323.0 104.5 L 321.5 88.8 L 320.1 95.3 L 318.7 106.1 L 317.2 90.4 L 315.8 89.9 L 314.4 108.8 L 312.9 114.2 L 311.5 109.9 L 310.0 119.1 L 308.6 118.6 L 307.2 113.7 L 305.7 93.1 L 304.3 98.0 L 302.8 77.9 L 301.4 69.8 L 300.0 73.1 L 298.5 48.2 L 297.1 55.2 L 295.7 60.6 L 294.2 55.7 L 292.8 68.2 L 291.3 70.9 L 289.9 84.5 L 288.5 116.4 L 287.0 125.6 L 285.6 107.7 L 284.1 89.3 L 282.7 68.2 L 281.3 64.4 L 279.8 51.4 L 278.4 59.5 L 277.0 55.7 L 275.5 93.1 L 274.1 111.5 L 272.6 99.1 L 271.2 91.5 L 269.8 135.9 L 268.3 118.6 L 266.9 100.2 L 265.5 90.4 L 264.0 94.2 L 262.6 104 L 261.1 90.4 L 259.7 109.9 L 258.3 102.3 L 256.8 101.2 L 255.4 96.9 L 253.9 112.1 L 252.5 144.6 L 251.1 132.7 L 249.6 138.6 L 248.2 130 L 246.8 109.9 L 245.3 125.6 L 243.9 98.0 L 242.4 107.7 L 241.0 89.9 L 239.6 104.5 L 238.1 144.6 L 236.7 118.0 L 235.2 89.9 L 233.8 97.5 L 232.4 100.7 L 230.9 90.9 L 229.5 118.0 L 228.1 108.3 L 226.6 99.6 L 225.2 96.4 L 223.7 83.4 L 222.3 105.0 L 220.9 97.5 L 219.4 108.3 L 218.0 98.0 L 216.6 97.5 L 215.1 94.7 L 213.7 119.7 L 212.2 111.5 L 210.8 112.1 L 209.4 139.2 L 207.9 127.2 L 206.5 140.2 L 205.0 100.2 L 203.6 119.7 L 202.2 105.6 L 200.7 134.3 L 199.3 163.5 L 197.9 174.9 L 196.4 140.2 L 195.0 133.7 L 193.5 133.7 L 192.1 128.9 L 190.7 132.1 L 189.2 143.5 L 187.8 138.1 L 186.3 145.1 L 184.9 165.2 L 183.5 164.1 L 182.0 160.3 L 180.6 170.6 L 179.2 157.6 L 177.7 159.7 L 176.3 166.8 L 174.8 132.1 L 173.4 126.7 L 172.0 114.2 L 170.5 121.3 L 169.1 127.8 L 167.6 123.4 L 166.2 114.8 L 164.8 117 L 163.3 130 L 161.9 132.1 L 160.5 145.7 L 159.0 151.6 L 157.6 165.7 L 156.1 161.4 L 154.7 171.7 L 153.3 180.3 L 151.8 177.1 L 150.4 171.1 L 149.0 173.3 L 147.5 171.1 L 146.1 150.5 L 144.6 169.5 L 143.2 154.9 L 141.8 182 L 140.3 174.9 L 138.9 165.2 L 137.4 161.9 L 136.0 175.4 L 134.6 169 L 133.1 160.3 L 131.8 148.9 L 130.3 157.0 L 128.9 140.8 L 127.4 162.5 L 126.0 160.8 L 124.6 170.0 L 123.1 173.8 L 121.7 197.1 L 120.2 166.8 L 118.8 180.3 L 117.4 192.2 L 115.9 215.0 L 114.5 182.5 L 113.1 186.3 L 111.6 184.1 L 110.2 189.0 L 108.7 180.3 L 107.3 179.2 L 105.9 178.7 L 104.4 167.9 L 103.0 175.4 L 101.5 158.7 L 100.1 170.0 L 98.7 178.2 L 97.2 163.0 L 95.8 165.2 L 94.4 177.1 L 92.9 165.7 L 91.5 183.6 L 90.0 168.4 L 88.6 173.3 L 87.2 177.1 L 85.7 166.2 L 84.3 156.5 L 82.9 153.2 L 81.4 169 L 80.0 174.4 L 78.5 195.5 L 77.1 215.5 L 75.7 216.1 L 74.2 202.5 L 72.8 192.8 L 71.3 191.2 L 69.9 184.7 L 68.5 177.1 L 67.0 174.4 L 65.6 189.0 L 64.2 187.4 L 62.7 180.9 L 61.3 169 L 59.8 195.5 L 58.4 185.7 L 57.0 190.6 L 55.5 188.5 L 54.1 187.9 L 52.6 174.9 L 51.2 172.2 L 49.8 202.5 L 48.3 231.8 L 46.9 226.9 L 45.5 195.5 L 44.0 202.5 L 42.6 212.3 L 41.1 210.7 L 39.7 203.6 L 38.3 221 L 36.8 219.3 L 35.4 231.2 L 34.0 219.3 L 32.5 227.5 L 31.1 215.0 L 29.6 217.2 L 28.2 214.5 L 26.8 211.7 L 25.3 239.4 L 23.9 229.1 L 22.4 235.0 L 21.0 218.8 L 19.6 203.6 L 18.1 187.9 L 16.7 192.2 L 15.3 186.8 L 13.8 184.1 L 12.4 173.8 L 10.9 166.2 L 9.5 176.5 L 8.1 179.2 L 6.6 182 L 5.2 191.2 M 361.8 144.0 L 363.3 145.1 L 364.7 152.2 L 366.1 167.9 L 367.6 184.7 L 369.0 179.8 L 370.4 160.8 L 371.9 169.5 L 373.3 173.8 L 374.8 184.1 L 376.2 191.2 L 377.6 195 L 379.1 192.2 L 380.5 199.8 L 382.0 170.6 L 383.4 175.4 L 384.8 209.6 L 386.3 205.8 L 387.7 189.5 L 389.1 182 L 390.6 172.2 L 392.0 168.4 L 393.5 163.0 L 394.9 188.5 L 396.3 191.7 L 397.8 169 L 399.2 195.5 L 400.6 202.0 L 402.1 161.4 L 403.5 164.6 L 405.0 166.2 L 406.4 172.7 L 407.8 180.3 L 409.3 195 L 410.7 182.5 L 412.2 180.9 L 413.6 180.9 L 415.0 184.7 L 416.5 210.1 L 417.9 217.2 L 419.3 222.0 L 420.8 225.8 L 422.2 219.9 L 423.7 179.2 L 425.1 174.9 L 426.5 196.0 L 428.0 183.0 L 429.4 181.4 L 430.9 173.8 L 432.3 183.6 L 433.7 160.8 L 435.2 178.2 L 436.7 216.6 L 438.1 216.6 L 439.5 195.5 L 441.0 195 L 442.4 190.6 L 443.9 178.7 L 445.3 200.4 L 446.7 201.5 L 448.2 212.3 L 449.6 217.7 L 451.0 219.9 L 452.5 180.9 L 453.9 187.4 L 455.4 200.4 L 456.8 214.5 L 458.2 217.2 L 459.7 190.6 L 461.1 191.7 L 462.6 193.3 L 464.0 198.7 L 465.4 218.8 L 466.9 206.3 L 468.3 217.7 L 469.7 223.7 L 471.2 226.4 L 472.6 231.2 L 474.1 215.0 L 475.5 198.2 L 476.9 212.3 L 478.4 222.0 L 479.8 214.5 L 481.3 223.1 L 482.7 222.6 L 484.1 220.4 L 485.6 213.9 L 487.0 209.0 L 488.4 192.2 L 489.9 214.5 L 491.3 203.1 L 492.8 210.7 L 494.2 205.8 L 495.6 209.0 L 497.1 212.8 L 498.5 206.3 L 499.9 217.7 L 501.4 217.2 L 502.8 222.0 L 504.3 213.9 L 505.7 225.8 L 507.1 215.0 L 508.6 232.9 L 510.0 222.6 L 511.5 212.3 L 512.9 211.7 L 514.3 215.0 L 515.8 213.4 L 517.2 208.5 M 517.2 192.8 L 515.8 187.9 L 514.3 195.5 L 512.9 192.8 L 511.5 198.2 L 510.0 208.5 L 508.6 214.5 L 507.1 201.5 L 505.7 186.3 L 504.3 187.4 L 502.8 196.0 L 501.4 207.4 L 499.9 196.6 L 498.5 195.5 L 497.1 191.7 L 495.6 204.7 L 494.2 192.8 L 492.8 189.5 L 491.3 196.6 L 489.9 162.5 L 488.4 161.4 L 487.0 199.3 L 485.6 203.1 L 484.1 206.9 L 482.7 201.5 L 481.3 206.3 L 479.8 199.8 L 478.4 209.6 L 476.9 183.6 L 475.5 181.4 L 474.1 203.1 L 472.6 209.6 L 471.2 211.7 L 469.7 205.2 L 468.3 196.6 L 466.9 191.2 L 465.4 199.3 L 464.0 176.0 L 462.6 174.9 L 461.1 170.6 L 459.7 169 L 458.2 179.8 L 456.8 199.3 L 455.4 171.1 L 453.9 177.1 L 452.5 160.8 L 451.0 186.8 L 449.6 200.9 L 448.2 190.6 L 446.7 184.7 L 445.3 163.5 L 443.9 170.6 L 442.4 156 L 441.0 190.6 L 439.5 191.7 L 438.1 185.7 L 436.7 161.9 L 435.2 144.6 L 433.7 145.7 L 432.3 157.6 L 430.9 158.7 L 429.4 166.8 L 428.0 170.0 L 426.5 164.1 L 425.1 159.7 L 423.7 161.9 L 422.2 176.0 L 420.8 171.7 L 419.3 165.7 L 417.9 166.8 L 416.5 159.2 L 415.0 160.3 L 413.6 160.8 L 412.2 158.7 L 410.7 161.4 L 409.3 162.5 L 407.8 156 L 406.4 147.8 L 405.0 121.8 L 403.5 119.7 L 402.1 118.0 L 400.6 118.6 L 399.2 150.0 L 397.8 151.1 L 396.3 153.2 L 394.9 148.9 L 393.5 130.5 L 392.0 152.7 L 390.6 144.6 L 389.1 161.9 L 387.7 158.1 L 386.3 157.6 L 384.8 148.4 L 383.4 141.9 L 382.0 150.5 L 380.5 129.4 L 379.1 119.7 L 377.6 114.8 L 376.2 108.8 L 374.8 107.7 L 373.3 113.2 L 371.9 119.7 L 370.4 108.8 L 369.0 128.9 L 367.6 121.8 L 366.1 130.5 L 364.7 114.2 L 363.3 124.0 L 361.8 144.0 M 521.5 239.4 L 523.0 271.9 L 524.4 262.1 L 525.8 244.8 L 527.3 209.6 L 528.7 208 M 528.7 193.9 L 527.3 203.1 L 525.8 203.6 L 524.4 238.8 L 523.0 244.8 L 521.5 238.8" stroke="black" stroke-width="1"  stroke-linejoin="round" stroke-linecap="round"  stroke-opacity="0.1" transform="translate(1, 1)"></path><path fill="none" d="M 5.2 210.7 L 6.6 206.9 L 8.1 207.4 L 9.5 202.5 L 10.9 198.7 L 12.4 200.4 L 13.8 195.5 L 15.3 195.5 L 16.7 219.9 L 18.1 219.3 L 19.6 218.2 L 21.0 251.8 L 22.4 256.2 L 23.9 256.2 L 25.3 259.4 L 26.8 242.1 L 28.2 223.1 L 29.6 229.1 L 31.1 227.5 L 32.5 244.2 L 34.0 240.5 L 35.4 251.3 L 36.8 234 L 38.3 246.4 L 39.7 240.5 L 41.1 238.3 L 42.6 235.0 L 44.0 225.8 L 45.5 233.4 L 46.9 242.6 L 48.3 254.5 L 49.8 231.2 L 51.2 223.7 L 52.6 208.5 L 54.1 219.3 L 55.5 217.7 L 57.0 212.8 L 58.4 211.7 L 59.8 207.4 L 61.3 204.7 L 62.7 200.4 L 64.2 209.0 L 65.6 213.4 L 67.0 216.1 L 68.5 198.2 L 69.9 205.8 L 71.3 210.7 L 72.8 210.7 L 74.2 231.8 L 75.7 243.7 L 77.1 247.5 L 78.5 220.4 L 80.0 208.5 L 81.4 186.8 L 82.9 187.9 L 84.3 207.4 L 85.7 198.2 L 87.2 198.2 L 88.6 192.2 L 90.0 205.2 L 91.5 213.4 L 92.9 210.1 L 94.4 202.5 L 95.8 195.5 L 97.2 187.9 L 98.7 202.0 L 100.1 195 L 101.5 183.6 L 103.0 193.9 L 104.4 203.1 L 105.9 215.5 L 107.3 223.1 L 108.7 214.5 L 110.2 215.5 L 111.6 217.2 L 113.1 211.2 L 114.5 222.6 L 115.9 226.9 L 117.4 215.0 L 118.8 203.6 L 120.2 199.3 L 121.7 207.4 L 123.1 218.2 L 124.6 229.6 L 126.0 225.8 L 127.4 194.4 L 128.9 192.8 L 130.3 198.7 L 131.8 200.4 L 133.1 209.0 L 134.6 223.1 L 136.0 204.7 L 137.4 222.0 L 138.9 226.4 L 140.3 215.5 L 141.8 196.6 L 143.2 185.2 L 144.6 187.4 L 146.1 192.2 L 147.5 195.5 L 149.0 192.2 L 150.4 180.9 L 151.8 196.6 L 153.3 197.1 L 154.7 197.7 L 156.1 208.5 L 157.6 190.1 L 159.0 197.7 L 160.5 208.5 L 161.9 207.4 L 163.3 209.0 L 164.8 200.4 L 166.2 186.3 L 167.6 185.7 L 169.1 192.2 L 170.5 199.8 L 172.0 191.2 L 173.4 190.1 L 174.8 179.8 L 176.3 201.5 L 177.7 231.2 L 179.2 226.9 L 180.6 192.2 L 182.0 219.9 L 183.5 195 L 184.9 186.8 L 186.3 181.4 L 187.8 199.3 L 189.2 205.2 L 190.7 181.4 L 192.1 185.7 L 193.5 182.5 L 195.0 187.9 L 196.4 184.1 L 197.9 206.3 L 199.3 177.6 L 200.7 168.4 L 202.2 167.3 L 203.6 171.1 L 205.0 179.8 L 206.5 175.4 L 207.9 156.5 L 209.4 166.2 L 210.8 160.3 L 212.2 185.7 L 213.7 173.8 L 215.1 189.5 L 216.6 175.4 L 218.0 185.7 L 219.4 191.7 L 220.9 178.7 L 222.3 189.0 L 223.7 180.9 L 225.2 164.1 L 226.6 164.6 L 228.1 146.2 L 229.5 146.7 L 230.9 170.6 L 232.4 166.8 L 233.8 159.7 L 235.2 177.1 L 236.7 151.1 L 238.1 156.5 L 239.6 162.5 L 241.0 185.2 L 242.4 176.5 L 243.9 160.8 L 245.3 174.4 L 246.8 153.8 L 248.2 163.5 L 249.6 158.7 L 251.1 167.9 L 252.5 189.0 L 253.9 162.5 L 255.4 188.5 L 256.8 182.5 L 258.3 186.8 L 259.7 171.1 L 261.1 178.2 L 262.6 183.6 L 264.0 171.1 L 265.5 175.4 L 266.9 172.7 L 268.3 156 L 269.8 182 L 271.2 147.8 L 272.6 133.7 L 274.1 134.8 L 275.5 158.1 L 277.0 131.0 L 278.4 131.0 L 279.8 134.3 L 281.3 135.9 L 282.7 145.7 L 284.1 132.7 L 285.6 137.0 L 287.0 138.6 L 288.5 148.4 L 289.9 141.3 L 291.3 155.4 L 292.8 144.6 L 294.2 144.6 L 295.7 140.8 L 297.1 140.2 L 298.5 133.2 L 300.0 124.5 L 301.4 126.7 L 302.8 144.6 L 304.3 125.6 L 305.7 130 L 307.2 138.6 L 308.6 147.3 L 310.0 148.4 L 311.5 154.9 L 312.9 141.3 L 314.4 148.9 L 315.8 150.0 L 317.2 147.3 L 318.7 157.0 L 320.1 137.0 L 321.5 156.5 L 323.0 143.5 L 324.4 142.4 L 325.9 147.3 L 327.3 151.1 L 328.7 169 L 330.2 172.2 L 331.6 157.6 L 333.1 158.7 L 334.5 157.0 L 335.9 151.1 L 337.4 156 L 338.8 163.0 L 340.2 179.2 L 341.7 168.4 L 343.1 172.2 L 344.6 171.1 L 346.0 180.9 L 347.4 182 M 347.4 109.9 L 346.0 108.8 L 344.6 111.0 L 343.1 121.3 L 341.7 133.7 L 340.2 131.6 L 338.8 126.7 L 337.4 138.6 L 335.9 137.0 L 334.5 114.2 L 333.1 129.4 L 331.6 128.3 L 330.2 107.7 L 328.7 95.3 L 327.3 115.3 L 325.9 110.4 L 324.4 91.5 L 323.0 104.5 L 321.5 88.8 L 320.1 95.3 L 318.7 106.1 L 317.2 90.4 L 315.8 89.9 L 314.4 108.8 L 312.9 114.2 L 311.5 109.9 L 310.0 119.1 L 308.6 118.6 L 307.2 113.7 L 305.7 93.1 L 304.3 98.0 L 302.8 77.9 L 301.4 69.8 L 300.0 73.1 L 298.5 48.2 L 297.1 55.2 L 295.7 60.6 L 294.2 55.7 L 292.8 68.2 L 291.3 70.9 L 289.9 84.5 L 288.5 116.4 L 287.0 125.6 L 285.6 107.7 L 284.1 89.3 L 282.7 68.2 L 281.3 64.4 L 279.8 51.4 L 278.4 59.5 L 277.0 55.7 L 275.5 93.1 L 274.1 111.5 L 272.6 99.1 L 271.2 91.5 L 269.8 135.9 L 268.3 118.6 L 266.9 100.2 L 265.5 90.4 L 264.0 94.2 L 262.6 104 L 261.1 90.4 L 259.7 109.9 L 258.3 102.3 L 256.8 101.2 L 255.4 96.9 L 253.9 112.1 L 252.5 144.6 L 251.1 132.7 L 249.6 138.6 L 248.2 130 L 246.8 109.9 L 245.3 125.6 L 243.9 98.0 L 242.4 107.7 L 241.0 89.9 L 239.6 104.5 L 238.1 144.6 L 236.7 118.0 L 235.2 89.9 L 233.8 97.5 L 232.4 100.7 L 230.9 90.9 L 229.5 118.0 L 228.1 108.3 L 226.6 99.6 L 225.2 96.4 L 223.7 83.4 L 222.3 105.0 L 220.9 97.5 L 219.4 108.3 L 218.0 98.0 L 216.6 97.5 L 215.1 94.7 L 213.7 119.7 L 212.2 111.5 L 210.8 112.1 L 209.4 139.2 L 207.9 127.2 L 206.5 140.2 L 205.0 100.2 L 203.6 119.7 L 202.2 105.6 L 200.7 134.3 L 199.3 163.5 L 197.9 174.9 L 196.4 140.2 L 195.0 133.7 L 193.5 133.7 L 192.1 128.9 L 190.7 132.1 L 189.2 143.5 L 187.8 138.1 L 186.3 145.1 L 184.9 165.2 L 183.5 164.1 L 182.0 160.3 L 180.6 170.6 L 179.2 157.6 L 177.7 159.7 L 176.3 166.8 L 174.8 132.1 L 173.4 126.7 L 172.0 114.2 L 170.5 121.3 L 169.1 127.8 L 167.6 123.4 L 166.2 114.8 L 164.8 117 L 163.3 130 L 161.9 132.1 L 160.5 145.7 L 159.0 151.6 L 157.6 165.7 L 156.1 161.4 L 154.7 171.7 L 153.3 180.3 L 151.8 177.1 L 150.4 171.1 L 149.0 173.3 L 147.5 171.1 L 146.1 150.5 L 144.6 169.5 L 143.2 154.9 L 141.8 182 L 140.3 174.9 L 138.9 165.2 L 137.4 161.9 L 136.0 175.4 L 134.6 169 L 133.1 160.3 L 131.8 148.9 L 130.3 157.0 L 128.9 140.8 L 127.4 162.5 L 126.0 160.8 L 124.6 170.0 L 123.1 173.8 L 121.7 197.1 L 120.2 166.8 L 118.8 180.3 L 117.4 192.2 L 115.9 215.0 L 114.5 182.5 L 113.1 186.3 L 111.6 184.1 L 110.2 189.0 L 108.7 180.3 L 107.3 179.2 L 105.9 178.7 L 104.4 167.9 L 103.0 175.4 L 101.5 158.7 L 100.1 170.0 L 98.7 178.2 L 97.2 163.0 L 95.8 165.2 L 94.4 177.1 L 92.9 165.7 L 91.5 183.6 L 90.0 168.4 L 88.6 173.3 L 87.2 177.1 L 85.7 166.2 L 84.3 156.5 L 82.9 153.2 L 81.4 169 L 80.0 174.4 L 78.5 195.5 L 77.1 215.5 L 75.7 216.1 L 74.2 202.5 L 72.8 192.8 L 71.3 191.2 L 69.9 184.7 L 68.5 177.1 L 67.0 174.4 L 65.6 189.0 L 64.2 187.4 L 62.7 180.9 L 61.3 169 L 59.8 195.5 L 58.4 185.7 L 57.0 190.6 L 55.5 188.5 L 54.1 187.9 L 52.6 174.9 L 51.2 172.2 L 49.8 202.5 L 48.3 231.8 L 46.9 226.9 L 45.5 195.5 L 44.0 202.5 L 42.6 212.3 L 41.1 210.7 L 39.7 203.6 L 38.3 221 L 36.8 219.3 L 35.4 231.2 L 34.0 219.3 L 32.5 227.5 L 31.1 215.0 L 29.6 217.2 L 28.2 214.5 L 26.8 211.7 L 25.3 239.4 L 23.9 229.1 L 22.4 235.0 L 21.0 218.8 L 19.6 203.6 L 18.1 187.9 L 16.7 192.2 L 15.3 186.8 L 13.8 184.1 L 12.4 173.8 L 10.9 166.2 L 9.5 176.5 L 8.1 179.2 L 6.6 182 L 5.2 191.2 M 361.8 144.0 L 363.3 145.1 L 364.7 152.2 L 366.1 167.9 L 367.6 184.7 L 369.0 179.8 L 370.4 160.8 L 371.9 169.5 L 373.3 173.8 L 374.8 184.1 L 376.2 191.2 L 377.6 195 L 379.1 192.2 L 380.5 199.8 L 382.0 170.6 L 383.4 175.4 L 384.8 209.6 L 386.3 205.8 L 387.7 189.5 L 389.1 182 L 390.6 172.2 L 392.0 168.4 L 393.5 163.0 L 394.9 188.5 L 396.3 191.7 L 397.8 169 L 399.2 195.5 L 400.6 202.0 L 402.1 161.4 L 403.5 164.6 L 405.0 166.2 L 406.4 172.7 L 407.8 180.3 L 409.3 195 L 410.7 182.5 L 412.2 180.9 L 413.6 180.9 L 415.0 184.7 L 416.5 210.1 L 417.9 217.2 L 419.3 222.0 L 420.8 225.8 L 422.2 219.9 L 423.7 179.2 L 425.1 174.9 L 426.5 196.0 L 428.0 183.0 L 429.4 181.4 L 430.9 173.8 L 432.3 183.6 L 433.7 160.8 L 435.2 178.2 L 436.7 216.6 L 438.1 216.6 L 439.5 195.5 L 441.0 195 L 442.4 190.6 L 443.9 178.7 L 445.3 200.4 L 446.7 201.5 L 448.2 212.3 L 449.6 217.7 L 451.0 219.9 L 452.5 180.9 L 453.9 187.4 L 455.4 200.4 L 456.8 214.5 L 458.2 217.2 L 459.7 190.6 L 461.1 191.7 L 462.6 193.3 L 464.0 198.7 L 465.4 218.8 L 466.9 206.3 L 468.3 217.7 L 469.7 223.7 L 471.2 226.4 L 472.6 231.2 L 474.1 215.0 L 475.5 198.2 L 476.9 212.3 L 478.4 222.0 L 479.8 214.5 L 481.3 223.1 L 482.7 222.6 L 484.1 220.4 L 485.6 213.9 L 487.0 209.0 L 488.4 192.2 L 489.9 214.5 L 491.3 203.1 L 492.8 210.7 L 494.2 205.8 L 495.6 209.0 L 497.1 212.8 L 498.5 206.3 L 499.9 217.7 L 501.4 217.2 L 502.8 222.0 L 504.3 213.9 L 505.7 225.8 L 507.1 215.0 L 508.6 232.9 L 510.0 222.6 L 511.5 212.3 L 512.9 211.7 L 514.3 215.0 L 515.8 213.4 L 517.2 208.5 M 517.2 192.8 L 515.8 187.9 L 514.3 195.5 L 512.9 192.8 L 511.5 198.2 L 510.0 208.5 L 508.6 214.5 L 507.1 201.5 L 505.7 186.3 L 504.3 187.4 L 502.8 196.0 L 501.4 207.4 L 499.9 196.6 L 498.5 195.5 L 497.1 191.7 L 495.6 204.7 L 494.2 192.8 L 492.8 189.5 L 491.3 196.6 L 489.9 162.5 L 488.4 161.4 L 487.0 199.3 L 485.6 203.1 L 484.1 206.9 L 482.7 201.5 L 481.3 206.3 L 479.8 199.8 L 478.4 209.6 L 476.9 183.6 L 475.5 181.4 L 474.1 203.1 L 472.6 209.6 L 471.2 211.7 L 469.7 205.2 L 468.3 196.6 L 466.9 191.2 L 465.4 199.3 L 464.0 176.0 L 462.6 174.9 L 461.1 170.6 L 459.7 169 L 458.2 179.8 L 456.8 199.3 L 455.4 171.1 L 453.9 177.1 L 452.5 160.8 L 451.0 186.8 L 449.6 200.9 L 448.2 190.6 L 446.7 184.7 L 445.3 163.5 L 443.9 170.6 L 442.4 156 L 441.0 190.6 L 439.5 191.7 L 438.1 185.7 L 436.7 161.9 L 435.2 144.6 L 433.7 145.7 L 432.3 157.6 L 430.9 158.7 L 429.4 166.8 L 428.0 170.0 L 426.5 164.1 L 425.1 159.7 L 423.7 161.9 L 422.2 176.0 L 420.8 171.7 L 419.3 165.7 L 417.9 166.8 L 416.5 159.2 L 415.0 160.3 L 413.6 160.8 L 412.2 158.7 L 410.7 161.4 L 409.3 162.5 L 407.8 156 L 406.4 147.8 L 405.0 121.8 L 403.5 119.7 L 402.1 118.0 L 400.6 118.6 L 399.2 150.0 L 397.8 151.1 L 396.3 153.2 L 394.9 148.9 L 393.5 130.5 L 392.0 152.7 L 390.6 144.6 L 389.1 161.9 L 387.7 158.1 L 386.3 157.6 L 384.8 148.4 L 383.4 141.9 L 382.0 150.5 L 380.5 129.4 L 379.1 119.7 L 377.6 114.8 L 376.2 108.8 L 374.8 107.7 L 373.3 113.2 L 371.9 119.7 L 370.4 108.8 L 369.0 128.9 L 367.6 121.8 L 366.1 130.5 L 364.7 114.2 L 363.3 124.0 L 361.8 144.0 M 521.5 239.4 L 523.0 271.9 L 524.4 262.1 L 525.8 244.8 L 527.3 209.6 L 528.7 208 M 528.7 193.9 L 527.3 203.1 L 525.8 203.6 L 524.4 238.8 L 523.0 244.8 L 521.5 238.8" stroke="#f45b5b" stroke-width="1"  stroke-linejoin="round" stroke-linecap="round"></path><path fill="rgb(192,192,192)" fill-opacity="0.0" d="M 5.2 210.7 L 6.6 206.9 L 8.1 207.4 L 9.5 202.5 L 10.9 198.7 L 12.4 200.4 L 13.8 195.5 L 15.3 195.5 L 16.7 219.9 L 18.1 219.3 L 19.6 218.2 L 21.0 251.8 L 22.4 256.2 L 23.9 256.2 L 25.3 259.4 L 26.8 242.1 L 28.2 223.1 L 29.6 229.1 L 31.1 227.5 L 32.5 244.2 L 34.0 240.5 L 35.4 251.3 L 36.8 234 L 38.3 246.4 L 39.7 240.5 L 41.1 238.3 L 42.6 235.0 L 44.0 225.8 L 45.5 233.4 L 46.9 242.6 L 48.3 254.5 L 49.8 231.2 L 51.2 223.7 L 52.6 208.5 L 54.1 219.3 L 55.5 217.7 L 57.0 212.8 L 58.4 211.7 L 59.8 207.4 L 61.3 204.7 L 62.7 200.4 L 64.2 209.0 L 65.6 213.4 L 67.0 216.1 L 68.5 198.2 L 69.9 205.8 L 71.3 210.7 L 72.8 210.7 L 74.2 231.8 L 75.7 243.7 L 77.1 247.5 L 78.5 220.4 L 80.0 208.5 L 81.4 186.8 L 82.9 187.9 L 84.3 207.4 L 85.7 198.2 L 87.2 198.2 L 88.6 192.2 L 90.0 205.2 L 91.5 213.4 L 92.9 210.1 L 94.4 202.5 L 95.8 195.5 L 97.2 187.9 L 98.7 202.0 L 100.1 195 L 101.5 183.6 L 103.0 193.9 L 104.4 203.1 L 105.9 215.5 L 107.3 223.1 L 108.7 214.5 L 110.2 215.5 L 111.6 217.2 L 113.1 211.2 L 114.5 222.6 L 115.9 226.9 L 117.4 215.0 L 118.8 203.6 L 120.2 199.3 L 121.7 207.4 L 123.1 218.2 L 124.6 229.6 L 126.0 225.8 L 127.4 194.4 L 128.9 192.8 L 130.3 198.7 L 131.8 200.4 L 133.1 209.0 L 134.6 223.1 L 136.0 204.7 L 137.4 222.0 L 138.9 226.4 L 140.3 215.5 L 141.8 196.6 L 143.2 185.2 L 144.6 187.4 L 146.1 192.2 L 147.5 195.5 L 149.0 192.2 L 150.4 180.9 L 151.8 196.6 L 153.3 197.1 L 154.7 197.7 L 156.1 208.5 L 157.6 190.1 L 159.0 197.7 L 160.5 208.5 L 161.9 207.4 L 163.3 209.0 L 164.8 200.4 L 166.2 186.3 L 167.6 185.7 L 169.1 192.2 L 170.5 199.8 L 172.0 191.2 L 173.4 190.1 L 174.8 179.8 L 176.3 201.5 L 177.7 231.2 L 179.2 226.9 L 180.6 192.2 L 182.0 219.9 L 183.5 195 L 184.9 186.8 L 186.3 181.4 L 187.8 199.3 L 189.2 205.2 L 190.7 181.4 L 192.1 185.7 L 193.5 182.5 L 195.0 187.9 L 196.4 184.1 L 197.9 206.3 L 199.3 177.6 L 200.7 168.4 L 202.2 167.3 L 203.6 171.1 L 205.0 179.8 L 206.5 175.4 L 207.9 156.5 L 209.4 166.2 L 210.8 160.3 L 212.2 185.7 L 213.7 173.8 L 215.1 189.5 L 216.6 175.4 L 218.0 185.7 L 219.4 191.7 L 220.9 178.7 L 222.3 189.0 L 223.7 180.9 L 225.2 164.1 L 226.6 164.6 L 228.1 146.2 L 229.5 146.7 L 230.9 170.6 L 232.4 166.8 L 233.8 159.7 L 235.2 177.1 L 236.7 151.1 L 238.1 156.5 L 239.6 162.5 L 241.0 185.2 L 242.4 176.5 L 243.9 160.8 L 245.3 174.4 L 246.8 153.8 L 248.2 163.5 L 249.6 158.7 L 251.1 167.9 L 252.5 189.0 L 253.9 162.5 L 255.4 188.5 L 256.8 182.5 L 258.3 186.8 L 259.7 171.1 L 261.1 178.2 L 262.6 183.6 L 264.0 171.1 L 265.5 175.4 L 266.9 172.7 L 268.3 156 L 269.8 182 L 271.2 147.8 L 272.6 133.7 L 274.1 134.8 L 275.5 158.1 L 277.0 131.0 L 278.4 131.0 L 279.8 134.3 L 281.3 135.9 L 282.7 145.7 L 284.1 132.7 L 285.6 137.0 L 287.0 138.6 L 288.5 148.4 L 289.9 141.3 L 291.3 155.4 L 292.8 144.6 L 294.2 144.6 L 295.7 140.8 L 297.1 140.2 L 298.5 133.2 L 300.0 124.5 L 301.4 126.7 L 302.8 144.6 L 304.3 125.6 L 305.7 130 L 307.2 138.6 L 308.6 147.3 L 310.0 148.4 L 311.5 154.9 L 312.9 141.3 L 314.4 148.9 L 315.8 150.0 L 317.2 147.3 L 318.7 157.0 L 320.1 137.0 L 321.5 156.5 L 323.0 143.5 L 324.4 142.4 L 325.9 147.3 L 327.3 151.1 L 328.7 169 L 330.2 172.2 L 331.6 157.6 L 333.1 158.7 L 334.5 157.0 L 335.9 151.1 L 337.4 156 L 338.8 163.0 L 340.2 179.2 L 341.7 168.4 L 343.1 172.2 L 344.6 171.1 L 346.0 180.9 L 347.4 182 L 347.4 109.9 L 346.0 108.8 L 344.6 111.0 L 343.1 121.3 L 341.7 133.7 L 340.2 131.6 L 338.8 126.7 L 337.4 138.6 L 335.9 137.0 L 334.5 114.2 L 333.1 129.4 L 331.6 128.3 L 330.2 107.7 L 328.7 95.3 L 327.3 115.3 L 325.9 110.4 L 324.4 91.5 L 323.0 104.5 L 321.5 88.8 L 320.1 95.3 L 318.7 106.1 L 317.2 90.4 L 315.8 89.9 L 314.4 108.8 L 312.9 114.2 L 311.5 109.9 L 310.0 119.1 L 308.6 118.6 L 307.2 113.7 L 305.7 93.1 L 304.3 98.0 L 302.8 77.9 L 301.4 69.8 L 300.0 73.1 L 298.5 48.2 L 297.1 55.2 L 295.7 60.6 L 294.2 55.7 L 292.8 68.2 L 291.3 70.9 L 289.9 84.5 L 288.5 116.4 L 287.0 125.6 L 285.6 107.7 L 284.1 89.3 L 282.7 68.2 L 281.3 64.4 L 279.8 51.4 L 278.4 59.5 L 277.0 55.7 L 275.5 93.1 L 274.1 111.5 L 272.6 99.1 L 271.2 91.5 L 269.8 135.9 L 268.3 118.6 L 266.9 100.2 L 265.5 90.4 L 264.0 94.2 L 262.6 104 L 261.1 90.4 L 259.7 109.9 L 258.3 102.3 L 256.8 101.2 L 255.4 96.9 L 253.9 112.1 L 252.5 144.6 L 251.1 132.7 L 249.6 138.6 L 248.2 130 L 246.8 109.9 L 245.3 125.6 L 243.9 98.0 L 242.4 107.7 L 241.0 89.9 L 239.6 104.5 L 238.1 144.6 L 236.7 118.0 L 235.2 89.9 L 233.8 97.5 L 232.4 100.7 L 230.9 90.9 L 229.5 118.0 L 228.1 108.3 L 226.6 99.6 L 225.2 96.4 L 223.7 83.4 L 222.3 105.0 L 220.9 97.5 L 219.4 108.3 L 218.0 98.0 L 216.6 97.5 L 215.1 94.7 L 213.7 119.7 L 212.2 111.5 L 210.8 112.1 L 209.4 139.2 L 207.9 127.2 L 206.5 140.2 L 205.0 100.2 L 203.6 119.7 L 202.2 105.6 L 200.7 134.3 L 199.3 163.5 L 197.9 174.9 L 196.4 140.2 L 195.0 133.7 L 193.5 133.7 L 192.1 128.9 L 190.7 132.1 L 189.2 143.5 L 187.8 138.1 L 186.3 145.1 L 184.9 165.2 L 183.5 164.1 L 182.0 160.3 L 180.6 170.6 L 179.2 157.6 L 177.7 159.7 L 176.3 166.8 L 174.8 132.1 L 173.4 126.7 L 172.0 114.2 L 170.5 121.3 L 169.1 127.8 L 167.6 123.4 L 166.2 114.8 L 164.8 117 L 163.3 130 L 161.9 132.1 L 160.5 145.7 L 159.0 151.6 L 157.6 165.7 L 156.1 161.4 L 154.7 171.7 L 153.3 180.3 L 151.8 177.1 L 150.4 171.1 L 149.0 173.3 L 147.5 171.1 L 146.1 150.5 L 144.6 169.5 L 143.2 154.9 L 141.8 182 L 140.3 174.9 L 138.9 165.2 L 137.4 161.9 L 136.0 175.4 L 134.6 169 L 133.1 160.3 L 131.8 148.9 L 130.3 157.0 L 128.9 140.8 L 127.4 162.5 L 126.0 160.8 L 124.6 170.0 L 123.1 173.8 L 121.7 197.1 L 120.2 166.8 L 118.8 180.3 L 117.4 192.2 L 115.9 215.0 L 114.5 182.5 L 113.1 186.3 L 111.6 184.1 L 110.2 189.0 L 108.7 180.3 L 107.3 179.2 L 105.9 178.7 L 104.4 167.9 L 103.0 175.4 L 101.5 158.7 L 100.1 170.0 L 98.7 178.2 L 97.2 163.0 L 95.8 165.2 L 94.4 177.1 L 92.9 165.7 L 91.5 183.6 L 90.0 168.4 L 88.6 173.3 L 87.2 177.1 L 85.7 166.2 L 84.3 156.5 L 82.9 153.2 L 81.4 169 L 80.0 174.4 L 78.5 195.5 L 77.1 215.5 L 75.7 216.1 L 74.2 202.5 L 72.8 192.8 L 71.3 191.2 L 69.9 184.7 L 68.5 177.1 L 67.0 174.4 L 65.6 189.0 L 64.2 187.4 L 62.7 180.9 L 61.3 169 L 59.8 195.5 L 58.4 185.7 L 57.0 190.6 L 55.5 188.5 L 54.1 187.9 L 52.6 174.9 L 51.2 172.2 L 49.8 202.5 L 48.3 231.8 L 46.9 226.9 L 45.5 195.5 L 44.0 202.5 L 42.6 212.3 L 41.1 210.7 L 39.7 203.6 L 38.3 221 L 36.8 219.3 L 35.4 231.2 L 34.0 219.3 L 32.5 227.5 L 31.1 215.0 L 29.6 217.2 L 28.2 214.5 L 26.8 211.7 L 25.3 239.4 L 23.9 229.1 L 22.4 235.0 L 21.0 218.8 L 19.6 203.6 L 18.1 187.9 L 16.7 192.2 L 15.3 186.8 L 13.8 184.1 L 12.4 173.8 L 10.9 166.2 L 9.5 176.5 L 8.1 179.2 L 6.6 182 L 5.2 191.2 M 361.8 144.0 L 363.3 145.1 L 364.7 152.2 L 366.1 167.9 L 367.6 184.7 L 369.0 179.8 L 370.4 160.8 L 371.9 169.5 L 373.3 173.8 L 374.8 184.1 L 376.2 191.2 L 377.6 195 L 379.1 192.2 L 380.5 199.8 L 382.0 170.6 L 383.4 175.4 L 384.8 209.6 L 386.3 205.8 L 387.7 189.5 L 389.1 182 L 390.6 172.2 L 392.0 168.4 L 393.5 163.0 L 394.9 188.5 L 396.3 191.7 L 397.8 169 L 399.2 195.5 L 400.6 202.0 L 402.1 161.4 L 403.5 164.6 L 405.0 166.2 L 406.4 172.7 L 407.8 180.3 L 409.3 195 L 410.7 182.5 L 412.2 180.9 L 413.6 180.9 L 415.0 184.7 L 416.5 210.1 L 417.9 217.2 L 419.3 222.0 L 420.8 225.8 L 422.2 219.9 L 423.7 179.2 L 425.1 174.9 L 426.5 196.0 L 428.0 183.0 L 429.4 181.4 L 430.9 173.8 L 432.3 183.6 L 433.7 160.8 L 435.2 178.2 L 436.7 216.6 L 438.1 216.6 L 439.5 195.5 L 441.0 195 L 442.4 190.6 L 443.9 178.7 L 445.3 200.4 L 446.7 201.5 L 448.2 212.3 L 449.6 217.7 L 451.0 219.9 L 452.5 180.9 L 453.9 187.4 L 455.4 200.4 L 456.8 214.5 L 458.2 217.2 L 459.7 190.6 L 461.1 191.7 L 462.6 193.3 L 464.0 198.7 L 465.4 218.8 L 466.9 206.3 L 468.3 217.7 L 469.7 223.7 L 471.2 226.4 L 472.6 231.2 L 474.1 215.0 L 475.5 198.2 L 476.9 212.3 L 478.4 222.0 L 479.8 214.5 L 481.3 223.1 L 482.7 222.6 L 484.1 220.4 L 485.6 213.9 L 487.0 209.0 L 488.4 192.2 L 489.9 214.5 L 491.3 203.1 L 492.8 210.7 L 494.2 205.8 L 495.6 209.0 L 497.1 212.8 L 498.5 206.3 L 499.9 217.7 L 501.4 217.2 L 502.8 222.0 L 504.3 213.9 L 505.7 225.8 L 507.1 215.0 L 508.6 232.9 L 510.0 222.6 L 511.5 212.3 L 512.9 211.7 L 514.3 215.0 L 515.8 213.4 L 517.2 208.5 L 517.2 192.8 L 515.8 187.9 L 514.3 195.5 L 512.9 192.8 L 511.5 198.2 L 510.0 208.5 L 508.6 214.5 L 507.1 201.5 L 505.7 186.3 L 504.3 187.4 L 502.8 196.0 L 501.4 207.4 L 499.9 196.6 L 498.5 195.5 L 497.1 191.7 L 495.6 204.7 L 494.2 192.8 L 492.8 189.5 L 491.3 196.6 L 489.9 162.5 L 488.4 161.4 L 487.0 199.3 L 485.6 203.1 L 484.1 206.9 L 482.7 201.5 L 481.3 206.3 L 479.8 199.8 L 478.4 209.6 L 476.9 183.6 L 475.5 181.4 L 474.1 203.1 L 472.6 209.6 L 471.2 211.7 L 469.7 205.2 L 468.3 196.6 L 466.9 191.2 L 465.4 199.3 L 464.0 176.0 L 462.6 174.9 L 461.1 170.6 L 459.7 169 L 458.2 179.8 L 456.8 199.3 L 455.4 171.1 L 453.9 177.1 L 452.5 160.8 L 451.0 186.8 L 449.6 200.9 L 448.2 190.6 L 446.7 184.7 L 445.3 163.5 L 443.9 170.6 L 442.4 156 L 441.0 190.6 L 439.5 191.7 L 438.1 185.7 L 436.7 161.9 L 435.2 144.6 L 433.7 145.7 L 432.3 157.6 L 430.9 158.7 L 429.4 166.8 L 428.0 170.0 L 426.5 164.1 L 425.1 159.7 L 423.7 161.9 L 422.2 176.0 L 420.8 171.7 L 419.3 165.7 L 417.9 166.8 L 416.5 159.2 L 415.0 160.3 L 413.6 160.8 L 412.2 158.7 L 410.7 161.4 L 409.3 162.5 L 407.8 156 L 406.4 147.8 L 405.0 121.8 L 403.5 119.7 L 402.1 118.0 L 400.6 118.6 L 399.2 150.0 L 397.8 151.1 L 396.3 153.2 L 394.9 148.9 L 393.5 130.5 L 392.0 152.7 L 390.6 144.6 L 389.1 161.9 L 387.7 158.1 L 386.3 157.6 L 384.8 148.4 L 383.4 141.9 L 382.0 150.5 L 380.5 129.4 L 379.1 119.7 L 377.6 114.8 L 376.2 108.8 L 374.8 107.7 L 373.3 113.2 L 371.9 119.7 L 370.4 108.8 L 369.0 128.9 L 367.6 121.8 L 366.1 130.5 L 364.7 114.2 L 363.3 124.0 L 361.8 144.0 M 521.5 239.4 L 523.0 271.9 L 524.4 262.1 L 525.8 244.8 L 527.3 209.6 L 528.7 208 L 528.7 193.9 L 527.3 203.1 L 525.8 203.6 L 524.4 238.8 L 523.0 244.8 L 521.5 238.8" stroke-linejoin="round" visibility="visible" stroke="rgb(192,192,192)" stroke-opacity="0.0" stroke-width="1"  class=" highcharts-tracker" style=""></path></g><g class="highcharts-markers highcharts-tracker" visibility="visible"  transform="translate(40,41) scale(1 1)" clip-path="url(#highcharts-2)" style=""></g></g><text x="292" text-anchor="middle" class="highcharts-title"  style="color:black;font-size:16px;font-weight:bold;fill:black;width:520px;" y="22"><tspan>Temperature variation by day</tspan></text><g class="highcharts-axis-labels highcharts-xaxis-labels" ><text x="45.1" style="color:#6e6e70;cursor:default;font-size:11px;fill:#6e6e70;width:84px;text-overflow:clip;" text-anchor="middle" transform="translate(0,0)" y="385" opacity="1"><tspan>Jan '14</tspan></text><text x="130.0" style="color:#6e6e70;cursor:default;font-size:11px;fill:#6e6e70;width:84px;text-overflow:clip;" text-anchor="middle" transform="translate(0,0)" y="385" opacity="1"><tspan>Mar '14</tspan></text><text x="217.7" style="color:#6e6e70;cursor:default;font-size:11px;fill:#6e6e70;width:84px;text-overflow:clip;" text-anchor="middle" transform="translate(0,0)" y="385" opacity="1"><tspan>May '14</tspan></text><text x="305.5" style="color:#6e6e70;cursor:default;font-size:11px;fill:#6e6e70;width:84px;text-overflow:clip;" text-anchor="middle" transform="translate(0,0)" y="385" opacity="1"><tspan>Jul '14</tspan></text><text x="394.6" style="color:#6e6e70;cursor:default;font-size:11px;fill:#6e6e70;width:84px;text-overflow:clip;" text-anchor="middle" transform="translate(0,0)" y="385" opacity="1"><tspan>Sep '14</tspan></text><text x="482.4" style="color:#6e6e70;cursor:default;font-size:11px;fill:#6e6e70;width:84px;text-overflow:clip;" text-anchor="middle" transform="translate(0,0)" y="385" opacity="1"><tspan>Nov '14</tspan></text><text x="558.8" style="color:#6e6e70;cursor:default;font-size:11px;fill:#6e6e70;width:84px;text-overflow:clip;" text-anchor="middle" transform="translate(0,0)" y="385" opacity="1"><tspan>Jan '15</tspan></text></g><g class="highcharts-axis-labels highcharts-yaxis-labels" ><text x="25" style="color:#6e6e70;cursor:default;font-size:11px;fill:#6e6e70;width:183px;text-overflow:clip;" text-anchor="end" transform="translate(0,0)" y="372" opacity="1">-20</text><text x="25" style="color:#6e6e70;cursor:default;font-size:11px;fill:#6e6e70;width:183px;text-overflow:clip;" text-anchor="end" transform="translate(0,0)" y="317" opacity="1">-10</text><text x="25" style="color:#6e6e70;cursor:default;font-size:11px;fill:#6e6e70;width:183px;text-overflow:clip;" text-anchor="end" transform="translate(0,0)" y="263" opacity="1">0</text><text x="25" style="color:#6e6e70;cursor:default;font-size:11px;fill:#6e6e70;width:183px;text-overflow:clip;" text-anchor="end" transform="translate(0,0)" y="209" opacity="1">10</text><text x="25" style="color:#6e6e70;cursor:default;font-size:11px;fill:#6e6e70;width:183px;text-overflow:clip;" text-anchor="end" transform="translate(0,0)" y="155" opacity="1">20</text><text x="25" style="color:#6e6e70;cursor:default;font-size:11px;fill:#6e6e70;width:183px;text-overflow:clip;" text-anchor="end" transform="translate(0,0)" y="101" opacity="1">30</text><text x="25" style="color:#6e6e70;cursor:default;font-size:11px;fill:#6e6e70;width:183px;text-overflow:clip;" text-anchor="end" transform="translate(0,0)" y="47" opacity="1">40</text></g><g class="highcharts-tooltip"  style="cursor:default;padding:0;white-space:nowrap;" transform="translate(0,-9999)"><path fill="none" d="M 3 0 L 13 0 C 16 0 16 0 16 3 L 16 13 C 16 16 16 16 13 16 L 3 16 C 0 16 0 16 0 13 L 0 3 C 0 0 0 0 3 0"  stroke="black" stroke-opacity="0.0" stroke-width="5" transform="translate(1, 1)"></path><path fill="none" d="M 3 0 L 13 0 C 16 0 16 0 16 3 L 16 13 C 16 16 16 16 13 16 L 3 16 C 0 16 0 16 0 13 L 0 3 C 0 0 0 0 3 0"  stroke="black" stroke-opacity="0.0" stroke-width="3" transform="translate(1, 1)"></path><path fill="none" d="M 3 0 L 13 0 C 16 0 16 0 16 3 L 16 13 C 16 16 16 16 13 16 L 3 16 C 0 16 0 16 0 13 L 0 3 C 0 0 0 0 3 0"  stroke="black" stroke-opacity="0.1" stroke-width="1" transform="translate(1, 1)"></path><path fill="rgb(249, 249, 249)" fill-opacity=" .85" d="M 3 0 L 13 0 C 16 0 16 0 16 3 L 16 13 C 16 16 16 16 13 16 L 3 16 C 0 16 0 16 0 13 L 0 3 C 0 0 0 0 3 0"></path><text x="8"  style="font-size:12px;color:#333333;fill:#333333;" y="20"></text></g></svg>