<svg version="1.1" style="font-family:&quot;lucida grande&quot;, &quot;lucida sans unicode&quot;, arial, helvetica, sans-serif;font-size:12px;" xmlns="http://www.w3.org/2000/svg" width="584" height="400" viewBox="0 0 584 400"><desc>Created with Highcharts 4.1.6</desc><defs><clipPath id="highcharts-1"><rect x="0" y="0" width="298" height="489"></rect></clipPath><clipPath id="highcharts-2"><rect x="-99" y="-85" width="397" height="584"></rect></clipPath><clipPath id="highcharts-3"><rect x="0" y="0" width="298" height="489"></rect></clipPath></defs><rect x="0" y="0" width="584" height="400" strokeWidth="0" fill="#FFFFFF" class=" highcharts-background" stroke="transparent"></rect><g class="highcharts-grid" ></g><g class="highcharts-grid" ><path fill="none" d="M 84.5 46 L 84.5 344" stroke="#D8D8D8" stroke-width="1"  opacity="1"></path><path fill="none" d="M 154.5 46 L 154.5 344" stroke="#D8D8D8" stroke-width="1"  opacity="1"></path><path fill="none" d="M 224.5 46 L 224.5 344" stroke="#D8D8D8" stroke-width="1"  opacity="1"></path><path fill="none" d="M 294.5 46 L 294.5 344" stroke="#D8D8D8" stroke-width="1"  opacity="1"></path><path fill="none" d="M 363.5 46 L 363.5 344" stroke="#D8D8D8" stroke-width="1"  opacity="1"></path><path fill="none" d="M 433.5 46 L 433.5 344" stroke="#D8D8D8" stroke-width="1"  opacity="1"></path><path fill="none" d="M 503.5 46 L 503.5 344" stroke="#D8D8D8" stroke-width="1"  opacity="1"></path><path fill="none" d="M 574.5 46 L 574.5 344" stroke="#D8D8D8" stroke-width="1"  opacity="1"></path></g><g class="highcharts-axis" ><path fill="none" d="M 85 89.5 L 75 89.5" stroke="#C0D0E0" stroke-width="1" opacity="1"></path><path fill="none" d="M 85 131.5 L 75 131.5" stroke="#C0D0E0" stroke-width="1" opacity="1"></path><path fill="none" d="M 85 174.5 L 75 174.5" stroke="#C0D0E0" stroke-width="1" opacity="1"></path><path fill="none" d="M 85 216.5 L 75 216.5" stroke="#C0D0E0" stroke-width="1" opacity="1"></path><path fill="none" d="M 85 259.5 L 75 259.5" stroke="#C0D0E0" stroke-width="1" opacity="1"></path><path fill="none" d="M 85 301.5 L 75 301.5" stroke="#C0D0E0" stroke-width="1" opacity="1"></path><path fill="none" d="M 85 344.5 L 75 344.5" stroke="#C0D0E0" stroke-width="1" opacity="1"></path><path fill="none" d="M 85 45.5 L 75 45.5" stroke="#C0D0E0" stroke-width="1" opacity="1"></path><path fill="none" d="M 84.5 46 L 84.5 344" stroke="#C0D0E0" stroke-width="1"  visibility="visible"></path></g><g class="highcharts-axis" ><text x="329.5"  text-anchor="middle" transform="translate(0,0)" class=" highcharts-yaxis-title" style="color:#707070;fill:#707070;" visibility="visible" y="382"><tspan>Number of units</tspan></text></g><g class="highcharts-series-group" ><g class="highcharts-series" visibility="visible"  transform="translate(574,344) rotate(90) scale(-1,1) scale(1 1)" clip-path="url(#highcharts-3)" width="489" height="298"><path fill="rgb(124,181,236)" fill-opacity="0.5" d="M 276.7 384.2 L 234.1 349.2 L 191.5 384.2 L 149 314.3 L 106.4 349.2 L 63.8 139.7 L 21.2 69.8 L 21.2 489 L 276.7 489" ></path><path fill="none" d="M 276.7 384.2 L 234.1 349.2 L 191.5 384.2 L 149 314.3 L 106.4 349.2 L 63.8 139.7 L 21.2 69.8" stroke="#7cb5ec" stroke-width="2"  stroke-linejoin="round" stroke-linecap="round"></path><path fill="none" d="M 266.7 384.2 L 276.7 384.2 L 234.1 349.2 L 191.5 384.2 L 149 314.3 L 106.4 349.2 L 63.8 139.7 L 21.2 69.8 L 31.2 69.8" stroke-linejoin="round" visibility="visible" stroke="rgb(192,192,192)" stroke-opacity="0.0" stroke-width="22"  class=" highcharts-tracker" style=""></path></g><g class="highcharts-markers highcharts-tracker" visibility="visible"  transform="translate(574,344) rotate(90) scale(-1,1) scale(1 1)" clip-path="url(#highcharts-2)" style="" width="489" height="298"><path fill="#7cb5ec" d="M 21 65.8 C 26.3 65.8 26.3 73.8 21 73.8 C 15.6 73.8 15.6 65.8 21 65.8 Z"></path><path fill="#7cb5ec" d="M 63 135.7 C 68.3 135.7 68.3 143.7 63 143.7 C 57.6 143.7 57.6 135.7 63 135.7 Z"></path><path fill="#7cb5ec" d="M 106 345.2 C 111.3 345.2 111.3 353.2 106 353.2 C 100.6 353.2 100.6 345.2 106 345.2 Z"></path><path fill="#7cb5ec" d="M 149 310.3 C 154.3 310.3 154.3 318.3 149 318.3 C 143.6 318.3 143.6 310.3 149 310.3 Z"></path><path fill="#7cb5ec" d="M 191 380.2 C 196.3 380.2 196.3 388.2 191 388.2 C 185.6 388.2 185.6 380.2 191 380.2 Z"></path><path fill="#7cb5ec" d="M 234 345.2 C 239.3 345.2 239.3 353.2 234 353.2 C 228.6 353.2 228.6 345.2 234 345.2 Z"></path><path fill="#7cb5ec" d="M 276 380.2 C 281.3 380.2 281.3 388.2 276 388.2 C 270.6 388.2 270.6 380.2 276 380.2 Z"></path></g><g class="highcharts-series" visibility="visible"  transform="translate(574,344) rotate(90) scale(-1,1) scale(1 1)" clip-path="url(#highcharts-3)" width="489" height="298"><path fill="rgb(67,67,72)" fill-opacity="0.5" d="M 276.7 454.0 L 234.1 384.2 L 191.5 349.2 L 149 384.2 L 106.4 384.2 L 63.8 314.3 L 21.2 349.2 L 21.2 489 L 276.7 489" ></path><path fill="none" d="M 276.7 454.0 L 234.1 384.2 L 191.5 349.2 L 149 384.2 L 106.4 384.2 L 63.8 314.3 L 21.2 349.2" stroke="#434348" stroke-width="2"  stroke-linejoin="round" stroke-linecap="round"></path><path fill="none" d="M 266.7 454.0 L 276.7 454.0 L 234.1 384.2 L 191.5 349.2 L 149 384.2 L 106.4 384.2 L 63.8 314.3 L 21.2 349.2 L 31.2 349.2" stroke-linejoin="round" visibility="visible" stroke="rgb(192,192,192)" stroke-opacity="0.0" stroke-width="22"  class=" highcharts-tracker" style=""></path></g><g class="highcharts-markers highcharts-tracker" visibility="visible"  transform="translate(574,344) rotate(90) scale(-1,1) scale(1 1)" clip-path="url(#highcharts-2)" style="" width="489" height="298"><path fill="#434348" d="M 21 345.2 L 25 349.2 21 353.2 17 349.2 Z"></path><path fill="#434348" d="M 63 310.3 L 67 314.3 63 318.3 59 314.3 Z"></path><path fill="#434348" d="M 106 380.2 L 110 384.2 106 388.2 102 384.2 Z"></path><path fill="#434348" d="M 149 380.2 L 153 384.2 149 388.2 145 384.2 Z"></path><path fill="#434348" d="M 191 345.2 L 195 349.2 191 353.2 187 349.2 Z"></path><path fill="#434348" d="M 234 380.2 L 238 384.2 234 388.2 230 384.2 Z"></path><path fill="#434348" d="M 276 450.0 L 280 454.0 276 458.0 272 454.0 Z"></path></g></g><text x="292" text-anchor="middle" class="highcharts-title"  style="color:#333333;font-size:18px;fill:#333333;width:520px;" y="24"><tspan>Average fruit consumption during one week</tspan></text><g class="highcharts-legend"  transform="translate(358,110)"><rect x="0.5" y="0.5" width="65" height="40" strokeWidth="1" stroke="#909090" stroke-width="1" fill="#FFFFFF" visibility="visible"></rect><g ><g><g class="highcharts-legend-item"  transform="translate(8,3)"><text x="21" style="color:#333333;font-size:12px;font-weight:bold;cursor:pointer;fill:#333333;" text-anchor="start"  y="15">John</text><rect x="0" y="4" width="16" height="12"  fill="#7cb5ec"></rect></g><g class="highcharts-legend-item"  transform="translate(8,18)"><text x="21" y="15" style="color:#333333;font-size:12px;font-weight:bold;cursor:pointer;fill:#333333;" text-anchor="start" >Jane</text><rect x="0" y="4" width="16" height="12"  fill="#434348"></rect></g></g></g></g><g class="highcharts-axis-labels highcharts-xaxis-labels" ><text x="70" style="color:#606060;cursor:default;font-size:11px;fill:#606060;width:183px;text-overflow:clip;" text-anchor="end" transform="translate(0,0)" y="72" opacity="1">Monday</text><text x="70" style="color:#606060;cursor:default;font-size:11px;fill:#606060;width:183px;text-overflow:clip;" text-anchor="end" transform="translate(0,0)" y="114" opacity="1">Tuesday</text><text x="70" style="color:#606060;cursor:default;font-size:11px;fill:#606060;width:183px;text-overflow:clip;" text-anchor="end" transform="translate(0,0)" y="157" opacity="1">Wednesday</text><text x="70" style="color:#606060;cursor:default;font-size:11px;fill:#606060;width:183px;text-overflow:clip;" text-anchor="end" transform="translate(0,0)" y="200" opacity="1">Thursday</text><text x="70" style="color:#606060;cursor:default;font-size:11px;fill:#606060;width:183px;text-overflow:clip;" text-anchor="end" transform="translate(0,0)" y="242" opacity="1">Friday</text><text x="70" style="color:#606060;cursor:default;font-size:11px;fill:#606060;width:183px;text-overflow:clip;" text-anchor="end" transform="translate(0,0)" y="285" opacity="1">Saturday</text><text x="70" style="color:#606060;cursor:default;font-size:11px;fill:#606060;width:183px;text-overflow:clip;" text-anchor="end" transform="translate(0,0)" y="327" opacity="1">Sunday</text></g><g class="highcharts-axis-labels highcharts-yaxis-labels" ><text x="85" style="color:#606060;cursor:default;font-size:11px;fill:#606060;width:69.8;text-overflow:ellipsis;" text-anchor="middle" transform="translate(0,0)" y="363" opacity="1"><tspan>0</tspan></text><text x="154.8" style="color:#606060;cursor:default;font-size:11px;fill:#606060;width:69.8;text-overflow:ellipsis;" text-anchor="middle" transform="translate(0,0)" y="363" opacity="1"><tspan>2</tspan></text><text x="224.7" style="color:#606060;cursor:default;font-size:11px;fill:#606060;width:69.8;text-overflow:ellipsis;" text-anchor="middle" transform="translate(0,0)" y="363" opacity="1"><tspan>4</tspan></text><text x="294.5" style="color:#606060;cursor:default;font-size:11px;fill:#606060;width:69.8;text-overflow:ellipsis;" text-anchor="middle" transform="translate(0,0)" y="363" opacity="1"><tspan>6</tspan></text><text x="364.4" style="color:#606060;cursor:default;font-size:11px;fill:#606060;width:69.8;text-overflow:ellipsis;" text-anchor="middle" transform="translate(0,0)" y="363" opacity="1"><tspan>8</tspan></text><text x="434.2" style="color:#606060;cursor:default;font-size:11px;fill:#606060;width:69.8;text-overflow:ellipsis;" text-anchor="middle" transform="translate(0,0)" y="363" opacity="1"><tspan>10</tspan></text><text x="504.1" style="color:#606060;cursor:default;font-size:11px;fill:#606060;width:69.8;text-overflow:ellipsis;" text-anchor="middle" transform="translate(0,0)" y="363" opacity="1"><tspan>12</tspan></text><text x="567" style="color:#606060;cursor:default;font-size:11px;fill:#606060;width:34.9;text-overflow:ellipsis;" text-anchor="middle" transform="translate(0,0)" y="363" opacity="1"><tspan>14</tspan></text></g><g class="highcharts-tooltip"  style="cursor:default;padding:0;white-space:nowrap;" transform="translate(0,-9999)"><path fill="none" d="M 3.5 0.5 L 13.5 0.5 C 16.5 0.5 16.5 0.5 16.5 3.5 L 16.5 13.5 C 16.5 16.5 16.5 16.5 13.5 16.5 L 3.5 16.5 C 0.5 16.5 0.5 16.5 0.5 13.5 L 0.5 3.5 C 0.5 0.5 0.5 0.5 3.5 0.5"  stroke="black" stroke-opacity="0.0" stroke-width="5" transform="translate(1, 1)"></path><path fill="none" d="M 3.5 0.5 L 13.5 0.5 C 16.5 0.5 16.5 0.5 16.5 3.5 L 16.5 13.5 C 16.5 16.5 16.5 16.5 13.5 16.5 L 3.5 16.5 C 0.5 16.5 0.5 16.5 0.5 13.5 L 0.5 3.5 C 0.5 0.5 0.5 0.5 3.5 0.5"  stroke="black" stroke-opacity="0.0" stroke-width="3" transform="translate(1, 1)"></path><path fill="none" d="M 3.5 0.5 L 13.5 0.5 C 16.5 0.5 16.5 0.5 16.5 3.5 L 16.5 13.5 C 16.5 16.5 16.5 16.5 13.5 16.5 L 3.5 16.5 C 0.5 16.5 0.5 16.5 0.5 13.5 L 0.5 3.5 C 0.5 0.5 0.5 0.5 3.5 0.5"  stroke="black" stroke-opacity="0.1" stroke-width="1" transform="translate(1, 1)"></path><path fill="rgb(249, 249, 249)" fill-opacity=" .85" d="M 3.5 0.5 L 13.5 0.5 C 16.5 0.5 16.5 0.5 16.5 3.5 L 16.5 13.5 C 16.5 16.5 16.5 16.5 13.5 16.5 L 3.5 16.5 C 0.5 16.5 0.5 16.5 0.5 13.5 L 0.5 3.5 C 0.5 0.5 0.5 0.5 3.5 0.5"></path><text x="8"  style="font-size:12px;color:#333333;fill:#333333;" y="20"></text></g></svg>