<svg version="1.1" style="font-family: signika, serif; font-size: 12px; background-image: url(http://www.highcharts.com/samples/graphics/sand.png); background-position: initial initial; background-repeat: initial initial;" xmlns="http://www.w3.org/2000/svg" width="584" height="400" viewBox="0 0 584 400" xmlns:xlink="http://www.w3.org/1999/xlink"><style type="text/css"><![CDATA[@import url(http://fonts.googleapis.com/css?family=Signika:700);]]></style><desc>Created with Highcharts 4.1.7</desc><defs><clipPath id="highcharts-1"><rect x="0" y="0" width="510" height="289"></rect></clipPath><clipPath id="highcharts-2"><rect x="-99" y="-41" width="609" height="400"></rect></clipPath><clipPath id="highcharts-3"><rect x="0" y="0" width="510" height="289"></rect></clipPath></defs><g class="highcharts-grid" ></g><g class="highcharts-grid" ><path fill="none" d="M 64 330.5 L 574 330.5" stroke="#D8D8D8" stroke-width="1"  opacity="1"></path><path fill="none" d="M 64 272.5 L 574 272.5" stroke="#D8D8D8" stroke-width="1"  opacity="1"></path><path fill="none" d="M 64 214.5 L 574 214.5" stroke="#D8D8D8" stroke-width="1"  opacity="1"></path><path fill="none" d="M 64 157.5 L 574 157.5" stroke="#D8D8D8" stroke-width="1"  opacity="1"></path><path fill="none" d="M 64 99.5 L 574 99.5" stroke="#D8D8D8" stroke-width="1"  opacity="1"></path><path fill="none" d="M 64 40.5 L 574 40.5" stroke="#D8D8D8" stroke-width="1"  opacity="1"></path></g><g class="highcharts-axis" ><path fill="none" d="M 165.5 330 L 165.5 340" stroke="#C0D0E0" stroke-width="1" opacity="1"></path><path fill="none" d="M 267.5 330 L 267.5 340" stroke="#C0D0E0" stroke-width="1" opacity="1"></path><path fill="none" d="M 369.5 330 L 369.5 340" stroke="#C0D0E0" stroke-width="1" opacity="1"></path><path fill="none" d="M 471.5 330 L 471.5 340" stroke="#C0D0E0" stroke-width="1" opacity="1"></path><path fill="none" d="M 574.5 330 L 574.5 340" stroke="#C0D0E0" stroke-width="1" opacity="1"></path><path fill="none" d="M 63.5 330 L 63.5 340" stroke="#C0D0E0" stroke-width="1" opacity="1"></path><path fill="none" d="M 64 330.5 L 574 330.5" stroke="#C0D0E0" stroke-width="1"  visibility="visible"></path></g><g class="highcharts-axis" ><text x="21.5"  text-anchor="middle" transform="translate(0,0) rotate(270 21.5 185.5)" class=" highcharts-yaxis-title" style="color:#707070;fill:#707070;" visibility="visible" y="185.5">Values</text></g><g class="highcharts-series-group" ><g class="highcharts-series" visibility="visible"  transform="translate(64,41) scale(1 1)" clip-path="url(#highcharts-3)"><path fill="rgb(244,91,91)" fill-opacity="0.7" d="M 51 57.7 L 153 104.0 L 255 80.9 L 357 11.5 L 459 127.1 L 459 173.3 L 51 173.3" ></path><path fill="none" d="M 51 57.7 L 153 104.0 L 255 80.9 L 357 11.5 L 459 127.1" stroke="black" stroke-width="5"  stroke-linejoin="round" stroke-linecap="round"  stroke-opacity="0.0" transform="translate(1, 1)"></path><path fill="none" d="M 51 57.7 L 153 104.0 L 255 80.9 L 357 11.5 L 459 127.1" stroke="black" stroke-width="3"  stroke-linejoin="round" stroke-linecap="round"  stroke-opacity="0.0" transform="translate(1, 1)"></path><path fill="none" d="M 51 57.7 L 153 104.0 L 255 80.9 L 357 11.5 L 459 127.1" stroke="black" stroke-width="1"  stroke-linejoin="round" stroke-linecap="round"  stroke-opacity="0.1" transform="translate(1, 1)"></path><path fill="none" d="M 51 57.7 L 153 104.0 L 255 80.9 L 357 11.5 L 459 127.1" stroke="#f45b5b" stroke-width="2"  stroke-linejoin="round" stroke-linecap="round"></path><path fill="none" d="M 41 57.7 L 51 57.7 L 153 104.0 L 255 80.9 L 357 11.5 L 459 127.1 L 469 127.1" stroke-linejoin="round" visibility="visible" stroke="rgb(192,192,192)" stroke-opacity="0.0" stroke-width="22"  class=" highcharts-tracker" style=""></path></g><g class="highcharts-markers highcharts-tracker" visibility="visible"  transform="translate(64,41) scale(1 1)" clip-path="url(#highcharts-2)" style=""><path fill="#f45b5b" d="M 459 123.1 C 464.3 123.1 464.3 131.1 459 131.1 C 453.6 131.1 453.6 123.1 459 123.1 Z"></path><path fill="#f45b5b" d="M 357 7.5 C 362.3 7.5 362.3 15.5 357 15.5 C 351.6 15.5 351.6 7.5 357 7.5 Z"></path><path fill="#f45b5b" d="M 255 76.9 C 260.3 76.9 260.3 84.9 255 84.9 C 249.6 84.9 249.6 76.9 255 76.9 Z"></path><path fill="#f45b5b" d="M 153 100.0 C 158.3 100.0 158.3 108.0 153 108.0 C 147.6 108.0 147.6 100.0 153 100.0 Z"></path><path fill="#f45b5b" d="M 51 53.7 C 56.3 53.7 56.3 61.7 51 61.7 C 45.6 61.7 45.6 53.7 51 53.7 Z"></path></g><g class="highcharts-series" visibility="visible"  transform="translate(64,41) scale(1 1)" clip-path="url(#highcharts-3)"><path fill="rgb(128,133,233)" fill-opacity="0.7" d="M 51 127.1 L 153 219.6 L 255 242.7 L 357 127.1 L 459 150.2 L 459 173.3 L 51 173.3" ></path><path fill="none" d="M 51 127.1 L 153 219.6 L 255 242.7 L 357 127.1 L 459 150.2" stroke="black" stroke-width="5"  stroke-linejoin="round" stroke-linecap="round"  stroke-opacity="0.0" transform="translate(1, 1)"></path><path fill="none" d="M 51 127.1 L 153 219.6 L 255 242.7 L 357 127.1 L 459 150.2" stroke="black" stroke-width="3"  stroke-linejoin="round" stroke-linecap="round"  stroke-opacity="0.0" transform="translate(1, 1)"></path><path fill="none" d="M 51 127.1 L 153 219.6 L 255 242.7 L 357 127.1 L 459 150.2" stroke="black" stroke-width="1"  stroke-linejoin="round" stroke-linecap="round"  stroke-opacity="0.1" transform="translate(1, 1)"></path><path fill="none" d="M 51 127.1 L 153 219.6 L 255 242.7 L 357 127.1 L 459 150.2" stroke="#8085e9" stroke-width="2"  stroke-linejoin="round" stroke-linecap="round"></path><path fill="none" d="M 41 127.1 L 51 127.1 L 153 219.6 L 255 242.7 L 357 127.1 L 459 150.2 L 469 150.2" stroke-linejoin="round" visibility="visible" stroke="rgb(192,192,192)" stroke-opacity="0.0" stroke-width="22"  class=" highcharts-tracker" style=""></path></g><g class="highcharts-markers highcharts-tracker" visibility="visible"  transform="translate(64,41) scale(1 1)" clip-path="url(#highcharts-2)" style=""><path fill="#8085e9" d="M 459 146.2 L 463 150.2 459 154.2 455 150.2 Z"></path><path fill="#8085e9" d="M 357 123.1 L 361 127.1 357 131.1 353 127.1 Z"></path><path fill="#8085e9" d="M 255 238.7 L 259 242.7 255 246.7 251 242.7 Z"></path><path fill="#8085e9" d="M 153 215.6 L 157 219.6 153 223.6 149 219.6 Z"></path><path fill="#8085e9" d="M 51 123.1 L 55 127.1 51 131.1 47 127.1 Z"></path></g><g class="highcharts-series" visibility="visible"  transform="translate(64,41) scale(1 1)" clip-path="url(#highcharts-3)"><path fill="rgb(141,70,84)" fill-opacity="0.7" d="M 51 104.0 L 153 80.9 L 255 80.9 L 357 219.6 L 459 57.7 L 459 173.3 L 51 173.3" ></path><path fill="none" d="M 51 104.0 L 153 80.9 L 255 80.9 L 357 219.6 L 459 57.7" stroke="black" stroke-width="5"  stroke-linejoin="round" stroke-linecap="round"  stroke-opacity="0.0" transform="translate(1, 1)"></path><path fill="none" d="M 51 104.0 L 153 80.9 L 255 80.9 L 357 219.6 L 459 57.7" stroke="black" stroke-width="3"  stroke-linejoin="round" stroke-linecap="round"  stroke-opacity="0.0" transform="translate(1, 1)"></path><path fill="none" d="M 51 104.0 L 153 80.9 L 255 80.9 L 357 219.6 L 459 57.7" stroke="black" stroke-width="1"  stroke-linejoin="round" stroke-linecap="round"  stroke-opacity="0.1" transform="translate(1, 1)"></path><path fill="none" d="M 51 104.0 L 153 80.9 L 255 80.9 L 357 219.6 L 459 57.7" stroke="#8d4654" stroke-width="2"  stroke-linejoin="round" stroke-linecap="round"></path><path fill="none" d="M 41 104.0 L 51 104.0 L 153 80.9 L 255 80.9 L 357 219.6 L 459 57.7 L 469 57.7" stroke-linejoin="round" visibility="visible" stroke="rgb(192,192,192)" stroke-opacity="0.0" stroke-width="22"  class=" highcharts-tracker" style=""></path></g><g class="highcharts-markers highcharts-tracker" visibility="visible"  transform="translate(64,41) scale(1 1)" clip-path="url(#highcharts-2)" style=""><path fill="#8d4654" d="M 455 53.7 L 463 53.7 463 61.7 455 61.7 Z"></path><path fill="#8d4654" d="M 353 215.6 L 361 215.6 361 223.6 353 223.6 Z"></path><path fill="#8d4654" d="M 251 76.9 L 259 76.9 259 84.9 251 84.9 Z"></path><path fill="#8d4654" d="M 149 76.9 L 157 76.9 157 84.9 149 84.9 Z"></path><path fill="#8d4654" d="M 47 100.0 L 55 100.0 55 108.0 47 108.0 Z"></path></g></g><text x="292" text-anchor="middle" class="highcharts-title"  style="color:black;font-size:16px;font-weight:bold;fill:black;width:520px;" y="22"><tspan>Area chart with negative values</tspan></text><g class="highcharts-legend"  transform="translate(196,361)"><g ><g><g class="highcharts-legend-item"  transform="translate(8,3)"><text x="21" style="color:#333333;font-size:13px;font-weight:bold;cursor:pointer;fill:#333333;" text-anchor="start"  y="16">John</text><rect x="0" y="4" width="16" height="13"  fill="#f45b5b"></rect></g><g class="highcharts-legend-item"  transform="translate(76.4,3)"><text x="21" y="16" style="color:#333333;font-size:13px;font-weight:bold;cursor:pointer;fill:#333333;" text-anchor="start" >Jane</text><rect x="0" y="4" width="16" height="13"  fill="#8085e9"></rect></g><g class="highcharts-legend-item"  transform="translate(143.4,3)"><text x="21" y="16" style="color:#333333;font-size:13px;font-weight:bold;cursor:pointer;fill:#333333;" text-anchor="start" >Joe</text><rect x="0" y="4" width="16" height="13"  fill="#8d4654"></rect></g></g></g></g><g class="highcharts-axis-labels highcharts-xaxis-labels" ><text x="115" style="color:#6e6e70;cursor:default;font-size:11px;fill:#6e6e70;width:92px;text-overflow:clip;" text-anchor="middle" transform="translate(0,0)" y="349" opacity="1">Apples</text><text x="217" style="color:#6e6e70;cursor:default;font-size:11px;fill:#6e6e70;width:92px;text-overflow:clip;" text-anchor="middle" transform="translate(0,0)" y="349" opacity="1">Oranges</text><text x="319" style="color:#6e6e70;cursor:default;font-size:11px;fill:#6e6e70;width:92px;text-overflow:clip;" text-anchor="middle" transform="translate(0,0)" y="349" opacity="1">Pears</text><text x="421" style="color:#6e6e70;cursor:default;font-size:11px;fill:#6e6e70;width:92px;text-overflow:clip;" text-anchor="middle" transform="translate(0,0)" y="349" opacity="1">Grapes</text><text x="523" style="color:#6e6e70;cursor:default;font-size:11px;fill:#6e6e70;width:92px;text-overflow:clip;" text-anchor="middle" transform="translate(0,0)" y="349" opacity="1">Bananas</text></g><g class="highcharts-axis-labels highcharts-yaxis-labels" ><text x="49" style="color:#6e6e70;cursor:default;font-size:11px;fill:#6e6e70;width:183px;text-overflow:clip;" text-anchor="end" transform="translate(0,0)" y="336" opacity="1">-5</text><text x="49" style="color:#6e6e70;cursor:default;font-size:11px;fill:#6e6e70;width:183px;text-overflow:clip;" text-anchor="end" transform="translate(0,0)" y="278" opacity="1">-2.5</text><text x="49" style="color:#6e6e70;cursor:default;font-size:11px;fill:#6e6e70;width:183px;text-overflow:clip;" text-anchor="end" transform="translate(0,0)" y="220" opacity="1">0</text><text x="49" style="color:#6e6e70;cursor:default;font-size:11px;fill:#6e6e70;width:183px;text-overflow:clip;" text-anchor="end" transform="translate(0,0)" y="162" opacity="1">2.5</text><text x="49" style="color:#6e6e70;cursor:default;font-size:11px;fill:#6e6e70;width:183px;text-overflow:clip;" text-anchor="end" transform="translate(0,0)" y="104" opacity="1">5</text><text x="49" style="color:#6e6e70;cursor:default;font-size:11px;fill:#6e6e70;width:183px;text-overflow:clip;" text-anchor="end" transform="translate(0,0)" y="47" opacity="1">7.5</text></g><g class="highcharts-tooltip"  style="cursor:default;padding:0;white-space:nowrap;" transform="translate(0,-9999)"><path fill="none" d="M 3 0 L 13 0 C 16 0 16 0 16 3 L 16 13 C 16 16 16 16 13 16 L 3 16 C 0 16 0 16 0 13 L 0 3 C 0 0 0 0 3 0"  stroke="black" stroke-opacity="0.0" stroke-width="5" transform="translate(1, 1)"></path><path fill="none" d="M 3 0 L 13 0 C 16 0 16 0 16 3 L 16 13 C 16 16 16 16 13 16 L 3 16 C 0 16 0 16 0 13 L 0 3 C 0 0 0 0 3 0"  stroke="black" stroke-opacity="0.0" stroke-width="3" transform="translate(1, 1)"></path><path fill="none" d="M 3 0 L 13 0 C 16 0 16 0 16 3 L 16 13 C 16 16 16 16 13 16 L 3 16 C 0 16 0 16 0 13 L 0 3 C 0 0 0 0 3 0"  stroke="black" stroke-opacity="0.1" stroke-width="1" transform="translate(1, 1)"></path><path fill="rgb(249, 249, 249)" fill-opacity=" .85" d="M 3 0 L 13 0 C 16 0 16 0 16 3 L 16 13 C 16 16 16 16 13 16 L 3 16 C 0 16 0 16 0 13 L 0 3 C 0 0 0 0 3 0"></path><text x="8"  style="font-size:12px;color:#333333;fill:#333333;" y="20"></text></g></svg>