<svg version="1.1" style="font-family: signika, serif; font-size: 12px; background-image: url(http://www.highcharts.com/samples/graphics/sand.png); background-position: initial initial; background-repeat: initial initial;" xmlns="http://www.w3.org/2000/svg" width="584" height="400" viewBox="0 0 584 400" xmlns:xlink="http://www.w3.org/1999/xlink"><style type="text/css"><![CDATA[@import url(http://fonts.googleapis.com/css?family=Signika:700);]]></style><desc>Created with Highcharts 4.1.7</desc><defs><clipPath id="highcharts-1"><rect x="0" y="0" width="277" height="482"></rect></clipPath></defs><g class="highcharts-grid" ></g><g class="highcharts-grid" ></g><g class="highcharts-grid" ><path fill="none" d="M 50.5 53 L 50.5 330" stroke="#D8D8D8" stroke-width="1"  opacity="1"></path><path fill="none" d="M 98.5 53 L 98.5 330" stroke="#D8D8D8" stroke-width="1"  opacity="1"></path><path fill="none" d="M 146.5 53 L 146.5 330" stroke="#D8D8D8" stroke-width="1"  opacity="1"></path><path fill="none" d="M 195.5 53 L 195.5 330" stroke="#D8D8D8" stroke-width="1"  opacity="1"></path><path fill="none" d="M 243.5 53 L 243.5 330" stroke="#D8D8D8" stroke-width="1"  opacity="1"></path><path fill="none" d="M 291.5 53 L 291.5 330" stroke="#D8D8D8" stroke-width="1"  opacity="1"></path><path fill="none" d="M 339.5 53 L 339.5 330" stroke="#D8D8D8" stroke-width="1"  opacity="1"></path><path fill="none" d="M 387.5 53 L 387.5 330" stroke="#D8D8D8" stroke-width="1"  opacity="1"></path><path fill="none" d="M 436.5 53 L 436.5 330" stroke="#D8D8D8" stroke-width="1"  opacity="1"></path><path fill="none" d="M 484.5 53 L 484.5 330" stroke="#D8D8D8" stroke-width="1"  opacity="1"></path><path fill="none" d="M 533.5 53 L 533.5 330" stroke="#D8D8D8" stroke-width="1"  opacity="1"></path></g><g class="highcharts-axis" ><path fill="none" d="M 51 323.5 L 41 323.5" stroke="#C0D0E0" stroke-width="1" opacity="1"></path><path fill="none" d="M 51 297.5 L 41 297.5" stroke="#C0D0E0" stroke-width="1" opacity="1"></path><path fill="none" d="M 51 271.5 L 41 271.5" stroke="#C0D0E0" stroke-width="1" opacity="1"></path><path fill="none" d="M 51 244.5 L 41 244.5" stroke="#C0D0E0" stroke-width="1" opacity="1"></path><path fill="none" d="M 51 218.5 L 41 218.5" stroke="#C0D0E0" stroke-width="1" opacity="1"></path><path fill="none" d="M 51 192.5 L 41 192.5" stroke="#C0D0E0" stroke-width="1" opacity="1"></path><path fill="none" d="M 51 165.5 L 41 165.5" stroke="#C0D0E0" stroke-width="1" opacity="1"></path><path fill="none" d="M 51 139.5 L 41 139.5" stroke="#C0D0E0" stroke-width="1" opacity="1"></path><path fill="none" d="M 51 112.5 L 41 112.5" stroke="#C0D0E0" stroke-width="1" opacity="1"></path><path fill="none" d="M 51 86.5 L 41 86.5" stroke="#C0D0E0" stroke-width="1" opacity="1"></path><path fill="none" d="M 51 60.5 L 41 60.5" stroke="#C0D0E0" stroke-width="1" opacity="1"></path><path fill="none" d="M 50.5 53 L 50.5 330" stroke="#C0D0E0" stroke-width="1"  visibility="visible"></path></g><g class="highcharts-axis" ><path fill="none" d="M 533 323.5 L 543 323.5" stroke="#C0D0E0" stroke-width="1" opacity="1"></path><path fill="none" d="M 533 297.5 L 543 297.5" stroke="#C0D0E0" stroke-width="1" opacity="1"></path><path fill="none" d="M 533 271.5 L 543 271.5" stroke="#C0D0E0" stroke-width="1" opacity="1"></path><path fill="none" d="M 533 244.5 L 543 244.5" stroke="#C0D0E0" stroke-width="1" opacity="1"></path><path fill="none" d="M 533 218.5 L 543 218.5" stroke="#C0D0E0" stroke-width="1" opacity="1"></path><path fill="none" d="M 533 192.5 L 543 192.5" stroke="#C0D0E0" stroke-width="1" opacity="1"></path><path fill="none" d="M 533 165.5 L 543 165.5" stroke="#C0D0E0" stroke-width="1" opacity="1"></path><path fill="none" d="M 533 139.5 L 543 139.5" stroke="#C0D0E0" stroke-width="1" opacity="1"></path><path fill="none" d="M 533 112.5 L 543 112.5" stroke="#C0D0E0" stroke-width="1" opacity="1"></path><path fill="none" d="M 533 86.5 L 543 86.5" stroke="#C0D0E0" stroke-width="1" opacity="1"></path><path fill="none" d="M 533 60.5 L 543 60.5" stroke="#C0D0E0" stroke-width="1" opacity="1"></path><path fill="none" d="M 533.5 53 L 533.5 330" stroke="#C0D0E0" stroke-width="1"  visibility="visible"></path></g><g class="highcharts-axis" ></g><g class="highcharts-series-group" ><g class="highcharts-series highcharts-tracker" visibility="visible"  transform="translate(533,330) rotate(90) scale(-1,1) scale(1 1)" style="" width="482" height="277" clip-path="url(#highcharts-1)"><rect x="2.5" y="241.5" width="7" height="101" stroke="black" stroke-width="5" fill="none" rx="0" ry="0"  stroke-opacity="0.0" transform="translate(-1,-1)"></rect><rect x="2.5" y="241.5" width="7" height="103" stroke="black" stroke-width="3" fill="none" rx="0" ry="0"  stroke-opacity="0.0" transform="translate(-1,-1)"></rect><rect x="2.5" y="241.5" width="7" height="105" stroke="black" stroke-width="1" fill="none" rx="0" ry="0"  stroke-opacity="0.1" transform="translate(-1,-1)"></rect><rect x="2.5" y="241.5" width="7" height="106" stroke="#FFFFFF" stroke-width="1" fill="#f45b5b" rx="0" ry="0"></rect><rect x="16.5" y="241.5" width="7" height="101" stroke="black" stroke-width="5" fill="none" rx="0" ry="0"  stroke-opacity="0.0" transform="translate(-1,-1)"></rect><rect x="16.5" y="241.5" width="7" height="103" stroke="black" stroke-width="3" fill="none" rx="0" ry="0"  stroke-opacity="0.0" transform="translate(-1,-1)"></rect><rect x="16.5" y="241.5" width="7" height="105" stroke="black" stroke-width="1" fill="none" rx="0" ry="0"  stroke-opacity="0.1" transform="translate(-1,-1)"></rect><rect x="16.5" y="241.5" width="7" height="106" stroke="#FFFFFF" stroke-width="1" fill="#f45b5b" rx="0" ry="0"></rect><rect x="29.5" y="241.5" width="7" height="106" stroke="black" stroke-width="5" fill="none" rx="0" ry="0"  stroke-opacity="0.0" transform="translate(-1,-1)"></rect><rect x="29.5" y="241.5" width="7" height="108" stroke="black" stroke-width="3" fill="none" rx="0" ry="0"  stroke-opacity="0.0" transform="translate(-1,-1)"></rect><rect x="29.5" y="241.5" width="7" height="110" stroke="black" stroke-width="1" fill="none" rx="0" ry="0"  stroke-opacity="0.1" transform="translate(-1,-1)"></rect><rect x="29.5" y="241.5" width="7" height="111" stroke="#FFFFFF" stroke-width="1" fill="#f45b5b" rx="0" ry="0"></rect><rect x="42.5" y="241.5" width="7" height="116" stroke="black" stroke-width="5" fill="none" rx="0" ry="0"  stroke-opacity="0.0" transform="translate(-1,-1)"></rect><rect x="42.5" y="241.5" width="7" height="118" stroke="black" stroke-width="3" fill="none" rx="0" ry="0"  stroke-opacity="0.0" transform="translate(-1,-1)"></rect><rect x="42.5" y="241.5" width="7" height="120" stroke="black" stroke-width="1" fill="none" rx="0" ry="0"  stroke-opacity="0.1" transform="translate(-1,-1)"></rect><rect x="42.5" y="241.5" width="7" height="121" stroke="#FFFFFF" stroke-width="1" fill="#f45b5b" rx="0" ry="0"></rect><rect x="55.5" y="241.5" width="7" height="125" stroke="black" stroke-width="5" fill="none" rx="0" ry="0"  stroke-opacity="0.0" transform="translate(-1,-1)"></rect><rect x="55.5" y="241.5" width="7" height="127" stroke="black" stroke-width="3" fill="none" rx="0" ry="0"  stroke-opacity="0.0" transform="translate(-1,-1)"></rect><rect x="55.5" y="241.5" width="7" height="129" stroke="black" stroke-width="1" fill="none" rx="0" ry="0"  stroke-opacity="0.1" transform="translate(-1,-1)"></rect><rect x="55.5" y="241.5" width="7" height="130" stroke="#FFFFFF" stroke-width="1" fill="#f45b5b" rx="0" ry="0"></rect><rect x="68.5" y="241.5" width="7" height="144" stroke="black" stroke-width="5" fill="none" rx="0" ry="0"  stroke-opacity="0.0" transform="translate(-1,-1)"></rect><rect x="68.5" y="241.5" width="7" height="146" stroke="black" stroke-width="3" fill="none" rx="0" ry="0"  stroke-opacity="0.0" transform="translate(-1,-1)"></rect><rect x="68.5" y="241.5" width="7" height="148" stroke="black" stroke-width="1" fill="none" rx="0" ry="0"  stroke-opacity="0.1" transform="translate(-1,-1)"></rect><rect x="68.5" y="241.5" width="7" height="149" stroke="#FFFFFF" stroke-width="1" fill="#f45b5b" rx="0" ry="0"></rect><rect x="82.5" y="241.5" width="7" height="149" stroke="black" stroke-width="5" fill="none" rx="0" ry="0"  stroke-opacity="0.0" transform="translate(-1,-1)"></rect><rect x="82.5" y="241.5" width="7" height="151" stroke="black" stroke-width="3" fill="none" rx="0" ry="0"  stroke-opacity="0.0" transform="translate(-1,-1)"></rect><rect x="82.5" y="241.5" width="7" height="153" stroke="black" stroke-width="1" fill="none" rx="0" ry="0"  stroke-opacity="0.1" transform="translate(-1,-1)"></rect><rect x="82.5" y="241.5" width="7" height="154" stroke="#FFFFFF" stroke-width="1" fill="#f45b5b" rx="0" ry="0"></rect><rect x="95.5" y="241.5" width="7" height="140" stroke="black" stroke-width="5" fill="none" rx="0" ry="0"  stroke-opacity="0.0" transform="translate(-1,-1)"></rect><rect x="95.5" y="241.5" width="7" height="142" stroke="black" stroke-width="3" fill="none" rx="0" ry="0"  stroke-opacity="0.0" transform="translate(-1,-1)"></rect><rect x="95.5" y="241.5" width="7" height="144" stroke="black" stroke-width="1" fill="none" rx="0" ry="0"  stroke-opacity="0.1" transform="translate(-1,-1)"></rect><rect x="95.5" y="241.5" width="7" height="145" stroke="#FFFFFF" stroke-width="1" fill="#f45b5b" rx="0" ry="0"></rect><rect x="108.5" y="241.5" width="7" height="149" stroke="black" stroke-width="5" fill="none" rx="0" ry="0"  stroke-opacity="0.0" transform="translate(-1,-1)"></rect><rect x="108.5" y="241.5" width="7" height="151" stroke="black" stroke-width="3" fill="none" rx="0" ry="0"  stroke-opacity="0.0" transform="translate(-1,-1)"></rect><rect x="108.5" y="241.5" width="7" height="153" stroke="black" stroke-width="1" fill="none" rx="0" ry="0"  stroke-opacity="0.1" transform="translate(-1,-1)"></rect><rect x="108.5" y="241.5" width="7" height="154" stroke="#FFFFFF" stroke-width="1" fill="#f45b5b" rx="0" ry="0"></rect><rect x="121.5" y="241.5" width="7" height="202" stroke="black" stroke-width="5" fill="none" rx="0" ry="0"  stroke-opacity="0.0" transform="translate(-1,-1)"></rect><rect x="121.5" y="241.5" width="7" height="204" stroke="black" stroke-width="3" fill="none" rx="0" ry="0"  stroke-opacity="0.0" transform="translate(-1,-1)"></rect><rect x="121.5" y="241.5" width="7" height="206" stroke="black" stroke-width="1" fill="none" rx="0" ry="0"  stroke-opacity="0.1" transform="translate(-1,-1)"></rect><rect x="121.5" y="241.5" width="7" height="207" stroke="#FFFFFF" stroke-width="1" fill="#f45b5b" rx="0" ry="0"></rect><rect x="134.5" y="241.5" width="7" height="207" stroke="black" stroke-width="5" fill="none" rx="0" ry="0"  stroke-opacity="0.0" transform="translate(-1,-1)"></rect><rect x="134.5" y="241.5" width="7" height="209" stroke="black" stroke-width="3" fill="none" rx="0" ry="0"  stroke-opacity="0.0" transform="translate(-1,-1)"></rect><rect x="134.5" y="241.5" width="7" height="211" stroke="black" stroke-width="1" fill="none" rx="0" ry="0"  stroke-opacity="0.1" transform="translate(-1,-1)"></rect><rect x="134.5" y="241.5" width="7" height="212" stroke="#FFFFFF" stroke-width="1" fill="#f45b5b" rx="0" ry="0"></rect><rect x="148.5" y="241.5" width="7" height="169" stroke="black" stroke-width="5" fill="none" rx="0" ry="0"  stroke-opacity="0.0" transform="translate(-1,-1)"></rect><rect x="148.5" y="241.5" width="7" height="171" stroke="black" stroke-width="3" fill="none" rx="0" ry="0"  stroke-opacity="0.0" transform="translate(-1,-1)"></rect><rect x="148.5" y="241.5" width="7" height="173" stroke="black" stroke-width="1" fill="none" rx="0" ry="0"  stroke-opacity="0.1" transform="translate(-1,-1)"></rect><rect x="148.5" y="241.5" width="7" height="174" stroke="#FFFFFF" stroke-width="1" fill="#f45b5b" rx="0" ry="0"></rect><rect x="161.5" y="241.5" width="7" height="144" stroke="black" stroke-width="5" fill="none" rx="0" ry="0"  stroke-opacity="0.0" transform="translate(-1,-1)"></rect><rect x="161.5" y="241.5" width="7" height="146" stroke="black" stroke-width="3" fill="none" rx="0" ry="0"  stroke-opacity="0.0" transform="translate(-1,-1)"></rect><rect x="161.5" y="241.5" width="7" height="148" stroke="black" stroke-width="1" fill="none" rx="0" ry="0"  stroke-opacity="0.1" transform="translate(-1,-1)"></rect><rect x="161.5" y="241.5" width="7" height="149" stroke="#FFFFFF" stroke-width="1" fill="#f45b5b" rx="0" ry="0"></rect><rect x="174.5" y="241.5" width="7" height="111" stroke="black" stroke-width="5" fill="none" rx="0" ry="0"  stroke-opacity="0.0" transform="translate(-1,-1)"></rect><rect x="174.5" y="241.5" width="7" height="113" stroke="black" stroke-width="3" fill="none" rx="0" ry="0"  stroke-opacity="0.0" transform="translate(-1,-1)"></rect><rect x="174.5" y="241.5" width="7" height="115" stroke="black" stroke-width="1" fill="none" rx="0" ry="0"  stroke-opacity="0.1" transform="translate(-1,-1)"></rect><rect x="174.5" y="241.5" width="7" height="116" stroke="#FFFFFF" stroke-width="1" fill="#f45b5b" rx="0" ry="0"></rect><rect x="187.5" y="241.5" width="7" height="116" stroke="black" stroke-width="5" fill="none" rx="0" ry="0"  stroke-opacity="0.0" transform="translate(-1,-1)"></rect><rect x="187.5" y="241.5" width="7" height="118" stroke="black" stroke-width="3" fill="none" rx="0" ry="0"  stroke-opacity="0.0" transform="translate(-1,-1)"></rect><rect x="187.5" y="241.5" width="7" height="120" stroke="black" stroke-width="1" fill="none" rx="0" ry="0"  stroke-opacity="0.1" transform="translate(-1,-1)"></rect><rect x="187.5" y="241.5" width="7" height="121" stroke="#FFFFFF" stroke-width="1" fill="#f45b5b" rx="0" ry="0"></rect><rect x="200.5" y="241.5" width="7" height="106" stroke="black" stroke-width="5" fill="none" rx="0" ry="0"  stroke-opacity="0.0" transform="translate(-1,-1)"></rect><rect x="200.5" y="241.5" width="7" height="108" stroke="black" stroke-width="3" fill="none" rx="0" ry="0"  stroke-opacity="0.0" transform="translate(-1,-1)"></rect><rect x="200.5" y="241.5" width="7" height="110" stroke="black" stroke-width="1" fill="none" rx="0" ry="0"  stroke-opacity="0.1" transform="translate(-1,-1)"></rect><rect x="200.5" y="241.5" width="7" height="111" stroke="#FFFFFF" stroke-width="1" fill="#f45b5b" rx="0" ry="0"></rect><rect x="213.5" y="241.5" width="7" height="53" stroke="black" stroke-width="5" fill="none" rx="0" ry="0"  stroke-opacity="0.0" transform="translate(-1,-1)"></rect><rect x="213.5" y="241.5" width="7" height="55" stroke="black" stroke-width="3" fill="none" rx="0" ry="0"  stroke-opacity="0.0" transform="translate(-1,-1)"></rect><rect x="213.5" y="241.5" width="7" height="57" stroke="black" stroke-width="1" fill="none" rx="0" ry="0"  stroke-opacity="0.1" transform="translate(-1,-1)"></rect><rect x="213.5" y="241.5" width="7" height="58" stroke="#FFFFFF" stroke-width="1" fill="#f45b5b" rx="0" ry="0"></rect><rect x="227.5" y="241.5" width="7" height="24" stroke="black" stroke-width="5" fill="none" rx="0" ry="0"  stroke-opacity="0.0" transform="translate(-1,-1)"></rect><rect x="227.5" y="241.5" width="7" height="26" stroke="black" stroke-width="3" fill="none" rx="0" ry="0"  stroke-opacity="0.0" transform="translate(-1,-1)"></rect><rect x="227.5" y="241.5" width="7" height="28" stroke="black" stroke-width="1" fill="none" rx="0" ry="0"  stroke-opacity="0.1" transform="translate(-1,-1)"></rect><rect x="227.5" y="241.5" width="7" height="29" stroke="#FFFFFF" stroke-width="1" fill="#f45b5b" rx="0" ry="0"></rect><rect x="240.5" y="241.5" width="7" height="5" stroke="black" stroke-width="5" fill="none" rx="0" ry="0"  stroke-opacity="0.0" transform="translate(-1,-1)"></rect><rect x="240.5" y="241.5" width="7" height="7" stroke="black" stroke-width="3" fill="none" rx="0" ry="0"  stroke-opacity="0.0" transform="translate(-1,-1)"></rect><rect x="240.5" y="241.5" width="7" height="9" stroke="black" stroke-width="1" fill="none" rx="0" ry="0"  stroke-opacity="0.1" transform="translate(-1,-1)"></rect><rect x="240.5" y="241.5" width="7" height="10" stroke="#FFFFFF" stroke-width="1" fill="#f45b5b" rx="0" ry="0"></rect><rect x="253.5" y="236.5" width="7" height="0" stroke="black" stroke-width="5" fill="none" rx="0" ry="0"  stroke-opacity="0.0" transform="translate(-1,-1)"></rect><rect x="253.5" y="236.5" width="7" height="0" stroke="black" stroke-width="3" fill="none" rx="0" ry="0"  stroke-opacity="0.0" transform="translate(-1,-1)"></rect><rect x="253.5" y="236.5" width="7" height="0" stroke="black" stroke-width="1" fill="none" rx="0" ry="0"  stroke-opacity="0.1" transform="translate(-1,-1)"></rect><rect x="253.5" y="236.5" width="7" height="0" stroke="#FFFFFF" stroke-width="1" fill="#f45b5b" rx="0" ry="0"></rect><rect x="266.5" y="241.5" width="7" height="0" stroke="black" stroke-width="5" fill="none" rx="0" ry="0"  stroke-opacity="0.0" transform="translate(-1,-1)"></rect><rect x="266.5" y="241.5" width="7" height="0" stroke="black" stroke-width="3" fill="none" rx="0" ry="0"  stroke-opacity="0.0" transform="translate(-1,-1)"></rect><rect x="266.5" y="241.5" width="7" height="0" stroke="black" stroke-width="1" fill="none" rx="0" ry="0"  stroke-opacity="0.1" transform="translate(-1,-1)"></rect><rect x="266.5" y="241.5" width="7" height="0" stroke="#FFFFFF" stroke-width="1" fill="#f45b5b" rx="0" ry="0"></rect></g><g class="highcharts-markers" visibility="visible"  transform="translate(533,330) rotate(90) scale(-1,1) scale(1 1)" width="482" height="277"></g><g class="highcharts-series highcharts-tracker" visibility="visible"  transform="translate(533,330) rotate(90) scale(-1,1) scale(1 1)" style="" width="482" height="277" clip-path="url(#highcharts-1)"><rect x="2.5" y="140.5" width="7" height="96" stroke="black" stroke-width="5" fill="none" rx="0" ry="0"  stroke-opacity="0.0" transform="translate(-1,-1)"></rect><rect x="2.5" y="140.5" width="7" height="98" stroke="black" stroke-width="3" fill="none" rx="0" ry="0"  stroke-opacity="0.0" transform="translate(-1,-1)"></rect><rect x="2.5" y="140.5" width="7" height="100" stroke="black" stroke-width="1" fill="none" rx="0" ry="0"  stroke-opacity="0.1" transform="translate(-1,-1)"></rect><rect x="2.5" y="140.5" width="7" height="101" stroke="#FFFFFF" stroke-width="1" fill="#8085e9" rx="0" ry="0"></rect><rect x="16.5" y="145.5" width="7" height="91" stroke="black" stroke-width="5" fill="none" rx="0" ry="0"  stroke-opacity="0.0" transform="translate(-1,-1)"></rect><rect x="16.5" y="145.5" width="7" height="93" stroke="black" stroke-width="3" fill="none" rx="0" ry="0"  stroke-opacity="0.0" transform="translate(-1,-1)"></rect><rect x="16.5" y="145.5" width="7" height="95" stroke="black" stroke-width="1" fill="none" rx="0" ry="0"  stroke-opacity="0.1" transform="translate(-1,-1)"></rect><rect x="16.5" y="145.5" width="7" height="96" stroke="#FFFFFF" stroke-width="1" fill="#8085e9" rx="0" ry="0"></rect><rect x="29.5" y="135.5" width="7" height="101" stroke="black" stroke-width="5" fill="none" rx="0" ry="0"  stroke-opacity="0.0" transform="translate(-1,-1)"></rect><rect x="29.5" y="135.5" width="7" height="103" stroke="black" stroke-width="3" fill="none" rx="0" ry="0"  stroke-opacity="0.0" transform="translate(-1,-1)"></rect><rect x="29.5" y="135.5" width="7" height="105" stroke="black" stroke-width="1" fill="none" rx="0" ry="0"  stroke-opacity="0.1" transform="translate(-1,-1)"></rect><rect x="29.5" y="135.5" width="7" height="106" stroke="#FFFFFF" stroke-width="1" fill="#8085e9" rx="0" ry="0"></rect><rect x="42.5" y="125.5" width="7" height="111" stroke="black" stroke-width="5" fill="none" rx="0" ry="0"  stroke-opacity="0.0" transform="translate(-1,-1)"></rect><rect x="42.5" y="125.5" width="7" height="113" stroke="black" stroke-width="3" fill="none" rx="0" ry="0"  stroke-opacity="0.0" transform="translate(-1,-1)"></rect><rect x="42.5" y="125.5" width="7" height="115" stroke="black" stroke-width="1" fill="none" rx="0" ry="0"  stroke-opacity="0.1" transform="translate(-1,-1)"></rect><rect x="42.5" y="125.5" width="7" height="116" stroke="#FFFFFF" stroke-width="1" fill="#8085e9" rx="0" ry="0"></rect><rect x="55.5" y="116.5" width="7" height="120" stroke="black" stroke-width="5" fill="none" rx="0" ry="0"  stroke-opacity="0.0" transform="translate(-1,-1)"></rect><rect x="55.5" y="116.5" width="7" height="122" stroke="black" stroke-width="3" fill="none" rx="0" ry="0"  stroke-opacity="0.0" transform="translate(-1,-1)"></rect><rect x="55.5" y="116.5" width="7" height="124" stroke="black" stroke-width="1" fill="none" rx="0" ry="0"  stroke-opacity="0.1" transform="translate(-1,-1)"></rect><rect x="55.5" y="116.5" width="7" height="125" stroke="#FFFFFF" stroke-width="1" fill="#8085e9" rx="0" ry="0"></rect><rect x="68.5" y="96.5" width="7" height="140" stroke="black" stroke-width="5" fill="none" rx="0" ry="0"  stroke-opacity="0.0" transform="translate(-1,-1)"></rect><rect x="68.5" y="96.5" width="7" height="142" stroke="black" stroke-width="3" fill="none" rx="0" ry="0"  stroke-opacity="0.0" transform="translate(-1,-1)"></rect><rect x="68.5" y="96.5" width="7" height="144" stroke="black" stroke-width="1" fill="none" rx="0" ry="0"  stroke-opacity="0.1" transform="translate(-1,-1)"></rect><rect x="68.5" y="96.5" width="7" height="145" stroke="#FFFFFF" stroke-width="1" fill="#8085e9" rx="0" ry="0"></rect><rect x="82.5" y="92.5" width="7" height="144" stroke="black" stroke-width="5" fill="none" rx="0" ry="0"  stroke-opacity="0.0" transform="translate(-1,-1)"></rect><rect x="82.5" y="92.5" width="7" height="146" stroke="black" stroke-width="3" fill="none" rx="0" ry="0"  stroke-opacity="0.0" transform="translate(-1,-1)"></rect><rect x="82.5" y="92.5" width="7" height="148" stroke="black" stroke-width="1" fill="none" rx="0" ry="0"  stroke-opacity="0.1" transform="translate(-1,-1)"></rect><rect x="82.5" y="92.5" width="7" height="149" stroke="#FFFFFF" stroke-width="1" fill="#8085e9" rx="0" ry="0"></rect><rect x="95.5" y="101.5" width="7" height="135" stroke="black" stroke-width="5" fill="none" rx="0" ry="0"  stroke-opacity="0.0" transform="translate(-1,-1)"></rect><rect x="95.5" y="101.5" width="7" height="137" stroke="black" stroke-width="3" fill="none" rx="0" ry="0"  stroke-opacity="0.0" transform="translate(-1,-1)"></rect><rect x="95.5" y="101.5" width="7" height="139" stroke="black" stroke-width="1" fill="none" rx="0" ry="0"  stroke-opacity="0.1" transform="translate(-1,-1)"></rect><rect x="95.5" y="101.5" width="7" height="140" stroke="#FFFFFF" stroke-width="1" fill="#8085e9" rx="0" ry="0"></rect><rect x="108.5" y="92.5" width="7" height="144" stroke="black" stroke-width="5" fill="none" rx="0" ry="0"  stroke-opacity="0.0" transform="translate(-1,-1)"></rect><rect x="108.5" y="92.5" width="7" height="146" stroke="black" stroke-width="3" fill="none" rx="0" ry="0"  stroke-opacity="0.0" transform="translate(-1,-1)"></rect><rect x="108.5" y="92.5" width="7" height="148" stroke="black" stroke-width="1" fill="none" rx="0" ry="0"  stroke-opacity="0.1" transform="translate(-1,-1)"></rect><rect x="108.5" y="92.5" width="7" height="149" stroke="#FFFFFF" stroke-width="1" fill="#8085e9" rx="0" ry="0"></rect><rect x="121.5" y="43.5" width="7" height="193" stroke="black" stroke-width="5" fill="none" rx="0" ry="0"  stroke-opacity="0.0" transform="translate(-1,-1)"></rect><rect x="121.5" y="43.5" width="7" height="195" stroke="black" stroke-width="3" fill="none" rx="0" ry="0"  stroke-opacity="0.0" transform="translate(-1,-1)"></rect><rect x="121.5" y="43.5" width="7" height="197" stroke="black" stroke-width="1" fill="none" rx="0" ry="0"  stroke-opacity="0.1" transform="translate(-1,-1)"></rect><rect x="121.5" y="43.5" width="7" height="198" stroke="#FFFFFF" stroke-width="1" fill="#8085e9" rx="0" ry="0"></rect><rect x="134.5" y="34.5" width="7" height="202" stroke="black" stroke-width="5" fill="none" rx="0" ry="0"  stroke-opacity="0.0" transform="translate(-1,-1)"></rect><rect x="134.5" y="34.5" width="7" height="204" stroke="black" stroke-width="3" fill="none" rx="0" ry="0"  stroke-opacity="0.0" transform="translate(-1,-1)"></rect><rect x="134.5" y="34.5" width="7" height="206" stroke="black" stroke-width="1" fill="none" rx="0" ry="0"  stroke-opacity="0.1" transform="translate(-1,-1)"></rect><rect x="134.5" y="34.5" width="7" height="207" stroke="#FFFFFF" stroke-width="1" fill="#8085e9" rx="0" ry="0"></rect><rect x="148.5" y="67.5" width="7" height="169" stroke="black" stroke-width="5" fill="none" rx="0" ry="0"  stroke-opacity="0.0" transform="translate(-1,-1)"></rect><rect x="148.5" y="67.5" width="7" height="171" stroke="black" stroke-width="3" fill="none" rx="0" ry="0"  stroke-opacity="0.0" transform="translate(-1,-1)"></rect><rect x="148.5" y="67.5" width="7" height="173" stroke="black" stroke-width="1" fill="none" rx="0" ry="0"  stroke-opacity="0.1" transform="translate(-1,-1)"></rect><rect x="148.5" y="67.5" width="7" height="174" stroke="#FFFFFF" stroke-width="1" fill="#8085e9" rx="0" ry="0"></rect><rect x="161.5" y="77.5" width="7" height="159" stroke="black" stroke-width="5" fill="none" rx="0" ry="0"  stroke-opacity="0.0" transform="translate(-1,-1)"></rect><rect x="161.5" y="77.5" width="7" height="161" stroke="black" stroke-width="3" fill="none" rx="0" ry="0"  stroke-opacity="0.0" transform="translate(-1,-1)"></rect><rect x="161.5" y="77.5" width="7" height="163" stroke="black" stroke-width="1" fill="none" rx="0" ry="0"  stroke-opacity="0.1" transform="translate(-1,-1)"></rect><rect x="161.5" y="77.5" width="7" height="164" stroke="#FFFFFF" stroke-width="1" fill="#8085e9" rx="0" ry="0"></rect><rect x="174.5" y="116.5" width="7" height="120" stroke="black" stroke-width="5" fill="none" rx="0" ry="0"  stroke-opacity="0.0" transform="translate(-1,-1)"></rect><rect x="174.5" y="116.5" width="7" height="122" stroke="black" stroke-width="3" fill="none" rx="0" ry="0"  stroke-opacity="0.0" transform="translate(-1,-1)"></rect><rect x="174.5" y="116.5" width="7" height="124" stroke="black" stroke-width="1" fill="none" rx="0" ry="0"  stroke-opacity="0.1" transform="translate(-1,-1)"></rect><rect x="174.5" y="116.5" width="7" height="125" stroke="#FFFFFF" stroke-width="1" fill="#8085e9" rx="0" ry="0"></rect><rect x="187.5" y="101.5" width="7" height="135" stroke="black" stroke-width="5" fill="none" rx="0" ry="0"  stroke-opacity="0.0" transform="translate(-1,-1)"></rect><rect x="187.5" y="101.5" width="7" height="137" stroke="black" stroke-width="3" fill="none" rx="0" ry="0"  stroke-opacity="0.0" transform="translate(-1,-1)"></rect><rect x="187.5" y="101.5" width="7" height="139" stroke="black" stroke-width="1" fill="none" rx="0" ry="0"  stroke-opacity="0.1" transform="translate(-1,-1)"></rect><rect x="187.5" y="101.5" width="7" height="140" stroke="#FFFFFF" stroke-width="1" fill="#8085e9" rx="0" ry="0"></rect><rect x="200.5" y="101.5" width="7" height="135" stroke="black" stroke-width="5" fill="none" rx="0" ry="0"  stroke-opacity="0.0" transform="translate(-1,-1)"></rect><rect x="200.5" y="101.5" width="7" height="137" stroke="black" stroke-width="3" fill="none" rx="0" ry="0"  stroke-opacity="0.0" transform="translate(-1,-1)"></rect><rect x="200.5" y="101.5" width="7" height="139" stroke="black" stroke-width="1" fill="none" rx="0" ry="0"  stroke-opacity="0.1" transform="translate(-1,-1)"></rect><rect x="200.5" y="101.5" width="7" height="140" stroke="#FFFFFF" stroke-width="1" fill="#8085e9" rx="0" ry="0"></rect><rect x="213.5" y="154.5" width="7" height="82" stroke="black" stroke-width="5" fill="none" rx="0" ry="0"  stroke-opacity="0.0" transform="translate(-1,-1)"></rect><rect x="213.5" y="154.5" width="7" height="84" stroke="black" stroke-width="3" fill="none" rx="0" ry="0"  stroke-opacity="0.0" transform="translate(-1,-1)"></rect><rect x="213.5" y="154.5" width="7" height="86" stroke="black" stroke-width="1" fill="none" rx="0" ry="0"  stroke-opacity="0.1" transform="translate(-1,-1)"></rect><rect x="213.5" y="154.5" width="7" height="87" stroke="#FFFFFF" stroke-width="1" fill="#8085e9" rx="0" ry="0"></rect><rect x="227.5" y="183.5" width="7" height="53" stroke="black" stroke-width="5" fill="none" rx="0" ry="0"  stroke-opacity="0.0" transform="translate(-1,-1)"></rect><rect x="227.5" y="183.5" width="7" height="55" stroke="black" stroke-width="3" fill="none" rx="0" ry="0"  stroke-opacity="0.0" transform="translate(-1,-1)"></rect><rect x="227.5" y="183.5" width="7" height="57" stroke="black" stroke-width="1" fill="none" rx="0" ry="0"  stroke-opacity="0.1" transform="translate(-1,-1)"></rect><rect x="227.5" y="183.5" width="7" height="58" stroke="#FFFFFF" stroke-width="1" fill="#8085e9" rx="0" ry="0"></rect><rect x="240.5" y="212.5" width="7" height="24" stroke="black" stroke-width="5" fill="none" rx="0" ry="0"  stroke-opacity="0.0" transform="translate(-1,-1)"></rect><rect x="240.5" y="212.5" width="7" height="26" stroke="black" stroke-width="3" fill="none" rx="0" ry="0"  stroke-opacity="0.0" transform="translate(-1,-1)"></rect><rect x="240.5" y="212.5" width="7" height="28" stroke="black" stroke-width="1" fill="none" rx="0" ry="0"  stroke-opacity="0.1" transform="translate(-1,-1)"></rect><rect x="240.5" y="212.5" width="7" height="29" stroke="#FFFFFF" stroke-width="1" fill="#8085e9" rx="0" ry="0"></rect><rect x="253.5" y="236.5" width="7" height="0" stroke="black" stroke-width="5" fill="none" rx="0" ry="0"  stroke-opacity="0.0" transform="translate(-1,-1)"></rect><rect x="253.5" y="236.5" width="7" height="2" stroke="black" stroke-width="3" fill="none" rx="0" ry="0"  stroke-opacity="0.0" transform="translate(-1,-1)"></rect><rect x="253.5" y="236.5" width="7" height="4" stroke="black" stroke-width="1" fill="none" rx="0" ry="0"  stroke-opacity="0.1" transform="translate(-1,-1)"></rect><rect x="253.5" y="236.5" width="7" height="5" stroke="#FFFFFF" stroke-width="1" fill="#8085e9" rx="0" ry="0"></rect><rect x="266.5" y="241.5" width="7" height="0" stroke="black" stroke-width="5" fill="none" rx="0" ry="0"  stroke-opacity="0.0" transform="translate(-1,-1)"></rect><rect x="266.5" y="241.5" width="7" height="0" stroke="black" stroke-width="3" fill="none" rx="0" ry="0"  stroke-opacity="0.0" transform="translate(-1,-1)"></rect><rect x="266.5" y="241.5" width="7" height="0" stroke="black" stroke-width="1" fill="none" rx="0" ry="0"  stroke-opacity="0.1" transform="translate(-1,-1)"></rect><rect x="266.5" y="241.5" width="7" height="0" stroke="#FFFFFF" stroke-width="1" fill="#8085e9" rx="0" ry="0"></rect></g><g class="highcharts-markers" visibility="visible"  transform="translate(533,330) rotate(90) scale(-1,1) scale(1 1)" width="482" height="277"></g></g><text x="292" text-anchor="middle" class="highcharts-title"  style="color:black;font-size:16px;font-weight:bold;fill:black;width:520px;" y="22"><tspan>Population pyramid for Germany, 2015</tspan></text><text x="292" text-anchor="middle" class="highcharts-subtitle"  style="color:black;fill:black;width:520px;" y="40"><tspan>Source: </tspan><tspan onclick="location.href=&quot;http://populationpyramid.net/germany/2015/&quot;" dx="0" style="cursor: pointer;">Population Pyramids of the World from 1950 to 2100</tspan></text><g class="highcharts-legend"  transform="translate(219,361)"><g ><g><g class="highcharts-legend-item"  transform="translate(8,3)"><text x="21" style="color:#333333;font-size:13px;font-weight:bold;cursor:pointer;fill:#333333;" text-anchor="start"  y="16">Male</text><rect x="0" y="4" width="16" height="13"  fill="#f45b5b"></rect></g><g class="highcharts-legend-item"  transform="translate(77.1,3)"><text x="21" y="16" style="color:#333333;font-size:13px;font-weight:bold;cursor:pointer;fill:#333333;" text-anchor="start" >Female</text><rect x="0" y="4" width="16" height="13"  fill="#8085e9"></rect></g></g></g></g><g class="highcharts-axis-labels highcharts-xaxis-labels" ><text x="36" style="color:#6e6e70;cursor:default;font-size:11px;fill:#6e6e70;width:183px;text-overflow:clip;" text-anchor="end" transform="translate(0,0)" y="329" opacity="1">0-4</text><text x="36" style="color:#6e6e70;cursor:default;font-size:11px;fill:#6e6e70;width:183px;text-overflow:clip;" text-anchor="end" transform="translate(0,0)" y="303" opacity="1">10-14</text><text x="36" style="color:#6e6e70;cursor:default;font-size:11px;fill:#6e6e70;width:183px;text-overflow:clip;" text-anchor="end" transform="translate(0,0)" y="276" opacity="1">20-24</text><text x="36" style="color:#6e6e70;cursor:default;font-size:11px;fill:#6e6e70;width:183px;text-overflow:clip;" text-anchor="end" transform="translate(0,0)" y="250" opacity="1">30-34</text><text x="36" style="color:#6e6e70;cursor:default;font-size:11px;fill:#6e6e70;width:183px;text-overflow:clip;" text-anchor="end" transform="translate(0,0)" y="223" opacity="1">40-44</text><text x="36" style="color:#6e6e70;cursor:default;font-size:11px;fill:#6e6e70;width:183px;text-overflow:clip;" text-anchor="end" transform="translate(0,0)" y="197" opacity="1">50-54</text><text x="36" style="color:#6e6e70;cursor:default;font-size:11px;fill:#6e6e70;width:183px;text-overflow:clip;" text-anchor="end" transform="translate(0,0)" y="171" opacity="1">60-64</text><text x="36" style="color:#6e6e70;cursor:default;font-size:11px;fill:#6e6e70;width:183px;text-overflow:clip;" text-anchor="end" transform="translate(0,0)" y="144" opacity="1">70-74</text><text x="36" style="color:#6e6e70;cursor:default;font-size:11px;fill:#6e6e70;width:183px;text-overflow:clip;" text-anchor="end" transform="translate(0,0)" y="118" opacity="1">80-84</text><text x="36" style="color:#6e6e70;cursor:default;font-size:11px;fill:#6e6e70;width:183px;text-overflow:clip;" text-anchor="end" transform="translate(0,0)" y="91" opacity="1">90-94</text><text x="36" style="color:#6e6e70;cursor:default;font-size:11px;fill:#6e6e70;width:183px;text-overflow:clip;" text-anchor="end" transform="translate(0,0)" y="65" opacity="1"><tspan>100 + </tspan></text></g><g class="highcharts-axis-labels highcharts-xaxis-labels" ><text x="548" style="color:#6e6e70;cursor:default;font-size:11px;fill:#6e6e70;width:183px;text-overflow:clip;" text-anchor="start" transform="translate(0,0)" y="329" opacity="1">0-4</text><text x="548" style="color:#6e6e70;cursor:default;font-size:11px;fill:#6e6e70;width:183px;text-overflow:clip;" text-anchor="start" transform="translate(0,0)" y="303" opacity="1">10-14</text><text x="548" style="color:#6e6e70;cursor:default;font-size:11px;fill:#6e6e70;width:183px;text-overflow:clip;" text-anchor="start" transform="translate(0,0)" y="276" opacity="1">20-24</text><text x="548" style="color:#6e6e70;cursor:default;font-size:11px;fill:#6e6e70;width:183px;text-overflow:clip;" text-anchor="start" transform="translate(0,0)" y="250" opacity="1">30-34</text><text x="548" style="color:#6e6e70;cursor:default;font-size:11px;fill:#6e6e70;width:183px;text-overflow:clip;" text-anchor="start" transform="translate(0,0)" y="223" opacity="1">40-44</text><text x="548" style="color:#6e6e70;cursor:default;font-size:11px;fill:#6e6e70;width:183px;text-overflow:clip;" text-anchor="start" transform="translate(0,0)" y="197" opacity="1">50-54</text><text x="548" style="color:#6e6e70;cursor:default;font-size:11px;fill:#6e6e70;width:183px;text-overflow:clip;" text-anchor="start" transform="translate(0,0)" y="171" opacity="1">60-64</text><text x="548" style="color:#6e6e70;cursor:default;font-size:11px;fill:#6e6e70;width:183px;text-overflow:clip;" text-anchor="start" transform="translate(0,0)" y="144" opacity="1">70-74</text><text x="548" style="color:#6e6e70;cursor:default;font-size:11px;fill:#6e6e70;width:183px;text-overflow:clip;" text-anchor="start" transform="translate(0,0)" y="118" opacity="1">80-84</text><text x="548" style="color:#6e6e70;cursor:default;font-size:11px;fill:#6e6e70;width:183px;text-overflow:clip;" text-anchor="start" transform="translate(0,0)" y="91" opacity="1">90-94</text><text x="548" style="color:#6e6e70;cursor:default;font-size:11px;fill:#6e6e70;width:183px;text-overflow:clip;" text-anchor="start" transform="translate(0,0)" y="65" opacity="1"><tspan>100 + </tspan></text></g><g class="highcharts-axis-labels highcharts-yaxis-labels" ><text x="51" style="color:#6e6e70;cursor:default;font-size:11px;fill:#6e6e70;" text-anchor="middle" transform="translate(0,0)" y="349" opacity="1">5%</text><text x="99.2" style="color:#6e6e70;cursor:default;font-size:11px;fill:#6e6e70;" text-anchor="middle" transform="translate(0,0)" y="349" opacity="1">4%</text><text x="147.4" style="color:#6e6e70;cursor:default;font-size:11px;fill:#6e6e70;" text-anchor="middle" transform="translate(0,0)" y="349" opacity="1">3%</text><text x="195.6" style="color:#6e6e70;cursor:default;font-size:11px;fill:#6e6e70;" text-anchor="middle" transform="translate(0,0)" y="349" opacity="1">2%</text><text x="243.8" style="color:#6e6e70;cursor:default;font-size:11px;fill:#6e6e70;" text-anchor="middle" transform="translate(0,0)" y="349" opacity="1">1%</text><text x="292" style="color:#6e6e70;cursor:default;font-size:11px;fill:#6e6e70;" text-anchor="middle" transform="translate(0,0)" y="349" opacity="1">0%</text><text x="340.2" style="color:#6e6e70;cursor:default;font-size:11px;fill:#6e6e70;" text-anchor="middle" transform="translate(0,0)" y="349" opacity="1">1%</text><text x="388.4" style="color:#6e6e70;cursor:default;font-size:11px;fill:#6e6e70;" text-anchor="middle" transform="translate(0,0)" y="349" opacity="1">2%</text><text x="436.6" style="color:#6e6e70;cursor:default;font-size:11px;fill:#6e6e70;" text-anchor="middle" transform="translate(0,0)" y="349" opacity="1">3%</text><text x="484.8" style="color:#6e6e70;cursor:default;font-size:11px;fill:#6e6e70;" text-anchor="middle" transform="translate(0,0)" y="349" opacity="1">4%</text><text x="533" style="color:#6e6e70;cursor:default;font-size:11px;fill:#6e6e70;" text-anchor="middle" transform="translate(0,0)" y="349" opacity="1">5%</text></g><g class="highcharts-tooltip"  style="cursor:default;padding:0;white-space:nowrap;" transform="translate(0,-9999)"><path fill="none" d="M 3 0 L 13 0 C 16 0 16 0 16 3 L 16 13 C 16 16 16 16 13 16 L 3 16 C 0 16 0 16 0 13 L 0 3 C 0 0 0 0 3 0"  stroke="black" stroke-opacity="0.0" stroke-width="5" transform="translate(1, 1)"></path><path fill="none" d="M 3 0 L 13 0 C 16 0 16 0 16 3 L 16 13 C 16 16 16 16 13 16 L 3 16 C 0 16 0 16 0 13 L 0 3 C 0 0 0 0 3 0"  stroke="black" stroke-opacity="0.0" stroke-width="3" transform="translate(1, 1)"></path><path fill="none" d="M 3 0 L 13 0 C 16 0 16 0 16 3 L 16 13 C 16 16 16 16 13 16 L 3 16 C 0 16 0 16 0 13 L 0 3 C 0 0 0 0 3 0"  stroke="black" stroke-opacity="0.1" stroke-width="1" transform="translate(1, 1)"></path><path fill="rgb(249, 249, 249)" fill-opacity=" .85" d="M 3 0 L 13 0 C 16 0 16 0 16 3 L 16 13 C 16 16 16 16 13 16 L 3 16 C 0 16 0 16 0 13 L 0 3 C 0 0 0 0 3 0"></path><text x="8"  style="font-size:12px;color:#333333;fill:#333333;" y="20"></text></g></svg>