<svg version="1.1" style="font-family: signika, serif; font-size: 12px; background-image: url(http://www.highcharts.com/samples/graphics/sand.png); background-position: initial initial; background-repeat: initial initial;" xmlns="http://www.w3.org/2000/svg" width="584" height="400" viewBox="0 0 584 400" xmlns:xlink="http://www.w3.org/1999/xlink"><style type="text/css"><![CDATA[@import url(http://fonts.googleapis.com/css?family=Signika:700);]]></style><desc>Created with Highcharts 4.1.7</desc><defs><clipPath id="highcharts-1"><rect x="0" y="0" width="272" height="512"></rect></clipPath></defs><g class="highcharts-grid" ></g><g class="highcharts-grid" ><path fill="none" d="M 61.5 41 L 61.5 313" stroke="#D8D8D8" stroke-width="1"  opacity="1"></path><path fill="none" d="M 146.5 41 L 146.5 313" stroke="#D8D8D8" stroke-width="1"  opacity="1"></path><path fill="none" d="M 232.5 41 L 232.5 313" stroke="#D8D8D8" stroke-width="1"  opacity="1"></path><path fill="none" d="M 317.5 41 L 317.5 313" stroke="#D8D8D8" stroke-width="1"  opacity="1"></path><path fill="none" d="M 402.5 41 L 402.5 313" stroke="#D8D8D8" stroke-width="1"  opacity="1"></path><path fill="none" d="M 488.5 41 L 488.5 313" stroke="#D8D8D8" stroke-width="1"  opacity="1"></path><path fill="none" d="M 574.5 41 L 574.5 313" stroke="#D8D8D8" stroke-width="1"  opacity="1"></path></g><g class="highcharts-axis" ><path fill="none" d="M 62 95.5 L 52 95.5" stroke="#C0D0E0" stroke-width="1" opacity="1"></path><path fill="none" d="M 62 150.5 L 52 150.5" stroke="#C0D0E0" stroke-width="1" opacity="1"></path><path fill="none" d="M 62 204.5 L 52 204.5" stroke="#C0D0E0" stroke-width="1" opacity="1"></path><path fill="none" d="M 62 259.5 L 52 259.5" stroke="#C0D0E0" stroke-width="1" opacity="1"></path><path fill="none" d="M 62 313.5 L 52 313.5" stroke="#C0D0E0" stroke-width="1" opacity="1"></path><path fill="none" d="M 62 40.5 L 52 40.5" stroke="#C0D0E0" stroke-width="1" opacity="1"></path><path fill="none" d="M 61.5 41 L 61.5 313" stroke="#C0D0E0" stroke-width="1"  visibility="visible"></path></g><g class="highcharts-axis" ><text x="318"  text-anchor="middle" transform="translate(0,0)" class=" highcharts-yaxis-title" style="color:#707070;fill:#707070;" visibility="visible" y="349"><tspan>Total fruit consumption</tspan></text></g><g class="highcharts-series-group" ><g class="highcharts-series highcharts-tracker" visibility="visible"  transform="translate(574,313) rotate(90) scale(-1,1) scale(1 1)" style="" width="512" height="272" clip-path="url(#highcharts-1)"><rect x="231.5" y="85.5" width="27" height="209" stroke="black" stroke-width="5" fill="none" rx="0" ry="0"  stroke-opacity="0.0" transform="translate(-1,-1)"></rect><rect x="231.5" y="85.5" width="27" height="211" stroke="black" stroke-width="3" fill="none" rx="0" ry="0"  stroke-opacity="0.0" transform="translate(-1,-1)"></rect><rect x="231.5" y="85.5" width="27" height="213" stroke="black" stroke-width="1" fill="none" rx="0" ry="0"  stroke-opacity="0.1" transform="translate(-1,-1)"></rect><rect x="231.5" y="85.5" width="27" height="214" stroke="#FFFFFF" stroke-width="1" fill="#f45b5b" rx="0" ry="0"></rect><rect x="176.5" y="128.5" width="27" height="123" stroke="black" stroke-width="5" fill="none" rx="0" ry="0"  stroke-opacity="0.0" transform="translate(-1,-1)"></rect><rect x="176.5" y="128.5" width="27" height="125" stroke="black" stroke-width="3" fill="none" rx="0" ry="0"  stroke-opacity="0.0" transform="translate(-1,-1)"></rect><rect x="176.5" y="128.5" width="27" height="127" stroke="black" stroke-width="1" fill="none" rx="0" ry="0"  stroke-opacity="0.1" transform="translate(-1,-1)"></rect><rect x="176.5" y="128.5" width="27" height="128" stroke="#FFFFFF" stroke-width="1" fill="#f45b5b" rx="0" ry="0"></rect><rect x="122.5" y="43.5" width="27" height="165" stroke="black" stroke-width="5" fill="none" rx="0" ry="0"  stroke-opacity="0.0" transform="translate(-1,-1)"></rect><rect x="122.5" y="43.5" width="27" height="167" stroke="black" stroke-width="3" fill="none" rx="0" ry="0"  stroke-opacity="0.0" transform="translate(-1,-1)"></rect><rect x="122.5" y="43.5" width="27" height="169" stroke="black" stroke-width="1" fill="none" rx="0" ry="0"  stroke-opacity="0.1" transform="translate(-1,-1)"></rect><rect x="122.5" y="43.5" width="27" height="170" stroke="#FFFFFF" stroke-width="1" fill="#f45b5b" rx="0" ry="0"></rect><rect x="68.5" y="43.5" width="27" height="293" stroke="black" stroke-width="5" fill="none" rx="0" ry="0"  stroke-opacity="0.0" transform="translate(-1,-1)"></rect><rect x="68.5" y="43.5" width="27" height="295" stroke="black" stroke-width="3" fill="none" rx="0" ry="0"  stroke-opacity="0.0" transform="translate(-1,-1)"></rect><rect x="68.5" y="43.5" width="27" height="297" stroke="black" stroke-width="1" fill="none" rx="0" ry="0"  stroke-opacity="0.1" transform="translate(-1,-1)"></rect><rect x="68.5" y="43.5" width="27" height="298" stroke="#FFFFFF" stroke-width="1" fill="#f45b5b" rx="0" ry="0"></rect><rect x="13.5" y="171.5" width="27" height="80" stroke="black" stroke-width="5" fill="none" rx="0" ry="0"  stroke-opacity="0.0" transform="translate(-1,-1)"></rect><rect x="13.5" y="171.5" width="27" height="82" stroke="black" stroke-width="3" fill="none" rx="0" ry="0"  stroke-opacity="0.0" transform="translate(-1,-1)"></rect><rect x="13.5" y="171.5" width="27" height="84" stroke="black" stroke-width="1" fill="none" rx="0" ry="0"  stroke-opacity="0.1" transform="translate(-1,-1)"></rect><rect x="13.5" y="171.5" width="27" height="85" stroke="#FFFFFF" stroke-width="1" fill="#f45b5b" rx="0" ry="0"></rect></g><g class="highcharts-markers" visibility="visible"  transform="translate(574,313) rotate(90) scale(-1,1) scale(1 1)" width="512" height="272"></g><g class="highcharts-series highcharts-tracker" visibility="visible"  transform="translate(574,313) rotate(90) scale(-1,1) scale(1 1)" style="" width="512" height="272" clip-path="url(#highcharts-1)"><rect x="231.5" y="299.5" width="27" height="80" stroke="black" stroke-width="5" fill="none" rx="0" ry="0"  stroke-opacity="0.0" transform="translate(-1,-1)"></rect><rect x="231.5" y="299.5" width="27" height="82" stroke="black" stroke-width="3" fill="none" rx="0" ry="0"  stroke-opacity="0.0" transform="translate(-1,-1)"></rect><rect x="231.5" y="299.5" width="27" height="84" stroke="black" stroke-width="1" fill="none" rx="0" ry="0"  stroke-opacity="0.1" transform="translate(-1,-1)"></rect><rect x="231.5" y="299.5" width="27" height="85" stroke="#FFFFFF" stroke-width="1" fill="#8085e9" rx="0" ry="0"></rect><rect x="176.5" y="256.5" width="27" height="80" stroke="black" stroke-width="5" fill="none" rx="0" ry="0"  stroke-opacity="0.0" transform="translate(-1,-1)"></rect><rect x="176.5" y="256.5" width="27" height="82" stroke="black" stroke-width="3" fill="none" rx="0" ry="0"  stroke-opacity="0.0" transform="translate(-1,-1)"></rect><rect x="176.5" y="256.5" width="27" height="84" stroke="black" stroke-width="1" fill="none" rx="0" ry="0"  stroke-opacity="0.1" transform="translate(-1,-1)"></rect><rect x="176.5" y="256.5" width="27" height="85" stroke="#FFFFFF" stroke-width="1" fill="#8085e9" rx="0" ry="0"></rect><rect x="122.5" y="213.5" width="27" height="123" stroke="black" stroke-width="5" fill="none" rx="0" ry="0"  stroke-opacity="0.0" transform="translate(-1,-1)"></rect><rect x="122.5" y="213.5" width="27" height="125" stroke="black" stroke-width="3" fill="none" rx="0" ry="0"  stroke-opacity="0.0" transform="translate(-1,-1)"></rect><rect x="122.5" y="213.5" width="27" height="127" stroke="black" stroke-width="1" fill="none" rx="0" ry="0"  stroke-opacity="0.1" transform="translate(-1,-1)"></rect><rect x="122.5" y="213.5" width="27" height="128" stroke="#FFFFFF" stroke-width="1" fill="#8085e9" rx="0" ry="0"></rect><rect x="68.5" y="341.5" width="27" height="81" stroke="black" stroke-width="5" fill="none" rx="0" ry="0"  stroke-opacity="0.0" transform="translate(-1,-1)"></rect><rect x="68.5" y="341.5" width="27" height="83" stroke="black" stroke-width="3" fill="none" rx="0" ry="0"  stroke-opacity="0.0" transform="translate(-1,-1)"></rect><rect x="68.5" y="341.5" width="27" height="85" stroke="black" stroke-width="1" fill="none" rx="0" ry="0"  stroke-opacity="0.1" transform="translate(-1,-1)"></rect><rect x="68.5" y="341.5" width="27" height="86" stroke="#FFFFFF" stroke-width="1" fill="#8085e9" rx="0" ry="0"></rect><rect x="13.5" y="256.5" width="27" height="38" stroke="black" stroke-width="5" fill="none" rx="0" ry="0"  stroke-opacity="0.0" transform="translate(-1,-1)"></rect><rect x="13.5" y="256.5" width="27" height="40" stroke="black" stroke-width="3" fill="none" rx="0" ry="0"  stroke-opacity="0.0" transform="translate(-1,-1)"></rect><rect x="13.5" y="256.5" width="27" height="42" stroke="black" stroke-width="1" fill="none" rx="0" ry="0"  stroke-opacity="0.1" transform="translate(-1,-1)"></rect><rect x="13.5" y="256.5" width="27" height="43" stroke="#FFFFFF" stroke-width="1" fill="#8085e9" rx="0" ry="0"></rect></g><g class="highcharts-markers" visibility="visible"  transform="translate(574,313) rotate(90) scale(-1,1) scale(1 1)" width="512" height="272"></g><g class="highcharts-series highcharts-tracker" visibility="visible"  transform="translate(574,313) rotate(90) scale(-1,1) scale(1 1)" style="" width="512" height="272" clip-path="url(#highcharts-1)"><rect x="231.5" y="384.5" width="27" height="123" stroke="black" stroke-width="5" fill="none" rx="0" ry="0"  stroke-opacity="0.0" transform="translate(-1,-1)"></rect><rect x="231.5" y="384.5" width="27" height="125" stroke="black" stroke-width="3" fill="none" rx="0" ry="0"  stroke-opacity="0.0" transform="translate(-1,-1)"></rect><rect x="231.5" y="384.5" width="27" height="127" stroke="black" stroke-width="1" fill="none" rx="0" ry="0"  stroke-opacity="0.1" transform="translate(-1,-1)"></rect><rect x="231.5" y="384.5" width="27" height="128" stroke="#FFFFFF" stroke-width="1" fill="#8d4654" rx="0" ry="0"></rect><rect x="176.5" y="341.5" width="27" height="166" stroke="black" stroke-width="5" fill="none" rx="0" ry="0"  stroke-opacity="0.0" transform="translate(-1,-1)"></rect><rect x="176.5" y="341.5" width="27" height="168" stroke="black" stroke-width="3" fill="none" rx="0" ry="0"  stroke-opacity="0.0" transform="translate(-1,-1)"></rect><rect x="176.5" y="341.5" width="27" height="170" stroke="black" stroke-width="1" fill="none" rx="0" ry="0"  stroke-opacity="0.1" transform="translate(-1,-1)"></rect><rect x="176.5" y="341.5" width="27" height="171" stroke="#FFFFFF" stroke-width="1" fill="#8d4654" rx="0" ry="0"></rect><rect x="122.5" y="341.5" width="27" height="166" stroke="black" stroke-width="5" fill="none" rx="0" ry="0"  stroke-opacity="0.0" transform="translate(-1,-1)"></rect><rect x="122.5" y="341.5" width="27" height="168" stroke="black" stroke-width="3" fill="none" rx="0" ry="0"  stroke-opacity="0.0" transform="translate(-1,-1)"></rect><rect x="122.5" y="341.5" width="27" height="170" stroke="black" stroke-width="1" fill="none" rx="0" ry="0"  stroke-opacity="0.1" transform="translate(-1,-1)"></rect><rect x="122.5" y="341.5" width="27" height="171" stroke="#FFFFFF" stroke-width="1" fill="#8d4654" rx="0" ry="0"></rect><rect x="68.5" y="427.5" width="27" height="80" stroke="black" stroke-width="5" fill="none" rx="0" ry="0"  stroke-opacity="0.0" transform="translate(-1,-1)"></rect><rect x="68.5" y="427.5" width="27" height="82" stroke="black" stroke-width="3" fill="none" rx="0" ry="0"  stroke-opacity="0.0" transform="translate(-1,-1)"></rect><rect x="68.5" y="427.5" width="27" height="84" stroke="black" stroke-width="1" fill="none" rx="0" ry="0"  stroke-opacity="0.1" transform="translate(-1,-1)"></rect><rect x="68.5" y="427.5" width="27" height="85" stroke="#FFFFFF" stroke-width="1" fill="#8d4654" rx="0" ry="0"></rect><rect x="13.5" y="299.5" width="27" height="208" stroke="black" stroke-width="5" fill="none" rx="0" ry="0"  stroke-opacity="0.0" transform="translate(-1,-1)"></rect><rect x="13.5" y="299.5" width="27" height="210" stroke="black" stroke-width="3" fill="none" rx="0" ry="0"  stroke-opacity="0.0" transform="translate(-1,-1)"></rect><rect x="13.5" y="299.5" width="27" height="212" stroke="black" stroke-width="1" fill="none" rx="0" ry="0"  stroke-opacity="0.1" transform="translate(-1,-1)"></rect><rect x="13.5" y="299.5" width="27" height="213" stroke="#FFFFFF" stroke-width="1" fill="#8d4654" rx="0" ry="0"></rect></g><g class="highcharts-markers" visibility="visible"  transform="translate(574,313) rotate(90) scale(-1,1) scale(1 1)" width="512" height="272"></g></g><text x="292" text-anchor="middle" class="highcharts-title"  style="color:black;font-size:16px;font-weight:bold;fill:black;width:520px;" y="22"><tspan>Stacked bar chart</tspan></text><g class="highcharts-legend"  transform="translate(196,361)"><g ><g><g class="highcharts-legend-item"  transform="translate(8,3)"><text x="21" style="color:#333333;font-size:13px;font-weight:bold;cursor:pointer;fill:#333333;" text-anchor="start"  y="16">Joe</text><rect x="0" y="4" width="16" height="13"  fill="#8d4654"></rect></g><g class="highcharts-legend-item"  transform="translate(67.7,3)"><text x="21" y="16" style="color:#333333;font-size:13px;font-weight:bold;cursor:pointer;fill:#333333;" text-anchor="start" >Jane</text><rect x="0" y="4" width="16" height="13"  fill="#8085e9"></rect></g><g class="highcharts-legend-item"  transform="translate(134.7,3)"><text x="21" y="16" style="color:#333333;font-size:13px;font-weight:bold;cursor:pointer;fill:#333333;" text-anchor="start" >John</text><rect x="0" y="4" width="16" height="13"  fill="#f45b5b"></rect></g></g></g></g><g class="highcharts-axis-labels highcharts-xaxis-labels" ><text x="47" style="color:#6e6e70;cursor:default;font-size:11px;fill:#6e6e70;width:183px;text-overflow:clip;" text-anchor="end" transform="translate(0,0)" y="74" opacity="1">Apples</text><text x="47" style="color:#6e6e70;cursor:default;font-size:11px;fill:#6e6e70;width:183px;text-overflow:clip;" text-anchor="end" transform="translate(0,0)" y="128" opacity="1">Oranges</text><text x="47" style="color:#6e6e70;cursor:default;font-size:11px;fill:#6e6e70;width:183px;text-overflow:clip;" text-anchor="end" transform="translate(0,0)" y="183" opacity="1">Pears</text><text x="47" style="color:#6e6e70;cursor:default;font-size:11px;fill:#6e6e70;width:183px;text-overflow:clip;" text-anchor="end" transform="translate(0,0)" y="237" opacity="1">Grapes</text><text x="47" style="color:#6e6e70;cursor:default;font-size:11px;fill:#6e6e70;width:183px;text-overflow:clip;" text-anchor="end" transform="translate(0,0)" y="291" opacity="1">Bananas</text></g><g class="highcharts-axis-labels highcharts-yaxis-labels" ><text x="62" style="color:#6e6e70;cursor:default;font-size:11px;fill:#6e6e70;width:75px;text-overflow:clip;" text-anchor="middle" transform="translate(0,0)" y="332" opacity="1">0</text><text x="147.3" style="color:#6e6e70;cursor:default;font-size:11px;fill:#6e6e70;width:75px;text-overflow:clip;" text-anchor="middle" transform="translate(0,0)" y="332" opacity="1">2</text><text x="232.6" style="color:#6e6e70;cursor:default;font-size:11px;fill:#6e6e70;width:75px;text-overflow:clip;" text-anchor="middle" transform="translate(0,0)" y="332" opacity="1">4</text><text x="318" style="color:#6e6e70;cursor:default;font-size:11px;fill:#6e6e70;width:75px;text-overflow:clip;" text-anchor="middle" transform="translate(0,0)" y="332" opacity="1">6</text><text x="403.3" style="color:#6e6e70;cursor:default;font-size:11px;fill:#6e6e70;width:75px;text-overflow:clip;" text-anchor="middle" transform="translate(0,0)" y="332" opacity="1">8</text><text x="488.6" style="color:#6e6e70;cursor:default;font-size:11px;fill:#6e6e70;width:75px;text-overflow:clip;" text-anchor="middle" transform="translate(0,0)" y="332" opacity="1">10</text><text x="568.5" style="color:#6e6e70;cursor:default;font-size:11px;fill:#6e6e70;width:75px;text-overflow:clip;" text-anchor="middle" transform="translate(0,0)" y="332" opacity="1">12</text></g><g class="highcharts-tooltip"  style="cursor:default;padding:0;white-space:nowrap;" transform="translate(0,-9999)"><path fill="none" d="M 3 0 L 13 0 C 16 0 16 0 16 3 L 16 13 C 16 16 16 16 13 16 L 3 16 C 0 16 0 16 0 13 L 0 3 C 0 0 0 0 3 0"  stroke="black" stroke-opacity="0.0" stroke-width="5" transform="translate(1, 1)"></path><path fill="none" d="M 3 0 L 13 0 C 16 0 16 0 16 3 L 16 13 C 16 16 16 16 13 16 L 3 16 C 0 16 0 16 0 13 L 0 3 C 0 0 0 0 3 0"  stroke="black" stroke-opacity="0.0" stroke-width="3" transform="translate(1, 1)"></path><path fill="none" d="M 3 0 L 13 0 C 16 0 16 0 16 3 L 16 13 C 16 16 16 16 13 16 L 3 16 C 0 16 0 16 0 13 L 0 3 C 0 0 0 0 3 0"  stroke="black" stroke-opacity="0.1" stroke-width="1" transform="translate(1, 1)"></path><path fill="rgb(249, 249, 249)" fill-opacity=" .85" d="M 3 0 L 13 0 C 16 0 16 0 16 3 L 16 13 C 16 16 16 16 13 16 L 3 16 C 0 16 0 16 0 13 L 0 3 C 0 0 0 0 3 0"></path><text x="8"  style="font-size:12px;color:#333333;fill:#333333;" y="20"></text></g></svg>