<svg version="1.1" style="font-family: signika, serif; font-size: 12px; background-image: url(http://www.highcharts.com/samples/graphics/sand.png); background-position: initial initial; background-repeat: initial initial;" xmlns="http://www.w3.org/2000/svg" width="584" height="400" viewBox="0 0 584 400" xmlns:xlink="http://www.w3.org/1999/xlink"><style type="text/css"><![CDATA[@import url(http://fonts.googleapis.com/css?family=Signika:700);]]></style><desc>Created with Highcharts 4.1.7</desc><defs><clipPath id="highcharts-1"><rect x="0" y="0" width="296" height="511"></rect></clipPath></defs><g class="highcharts-grid" ></g><g class="highcharts-grid" ><path fill="none" d="M 62.5 53 L 62.5 349" stroke="#D8D8D8" stroke-width="1"  opacity="1"></path><path fill="none" d="M 119.5 53 L 119.5 349" stroke="#D8D8D8" stroke-width="1"  opacity="1"></path><path fill="none" d="M 176.5 53 L 176.5 349" stroke="#D8D8D8" stroke-width="1"  opacity="1"></path><path fill="none" d="M 232.5 53 L 232.5 349" stroke="#D8D8D8" stroke-width="1"  opacity="1"></path><path fill="none" d="M 289.5 53 L 289.5 349" stroke="#D8D8D8" stroke-width="1"  opacity="1"></path><path fill="none" d="M 346.5 53 L 346.5 349" stroke="#D8D8D8" stroke-width="1"  opacity="1"></path><path fill="none" d="M 403.5 53 L 403.5 349" stroke="#D8D8D8" stroke-width="1"  opacity="1"></path><path fill="none" d="M 459.5 53 L 459.5 349" stroke="#D8D8D8" stroke-width="1"  opacity="1"></path><path fill="none" d="M 516.5 53 L 516.5 349" stroke="#D8D8D8" stroke-width="1"  opacity="1"></path><path fill="none" d="M 574.5 53 L 574.5 349" stroke="#D8D8D8" stroke-width="1"  opacity="1"></path></g><g class="highcharts-axis" ><path fill="none" d="M 63 112.5 L 53 112.5" stroke="#C0D0E0" stroke-width="1" opacity="1"></path><path fill="none" d="M 63 171.5 L 53 171.5" stroke="#C0D0E0" stroke-width="1" opacity="1"></path><path fill="none" d="M 63 231.5 L 53 231.5" stroke="#C0D0E0" stroke-width="1" opacity="1"></path><path fill="none" d="M 63 290.5 L 53 290.5" stroke="#C0D0E0" stroke-width="1" opacity="1"></path><path fill="none" d="M 63 349.5 L 53 349.5" stroke="#C0D0E0" stroke-width="1" opacity="1"></path><path fill="none" d="M 63 52.5 L 53 52.5" stroke="#C0D0E0" stroke-width="1" opacity="1"></path><path fill="none" d="M 62.5 53 L 62.5 349" stroke="#C0D0E0" stroke-width="1"  visibility="visible"></path></g><g class="highcharts-axis" ><text x="574"  text-anchor="end" transform="translate(0,0)" class=" highcharts-yaxis-title" style="color:#707070;fill:#707070;" visibility="visible" y="385"><tspan>Population (millions)</tspan></text></g><g class="highcharts-series-group" ><g class="highcharts-series highcharts-tracker" visibility="visible"  transform="translate(574,349) rotate(90) scale(-1,1) scale(1 1)" style="" width="511" height="296" clip-path="url(#highcharts-1)"><rect x="249.5" y="499.5" width="10" height="12" stroke="black" stroke-width="5" fill="none" rx="0" ry="0"  stroke-opacity="0.0" transform="translate(-1,-1)"></rect><rect x="249.5" y="499.5" width="10" height="12" stroke="black" stroke-width="3" fill="none" rx="0" ry="0"  stroke-opacity="0.0" transform="translate(-1,-1)"></rect><rect x="249.5" y="499.5" width="10" height="12" stroke="black" stroke-width="1" fill="none" rx="0" ry="0"  stroke-opacity="0.1" transform="translate(-1,-1)"></rect><rect x="249.5" y="499.5" width="10" height="12" stroke="#FFFFFF" stroke-width="1" fill="#f45b5b" rx="0" ry="0"></rect><rect x="190.5" y="507.5" width="10" height="4" stroke="black" stroke-width="5" fill="none" rx="0" ry="0"  stroke-opacity="0.0" transform="translate(-1,-1)"></rect><rect x="190.5" y="507.5" width="10" height="4" stroke="black" stroke-width="3" fill="none" rx="0" ry="0"  stroke-opacity="0.0" transform="translate(-1,-1)"></rect><rect x="190.5" y="507.5" width="10" height="4" stroke="black" stroke-width="1" fill="none" rx="0" ry="0"  stroke-opacity="0.1" transform="translate(-1,-1)"></rect><rect x="190.5" y="507.5" width="10" height="4" stroke="#FFFFFF" stroke-width="1" fill="#f45b5b" rx="0" ry="0"></rect><rect x="130.5" y="439.5" width="10" height="72" stroke="black" stroke-width="5" fill="none" rx="0" ry="0"  stroke-opacity="0.0" transform="translate(-1,-1)"></rect><rect x="130.5" y="439.5" width="10" height="72" stroke="black" stroke-width="3" fill="none" rx="0" ry="0"  stroke-opacity="0.0" transform="translate(-1,-1)"></rect><rect x="130.5" y="439.5" width="10" height="72" stroke="black" stroke-width="1" fill="none" rx="0" ry="0"  stroke-opacity="0.1" transform="translate(-1,-1)"></rect><rect x="130.5" y="439.5" width="10" height="72" stroke="#FFFFFF" stroke-width="1" fill="#f45b5b" rx="0" ry="0"></rect><rect x="71.5" y="488.5" width="10" height="23" stroke="black" stroke-width="5" fill="none" rx="0" ry="0"  stroke-opacity="0.0" transform="translate(-1,-1)"></rect><rect x="71.5" y="488.5" width="10" height="23" stroke="black" stroke-width="3" fill="none" rx="0" ry="0"  stroke-opacity="0.0" transform="translate(-1,-1)"></rect><rect x="71.5" y="488.5" width="10" height="23" stroke="black" stroke-width="1" fill="none" rx="0" ry="0"  stroke-opacity="0.1" transform="translate(-1,-1)"></rect><rect x="71.5" y="488.5" width="10" height="23" stroke="#FFFFFF" stroke-width="1" fill="#f45b5b" rx="0" ry="0"></rect><rect x="12.5" y="511.5" width="10" height="0" stroke="black" stroke-width="5" fill="none" rx="0" ry="0"  stroke-opacity="0.0" transform="translate(-1,-1)"></rect><rect x="12.5" y="511.5" width="10" height="0" stroke="black" stroke-width="3" fill="none" rx="0" ry="0"  stroke-opacity="0.0" transform="translate(-1,-1)"></rect><rect x="12.5" y="511.5" width="10" height="0" stroke="black" stroke-width="1" fill="none" rx="0" ry="0"  stroke-opacity="0.1" transform="translate(-1,-1)"></rect><rect x="12.5" y="511.5" width="10" height="0" stroke="#FFFFFF" stroke-width="1" fill="#f45b5b" rx="0" ry="0"></rect></g><g class="highcharts-markers" visibility="visible"  transform="translate(574,349) rotate(90) scale(-1,1) scale(1 1)" width="511" height="296"></g><g class="highcharts-series highcharts-tracker" visibility="visible"  transform="translate(574,349) rotate(90) scale(-1,1) scale(1 1)" style="" width="511" height="296" clip-path="url(#highcharts-1)"><rect x="261.5" y="496.5" width="10" height="15" stroke="black" stroke-width="5" fill="none" rx="0" ry="0"  stroke-opacity="0.0" transform="translate(-1,-1)"></rect><rect x="261.5" y="496.5" width="10" height="15" stroke="black" stroke-width="3" fill="none" rx="0" ry="0"  stroke-opacity="0.0" transform="translate(-1,-1)"></rect><rect x="261.5" y="496.5" width="10" height="15" stroke="black" stroke-width="1" fill="none" rx="0" ry="0"  stroke-opacity="0.1" transform="translate(-1,-1)"></rect><rect x="261.5" y="496.5" width="10" height="15" stroke="#FFFFFF" stroke-width="1" fill="#8085e9" rx="0" ry="0"></rect><rect x="201.5" y="493.5" width="10" height="18" stroke="black" stroke-width="5" fill="none" rx="0" ry="0"  stroke-opacity="0.0" transform="translate(-1,-1)"></rect><rect x="201.5" y="493.5" width="10" height="18" stroke="black" stroke-width="3" fill="none" rx="0" ry="0"  stroke-opacity="0.0" transform="translate(-1,-1)"></rect><rect x="201.5" y="493.5" width="10" height="18" stroke="black" stroke-width="1" fill="none" rx="0" ry="0"  stroke-opacity="0.1" transform="translate(-1,-1)"></rect><rect x="201.5" y="493.5" width="10" height="18" stroke="#FFFFFF" stroke-width="1" fill="#8085e9" rx="0" ry="0"></rect><rect x="142.5" y="403.5" width="10" height="108" stroke="black" stroke-width="5" fill="none" rx="0" ry="0"  stroke-opacity="0.0" transform="translate(-1,-1)"></rect><rect x="142.5" y="403.5" width="10" height="108" stroke="black" stroke-width="3" fill="none" rx="0" ry="0"  stroke-opacity="0.0" transform="translate(-1,-1)"></rect><rect x="142.5" y="403.5" width="10" height="108" stroke="black" stroke-width="1" fill="none" rx="0" ry="0"  stroke-opacity="0.1" transform="translate(-1,-1)"></rect><rect x="142.5" y="403.5" width="10" height="108" stroke="#FFFFFF" stroke-width="1" fill="#8085e9" rx="0" ry="0"></rect><rect x="83.5" y="465.5" width="10" height="46" stroke="black" stroke-width="5" fill="none" rx="0" ry="0"  stroke-opacity="0.0" transform="translate(-1,-1)"></rect><rect x="83.5" y="465.5" width="10" height="46" stroke="black" stroke-width="3" fill="none" rx="0" ry="0"  stroke-opacity="0.0" transform="translate(-1,-1)"></rect><rect x="83.5" y="465.5" width="10" height="46" stroke="black" stroke-width="1" fill="none" rx="0" ry="0"  stroke-opacity="0.1" transform="translate(-1,-1)"></rect><rect x="83.5" y="465.5" width="10" height="46" stroke="#FFFFFF" stroke-width="1" fill="#8085e9" rx="0" ry="0"></rect><rect x="24.5" y="510.5" width="10" height="1" stroke="black" stroke-width="5" fill="none" rx="0" ry="0"  stroke-opacity="0.0" transform="translate(-1,-1)"></rect><rect x="24.5" y="510.5" width="10" height="1" stroke="black" stroke-width="3" fill="none" rx="0" ry="0"  stroke-opacity="0.0" transform="translate(-1,-1)"></rect><rect x="24.5" y="510.5" width="10" height="1" stroke="black" stroke-width="1" fill="none" rx="0" ry="0"  stroke-opacity="0.1" transform="translate(-1,-1)"></rect><rect x="24.5" y="510.5" width="10" height="1" stroke="#FFFFFF" stroke-width="1" fill="#8085e9" rx="0" ry="0"></rect></g><g class="highcharts-markers" visibility="visible"  transform="translate(574,349) rotate(90) scale(-1,1) scale(1 1)" width="511" height="296"></g><g class="highcharts-series highcharts-tracker" visibility="visible"  transform="translate(574,349) rotate(90) scale(-1,1) scale(1 1)" style="" width="511" height="296" clip-path="url(#highcharts-1)"><rect x="273.5" y="392.5" width="10" height="119" stroke="black" stroke-width="5" fill="none" rx="0" ry="0"  stroke-opacity="0.0" transform="translate(-1,-1)"></rect><rect x="273.5" y="392.5" width="10" height="119" stroke="black" stroke-width="3" fill="none" rx="0" ry="0"  stroke-opacity="0.0" transform="translate(-1,-1)"></rect><rect x="273.5" y="392.5" width="10" height="119" stroke="black" stroke-width="1" fill="none" rx="0" ry="0"  stroke-opacity="0.1" transform="translate(-1,-1)"></rect><rect x="273.5" y="392.5" width="10" height="119" stroke="#FFFFFF" stroke-width="1" fill="#8d4654" rx="0" ry="0"></rect><rect x="213.5" y="403.5" width="10" height="108" stroke="black" stroke-width="5" fill="none" rx="0" ry="0"  stroke-opacity="0.0" transform="translate(-1,-1)"></rect><rect x="213.5" y="403.5" width="10" height="108" stroke="black" stroke-width="3" fill="none" rx="0" ry="0"  stroke-opacity="0.0" transform="translate(-1,-1)"></rect><rect x="213.5" y="403.5" width="10" height="108" stroke="black" stroke-width="1" fill="none" rx="0" ry="0"  stroke-opacity="0.1" transform="translate(-1,-1)"></rect><rect x="213.5" y="403.5" width="10" height="108" stroke="#FFFFFF" stroke-width="1" fill="#8d4654" rx="0" ry="0"></rect><rect x="154.5" y="28.5" width="10" height="483" stroke="black" stroke-width="5" fill="none" rx="0" ry="0"  stroke-opacity="0.0" transform="translate(-1,-1)"></rect><rect x="154.5" y="28.5" width="10" height="483" stroke="black" stroke-width="3" fill="none" rx="0" ry="0"  stroke-opacity="0.0" transform="translate(-1,-1)"></rect><rect x="154.5" y="28.5" width="10" height="483" stroke="black" stroke-width="1" fill="none" rx="0" ry="0"  stroke-opacity="0.1" transform="translate(-1,-1)"></rect><rect x="154.5" y="28.5" width="10" height="483" stroke="#FFFFFF" stroke-width="1" fill="#8d4654" rx="0" ry="0"></rect><rect x="95.5" y="427.5" width="10" height="84" stroke="black" stroke-width="5" fill="none" rx="0" ry="0"  stroke-opacity="0.0" transform="translate(-1,-1)"></rect><rect x="95.5" y="427.5" width="10" height="84" stroke="black" stroke-width="3" fill="none" rx="0" ry="0"  stroke-opacity="0.0" transform="translate(-1,-1)"></rect><rect x="95.5" y="427.5" width="10" height="84" stroke="black" stroke-width="1" fill="none" rx="0" ry="0"  stroke-opacity="0.1" transform="translate(-1,-1)"></rect><rect x="95.5" y="427.5" width="10" height="84" stroke="#FFFFFF" stroke-width="1" fill="#8d4654" rx="0" ry="0"></rect><rect x="36.5" y="507.5" width="10" height="4" stroke="black" stroke-width="5" fill="none" rx="0" ry="0"  stroke-opacity="0.0" transform="translate(-1,-1)"></rect><rect x="36.5" y="507.5" width="10" height="4" stroke="black" stroke-width="3" fill="none" rx="0" ry="0"  stroke-opacity="0.0" transform="translate(-1,-1)"></rect><rect x="36.5" y="507.5" width="10" height="4" stroke="black" stroke-width="1" fill="none" rx="0" ry="0"  stroke-opacity="0.1" transform="translate(-1,-1)"></rect><rect x="36.5" y="507.5" width="10" height="4" stroke="#FFFFFF" stroke-width="1" fill="#8d4654" rx="0" ry="0"></rect></g><g class="highcharts-markers" visibility="visible"  transform="translate(574,349) rotate(90) scale(-1,1) scale(1 1)" width="511" height="296"></g></g><text x="292" text-anchor="middle" class="highcharts-title"  style="color:black;font-size:16px;font-weight:bold;fill:black;width:520px;" y="22"><tspan>Historic World Population by Region</tspan></text><text x="292" text-anchor="middle" class="highcharts-subtitle"  style="color:black;fill:black;width:520px;" y="40"><tspan>Source: </tspan><tspan onclick="location.href=&quot;https://en.wikipedia.org/wiki/World_population&quot;" dx="0" style="cursor: pointer;">Wikipedia.org</tspan></text><g class="highcharts-data-labels highcharts-tracker" visibility="visible"  transform="translate(63,53) scale(1 1)" style=""><g  style="" transform="translate(12,31)" opacity="0"><text x="5"  style="font-size: 11px; font-weight: bold; color: rgb(0, 0, 0); fill: #000000; text-shadow: rgb(255, 255, 255) 0px 0px 6px, rgb(255, 255, 255) 0px 0px 3px; text-rendering: geometricprecision;" y="16"><tspan>107</tspan></text></g><g  style="" transform="translate(4,90)" opacity="0"><text x="5"  style="font-size: 11px; font-weight: bold; color: rgb(0, 0, 0); fill: #000000; text-shadow: rgb(255, 255, 255) 0px 0px 6px, rgb(255, 255, 255) 0px 0px 3px; text-rendering: geometricprecision;" y="16"><tspan>31</tspan></text></g><g  style="" transform="translate(72,150)"><text x="5"  style="font-size: 11px; font-weight: bold; color: rgb(0, 0, 0); fill: #000000; text-shadow: rgb(255, 255, 255) 0px 0px 6px, rgb(255, 255, 255) 0px 0px 3px; text-rendering: geometricprecision;" y="16"><tspan>635</tspan></text></g><g  style="" transform="translate(23,209)" opacity="0"><text x="5"  style="font-size: 11px; font-weight: bold; color: rgb(0, 0, 0); fill: #000000; text-shadow: rgb(255, 255, 255) 0px 0px 6px, rgb(255, 255, 255) 0px 0px 3px; text-rendering: geometricprecision;" y="16"><tspan>203</tspan></text></g><g  style="" transform="translate(0,268)"><text x="5"  style="font-size: 11px; font-weight: bold; color: rgb(0, 0, 0); fill: #000000; text-shadow: rgb(255, 255, 255) 0px 0px 6px, rgb(255, 255, 255) 0px 0px 3px; text-rendering: geometricprecision;" y="16"><tspan>2</tspan></text></g></g><g class="highcharts-data-labels highcharts-tracker" visibility="visible"  transform="translate(63,53) scale(1 1)" style=""><g  style="" transform="translate(15,19)"><text x="5"  style="font-size: 11px; font-weight: bold; color: rgb(0, 0, 0); fill: #000000; text-shadow: rgb(255, 255, 255) 0px 0px 6px, rgb(255, 255, 255) 0px 0px 3px; text-rendering: geometricprecision;" y="16"><tspan>133</tspan></text></g><g  style="" transform="translate(18,79)"><text x="5"  style="font-size: 11px; font-weight: bold; color: rgb(0, 0, 0); fill: #000000; text-shadow: rgb(255, 255, 255) 0px 0px 6px, rgb(255, 255, 255) 0px 0px 3px; text-rendering: geometricprecision;" y="16"><tspan>156</tspan></text></g><g  style="" transform="translate(108,138)"><text x="5"  style="font-size: 11px; font-weight: bold; color: rgb(0, 0, 0); fill: #000000; text-shadow: rgb(255, 255, 255) 0px 0px 6px, rgb(255, 255, 255) 0px 0px 3px; text-rendering: geometricprecision;" y="16"><tspan>947</tspan></text></g><g  style="" transform="translate(46,197)"><text x="5"  style="font-size: 11px; font-weight: bold; color: rgb(0, 0, 0); fill: #000000; text-shadow: rgb(255, 255, 255) 0px 0px 6px, rgb(255, 255, 255) 0px 0px 3px; text-rendering: geometricprecision;" y="16"><tspan>408</tspan></text></g><g  style="" transform="translate(1,256)" opacity="0"><text x="5"  style="font-size: 11px; font-weight: bold; color: rgb(0, 0, 0); fill: #000000; text-shadow: rgb(255, 255, 255) 0px 0px 6px, rgb(255, 255, 255) 0px 0px 3px; text-rendering: geometricprecision;" y="16"><tspan>6</tspan></text></g></g><g class="highcharts-data-labels highcharts-tracker" visibility="visible"  transform="translate(63,53) scale(1 1)" style=""><g  style="" transform="translate(119,7)"><text x="5"  style="font-size: 11px; font-weight: bold; color: rgb(0, 0, 0); fill: #000000; text-shadow: rgb(255, 255, 255) 0px 0px 6px, rgb(255, 255, 255) 0px 0px 3px; text-rendering: geometricprecision;" y="16"><tspan>1 052</tspan></text></g><g  style="" transform="translate(108,67)"><text x="5"  style="font-size: 11px; font-weight: bold; color: rgb(0, 0, 0); fill: #000000; text-shadow: rgb(255, 255, 255) 0px 0px 6px, rgb(255, 255, 255) 0px 0px 3px; text-rendering: geometricprecision;" y="16"><tspan>954</tspan></text></g><g  style="" transform="translate(448,126)"><text x="5"  style="font-size: 11px; font-weight: bold; color: rgb(0, 0, 0); fill: #000000; text-shadow: rgb(255, 255, 255) 0px 0px 6px, rgb(255, 255, 255) 0px 0px 3px; text-rendering: geometricprecision;" y="16"><tspan>4 250</tspan></text></g><g  style="" transform="translate(84,185)"><text x="5"  style="font-size: 11px; font-weight: bold; color: rgb(0, 0, 0); fill: #000000; text-shadow: rgb(255, 255, 255) 0px 0px 6px, rgb(255, 255, 255) 0px 0px 3px; text-rendering: geometricprecision;" y="16"><tspan>740</tspan></text></g><g  style="" transform="translate(4,244)"><text x="5"  style="font-size: 11px; font-weight: bold; color: rgb(0, 0, 0); fill: #000000; text-shadow: rgb(255, 255, 255) 0px 0px 6px, rgb(255, 255, 255) 0px 0px 3px; text-rendering: geometricprecision;" y="16"><tspan>38</tspan></text></g></g><g class="highcharts-legend"  transform="translate(440,90)"><rect x="0.5" y="0.5" width="92" height="49" strokeWidth="1" stroke="black" stroke-width="5" fill="none"  stroke-opacity="0.0" transform="translate(1, 1)" visibility="visible"></rect><rect x="0.5" y="0.5" width="92" height="49" strokeWidth="1" stroke="black" stroke-width="3" fill="none"  stroke-opacity="0.0" transform="translate(1, 1)" visibility="visible"></rect><rect x="0.5" y="0.5" width="92" height="49" strokeWidth="1" stroke="black" stroke-width="1" fill="none"  stroke-opacity="0.1" transform="translate(1, 1)" visibility="visible"></rect><rect x="0.5" y="0.5" width="92" height="49" strokeWidth="1" stroke="#909090" stroke-width="1" fill="#FFFFFF" visibility="visible"></rect><g ><g><g class="highcharts-legend-item"  transform="translate(8,3)"><text x="21" style="color:#333333;font-size:13px;font-weight:bold;cursor:pointer;fill:#333333;" text-anchor="start"  y="16"><tspan>Year 1800</tspan></text><rect x="0" y="4" width="16" height="13"  fill="#f45b5b"></rect></g><g class="highcharts-legend-item"  transform="translate(8,16)"><text x="21" y="16" style="color:#333333;font-size:13px;font-weight:bold;cursor:pointer;fill:#333333;" text-anchor="start" ><tspan>Year 1900</tspan></text><rect x="0" y="4" width="16" height="13"  fill="#8085e9"></rect></g><g class="highcharts-legend-item"  transform="translate(8,29)"><text x="21" y="16" style="color:#333333;font-size:13px;font-weight:bold;cursor:pointer;fill:#333333;" text-anchor="start" ><tspan>Year 2012</tspan></text><rect x="0" y="4" width="16" height="13"  fill="#8d4654"></rect></g></g></g></g><g class="highcharts-axis-labels highcharts-xaxis-labels" ><text x="48" style="color:#6e6e70;cursor:default;font-size:11px;fill:#6e6e70;width:183px;text-overflow:clip;" text-anchor="end" transform="translate(0,0)" y="88" opacity="1">Africa</text><text x="48" style="color:#6e6e70;cursor:default;font-size:11px;fill:#6e6e70;width:183px;text-overflow:clip;" text-anchor="end" transform="translate(0,0)" y="147" opacity="1">America</text><text x="48" style="color:#6e6e70;cursor:default;font-size:11px;fill:#6e6e70;width:183px;text-overflow:clip;" text-anchor="end" transform="translate(0,0)" y="207" opacity="1">Asia</text><text x="48" style="color:#6e6e70;cursor:default;font-size:11px;fill:#6e6e70;width:183px;text-overflow:clip;" text-anchor="end" transform="translate(0,0)" y="266" opacity="1">Europe</text><text x="48" style="color:#6e6e70;cursor:default;font-size:11px;fill:#6e6e70;width:183px;text-overflow:clip;" text-anchor="end" transform="translate(0,0)" y="325" opacity="1">Oceania</text></g><g class="highcharts-axis-labels highcharts-yaxis-labels" ><text x="63" style="color:#6e6e70;cursor:default;font-size:11px;fill:#6e6e70;" text-anchor="middle" transform="translate(0,0)" y="368" opacity="1">0</text><text x="119.7" style="color:#6e6e70;cursor:default;font-size:11px;fill:#6e6e70;" text-anchor="middle" transform="translate(0,0)" y="368" opacity="1">500</text><text x="176.5" style="color:#6e6e70;cursor:default;font-size:11px;fill:#6e6e70;" text-anchor="middle" transform="translate(0,0)" y="368" opacity="1">1000</text><text x="233.3" style="color:#6e6e70;cursor:default;font-size:11px;fill:#6e6e70;" text-anchor="middle" transform="translate(0,0)" y="368" opacity="1">1500</text><text x="290.1" style="color:#6e6e70;cursor:default;font-size:11px;fill:#6e6e70;" text-anchor="middle" transform="translate(0,0)" y="368" opacity="1">2000</text><text x="346.8" style="color:#6e6e70;cursor:default;font-size:11px;fill:#6e6e70;" text-anchor="middle" transform="translate(0,0)" y="368" opacity="1">2500</text><text x="403.6" style="color:#6e6e70;cursor:default;font-size:11px;fill:#6e6e70;" text-anchor="middle" transform="translate(0,0)" y="368" opacity="1">3000</text><text x="460.4" style="color:#6e6e70;cursor:default;font-size:11px;fill:#6e6e70;" text-anchor="middle" transform="translate(0,0)" y="368" opacity="1">3500</text><text x="517.2" style="color:#6e6e70;cursor:default;font-size:11px;fill:#6e6e70;" text-anchor="middle" transform="translate(0,0)" y="368" opacity="1">4000</text><text x="563" style="color:#6e6e70;cursor:default;font-size:11px;fill:#6e6e70;" text-anchor="middle" transform="translate(0,0)" y="368" opacity="1">4500</text></g><g class="highcharts-tooltip"  style="cursor:default;padding:0;white-space:nowrap;" transform="translate(0,-9999)"><path fill="none" d="M 3 0 L 13 0 C 16 0 16 0 16 3 L 16 13 C 16 16 16 16 13 16 L 3 16 C 0 16 0 16 0 13 L 0 3 C 0 0 0 0 3 0"  stroke="black" stroke-opacity="0.0" stroke-width="5" transform="translate(1, 1)"></path><path fill="none" d="M 3 0 L 13 0 C 16 0 16 0 16 3 L 16 13 C 16 16 16 16 13 16 L 3 16 C 0 16 0 16 0 13 L 0 3 C 0 0 0 0 3 0"  stroke="black" stroke-opacity="0.0" stroke-width="3" transform="translate(1, 1)"></path><path fill="none" d="M 3 0 L 13 0 C 16 0 16 0 16 3 L 16 13 C 16 16 16 16 13 16 L 3 16 C 0 16 0 16 0 13 L 0 3 C 0 0 0 0 3 0"  stroke="black" stroke-opacity="0.1" stroke-width="1" transform="translate(1, 1)"></path><path fill="rgb(249, 249, 249)" fill-opacity=" .85" d="M 3 0 L 13 0 C 16 0 16 0 16 3 L 16 13 C 16 16 16 16 13 16 L 3 16 C 0 16 0 16 0 13 L 0 3 C 0 0 0 0 3 0"></path><text x="8"  style="font-size:12px;color:#333333;fill:#333333;" y="20"></text></g></svg>