<svg version="1.1" style="font-family:&quot;lucida grande&quot;, &quot;lucida sans unicode&quot;, arial, helvetica, sans-serif;font-size:12px;" xmlns="http://www.w3.org/2000/svg" width="584" height="400" viewBox="0 0 584 400"><desc>Created with Highstock 2.1.7</desc><defs><clipPath id="highcharts-1"><rect x="0" y="0" width="564" height="206"></rect></clipPath><clipPath id="highcharts-2"><rect x="-99" y="-79" width="663" height="400"></rect></clipPath><clipPath id="highcharts-3"><rect x="0" y="0" width="564" height="206"></rect></clipPath><clipPath id="highcharts-4"><rect x="-99" y="-79" width="663" height="400"></rect></clipPath><clipPath id="highcharts-5"><rect x="0" y="0" width="564" height="40"></rect></clipPath></defs><rect x="0" y="0" width="584" height="400" strokeWidth="0" fill="#FFFFFF" class=" highcharts-background"></rect><g class="highcharts-scrollbar" transform="translate(10,372)"><rect x="0" y="-0.5" fill="#eeeeee" stroke="#eeeeee" stroke-width="1" rx="0" ry="0" height="14" width="564"></rect><rect y="-0.5" height="14" fill="#bfc8d1" stroke="#bfc8d1" stroke-width="1" rx="0" ry="0" x="531.5" width="18"></rect><path fill="none" stroke="#666" stroke-width="1" visibility="visible" d="M 537 3.5 L 537 9.3 M 540 3.5 L 540 9.3 M 543 3.5 L 543 9.3"></path><g><rect x="-0.5" y="-0.5" width="14" height="14" strokeWidth="1" stroke="#bbb" stroke-width="1" fill="#ebe7e8"></rect><path fill="#666" d="M 8 4 L 8 10 5 7"></path></g><g transform="translate(550,0)"><rect x="-0.5" y="-0.5" width="14" height="14" strokeWidth="1" stroke="#bbb" stroke-width="1" fill="#ebe7e8"></rect><path fill="#666" d="M 6 4 L 6 10 9 7"></path></g></g><g class="highcharts-range-selector-buttons"><text x="10" y="59" style="color:#666;fill:#666;">Zoom</text><g class="highcharts-button"  states="[object Object]" style="cursor:pointer;text-align:center;" transform="translate(48,44)"><rect x="0" y="0" width="32" height="22" strokeWidth="0" fill="#f7f7f7" rx="0" ry="0"></rect><text x="6.6"  style="font-weight:normal;color:#444;fill:#444;" y="14">1m</text></g><g class="highcharts-button"  states="[object Object]" style="cursor:pointer;text-align:center;" transform="translate(85,44)"><rect x="0" y="0" width="32" height="22" strokeWidth="0" fill="#e7f0f9" rx="0" ry="0"></rect><text x="6.6"  style="font-weight:bold;color:black;fill:black;" y="14">3m</text></g><g class="highcharts-button"  states="[object Object]" style="cursor:pointer;text-align:center;" transform="translate(122,44)"><rect x="0" y="0" width="32" height="22" strokeWidth="0" fill="#f7f7f7" rx="0" ry="0"></rect><text x="6.6"  style="font-weight:normal;color:#444;fill:#444;" y="14">6m</text></g><g class="highcharts-button"  states="[object Object]" style="cursor:pointer;text-align:center;" transform="translate(159,44)"><rect x="0" y="0" width="32" height="22" strokeWidth="0" fill="#f7f7f7" rx="0" ry="0"></rect><text x="3.9"  style="font-weight:normal;color:#444;fill:#444;" y="14">YTD</text></g><g class="highcharts-button"  states="[object Object]" style="cursor:pointer;text-align:center;" transform="translate(196,44)"><rect x="0" y="0" width="32" height="22" strokeWidth="0" fill="#f7f7f7" rx="0" ry="0"></rect><text x="9.0"  style="font-weight:normal;color:#444;fill:#444;" y="14">1y</text></g><g class="highcharts-button"  states="[object Object]" style="cursor:pointer;text-align:center;" transform="translate(233,44)"><rect x="0" y="0" width="32" height="22" strokeWidth="0" fill="#f7f7f7" rx="0" ry="0"></rect><text x="8.3"  style="font-weight:normal;color:#444;fill:#444;" y="14">All</text></g></g><g class="highcharts-input-group" transform="translate(313,44)" visibility="visible"><g style="fill:#666;" transform="translate(0,0)"><text x="2"  style="font-size:12px;font-family:&quot;lucida grande&quot;, &quot;lucida sans unicode&quot;, arial, helvetica, sans-serif;color:#666;fill:#666;" y="14">From</text></g><g style="text-align:center;" transform="translate(39,0)"><rect x="0.5" y="0.5" width="94" height="21" strokeWidth="1" fill="none" stroke="silver" stroke-width="1"></rect><text x="12"  style="font-size:12px;font-family:&quot;lucida grande&quot;, &quot;lucida sans unicode&quot;, arial, helvetica, sans-serif;color:#444;fill:#444;" y="14"><tspan>Apr 2, 2015</tspan></text></g><g style="fill:#666;" transform="translate(143,0)"><text x="2"  style="font-size:12px;font-family:&quot;lucida grande&quot;, &quot;lucida sans unicode&quot;, arial, helvetica, sans-serif;color:#666;fill:#666;" y="14">To</text></g><g style="text-align:center;" transform="translate(167,0)"><rect x="0.5" y="0.5" width="94" height="21" strokeWidth="1" fill="none" stroke="silver" stroke-width="1"></rect><text x="15.0"  style="font-size:12px;font-family:&quot;lucida grande&quot;, &quot;lucida sans unicode&quot;, arial, helvetica, sans-serif;color:#444;fill:#444;" y="14"><tspan>Jul 1, 2015</tspan></text></g></g><g class="highcharts-grid" ></g><g class="highcharts-grid" ><path fill="none" d="M 138.5 331 L 138.5 371" stroke="#EEE" stroke-width="1"  opacity="1"></path><path fill="none" d="M 291.5 331 L 291.5 371" stroke="#EEE" stroke-width="1"  opacity="1"></path><path fill="none" d="M 444.5 331 L 444.5 371" stroke="#EEE" stroke-width="1"  opacity="1"></path></g><g class="highcharts-grid" ><path fill="none" d="M 10 285.5 L 574 285.5" stroke="#D8D8D8" stroke-width="1"  opacity="1"></path><path fill="none" d="M 10 244.5 L 574 244.5" stroke="#D8D8D8" stroke-width="1"  opacity="1"></path><path fill="none" d="M 10 203.5 L 574 203.5" stroke="#D8D8D8" stroke-width="1"  opacity="1"></path><path fill="none" d="M 10 161.5 L 574 161.5" stroke="#D8D8D8" stroke-width="1"  opacity="1"></path><path fill="none" d="M 10 120.5 L 574 120.5" stroke="#D8D8D8" stroke-width="1"  opacity="1"></path><path fill="none" d="M 10 78.5 L 574 78.5" stroke="#D8D8D8" stroke-width="1"  opacity="1"></path></g><g class="highcharts-grid" ></g><g class="highcharts-axis" ><path fill="none" d="M 64.5 285 L 64.5 295" stroke="#C0D0E0" stroke-width="1" opacity="1"></path><path fill="none" d="M 155.5 285 L 155.5 295" stroke="#C0D0E0" stroke-width="1" opacity="1"></path><path fill="none" d="M 246.5 285 L 246.5 295" stroke="#C0D0E0" stroke-width="1" opacity="1"></path><path fill="none" d="M 334.5 285 L 334.5 295" stroke="#C0D0E0" stroke-width="1" opacity="1"></path><path fill="none" d="M 418.5 285 L 418.5 295" stroke="#C0D0E0" stroke-width="1" opacity="1"></path><path fill="none" d="M 509.5 285 L 509.5 295" stroke="#C0D0E0" stroke-width="1" opacity="1"></path><path fill="none" d="M 10 285.5 L 574 285.5" stroke="#C0D0E0" stroke-width="1"  visibility="visible"></path></g><g class="highcharts-axis" ></g><g class="highcharts-axis" ></g><g class="highcharts-axis" ></g><g class="highcharts-series-group" ><g class="highcharts-series" visibility="visible"  transform="translate(10,79) scale(1 1)" clip-path="url(#highcharts-3)"><path fill="none" d="M -9.0 177.1 L 0 159.5 L 9.0 126.0 L 18.1 148.1 L 27.2 154.9 L 36.3 139.0 L 45.4 130.1 L 54.5 134.3 L 63.6 143.3 L 72.7 135.4 L 81.8 145.5 L 90.9 168.9 L 100.0 121.9 L 109.1 133.3 L 118.2 105.1 L 127.3 87.8 L 136.4 77.7 L 145.5 38.7 L 154.6 73.1 L 163.7 104.8 L 172.8 162.3 L 181.9 99.7 L 191.0 103.8 L 200.1 151.6 L 209.2 164.6 L 218.3 160.5 L 227.4 121.6 L 236.5 143.0 L 245.6 150.6 L 254.7 148.1 L 263.8 99.7 L 272.9 102.6 L 282 79.2 L 291.0 81.2 L 300.1 81.4 L 309.2 59.4 L 318.3 40.5 L 327.4 88.6 L 336.5 48.7 L 345.6 53.0 L 354.7 77.7 L 363.8 73.5 L 372.9 83.0 L 382.0 80.4 L 391.1 92.9 L 400.2 104.6 L 409.3 118.6 L 418.4 124.9 L 427.5 100.8 L 436.6 105.6 L 445.7 129.0 L 454.8 133.1 L 463.9 121.9 L 473.0 126.8 L 482.1 117.3 L 491.2 138.4 L 500.3 121.7 L 509.4 131.3 L 518.5 113.5 L 527.6 123.6 L 536.7 135.9 L 545.8 172.5 L 554.9 157.8 L 564 138.4" stroke="#7cb5ec" stroke-width="2"  stroke-linejoin="round" stroke-linecap="round"></path><path fill="none" d="M -19.0 177.1 L -9.0 177.1 L 0 159.5 L 9.0 126.0 L 18.1 148.1 L 27.2 154.9 L 36.3 139.0 L 45.4 130.1 L 54.5 134.3 L 63.6 143.3 L 72.7 135.4 L 81.8 145.5 L 90.9 168.9 L 100.0 121.9 L 109.1 133.3 L 118.2 105.1 L 127.3 87.8 L 136.4 77.7 L 145.5 38.7 L 154.6 73.1 L 163.7 104.8 L 172.8 162.3 L 181.9 99.7 L 191.0 103.8 L 200.1 151.6 L 209.2 164.6 L 218.3 160.5 L 227.4 121.6 L 236.5 143.0 L 245.6 150.6 L 254.7 148.1 L 263.8 99.7 L 272.9 102.6 L 282 79.2 L 291.0 81.2 L 300.1 81.4 L 309.2 59.4 L 318.3 40.5 L 327.4 88.6 L 336.5 48.7 L 345.6 53.0 L 354.7 77.7 L 363.8 73.5 L 372.9 83.0 L 382.0 80.4 L 391.1 92.9 L 400.2 104.6 L 409.3 118.6 L 418.4 124.9 L 427.5 100.8 L 436.6 105.6 L 445.7 129.0 L 454.8 133.1 L 463.9 121.9 L 473.0 126.8 L 482.1 117.3 L 491.2 138.4 L 500.3 121.7 L 509.4 131.3 L 518.5 113.5 L 527.6 123.6 L 536.7 135.9 L 545.8 172.5 L 554.9 157.8 L 564 138.4 L 574 138.4" stroke-linejoin="round" visibility="visible" stroke="rgb(192,192,192)" stroke-opacity="0.0" stroke-width="22"  class=" highcharts-tracker" style=""></path></g><g class="highcharts-markers highcharts-tracker" visibility="visible"  transform="translate(10,79) scale(1 1)" clip-path="url(#highcharts-2)" style=""></g><g class="highcharts-series" visibility="visible"  transform="translate(24,331) scale(1 1)" clip-path="url(#highcharts-5)"><path fill="rgb(69,114,167)" fill-opacity="0.0" d="M 0 33.2 C 0 33.2 0.8 33.0 1.4 33.0 C 2.0 33.0 2.3 33.1 2.9 33.2 C 3.5 33.3 3.8 33.4 4.4 33.5 C 4.9 33.6 5.2 33.7 5.8 33.7 C 6.4 33.7 6.7 33.7 7.3 33.5 C 7.9 33.3 8.2 32.9 8.8 32.9 C 9.3 32.9 9.6 32.9 10.2 33.0 C 10.8 33.0 11.1 33.0 11.7 33.1 C 12.3 33.2 12.6 33.3 13.2 33.4 C 13.8 33.6 14.0 33.7 14.6 33.9 C 15.2 34.1 15.5 34.3 16.1 34.5 C 16.7 34.7 17.0 34.6 17.6 34.8 C 18.2 35.1 18.5 35.5 19.0 35.8 C 19.6 36.1 19.9 36.3 20.5 36.3 C 21.1 36.3 21.4 35.9 22.0 35.9 C 22.6 35.9 22.9 36.1 23.4 36.1 C 24.0 36.1 24.3 35.9 24.9 35.9 C 25.5 35.8 25.8 35.8 26.4 35.8 C 27.0 35.8 27.3 36.1 27.9 36.3 C 28.4 36.4 28.7 36.6 29.3 36.6 C 29.9 36.6 30.2 36.3 30.8 36.3 C 31.4 36.3 31.7 36.3 32.3 36.3 C 32.8 36.3 33.1 36.1 33.7 36.1 C 34.3 36.1 34.6 36.2 35.2 36.3 C 35.8 36.4 36.1 36.6 36.7 36.6 C 37.2 36.6 37.5 36.6 38.1 36.5 C 38.7 36.5 39.0 36.3 39.6 36.3 C 40.2 36.3 40.5 36.5 41.1 36.6 C 41.7 36.6 41.9 36.6 42.5 36.6 C 43.1 36.6 43.4 36.4 44.0 36.3 C 44.6 36.2 44.9 36.3 45.5 36.2 C 46.1 36.1 46.4 36.0 46.9 36.0 C 47.5 36.0 47.8 36.2 48.4 36.3 C 49.0 36.4 49.3 36.4 49.9 36.4 C 50.5 36.5 50.8 36.5 51.3 36.5 C 51.9 36.5 52.2 36.4 52.8 36.3 C 53.4 36.2 53.7 36.1 54.3 36.0 C 54.9 35.9 55.2 35.8 55.8 35.7 C 56.3 35.6 56.6 35.7 57.2 35.6 C 57.8 35.5 58.1 35.4 58.7 35.3 C 59.3 35.2 59.6 35.2 60.2 35.2 C 60.7 35.1 61.0 35.1 61.6 35.1 C 62.2 35.0 62.5 35.0 63.1 35.0 C 63.7 34.9 64.0 34.7 64.6 34.7 C 65.2 34.7 65.4 35.0 66.0 35.0 C 66.6 35.0 66.9 35.0 67.5 35.0 C 68.1 34.9 68.4 34.8 69.0 34.6 C 69.6 34.5 69.9 34.3 70.4 34.3 C 71.0 34.3 71.3 34.3 71.9 34.4 C 72.5 34.4 72.8 34.5 73.4 34.5 C 74.0 34.5 74.3 34.5 74.8 34.5 C 75.4 34.4 75.7 34.3 76.3 34.3 C 76.9 34.3 77.2 34.5 77.8 34.5 C 78.4 34.5 78.7 34.3 79.2 34.1 C 79.8 34.0 80.1 33.9 80.7 33.8 C 81.3 33.6 81.6 33.6 82.2 33.5 C 82.8 33.5 83.1 33.4 83.7 33.4 C 84.2 33.4 84.5 33.4 85.1 33.4 C 85.7 33.4 86.0 33.4 86.6 33.4 C 87.2 33.4 87.5 33.2 88.1 33.2 C 88.6 33.2 88.9 33.3 89.5 33.3 C 90.1 33.3 90.4 33.2 91.0 33.1 C 91.6 33.0 91.9 32.9 92.5 32.8 C 93.1 32.7 93.3 32.6 93.9 32.6 C 94.5 32.6 94.8 32.6 95.4 32.6 C 96.0 32.6 96.3 32.5 96.9 32.4 C 97.5 32.4 97.8 32.4 98.3 32.4 C 98.9 32.3 99.2 32.0 99.8 32.0 C 100.4 32.0 100.7 32.1 101.3 32.2 C 101.9 32.2 102.2 32.3 102.7 32.3 C 103.3 32.3 103.6 31.9 104.2 31.9 C 104.8 31.8 105.1 31.8 105.7 31.8 C 106.3 31.8 106.6 31.8 107.1 31.8 C 107.7 31.8 108.0 32.0 108.6 32.1 C 109.2 32.2 109.5 32.2 110.1 32.2 C 110.7 32.2 111.0 32.2 111.6 32.2 C 112.1 32.2 112.4 32.0 113.0 31.9 C 113.6 31.8 113.9 31.6 114.5 31.6 C 115.1 31.5 115.4 31.5 116.0 31.5 C 116.5 31.5 116.8 31.6 117.4 31.6 C 118.0 31.7 118.3 31.6 118.9 31.7 C 119.5 31.7 119.8 31.8 120.4 31.9 C 121.0 32.0 121.2 32.2 121.8 32.2 C 122.4 32.2 122.7 32.2 123.3 32.1 C 123.9 32.1 124.2 31.9 124.8 31.9 C 125.4 31.9 125.7 31.9 126.2 31.9 C 126.8 31.9 127.1 31.7 127.7 31.5 C 128.3 31.3 128.6 31.0 129.2 31.0 C 129.8 31.0 130.1 31.0 130.6 31.0 C 131.2 31.0 131.5 30.9 132.1 30.9 C 132.7 30.8 133.0 30.7 133.6 30.6 C 134.2 30.5 134.5 30.5 135.1 30.4 C 135.6 30.3 135.9 30.3 136.5 30.2 C 137.1 30.0 137.4 29.8 138.0 29.7 C 138.6 29.5 138.9 29.4 139.5 29.4 C 140.0 29.4 140.3 29.9 140.9 29.9 C 141.5 29.9 141.8 29.7 142.4 29.7 C 143.0 29.7 143.3 30.1 143.9 30.1 C 144.4 30.1 144.7 30.1 145.3 30.0 C 145.9 29.9 146.2 29.5 146.8 29.5 C 147.4 29.5 147.7 30.0 148.3 30.0 C 148.9 30.0 149.1 29.5 149.7 29.4 C 150.3 29.2 150.6 29.2 151.2 29.2 C 151.8 29.2 152.1 29.8 152.7 29.8 C 153.3 29.8 153.6 29.7 154.1 29.7 C 154.7 29.7 155.0 29.9 155.6 29.9 C 156.2 29.9 156.5 29.9 157.1 29.8 C 157.7 29.8 158.0 29.6 158.5 29.6 C 159.1 29.5 159.4 29.5 160.0 29.5 C 160.6 29.5 160.9 29.7 161.5 29.8 C 162.1 29.9 162.4 29.9 163.0 30.0 C 163.5 30.1 163.8 30.3 164.4 30.3 C 165.0 30.3 165.3 30.2 165.9 30.0 C 166.5 29.9 166.8 29.7 167.4 29.5 C 167.9 29.3 168.2 29.3 168.8 29.1 C 169.4 28.9 169.7 28.5 170.3 28.5 C 170.9 28.5 171.2 28.5 171.8 28.5 C 172.4 28.5 172.6 28.5 173.2 28.5 C 173.8 28.4 174.1 28.1 174.7 27.9 C 175.3 27.7 175.6 27.5 176.2 27.5 C 176.8 27.5 177.1 27.7 177.6 27.7 C 178.2 27.7 178.5 27.6 179.1 27.5 C 179.7 27.4 180.0 27.4 180.6 27.4 C 181.2 27.4 181.5 27.8 182.0 27.8 C 182.6 27.8 182.9 27.6 183.5 27.5 C 184.1 27.4 184.4 27.4 185.0 27.3 C 185.6 27.3 185.9 27.2 186.4 27.2 C 187.0 27.1 187.3 27.2 187.9 27.1 C 188.5 27.1 188.8 27.0 189.4 27.0 C 190.0 27.0 190.3 27.0 190.9 27.0 C 191.4 27.0 191.7 26.8 192.3 26.7 C 192.9 26.5 193.2 26.2 193.8 26.2 C 194.4 26.2 194.7 26.6 195.3 26.6 C 195.8 26.6 196.1 26.4 196.7 26.4 C 197.3 26.3 197.6 26.3 198.2 26.2 C 198.8 26.1 199.1 25.9 199.7 25.8 C 200.3 25.6 200.5 25.6 201.1 25.6 C 201.7 25.6 202.0 26.3 202.6 26.3 C 203.2 26.3 203.5 25.8 204.1 25.8 C 204.7 25.8 205.0 25.8 205.5 25.9 C 206.1 26.0 206.4 26.4 207.0 26.4 C 207.6 26.4 207.9 26.3 208.5 26.2 C 209.1 26.2 209.4 26.0 209.9 26.0 C 210.5 26.0 210.8 26.3 211.4 26.4 C 212.0 26.6 212.3 26.7 212.9 26.7 C 213.5 26.7 213.8 26.5 214.3 26.3 C 214.9 26.2 215.2 26.0 215.8 26.0 C 216.4 26.0 216.7 26.0 217.3 26.1 C 217.9 26.1 218.2 26.1 218.8 26.1 C 219.3 26.2 219.6 26.4 220.2 26.5 C 220.8 26.6 221.1 26.6 221.7 26.6 C 222.3 26.6 222.6 26.1 223.2 26.1 C 223.7 26.1 224.0 26.5 224.6 26.7 C 225.2 26.9 225.5 26.9 226.1 26.9 C 226.7 27.0 227.0 27.0 227.6 27.0 C 228.2 27.0 228.4 26.8 229.0 26.5 C 229.6 26.3 229.9 25.9 230.5 25.8 C 231.1 25.7 231.4 25.8 232.0 25.7 C 232.6 25.5 232.9 24.9 233.4 24.6 C 234.0 24.3 234.3 24.2 234.9 24.2 C 235.5 24.2 235.8 24.3 236.4 24.5 C 237.0 24.8 237.3 25.2 237.8 25.2 C 238.4 25.2 238.7 25.0 239.3 25.0 C 239.9 25.0 240.2 25.1 240.8 25.1 C 241.4 25.1 241.7 24.6 242.3 24.6 C 242.8 24.6 243.1 24.7 243.7 24.7 C 244.3 24.7 244.6 24.6 245.2 24.4 C 245.8 24.2 246.1 23.6 246.7 23.6 C 247.2 23.6 247.5 23.9 248.1 24.2 C 248.7 24.5 249.0 25.0 249.6 25.0 C 250.2 25.0 250.5 23.9 251.1 23.8 C 251.6 23.7 251.9 23.7 252.5 23.7 C 253.1 23.7 253.4 23.8 254.0 23.9 C 254.6 23.9 254.9 23.9 255.5 24.0 C 256.1 24.0 256.3 24.1 256.9 24.2 C 257.5 24.4 257.8 24.5 258.4 24.7 C 259.0 24.9 259.3 25.2 259.9 25.2 C 260.5 25.2 260.8 24.9 261.3 24.7 C 261.9 24.5 262.2 24.3 262.8 24.3 C 263.4 24.3 263.7 24.6 264.3 24.6 C 264.9 24.6 265.2 24.3 265.7 24.2 C 266.3 24.0 266.6 23.9 267.2 23.8 C 267.8 23.6 268.1 23.5 268.7 23.3 C 269.3 23.2 269.6 23.2 270.2 23.1 C 270.7 23.0 271.0 23.1 271.6 23.0 C 272.2 22.8 272.5 22.7 273.1 22.5 C 273.7 22.2 274.0 22.1 274.6 21.7 C 275.1 21.4 275.4 21.2 276.0 20.8 C 276.6 20.4 276.9 20.2 277.5 19.9 C 278.1 19.6 278.4 19.6 279.0 19.3 C 279.6 19.0 279.8 18.4 280.4 18.4 C 281.0 18.4 281.3 18.5 281.9 18.5 C 282.5 18.5 282.8 17.4 283.4 16.9 C 284.0 16.4 284.3 16.2 284.8 15.9 C 285.4 15.7 285.7 15.8 286.3 15.6 C 286.9 15.4 287.2 14.9 287.8 14.9 C 288.4 14.9 288.7 14.9 289.2 15.0 C 289.8 15.1 290.1 16.2 290.7 16.3 C 291.3 16.3 291.6 16.3 292.2 16.3 C 292.8 16.4 293.1 16.6 293.6 16.8 C 294.2 16.9 294.5 16.9 295.1 17.2 C 295.7 17.5 296.0 18.2 296.6 18.2 C 297.2 18.2 297.5 17.7 298.1 17.4 C 298.6 17.2 298.9 17.1 299.5 17.1 C 300.1 17.1 300.4 17.2 301.0 17.2 C 301.6 17.2 301.9 17.2 302.5 17.0 C 303.0 16.9 303.3 16.6 303.9 16.6 C 304.5 16.6 304.8 17.0 305.4 17.0 C 306.0 17.0 306.3 16.1 306.9 15.9 C 307.5 15.7 307.7 15.8 308.3 15.7 C 308.9 15.7 309.2 15.7 309.8 15.7 C 310.4 15.7 310.7 16.4 311.3 16.4 C 311.9 16.4 312.2 15.9 312.7 15.7 C 313.3 15.4 313.6 15.3 314.2 15.1 C 314.8 14.9 315.1 14.9 315.7 14.5 C 316.3 14.2 316.6 13.7 317.1 13.4 C 317.7 13.1 318.0 13.2 318.6 13.1 C 319.2 13.0 319.5 12.9 320.1 12.9 C 320.7 12.9 321.0 13.0 321.5 13.0 C 322.1 13.0 322.4 11.9 323.0 11.9 C 323.6 11.9 323.9 12.6 324.5 12.9 C 325.1 13.2 325.4 13.1 326.0 13.5 C 326.5 13.8 326.8 14.6 327.4 14.6 C 328.0 14.6 328.3 14.6 328.9 14.6 C 329.5 14.6 329.8 15.0 330.4 15.3 C 330.9 15.7 331.2 16.0 331.8 16.4 C 332.4 16.8 332.7 17.0 333.3 17.5 C 333.9 17.9 334.2 18.6 334.8 18.6 C 335.4 18.6 335.6 17.8 336.2 17.4 C 336.8 17.0 337.1 16.5 337.7 16.5 C 338.3 16.5 338.6 17.3 339.2 17.7 C 339.8 18.2 340.1 18.5 340.6 18.8 C 341.2 19.0 341.5 18.9 342.1 19.0 C 342.7 19.1 343.0 19.4 343.6 19.4 C 344.2 19.4 344.5 18.5 345.0 18.5 C 345.6 18.5 345.9 18.8 346.5 19.1 C 347.1 19.4 347.4 19.6 348.0 20.0 C 348.6 20.4 348.9 20.5 349.5 20.9 C 350.0 21.2 350.3 21.8 350.9 21.8 C 351.5 21.8 351.8 21.7 352.4 21.6 C 353.0 21.5 353.3 21.2 353.9 21.2 C 354.4 21.2 354.7 21.7 355.3 21.9 C 355.9 22.1 356.2 22.1 356.8 22.3 C 357.4 22.5 357.7 22.9 358.3 22.9 C 358.8 22.9 359.1 22.8 359.7 22.6 C 360.3 22.4 360.6 21.8 361.2 21.8 C 361.8 21.8 362.1 21.8 362.7 21.8 C 363.3 21.8 363.5 22.8 364.1 22.8 C 364.7 22.8 365.0 22.7 365.6 22.7 C 366.2 22.7 366.5 23.7 367.1 23.7 C 367.7 23.7 368.0 23.7 368.5 23.7 C 369.1 23.7 369.4 22.7 370.0 22.3 C 370.6 21.9 370.9 21.6 371.5 21.6 C 372.1 21.6 372.4 22.4 372.9 22.4 C 373.5 22.4 373.8 22.3 374.4 22.3 C 375.0 22.2 375.3 22.1 375.9 22.1 C 376.5 22.1 376.8 22.1 377.4 22.2 C 377.9 22.2 378.2 22.4 378.8 22.6 C 379.4 22.7 379.7 22.7 380.3 23.0 C 380.9 23.3 381.2 24.0 381.8 24.0 C 382.3 24.0 382.6 23.5 383.2 23.3 C 383.8 23.1 384.1 23.2 384.7 23.1 C 385.3 23.0 385.6 22.9 386.2 22.8 C 386.8 22.7 387.0 22.8 387.6 22.7 C 388.2 22.5 388.5 22.0 389.1 21.8 C 389.7 21.5 390.0 21.7 390.6 21.4 C 391.2 21.2 391.5 20.6 392.0 20.3 C 392.6 20.0 392.9 19.8 393.5 19.8 C 394.1 19.8 394.4 20.3 395.0 20.3 C 395.6 20.3 395.9 20.2 396.4 20.2 C 397.0 20.2 397.3 20.5 397.9 20.7 C 398.5 21.0 398.8 21.5 399.4 21.5 C 400.0 21.5 400.3 20.5 400.8 20.5 C 401.4 20.5 401.7 20.6 402.3 20.6 C 402.9 20.6 403.2 20.6 403.8 20.5 C 404.4 20.3 404.7 20.2 405.3 19.9 C 405.8 19.6 406.1 19.0 406.7 19.0 C 407.3 19.0 407.6 19.0 408.2 19.1 C 408.8 19.1 409.1 19.1 409.7 19.1 C 410.2 19.1 410.5 19.1 411.1 19.1 C 411.7 19.1 412.0 19.2 412.6 19.2 C 413.2 19.2 413.5 18.7 414.1 18.4 C 414.7 18.0 414.9 17.5 415.5 17.5 C 416.1 17.5 416.4 17.5 417.0 17.5 C 417.6 17.5 417.9 17.9 418.5 17.9 C 419.1 17.9 419.4 17.3 419.9 17.3 C 420.5 17.3 420.8 17.7 421.4 17.9 C 422.0 18.1 422.3 18.4 422.9 18.4 C 423.5 18.4 423.8 18.2 424.3 18.1 C 424.9 18.0 425.2 17.9 425.8 17.9 C 426.4 17.9 426.7 19.5 427.3 19.5 C 427.9 19.5 428.2 19.5 428.7 19.5 C 429.3 19.5 429.6 18.5 430.2 18.5 C 430.8 18.5 431.1 18.5 431.7 18.6 C 432.3 18.7 432.6 19.0 433.2 19.0 C 433.7 19.0 434.0 18.8 434.6 18.7 C 435.2 18.7 435.5 18.7 436.1 18.7 C 436.7 18.7 437.0 18.8 437.6 18.8 C 438.1 18.8 438.4 18.4 439.0 18.4 C 439.6 18.4 439.9 18.4 440.5 18.4 C 441.1 18.5 441.4 18.9 442.0 19.0 C 442.6 19.1 442.8 19.1 443.4 19.1 C 444.0 19.1 444.3 18.7 444.9 18.1 C 445.5 17.6 445.8 16.3 446.4 16.3 C 447.0 16.3 447.3 16.3 447.8 16.3 C 448.4 16.3 448.7 16.3 449.3 16.2 C 449.9 16.2 450.2 16.0 450.8 15.7 C 451.4 15.4 451.7 15.0 452.2 14.8 C 452.8 14.5 453.1 14.5 453.7 14.3 C 454.3 14.2 454.6 13.9 455.2 13.9 C 455.8 13.9 456.1 14.1 456.7 14.2 C 457.2 14.4 457.5 14.5 458.1 14.5 C 458.7 14.5 459.0 14.0 459.6 13.8 C 460.2 13.5 460.5 13.2 461.1 13.2 C 461.6 13.2 461.9 13.4 462.5 13.4 C 463.1 13.4 463.4 13.2 464.0 13.0 C 464.6 12.9 464.9 12.7 465.5 12.7 C 466.0 12.7 466.3 13.4 466.9 13.4 C 467.5 13.4 467.8 13.1 468.4 12.8 C 469.0 12.5 469.3 12.1 469.9 11.8 C 470.5 11.6 470.7 11.4 471.3 11.4 C 471.9 11.4 472.2 12.0 472.8 12.0 C 473.4 12.0 473.7 12.0 474.3 11.9 C 474.9 11.9 475.2 11.6 475.7 11.6 C 476.3 11.6 476.6 11.6 477.2 11.7 C 477.8 11.8 478.1 12.0 478.7 12.0 C 479.3 12.0 479.6 11.9 480.1 11.9 C 480.7 11.9 481.0 12.5 481.6 12.5 C 482.2 12.5 482.5 11.6 483.1 11.1 C 483.7 10.6 484.0 10.4 484.6 10.0 C 485.1 9.7 485.4 9.7 486.0 9.5 C 486.6 9.2 486.9 9.1 487.5 8.8 C 488.1 8.4 488.4 8.0 489.0 7.6 C 489.5 7.2 489.8 6.8 490.4 6.8 C 491.0 6.8 491.3 7.3 491.9 7.7 C 492.5 8.1 492.8 8.3 493.4 8.6 C 494.0 8.9 494.2 9.2 494.8 9.2 C 495.4 9.2 495.7 8.3 496.3 8.3 C 496.9 8.3 497.2 8.5 497.8 8.7 C 498.4 8.9 498.7 9.4 499.2 9.5 C 499.8 9.6 500.1 9.6 500.7 9.6 C 501.3 9.6 501.6 9.3 502.2 8.9 C 502.8 8.5 503.1 8.3 503.6 7.8 C 504.2 7.4 504.5 7.1 505.1 6.6 C 505.7 6.1 506.0 5.7 506.6 5.2 C 507.2 4.7 507.5 4.3 508.0 3.9 C 508.6 3.6 508.9 3.4 509.5 3.4 C 510.1 3.4 510.4 3.8 511.0 4.1 C 511.6 4.5 511.9 5.1 512.5 5.1 C 513.0 5.1 513.3 4.4 513.9 4.4 C 514.5 4.4 514.8 5.0 515.4 5.0 C 516.0 5.0 516.3 5.0 516.9 4.9 C 517.4 4.9 517.7 4.5 518.3 4.5 C 518.9 4.5 519.2 4.6 519.8 4.6 C 520.4 4.6 520.7 4.1 521.3 3.9 C 521.9 3.8 522.1 3.8 522.7 3.8 C 523.3 3.8 523.6 4.5 524.2 4.5 C 524.8 4.5 525.1 4.5 525.7 4.3 C 526.3 4.1 526.6 3.3 527.1 3.3 C 527.7 3.3 528.0 3.3 528.6 3.3 C 529.2 3.3 529.5 3.5 530.1 3.6 C 530.7 3.8 531.0 4.0 531.5 4.1 C 532.1 4.3 532.4 4.3 533.0 4.3 C 533.6 4.3 533.9 4.3 534.5 4.3 C 535.1 4.3 536 4.8 536 4.8 L 536 40 L 0 40" ></path><path fill="none" d="M 0 33.2 C 0 33.2 0.8 33.0 1.4 33.0 C 2.0 33.0 2.3 33.1 2.9 33.2 C 3.5 33.3 3.8 33.4 4.4 33.5 C 4.9 33.6 5.2 33.7 5.8 33.7 C 6.4 33.7 6.7 33.7 7.3 33.5 C 7.9 33.3 8.2 32.9 8.8 32.9 C 9.3 32.9 9.6 32.9 10.2 33.0 C 10.8 33.0 11.1 33.0 11.7 33.1 C 12.3 33.2 12.6 33.3 13.2 33.4 C 13.8 33.6 14.0 33.7 14.6 33.9 C 15.2 34.1 15.5 34.3 16.1 34.5 C 16.7 34.7 17.0 34.6 17.6 34.8 C 18.2 35.1 18.5 35.5 19.0 35.8 C 19.6 36.1 19.9 36.3 20.5 36.3 C 21.1 36.3 21.4 35.9 22.0 35.9 C 22.6 35.9 22.9 36.1 23.4 36.1 C 24.0 36.1 24.3 35.9 24.9 35.9 C 25.5 35.8 25.8 35.8 26.4 35.8 C 27.0 35.8 27.3 36.1 27.9 36.3 C 28.4 36.4 28.7 36.6 29.3 36.6 C 29.9 36.6 30.2 36.3 30.8 36.3 C 31.4 36.3 31.7 36.3 32.3 36.3 C 32.8 36.3 33.1 36.1 33.7 36.1 C 34.3 36.1 34.6 36.2 35.2 36.3 C 35.8 36.4 36.1 36.6 36.7 36.6 C 37.2 36.6 37.5 36.6 38.1 36.5 C 38.7 36.5 39.0 36.3 39.6 36.3 C 40.2 36.3 40.5 36.5 41.1 36.6 C 41.7 36.6 41.9 36.6 42.5 36.6 C 43.1 36.6 43.4 36.4 44.0 36.3 C 44.6 36.2 44.9 36.3 45.5 36.2 C 46.1 36.1 46.4 36.0 46.9 36.0 C 47.5 36.0 47.8 36.2 48.4 36.3 C 49.0 36.4 49.3 36.4 49.9 36.4 C 50.5 36.5 50.8 36.5 51.3 36.5 C 51.9 36.5 52.2 36.4 52.8 36.3 C 53.4 36.2 53.7 36.1 54.3 36.0 C 54.9 35.9 55.2 35.8 55.8 35.7 C 56.3 35.6 56.6 35.7 57.2 35.6 C 57.8 35.5 58.1 35.4 58.7 35.3 C 59.3 35.2 59.6 35.2 60.2 35.2 C 60.7 35.1 61.0 35.1 61.6 35.1 C 62.2 35.0 62.5 35.0 63.1 35.0 C 63.7 34.9 64.0 34.7 64.6 34.7 C 65.2 34.7 65.4 35.0 66.0 35.0 C 66.6 35.0 66.9 35.0 67.5 35.0 C 68.1 34.9 68.4 34.8 69.0 34.6 C 69.6 34.5 69.9 34.3 70.4 34.3 C 71.0 34.3 71.3 34.3 71.9 34.4 C 72.5 34.4 72.8 34.5 73.4 34.5 C 74.0 34.5 74.3 34.5 74.8 34.5 C 75.4 34.4 75.7 34.3 76.3 34.3 C 76.9 34.3 77.2 34.5 77.8 34.5 C 78.4 34.5 78.7 34.3 79.2 34.1 C 79.8 34.0 80.1 33.9 80.7 33.8 C 81.3 33.6 81.6 33.6 82.2 33.5 C 82.8 33.5 83.1 33.4 83.7 33.4 C 84.2 33.4 84.5 33.4 85.1 33.4 C 85.7 33.4 86.0 33.4 86.6 33.4 C 87.2 33.4 87.5 33.2 88.1 33.2 C 88.6 33.2 88.9 33.3 89.5 33.3 C 90.1 33.3 90.4 33.2 91.0 33.1 C 91.6 33.0 91.9 32.9 92.5 32.8 C 93.1 32.7 93.3 32.6 93.9 32.6 C 94.5 32.6 94.8 32.6 95.4 32.6 C 96.0 32.6 96.3 32.5 96.9 32.4 C 97.5 32.4 97.8 32.4 98.3 32.4 C 98.9 32.3 99.2 32.0 99.8 32.0 C 100.4 32.0 100.7 32.1 101.3 32.2 C 101.9 32.2 102.2 32.3 102.7 32.3 C 103.3 32.3 103.6 31.9 104.2 31.9 C 104.8 31.8 105.1 31.8 105.7 31.8 C 106.3 31.8 106.6 31.8 107.1 31.8 C 107.7 31.8 108.0 32.0 108.6 32.1 C 109.2 32.2 109.5 32.2 110.1 32.2 C 110.7 32.2 111.0 32.2 111.6 32.2 C 112.1 32.2 112.4 32.0 113.0 31.9 C 113.6 31.8 113.9 31.6 114.5 31.6 C 115.1 31.5 115.4 31.5 116.0 31.5 C 116.5 31.5 116.8 31.6 117.4 31.6 C 118.0 31.7 118.3 31.6 118.9 31.7 C 119.5 31.7 119.8 31.8 120.4 31.9 C 121.0 32.0 121.2 32.2 121.8 32.2 C 122.4 32.2 122.7 32.2 123.3 32.1 C 123.9 32.1 124.2 31.9 124.8 31.9 C 125.4 31.9 125.7 31.9 126.2 31.9 C 126.8 31.9 127.1 31.7 127.7 31.5 C 128.3 31.3 128.6 31.0 129.2 31.0 C 129.8 31.0 130.1 31.0 130.6 31.0 C 131.2 31.0 131.5 30.9 132.1 30.9 C 132.7 30.8 133.0 30.7 133.6 30.6 C 134.2 30.5 134.5 30.5 135.1 30.4 C 135.6 30.3 135.9 30.3 136.5 30.2 C 137.1 30.0 137.4 29.8 138.0 29.7 C 138.6 29.5 138.9 29.4 139.5 29.4 C 140.0 29.4 140.3 29.9 140.9 29.9 C 141.5 29.9 141.8 29.7 142.4 29.7 C 143.0 29.7 143.3 30.1 143.9 30.1 C 144.4 30.1 144.7 30.1 145.3 30.0 C 145.9 29.9 146.2 29.5 146.8 29.5 C 147.4 29.5 147.7 30.0 148.3 30.0 C 148.9 30.0 149.1 29.5 149.7 29.4 C 150.3 29.2 150.6 29.2 151.2 29.2 C 151.8 29.2 152.1 29.8 152.7 29.8 C 153.3 29.8 153.6 29.7 154.1 29.7 C 154.7 29.7 155.0 29.9 155.6 29.9 C 156.2 29.9 156.5 29.9 157.1 29.8 C 157.7 29.8 158.0 29.6 158.5 29.6 C 159.1 29.5 159.4 29.5 160.0 29.5 C 160.6 29.5 160.9 29.7 161.5 29.8 C 162.1 29.9 162.4 29.9 163.0 30.0 C 163.5 30.1 163.8 30.3 164.4 30.3 C 165.0 30.3 165.3 30.2 165.9 30.0 C 166.5 29.9 166.8 29.7 167.4 29.5 C 167.9 29.3 168.2 29.3 168.8 29.1 C 169.4 28.9 169.7 28.5 170.3 28.5 C 170.9 28.5 171.2 28.5 171.8 28.5 C 172.4 28.5 172.6 28.5 173.2 28.5 C 173.8 28.4 174.1 28.1 174.7 27.9 C 175.3 27.7 175.6 27.5 176.2 27.5 C 176.8 27.5 177.1 27.7 177.6 27.7 C 178.2 27.7 178.5 27.6 179.1 27.5 C 179.7 27.4 180.0 27.4 180.6 27.4 C 181.2 27.4 181.5 27.8 182.0 27.8 C 182.6 27.8 182.9 27.6 183.5 27.5 C 184.1 27.4 184.4 27.4 185.0 27.3 C 185.6 27.3 185.9 27.2 186.4 27.2 C 187.0 27.1 187.3 27.2 187.9 27.1 C 188.5 27.1 188.8 27.0 189.4 27.0 C 190.0 27.0 190.3 27.0 190.9 27.0 C 191.4 27.0 191.7 26.8 192.3 26.7 C 192.9 26.5 193.2 26.2 193.8 26.2 C 194.4 26.2 194.7 26.6 195.3 26.6 C 195.8 26.6 196.1 26.4 196.7 26.4 C 197.3 26.3 197.6 26.3 198.2 26.2 C 198.8 26.1 199.1 25.9 199.7 25.8 C 200.3 25.6 200.5 25.6 201.1 25.6 C 201.7 25.6 202.0 26.3 202.6 26.3 C 203.2 26.3 203.5 25.8 204.1 25.8 C 204.7 25.8 205.0 25.8 205.5 25.9 C 206.1 26.0 206.4 26.4 207.0 26.4 C 207.6 26.4 207.9 26.3 208.5 26.2 C 209.1 26.2 209.4 26.0 209.9 26.0 C 210.5 26.0 210.8 26.3 211.4 26.4 C 212.0 26.6 212.3 26.7 212.9 26.7 C 213.5 26.7 213.8 26.5 214.3 26.3 C 214.9 26.2 215.2 26.0 215.8 26.0 C 216.4 26.0 216.7 26.0 217.3 26.1 C 217.9 26.1 218.2 26.1 218.8 26.1 C 219.3 26.2 219.6 26.4 220.2 26.5 C 220.8 26.6 221.1 26.6 221.7 26.6 C 222.3 26.6 222.6 26.1 223.2 26.1 C 223.7 26.1 224.0 26.5 224.6 26.7 C 225.2 26.9 225.5 26.9 226.1 26.9 C 226.7 27.0 227.0 27.0 227.6 27.0 C 228.2 27.0 228.4 26.8 229.0 26.5 C 229.6 26.3 229.9 25.9 230.5 25.8 C 231.1 25.7 231.4 25.8 232.0 25.7 C 232.6 25.5 232.9 24.9 233.4 24.6 C 234.0 24.3 234.3 24.2 234.9 24.2 C 235.5 24.2 235.8 24.3 236.4 24.5 C 237.0 24.8 237.3 25.2 237.8 25.2 C 238.4 25.2 238.7 25.0 239.3 25.0 C 239.9 25.0 240.2 25.1 240.8 25.1 C 241.4 25.1 241.7 24.6 242.3 24.6 C 242.8 24.6 243.1 24.7 243.7 24.7 C 244.3 24.7 244.6 24.6 245.2 24.4 C 245.8 24.2 246.1 23.6 246.7 23.6 C 247.2 23.6 247.5 23.9 248.1 24.2 C 248.7 24.5 249.0 25.0 249.6 25.0 C 250.2 25.0 250.5 23.9 251.1 23.8 C 251.6 23.7 251.9 23.7 252.5 23.7 C 253.1 23.7 253.4 23.8 254.0 23.9 C 254.6 23.9 254.9 23.9 255.5 24.0 C 256.1 24.0 256.3 24.1 256.9 24.2 C 257.5 24.4 257.8 24.5 258.4 24.7 C 259.0 24.9 259.3 25.2 259.9 25.2 C 260.5 25.2 260.8 24.9 261.3 24.7 C 261.9 24.5 262.2 24.3 262.8 24.3 C 263.4 24.3 263.7 24.6 264.3 24.6 C 264.9 24.6 265.2 24.3 265.7 24.2 C 266.3 24.0 266.6 23.9 267.2 23.8 C 267.8 23.6 268.1 23.5 268.7 23.3 C 269.3 23.2 269.6 23.2 270.2 23.1 C 270.7 23.0 271.0 23.1 271.6 23.0 C 272.2 22.8 272.5 22.7 273.1 22.5 C 273.7 22.2 274.0 22.1 274.6 21.7 C 275.1 21.4 275.4 21.2 276.0 20.8 C 276.6 20.4 276.9 20.2 277.5 19.9 C 278.1 19.6 278.4 19.6 279.0 19.3 C 279.6 19.0 279.8 18.4 280.4 18.4 C 281.0 18.4 281.3 18.5 281.9 18.5 C 282.5 18.5 282.8 17.4 283.4 16.9 C 284.0 16.4 284.3 16.2 284.8 15.9 C 285.4 15.7 285.7 15.8 286.3 15.6 C 286.9 15.4 287.2 14.9 287.8 14.9 C 288.4 14.9 288.7 14.9 289.2 15.0 C 289.8 15.1 290.1 16.2 290.7 16.3 C 291.3 16.3 291.6 16.3 292.2 16.3 C 292.8 16.4 293.1 16.6 293.6 16.8 C 294.2 16.9 294.5 16.9 295.1 17.2 C 295.7 17.5 296.0 18.2 296.6 18.2 C 297.2 18.2 297.5 17.7 298.1 17.4 C 298.6 17.2 298.9 17.1 299.5 17.1 C 300.1 17.1 300.4 17.2 301.0 17.2 C 301.6 17.2 301.9 17.2 302.5 17.0 C 303.0 16.9 303.3 16.6 303.9 16.6 C 304.5 16.6 304.8 17.0 305.4 17.0 C 306.0 17.0 306.3 16.1 306.9 15.9 C 307.5 15.7 307.7 15.8 308.3 15.7 C 308.9 15.7 309.2 15.7 309.8 15.7 C 310.4 15.7 310.7 16.4 311.3 16.4 C 311.9 16.4 312.2 15.9 312.7 15.7 C 313.3 15.4 313.6 15.3 314.2 15.1 C 314.8 14.9 315.1 14.9 315.7 14.5 C 316.3 14.2 316.6 13.7 317.1 13.4 C 317.7 13.1 318.0 13.2 318.6 13.1 C 319.2 13.0 319.5 12.9 320.1 12.9 C 320.7 12.9 321.0 13.0 321.5 13.0 C 322.1 13.0 322.4 11.9 323.0 11.9 C 323.6 11.9 323.9 12.6 324.5 12.9 C 325.1 13.2 325.4 13.1 326.0 13.5 C 326.5 13.8 326.8 14.6 327.4 14.6 C 328.0 14.6 328.3 14.6 328.9 14.6 C 329.5 14.6 329.8 15.0 330.4 15.3 C 330.9 15.7 331.2 16.0 331.8 16.4 C 332.4 16.8 332.7 17.0 333.3 17.5 C 333.9 17.9 334.2 18.6 334.8 18.6 C 335.4 18.6 335.6 17.8 336.2 17.4 C 336.8 17.0 337.1 16.5 337.7 16.5 C 338.3 16.5 338.6 17.3 339.2 17.7 C 339.8 18.2 340.1 18.5 340.6 18.8 C 341.2 19.0 341.5 18.9 342.1 19.0 C 342.7 19.1 343.0 19.4 343.6 19.4 C 344.2 19.4 344.5 18.5 345.0 18.5 C 345.6 18.5 345.9 18.8 346.5 19.1 C 347.1 19.4 347.4 19.6 348.0 20.0 C 348.6 20.4 348.9 20.5 349.5 20.9 C 350.0 21.2 350.3 21.8 350.9 21.8 C 351.5 21.8 351.8 21.7 352.4 21.6 C 353.0 21.5 353.3 21.2 353.9 21.2 C 354.4 21.2 354.7 21.7 355.3 21.9 C 355.9 22.1 356.2 22.1 356.8 22.3 C 357.4 22.5 357.7 22.9 358.3 22.9 C 358.8 22.9 359.1 22.8 359.7 22.6 C 360.3 22.4 360.6 21.8 361.2 21.8 C 361.8 21.8 362.1 21.8 362.7 21.8 C 363.3 21.8 363.5 22.8 364.1 22.8 C 364.7 22.8 365.0 22.7 365.6 22.7 C 366.2 22.7 366.5 23.7 367.1 23.7 C 367.7 23.7 368.0 23.7 368.5 23.7 C 369.1 23.7 369.4 22.7 370.0 22.3 C 370.6 21.9 370.9 21.6 371.5 21.6 C 372.1 21.6 372.4 22.4 372.9 22.4 C 373.5 22.4 373.8 22.3 374.4 22.3 C 375.0 22.2 375.3 22.1 375.9 22.1 C 376.5 22.1 376.8 22.1 377.4 22.2 C 377.9 22.2 378.2 22.4 378.8 22.6 C 379.4 22.7 379.7 22.7 380.3 23.0 C 380.9 23.3 381.2 24.0 381.8 24.0 C 382.3 24.0 382.6 23.5 383.2 23.3 C 383.8 23.1 384.1 23.2 384.7 23.1 C 385.3 23.0 385.6 22.9 386.2 22.8 C 386.8 22.7 387.0 22.8 387.6 22.7 C 388.2 22.5 388.5 22.0 389.1 21.8 C 389.7 21.5 390.0 21.7 390.6 21.4 C 391.2 21.2 391.5 20.6 392.0 20.3 C 392.6 20.0 392.9 19.8 393.5 19.8 C 394.1 19.8 394.4 20.3 395.0 20.3 C 395.6 20.3 395.9 20.2 396.4 20.2 C 397.0 20.2 397.3 20.5 397.9 20.7 C 398.5 21.0 398.8 21.5 399.4 21.5 C 400.0 21.5 400.3 20.5 400.8 20.5 C 401.4 20.5 401.7 20.6 402.3 20.6 C 402.9 20.6 403.2 20.6 403.8 20.5 C 404.4 20.3 404.7 20.2 405.3 19.9 C 405.8 19.6 406.1 19.0 406.7 19.0 C 407.3 19.0 407.6 19.0 408.2 19.1 C 408.8 19.1 409.1 19.1 409.7 19.1 C 410.2 19.1 410.5 19.1 411.1 19.1 C 411.7 19.1 412.0 19.2 412.6 19.2 C 413.2 19.2 413.5 18.7 414.1 18.4 C 414.7 18.0 414.9 17.5 415.5 17.5 C 416.1 17.5 416.4 17.5 417.0 17.5 C 417.6 17.5 417.9 17.9 418.5 17.9 C 419.1 17.9 419.4 17.3 419.9 17.3 C 420.5 17.3 420.8 17.7 421.4 17.9 C 422.0 18.1 422.3 18.4 422.9 18.4 C 423.5 18.4 423.8 18.2 424.3 18.1 C 424.9 18.0 425.2 17.9 425.8 17.9 C 426.4 17.9 426.7 19.5 427.3 19.5 C 427.9 19.5 428.2 19.5 428.7 19.5 C 429.3 19.5 429.6 18.5 430.2 18.5 C 430.8 18.5 431.1 18.5 431.7 18.6 C 432.3 18.7 432.6 19.0 433.2 19.0 C 433.7 19.0 434.0 18.8 434.6 18.7 C 435.2 18.7 435.5 18.7 436.1 18.7 C 436.7 18.7 437.0 18.8 437.6 18.8 C 438.1 18.8 438.4 18.4 439.0 18.4 C 439.6 18.4 439.9 18.4 440.5 18.4 C 441.1 18.5 441.4 18.9 442.0 19.0 C 442.6 19.1 442.8 19.1 443.4 19.1 C 444.0 19.1 444.3 18.7 444.9 18.1 C 445.5 17.6 445.8 16.3 446.4 16.3 C 447.0 16.3 447.3 16.3 447.8 16.3 C 448.4 16.3 448.7 16.3 449.3 16.2 C 449.9 16.2 450.2 16.0 450.8 15.7 C 451.4 15.4 451.7 15.0 452.2 14.8 C 452.8 14.5 453.1 14.5 453.7 14.3 C 454.3 14.2 454.6 13.9 455.2 13.9 C 455.8 13.9 456.1 14.1 456.7 14.2 C 457.2 14.4 457.5 14.5 458.1 14.5 C 458.7 14.5 459.0 14.0 459.6 13.8 C 460.2 13.5 460.5 13.2 461.1 13.2 C 461.6 13.2 461.9 13.4 462.5 13.4 C 463.1 13.4 463.4 13.2 464.0 13.0 C 464.6 12.9 464.9 12.7 465.5 12.7 C 466.0 12.7 466.3 13.4 466.9 13.4 C 467.5 13.4 467.8 13.1 468.4 12.8 C 469.0 12.5 469.3 12.1 469.9 11.8 C 470.5 11.6 470.7 11.4 471.3 11.4 C 471.9 11.4 472.2 12.0 472.8 12.0 C 473.4 12.0 473.7 12.0 474.3 11.9 C 474.9 11.9 475.2 11.6 475.7 11.6 C 476.3 11.6 476.6 11.6 477.2 11.7 C 477.8 11.8 478.1 12.0 478.7 12.0 C 479.3 12.0 479.6 11.9 480.1 11.9 C 480.7 11.9 481.0 12.5 481.6 12.5 C 482.2 12.5 482.5 11.6 483.1 11.1 C 483.7 10.6 484.0 10.4 484.6 10.0 C 485.1 9.7 485.4 9.7 486.0 9.5 C 486.6 9.2 486.9 9.1 487.5 8.8 C 488.1 8.4 488.4 8.0 489.0 7.6 C 489.5 7.2 489.8 6.8 490.4 6.8 C 491.0 6.8 491.3 7.3 491.9 7.7 C 492.5 8.1 492.8 8.3 493.4 8.6 C 494.0 8.9 494.2 9.2 494.8 9.2 C 495.4 9.2 495.7 8.3 496.3 8.3 C 496.9 8.3 497.2 8.5 497.8 8.7 C 498.4 8.9 498.7 9.4 499.2 9.5 C 499.8 9.6 500.1 9.6 500.7 9.6 C 501.3 9.6 501.6 9.3 502.2 8.9 C 502.8 8.5 503.1 8.3 503.6 7.8 C 504.2 7.4 504.5 7.1 505.1 6.6 C 505.7 6.1 506.0 5.7 506.6 5.2 C 507.2 4.7 507.5 4.3 508.0 3.9 C 508.6 3.6 508.9 3.4 509.5 3.4 C 510.1 3.4 510.4 3.8 511.0 4.1 C 511.6 4.5 511.9 5.1 512.5 5.1 C 513.0 5.1 513.3 4.4 513.9 4.4 C 514.5 4.4 514.8 5.0 515.4 5.0 C 516.0 5.0 516.3 5.0 516.9 4.9 C 517.4 4.9 517.7 4.5 518.3 4.5 C 518.9 4.5 519.2 4.6 519.8 4.6 C 520.4 4.6 520.7 4.1 521.3 3.9 C 521.9 3.8 522.1 3.8 522.7 3.8 C 523.3 3.8 523.6 4.5 524.2 4.5 C 524.8 4.5 525.1 4.5 525.7 4.3 C 526.3 4.1 526.6 3.3 527.1 3.3 C 527.7 3.3 528.0 3.3 528.6 3.3 C 529.2 3.3 529.5 3.5 530.1 3.6 C 530.7 3.8 531.0 4.0 531.5 4.1 C 532.1 4.3 532.4 4.3 533.0 4.3 C 533.6 4.3 533.9 4.3 534.5 4.3 C 535.1 4.3 536 4.8 536 4.8" stroke="#4572A7" stroke-width="1"  stroke-linejoin="round" stroke-linecap="round"></path></g><g class="highcharts-markers" visibility="visible"  transform="translate(24,331) scale(1 1)" clip-path="url(#highcharts-4)"></g></g><g class="highcharts-navigator" ><rect fill="rgb(128,179,236)" fill-opacity="0.3" style="cursor:ew-resize ;" x="541" y="331" width="19" height="40"></rect><path fill="none" stroke="#b2b1b6" stroke-width="1" d="M 10 331.5 L 540.5 331.5 540.5 385.5 L 559.5 385.5 L 559.5 331.5 574 331.5 M 541.5 331.5 L 559.5 331.5"></path></g><g class="highcharts-navigator-handle-right" style="cursor:ew-resize;"  transform="translate(560,343)"><rect x="-4.5" y="0.5" width="8" height="15" strokeWidth="1" fill="#ebe7e8" stroke="#b2b1b6" stroke-width="1"></rect><path fill="#ebe7e8" d="M -1.5 4 L -1.5 12 M 0.5 4 L 0.5 12" stroke="#b2b1b6" stroke-width="1"></path></g><text x="292" text-anchor="middle" class="highcharts-title"  style="color:#333333;font-size:16px;fill:#333333;width:520px;" y="22"><tspan>AAPL Stock Price</tspan></text><g class="highcharts-navigator-handle-left" style="cursor:ew-resize;"  transform="translate(541,343)"><rect x="-4.5" y="0.5" width="8" height="15" strokeWidth="1" fill="#ebe7e8" stroke="#b2b1b6" stroke-width="1"></rect><path fill="#ebe7e8" d="M -1.5 4 L -1.5 12 M 0.5 4 L 0.5 12" stroke="#b2b1b6" stroke-width="1"></path></g><g class="highcharts-axis-labels highcharts-xaxis-labels" ><text x="64.5" style="color:#606060;cursor:default;font-size:11px;fill:#606060;" text-anchor="middle" transform="translate(0,0)" y="304" opacity="1"><tspan>13. Apr</tspan></text><text x="155.5" style="color:#606060;cursor:default;font-size:11px;fill:#606060;" text-anchor="middle" transform="translate(0,0)" y="304" opacity="1"><tspan>27. Apr</tspan></text><text x="246.5" style="color:#606060;cursor:default;font-size:11px;fill:#606060;" text-anchor="middle" transform="translate(0,0)" y="304" opacity="1"><tspan>11. May</tspan></text><text x="335.2" style="color:#606060;cursor:default;font-size:11px;fill:#606060;" text-anchor="middle" transform="translate(0,0)" y="304" opacity="1"><tspan>25. May</tspan></text><text x="419.3" style="color:#606060;cursor:default;font-size:11px;fill:#606060;" text-anchor="middle" transform="translate(0,0)" y="304" opacity="1"><tspan>8. Jun</tspan></text><text x="510.3" style="color:#606060;cursor:default;font-size:11px;fill:#606060;" text-anchor="middle" transform="translate(0,0)" y="304" opacity="1"><tspan>22. Jun</tspan></text></g><g class="highcharts-axis-labels highcharts-xaxis-labels" ><text x="141.7" style="color:#888;cursor:default;font-size:11px;fill:#888;width:272px;text-overflow:clip;" text-anchor="start" transform="translate(0,0)" y="367" opacity="1">2010</text><text x="294.8" style="color:#888;cursor:default;font-size:11px;fill:#888;width:272px;text-overflow:clip;" text-anchor="start" transform="translate(0,0)" y="367" opacity="1">2012</text><text x="448.2" style="color:#888;cursor:default;font-size:11px;fill:#888;width:272px;text-overflow:clip;" text-anchor="start" transform="translate(0,0)" y="367" opacity="1">2014</text></g><g class="highcharts-axis-labels highcharts-yaxis-labels" ><text x="574" style="color:#606060;cursor:default;font-size:11px;fill:#606060;width:183px;text-overflow:clip;" text-anchor="end" transform="translate(0,0)" y="283" opacity="1">122.5</text><text x="574" style="color:#606060;cursor:default;font-size:11px;fill:#606060;width:183px;text-overflow:clip;" text-anchor="end" transform="translate(0,0)" y="242" opacity="1">125</text><text x="574" style="color:#606060;cursor:default;font-size:11px;fill:#606060;width:183px;text-overflow:clip;" text-anchor="end" transform="translate(0,0)" y="201" opacity="1">127.5</text><text x="574" style="color:#606060;cursor:default;font-size:11px;fill:#606060;width:183px;text-overflow:clip;" text-anchor="end" transform="translate(0,0)" y="159" opacity="1">130</text><text x="574" style="color:#606060;cursor:default;font-size:11px;fill:#606060;width:183px;text-overflow:clip;" text-anchor="end" transform="translate(0,0)" y="118" opacity="1">132.5</text><text x="0" style="color:#606060;cursor:default;font-size:11px;fill:#606060;width:183px;text-overflow:clip;" text-anchor="end" transform="translate(0,0)" y="-9999">135</text></g><g class="highcharts-axis-labels highcharts-yaxis-labels" ></g><g class="highcharts-tooltip"  style="cursor:default;padding:0;white-space:nowrap;" transform="translate(0,-9999)"><path fill="none" d="M 3.5 0.5 L 13.5 0.5 C 16.5 0.5 16.5 0.5 16.5 3.5 L 16.5 13.5 C 16.5 16.5 16.5 16.5 13.5 16.5 L 3.5 16.5 C 0.5 16.5 0.5 16.5 0.5 13.5 L 0.5 3.5 C 0.5 0.5 0.5 0.5 3.5 0.5"  stroke="black" stroke-opacity="0.0" stroke-width="5" transform="translate(1, 1)"></path><path fill="none" d="M 3.5 0.5 L 13.5 0.5 C 16.5 0.5 16.5 0.5 16.5 3.5 L 16.5 13.5 C 16.5 16.5 16.5 16.5 13.5 16.5 L 3.5 16.5 C 0.5 16.5 0.5 16.5 0.5 13.5 L 0.5 3.5 C 0.5 0.5 0.5 0.5 3.5 0.5"  stroke="black" stroke-opacity="0.0" stroke-width="3" transform="translate(1, 1)"></path><path fill="none" d="M 3.5 0.5 L 13.5 0.5 C 16.5 0.5 16.5 0.5 16.5 3.5 L 16.5 13.5 C 16.5 16.5 16.5 16.5 13.5 16.5 L 3.5 16.5 C 0.5 16.5 0.5 16.5 0.5 13.5 L 0.5 3.5 C 0.5 0.5 0.5 0.5 3.5 0.5"  stroke="black" stroke-opacity="0.1" stroke-width="1" transform="translate(1, 1)"></path><path fill="rgb(249, 249, 249)" fill-opacity=" .85" d="M 3.5 0.5 L 13.5 0.5 C 16.5 0.5 16.5 0.5 16.5 3.5 L 16.5 13.5 C 16.5 16.5 16.5 16.5 13.5 16.5 L 3.5 16.5 C 0.5 16.5 0.5 16.5 0.5 13.5 L 0.5 3.5 C 0.5 0.5 0.5 0.5 3.5 0.5"></path><text x="8"  style="font-size:12px;color:#333333;fill:#333333;" y="20"></text></g></svg>