<svg version="1.1" style="font-family:&quot;lucida grande&quot;, &quot;lucida sans unicode&quot;, arial, helvetica, sans-serif;font-size:12px;" xmlns="http://www.w3.org/2000/svg" width="584" height="400" viewBox="0 0 584 400"><desc>Created with Highcharts 4.1.6</desc><defs><clipPath id="highcharts-1"><rect x="0" y="0" width="496" height="298"></rect></clipPath><clipPath id="highcharts-2"><rect x="-99" y="-46" width="595" height="400"></rect></clipPath><clipPath id="highcharts-3"><rect x="0" y="0" width="496" height="298"></rect></clipPath></defs><rect x="0" y="0" width="584" height="400" strokeWidth="0" fill="#FFFFFF" class=" highcharts-background" stroke="transparent"></rect><path fill="none" d="M 78 179.5 L 574 179.5" stroke="red" stroke-width="1"></path><text x="336" text-anchor="middle" transform="translate(0,0)" style="color:gray;fill:gray;" y="176" visibility="visible"><tspan>Theoretical mean: 932</tspan></text><g class="highcharts-grid" ></g><g class="highcharts-grid" ><path fill="none" d="M 78 344.5 L 574 344.5" stroke="#D8D8D8" stroke-width="1"  opacity="1"></path><path fill="none" d="M 78 294.5 L 574 294.5" stroke="#D8D8D8" stroke-width="1"  opacity="1"></path><path fill="none" d="M 78 245.5 L 574 245.5" stroke="#D8D8D8" stroke-width="1"  opacity="1"></path><path fill="none" d="M 78 195.5 L 574 195.5" stroke="#D8D8D8" stroke-width="1"  opacity="1"></path><path fill="none" d="M 78 145.5 L 574 145.5" stroke="#D8D8D8" stroke-width="1"  opacity="1"></path><path fill="none" d="M 78 96.5 L 574 96.5" stroke="#D8D8D8" stroke-width="1"  opacity="1"></path><path fill="none" d="M 78 45.5 L 574 45.5" stroke="#D8D8D8" stroke-width="1"  opacity="1"></path></g><g class="highcharts-axis" ><path fill="none" d="M 176.5 344 L 176.5 354" stroke="#C0D0E0" stroke-width="1" opacity="1"></path><path fill="none" d="M 275.5 344 L 275.5 354" stroke="#C0D0E0" stroke-width="1" opacity="1"></path><path fill="none" d="M 375.5 344 L 375.5 354" stroke="#C0D0E0" stroke-width="1" opacity="1"></path><path fill="none" d="M 474.5 344 L 474.5 354" stroke="#C0D0E0" stroke-width="1" opacity="1"></path><path fill="none" d="M 574.5 344 L 574.5 354" stroke="#C0D0E0" stroke-width="1" opacity="1"></path><path fill="none" d="M 77.5 344 L 77.5 354" stroke="#C0D0E0" stroke-width="1" opacity="1"></path><text x="326"  text-anchor="middle" transform="translate(0,0)" class=" highcharts-xaxis-title" style="color:#707070;fill:#707070;" visibility="visible" y="382"><tspan>Experiment No.</tspan></text><path fill="none" d="M 78 344.5 L 574 344.5" stroke="#C0D0E0" stroke-width="1"  visibility="visible"></path></g><g class="highcharts-axis" ><text x="25"  text-anchor="middle" transform="translate(0,0) rotate(270 25 195)" class=" highcharts-yaxis-title" style="color:#707070;fill:#707070;" visibility="visible" y="195">Observations</text></g><g class="highcharts-series-group" ><g class="highcharts-series highcharts-tracker" visibility="visible"  transform="translate(78,46) scale(1 1)" style="" clip-path="url(#highcharts-1)"><g><path fill="none" d="M 49.5 151 L 49.5 116 M 49.5 198 L 49.5 218" stroke="#7cb5ec" stroke-width="1"></path><path fill="none" d="M 37.5 116 L 61.5 116 M 37.5 218 L 61.5 218" stroke="#7cb5ec" stroke-width="2"></path><path fill="#FFFFFF" d="M 25.5 151.5 L 25.5 198.5 L 73.5 198.5 L 73.5 151.5 L 25.5 151.5 z" stroke="#7cb5ec" stroke-width="1"></path><path fill="none" d="M 25.5 175 L 73.5 175" stroke="#7cb5ec" stroke-width="2"></path></g><g><path fill="none" d="M 148.5 109 L 148.5 59 M 148.5 172 L 148.5 231" stroke="#7cb5ec" stroke-width="1"></path><path fill="none" d="M 136.5 59 L 160.5 59 M 136.5 231 L 160.5 231" stroke="#7cb5ec" stroke-width="2"></path><path fill="#FFFFFF" d="M 124.5 109.5 L 124.5 172.5 L 172.5 172.5 L 172.5 109.5 L 124.5 109.5 z" stroke="#7cb5ec" stroke-width="1"></path><path fill="none" d="M 124.5 130 L 172.5 130" stroke="#7cb5ec" stroke-width="2"></path></g><g><path fill="none" d="M 247.5 163 L 247.5 140 M 247.5 217 L 247.5 241" stroke="#7cb5ec" stroke-width="1"></path><path fill="none" d="M 235.5 140 L 259.5 140 M 235.5 241 L 259.5 241" stroke="#7cb5ec" stroke-width="2"></path><path fill="#FFFFFF" d="M 223.5 163.5 L 223.5 217.5 L 271.5 217.5 L 271.5 163.5 L 223.5 163.5 z" stroke="#7cb5ec" stroke-width="1"></path><path fill="none" d="M 223.5 190 L 271.5 190" stroke="#7cb5ec" stroke-width="2"></path></g><g><path fill="none" d="M 346.5 163 L 346.5 124 M 346.5 197 L 346.5 236" stroke="#7cb5ec" stroke-width="1"></path><path fill="none" d="M 334.5 124 L 358.5 124 M 334.5 236 L 358.5 236" stroke="#7cb5ec" stroke-width="2"></path><path fill="#FFFFFF" d="M 322.5 163.5 L 322.5 197.5 L 370.5 197.5 L 370.5 163.5 L 322.5 163.5 z" stroke="#7cb5ec" stroke-width="1"></path><path fill="none" d="M 322.5 196 L 370.5 196" stroke="#7cb5ec" stroke-width="2"></path></g><g><path fill="none" d="M 446.5 157 L 446.5 144 M 446.5 180 L 446.5 181" stroke="#7cb5ec" stroke-width="1"></path><path fill="none" d="M 434.5 144 L 458.5 144 M 434.5 181 L 458.5 181" stroke="#7cb5ec" stroke-width="2"></path><path fill="#FFFFFF" d="M 422.5 157.5 L 422.5 180.5 L 470.5 180.5 L 470.5 157.5 L 422.5 157.5 z" stroke="#7cb5ec" stroke-width="1"></path><path fill="none" d="M 422.5 167 L 470.5 167" stroke="#7cb5ec" stroke-width="2"></path></g></g><g class="highcharts-markers" visibility="visible"  transform="translate(78,46) scale(1 1)"></g><g class="highcharts-series highcharts-tracker" visibility="visible"  transform="translate(78,46) scale(1 1)" clip-path="url(#highcharts-3)" style=""></g><g class="highcharts-markers highcharts-tracker" visibility="visible"  transform="translate(78,46) scale(1 1)" clip-path="url(#highcharts-2)" style=""><path fill="white" d="M 446 110.7 C 451.3 110.7 451.3 118.7 446 118.7 C 440.6 118.7 440.6 110.7 446 110.7 Z" stroke="#7cb5ec" stroke-width="1"></path><path fill="white" d="M 446 119.6 C 451.3 119.6 451.3 127.6 446 127.6 C 440.6 127.6 440.6 119.6 446 119.6 Z" stroke="#7cb5ec" stroke-width="1"></path><path fill="white" d="M 446 235.3 C 451.3 235.3 451.3 243.3 446 243.3 C 440.6 243.3 440.6 235.3 446 235.3 Z" stroke="#7cb5ec" stroke-width="1"></path><path fill="white" d="M 49 272.1 C 54.3 272.1 54.3 280.1 49 280.1 C 43.6 280.1 43.6 272.1 49 272.1 Z" stroke="#7cb5ec" stroke-width="1"></path></g></g><text x="292" text-anchor="middle" class="highcharts-title"  style="color:#333333;font-size:18px;fill:#333333;width:520px;" y="24"><tspan>Highcharts Box Plot Example</tspan></text><g class="highcharts-axis-labels highcharts-xaxis-labels" ><text x="127.6" style="color:#606060;cursor:default;font-size:11px;fill:#606060;width:89px;text-overflow:clip;" text-anchor="middle" transform="translate(0,0)" y="363" opacity="1">1</text><text x="226.7" style="color:#606060;cursor:default;font-size:11px;fill:#606060;width:89px;text-overflow:clip;" text-anchor="middle" transform="translate(0,0)" y="363" opacity="1">2</text><text x="326" style="color:#606060;cursor:default;font-size:11px;fill:#606060;width:89px;text-overflow:clip;" text-anchor="middle" transform="translate(0,0)" y="363" opacity="1">3</text><text x="425.2" style="color:#606060;cursor:default;font-size:11px;fill:#606060;width:89px;text-overflow:clip;" text-anchor="middle" transform="translate(0,0)" y="363" opacity="1">4</text><text x="524.4" style="color:#606060;cursor:default;font-size:11px;fill:#606060;width:89px;text-overflow:clip;" text-anchor="middle" transform="translate(0,0)" y="363" opacity="1">5</text></g><g class="highcharts-axis-labels highcharts-yaxis-labels" ><text x="63" style="color:#606060;cursor:default;font-size:11px;fill:#606060;width:183px;text-overflow:clip;" text-anchor="end" transform="translate(0,0)" y="349" opacity="1">600</text><text x="63" style="color:#606060;cursor:default;font-size:11px;fill:#606060;width:183px;text-overflow:clip;" text-anchor="end" transform="translate(0,0)" y="299" opacity="1">700</text><text x="63" style="color:#606060;cursor:default;font-size:11px;fill:#606060;width:183px;text-overflow:clip;" text-anchor="end" transform="translate(0,0)" y="249" opacity="1">800</text><text x="63" style="color:#606060;cursor:default;font-size:11px;fill:#606060;width:183px;text-overflow:clip;" text-anchor="end" transform="translate(0,0)" y="200" opacity="1">900</text><text x="63" style="color:#606060;cursor:default;font-size:11px;fill:#606060;width:183px;text-overflow:clip;" text-anchor="end" transform="translate(0,0)" y="150" opacity="1">1000</text><text x="63" style="color:#606060;cursor:default;font-size:11px;fill:#606060;width:183px;text-overflow:clip;" text-anchor="end" transform="translate(0,0)" y="100" opacity="1">1100</text><text x="63" style="color:#606060;cursor:default;font-size:11px;fill:#606060;width:183px;text-overflow:clip;" text-anchor="end" transform="translate(0,0)" y="51" opacity="1">1200</text></g><g class="highcharts-tooltip"  style="cursor:default;padding:0;white-space:nowrap;" transform="translate(0,-9999)"><path fill="none" d="M 3.5 0.5 L 13.5 0.5 C 16.5 0.5 16.5 0.5 16.5 3.5 L 16.5 13.5 C 16.5 16.5 16.5 16.5 13.5 16.5 L 3.5 16.5 C 0.5 16.5 0.5 16.5 0.5 13.5 L 0.5 3.5 C 0.5 0.5 0.5 0.5 3.5 0.5"  stroke="black" stroke-opacity="0.0" stroke-width="5" transform="translate(1, 1)"></path><path fill="none" d="M 3.5 0.5 L 13.5 0.5 C 16.5 0.5 16.5 0.5 16.5 3.5 L 16.5 13.5 C 16.5 16.5 16.5 16.5 13.5 16.5 L 3.5 16.5 C 0.5 16.5 0.5 16.5 0.5 13.5 L 0.5 3.5 C 0.5 0.5 0.5 0.5 3.5 0.5"  stroke="black" stroke-opacity="0.0" stroke-width="3" transform="translate(1, 1)"></path><path fill="none" d="M 3.5 0.5 L 13.5 0.5 C 16.5 0.5 16.5 0.5 16.5 3.5 L 16.5 13.5 C 16.5 16.5 16.5 16.5 13.5 16.5 L 3.5 16.5 C 0.5 16.5 0.5 16.5 0.5 13.5 L 0.5 3.5 C 0.5 0.5 0.5 0.5 3.5 0.5"  stroke="black" stroke-opacity="0.1" stroke-width="1" transform="translate(1, 1)"></path><path fill="rgb(249, 249, 249)" fill-opacity=" .85" d="M 3.5 0.5 L 13.5 0.5 C 16.5 0.5 16.5 0.5 16.5 3.5 L 16.5 13.5 C 16.5 16.5 16.5 16.5 13.5 16.5 L 3.5 16.5 C 0.5 16.5 0.5 16.5 0.5 13.5 L 0.5 3.5 C 0.5 0.5 0.5 0.5 3.5 0.5"></path><text x="8"  style="font-size:12px;color:#333333;fill:#333333;" y="20"></text></g></svg>