<svg version="1.1" style="font-family: signika, serif; font-size: 12px; background-image: url(http://www.highcharts.com/samples/graphics/sand.png); background-position: initial initial; background-repeat: initial initial;" xmlns="http://www.w3.org/2000/svg" width="584" height="400" viewBox="0 0 584 400" xmlns:xlink="http://www.w3.org/1999/xlink"><style type="text/css"><![CDATA[@import url(http://fonts.googleapis.com/css?family=Signika:700);]]></style><desc>Created with Highcharts 4.1.7</desc><defs><clipPath id="highcharts-1"><rect x="0" y="0" width="505" height="308"></rect></clipPath><clipPath id="highcharts-2"><rect x="-99" y="-41" width="604" height="400"></rect></clipPath><clipPath id="highcharts-3"><rect x="0" y="0" width="505" height="308"></rect></clipPath></defs><path fill="none" d="M 69 179.5 L 574 179.5" stroke="red" stroke-width="1"></path><text x="332" text-anchor="middle" transform="translate(0,0)" style="color:gray;fill:gray;" y="176" visibility="visible"><tspan>Theoretical mean: 932</tspan></text><g class="highcharts-grid" ></g><g class="highcharts-grid" ><path fill="none" d="M 69 349.5 L 574 349.5" stroke="#D8D8D8" stroke-width="1"  opacity="1"></path><path fill="none" d="M 69 298.5 L 574 298.5" stroke="#D8D8D8" stroke-width="1"  opacity="1"></path><path fill="none" d="M 69 246.5 L 574 246.5" stroke="#D8D8D8" stroke-width="1"  opacity="1"></path><path fill="none" d="M 69 195.5 L 574 195.5" stroke="#D8D8D8" stroke-width="1"  opacity="1"></path><path fill="none" d="M 69 144.5 L 574 144.5" stroke="#D8D8D8" stroke-width="1"  opacity="1"></path><path fill="none" d="M 69 92.5 L 574 92.5" stroke="#D8D8D8" stroke-width="1"  opacity="1"></path><path fill="none" d="M 69 40.5 L 574 40.5" stroke="#D8D8D8" stroke-width="1"  opacity="1"></path></g><g class="highcharts-axis" ><path fill="none" d="M 169.5 349 L 169.5 359" stroke="#C0D0E0" stroke-width="1" opacity="1"></path><path fill="none" d="M 270.5 349 L 270.5 359" stroke="#C0D0E0" stroke-width="1" opacity="1"></path><path fill="none" d="M 371.5 349 L 371.5 359" stroke="#C0D0E0" stroke-width="1" opacity="1"></path><path fill="none" d="M 472.5 349 L 472.5 359" stroke="#C0D0E0" stroke-width="1" opacity="1"></path><path fill="none" d="M 574.5 349 L 574.5 359" stroke="#C0D0E0" stroke-width="1" opacity="1"></path><path fill="none" d="M 68.5 349 L 68.5 359" stroke="#C0D0E0" stroke-width="1" opacity="1"></path><text x="321.5"  text-anchor="middle" transform="translate(0,0)" class=" highcharts-xaxis-title" style="color:#707070;fill:#707070;" visibility="visible" y="385"><tspan>Experiment No.</tspan></text><path fill="none" d="M 69 349.5 L 574 349.5" stroke="#C0D0E0" stroke-width="1"  visibility="visible"></path></g><g class="highcharts-axis" ><text x="22"  text-anchor="middle" transform="translate(0,0) rotate(270 22 195)" class=" highcharts-yaxis-title" style="color:#707070;fill:#707070;" visibility="visible" y="195">Observations</text></g><g class="highcharts-series-group" ><g class="highcharts-series highcharts-tracker" visibility="visible"  transform="translate(69,41) scale(1 1)" style="" clip-path="url(#highcharts-1)"><g><path fill="none" d="M 50.5 156 L 50.5 120 M 50.5 204 L 50.5 225" stroke="#f45b5b" stroke-width="1"></path><path fill="none" d="M 38 120 L 63 120 M 38 225 L 63 225" stroke="#f45b5b" stroke-width="2"></path><path fill="#FFFFFF" d="M 25.5 156.5 L 25.5 204.5 L 74.5 204.5 L 74.5 156.5 L 25.5 156.5 z" stroke="#f45b5b" stroke-width="1"></path><path fill="none" d="M 25.5 181 L 74.5 181" stroke="#f45b5b" stroke-width="2"></path></g><g><path fill="none" d="M 151.5 112 L 151.5 61 M 151.5 178 L 151.5 239" stroke="#f45b5b" stroke-width="1"></path><path fill="none" d="M 139 61 L 164 61 M 139 239 L 164 239" stroke="#f45b5b" stroke-width="2"></path><path fill="#FFFFFF" d="M 126.5 112.5 L 126.5 178.5 L 175.5 178.5 L 175.5 112.5 L 126.5 112.5 z" stroke="#f45b5b" stroke-width="1"></path><path fill="none" d="M 126.5 134 L 175.5 134" stroke="#f45b5b" stroke-width="2"></path></g><g><path fill="none" d="M 252.5 169 L 252.5 144 M 252.5 224 L 252.5 249" stroke="#f45b5b" stroke-width="1"></path><path fill="none" d="M 240 144 L 265 144 M 240 249 L 265 249" stroke="#f45b5b" stroke-width="2"></path><path fill="#FFFFFF" d="M 227.5 169.5 L 227.5 224.5 L 276.5 224.5 L 276.5 169.5 L 227.5 169.5 z" stroke="#f45b5b" stroke-width="1"></path><path fill="none" d="M 227.5 197 L 276.5 197" stroke="#f45b5b" stroke-width="2"></path></g><g><path fill="none" d="M 353.5 168 L 353.5 128 M 353.5 204 L 353.5 244" stroke="#f45b5b" stroke-width="1"></path><path fill="none" d="M 341 128 L 366 128 M 341 244 L 366 244" stroke="#f45b5b" stroke-width="2"></path><path fill="#FFFFFF" d="M 328.5 168.5 L 328.5 204.5 L 377.5 204.5 L 377.5 168.5 L 328.5 168.5 z" stroke="#f45b5b" stroke-width="1"></path><path fill="none" d="M 328.5 202 L 377.5 202" stroke="#f45b5b" stroke-width="2"></path></g><g><path fill="none" d="M 454.5 163 L 454.5 148 M 454.5 186 L 454.5 187" stroke="#f45b5b" stroke-width="1"></path><path fill="none" d="M 442 148 L 467 148 M 442 187 L 467 187" stroke="#f45b5b" stroke-width="2"></path><path fill="#FFFFFF" d="M 429.5 163.5 L 429.5 186.5 L 478.5 186.5 L 478.5 163.5 L 429.5 163.5 z" stroke="#f45b5b" stroke-width="1"></path><path fill="none" d="M 429.5 172 L 478.5 172" stroke="#f45b5b" stroke-width="2"></path></g></g><g class="highcharts-markers" visibility="visible"  transform="translate(69,41) scale(1 1)"></g><g class="highcharts-series highcharts-tracker" visibility="visible"  transform="translate(69,41) scale(1 1)" clip-path="url(#highcharts-3)" style=""></g><g class="highcharts-markers highcharts-tracker" visibility="visible"  transform="translate(69,41) scale(1 1)" clip-path="url(#highcharts-2)" style=""><path fill="white" d="M 454 114.5 C 459.3 114.5 459.3 122.5 454 122.5 C 448.6 122.5 448.6 114.5 454 114.5 Z" stroke="#f45b5b" stroke-width="1"></path><path fill="white" d="M 454 123.8 C 459.3 123.8 459.3 131.8 454 131.8 C 448.6 131.8 448.6 123.8 454 123.8 Z" stroke="#f45b5b" stroke-width="1"></path><path fill="white" d="M 454 243.4 C 459.3 243.4 459.3 251.4 454 251.4 C 448.6 251.4 448.6 243.4 454 243.4 Z" stroke="#f45b5b" stroke-width="1"></path><path fill="white" d="M 50 281.4 C 55.3 281.4 55.3 289.4 50 289.4 C 44.6 289.4 44.6 281.4 50 281.4 Z" stroke="#f45b5b" stroke-width="1"></path></g></g><text x="292" text-anchor="middle" class="highcharts-title"  style="color:black;font-size:16px;font-weight:bold;fill:black;width:520px;" y="22"><tspan>Highcharts Box Plot Example</tspan></text><g class="highcharts-axis-labels highcharts-xaxis-labels" ><text x="119.5" style="color:#6e6e70;cursor:default;font-size:11px;fill:#6e6e70;width:91px;text-overflow:clip;" text-anchor="middle" transform="translate(0,0)" y="368" opacity="1">1</text><text x="220.5" style="color:#6e6e70;cursor:default;font-size:11px;fill:#6e6e70;width:91px;text-overflow:clip;" text-anchor="middle" transform="translate(0,0)" y="368" opacity="1">2</text><text x="321.5" style="color:#6e6e70;cursor:default;font-size:11px;fill:#6e6e70;width:91px;text-overflow:clip;" text-anchor="middle" transform="translate(0,0)" y="368" opacity="1">3</text><text x="422.5" style="color:#6e6e70;cursor:default;font-size:11px;fill:#6e6e70;width:91px;text-overflow:clip;" text-anchor="middle" transform="translate(0,0)" y="368" opacity="1">4</text><text x="523.5" style="color:#6e6e70;cursor:default;font-size:11px;fill:#6e6e70;width:91px;text-overflow:clip;" text-anchor="middle" transform="translate(0,0)" y="368" opacity="1">5</text></g><g class="highcharts-axis-labels highcharts-yaxis-labels" ><text x="54" style="color:#6e6e70;cursor:default;font-size:11px;fill:#6e6e70;width:183px;text-overflow:clip;" text-anchor="end" transform="translate(0,0)" y="355" opacity="1">600</text><text x="54" style="color:#6e6e70;cursor:default;font-size:11px;fill:#6e6e70;width:183px;text-overflow:clip;" text-anchor="end" transform="translate(0,0)" y="303" opacity="1">700</text><text x="54" style="color:#6e6e70;cursor:default;font-size:11px;fill:#6e6e70;width:183px;text-overflow:clip;" text-anchor="end" transform="translate(0,0)" y="252" opacity="1">800</text><text x="54" style="color:#6e6e70;cursor:default;font-size:11px;fill:#6e6e70;width:183px;text-overflow:clip;" text-anchor="end" transform="translate(0,0)" y="201" opacity="1">900</text><text x="54" style="color:#6e6e70;cursor:default;font-size:11px;fill:#6e6e70;width:183px;text-overflow:clip;" text-anchor="end" transform="translate(0,0)" y="149" opacity="1">1000</text><text x="54" style="color:#6e6e70;cursor:default;font-size:11px;fill:#6e6e70;width:183px;text-overflow:clip;" text-anchor="end" transform="translate(0,0)" y="98" opacity="1">1100</text><text x="54" style="color:#6e6e70;cursor:default;font-size:11px;fill:#6e6e70;width:183px;text-overflow:clip;" text-anchor="end" transform="translate(0,0)" y="47" opacity="1">1200</text></g><g class="highcharts-tooltip"  style="cursor:default;padding:0;white-space:nowrap;" transform="translate(0,-9999)"><path fill="none" d="M 3 0 L 13 0 C 16 0 16 0 16 3 L 16 13 C 16 16 16 16 13 16 L 3 16 C 0 16 0 16 0 13 L 0 3 C 0 0 0 0 3 0"  stroke="black" stroke-opacity="0.0" stroke-width="5" transform="translate(1, 1)"></path><path fill="none" d="M 3 0 L 13 0 C 16 0 16 0 16 3 L 16 13 C 16 16 16 16 13 16 L 3 16 C 0 16 0 16 0 13 L 0 3 C 0 0 0 0 3 0"  stroke="black" stroke-opacity="0.0" stroke-width="3" transform="translate(1, 1)"></path><path fill="none" d="M 3 0 L 13 0 C 16 0 16 0 16 3 L 16 13 C 16 16 16 16 13 16 L 3 16 C 0 16 0 16 0 13 L 0 3 C 0 0 0 0 3 0"  stroke="black" stroke-opacity="0.1" stroke-width="1" transform="translate(1, 1)"></path><path fill="rgb(249, 249, 249)" fill-opacity=" .85" d="M 3 0 L 13 0 C 16 0 16 0 16 3 L 16 13 C 16 16 16 16 13 16 L 3 16 C 0 16 0 16 0 13 L 0 3 C 0 0 0 0 3 0"></path><text x="8"  style="font-size:12px;color:#333333;fill:#333333;" y="20"></text></g></svg>