<svg version="1.1" style="font-family: signika, serif; font-size: 12px; background-image: url(http://www.highcharts.com/samples/graphics/sand.png); background-position: initial initial; background-repeat: initial initial;" xmlns="http://www.w3.org/2000/svg" width="584" height="400" viewBox="0 0 584 400" xmlns:xlink="http://www.w3.org/1999/xlink"><style type="text/css"><![CDATA[@import url(http://fonts.googleapis.com/css?family=Signika:700);]]></style><desc>Created with Highcharts 4.1.7</desc><defs><clipPath id="highcharts-1"><rect x="0" y="0" width="510" height="289"></rect></clipPath></defs><g class="highcharts-grid" ></g><g class="highcharts-grid" ><path fill="none" d="M 64 330.5 L 574 330.5" stroke="#D8D8D8" stroke-width="1"  opacity="1"></path><path fill="none" d="M 64 282.5 L 574 282.5" stroke="#D8D8D8" stroke-width="1"  opacity="1"></path><path fill="none" d="M 64 234.5 L 574 234.5" stroke="#D8D8D8" stroke-width="1"  opacity="1"></path><path fill="none" d="M 64 186.5 L 574 186.5" stroke="#D8D8D8" stroke-width="1"  opacity="1"></path><path fill="none" d="M 64 137.5 L 574 137.5" stroke="#D8D8D8" stroke-width="1"  opacity="1"></path><path fill="none" d="M 64 89.5 L 574 89.5" stroke="#D8D8D8" stroke-width="1"  opacity="1"></path><path fill="none" d="M 64 40.5 L 574 40.5" stroke="#D8D8D8" stroke-width="1"  opacity="1"></path></g><g class="highcharts-axis" ><path fill="none" d="M 82.5 330 L 82.5 340" stroke="#C0D0E0" stroke-width="1" opacity="1"></path><path fill="none" d="M 177.5 330 L 177.5 340" stroke="#C0D0E0" stroke-width="1" opacity="1"></path><path fill="none" d="M 272.5 330 L 272.5 340" stroke="#C0D0E0" stroke-width="1" opacity="1"></path><path fill="none" d="M 366.5 330 L 366.5 340" stroke="#C0D0E0" stroke-width="1" opacity="1"></path><path fill="none" d="M 461.5 330 L 461.5 340" stroke="#C0D0E0" stroke-width="1" opacity="1"></path><path fill="none" d="M 556.5 330 L 556.5 340" stroke="#C0D0E0" stroke-width="1" opacity="1"></path><path fill="none" d="M 64 330.5 L 574 330.5" stroke="#C0D0E0" stroke-width="1"  visibility="visible"></path></g><g class="highcharts-axis" ><text x="22.5"  text-anchor="middle" transform="translate(0,0) rotate(270 22.5 185.5)" class=" highcharts-yaxis-title" style="color:#707070;fill:#707070;" visibility="visible" y="185.5">Values</text></g><g class="highcharts-series-group" ><g class="highcharts-series highcharts-tracker" visibility="visible"  transform="translate(64,41) scale(1 1)" style="" clip-path="url(#highcharts-1)"><circle cx="478.5" cy="171.4" r="27" stroke="black" stroke-width="5" fill="none"  stroke-opacity="0.0" transform="translate(1, 1)"></circle><circle cx="478.5" cy="171.4" r="27" stroke="black" stroke-width="3" fill="none"  stroke-opacity="0.0" transform="translate(1, 1)"></circle><circle cx="478.5" cy="171.4" r="27" stroke="black" stroke-width="1" fill="none"  stroke-opacity="0.1" transform="translate(1, 1)"></circle><circle cx="478.5" cy="171.4" r="27" stroke="#f45b5b" stroke-width="1" fill="rgb(244,91,91)" fill-opacity="0.5"></circle><circle cx="464.3" cy="98.2" r="24" stroke="black" stroke-width="5" fill="none"  stroke-opacity="0.0" transform="translate(1, 1)"></circle><circle cx="464.3" cy="98.2" r="24" stroke="black" stroke-width="3" fill="none"  stroke-opacity="0.0" transform="translate(1, 1)"></circle><circle cx="464.3" cy="98.2" r="24" stroke="black" stroke-width="1" fill="none"  stroke-opacity="0.1" transform="translate(1, 1)"></circle><circle cx="464.3" cy="98.2" r="24" stroke="#f45b5b" stroke-width="1" fill="rgb(244,91,91)" fill-opacity="0.5"></circle><circle cx="341.1" cy="94.4" r="23.5" stroke="black" stroke-width="5" fill="none"  stroke-opacity="0.0" transform="translate(1, 1)"></circle><circle cx="341.1" cy="94.4" r="23.5" stroke="black" stroke-width="3" fill="none"  stroke-opacity="0.0" transform="translate(1, 1)"></circle><circle cx="341.1" cy="94.4" r="23.5" stroke="black" stroke-width="1" fill="none"  stroke-opacity="0.1" transform="translate(1, 1)"></circle><circle cx="341.1" cy="94.4" r="23.5" stroke="#f45b5b" stroke-width="1" fill="rgb(244,91,91)" fill-opacity="0.5"></circle><circle cx="322.2" cy="73.2" r="23.5" stroke="black" stroke-width="5" fill="none"  stroke-opacity="0.0" transform="translate(1, 1)"></circle><circle cx="322.2" cy="73.2" r="23.5" stroke="black" stroke-width="3" fill="none"  stroke-opacity="0.0" transform="translate(1, 1)"></circle><circle cx="322.2" cy="73.2" r="23.5" stroke="black" stroke-width="1" fill="none"  stroke-opacity="0.1" transform="translate(1, 1)"></circle><circle cx="322.2" cy="73.2" r="23.5" stroke="#f45b5b" stroke-width="1" fill="rgb(244,91,91)" fill-opacity="0.5"></circle><circle cx="341.1" cy="188.8" r="26" stroke="black" stroke-width="5" fill="none"  stroke-opacity="0.0" transform="translate(1, 1)"></circle><circle cx="341.1" cy="188.8" r="26" stroke="black" stroke-width="3" fill="none"  stroke-opacity="0.0" transform="translate(1, 1)"></circle><circle cx="341.1" cy="188.8" r="26" stroke="black" stroke-width="1" fill="none"  stroke-opacity="0.1" transform="translate(1, 1)"></circle><circle cx="341.1" cy="188.8" r="26" stroke="#f45b5b" stroke-width="1" fill="rgb(244,91,91)" fill-opacity="0.5"></circle><circle cx="369.5" cy="50.0" r="20.5" stroke="black" stroke-width="5" fill="none"  stroke-opacity="0.0" transform="translate(1, 1)"></circle><circle cx="369.5" cy="50.0" r="20.5" stroke="black" stroke-width="3" fill="none"  stroke-opacity="0.0" transform="translate(1, 1)"></circle><circle cx="369.5" cy="50.0" r="20.5" stroke="black" stroke-width="1" fill="none"  stroke-opacity="0.1" transform="translate(1, 1)"></circle><circle cx="369.5" cy="50.0" r="20.5" stroke="#f45b5b" stroke-width="1" fill="rgb(244,91,91)" fill-opacity="0.5"></circle><circle cx="52.2" cy="61.6" r="28.5" stroke="black" stroke-width="5" fill="none"  stroke-opacity="0.0" transform="translate(1, 1)"></circle><circle cx="52.2" cy="61.6" r="28.5" stroke="black" stroke-width="3" fill="none"  stroke-opacity="0.0" transform="translate(1, 1)"></circle><circle cx="52.2" cy="61.6" r="28.5" stroke="black" stroke-width="1" fill="none"  stroke-opacity="0.1" transform="translate(1, 1)"></circle><circle cx="52.2" cy="61.6" r="28.5" stroke="#f45b5b" stroke-width="1" fill="rgb(244,91,91)" fill-opacity="0.5"></circle><circle cx="260.6" cy="107.8" r="20" stroke="black" stroke-width="5" fill="none"  stroke-opacity="0.0" transform="translate(1, 1)"></circle><circle cx="260.6" cy="107.8" r="20" stroke="black" stroke-width="3" fill="none"  stroke-opacity="0.0" transform="translate(1, 1)"></circle><circle cx="260.6" cy="107.8" r="20" stroke="black" stroke-width="1" fill="none"  stroke-opacity="0.1" transform="translate(1, 1)"></circle><circle cx="260.6" cy="107.8" r="20" stroke="#f45b5b" stroke-width="1" fill="rgb(244,91,91)" fill-opacity="0.5"></circle><circle cx="199.0" cy="196.5" r="18.5" stroke="black" stroke-width="5" fill="none"  stroke-opacity="0.0" transform="translate(1, 1)"></circle><circle cx="199.0" cy="196.5" r="18.5" stroke="black" stroke-width="3" fill="none"  stroke-opacity="0.0" transform="translate(1, 1)"></circle><circle cx="199.0" cy="196.5" r="18.5" stroke="black" stroke-width="1" fill="none"  stroke-opacity="0.1" transform="translate(1, 1)"></circle><circle cx="199.0" cy="196.5" r="18.5" stroke="#f45b5b" stroke-width="1" fill="rgb(244,91,91)" fill-opacity="0.5"></circle><circle cx="289.0" cy="75.1" r="18" stroke="black" stroke-width="5" fill="none"  stroke-opacity="0.0" transform="translate(1, 1)"></circle><circle cx="289.0" cy="75.1" r="18" stroke="black" stroke-width="3" fill="none"  stroke-opacity="0.0" transform="translate(1, 1)"></circle><circle cx="289.0" cy="75.1" r="18" stroke="black" stroke-width="1" fill="none"  stroke-opacity="0.1" transform="translate(1, 1)"></circle><circle cx="289.0" cy="75.1" r="18" stroke="#f45b5b" stroke-width="1" fill="rgb(244,91,91)" fill-opacity="0.5"></circle></g><g class="highcharts-markers" visibility="visible"  transform="translate(64,41) scale(1 1)"></g><g class="highcharts-series highcharts-tracker" visibility="visible"  transform="translate(64,41) scale(1 1)" style="" clip-path="url(#highcharts-1)"><circle cx="137.4" cy="221.5" r="28.5" stroke="black" stroke-width="5" fill="none"  stroke-opacity="0.0" transform="translate(1, 1)"></circle><circle cx="137.4" cy="221.5" r="28.5" stroke="black" stroke-width="3" fill="none"  stroke-opacity="0.0" transform="translate(1, 1)"></circle><circle cx="137.4" cy="221.5" r="28.5" stroke="black" stroke-width="1" fill="none"  stroke-opacity="0.1" transform="translate(1, 1)"></circle><circle cx="137.4" cy="221.5" r="28.5" stroke="#8085e9" stroke-width="1" fill="rgb(128,133,233)" fill-opacity="0.5"></circle><circle cx="28.5" cy="96.3" r="24" stroke="black" stroke-width="5" fill="none"  stroke-opacity="0.0" transform="translate(1, 1)"></circle><circle cx="28.5" cy="96.3" r="24" stroke="black" stroke-width="3" fill="none"  stroke-opacity="0.0" transform="translate(1, 1)"></circle><circle cx="28.5" cy="96.3" r="24" stroke="black" stroke-width="1" fill="none"  stroke-opacity="0.1" transform="translate(1, 1)"></circle><circle cx="28.5" cy="96.3" r="24" stroke="#8085e9" stroke-width="1" fill="rgb(128,133,233)" fill-opacity="0.5"></circle><circle cx="71.1" cy="136.7" r="9.5" stroke="black" stroke-width="5" fill="none"  stroke-opacity="0.0" transform="translate(1, 1)"></circle><circle cx="71.1" cy="136.7" r="9.5" stroke="black" stroke-width="3" fill="none"  stroke-opacity="0.0" transform="translate(1, 1)"></circle><circle cx="71.1" cy="136.7" r="9.5" stroke="black" stroke-width="1" fill="none"  stroke-opacity="0.1" transform="translate(1, 1)"></circle><circle cx="71.1" cy="136.7" r="9.5" stroke="#8085e9" stroke-width="1" fill="rgb(128,133,233)" fill-opacity="0.5"></circle><circle cx="426.4" cy="134.8" r="29" stroke="black" stroke-width="5" fill="none"  stroke-opacity="0.0" transform="translate(1, 1)"></circle><circle cx="426.4" cy="134.8" r="29" stroke="black" stroke-width="3" fill="none"  stroke-opacity="0.0" transform="translate(1, 1)"></circle><circle cx="426.4" cy="134.8" r="29" stroke="black" stroke-width="1" fill="none"  stroke-opacity="0.1" transform="translate(1, 1)"></circle><circle cx="426.4" cy="134.8" r="29" stroke="#8085e9" stroke-width="1" fill="rgb(128,133,233)" fill-opacity="0.5"></circle><circle cx="42.7" cy="235.0" r="23.5" stroke="black" stroke-width="5" fill="none"  stroke-opacity="0.0" transform="translate(1, 1)"></circle><circle cx="42.7" cy="235.0" r="23.5" stroke="black" stroke-width="3" fill="none"  stroke-opacity="0.0" transform="translate(1, 1)"></circle><circle cx="42.7" cy="235.0" r="23.5" stroke="black" stroke-width="1" fill="none"  stroke-opacity="0.1" transform="translate(1, 1)"></circle><circle cx="42.7" cy="235.0" r="23.5" stroke="#8085e9" stroke-width="1" fill="rgb(128,133,233)" fill-opacity="0.5"></circle><circle cx="445.3" cy="119.4" r="21" stroke="black" stroke-width="5" fill="none"  stroke-opacity="0.0" transform="translate(1, 1)"></circle><circle cx="445.3" cy="119.4" r="21" stroke="black" stroke-width="3" fill="none"  stroke-opacity="0.0" transform="translate(1, 1)"></circle><circle cx="445.3" cy="119.4" r="21" stroke="black" stroke-width="1" fill="none"  stroke-opacity="0.1" transform="translate(1, 1)"></circle><circle cx="445.3" cy="119.4" r="21" stroke="#8085e9" stroke-width="1" fill="rgb(128,133,233)" fill-opacity="0.5"></circle><circle cx="450.1" cy="177.2" r="14" stroke="black" stroke-width="5" fill="none"  stroke-opacity="0.0" transform="translate(1, 1)"></circle><circle cx="450.1" cy="177.2" r="14" stroke="black" stroke-width="3" fill="none"  stroke-opacity="0.0" transform="translate(1, 1)"></circle><circle cx="450.1" cy="177.2" r="14" stroke="black" stroke-width="1" fill="none"  stroke-opacity="0.1" transform="translate(1, 1)"></circle><circle cx="450.1" cy="177.2" r="14" stroke="#8085e9" stroke-width="1" fill="rgb(128,133,233)" fill-opacity="0.5"></circle><circle cx="478.5" cy="235.0" r="23.5" stroke="black" stroke-width="5" fill="none"  stroke-opacity="0.0" transform="translate(1, 1)"></circle><circle cx="478.5" cy="235.0" r="23.5" stroke="black" stroke-width="3" fill="none"  stroke-opacity="0.0" transform="translate(1, 1)"></circle><circle cx="478.5" cy="235.0" r="23.5" stroke="black" stroke-width="1" fill="none"  stroke-opacity="0.1" transform="translate(1, 1)"></circle><circle cx="478.5" cy="235.0" r="23.5" stroke="#8085e9" stroke-width="1" fill="rgb(128,133,233)" fill-opacity="0.5"></circle><circle cx="90.1" cy="111.7" r="22" stroke="black" stroke-width="5" fill="none"  stroke-opacity="0.0" transform="translate(1, 1)"></circle><circle cx="90.1" cy="111.7" r="22" stroke="black" stroke-width="3" fill="none"  stroke-opacity="0.0" transform="translate(1, 1)"></circle><circle cx="90.1" cy="111.7" r="22" stroke="black" stroke-width="1" fill="none"  stroke-opacity="0.1" transform="translate(1, 1)"></circle><circle cx="90.1" cy="111.7" r="22" stroke="#8085e9" stroke-width="1" fill="rgb(128,133,233)" fill-opacity="0.5"></circle><circle cx="274.8" cy="192.6" r="27.5" stroke="black" stroke-width="5" fill="none"  stroke-opacity="0.0" transform="translate(1, 1)"></circle><circle cx="274.8" cy="192.6" r="27.5" stroke="black" stroke-width="3" fill="none"  stroke-opacity="0.0" transform="translate(1, 1)"></circle><circle cx="274.8" cy="192.6" r="27.5" stroke="black" stroke-width="1" fill="none"  stroke-opacity="0.1" transform="translate(1, 1)"></circle><circle cx="274.8" cy="192.6" r="27.5" stroke="#8085e9" stroke-width="1" fill="rgb(128,133,233)" fill-opacity="0.5"></circle></g><g class="highcharts-markers" visibility="visible"  transform="translate(64,41) scale(1 1)"></g><g class="highcharts-series highcharts-tracker" visibility="visible"  transform="translate(64,41) scale(1 1)" style="" clip-path="url(#highcharts-1)"><circle cx="241.6" cy="150.2" r="15" stroke="black" stroke-width="5" fill="none"  stroke-opacity="0.0" transform="translate(1, 1)"></circle><circle cx="241.6" cy="150.2" r="15" stroke="black" stroke-width="3" fill="none"  stroke-opacity="0.0" transform="translate(1, 1)"></circle><circle cx="241.6" cy="150.2" r="15" stroke="black" stroke-width="1" fill="none"  stroke-opacity="0.1" transform="translate(1, 1)"></circle><circle cx="241.6" cy="150.2" r="15" stroke="#8d4654" stroke-width="1" fill="rgb(141,70,84)" fill-opacity="0.5"></circle><circle cx="113.7" cy="217.7" r="4" stroke="black" stroke-width="5" fill="none"  stroke-opacity="0.0" transform="translate(1, 1)"></circle><circle cx="113.7" cy="217.7" r="4" stroke="black" stroke-width="3" fill="none"  stroke-opacity="0.0" transform="translate(1, 1)"></circle><circle cx="113.7" cy="217.7" r="4" stroke="black" stroke-width="1" fill="none"  stroke-opacity="0.1" transform="translate(1, 1)"></circle><circle cx="113.7" cy="217.7" r="4" stroke="#8d4654" stroke-width="1" fill="rgb(141,70,84)" fill-opacity="0.5"></circle><circle cx="47.4" cy="94.4" r="29" stroke="black" stroke-width="5" fill="none"  stroke-opacity="0.0" transform="translate(1, 1)"></circle><circle cx="47.4" cy="94.4" r="29" stroke="black" stroke-width="3" fill="none"  stroke-opacity="0.0" transform="translate(1, 1)"></circle><circle cx="47.4" cy="94.4" r="29" stroke="black" stroke-width="1" fill="none"  stroke-opacity="0.1" transform="translate(1, 1)"></circle><circle cx="47.4" cy="94.4" r="29" stroke="#8d4654" stroke-width="1" fill="rgb(141,70,84)" fill-opacity="0.5"></circle><circle cx="199.0" cy="183.0" r="24" stroke="black" stroke-width="5" fill="none"  stroke-opacity="0.0" transform="translate(1, 1)"></circle><circle cx="199.0" cy="183.0" r="24" stroke="black" stroke-width="3" fill="none"  stroke-opacity="0.0" transform="translate(1, 1)"></circle><circle cx="199.0" cy="183.0" r="24" stroke="black" stroke-width="1" fill="none"  stroke-opacity="0.1" transform="translate(1, 1)"></circle><circle cx="199.0" cy="183.0" r="24" stroke="#8d4654" stroke-width="1" fill="rgb(141,70,84)" fill-opacity="0.5"></circle><circle cx="289.0" cy="52.0" r="24.5" stroke="black" stroke-width="5" fill="none"  stroke-opacity="0.0" transform="translate(1, 1)"></circle><circle cx="289.0" cy="52.0" r="24.5" stroke="black" stroke-width="3" fill="none"  stroke-opacity="0.0" transform="translate(1, 1)"></circle><circle cx="289.0" cy="52.0" r="24.5" stroke="black" stroke-width="1" fill="none"  stroke-opacity="0.1" transform="translate(1, 1)"></circle><circle cx="289.0" cy="52.0" r="24.5" stroke="#8d4654" stroke-width="1" fill="rgb(141,70,84)" fill-opacity="0.5"></circle><circle cx="308.0" cy="208.0" r="27.5" stroke="black" stroke-width="5" fill="none"  stroke-opacity="0.0" transform="translate(1, 1)"></circle><circle cx="308.0" cy="208.0" r="27.5" stroke="black" stroke-width="3" fill="none"  stroke-opacity="0.0" transform="translate(1, 1)"></circle><circle cx="308.0" cy="208.0" r="27.5" stroke="black" stroke-width="1" fill="none"  stroke-opacity="0.1" transform="translate(1, 1)"></circle><circle cx="308.0" cy="208.0" r="27.5" stroke="#8d4654" stroke-width="1" fill="rgb(141,70,84)" fill-opacity="0.5"></circle><circle cx="412.2" cy="125.2" r="12" stroke="black" stroke-width="5" fill="none"  stroke-opacity="0.0" transform="translate(1, 1)"></circle><circle cx="412.2" cy="125.2" r="12" stroke="black" stroke-width="3" fill="none"  stroke-opacity="0.0" transform="translate(1, 1)"></circle><circle cx="412.2" cy="125.2" r="12" stroke="black" stroke-width="1" fill="none"  stroke-opacity="0.1" transform="translate(1, 1)"></circle><circle cx="412.2" cy="125.2" r="12" stroke="#8d4654" stroke-width="1" fill="rgb(141,70,84)" fill-opacity="0.5"></circle><circle cx="336.4" cy="90.5" r="26.5" stroke="black" stroke-width="5" fill="none"  stroke-opacity="0.0" transform="translate(1, 1)"></circle><circle cx="336.4" cy="90.5" r="26.5" stroke="black" stroke-width="3" fill="none"  stroke-opacity="0.0" transform="translate(1, 1)"></circle><circle cx="336.4" cy="90.5" r="26.5" stroke="black" stroke-width="1" fill="none"  stroke-opacity="0.1" transform="translate(1, 1)"></circle><circle cx="336.4" cy="90.5" r="26.5" stroke="#8d4654" stroke-width="1" fill="rgb(141,70,84)" fill-opacity="0.5"></circle><circle cx="322.2" cy="217.7" r="10.5" stroke="black" stroke-width="5" fill="none"  stroke-opacity="0.0" transform="translate(1, 1)"></circle><circle cx="322.2" cy="217.7" r="10.5" stroke="black" stroke-width="3" fill="none"  stroke-opacity="0.0" transform="translate(1, 1)"></circle><circle cx="322.2" cy="217.7" r="10.5" stroke="black" stroke-width="1" fill="none"  stroke-opacity="0.1" transform="translate(1, 1)"></circle><circle cx="322.2" cy="217.7" r="10.5" stroke="#8d4654" stroke-width="1" fill="rgb(141,70,84)" fill-opacity="0.5"></circle><circle cx="161.1" cy="92.4" r="27.5" stroke="black" stroke-width="5" fill="none"  stroke-opacity="0.0" transform="translate(1, 1)"></circle><circle cx="161.1" cy="92.4" r="27.5" stroke="black" stroke-width="3" fill="none"  stroke-opacity="0.0" transform="translate(1, 1)"></circle><circle cx="161.1" cy="92.4" r="27.5" stroke="black" stroke-width="1" fill="none"  stroke-opacity="0.1" transform="translate(1, 1)"></circle><circle cx="161.1" cy="92.4" r="27.5" stroke="#8d4654" stroke-width="1" fill="rgb(141,70,84)" fill-opacity="0.5"></circle></g><g class="highcharts-markers" visibility="visible"  transform="translate(64,41) scale(1 1)"></g></g><text x="292" text-anchor="middle" class="highcharts-title"  style="color:black;font-size:16px;font-weight:bold;fill:black;width:520px;" y="22"><tspan>Highcharts Bubbles</tspan></text><g class="highcharts-legend"  transform="translate(168,361)"><g ><g><g class="highcharts-legend-item"  transform="translate(8,3)"><text x="21" style="color:#333333;font-size:13px;font-weight:bold;cursor:pointer;fill:#333333;" text-anchor="start"  y="16"><tspan>Series 1</tspan></text><circle cx="6.5" cy="9.5" r="6.5"  fill="rgb(244,91,91)" fill-opacity="0.5" stroke="#f45b5b" stroke-width="1"></circle></g><g class="highcharts-legend-item"  transform="translate(91.9,3)"><text x="21" y="16" style="color:#333333;font-size:13px;font-weight:bold;cursor:pointer;fill:#333333;" text-anchor="start" ><tspan>Series 2</tspan></text><circle cx="6.5" cy="9.5" r="6.5"  fill="rgb(128,133,233)" fill-opacity="0.5" stroke="#8085e9" stroke-width="1"></circle></g><g class="highcharts-legend-item"  transform="translate(175.8,3)"><text x="21" y="16" style="color:#333333;font-size:13px;font-weight:bold;cursor:pointer;fill:#333333;" text-anchor="start" ><tspan>Series 3</tspan></text><circle cx="6.5" cy="9.5" r="6.5"  fill="rgb(141,70,84)" fill-opacity="0.5" stroke="#8d4654" stroke-width="1"></circle></g></g></g></g><g class="highcharts-axis-labels highcharts-xaxis-labels" ><text x="83.0" style="color:#6e6e70;cursor:default;font-size:11px;fill:#6e6e70;width:92px;text-overflow:clip;" text-anchor="middle" transform="translate(0,0)" y="349" opacity="1">0</text><text x="177.7" style="color:#6e6e70;cursor:default;font-size:11px;fill:#6e6e70;width:92px;text-overflow:clip;" text-anchor="middle" transform="translate(0,0)" y="349" opacity="1">20</text><text x="272.5" style="color:#6e6e70;cursor:default;font-size:11px;fill:#6e6e70;width:92px;text-overflow:clip;" text-anchor="middle" transform="translate(0,0)" y="349" opacity="1">40</text><text x="367.2" style="color:#6e6e70;cursor:default;font-size:11px;fill:#6e6e70;width:92px;text-overflow:clip;" text-anchor="middle" transform="translate(0,0)" y="349" opacity="1">60</text><text x="462.0" style="color:#6e6e70;cursor:default;font-size:11px;fill:#6e6e70;width:92px;text-overflow:clip;" text-anchor="middle" transform="translate(0,0)" y="349" opacity="1">80</text><text x="556.7" style="color:#6e6e70;cursor:default;font-size:11px;fill:#6e6e70;width:92px;text-overflow:clip;" text-anchor="middle" transform="translate(0,0)" y="349" opacity="1">100</text></g><g class="highcharts-axis-labels highcharts-yaxis-labels" ><text x="49" style="color:#6e6e70;cursor:default;font-size:11px;fill:#6e6e70;width:183px;text-overflow:clip;" text-anchor="end" transform="translate(0,0)" y="336" opacity="1">-25</text><text x="49" style="color:#6e6e70;cursor:default;font-size:11px;fill:#6e6e70;width:183px;text-overflow:clip;" text-anchor="end" transform="translate(0,0)" y="287" opacity="1">0</text><text x="49" style="color:#6e6e70;cursor:default;font-size:11px;fill:#6e6e70;width:183px;text-overflow:clip;" text-anchor="end" transform="translate(0,0)" y="239" opacity="1">25</text><text x="49" style="color:#6e6e70;cursor:default;font-size:11px;fill:#6e6e70;width:183px;text-overflow:clip;" text-anchor="end" transform="translate(0,0)" y="191" opacity="1">50</text><text x="49" style="color:#6e6e70;cursor:default;font-size:11px;fill:#6e6e70;width:183px;text-overflow:clip;" text-anchor="end" transform="translate(0,0)" y="143" opacity="1">75</text><text x="49" style="color:#6e6e70;cursor:default;font-size:11px;fill:#6e6e70;width:183px;text-overflow:clip;" text-anchor="end" transform="translate(0,0)" y="95" opacity="1">100</text><text x="49" style="color:#6e6e70;cursor:default;font-size:11px;fill:#6e6e70;width:183px;text-overflow:clip;" text-anchor="end" transform="translate(0,0)" y="47" opacity="1">125</text></g><g class="highcharts-tooltip"  style="cursor:default;padding:0;white-space:nowrap;" transform="translate(0,-9999)"><path fill="none" d="M 3 0 L 13 0 C 16 0 16 0 16 3 L 16 13 C 16 16 16 16 13 16 L 3 16 C 0 16 0 16 0 13 L 0 3 C 0 0 0 0 3 0"  stroke="black" stroke-opacity="0.0" stroke-width="5" transform="translate(1, 1)"></path><path fill="none" d="M 3 0 L 13 0 C 16 0 16 0 16 3 L 16 13 C 16 16 16 16 13 16 L 3 16 C 0 16 0 16 0 13 L 0 3 C 0 0 0 0 3 0"  stroke="black" stroke-opacity="0.0" stroke-width="3" transform="translate(1, 1)"></path><path fill="none" d="M 3 0 L 13 0 C 16 0 16 0 16 3 L 16 13 C 16 16 16 16 13 16 L 3 16 C 0 16 0 16 0 13 L 0 3 C 0 0 0 0 3 0"  stroke="black" stroke-opacity="0.1" stroke-width="1" transform="translate(1, 1)"></path><path fill="rgb(249, 249, 249)" fill-opacity=" .85" d="M 3 0 L 13 0 C 16 0 16 0 16 3 L 16 13 C 16 16 16 16 13 16 L 3 16 C 0 16 0 16 0 13 L 0 3 C 0 0 0 0 3 0"></path><text x="8"  style="font-size:12px;color:#333333;fill:#333333;" y="20"></text></g></svg>