<svg version="1.1" style="font-family: signika, serif; font-size: 12px; background-image: url(http://www.highcharts.com/samples/graphics/sand.png); background-position: initial initial; background-repeat: initial initial;" xmlns="http://www.w3.org/2000/svg" width="584" height="400" viewBox="0 0 584 400" xmlns:xlink="http://www.w3.org/1999/xlink"><style type="text/css"><![CDATA[@import url(http://fonts.googleapis.com/css?family=Signika:700);]]></style><desc>Created with Highcharts 4.1.7</desc><defs><radialGradient cx="0.4" cy="0.3" r="0.7" id="highcharts-1"><stop offset="0" stop-color="rgb(255,255,255)" stop-opacity="0.5"></stop><stop offset="1" stop-color="rgb(244,91,91)" stop-opacity="0.5"></stop></radialGradient><radialGradient cx="0.4" cy="0.3" r="0.7" id="highcharts-2"><stop offset="0" stop-color="rgb(255,255,255)" stop-opacity="0.5"></stop><stop offset="1" stop-color="rgb(128,133,233)" stop-opacity="0.5"></stop></radialGradient><clipPath id="highcharts-3"><rect x="0" y="0" width="510" height="289"></rect></clipPath></defs><g class="highcharts-grid" ><path fill="none" d="M 86.5 41 L 86.5 330" stroke="#D8D8D8" stroke-width="1"  opacity="1"></path><path fill="none" d="M 179.5 41 L 179.5 330" stroke="#D8D8D8" stroke-width="1"  opacity="1"></path><path fill="none" d="M 271.5 41 L 271.5 330" stroke="#D8D8D8" stroke-width="1"  opacity="1"></path><path fill="none" d="M 364.5 41 L 364.5 330" stroke="#D8D8D8" stroke-width="1"  opacity="1"></path><path fill="none" d="M 457.5 41 L 457.5 330" stroke="#D8D8D8" stroke-width="1"  opacity="1"></path><path fill="none" d="M 550.5 41 L 550.5 330" stroke="#D8D8D8" stroke-width="1"  opacity="1"></path></g><g class="highcharts-grid" ><path fill="none" d="M 64 296.5 L 574 296.5" stroke="#D8D8D8" stroke-width="1"  opacity="1"></path><path fill="none" d="M 64 237.5 L 574 237.5" stroke="#D8D8D8" stroke-width="1"  opacity="1"></path><path fill="none" d="M 64 177.5 L 574 177.5" stroke="#D8D8D8" stroke-width="1"  opacity="1"></path><path fill="none" d="M 64 118.5 L 574 118.5" stroke="#D8D8D8" stroke-width="1"  opacity="1"></path><path fill="none" d="M 64 58.5 L 574 58.5" stroke="#D8D8D8" stroke-width="1"  opacity="1"></path></g><rect x="63.5" y="40.5" width="511" height="290" strokeWidth="-1" stroke="#C0C0C0" stroke-width="1" fill="none" ></rect><g class="highcharts-axis" ><path fill="none" d="M 86.5 330 L 86.5 340" stroke="#C0D0E0" stroke-width="1" opacity="1"></path><path fill="none" d="M 179.5 330 L 179.5 340" stroke="#C0D0E0" stroke-width="1" opacity="1"></path><path fill="none" d="M 271.5 330 L 271.5 340" stroke="#C0D0E0" stroke-width="1" opacity="1"></path><path fill="none" d="M 364.5 330 L 364.5 340" stroke="#C0D0E0" stroke-width="1" opacity="1"></path><path fill="none" d="M 457.5 330 L 457.5 340" stroke="#C0D0E0" stroke-width="1" opacity="1"></path><path fill="none" d="M 550.5 330 L 550.5 340" stroke="#C0D0E0" stroke-width="1" opacity="1"></path><path fill="none" d="M 64 330.5 L 574 330.5" stroke="#C0D0E0" stroke-width="1"  visibility="visible"></path></g><g class="highcharts-axis" ><text x="22.5"  text-anchor="middle" transform="translate(0,0) rotate(270 22.5 185.5)" class=" highcharts-yaxis-title" style="color:#707070;fill:#707070;" visibility="visible" y="185.5">Values</text></g><g class="highcharts-series-group" ><g class="highcharts-series highcharts-tracker" visibility="visible"  transform="translate(64,41) scale(1 1)" style="" clip-path="url(#highcharts-3)"><circle cx="64.6" cy="62.6" r="24" stroke="black" stroke-width="5" fill="none"  stroke-opacity="0.0" transform="translate(1, 1)"></circle><circle cx="64.6" cy="62.6" r="24" stroke="black" stroke-width="3" fill="none"  stroke-opacity="0.0" transform="translate(1, 1)"></circle><circle cx="64.6" cy="62.6" r="24" stroke="black" stroke-width="1" fill="none"  stroke-opacity="0.1" transform="translate(1, 1)"></circle><circle cx="64.6" cy="62.6" r="24" stroke="#f45b5b" stroke-width="1" fill="url(#highcharts-1)"></circle><circle cx="477.5" cy="243.3" r="28" stroke="black" stroke-width="5" fill="none"  stroke-opacity="0.0" transform="translate(1, 1)"></circle><circle cx="477.5" cy="243.3" r="28" stroke="black" stroke-width="3" fill="none"  stroke-opacity="0.0" transform="translate(1, 1)"></circle><circle cx="477.5" cy="243.3" r="28" stroke="black" stroke-width="1" fill="none"  stroke-opacity="0.1" transform="translate(1, 1)"></circle><circle cx="477.5" cy="243.3" r="28" stroke="#f45b5b" stroke-width="1" fill="url(#highcharts-1)"></circle><circle cx="259.5" cy="136.3" r="25.5" stroke="black" stroke-width="5" fill="none"  stroke-opacity="0.0" transform="translate(1, 1)"></circle><circle cx="259.5" cy="136.3" r="25.5" stroke="black" stroke-width="3" fill="none"  stroke-opacity="0.0" transform="translate(1, 1)"></circle><circle cx="259.5" cy="136.3" r="25.5" stroke="black" stroke-width="1" fill="none"  stroke-opacity="0.1" transform="translate(1, 1)"></circle><circle cx="259.5" cy="136.3" r="25.5" stroke="#f45b5b" stroke-width="1" fill="url(#highcharts-1)"></circle><circle cx="213.1" cy="202.9" r="13.5" stroke="black" stroke-width="5" fill="none"  stroke-opacity="0.0" transform="translate(1, 1)"></circle><circle cx="213.1" cy="202.9" r="13.5" stroke="black" stroke-width="3" fill="none"  stroke-opacity="0.0" transform="translate(1, 1)"></circle><circle cx="213.1" cy="202.9" r="13.5" stroke="black" stroke-width="1" fill="none"  stroke-opacity="0.1" transform="translate(1, 1)"></circle><circle cx="213.1" cy="202.9" r="13.5" stroke="#f45b5b" stroke-width="1" fill="url(#highcharts-1)"></circle><circle cx="291.9" cy="198.1" r="15.5" stroke="black" stroke-width="5" fill="none"  stroke-opacity="0.0" transform="translate(1, 1)"></circle><circle cx="291.9" cy="198.1" r="15.5" stroke="black" stroke-width="3" fill="none"  stroke-opacity="0.0" transform="translate(1, 1)"></circle><circle cx="291.9" cy="198.1" r="15.5" stroke="black" stroke-width="1" fill="none"  stroke-opacity="0.1" transform="translate(1, 1)"></circle><circle cx="291.9" cy="198.1" r="15.5" stroke="#f45b5b" stroke-width="1" fill="url(#highcharts-1)"></circle><circle cx="384.7" cy="167.2" r="19" stroke="black" stroke-width="5" fill="none"  stroke-opacity="0.0" transform="translate(1, 1)"></circle><circle cx="384.7" cy="167.2" r="19" stroke="black" stroke-width="3" fill="none"  stroke-opacity="0.0" transform="translate(1, 1)"></circle><circle cx="384.7" cy="167.2" r="19" stroke="black" stroke-width="1" fill="none"  stroke-opacity="0.1" transform="translate(1, 1)"></circle><circle cx="384.7" cy="167.2" r="19" stroke="#f45b5b" stroke-width="1" fill="url(#highcharts-1)"></circle><circle cx="278.0" cy="122.0" r="22.5" stroke="black" stroke-width="5" fill="none"  stroke-opacity="0.0" transform="translate(1, 1)"></circle><circle cx="278.0" cy="122.0" r="22.5" stroke="black" stroke-width="3" fill="none"  stroke-opacity="0.0" transform="translate(1, 1)"></circle><circle cx="278.0" cy="122.0" r="22.5" stroke="black" stroke-width="1" fill="none"  stroke-opacity="0.1" transform="translate(1, 1)"></circle><circle cx="278.0" cy="122.0" r="22.5" stroke="#f45b5b" stroke-width="1" fill="url(#highcharts-1)"></circle><circle cx="106.4" cy="148.2" r="25.5" stroke="black" stroke-width="5" fill="none"  stroke-opacity="0.0" transform="translate(1, 1)"></circle><circle cx="106.4" cy="148.2" r="25.5" stroke="black" stroke-width="3" fill="none"  stroke-opacity="0.0" transform="translate(1, 1)"></circle><circle cx="106.4" cy="148.2" r="25.5" stroke="black" stroke-width="1" fill="none"  stroke-opacity="0.1" transform="translate(1, 1)"></circle><circle cx="106.4" cy="148.2" r="25.5" stroke="#f45b5b" stroke-width="1" fill="url(#highcharts-1)"></circle><circle cx="217.7" cy="150.5" r="17.5" stroke="black" stroke-width="5" fill="none"  stroke-opacity="0.0" transform="translate(1, 1)"></circle><circle cx="217.7" cy="150.5" r="17.5" stroke="black" stroke-width="3" fill="none"  stroke-opacity="0.0" transform="translate(1, 1)"></circle><circle cx="217.7" cy="150.5" r="17.5" stroke="black" stroke-width="1" fill="none"  stroke-opacity="0.1" transform="translate(1, 1)"></circle><circle cx="217.7" cy="150.5" r="17.5" stroke="#f45b5b" stroke-width="1" fill="url(#highcharts-1)"></circle><circle cx="36.8" cy="131.5" r="23.5" stroke="black" stroke-width="5" fill="none"  stroke-opacity="0.0" transform="translate(1, 1)"></circle><circle cx="36.8" cy="131.5" r="23.5" stroke="black" stroke-width="3" fill="none"  stroke-opacity="0.0" transform="translate(1, 1)"></circle><circle cx="36.8" cy="131.5" r="23.5" stroke="black" stroke-width="1" fill="none"  stroke-opacity="0.1" transform="translate(1, 1)"></circle><circle cx="36.8" cy="131.5" r="23.5" stroke="#f45b5b" stroke-width="1" fill="url(#highcharts-1)"></circle><circle cx="166.7" cy="212.4" r="29" stroke="black" stroke-width="5" fill="none"  stroke-opacity="0.0" transform="translate(1, 1)"></circle><circle cx="166.7" cy="212.4" r="29" stroke="black" stroke-width="3" fill="none"  stroke-opacity="0.0" transform="translate(1, 1)"></circle><circle cx="166.7" cy="212.4" r="29" stroke="black" stroke-width="1" fill="none"  stroke-opacity="0.1" transform="translate(1, 1)"></circle><circle cx="166.7" cy="212.4" r="29" stroke="#f45b5b" stroke-width="1" fill="url(#highcharts-1)"></circle><circle cx="389.4" cy="38.8" r="24" stroke="black" stroke-width="5" fill="none"  stroke-opacity="0.0" transform="translate(1, 1)"></circle><circle cx="389.4" cy="38.8" r="24" stroke="black" stroke-width="3" fill="none"  stroke-opacity="0.0" transform="translate(1, 1)"></circle><circle cx="389.4" cy="38.8" r="24" stroke="black" stroke-width="1" fill="none"  stroke-opacity="0.1" transform="translate(1, 1)"></circle><circle cx="389.4" cy="38.8" r="24" stroke="#f45b5b" stroke-width="1" fill="url(#highcharts-1)"></circle><circle cx="454.3" cy="200.5" r="16" stroke="black" stroke-width="5" fill="none"  stroke-opacity="0.0" transform="translate(1, 1)"></circle><circle cx="454.3" cy="200.5" r="16" stroke="black" stroke-width="3" fill="none"  stroke-opacity="0.0" transform="translate(1, 1)"></circle><circle cx="454.3" cy="200.5" r="16" stroke="black" stroke-width="1" fill="none"  stroke-opacity="0.1" transform="translate(1, 1)"></circle><circle cx="454.3" cy="200.5" r="16" stroke="#f45b5b" stroke-width="1" fill="url(#highcharts-1)"></circle><circle cx="227.0" cy="57.8" r="16" stroke="black" stroke-width="5" fill="none"  stroke-opacity="0.0" transform="translate(1, 1)"></circle><circle cx="227.0" cy="57.8" r="16" stroke="black" stroke-width="3" fill="none"  stroke-opacity="0.0" transform="translate(1, 1)"></circle><circle cx="227.0" cy="57.8" r="16" stroke="black" stroke-width="1" fill="none"  stroke-opacity="0.1" transform="translate(1, 1)"></circle><circle cx="227.0" cy="57.8" r="16" stroke="#f45b5b" stroke-width="1" fill="url(#highcharts-1)"></circle></g><g class="highcharts-markers" visibility="visible"  transform="translate(64,41) scale(1 1)"></g><g class="highcharts-series highcharts-tracker" visibility="visible"  transform="translate(64,41) scale(1 1)" style="" clip-path="url(#highcharts-3)"><circle cx="217.7" cy="164.8" r="15.5" stroke="black" stroke-width="5" fill="none"  stroke-opacity="0.0" transform="translate(1, 1)"></circle><circle cx="217.7" cy="164.8" r="15.5" stroke="black" stroke-width="3" fill="none"  stroke-opacity="0.0" transform="translate(1, 1)"></circle><circle cx="217.7" cy="164.8" r="15.5" stroke="black" stroke-width="1" fill="none"  stroke-opacity="0.1" transform="translate(1, 1)"></circle><circle cx="217.7" cy="164.8" r="15.5" stroke="#8085e9" stroke-width="1" fill="url(#highcharts-2)"></circle><circle cx="50.7" cy="212.4" r="4" stroke="black" stroke-width="5" fill="none"  stroke-opacity="0.0" transform="translate(1, 1)"></circle><circle cx="50.7" cy="212.4" r="4" stroke="black" stroke-width="3" fill="none"  stroke-opacity="0.0" transform="translate(1, 1)"></circle><circle cx="50.7" cy="212.4" r="4" stroke="black" stroke-width="1" fill="none"  stroke-opacity="0.1" transform="translate(1, 1)"></circle><circle cx="50.7" cy="212.4" r="4" stroke="#8085e9" stroke-width="1" fill="url(#highcharts-2)"></circle><circle cx="27.5" cy="34.0" r="23" stroke="black" stroke-width="5" fill="none"  stroke-opacity="0.0" transform="translate(1, 1)"></circle><circle cx="27.5" cy="34.0" r="23" stroke="black" stroke-width="3" fill="none"  stroke-opacity="0.0" transform="translate(1, 1)"></circle><circle cx="27.5" cy="34.0" r="23" stroke="black" stroke-width="1" fill="none"  stroke-opacity="0.1" transform="translate(1, 1)"></circle><circle cx="27.5" cy="34.0" r="23" stroke="#8085e9" stroke-width="1" fill="url(#highcharts-2)"></circle><circle cx="287.3" cy="250.4" r="28" stroke="black" stroke-width="5" fill="none"  stroke-opacity="0.0" transform="translate(1, 1)"></circle><circle cx="287.3" cy="250.4" r="28" stroke="black" stroke-width="3" fill="none"  stroke-opacity="0.0" transform="translate(1, 1)"></circle><circle cx="287.3" cy="250.4" r="28" stroke="black" stroke-width="1" fill="none"  stroke-opacity="0.1" transform="translate(1, 1)"></circle><circle cx="287.3" cy="250.4" r="28" stroke="#8085e9" stroke-width="1" fill="url(#highcharts-2)"></circle><circle cx="394.0" cy="74.4" r="16" stroke="black" stroke-width="5" fill="none"  stroke-opacity="0.0" transform="translate(1, 1)"></circle><circle cx="394.0" cy="74.4" r="16" stroke="black" stroke-width="3" fill="none"  stroke-opacity="0.0" transform="translate(1, 1)"></circle><circle cx="394.0" cy="74.4" r="16" stroke="black" stroke-width="1" fill="none"  stroke-opacity="0.1" transform="translate(1, 1)"></circle><circle cx="394.0" cy="74.4" r="16" stroke="#8085e9" stroke-width="1" fill="url(#highcharts-2)"></circle><circle cx="73.9" cy="79.2" r="29" stroke="black" stroke-width="5" fill="none"  stroke-opacity="0.0" transform="translate(1, 1)"></circle><circle cx="73.9" cy="79.2" r="29" stroke="black" stroke-width="3" fill="none"  stroke-opacity="0.0" transform="translate(1, 1)"></circle><circle cx="73.9" cy="79.2" r="29" stroke="black" stroke-width="1" fill="none"  stroke-opacity="0.1" transform="translate(1, 1)"></circle><circle cx="73.9" cy="79.2" r="29" stroke="#8085e9" stroke-width="1" fill="url(#highcharts-2)"></circle><circle cx="431.1" cy="122.0" r="12" stroke="black" stroke-width="5" fill="none"  stroke-opacity="0.0" transform="translate(1, 1)"></circle><circle cx="431.1" cy="122.0" r="12" stroke="black" stroke-width="3" fill="none"  stroke-opacity="0.0" transform="translate(1, 1)"></circle><circle cx="431.1" cy="122.0" r="12" stroke="black" stroke-width="1" fill="none"  stroke-opacity="0.1" transform="translate(1, 1)"></circle><circle cx="431.1" cy="122.0" r="12" stroke="#8085e9" stroke-width="1" fill="url(#highcharts-2)"></circle><circle cx="162.0" cy="143.4" r="22" stroke="black" stroke-width="5" fill="none"  stroke-opacity="0.0" transform="translate(1, 1)"></circle><circle cx="162.0" cy="143.4" r="22" stroke="black" stroke-width="3" fill="none"  stroke-opacity="0.0" transform="translate(1, 1)"></circle><circle cx="162.0" cy="143.4" r="22" stroke="black" stroke-width="1" fill="none"  stroke-opacity="0.1" transform="translate(1, 1)"></circle><circle cx="162.0" cy="143.4" r="22" stroke="#8085e9" stroke-width="1" fill="url(#highcharts-2)"></circle><circle cx="287.3" cy="107.7" r="29" stroke="black" stroke-width="5" fill="none"  stroke-opacity="0.0" transform="translate(1, 1)"></circle><circle cx="287.3" cy="107.7" r="29" stroke="black" stroke-width="3" fill="none"  stroke-opacity="0.0" transform="translate(1, 1)"></circle><circle cx="287.3" cy="107.7" r="29" stroke="black" stroke-width="1" fill="none"  stroke-opacity="0.1" transform="translate(1, 1)"></circle><circle cx="287.3" cy="107.7" r="29" stroke="#8085e9" stroke-width="1" fill="url(#highcharts-2)"></circle><circle cx="41.4" cy="217.1" r="14" stroke="black" stroke-width="5" fill="none"  stroke-opacity="0.0" transform="translate(1, 1)"></circle><circle cx="41.4" cy="217.1" r="14" stroke="black" stroke-width="3" fill="none"  stroke-opacity="0.0" transform="translate(1, 1)"></circle><circle cx="41.4" cy="217.1" r="14" stroke="black" stroke-width="1" fill="none"  stroke-opacity="0.1" transform="translate(1, 1)"></circle><circle cx="41.4" cy="217.1" r="14" stroke="#8085e9" stroke-width="1" fill="url(#highcharts-2)"></circle><circle cx="236.3" cy="231.4" r="12" stroke="black" stroke-width="5" fill="none"  stroke-opacity="0.0" transform="translate(1, 1)"></circle><circle cx="236.3" cy="231.4" r="12" stroke="black" stroke-width="3" fill="none"  stroke-opacity="0.0" transform="translate(1, 1)"></circle><circle cx="236.3" cy="231.4" r="12" stroke="black" stroke-width="1" fill="none"  stroke-opacity="0.1" transform="translate(1, 1)"></circle><circle cx="236.3" cy="231.4" r="12" stroke="#8085e9" stroke-width="1" fill="url(#highcharts-2)"></circle><circle cx="124.9" cy="48.3" r="28" stroke="black" stroke-width="5" fill="none"  stroke-opacity="0.0" transform="translate(1, 1)"></circle><circle cx="124.9" cy="48.3" r="28" stroke="black" stroke-width="3" fill="none"  stroke-opacity="0.0" transform="translate(1, 1)"></circle><circle cx="124.9" cy="48.3" r="28" stroke="black" stroke-width="1" fill="none"  stroke-opacity="0.1" transform="translate(1, 1)"></circle><circle cx="124.9" cy="48.3" r="28" stroke="#8085e9" stroke-width="1" fill="url(#highcharts-2)"></circle><circle cx="287.3" cy="38.8" r="27" stroke="black" stroke-width="5" fill="none"  stroke-opacity="0.0" transform="translate(1, 1)"></circle><circle cx="287.3" cy="38.8" r="27" stroke="black" stroke-width="3" fill="none"  stroke-opacity="0.0" transform="translate(1, 1)"></circle><circle cx="287.3" cy="38.8" r="27" stroke="black" stroke-width="1" fill="none"  stroke-opacity="0.1" transform="translate(1, 1)"></circle><circle cx="287.3" cy="38.8" r="27" stroke="#8085e9" stroke-width="1" fill="url(#highcharts-2)"></circle><circle cx="231.6" cy="219.5" r="29" stroke="black" stroke-width="5" fill="none"  stroke-opacity="0.0" transform="translate(1, 1)"></circle><circle cx="231.6" cy="219.5" r="29" stroke="black" stroke-width="3" fill="none"  stroke-opacity="0.0" transform="translate(1, 1)"></circle><circle cx="231.6" cy="219.5" r="29" stroke="black" stroke-width="1" fill="none"  stroke-opacity="0.1" transform="translate(1, 1)"></circle><circle cx="231.6" cy="219.5" r="29" stroke="#8085e9" stroke-width="1" fill="url(#highcharts-2)"></circle></g><g class="highcharts-markers" visibility="visible"  transform="translate(64,41) scale(1 1)"></g></g><text x="292" text-anchor="middle" class="highcharts-title"  style="color:black;font-size:16px;font-weight:bold;fill:black;width:520px;" y="22"><tspan>Highcharts bubbles with radial gradient fill</tspan></text><g class="highcharts-legend"  transform="translate(210,361)"><g ><g><g class="highcharts-legend-item"  transform="translate(8,3)"><text x="21" style="color:#333333;font-size:13px;font-weight:bold;cursor:pointer;fill:#333333;" text-anchor="start"  y="16"><tspan>Series 1</tspan></text><circle cx="6.5" cy="9.5" r="6.5"  fill="url(#highcharts-1)" stroke="#f45b5b" stroke-width="1"></circle></g><g class="highcharts-legend-item"  transform="translate(91.9,3)"><text x="21" y="16" style="color:#333333;font-size:13px;font-weight:bold;cursor:pointer;fill:#333333;" text-anchor="start" ><tspan>Series 2</tspan></text><circle cx="6.5" cy="9.5" r="6.5"  fill="url(#highcharts-2)" stroke="#8085e9" stroke-width="1"></circle></g></g></g></g><g class="highcharts-axis-labels highcharts-xaxis-labels" ><text x="86.9" style="color:#6e6e70;cursor:default;font-size:11px;fill:#6e6e70;width:92px;text-overflow:clip;" text-anchor="middle" transform="translate(0,0)" y="349" opacity="1">0</text><text x="179.6" style="color:#6e6e70;cursor:default;font-size:11px;fill:#6e6e70;width:92px;text-overflow:clip;" text-anchor="middle" transform="translate(0,0)" y="349" opacity="1">20</text><text x="272.4" style="color:#6e6e70;cursor:default;font-size:11px;fill:#6e6e70;width:92px;text-overflow:clip;" text-anchor="middle" transform="translate(0,0)" y="349" opacity="1">40</text><text x="365.2" style="color:#6e6e70;cursor:default;font-size:11px;fill:#6e6e70;width:92px;text-overflow:clip;" text-anchor="middle" transform="translate(0,0)" y="349" opacity="1">60</text><text x="458.0" style="color:#6e6e70;cursor:default;font-size:11px;fill:#6e6e70;width:92px;text-overflow:clip;" text-anchor="middle" transform="translate(0,0)" y="349" opacity="1">80</text><text x="550.8" style="color:#6e6e70;cursor:default;font-size:11px;fill:#6e6e70;width:92px;text-overflow:clip;" text-anchor="middle" transform="translate(0,0)" y="349" opacity="1">100</text></g><g class="highcharts-axis-labels highcharts-yaxis-labels" ><text x="49" style="color:#6e6e70;cursor:default;font-size:11px;fill:#6e6e70;width:183px;text-overflow:clip;" text-anchor="end" transform="translate(0,0)" y="302" opacity="1">0</text><text x="49" style="color:#6e6e70;cursor:default;font-size:11px;fill:#6e6e70;width:183px;text-overflow:clip;" text-anchor="end" transform="translate(0,0)" y="242" opacity="1">25</text><text x="49" style="color:#6e6e70;cursor:default;font-size:11px;fill:#6e6e70;width:183px;text-overflow:clip;" text-anchor="end" transform="translate(0,0)" y="183" opacity="1">50</text><text x="49" style="color:#6e6e70;cursor:default;font-size:11px;fill:#6e6e70;width:183px;text-overflow:clip;" text-anchor="end" transform="translate(0,0)" y="123" opacity="1">75</text><text x="49" style="color:#6e6e70;cursor:default;font-size:11px;fill:#6e6e70;width:183px;text-overflow:clip;" text-anchor="end" transform="translate(0,0)" y="64" opacity="1">100</text></g><g class="highcharts-tooltip"  style="cursor:default;padding:0;white-space:nowrap;" transform="translate(0,-9999)"><path fill="none" d="M 3 0 L 13 0 C 16 0 16 0 16 3 L 16 13 C 16 16 16 16 13 16 L 3 16 C 0 16 0 16 0 13 L 0 3 C 0 0 0 0 3 0"  stroke="black" stroke-opacity="0.0" stroke-width="5" transform="translate(1, 1)"></path><path fill="none" d="M 3 0 L 13 0 C 16 0 16 0 16 3 L 16 13 C 16 16 16 16 13 16 L 3 16 C 0 16 0 16 0 13 L 0 3 C 0 0 0 0 3 0"  stroke="black" stroke-opacity="0.0" stroke-width="3" transform="translate(1, 1)"></path><path fill="none" d="M 3 0 L 13 0 C 16 0 16 0 16 3 L 16 13 C 16 16 16 16 13 16 L 3 16 C 0 16 0 16 0 13 L 0 3 C 0 0 0 0 3 0"  stroke="black" stroke-opacity="0.1" stroke-width="1" transform="translate(1, 1)"></path><path fill="rgb(249, 249, 249)" fill-opacity=" .85" d="M 3 0 L 13 0 C 16 0 16 0 16 3 L 16 13 C 16 16 16 16 13 16 L 3 16 C 0 16 0 16 0 13 L 0 3 C 0 0 0 0 3 0"></path><text x="8"  style="font-size:12px;color:#333333;fill:#333333;" y="20"></text></g></svg>