<svg version="1.1" style="font-family:&quot;lucida grande&quot;, &quot;lucida sans unicode&quot;, arial, helvetica, sans-serif;font-size:12px;" xmlns="http://www.w3.org/2000/svg" width="584" height="400" viewBox="0 0 584 400"><desc>Created with Highcharts 4.1.6</desc><defs><radialGradient cx="0.4" cy="0.3" r="0.7" id="highcharts-1"><stop offset="0" stop-color="rgb(255,255,255)" stop-opacity="0.5"></stop><stop offset="1" stop-color="rgb(124,181,236)" stop-opacity="0.5"></stop></radialGradient><radialGradient cx="0.4" cy="0.3" r="0.7" id="highcharts-2"><stop offset="0" stop-color="rgb(255,255,255)" stop-opacity="0.5"></stop><stop offset="1" stop-color="rgb(67,67,72)" stop-opacity="0.5"></stop></radialGradient><clipPath id="highcharts-3"><rect x="0" y="0" width="503" height="280"></rect></clipPath></defs><rect x="0" y="0" width="584" height="400" strokeWidth="0" fill="#FFFFFF" class=" highcharts-background" stroke="transparent"></rect><g class="highcharts-grid" ><path fill="none" d="M 92.5 46 L 92.5 326" stroke="#D8D8D8" stroke-width="1"  opacity="1"></path><path fill="none" d="M 184.5 46 L 184.5 326" stroke="#D8D8D8" stroke-width="1"  opacity="1"></path><path fill="none" d="M 275.5 46 L 275.5 326" stroke="#D8D8D8" stroke-width="1"  opacity="1"></path><path fill="none" d="M 367.5 46 L 367.5 326" stroke="#D8D8D8" stroke-width="1"  opacity="1"></path><path fill="none" d="M 459.5 46 L 459.5 326" stroke="#D8D8D8" stroke-width="1"  opacity="1"></path><path fill="none" d="M 551.5 46 L 551.5 326" stroke="#D8D8D8" stroke-width="1"  opacity="1"></path></g><g class="highcharts-grid" ><path fill="none" d="M 71 293.5 L 574 293.5" stroke="#D8D8D8" stroke-width="1"  opacity="1"></path><path fill="none" d="M 71 236.5 L 574 236.5" stroke="#D8D8D8" stroke-width="1"  opacity="1"></path><path fill="none" d="M 71 178.5 L 574 178.5" stroke="#D8D8D8" stroke-width="1"  opacity="1"></path><path fill="none" d="M 71 120.5 L 574 120.5" stroke="#D8D8D8" stroke-width="1"  opacity="1"></path><path fill="none" d="M 71 63.5 L 574 63.5" stroke="#D8D8D8" stroke-width="1"  opacity="1"></path></g><rect x="70.5" y="45.5" width="504" height="281" strokeWidth="-1" stroke="#C0C0C0" stroke-width="1" fill="none" ></rect><g class="highcharts-axis" ><path fill="none" d="M 92.5 326 L 92.5 336" stroke="#C0D0E0" stroke-width="1" opacity="1"></path><path fill="none" d="M 184.5 326 L 184.5 336" stroke="#C0D0E0" stroke-width="1" opacity="1"></path><path fill="none" d="M 275.5 326 L 275.5 336" stroke="#C0D0E0" stroke-width="1" opacity="1"></path><path fill="none" d="M 367.5 326 L 367.5 336" stroke="#C0D0E0" stroke-width="1" opacity="1"></path><path fill="none" d="M 459.5 326 L 459.5 336" stroke="#C0D0E0" stroke-width="1" opacity="1"></path><path fill="none" d="M 551.5 326 L 551.5 336" stroke="#C0D0E0" stroke-width="1" opacity="1"></path><path fill="none" d="M 71 326.5 L 574 326.5" stroke="#C0D0E0" stroke-width="1"  visibility="visible"></path></g><g class="highcharts-axis" ><text x="25"  text-anchor="middle" transform="translate(0,0) rotate(270 25 186)" class=" highcharts-yaxis-title" style="color:#707070;fill:#707070;" visibility="visible" y="186">Values</text></g><g class="highcharts-series-group" ><g class="highcharts-series highcharts-tracker" visibility="visible"  transform="translate(71,46) scale(1 1)" style="" clip-path="url(#highcharts-3)"><circle cx="63.2" cy="60.6" r="23.5" stroke="#7cb5ec" stroke-width="1" fill="url(#highcharts-1)"></circle><circle cx="471.5" cy="235.6" r="27" stroke="#7cb5ec" stroke-width="1" fill="url(#highcharts-1)"></circle><circle cx="255.9" cy="132.0" r="25" stroke="#7cb5ec" stroke-width="1" fill="url(#highcharts-1)"></circle><circle cx="210.0" cy="196.4" r="13" stroke="#7cb5ec" stroke-width="1" fill="url(#highcharts-1)"></circle><circle cx="288.0" cy="191.8" r="15" stroke="#7cb5ec" stroke-width="1" fill="url(#highcharts-1)"></circle><circle cx="379.8" cy="161.9" r="18" stroke="#7cb5ec" stroke-width="1" fill="url(#highcharts-1)"></circle><circle cx="274.2" cy="118.2" r="22" stroke="#7cb5ec" stroke-width="1" fill="url(#highcharts-1)"></circle><circle cx="104.5" cy="143.5" r="24.5" stroke="#7cb5ec" stroke-width="1" fill="url(#highcharts-1)"></circle><circle cx="214.6" cy="145.8" r="17" stroke="#7cb5ec" stroke-width="1" fill="url(#highcharts-1)"></circle><circle cx="35.6" cy="127.4" r="23" stroke="#7cb5ec" stroke-width="1" fill="url(#highcharts-1)"></circle><circle cx="164.1" cy="205.6" r="28" stroke="#7cb5ec" stroke-width="1" fill="url(#highcharts-1)"></circle><circle cx="384.4" cy="37.6" r="23.5" stroke="#7cb5ec" stroke-width="1" fill="url(#highcharts-1)"></circle><circle cx="448.6" cy="194.1" r="15.5" stroke="#7cb5ec" stroke-width="1" fill="url(#highcharts-1)"></circle><circle cx="223.8" cy="56.0" r="15.5" stroke="#7cb5ec" stroke-width="1" fill="url(#highcharts-1)"></circle></g><g class="highcharts-markers" visibility="visible"  transform="translate(71,46) scale(1 1)"></g><g class="highcharts-series highcharts-tracker" visibility="visible"  transform="translate(71,46) scale(1 1)" style="" clip-path="url(#highcharts-3)"><circle cx="214.6" cy="159.6" r="15" stroke="#434348" stroke-width="1" fill="url(#highcharts-2)"></circle><circle cx="49.4" cy="205.6" r="4" stroke="#434348" stroke-width="1" fill="url(#highcharts-2)"></circle><circle cx="26.4" cy="33.0" r="22" stroke="#434348" stroke-width="1" fill="url(#highcharts-2)"></circle><circle cx="283.4" cy="242.5" r="27" stroke="#434348" stroke-width="1" fill="url(#highcharts-2)"></circle><circle cx="389.0" cy="72.1" r="15.5" stroke="#434348" stroke-width="1" fill="url(#highcharts-2)"></circle><circle cx="72.3" cy="76.7" r="28" stroke="#434348" stroke-width="1" fill="url(#highcharts-2)"></circle><circle cx="425.7" cy="118.2" r="11.5" stroke="#434348" stroke-width="1" fill="url(#highcharts-2)"></circle><circle cx="159.5" cy="138.9" r="21" stroke="#434348" stroke-width="1" fill="url(#highcharts-2)"></circle><circle cx="283.4" cy="104.4" r="28" stroke="#434348" stroke-width="1" fill="url(#highcharts-2)"></circle><circle cx="40.2" cy="210.2" r="13.5" stroke="#434348" stroke-width="1" fill="url(#highcharts-2)"></circle><circle cx="232.9" cy="224.1" r="12" stroke="#434348" stroke-width="1" fill="url(#highcharts-2)"></circle><circle cx="122.8" cy="46.8" r="27" stroke="#434348" stroke-width="1" fill="url(#highcharts-2)"></circle><circle cx="283.4" cy="37.6" r="26" stroke="#434348" stroke-width="1" fill="url(#highcharts-2)"></circle><circle cx="228.4" cy="212.6" r="28" stroke="#434348" stroke-width="1" fill="url(#highcharts-2)"></circle></g><g class="highcharts-markers" visibility="visible"  transform="translate(71,46) scale(1 1)"></g></g><text x="292" text-anchor="middle" class="highcharts-title"  style="color:#333333;font-size:18px;fill:#333333;width:520px;" y="24"><tspan>Highcharts bubbles with radial gradient fill</tspan></text><g class="highcharts-legend"  transform="translate(204,359)"><g ><g><g class="highcharts-legend-item"  transform="translate(8,3)"><text x="21" style="color:#333333;font-size:12px;font-weight:bold;cursor:pointer;fill:#333333;" text-anchor="start"  y="15"><tspan>Series 1</tspan></text><circle cx="6" cy="9" r="6"  fill="url(#highcharts-1)" stroke="#7cb5ec" stroke-width="1"></circle></g><g class="highcharts-legend-item"  transform="translate(98,3)"><text x="21" y="15" style="color:#333333;font-size:12px;font-weight:bold;cursor:pointer;fill:#333333;" text-anchor="start" ><tspan>Series 2</tspan></text><circle cx="6" cy="9" r="6"  fill="url(#highcharts-2)" stroke="#434348" stroke-width="1"></circle></g></g></g></g><g class="highcharts-axis-labels highcharts-xaxis-labels" ><text x="92.9" style="color:#606060;cursor:default;font-size:11px;fill:#606060;width:91px;text-overflow:clip;" text-anchor="middle" transform="translate(0,0)" y="345" opacity="1">0</text><text x="184.6" style="color:#606060;cursor:default;font-size:11px;fill:#606060;width:91px;text-overflow:clip;" text-anchor="middle" transform="translate(0,0)" y="345" opacity="1">20</text><text x="276.4" style="color:#606060;cursor:default;font-size:11px;fill:#606060;width:91px;text-overflow:clip;" text-anchor="middle" transform="translate(0,0)" y="345" opacity="1">40</text><text x="368.2" style="color:#606060;cursor:default;font-size:11px;fill:#606060;width:91px;text-overflow:clip;" text-anchor="middle" transform="translate(0,0)" y="345" opacity="1">60</text><text x="460.0" style="color:#606060;cursor:default;font-size:11px;fill:#606060;width:91px;text-overflow:clip;" text-anchor="middle" transform="translate(0,0)" y="345" opacity="1">80</text><text x="551.7" style="color:#606060;cursor:default;font-size:11px;fill:#606060;width:91px;text-overflow:clip;" text-anchor="middle" transform="translate(0,0)" y="345" opacity="1">100</text></g><g class="highcharts-axis-labels highcharts-yaxis-labels" ><text x="56" style="color:#606060;cursor:default;font-size:11px;fill:#606060;width:183px;text-overflow:clip;" text-anchor="end" transform="translate(0,0)" y="298" opacity="1">0</text><text x="56" style="color:#606060;cursor:default;font-size:11px;fill:#606060;width:183px;text-overflow:clip;" text-anchor="end" transform="translate(0,0)" y="240" opacity="1">25</text><text x="56" style="color:#606060;cursor:default;font-size:11px;fill:#606060;width:183px;text-overflow:clip;" text-anchor="end" transform="translate(0,0)" y="183" opacity="1">50</text><text x="56" style="color:#606060;cursor:default;font-size:11px;fill:#606060;width:183px;text-overflow:clip;" text-anchor="end" transform="translate(0,0)" y="125" opacity="1">75</text><text x="56" style="color:#606060;cursor:default;font-size:11px;fill:#606060;width:183px;text-overflow:clip;" text-anchor="end" transform="translate(0,0)" y="67" opacity="1">100</text></g><g class="highcharts-tooltip"  style="cursor:default;padding:0;white-space:nowrap;" transform="translate(0,-9999)"><path fill="none" d="M 3.5 0.5 L 13.5 0.5 C 16.5 0.5 16.5 0.5 16.5 3.5 L 16.5 13.5 C 16.5 16.5 16.5 16.5 13.5 16.5 L 3.5 16.5 C 0.5 16.5 0.5 16.5 0.5 13.5 L 0.5 3.5 C 0.5 0.5 0.5 0.5 3.5 0.5"  stroke="black" stroke-opacity="0.0" stroke-width="5" transform="translate(1, 1)"></path><path fill="none" d="M 3.5 0.5 L 13.5 0.5 C 16.5 0.5 16.5 0.5 16.5 3.5 L 16.5 13.5 C 16.5 16.5 16.5 16.5 13.5 16.5 L 3.5 16.5 C 0.5 16.5 0.5 16.5 0.5 13.5 L 0.5 3.5 C 0.5 0.5 0.5 0.5 3.5 0.5"  stroke="black" stroke-opacity="0.0" stroke-width="3" transform="translate(1, 1)"></path><path fill="none" d="M 3.5 0.5 L 13.5 0.5 C 16.5 0.5 16.5 0.5 16.5 3.5 L 16.5 13.5 C 16.5 16.5 16.5 16.5 13.5 16.5 L 3.5 16.5 C 0.5 16.5 0.5 16.5 0.5 13.5 L 0.5 3.5 C 0.5 0.5 0.5 0.5 3.5 0.5"  stroke="black" stroke-opacity="0.1" stroke-width="1" transform="translate(1, 1)"></path><path fill="rgb(249, 249, 249)" fill-opacity=" .85" d="M 3.5 0.5 L 13.5 0.5 C 16.5 0.5 16.5 0.5 16.5 3.5 L 16.5 13.5 C 16.5 16.5 16.5 16.5 13.5 16.5 L 3.5 16.5 C 0.5 16.5 0.5 16.5 0.5 13.5 L 0.5 3.5 C 0.5 0.5 0.5 0.5 3.5 0.5"></path><text x="8"  style="font-size:12px;color:#333333;fill:#333333;" y="20"></text></g></svg>