<svg version="1.1" style="font-family:&quot;lucida grande&quot;, &quot;lucida sans unicode&quot;, arial, helvetica, sans-serif;font-size:12px;" xmlns="http://www.w3.org/2000/svg" width="584" height="400" viewBox="0 0 584 400"><desc>Created with Highcharts 4.1.6</desc><defs><clipPath id="highcharts-1"><rect x="0" y="0" width="503" height="280"></rect></clipPath></defs><rect x="0" y="0" width="584" height="400" strokeWidth="0" fill="#FFFFFF" class=" highcharts-background" stroke="transparent"></rect><g class="highcharts-grid" ></g><g class="highcharts-grid" ><path fill="none" d="M 71 326.5 L 574 326.5" stroke="#D8D8D8" stroke-width="1"  opacity="1"></path><path fill="none" d="M 71 279.5 L 574 279.5" stroke="#D8D8D8" stroke-width="1"  opacity="1"></path><path fill="none" d="M 71 233.5 L 574 233.5" stroke="#D8D8D8" stroke-width="1"  opacity="1"></path><path fill="none" d="M 71 186.5 L 574 186.5" stroke="#D8D8D8" stroke-width="1"  opacity="1"></path><path fill="none" d="M 71 139.5 L 574 139.5" stroke="#D8D8D8" stroke-width="1"  opacity="1"></path><path fill="none" d="M 71 93.5 L 574 93.5" stroke="#D8D8D8" stroke-width="1"  opacity="1"></path><path fill="none" d="M 71 45.5 L 574 45.5" stroke="#D8D8D8" stroke-width="1"  opacity="1"></path></g><g class="highcharts-axis" ><path fill="none" d="M 88.5 326 L 88.5 336" stroke="#C0D0E0" stroke-width="1" opacity="1"></path><path fill="none" d="M 182.5 326 L 182.5 336" stroke="#C0D0E0" stroke-width="1" opacity="1"></path><path fill="none" d="M 275.5 326 L 275.5 336" stroke="#C0D0E0" stroke-width="1" opacity="1"></path><path fill="none" d="M 369.5 326 L 369.5 336" stroke="#C0D0E0" stroke-width="1" opacity="1"></path><path fill="none" d="M 463.5 326 L 463.5 336" stroke="#C0D0E0" stroke-width="1" opacity="1"></path><path fill="none" d="M 556.5 326 L 556.5 336" stroke="#C0D0E0" stroke-width="1" opacity="1"></path><path fill="none" d="M 71 326.5 L 574 326.5" stroke="#C0D0E0" stroke-width="1"  visibility="visible"></path></g><g class="highcharts-axis" ><text x="25"  text-anchor="middle" transform="translate(0,0) rotate(270 25 186)" class=" highcharts-yaxis-title" style="color:#707070;fill:#707070;" visibility="visible" y="186">Values</text></g><g class="highcharts-series-group" ><g class="highcharts-series highcharts-tracker" visibility="visible"  transform="translate(71,46) scale(1 1)" style="" clip-path="url(#highcharts-1)"><circle cx="472.0" cy="166.1" r="26.5" stroke="#7cb5ec" stroke-width="1" fill="rgb(124,181,236)" fill-opacity="0.5"></circle><circle cx="458.0" cy="95.1" r="23.5" stroke="#7cb5ec" stroke-width="1" fill="rgb(124,181,236)" fill-opacity="0.5"></circle><circle cx="336.3" cy="91.4" r="23" stroke="#7cb5ec" stroke-width="1" fill="rgb(124,181,236)" fill-opacity="0.5"></circle><circle cx="317.6" cy="70.9" r="22.5" stroke="#7cb5ec" stroke-width="1" fill="rgb(124,181,236)" fill-opacity="0.5"></circle><circle cx="336.3" cy="182.9" r="25.5" stroke="#7cb5ec" stroke-width="1" fill="rgb(124,181,236)" fill-opacity="0.5"></circle><circle cx="364.4" cy="48.5" r="20" stroke="#7cb5ec" stroke-width="1" fill="rgb(124,181,236)" fill-opacity="0.5"></circle><circle cx="50.8" cy="59.7" r="27.5" stroke="#7cb5ec" stroke-width="1" fill="rgb(124,181,236)" fill-opacity="0.5"></circle><circle cx="256.8" cy="104.5" r="19.5" stroke="#7cb5ec" stroke-width="1" fill="rgb(124,181,236)" fill-opacity="0.5"></circle><circle cx="195.9" cy="190.4" r="18" stroke="#7cb5ec" stroke-width="1" fill="rgb(124,181,236)" fill-opacity="0.5"></circle><circle cx="284.8" cy="72.7" r="17.5" stroke="#7cb5ec" stroke-width="1" fill="rgb(124,181,236)" fill-opacity="0.5"></circle></g><g class="highcharts-markers" visibility="visible"  transform="translate(71,46) scale(1 1)"></g><g class="highcharts-series highcharts-tracker" visibility="visible"  transform="translate(71,46) scale(1 1)" style="" clip-path="url(#highcharts-1)"><circle cx="135.1" cy="214.6" r="27.5" stroke="#434348" stroke-width="1" fill="rgb(67,67,72)" fill-opacity="0.5"></circle><circle cx="27.4" cy="93.3" r="23" stroke="#434348" stroke-width="1" fill="rgb(67,67,72)" fill-opacity="0.5"></circle><circle cx="69.6" cy="132.5" r="9.5" stroke="#434348" stroke-width="1" fill="rgb(67,67,72)" fill-opacity="0.5"></circle><circle cx="420.6" cy="130.6" r="28" stroke="#434348" stroke-width="1" fill="rgb(67,67,72)" fill-opacity="0.5"></circle><circle cx="41.5" cy="227.7" r="23" stroke="#434348" stroke-width="1" fill="rgb(67,67,72)" fill-opacity="0.5"></circle><circle cx="439.3" cy="115.7" r="20.5" stroke="#434348" stroke-width="1" fill="rgb(67,67,72)" fill-opacity="0.5"></circle><circle cx="444.0" cy="171.7" r="13.5" stroke="#434348" stroke-width="1" fill="rgb(67,67,72)" fill-opacity="0.5"></circle><circle cx="472.0" cy="227.7" r="22.5" stroke="#434348" stroke-width="1" fill="rgb(67,67,72)" fill-opacity="0.5"></circle><circle cx="88.3" cy="108.2" r="21" stroke="#434348" stroke-width="1" fill="rgb(67,67,72)" fill-opacity="0.5"></circle><circle cx="270.8" cy="186.6" r="26.5" stroke="#434348" stroke-width="1" fill="rgb(67,67,72)" fill-opacity="0.5"></circle></g><g class="highcharts-markers" visibility="visible"  transform="translate(71,46) scale(1 1)"></g><g class="highcharts-series highcharts-tracker" visibility="visible"  transform="translate(71,46) scale(1 1)" style="" clip-path="url(#highcharts-1)"><circle cx="238.0" cy="145.6" r="14.5" stroke="#90ed7d" stroke-width="1" fill="rgb(144,237,125)" fill-opacity="0.5"></circle><circle cx="111.7" cy="210.9" r="4" stroke="#90ed7d" stroke-width="1" fill="rgb(144,237,125)" fill-opacity="0.5"></circle><circle cx="46.2" cy="91.4" r="28" stroke="#90ed7d" stroke-width="1" fill="rgb(144,237,125)" fill-opacity="0.5"></circle><circle cx="195.9" cy="177.3" r="23.5" stroke="#90ed7d" stroke-width="1" fill="rgb(144,237,125)" fill-opacity="0.5"></circle><circle cx="284.8" cy="50.4" r="24" stroke="#90ed7d" stroke-width="1" fill="rgb(144,237,125)" fill-opacity="0.5"></circle><circle cx="303.6" cy="201.6" r="26.5" stroke="#90ed7d" stroke-width="1" fill="rgb(144,237,125)" fill-opacity="0.5"></circle><circle cx="406.5" cy="121.3" r="12" stroke="#90ed7d" stroke-width="1" fill="rgb(144,237,125)" fill-opacity="0.5"></circle><circle cx="331.6" cy="87.7" r="25.5" stroke="#90ed7d" stroke-width="1" fill="rgb(144,237,125)" fill-opacity="0.5"></circle><circle cx="317.6" cy="210.9" r="10.5" stroke="#90ed7d" stroke-width="1" fill="rgb(144,237,125)" fill-opacity="0.5"></circle><circle cx="158.5" cy="89.6" r="26.5" stroke="#90ed7d" stroke-width="1" fill="rgb(144,237,125)" fill-opacity="0.5"></circle></g><g class="highcharts-markers" visibility="visible"  transform="translate(71,46) scale(1 1)"></g></g><text x="292" text-anchor="middle" class="highcharts-title"  style="color:#333333;font-size:18px;fill:#333333;width:520px;" y="24"><tspan>Highcharts Bubbles</tspan></text><g class="highcharts-legend"  transform="translate(159,359)"><g ><g><g class="highcharts-legend-item"  transform="translate(8,3)"><text x="21" style="color:#333333;font-size:12px;font-weight:bold;cursor:pointer;fill:#333333;" text-anchor="start"  y="15"><tspan>Series 1</tspan></text><circle cx="6" cy="9" r="6"  fill="rgb(124,181,236)" fill-opacity="0.5" stroke="#7cb5ec" stroke-width="1"></circle></g><g class="highcharts-legend-item"  transform="translate(98,3)"><text x="21" y="15" style="color:#333333;font-size:12px;font-weight:bold;cursor:pointer;fill:#333333;" text-anchor="start" ><tspan>Series 2</tspan></text><circle cx="6" cy="9" r="6"  fill="rgb(67,67,72)" fill-opacity="0.5" stroke="#434348" stroke-width="1"></circle></g><g class="highcharts-legend-item"  transform="translate(188,3)"><text x="21" y="15" style="color:#333333;font-size:12px;font-weight:bold;cursor:pointer;fill:#333333;" text-anchor="start" ><tspan>Series 3</tspan></text><circle cx="6" cy="9" r="6"  fill="rgb(144,237,125)" fill-opacity="0.5" stroke="#90ed7d" stroke-width="1"></circle></g></g></g></g><g class="highcharts-axis-labels highcharts-xaxis-labels" ><text x="89.1" style="color:#606060;cursor:default;font-size:11px;fill:#606060;width:91px;text-overflow:clip;" text-anchor="middle" transform="translate(0,0)" y="345" opacity="1">0</text><text x="182.7" style="color:#606060;cursor:default;font-size:11px;fill:#606060;width:91px;text-overflow:clip;" text-anchor="middle" transform="translate(0,0)" y="345" opacity="1">20</text><text x="276.3" style="color:#606060;cursor:default;font-size:11px;fill:#606060;width:91px;text-overflow:clip;" text-anchor="middle" transform="translate(0,0)" y="345" opacity="1">40</text><text x="369.9" style="color:#606060;cursor:default;font-size:11px;fill:#606060;width:91px;text-overflow:clip;" text-anchor="middle" transform="translate(0,0)" y="345" opacity="1">60</text><text x="463.5" style="color:#606060;cursor:default;font-size:11px;fill:#606060;width:91px;text-overflow:clip;" text-anchor="middle" transform="translate(0,0)" y="345" opacity="1">80</text><text x="557.1" style="color:#606060;cursor:default;font-size:11px;fill:#606060;width:91px;text-overflow:clip;" text-anchor="middle" transform="translate(0,0)" y="345" opacity="1">100</text></g><g class="highcharts-axis-labels highcharts-yaxis-labels" ><text x="56" style="color:#606060;cursor:default;font-size:11px;fill:#606060;width:183px;text-overflow:clip;" text-anchor="end" transform="translate(0,0)" y="331" opacity="1">-25</text><text x="56" style="color:#606060;cursor:default;font-size:11px;fill:#606060;width:183px;text-overflow:clip;" text-anchor="end" transform="translate(0,0)" y="284" opacity="1">0</text><text x="56" style="color:#606060;cursor:default;font-size:11px;fill:#606060;width:183px;text-overflow:clip;" text-anchor="end" transform="translate(0,0)" y="237" opacity="1">25</text><text x="56" style="color:#606060;cursor:default;font-size:11px;fill:#606060;width:183px;text-overflow:clip;" text-anchor="end" transform="translate(0,0)" y="191" opacity="1">50</text><text x="56" style="color:#606060;cursor:default;font-size:11px;fill:#606060;width:183px;text-overflow:clip;" text-anchor="end" transform="translate(0,0)" y="144" opacity="1">75</text><text x="56" style="color:#606060;cursor:default;font-size:11px;fill:#606060;width:183px;text-overflow:clip;" text-anchor="end" transform="translate(0,0)" y="97" opacity="1">100</text><text x="56" style="color:#606060;cursor:default;font-size:11px;fill:#606060;width:183px;text-overflow:clip;" text-anchor="end" transform="translate(0,0)" y="51" opacity="1">125</text></g><g class="highcharts-tooltip"  style="cursor:default;padding:0;white-space:nowrap;" transform="translate(0,-9999)"><path fill="none" d="M 3.5 0.5 L 13.5 0.5 C 16.5 0.5 16.5 0.5 16.5 3.5 L 16.5 13.5 C 16.5 16.5 16.5 16.5 13.5 16.5 L 3.5 16.5 C 0.5 16.5 0.5 16.5 0.5 13.5 L 0.5 3.5 C 0.5 0.5 0.5 0.5 3.5 0.5"  stroke="black" stroke-opacity="0.0" stroke-width="5" transform="translate(1, 1)"></path><path fill="none" d="M 3.5 0.5 L 13.5 0.5 C 16.5 0.5 16.5 0.5 16.5 3.5 L 16.5 13.5 C 16.5 16.5 16.5 16.5 13.5 16.5 L 3.5 16.5 C 0.5 16.5 0.5 16.5 0.5 13.5 L 0.5 3.5 C 0.5 0.5 0.5 0.5 3.5 0.5"  stroke="black" stroke-opacity="0.0" stroke-width="3" transform="translate(1, 1)"></path><path fill="none" d="M 3.5 0.5 L 13.5 0.5 C 16.5 0.5 16.5 0.5 16.5 3.5 L 16.5 13.5 C 16.5 16.5 16.5 16.5 13.5 16.5 L 3.5 16.5 C 0.5 16.5 0.5 16.5 0.5 13.5 L 0.5 3.5 C 0.5 0.5 0.5 0.5 3.5 0.5"  stroke="black" stroke-opacity="0.1" stroke-width="1" transform="translate(1, 1)"></path><path fill="rgb(249, 249, 249)" fill-opacity=" .85" d="M 3.5 0.5 L 13.5 0.5 C 16.5 0.5 16.5 0.5 16.5 3.5 L 16.5 13.5 C 16.5 16.5 16.5 16.5 13.5 16.5 L 3.5 16.5 C 0.5 16.5 0.5 16.5 0.5 13.5 L 0.5 3.5 C 0.5 0.5 0.5 0.5 3.5 0.5"></path><text x="8"  style="font-size:12px;color:#333333;fill:#333333;" y="20"></text></g></svg>