<svg version="1.1" style="font-family:&quot;lucida grande&quot;, &quot;lucida sans unicode&quot;, arial, helvetica, sans-serif;font-size:12px;" xmlns="http://www.w3.org/2000/svg" width="584" height="400" viewBox="0 0 584 400"><desc>Created with Highstock 2.1.7</desc><defs><clipPath id="highcharts-1"><rect x="0" y="0" width="539" height="206"></rect></clipPath><clipPath id="highcharts-3"><rect x="-99" y="-79" width="639" height="400"></rect></clipPath><clipPath id="highcharts-4"><rect x="0" y="0" width="540" height="40"></rect></clipPath></defs><rect x="0" y="0" width="584" height="400" strokeWidth="0" fill="#FFFFFF" class=" highcharts-background"></rect><g class="highcharts-scrollbar" transform="translate(10,372)"><rect x="0" y="-0.5" fill="#eeeeee" stroke="#eeeeee" stroke-width="1" rx="0" ry="0" height="14" width="540"></rect><rect y="-0.5" height="14" fill="#bfc8d1" stroke="#bfc8d1" stroke-width="1" rx="0" ry="0" x="508.5" width="17"></rect><path fill="none" stroke="#666" stroke-width="1" visibility="visible" d="M 513.5 3.5 L 513.5 9.3 M 516.5 3.5 L 516.5 9.3 M 519.5 3.5 L 519.5 9.3"></path><g><rect x="-0.5" y="-0.5" width="14" height="14" strokeWidth="1" stroke="#bbb" stroke-width="1" fill="#ebe7e8"></rect><path fill="#666" d="M 8 4 L 8 10 5 7"></path></g><g transform="translate(526,0)"><rect x="-0.5" y="-0.5" width="14" height="14" strokeWidth="1" stroke="#bbb" stroke-width="1" fill="#ebe7e8"></rect><path fill="#666" d="M 6 4 L 6 10 9 7"></path></g></g><g class="highcharts-range-selector-buttons"><text x="10" y="59" style="color:#666;fill:#666;">Zoom</text><g class="highcharts-button"  states="[object Object]" style="cursor:pointer;text-align:center;" transform="translate(48,44)"><rect x="0" y="0" width="32" height="22" strokeWidth="0" fill="#f7f7f7" rx="0" ry="0"></rect><text x="6.6"  style="font-weight:normal;color:#444;fill:#444;" y="14">1m</text></g><g class="highcharts-button"  states="[object Object]" style="cursor:pointer;text-align:center;" transform="translate(85,44)"><rect x="0" y="0" width="32" height="22" strokeWidth="0" fill="#e7f0f9" rx="0" ry="0"></rect><text x="6.6"  style="font-weight:bold;color:black;fill:black;" y="14">3m</text></g><g class="highcharts-button"  states="[object Object]" style="cursor:pointer;text-align:center;" transform="translate(122,44)"><rect x="0" y="0" width="32" height="22" strokeWidth="0" fill="#f7f7f7" rx="0" ry="0"></rect><text x="6.6"  style="font-weight:normal;color:#444;fill:#444;" y="14">6m</text></g><g class="highcharts-button"  states="[object Object]" style="cursor:pointer;text-align:center;" transform="translate(159,44)"><rect x="0" y="0" width="32" height="22" strokeWidth="0" fill="#f7f7f7" rx="0" ry="0"></rect><text x="3.9"  style="font-weight:normal;color:#444;fill:#444;" y="14">YTD</text></g><g class="highcharts-button"  states="[object Object]" style="cursor:pointer;text-align:center;" transform="translate(196,44)"><rect x="0" y="0" width="32" height="22" strokeWidth="0" fill="#f7f7f7" rx="0" ry="0"></rect><text x="9.0"  style="font-weight:normal;color:#444;fill:#444;" y="14">1y</text></g><g class="highcharts-button"  states="[object Object]" style="cursor:pointer;text-align:center;" transform="translate(233,44)"><rect x="0" y="0" width="32" height="22" strokeWidth="0" fill="#f7f7f7" rx="0" ry="0"></rect><text x="8.3"  style="font-weight:normal;color:#444;fill:#444;" y="14">All</text></g></g><g class="highcharts-input-group" transform="translate(313,44)" visibility="visible"><g style="fill:#666;" transform="translate(0,0)"><text x="2"  style="font-size:12px;font-family:&quot;lucida grande&quot;, &quot;lucida sans unicode&quot;, arial, helvetica, sans-serif;color:#666;fill:#666;" y="14">From</text></g><g style="text-align:center;" transform="translate(39,0)"><rect x="0.5" y="0.5" width="94" height="21" strokeWidth="1" fill="none" stroke="silver" stroke-width="1"></rect><text x="12"  style="font-size:12px;font-family:&quot;lucida grande&quot;, &quot;lucida sans unicode&quot;, arial, helvetica, sans-serif;color:#444;fill:#444;" y="14"><tspan>Apr 2, 2015</tspan></text></g><g style="fill:#666;" transform="translate(143,0)"><text x="2"  style="font-size:12px;font-family:&quot;lucida grande&quot;, &quot;lucida sans unicode&quot;, arial, helvetica, sans-serif;color:#666;fill:#666;" y="14">To</text></g><g style="text-align:center;" transform="translate(167,0)"><rect x="0.5" y="0.5" width="94" height="21" strokeWidth="1" fill="none" stroke="silver" stroke-width="1"></rect><text x="15.0"  style="font-size:12px;font-family:&quot;lucida grande&quot;, &quot;lucida sans unicode&quot;, arial, helvetica, sans-serif;color:#444;fill:#444;" y="14"><tspan>Jul 1, 2015</tspan></text></g></g><g class="highcharts-grid" ></g><g class="highcharts-grid" ><path fill="none" d="M 133.5 331 L 133.5 371" stroke="#EEE" stroke-width="1"  opacity="1"></path><path fill="none" d="M 279.5 331 L 279.5 371" stroke="#EEE" stroke-width="1"  opacity="1"></path><path fill="none" d="M 425.5 331 L 425.5 371" stroke="#EEE" stroke-width="1"  opacity="1"></path></g><g class="highcharts-grid" ><path fill="none" d="M 10 203.5 L 550 203.5" stroke="#D8D8D8" stroke-width="1"  opacity="1"></path><path fill="none" d="M 10 172.5 L 550 172.5" stroke="#D8D8D8" stroke-width="1"  opacity="1"></path><path fill="none" d="M 10 141.5 L 550 141.5" stroke="#D8D8D8" stroke-width="1"  opacity="1"></path><path fill="none" d="M 10 110.5 L 550 110.5" stroke="#D8D8D8" stroke-width="1"  opacity="1"></path><path fill="none" d="M 10 78.5 L 550 78.5" stroke="#D8D8D8" stroke-width="1"  opacity="1"></path></g><g class="highcharts-grid" ><path fill="none" d="M 10 285.5 L 550 285.5" stroke="#D8D8D8" stroke-width="1"  opacity="1"></path><path fill="none" d="M 10 212.5 L 550 212.5" stroke="#D8D8D8" stroke-width="1"  opacity="1"></path></g><g class="highcharts-grid" ></g><g class="highcharts-axis" ><path fill="none" d="M 12.5 285 L 12.5 295" stroke="#C0D0E0" stroke-width="1" opacity="1"></path><path fill="none" d="M 90.5 285 L 90.5 295" stroke="#C0D0E0" stroke-width="1" opacity="1"></path><path fill="none" d="M 168.5 285 L 168.5 295" stroke="#C0D0E0" stroke-width="1" opacity="1"></path><path fill="none" d="M 246.5 285 L 246.5 295" stroke="#C0D0E0" stroke-width="1" opacity="1"></path><path fill="none" d="M 324.5 285 L 324.5 295" stroke="#C0D0E0" stroke-width="1" opacity="1"></path><path fill="none" d="M 401.5 285 L 401.5 295" stroke="#C0D0E0" stroke-width="1" opacity="1"></path><path fill="none" d="M 479.5 285 L 479.5 295" stroke="#C0D0E0" stroke-width="1" opacity="1"></path><path fill="none" d="M 10 285.5 L 550 285.5" stroke="#C0D0E0" stroke-width="1"  visibility="visible"></path></g><g class="highcharts-axis" ></g><g class="highcharts-axis" ><text x="560"  text-anchor="middle" transform="translate(0,0) rotate(90 560 140.8)" class=" highcharts-yaxis-title" style="color:#707070;fill:#707070;" visibility="visible" y="140.8">OHLC</text><path fill="none" d="M 550 79 L 550 202.6" stroke="#C0D0E0" stroke-width="2"  visibility="visible"></path></g><g class="highcharts-axis" ><text x="560"  text-anchor="middle" transform="translate(0,0) rotate(90 560 248.9)" class=" highcharts-yaxis-title" style="color:#707070;fill:#707070;" visibility="visible" y="248.9">Volume</text><path fill="none" d="M 550 212.9 L 550 285" stroke="#C0D0E0" stroke-width="2"  visibility="visible"></path></g><g class="highcharts-axis" ></g><g class="highcharts-series-group" ><g class="highcharts-series highcharts-tracker" visibility="visible"  transform="translate(10,79) scale(1 1)" style="" clip-path="url(#highcharts-1)"><path fill="white" d="M -7.5 93.5 L -7.5 91.5 L 12.5 91.5 L 12.5 93.5 Z M 2.5 91.5 L 2.5 89 M 2.5 93.5 L 2.5 98" stroke="black" stroke-width="1"></path><path fill="white" d="M 31.5 96.5 L 31.5 80.5 L 51.5 80.5 L 51.5 96.5 Z M 41.5 80.5 L 41.5 73 M 41.5 96.5 L 41.5 97" stroke="black" stroke-width="1"></path><path fill="#7cb5ec" d="M 70.5 94.5 L 70.5 72.5 L 90.5 72.5 L 90.5 94.5 Z M 80.5 72.5 L 80.5 71 M 80.5 94.5 L 80.5 96" stroke="black" stroke-width="1"></path><path fill="white" d="M 109.5 89.5 L 109.5 60.5 L 129.5 60.5 L 129.5 89.5 Z M 119.5 60.5 L 119.5 58 M 119.5 89.5 L 119.5 92" stroke="black" stroke-width="1"></path><path fill="#7cb5ec" d="M 148.5 68.5 L 148.5 48.5 L 168.5 48.5 L 168.5 68.5 Z M 158.5 48.5 L 158.5 34 M 158.5 68.5 L 158.5 95" stroke="black" stroke-width="1"></path><path fill="#7cb5ec" d="M 187.5 77.5 L 187.5 65.5 L 207.5 65.5 L 207.5 77.5 Z M 197.5 65.5 L 197.5 58 M 197.5 77.5 L 197.5 103" stroke="black" stroke-width="1"></path><path fill="white" d="M 226.5 78.5 L 226.5 69.5 L 246.5 69.5 L 246.5 78.5 Z M 236.5 69.5 L 236.5 65 M 236.5 78.5 L 236.5 94" stroke="black" stroke-width="1"></path><path fill="white" d="M 265.5 72.5 L 265.5 46.5 L 285.5 46.5 L 285.5 72.5 Z M 275.5 46.5 L 275.5 43 M 275.5 72.5 L 275.5 72" stroke="black" stroke-width="1"></path><path fill="#7cb5ec" d="M 304.5 60.5 L 304.5 46.5 L 324.5 46.5 L 324.5 60.5 Z M 314.5 46.5 L 314.5 44 M 314.5 60.5 L 314.5 67" stroke="black" stroke-width="1"></path><path fill="#7cb5ec" d="M 343.5 70.5 L 343.5 60.5 L 363.5 60.5 L 363.5 70.5 Z M 353.5 60.5 L 353.5 53 M 353.5 70.5 L 353.5 72" stroke="black" stroke-width="1"></path><path fill="#7cb5ec" d="M 381.5 79.5 L 381.5 69.5 L 401.5 69.5 L 401.5 79.5 Z M 391.5 69.5 L 391.5 61 M 391.5 79.5 L 391.5 89" stroke="black" stroke-width="1"></path><path fill="white" d="M 420.5 86.5 L 420.5 83.5 L 440.5 83.5 L 440.5 86.5 Z M 430.5 83.5 L 430.5 72 M 430.5 86.5 L 430.5 88" stroke="black" stroke-width="1"></path><path fill="#7cb5ec" d="M 459.5 82.5 L 459.5 77.5 L 479.5 77.5 L 479.5 82.5 Z M 469.5 77.5 L 469.5 63 M 469.5 82.5 L 469.5 83" stroke="black" stroke-width="1"></path><path fill="white" d="M 498.5 90.5 L 498.5 83.5 L 518.5 83.5 L 518.5 90.5 Z M 508.5 83.5 L 508.5 81 M 508.5 90.5 L 508.5 96" stroke="black" stroke-width="1"></path></g><g class="highcharts-markers" visibility="visible"  transform="translate(10,79) scale(1 1)" clip-path="none"></g><g class="highcharts-series highcharts-tracker" visibility="visible"  transform="translate(10,212.9) scale(1 1)" style="" clip-path="url(#highcharts-1)"><rect x="-7" y="68" width="19" height="5" fill="#434348" rx="0" ry="0"></rect><rect x="32" y="47" width="19" height="26" fill="#434348" rx="0" ry="0"></rect><rect x="71" y="48" width="19" height="25" fill="#434348" rx="0" ry="0"></rect><rect x="110" y="43" width="19" height="30" fill="#434348" rx="0" ry="0"></rect><rect x="149" y="12" width="19" height="61" fill="#434348" rx="0" ry="0"></rect><rect x="188" y="34" width="19" height="39" fill="#434348" rx="0" ry="0"></rect><rect x="227" y="43" width="19" height="30" fill="#434348" rx="0" ry="0"></rect><rect x="266" y="42" width="19" height="31" fill="#434348" rx="0" ry="0"></rect><rect x="305" y="45" width="19" height="28" fill="#434348" rx="0" ry="0"></rect><rect x="344" y="48" width="19" height="25" fill="#434348" rx="0" ry="0"></rect><rect x="383" y="41" width="19" height="32" fill="#434348" rx="0" ry="0"></rect><rect x="422" y="44" width="19" height="29" fill="#434348" rx="0" ry="0"></rect><rect x="461" y="45" width="19" height="28" fill="#434348" rx="0" ry="0"></rect><rect x="500" y="55" width="19" height="18" fill="#434348" rx="0" ry="0"></rect></g><g class="highcharts-markers" visibility="visible"  transform="translate(10,212.9) scale(1 1)"></g><g class="highcharts-series" visibility="visible"  transform="translate(24,331) scale(1 1)" clip-path="url(#highcharts-4)"><path fill="rgb(69,114,167)" fill-opacity="0.0" d="M 0 33.2 C 0 33.2 0.8 33.0 1.4 33.0 C 1.9 33.0 2.2 33.0 2.8 33.1 C 3.3 33.2 3.6 33.4 4.2 33.5 C 4.7 33.6 5.0 33.6 5.6 33.6 C 6.1 33.6 6.4 33.6 7.0 33.6 C 7.5 33.6 7.8 33.0 8.4 33.0 C 8.9 33.0 9.2 33.0 9.8 33.0 C 10.3 33.0 10.6 33.0 11.2 33.0 C 11.7 33.1 12.0 33.2 12.6 33.4 C 13.1 33.5 13.4 33.6 14.0 33.8 C 14.5 34.0 14.8 34.3 15.4 34.5 C 15.9 34.7 16.2 34.5 16.8 34.8 C 17.3 35.0 17.6 35.3 18.2 35.6 C 18.7 35.9 19.0 36.3 19.6 36.3 C 20.1 36.3 20.4 35.8 21.0 35.8 C 21.6 35.8 21.8 36.1 22.4 36.1 C 23.0 36.1 23.2 36.0 23.8 35.9 C 24.4 35.9 24.6 35.8 25.2 35.8 C 25.8 35.8 26.0 36.1 26.6 36.2 C 27.2 36.4 27.4 36.5 28.0 36.5 C 28.6 36.5 28.8 36.3 29.4 36.3 C 30.0 36.3 30.2 36.3 30.8 36.3 C 31.4 36.3 31.7 36.1 32.2 36.1 C 32.8 36.1 33.1 36.2 33.6 36.3 C 34.2 36.4 34.5 36.4 35.0 36.5 C 35.6 36.5 35.9 36.5 36.4 36.5 C 37.0 36.5 37.3 36.3 37.8 36.3 C 38.4 36.3 38.7 36.5 39.2 36.5 C 39.8 36.6 40.1 36.6 40.6 36.6 C 41.2 36.6 41.5 36.4 42.0 36.3 C 42.6 36.3 42.9 36.3 43.4 36.3 C 44.0 36.2 44.3 36.0 44.8 36.0 C 45.4 36.0 45.7 36.2 46.2 36.2 C 46.8 36.3 47.1 36.4 47.6 36.4 C 48.2 36.4 48.5 36.4 49.0 36.4 C 49.6 36.4 49.9 36.4 50.4 36.4 C 51.0 36.4 51.3 36.2 51.9 36.0 C 52.4 35.9 52.7 35.8 53.3 35.7 C 53.8 35.7 54.1 35.7 54.7 35.7 C 55.2 35.6 55.5 35.4 56.1 35.3 C 56.6 35.2 56.9 35.3 57.5 35.2 C 58.0 35.2 58.3 35.1 58.9 35.1 C 59.4 35.0 59.7 35.1 60.3 35.0 C 60.8 34.9 61.1 34.7 61.7 34.7 C 62.2 34.7 62.5 35.0 63.1 35.0 C 63.6 35.0 63.9 35.0 64.5 35.0 C 65.0 34.9 65.3 34.8 65.9 34.7 C 66.4 34.6 66.7 34.4 67.3 34.4 C 67.8 34.3 68.1 34.3 68.7 34.3 C 69.2 34.3 69.5 34.5 70.1 34.5 C 70.6 34.5 70.9 34.5 71.5 34.5 C 72.1 34.4 72.3 34.3 72.9 34.3 C 73.5 34.3 73.7 34.5 74.3 34.5 C 74.9 34.5 75.1 34.4 75.7 34.2 C 76.3 34.1 76.5 33.9 77.1 33.8 C 77.7 33.6 77.9 33.6 78.5 33.6 C 79.1 33.5 79.3 33.4 79.9 33.4 C 80.5 33.4 80.7 33.4 81.3 33.4 C 81.9 33.4 82.2 33.4 82.7 33.4 C 83.3 33.4 83.6 33.2 84.1 33.2 C 84.7 33.2 85.0 33.3 85.5 33.3 C 86.1 33.3 86.4 33.2 86.9 33.1 C 87.5 33.0 87.8 33.0 88.3 32.9 C 88.9 32.8 89.2 32.6 89.7 32.6 C 90.3 32.6 90.6 32.6 91.1 32.6 C 91.7 32.6 92.0 32.5 92.5 32.4 C 93.1 32.4 93.4 32.4 93.9 32.4 C 94.5 32.3 94.8 32.0 95.3 32.0 C 95.9 32.0 96.2 32.0 96.7 32.0 C 97.3 32.1 97.6 32.4 98.1 32.4 C 98.7 32.4 99.0 32.0 99.5 31.9 C 100.1 31.8 100.4 31.8 100.9 31.8 C 101.5 31.8 101.8 31.8 102.4 31.9 C 102.9 31.9 103.2 31.9 103.8 32.0 C 104.3 32.1 104.6 32.2 105.2 32.2 C 105.7 32.2 106.0 32.2 106.6 32.2 C 107.1 32.2 107.4 32.1 108.0 32.0 C 108.5 31.9 108.8 31.6 109.4 31.5 C 109.9 31.5 110.2 31.5 110.8 31.5 C 111.3 31.5 111.6 31.6 112.2 31.6 C 112.7 31.6 113.0 31.6 113.6 31.6 C 114.1 31.6 114.4 31.7 115.0 31.8 C 115.5 32.0 115.8 32.2 116.4 32.2 C 116.9 32.2 117.2 32.2 117.8 32.1 C 118.3 32.1 118.6 31.9 119.2 31.9 C 119.7 31.9 120.0 32.0 120.6 32.0 C 121.1 32.0 121.4 31.8 122.0 31.6 C 122.5 31.4 122.8 31.2 123.4 31.1 C 124.0 31.0 124.2 31.0 124.8 31.0 C 125.4 31.0 125.6 31.0 126.2 30.9 C 126.8 30.8 127.0 30.7 127.6 30.6 C 128.2 30.5 128.4 30.5 129.0 30.4 C 129.6 30.4 129.8 30.3 130.4 30.2 C 131.0 30.1 131.2 29.9 131.8 29.8 C 132.4 29.6 132.6 29.3 133.2 29.3 C 133.8 29.3 134.1 29.8 134.6 29.8 C 135.2 29.8 135.5 29.8 136.0 29.8 C 136.6 29.8 136.9 30.1 137.4 30.1 C 138.0 30.1 138.3 30.1 138.8 30.0 C 139.4 29.9 139.7 29.5 140.2 29.5 C 140.8 29.5 141.1 30.0 141.6 30.0 C 142.2 30.0 142.5 29.7 143.0 29.5 C 143.6 29.3 143.9 29.1 144.4 29.1 C 145.0 29.1 145.3 29.5 145.8 29.7 C 146.4 29.8 146.7 29.8 147.2 29.8 C 147.8 29.8 148.1 29.9 148.6 29.9 C 149.2 29.9 149.5 29.9 150.0 29.8 C 150.6 29.8 150.9 29.6 151.4 29.6 C 152.0 29.6 152.3 29.6 152.8 29.6 C 153.4 29.6 153.7 29.7 154.3 29.8 C 154.8 29.9 155.1 29.9 155.7 30.0 C 156.2 30.1 156.5 30.2 157.1 30.2 C 157.6 30.2 157.9 30.2 158.5 30.1 C 159.0 30.0 159.3 29.7 159.9 29.6 C 160.4 29.4 160.7 29.4 161.3 29.2 C 161.8 29.0 162.1 28.8 162.7 28.6 C 163.2 28.5 163.5 28.4 164.1 28.4 C 164.6 28.4 164.9 28.5 165.5 28.5 C 166.0 28.5 166.3 28.2 166.9 28.0 C 167.4 27.8 167.7 27.6 168.3 27.6 C 168.8 27.6 169.1 27.7 169.7 27.7 C 170.2 27.7 170.5 27.7 171.1 27.6 C 171.6 27.5 171.9 27.3 172.5 27.3 C 173.0 27.3 173.3 27.8 173.9 27.8 C 174.5 27.8 174.7 27.7 175.3 27.6 C 175.9 27.5 176.1 27.5 176.7 27.4 C 177.3 27.3 177.5 27.2 178.1 27.2 C 178.7 27.1 178.9 27.2 179.5 27.1 C 180.1 27.1 180.3 27.1 180.9 27.1 C 181.5 27.1 181.7 27.1 182.3 27.0 C 182.9 27.0 183.1 26.9 183.7 26.8 C 184.3 26.6 184.6 26.3 185.1 26.3 C 185.7 26.3 186.0 26.5 186.5 26.5 C 187.1 26.5 187.4 26.5 187.9 26.5 C 188.5 26.4 188.8 26.5 189.3 26.3 C 189.9 26.2 190.2 26.0 190.7 25.9 C 191.3 25.7 191.6 25.7 192.1 25.7 C 192.7 25.7 193.0 26.3 193.5 26.3 C 194.1 26.3 194.4 25.8 194.9 25.8 C 195.5 25.8 195.8 25.8 196.3 25.9 C 196.9 26.0 197.2 26.3 197.7 26.3 C 198.3 26.4 198.6 26.4 199.1 26.4 C 199.7 26.4 200.0 26.0 200.5 26.0 C 201.1 26.0 201.4 26.3 201.9 26.4 C 202.5 26.5 202.8 26.7 203.3 26.7 C 203.9 26.7 204.2 26.6 204.8 26.4 C 205.3 26.3 205.6 26.0 206.2 26.0 C 206.7 26.0 207.0 26.0 207.6 26.1 C 208.1 26.1 208.4 26.1 209.0 26.1 C 209.5 26.2 209.8 26.4 210.4 26.5 C 210.9 26.6 211.2 26.7 211.8 26.7 C 212.3 26.7 212.6 26.2 213.2 26.2 C 213.7 26.2 214.0 26.4 214.6 26.6 C 215.1 26.7 215.4 26.8 216.0 26.9 C 216.5 27.0 216.8 27.1 217.4 27.1 C 217.9 27.1 218.2 26.9 218.8 26.7 C 219.3 26.4 219.6 26.2 220.2 26.0 C 220.7 25.8 221.0 26.0 221.6 25.7 C 222.1 25.4 222.4 25.0 223.0 24.7 C 223.5 24.4 223.8 24.3 224.4 24.3 C 224.9 24.3 225.2 24.3 225.8 24.4 C 226.4 24.5 226.6 25.3 227.2 25.3 C 227.8 25.3 228.0 25.0 228.6 25.0 C 229.2 25.0 229.4 25.3 230.0 25.3 C 230.6 25.3 230.8 24.6 231.4 24.6 C 232.0 24.6 232.2 24.8 232.8 24.8 C 233.4 24.8 233.6 24.8 234.2 24.6 C 234.8 24.4 235.0 23.8 235.6 23.8 C 236.2 23.8 236.5 23.8 237.0 24.0 C 237.6 24.3 237.9 25.0 238.4 25.0 C 239.0 25.0 239.3 24.3 239.8 24.0 C 240.4 23.7 240.7 23.7 241.2 23.7 C 241.8 23.7 242.1 23.9 242.6 23.9 C 243.2 24.0 243.5 24.0 244.0 24.0 C 244.6 24.1 244.9 24.0 245.4 24.2 C 246.0 24.3 246.3 24.5 246.8 24.7 C 247.4 24.9 247.7 25.2 248.2 25.2 C 248.8 25.2 249.1 25.0 249.6 24.8 C 250.2 24.6 250.5 24.3 251.0 24.3 C 251.6 24.3 251.9 24.5 252.4 24.5 C 253.0 24.5 253.3 24.5 253.8 24.3 C 254.4 24.2 254.7 24.0 255.2 23.9 C 255.8 23.7 256.1 23.6 256.7 23.5 C 257.2 23.3 257.5 23.2 258.1 23.1 C 258.6 23.0 258.9 23.1 259.5 22.9 C 260.0 22.8 260.3 22.7 260.9 22.5 C 261.4 22.3 261.7 22.1 262.3 21.9 C 262.8 21.6 263.1 21.5 263.7 21.1 C 264.2 20.7 264.5 20.3 265.1 19.9 C 265.6 19.6 265.9 19.8 266.5 19.5 C 267.0 19.2 267.3 18.6 267.9 18.6 C 268.4 18.6 268.7 18.6 269.3 18.6 C 269.8 18.6 270.1 17.6 270.7 17.1 C 271.2 16.6 271.5 16.3 272.1 16.1 C 272.6 15.8 272.9 15.9 273.5 15.7 C 274.0 15.5 274.3 15.4 274.9 15.3 C 275.4 15.1 275.7 14.8 276.3 14.8 C 276.9 14.8 277.1 15.9 277.7 16.1 C 278.3 16.3 278.5 16.2 279.1 16.3 C 279.7 16.4 279.9 16.4 280.5 16.6 C 281.1 16.8 281.3 17.1 281.9 17.4 C 282.5 17.7 282.7 18.0 283.3 18.0 C 283.9 18.0 284.1 17.8 284.7 17.6 C 285.3 17.5 285.5 17.2 286.1 17.2 C 286.7 17.2 287.0 17.3 287.5 17.3 C 288.1 17.3 288.4 17.1 288.9 17.0 C 289.5 16.9 289.8 16.8 290.3 16.8 C 290.9 16.8 291.2 17.1 291.7 17.1 C 292.3 17.1 292.6 16.4 293.1 16.2 C 293.7 15.9 294.0 15.9 294.5 15.8 C 295.1 15.7 295.4 15.7 295.9 15.7 C 296.5 15.7 296.8 16.6 297.3 16.6 C 297.9 16.6 298.2 16.1 298.7 15.8 C 299.3 15.6 299.6 15.5 300.1 15.3 C 300.7 15.1 301.0 15.1 301.5 14.8 C 302.1 14.5 302.4 14.0 302.9 13.7 C 303.5 13.3 303.8 13.1 304.3 13.1 C 304.9 13.1 305.2 13.1 305.7 13.1 C 306.3 13.1 306.6 13.1 307.2 13.0 C 307.7 12.9 308.0 12.1 308.6 12.1 C 309.1 12.1 309.4 12.7 310.0 13.0 C 310.5 13.2 310.8 13.1 311.4 13.4 C 311.9 13.7 312.2 14.3 312.8 14.4 C 313.3 14.6 313.6 14.4 314.2 14.6 C 314.7 14.7 315.0 15.0 315.6 15.3 C 316.1 15.6 316.4 15.8 317.0 16.2 C 317.5 16.6 317.8 16.8 318.4 17.3 C 318.9 17.7 319.2 18.4 319.8 18.4 C 320.3 18.4 320.6 18.0 321.2 17.6 C 321.7 17.3 322.0 16.7 322.6 16.7 C 323.1 16.7 323.4 17.0 324.0 17.4 C 324.5 17.9 324.8 18.4 325.4 18.8 C 325.9 19.1 326.2 19.1 326.8 19.2 C 327.3 19.3 327.6 19.4 328.2 19.4 C 328.8 19.4 329.0 18.6 329.6 18.6 C 330.2 18.6 330.4 18.8 331.0 19.1 C 331.6 19.3 331.8 19.7 332.4 20.0 C 333.0 20.4 333.2 20.4 333.8 20.8 C 334.4 21.2 334.6 21.9 335.2 21.9 C 335.8 21.9 336.0 21.8 336.6 21.7 C 337.2 21.6 337.4 21.2 338.0 21.2 C 338.6 21.2 338.9 21.7 339.4 21.9 C 340.0 22.1 340.3 22.0 340.8 22.2 C 341.4 22.4 341.7 22.9 342.2 22.9 C 342.8 22.9 343.1 22.9 343.6 22.7 C 344.2 22.5 344.5 22.1 345.0 21.9 C 345.6 21.7 345.9 21.7 346.4 21.7 C 347.0 21.7 347.3 22.7 347.8 22.8 C 348.4 22.9 348.7 22.8 349.2 22.9 C 349.8 22.9 350.1 23.3 350.6 23.5 C 351.2 23.8 351.5 23.9 352.0 23.9 C 352.6 23.9 352.9 22.9 353.4 22.5 C 354.0 22.0 354.3 21.7 354.8 21.7 C 355.4 21.7 355.7 22.3 356.2 22.4 C 356.8 22.5 357.1 22.5 357.6 22.5 C 358.2 22.5 358.5 22.2 359.1 22.2 C 359.6 22.2 359.9 22.2 360.5 22.2 C 361.0 22.3 361.3 22.4 361.9 22.5 C 362.4 22.7 362.7 22.7 363.3 23.0 C 363.8 23.3 364.1 24.0 364.7 24.0 C 365.2 24.0 365.5 23.6 366.1 23.5 C 366.6 23.3 366.9 23.3 367.5 23.2 C 368.0 23.1 368.3 23.0 368.9 22.8 C 369.4 22.7 369.7 22.8 370.3 22.7 C 370.8 22.5 371.1 22.2 371.7 22.0 C 372.2 21.7 372.5 21.7 373.1 21.5 C 373.6 21.2 373.9 21.0 374.5 20.7 C 375.0 20.3 375.3 19.8 375.9 19.8 C 376.4 19.8 376.7 20.3 377.3 20.3 C 377.8 20.3 378.1 20.1 378.7 20.1 C 379.3 20.1 379.5 20.4 380.1 20.7 C 380.7 21.0 380.9 21.5 381.5 21.5 C 382.1 21.5 382.3 20.4 382.9 20.4 C 383.5 20.4 383.7 20.7 384.3 20.7 C 384.9 20.7 385.1 20.6 385.7 20.5 C 386.3 20.4 386.5 20.4 387.1 20.1 C 387.7 19.8 387.9 19.3 388.5 19.1 C 389.1 19.0 389.4 19.0 389.9 19.0 C 390.5 19.0 390.8 19.2 391.3 19.2 C 391.9 19.2 392.2 19.2 392.7 19.2 C 393.3 19.2 393.6 19.2 394.1 19.2 C 394.7 19.2 395.0 19.1 395.5 18.7 C 396.1 18.4 396.4 17.5 396.9 17.5 C 397.5 17.5 397.8 17.5 398.3 17.5 C 398.9 17.5 399.2 18.0 399.7 18.0 C 400.3 18.0 400.6 17.4 401.1 17.4 C 401.7 17.4 402.0 17.6 402.5 17.8 C 403.1 18.1 403.4 18.4 403.9 18.4 C 404.5 18.4 404.8 18.3 405.3 18.2 C 405.9 18.2 406.2 18.1 406.7 18.1 C 407.3 18.1 407.6 19.4 408.1 19.6 C 408.7 19.7 409.0 19.7 409.6 19.7 C 410.1 19.7 410.4 19.0 411.0 18.7 C 411.5 18.5 411.8 18.5 412.4 18.5 C 412.9 18.5 413.2 19.1 413.8 19.1 C 414.3 19.1 414.6 18.9 415.2 18.9 C 415.7 18.8 416.0 18.7 416.6 18.7 C 417.1 18.7 417.4 18.9 418.0 18.9 C 418.5 18.9 418.8 18.4 419.4 18.4 C 419.9 18.4 420.2 18.4 420.8 18.4 C 421.3 18.5 421.6 18.9 422.2 19.0 C 422.7 19.2 423.0 19.2 423.6 19.2 C 424.1 19.2 424.4 18.9 425.0 18.3 C 425.5 17.8 425.8 16.6 426.4 16.5 C 426.9 16.4 427.2 16.4 427.8 16.4 C 428.3 16.4 428.6 16.4 429.2 16.4 C 429.7 16.4 430.0 16.2 430.6 15.9 C 431.2 15.6 431.4 15.3 432.0 15.0 C 432.6 14.7 432.8 14.7 433.4 14.5 C 434.0 14.3 434.2 13.9 434.8 13.9 C 435.4 13.9 435.6 14.1 436.2 14.3 C 436.8 14.5 437.0 14.7 437.6 14.7 C 438.2 14.7 438.4 14.2 439.0 13.9 C 439.6 13.7 439.8 13.6 440.4 13.5 C 441.0 13.3 441.3 13.3 441.8 13.3 C 442.4 13.2 442.7 13.3 443.2 13.2 C 443.8 13.2 444.1 12.8 444.6 12.8 C 445.2 12.8 445.5 13.4 446.0 13.4 C 446.6 13.4 446.9 13.3 447.4 13.0 C 448.0 12.8 448.3 12.4 448.8 12.1 C 449.4 11.8 449.7 11.6 450.2 11.6 C 450.8 11.6 451.1 11.7 451.6 11.8 C 452.2 11.9 452.5 12.2 453.0 12.2 C 453.6 12.2 453.9 11.6 454.4 11.6 C 455.0 11.6 455.3 11.8 455.8 11.9 C 456.4 12.0 456.7 12.1 457.2 12.1 C 457.8 12.1 458.1 12.1 458.6 12.1 C 459.2 12.1 459.5 12.5 460.0 12.5 C 460.6 12.5 460.9 11.8 461.5 11.3 C 462.0 10.9 462.3 10.6 462.9 10.3 C 463.4 10.0 463.7 9.8 464.3 9.6 C 464.8 9.4 465.1 9.5 465.7 9.2 C 466.2 8.8 466.5 8.3 467.1 7.8 C 467.6 7.4 467.9 7.0 468.5 7.0 C 469.0 7.0 469.3 7.3 469.9 7.6 C 470.4 8.0 470.7 8.3 471.3 8.6 C 471.8 9.0 472.1 9.4 472.7 9.4 C 473.2 9.4 473.5 8.7 474.1 8.6 C 474.6 8.5 474.9 8.5 475.5 8.5 C 476.0 8.5 476.3 9.6 476.9 9.6 C 477.4 9.6 477.7 9.3 478.3 9.3 C 478.8 9.3 479.1 9.3 479.7 9.3 C 480.2 9.3 480.5 8.2 481.1 7.7 C 481.7 7.2 481.9 7.2 482.5 6.8 C 483.1 6.4 483.3 6.2 483.9 5.7 C 484.5 5.2 484.7 4.7 485.3 4.2 C 485.9 3.8 486.1 3.5 486.7 3.5 C 487.3 3.5 487.5 3.7 488.1 4.0 C 488.7 4.3 488.9 5.1 489.5 5.1 C 490.1 5.1 490.3 4.6 490.9 4.6 C 491.5 4.6 491.8 4.8 492.3 4.9 C 492.9 5.0 493.2 5.1 493.7 5.1 C 494.3 5.1 494.6 4.9 495.1 4.8 C 495.7 4.7 496.0 4.7 496.5 4.6 C 497.1 4.5 497.4 4.5 497.9 4.3 C 498.5 4.1 498.8 3.6 499.3 3.6 C 499.9 3.6 500.2 4.5 500.7 4.5 C 501.3 4.5 501.6 4.5 502.1 4.5 C 502.7 4.5 503.0 3.9 503.5 3.7 C 504.1 3.4 504.4 3.3 504.9 3.3 C 505.5 3.3 505.8 3.5 506.3 3.7 C 506.9 3.9 507.2 4.1 507.7 4.2 C 508.3 4.4 508.6 4.5 509.1 4.5 C 509.7 4.5 510.0 4.3 510.5 4.3 C 511.1 4.3 512 4.8 512 4.8 L 512 40 L 0 40" ></path><path fill="none" d="M 0 33.2 C 0 33.2 0.8 33.0 1.4 33.0 C 1.9 33.0 2.2 33.0 2.8 33.1 C 3.3 33.2 3.6 33.4 4.2 33.5 C 4.7 33.6 5.0 33.6 5.6 33.6 C 6.1 33.6 6.4 33.6 7.0 33.6 C 7.5 33.6 7.8 33.0 8.4 33.0 C 8.9 33.0 9.2 33.0 9.8 33.0 C 10.3 33.0 10.6 33.0 11.2 33.0 C 11.7 33.1 12.0 33.2 12.6 33.4 C 13.1 33.5 13.4 33.6 14.0 33.8 C 14.5 34.0 14.8 34.3 15.4 34.5 C 15.9 34.7 16.2 34.5 16.8 34.8 C 17.3 35.0 17.6 35.3 18.2 35.6 C 18.7 35.9 19.0 36.3 19.6 36.3 C 20.1 36.3 20.4 35.8 21.0 35.8 C 21.6 35.8 21.8 36.1 22.4 36.1 C 23.0 36.1 23.2 36.0 23.8 35.9 C 24.4 35.9 24.6 35.8 25.2 35.8 C 25.8 35.8 26.0 36.1 26.6 36.2 C 27.2 36.4 27.4 36.5 28.0 36.5 C 28.6 36.5 28.8 36.3 29.4 36.3 C 30.0 36.3 30.2 36.3 30.8 36.3 C 31.4 36.3 31.7 36.1 32.2 36.1 C 32.8 36.1 33.1 36.2 33.6 36.3 C 34.2 36.4 34.5 36.4 35.0 36.5 C 35.6 36.5 35.9 36.5 36.4 36.5 C 37.0 36.5 37.3 36.3 37.8 36.3 C 38.4 36.3 38.7 36.5 39.2 36.5 C 39.8 36.6 40.1 36.6 40.6 36.6 C 41.2 36.6 41.5 36.4 42.0 36.3 C 42.6 36.3 42.9 36.3 43.4 36.3 C 44.0 36.2 44.3 36.0 44.8 36.0 C 45.4 36.0 45.7 36.2 46.2 36.2 C 46.8 36.3 47.1 36.4 47.6 36.4 C 48.2 36.4 48.5 36.4 49.0 36.4 C 49.6 36.4 49.9 36.4 50.4 36.4 C 51.0 36.4 51.3 36.2 51.9 36.0 C 52.4 35.9 52.7 35.8 53.3 35.7 C 53.8 35.7 54.1 35.7 54.7 35.7 C 55.2 35.6 55.5 35.4 56.1 35.3 C 56.6 35.2 56.9 35.3 57.5 35.2 C 58.0 35.2 58.3 35.1 58.9 35.1 C 59.4 35.0 59.7 35.1 60.3 35.0 C 60.8 34.9 61.1 34.7 61.7 34.7 C 62.2 34.7 62.5 35.0 63.1 35.0 C 63.6 35.0 63.9 35.0 64.5 35.0 C 65.0 34.9 65.3 34.8 65.9 34.7 C 66.4 34.6 66.7 34.4 67.3 34.4 C 67.8 34.3 68.1 34.3 68.7 34.3 C 69.2 34.3 69.5 34.5 70.1 34.5 C 70.6 34.5 70.9 34.5 71.5 34.5 C 72.1 34.4 72.3 34.3 72.9 34.3 C 73.5 34.3 73.7 34.5 74.3 34.5 C 74.9 34.5 75.1 34.4 75.7 34.2 C 76.3 34.1 76.5 33.9 77.1 33.8 C 77.7 33.6 77.9 33.6 78.5 33.6 C 79.1 33.5 79.3 33.4 79.9 33.4 C 80.5 33.4 80.7 33.4 81.3 33.4 C 81.9 33.4 82.2 33.4 82.7 33.4 C 83.3 33.4 83.6 33.2 84.1 33.2 C 84.7 33.2 85.0 33.3 85.5 33.3 C 86.1 33.3 86.4 33.2 86.9 33.1 C 87.5 33.0 87.8 33.0 88.3 32.9 C 88.9 32.8 89.2 32.6 89.7 32.6 C 90.3 32.6 90.6 32.6 91.1 32.6 C 91.7 32.6 92.0 32.5 92.5 32.4 C 93.1 32.4 93.4 32.4 93.9 32.4 C 94.5 32.3 94.8 32.0 95.3 32.0 C 95.9 32.0 96.2 32.0 96.7 32.0 C 97.3 32.1 97.6 32.4 98.1 32.4 C 98.7 32.4 99.0 32.0 99.5 31.9 C 100.1 31.8 100.4 31.8 100.9 31.8 C 101.5 31.8 101.8 31.8 102.4 31.9 C 102.9 31.9 103.2 31.9 103.8 32.0 C 104.3 32.1 104.6 32.2 105.2 32.2 C 105.7 32.2 106.0 32.2 106.6 32.2 C 107.1 32.2 107.4 32.1 108.0 32.0 C 108.5 31.9 108.8 31.6 109.4 31.5 C 109.9 31.5 110.2 31.5 110.8 31.5 C 111.3 31.5 111.6 31.6 112.2 31.6 C 112.7 31.6 113.0 31.6 113.6 31.6 C 114.1 31.6 114.4 31.7 115.0 31.8 C 115.5 32.0 115.8 32.2 116.4 32.2 C 116.9 32.2 117.2 32.2 117.8 32.1 C 118.3 32.1 118.6 31.9 119.2 31.9 C 119.7 31.9 120.0 32.0 120.6 32.0 C 121.1 32.0 121.4 31.8 122.0 31.6 C 122.5 31.4 122.8 31.2 123.4 31.1 C 124.0 31.0 124.2 31.0 124.8 31.0 C 125.4 31.0 125.6 31.0 126.2 30.9 C 126.8 30.8 127.0 30.7 127.6 30.6 C 128.2 30.5 128.4 30.5 129.0 30.4 C 129.6 30.4 129.8 30.3 130.4 30.2 C 131.0 30.1 131.2 29.9 131.8 29.8 C 132.4 29.6 132.6 29.3 133.2 29.3 C 133.8 29.3 134.1 29.8 134.6 29.8 C 135.2 29.8 135.5 29.8 136.0 29.8 C 136.6 29.8 136.9 30.1 137.4 30.1 C 138.0 30.1 138.3 30.1 138.8 30.0 C 139.4 29.9 139.7 29.5 140.2 29.5 C 140.8 29.5 141.1 30.0 141.6 30.0 C 142.2 30.0 142.5 29.7 143.0 29.5 C 143.6 29.3 143.9 29.1 144.4 29.1 C 145.0 29.1 145.3 29.5 145.8 29.7 C 146.4 29.8 146.7 29.8 147.2 29.8 C 147.8 29.8 148.1 29.9 148.6 29.9 C 149.2 29.9 149.5 29.9 150.0 29.8 C 150.6 29.8 150.9 29.6 151.4 29.6 C 152.0 29.6 152.3 29.6 152.8 29.6 C 153.4 29.6 153.7 29.7 154.3 29.8 C 154.8 29.9 155.1 29.9 155.7 30.0 C 156.2 30.1 156.5 30.2 157.1 30.2 C 157.6 30.2 157.9 30.2 158.5 30.1 C 159.0 30.0 159.3 29.7 159.9 29.6 C 160.4 29.4 160.7 29.4 161.3 29.2 C 161.8 29.0 162.1 28.8 162.7 28.6 C 163.2 28.5 163.5 28.4 164.1 28.4 C 164.6 28.4 164.9 28.5 165.5 28.5 C 166.0 28.5 166.3 28.2 166.9 28.0 C 167.4 27.8 167.7 27.6 168.3 27.6 C 168.8 27.6 169.1 27.7 169.7 27.7 C 170.2 27.7 170.5 27.7 171.1 27.6 C 171.6 27.5 171.9 27.3 172.5 27.3 C 173.0 27.3 173.3 27.8 173.9 27.8 C 174.5 27.8 174.7 27.7 175.3 27.6 C 175.9 27.5 176.1 27.5 176.7 27.4 C 177.3 27.3 177.5 27.2 178.1 27.2 C 178.7 27.1 178.9 27.2 179.5 27.1 C 180.1 27.1 180.3 27.1 180.9 27.1 C 181.5 27.1 181.7 27.1 182.3 27.0 C 182.9 27.0 183.1 26.9 183.7 26.8 C 184.3 26.6 184.6 26.3 185.1 26.3 C 185.7 26.3 186.0 26.5 186.5 26.5 C 187.1 26.5 187.4 26.5 187.9 26.5 C 188.5 26.4 188.8 26.5 189.3 26.3 C 189.9 26.2 190.2 26.0 190.7 25.9 C 191.3 25.7 191.6 25.7 192.1 25.7 C 192.7 25.7 193.0 26.3 193.5 26.3 C 194.1 26.3 194.4 25.8 194.9 25.8 C 195.5 25.8 195.8 25.8 196.3 25.9 C 196.9 26.0 197.2 26.3 197.7 26.3 C 198.3 26.4 198.6 26.4 199.1 26.4 C 199.7 26.4 200.0 26.0 200.5 26.0 C 201.1 26.0 201.4 26.3 201.9 26.4 C 202.5 26.5 202.8 26.7 203.3 26.7 C 203.9 26.7 204.2 26.6 204.8 26.4 C 205.3 26.3 205.6 26.0 206.2 26.0 C 206.7 26.0 207.0 26.0 207.6 26.1 C 208.1 26.1 208.4 26.1 209.0 26.1 C 209.5 26.2 209.8 26.4 210.4 26.5 C 210.9 26.6 211.2 26.7 211.8 26.7 C 212.3 26.7 212.6 26.2 213.2 26.2 C 213.7 26.2 214.0 26.4 214.6 26.6 C 215.1 26.7 215.4 26.8 216.0 26.9 C 216.5 27.0 216.8 27.1 217.4 27.1 C 217.9 27.1 218.2 26.9 218.8 26.7 C 219.3 26.4 219.6 26.2 220.2 26.0 C 220.7 25.8 221.0 26.0 221.6 25.7 C 222.1 25.4 222.4 25.0 223.0 24.7 C 223.5 24.4 223.8 24.3 224.4 24.3 C 224.9 24.3 225.2 24.3 225.8 24.4 C 226.4 24.5 226.6 25.3 227.2 25.3 C 227.8 25.3 228.0 25.0 228.6 25.0 C 229.2 25.0 229.4 25.3 230.0 25.3 C 230.6 25.3 230.8 24.6 231.4 24.6 C 232.0 24.6 232.2 24.8 232.8 24.8 C 233.4 24.8 233.6 24.8 234.2 24.6 C 234.8 24.4 235.0 23.8 235.6 23.8 C 236.2 23.8 236.5 23.8 237.0 24.0 C 237.6 24.3 237.9 25.0 238.4 25.0 C 239.0 25.0 239.3 24.3 239.8 24.0 C 240.4 23.7 240.7 23.7 241.2 23.7 C 241.8 23.7 242.1 23.9 242.6 23.9 C 243.2 24.0 243.5 24.0 244.0 24.0 C 244.6 24.1 244.9 24.0 245.4 24.2 C 246.0 24.3 246.3 24.5 246.8 24.7 C 247.4 24.9 247.7 25.2 248.2 25.2 C 248.8 25.2 249.1 25.0 249.6 24.8 C 250.2 24.6 250.5 24.3 251.0 24.3 C 251.6 24.3 251.9 24.5 252.4 24.5 C 253.0 24.5 253.3 24.5 253.8 24.3 C 254.4 24.2 254.7 24.0 255.2 23.9 C 255.8 23.7 256.1 23.6 256.7 23.5 C 257.2 23.3 257.5 23.2 258.1 23.1 C 258.6 23.0 258.9 23.1 259.5 22.9 C 260.0 22.8 260.3 22.7 260.9 22.5 C 261.4 22.3 261.7 22.1 262.3 21.9 C 262.8 21.6 263.1 21.5 263.7 21.1 C 264.2 20.7 264.5 20.3 265.1 19.9 C 265.6 19.6 265.9 19.8 266.5 19.5 C 267.0 19.2 267.3 18.6 267.9 18.6 C 268.4 18.6 268.7 18.6 269.3 18.6 C 269.8 18.6 270.1 17.6 270.7 17.1 C 271.2 16.6 271.5 16.3 272.1 16.1 C 272.6 15.8 272.9 15.9 273.5 15.7 C 274.0 15.5 274.3 15.4 274.9 15.3 C 275.4 15.1 275.7 14.8 276.3 14.8 C 276.9 14.8 277.1 15.9 277.7 16.1 C 278.3 16.3 278.5 16.2 279.1 16.3 C 279.7 16.4 279.9 16.4 280.5 16.6 C 281.1 16.8 281.3 17.1 281.9 17.4 C 282.5 17.7 282.7 18.0 283.3 18.0 C 283.9 18.0 284.1 17.8 284.7 17.6 C 285.3 17.5 285.5 17.2 286.1 17.2 C 286.7 17.2 287.0 17.3 287.5 17.3 C 288.1 17.3 288.4 17.1 288.9 17.0 C 289.5 16.9 289.8 16.8 290.3 16.8 C 290.9 16.8 291.2 17.1 291.7 17.1 C 292.3 17.1 292.6 16.4 293.1 16.2 C 293.7 15.9 294.0 15.9 294.5 15.8 C 295.1 15.7 295.4 15.7 295.9 15.7 C 296.5 15.7 296.8 16.6 297.3 16.6 C 297.9 16.6 298.2 16.1 298.7 15.8 C 299.3 15.6 299.6 15.5 300.1 15.3 C 300.7 15.1 301.0 15.1 301.5 14.8 C 302.1 14.5 302.4 14.0 302.9 13.7 C 303.5 13.3 303.8 13.1 304.3 13.1 C 304.9 13.1 305.2 13.1 305.7 13.1 C 306.3 13.1 306.6 13.1 307.2 13.0 C 307.7 12.9 308.0 12.1 308.6 12.1 C 309.1 12.1 309.4 12.7 310.0 13.0 C 310.5 13.2 310.8 13.1 311.4 13.4 C 311.9 13.7 312.2 14.3 312.8 14.4 C 313.3 14.6 313.6 14.4 314.2 14.6 C 314.7 14.7 315.0 15.0 315.6 15.3 C 316.1 15.6 316.4 15.8 317.0 16.2 C 317.5 16.6 317.8 16.8 318.4 17.3 C 318.9 17.7 319.2 18.4 319.8 18.4 C 320.3 18.4 320.6 18.0 321.2 17.6 C 321.7 17.3 322.0 16.7 322.6 16.7 C 323.1 16.7 323.4 17.0 324.0 17.4 C 324.5 17.9 324.8 18.4 325.4 18.8 C 325.9 19.1 326.2 19.1 326.8 19.2 C 327.3 19.3 327.6 19.4 328.2 19.4 C 328.8 19.4 329.0 18.6 329.6 18.6 C 330.2 18.6 330.4 18.8 331.0 19.1 C 331.6 19.3 331.8 19.7 332.4 20.0 C 333.0 20.4 333.2 20.4 333.8 20.8 C 334.4 21.2 334.6 21.9 335.2 21.9 C 335.8 21.9 336.0 21.8 336.6 21.7 C 337.2 21.6 337.4 21.2 338.0 21.2 C 338.6 21.2 338.9 21.7 339.4 21.9 C 340.0 22.1 340.3 22.0 340.8 22.2 C 341.4 22.4 341.7 22.9 342.2 22.9 C 342.8 22.9 343.1 22.9 343.6 22.7 C 344.2 22.5 344.5 22.1 345.0 21.9 C 345.6 21.7 345.9 21.7 346.4 21.7 C 347.0 21.7 347.3 22.7 347.8 22.8 C 348.4 22.9 348.7 22.8 349.2 22.9 C 349.8 22.9 350.1 23.3 350.6 23.5 C 351.2 23.8 351.5 23.9 352.0 23.9 C 352.6 23.9 352.9 22.9 353.4 22.5 C 354.0 22.0 354.3 21.7 354.8 21.7 C 355.4 21.7 355.7 22.3 356.2 22.4 C 356.8 22.5 357.1 22.5 357.6 22.5 C 358.2 22.5 358.5 22.2 359.1 22.2 C 359.6 22.2 359.9 22.2 360.5 22.2 C 361.0 22.3 361.3 22.4 361.9 22.5 C 362.4 22.7 362.7 22.7 363.3 23.0 C 363.8 23.3 364.1 24.0 364.7 24.0 C 365.2 24.0 365.5 23.6 366.1 23.5 C 366.6 23.3 366.9 23.3 367.5 23.2 C 368.0 23.1 368.3 23.0 368.9 22.8 C 369.4 22.7 369.7 22.8 370.3 22.7 C 370.8 22.5 371.1 22.2 371.7 22.0 C 372.2 21.7 372.5 21.7 373.1 21.5 C 373.6 21.2 373.9 21.0 374.5 20.7 C 375.0 20.3 375.3 19.8 375.9 19.8 C 376.4 19.8 376.7 20.3 377.3 20.3 C 377.8 20.3 378.1 20.1 378.7 20.1 C 379.3 20.1 379.5 20.4 380.1 20.7 C 380.7 21.0 380.9 21.5 381.5 21.5 C 382.1 21.5 382.3 20.4 382.9 20.4 C 383.5 20.4 383.7 20.7 384.3 20.7 C 384.9 20.7 385.1 20.6 385.7 20.5 C 386.3 20.4 386.5 20.4 387.1 20.1 C 387.7 19.8 387.9 19.3 388.5 19.1 C 389.1 19.0 389.4 19.0 389.9 19.0 C 390.5 19.0 390.8 19.2 391.3 19.2 C 391.9 19.2 392.2 19.2 392.7 19.2 C 393.3 19.2 393.6 19.2 394.1 19.2 C 394.7 19.2 395.0 19.1 395.5 18.7 C 396.1 18.4 396.4 17.5 396.9 17.5 C 397.5 17.5 397.8 17.5 398.3 17.5 C 398.9 17.5 399.2 18.0 399.7 18.0 C 400.3 18.0 400.6 17.4 401.1 17.4 C 401.7 17.4 402.0 17.6 402.5 17.8 C 403.1 18.1 403.4 18.4 403.9 18.4 C 404.5 18.4 404.8 18.3 405.3 18.2 C 405.9 18.2 406.2 18.1 406.7 18.1 C 407.3 18.1 407.6 19.4 408.1 19.6 C 408.7 19.7 409.0 19.7 409.6 19.7 C 410.1 19.7 410.4 19.0 411.0 18.7 C 411.5 18.5 411.8 18.5 412.4 18.5 C 412.9 18.5 413.2 19.1 413.8 19.1 C 414.3 19.1 414.6 18.9 415.2 18.9 C 415.7 18.8 416.0 18.7 416.6 18.7 C 417.1 18.7 417.4 18.9 418.0 18.9 C 418.5 18.9 418.8 18.4 419.4 18.4 C 419.9 18.4 420.2 18.4 420.8 18.4 C 421.3 18.5 421.6 18.9 422.2 19.0 C 422.7 19.2 423.0 19.2 423.6 19.2 C 424.1 19.2 424.4 18.9 425.0 18.3 C 425.5 17.8 425.8 16.6 426.4 16.5 C 426.9 16.4 427.2 16.4 427.8 16.4 C 428.3 16.4 428.6 16.4 429.2 16.4 C 429.7 16.4 430.0 16.2 430.6 15.9 C 431.2 15.6 431.4 15.3 432.0 15.0 C 432.6 14.7 432.8 14.7 433.4 14.5 C 434.0 14.3 434.2 13.9 434.8 13.9 C 435.4 13.9 435.6 14.1 436.2 14.3 C 436.8 14.5 437.0 14.7 437.6 14.7 C 438.2 14.7 438.4 14.2 439.0 13.9 C 439.6 13.7 439.8 13.6 440.4 13.5 C 441.0 13.3 441.3 13.3 441.8 13.3 C 442.4 13.2 442.7 13.3 443.2 13.2 C 443.8 13.2 444.1 12.8 444.6 12.8 C 445.2 12.8 445.5 13.4 446.0 13.4 C 446.6 13.4 446.9 13.3 447.4 13.0 C 448.0 12.8 448.3 12.4 448.8 12.1 C 449.4 11.8 449.7 11.6 450.2 11.6 C 450.8 11.6 451.1 11.7 451.6 11.8 C 452.2 11.9 452.5 12.2 453.0 12.2 C 453.6 12.2 453.9 11.6 454.4 11.6 C 455.0 11.6 455.3 11.8 455.8 11.9 C 456.4 12.0 456.7 12.1 457.2 12.1 C 457.8 12.1 458.1 12.1 458.6 12.1 C 459.2 12.1 459.5 12.5 460.0 12.5 C 460.6 12.5 460.9 11.8 461.5 11.3 C 462.0 10.9 462.3 10.6 462.9 10.3 C 463.4 10.0 463.7 9.8 464.3 9.6 C 464.8 9.4 465.1 9.5 465.7 9.2 C 466.2 8.8 466.5 8.3 467.1 7.8 C 467.6 7.4 467.9 7.0 468.5 7.0 C 469.0 7.0 469.3 7.3 469.9 7.6 C 470.4 8.0 470.7 8.3 471.3 8.6 C 471.8 9.0 472.1 9.4 472.7 9.4 C 473.2 9.4 473.5 8.7 474.1 8.6 C 474.6 8.5 474.9 8.5 475.5 8.5 C 476.0 8.5 476.3 9.6 476.9 9.6 C 477.4 9.6 477.7 9.3 478.3 9.3 C 478.8 9.3 479.1 9.3 479.7 9.3 C 480.2 9.3 480.5 8.2 481.1 7.7 C 481.7 7.2 481.9 7.2 482.5 6.8 C 483.1 6.4 483.3 6.2 483.9 5.7 C 484.5 5.2 484.7 4.7 485.3 4.2 C 485.9 3.8 486.1 3.5 486.7 3.5 C 487.3 3.5 487.5 3.7 488.1 4.0 C 488.7 4.3 488.9 5.1 489.5 5.1 C 490.1 5.1 490.3 4.6 490.9 4.6 C 491.5 4.6 491.8 4.8 492.3 4.9 C 492.9 5.0 493.2 5.1 493.7 5.1 C 494.3 5.1 494.6 4.9 495.1 4.8 C 495.7 4.7 496.0 4.7 496.5 4.6 C 497.1 4.5 497.4 4.5 497.9 4.3 C 498.5 4.1 498.8 3.6 499.3 3.6 C 499.9 3.6 500.2 4.5 500.7 4.5 C 501.3 4.5 501.6 4.5 502.1 4.5 C 502.7 4.5 503.0 3.9 503.5 3.7 C 504.1 3.4 504.4 3.3 504.9 3.3 C 505.5 3.3 505.8 3.5 506.3 3.7 C 506.9 3.9 507.2 4.1 507.7 4.2 C 508.3 4.4 508.6 4.5 509.1 4.5 C 509.7 4.5 510.0 4.3 510.5 4.3 C 511.1 4.3 512 4.8 512 4.8" stroke="#4572A7" stroke-width="1"  stroke-linejoin="round" stroke-linecap="round"></path></g><g class="highcharts-markers" visibility="visible"  transform="translate(24,331) scale(1 1)" clip-path="url(#highcharts-3)"></g></g><g class="highcharts-navigator" ><rect fill="rgb(128,179,236)" fill-opacity="0.3" style="cursor:ew-resize ;" x="518" y="331" width="18" height="40"></rect><path fill="none" stroke="#b2b1b6" stroke-width="1" d="M 10 331.5 L 517.5 331.5 517.5 385.5 L 535.5 385.5 L 535.5 331.5 550 331.5 M 518.5 331.5 L 535.5 331.5"></path></g><g class="highcharts-navigator-handle-right" style="cursor:ew-resize;"  transform="translate(536,343)"><rect x="-4.5" y="0.5" width="8" height="15" strokeWidth="1" fill="#ebe7e8" stroke="#b2b1b6" stroke-width="1"></rect><path fill="#ebe7e8" d="M -1.5 4 L -1.5 12 M 0.5 4 L 0.5 12" stroke="#b2b1b6" stroke-width="1"></path></g><text x="292" text-anchor="middle" class="highcharts-title"  style="color:#333333;font-size:16px;fill:#333333;width:520px;" y="22"><tspan>AAPL Historical</tspan></text><g class="highcharts-navigator-handle-left" style="cursor:ew-resize;"  transform="translate(518,343)"><rect x="-4.5" y="0.5" width="8" height="15" strokeWidth="1" fill="#ebe7e8" stroke="#b2b1b6" stroke-width="1"></rect><path fill="#ebe7e8" d="M -1.5 4 L -1.5 12 M 0.5 4 L 0.5 12" stroke="#b2b1b6" stroke-width="1"></path></g><g class="highcharts-axis-labels highcharts-xaxis-labels" ><text x="30.4" style="color:#606060;cursor:default;font-size:11px;fill:#606060;width:84px;text-overflow:clip;" text-anchor="middle" transform="translate(0,0)" y="304" opacity="1"><tspan>30. Mar</tspan></text><text x="90.7" style="color:#606060;cursor:default;font-size:11px;fill:#606060;width:84px;text-overflow:clip;" text-anchor="middle" transform="translate(0,0)" y="304" opacity="1"><tspan>13. Apr</tspan></text><text x="168.6" style="color:#606060;cursor:default;font-size:11px;fill:#606060;width:84px;text-overflow:clip;" text-anchor="middle" transform="translate(0,0)" y="304" opacity="1"><tspan>27. Apr</tspan></text><text x="246.5" style="color:#606060;cursor:default;font-size:11px;fill:#606060;width:84px;text-overflow:clip;" text-anchor="middle" transform="translate(0,0)" y="304" opacity="1"><tspan>11. May</tspan></text><text x="324.5" style="color:#606060;cursor:default;font-size:11px;fill:#606060;width:84px;text-overflow:clip;" text-anchor="middle" transform="translate(0,0)" y="304" opacity="1"><tspan>25. May</tspan></text><text x="402.4" style="color:#606060;cursor:default;font-size:11px;fill:#606060;width:84px;text-overflow:clip;" text-anchor="middle" transform="translate(0,0)" y="304" opacity="1"><tspan>8. Jun</tspan></text><text x="480.4" style="color:#606060;cursor:default;font-size:11px;fill:#606060;width:84px;text-overflow:clip;" text-anchor="middle" transform="translate(0,0)" y="304" opacity="1"><tspan>22. Jun</tspan></text></g><g class="highcharts-axis-labels highcharts-xaxis-labels" ><text x="136.5" style="color:#888;cursor:default;font-size:11px;fill:#888;width:272px;text-overflow:clip;" text-anchor="start" transform="translate(0,0)" y="367" opacity="1">2010</text><text x="282.8" style="color:#888;cursor:default;font-size:11px;fill:#888;width:272px;text-overflow:clip;" text-anchor="start" transform="translate(0,0)" y="367" opacity="1">2012</text><text x="429.3" style="color:#888;cursor:default;font-size:11px;fill:#888;width:272px;text-overflow:clip;" text-anchor="start" transform="translate(0,0)" y="367" opacity="1">2014</text></g><g class="highcharts-axis-labels highcharts-yaxis-labels" ><text x="547" style="color:#606060;cursor:default;font-size:11px;fill:#606060;width:183px;text-overflow:clip;" text-anchor="end" transform="translate(0,0)" y="201" opacity="1">120</text><text x="547" style="color:#606060;cursor:default;font-size:11px;fill:#606060;width:183px;text-overflow:clip;" text-anchor="end" transform="translate(0,0)" y="170" opacity="1">125</text><text x="547" style="color:#606060;cursor:default;font-size:11px;fill:#606060;width:183px;text-overflow:clip;" text-anchor="end" transform="translate(0,0)" y="139" opacity="1">130</text><text x="547" style="color:#606060;cursor:default;font-size:11px;fill:#606060;width:183px;text-overflow:clip;" text-anchor="end" transform="translate(0,0)" y="108" opacity="1">135</text><text x="0" style="color:#606060;cursor:default;font-size:11px;fill:#606060;width:183px;text-overflow:clip;" text-anchor="end" transform="translate(0,0)" y="-9999">140</text></g><g class="highcharts-axis-labels highcharts-yaxis-labels" ><text x="547" style="color:#606060;cursor:default;font-size:11px;fill:#606060;width:183px;text-overflow:clip;" text-anchor="end" transform="translate(0,0)" y="283" opacity="1">0M</text><text x="0" style="color:#606060;cursor:default;font-size:11px;fill:#606060;width:183px;text-overflow:clip;" text-anchor="end" transform="translate(0,0)" y="-9999">500M</text></g><g class="highcharts-axis-labels highcharts-yaxis-labels" ></g><g class="highcharts-tooltip"  style="cursor:default;padding:0;white-space:nowrap;" transform="translate(0,-9999)"><path fill="none" d="M 3.5 0.5 L 13.5 0.5 C 16.5 0.5 16.5 0.5 16.5 3.5 L 16.5 13.5 C 16.5 16.5 16.5 16.5 13.5 16.5 L 3.5 16.5 C 0.5 16.5 0.5 16.5 0.5 13.5 L 0.5 3.5 C 0.5 0.5 0.5 0.5 3.5 0.5"  stroke="black" stroke-opacity="0.0" stroke-width="5" transform="translate(1, 1)"></path><path fill="none" d="M 3.5 0.5 L 13.5 0.5 C 16.5 0.5 16.5 0.5 16.5 3.5 L 16.5 13.5 C 16.5 16.5 16.5 16.5 13.5 16.5 L 3.5 16.5 C 0.5 16.5 0.5 16.5 0.5 13.5 L 0.5 3.5 C 0.5 0.5 0.5 0.5 3.5 0.5"  stroke="black" stroke-opacity="0.0" stroke-width="3" transform="translate(1, 1)"></path><path fill="none" d="M 3.5 0.5 L 13.5 0.5 C 16.5 0.5 16.5 0.5 16.5 3.5 L 16.5 13.5 C 16.5 16.5 16.5 16.5 13.5 16.5 L 3.5 16.5 C 0.5 16.5 0.5 16.5 0.5 13.5 L 0.5 3.5 C 0.5 0.5 0.5 0.5 3.5 0.5"  stroke="black" stroke-opacity="0.1" stroke-width="1" transform="translate(1, 1)"></path><path fill="rgb(249, 249, 249)" fill-opacity=" .85" d="M 3.5 0.5 L 13.5 0.5 C 16.5 0.5 16.5 0.5 16.5 3.5 L 16.5 13.5 C 16.5 16.5 16.5 16.5 13.5 16.5 L 3.5 16.5 C 0.5 16.5 0.5 16.5 0.5 13.5 L 0.5 3.5 C 0.5 0.5 0.5 0.5 3.5 0.5"></path><text x="8"  style="font-size:12px;color:#333333;fill:#333333;" y="20"></text></g></svg>