<svg version="1.1" style="font-family:&quot;lucida grande&quot;, &quot;lucida sans unicode&quot;, arial, helvetica, sans-serif;font-size:12px;" xmlns="http://www.w3.org/2000/svg" width="584" height="400" viewBox="0 0 584 400"><desc>Created with Highcharts 4.1.6</desc><defs><clipPath id="highcharts-1"><rect x="0" y="0" width="510" height="250"></rect></clipPath></defs><rect x="0" y="0" width="584" height="400" strokeWidth="0" fill="#FFFFFF" class=" highcharts-background" stroke="transparent"></rect><g class="highcharts-grid" ></g><g class="highcharts-grid" ><path fill="none" d="M 64 311.5 L 574 311.5" stroke="#D8D8D8" stroke-width="1"  opacity="1"></path><path fill="none" d="M 64 261.5 L 574 261.5" stroke="#D8D8D8" stroke-width="1"  opacity="1"></path><path fill="none" d="M 64 211.5 L 574 211.5" stroke="#D8D8D8" stroke-width="1"  opacity="1"></path><path fill="none" d="M 64 161.5 L 574 161.5" stroke="#D8D8D8" stroke-width="1"  opacity="1"></path><path fill="none" d="M 64 111.5 L 574 111.5" stroke="#D8D8D8" stroke-width="1"  opacity="1"></path><path fill="none" d="M 64 60.5 L 574 60.5" stroke="#D8D8D8" stroke-width="1"  opacity="1"></path></g><g class="highcharts-axis" ><path fill="none" d="M 89.5 311 L 89.5 321" stroke="#C0D0E0" stroke-width="1" opacity="1"></path><path fill="none" d="M 114.5 311 L 114.5 321" stroke="#C0D0E0" stroke-width="1" opacity="1"></path><path fill="none" d="M 140.5 311 L 140.5 321" stroke="#C0D0E0" stroke-width="1" opacity="1"></path><path fill="none" d="M 165.5 311 L 165.5 321" stroke="#C0D0E0" stroke-width="1" opacity="1"></path><path fill="none" d="M 191.5 311 L 191.5 321" stroke="#C0D0E0" stroke-width="1" opacity="1"></path><path fill="none" d="M 216.5 311 L 216.5 321" stroke="#C0D0E0" stroke-width="1" opacity="1"></path><path fill="none" d="M 242.5 311 L 242.5 321" stroke="#C0D0E0" stroke-width="1" opacity="1"></path><path fill="none" d="M 267.5 311 L 267.5 321" stroke="#C0D0E0" stroke-width="1" opacity="1"></path><path fill="none" d="M 293.5 311 L 293.5 321" stroke="#C0D0E0" stroke-width="1" opacity="1"></path><path fill="none" d="M 318.5 311 L 318.5 321" stroke="#C0D0E0" stroke-width="1" opacity="1"></path><path fill="none" d="M 344.5 311 L 344.5 321" stroke="#C0D0E0" stroke-width="1" opacity="1"></path><path fill="none" d="M 369.5 311 L 369.5 321" stroke="#C0D0E0" stroke-width="1" opacity="1"></path><path fill="none" d="M 395.5 311 L 395.5 321" stroke="#C0D0E0" stroke-width="1" opacity="1"></path><path fill="none" d="M 420.5 311 L 420.5 321" stroke="#C0D0E0" stroke-width="1" opacity="1"></path><path fill="none" d="M 446.5 311 L 446.5 321" stroke="#C0D0E0" stroke-width="1" opacity="1"></path><path fill="none" d="M 471.5 311 L 471.5 321" stroke="#C0D0E0" stroke-width="1" opacity="1"></path><path fill="none" d="M 497.5 311 L 497.5 321" stroke="#C0D0E0" stroke-width="1" opacity="1"></path><path fill="none" d="M 522.5 311 L 522.5 321" stroke="#C0D0E0" stroke-width="1" opacity="1"></path><path fill="none" d="M 548.5 311 L 548.5 321" stroke="#C0D0E0" stroke-width="1" opacity="1"></path><path fill="none" d="M 574.5 311 L 574.5 321" stroke="#C0D0E0" stroke-width="1" opacity="1"></path><path fill="none" d="M 63.5 311 L 63.5 321" stroke="#C0D0E0" stroke-width="1" opacity="1"></path><path fill="none" d="M 64 311.5 L 574 311.5" stroke="#C0D0E0" stroke-width="1"  visibility="visible"></path></g><g class="highcharts-axis" ><text x="25"  text-anchor="middle" transform="translate(0,0) rotate(270 25 186)" class=" highcharts-yaxis-title" style="color:#707070;fill:#707070;" visibility="visible" y="186"><tspan>Population (millions)</tspan></text></g><g class="highcharts-series-group" ><g class="highcharts-series highcharts-tracker" visibility="visible"  transform="translate(64,61) scale(1 1)" style="" clip-path="url(#highcharts-1)"><rect x="6.5" y="13.5" width="13" height="237" stroke="#FFFFFF" stroke-width="1" fill="#7cb5ec" rx="0" ry="0"></rect><rect x="31.5" y="89.5" width="13" height="161" stroke="#FFFFFF" stroke-width="1" fill="#7cb5ec" rx="0" ry="0"></rect><rect x="57.5" y="108.5" width="13" height="142" stroke="#FFFFFF" stroke-width="1" fill="#7cb5ec" rx="0" ry="0"></rect><rect x="82.5" y="110.5" width="13" height="140" stroke="#FFFFFF" stroke-width="1" fill="#7cb5ec" rx="0" ry="0"></rect><rect x="108.5" y="125.5" width="13" height="125" stroke="#FFFFFF" stroke-width="1" fill="#7cb5ec" rx="0" ry="0"></rect><rect x="133.5" y="129.5" width="13" height="121" stroke="#FFFFFF" stroke-width="1" fill="#7cb5ec" rx="0" ry="0"></rect><rect x="159.5" y="132.5" width="13" height="118" stroke="#FFFFFF" stroke-width="1" fill="#7cb5ec" rx="0" ry="0"></rect><rect x="184.5" y="133.5" width="13" height="117" stroke="#FFFFFF" stroke-width="1" fill="#7cb5ec" rx="0" ry="0"></rect><rect x="210.5" y="139.5" width="13" height="111" stroke="#FFFFFF" stroke-width="1" fill="#7cb5ec" rx="0" ry="0"></rect><rect x="235.5" y="139.5" width="13" height="111" stroke="#FFFFFF" stroke-width="1" fill="#7cb5ec" rx="0" ry="0"></rect><rect x="261.5" y="145.5" width="13" height="105" stroke="#FFFFFF" stroke-width="1" fill="#7cb5ec" rx="0" ry="0"></rect><rect x="286.5" y="146.5" width="13" height="104" stroke="#FFFFFF" stroke-width="1" fill="#7cb5ec" rx="0" ry="0"></rect><rect x="312.5" y="150.5" width="13" height="100" stroke="#FFFFFF" stroke-width="1" fill="#7cb5ec" rx="0" ry="0"></rect><rect x="337.5" y="157.5" width="13" height="93" stroke="#FFFFFF" stroke-width="1" fill="#7cb5ec" rx="0" ry="0"></rect><rect x="363.5" y="157.5" width="13" height="93" stroke="#FFFFFF" stroke-width="1" fill="#7cb5ec" rx="0" ry="0"></rect><rect x="388.5" y="160.5" width="13" height="90" stroke="#FFFFFF" stroke-width="1" fill="#7cb5ec" rx="0" ry="0"></rect><rect x="414.5" y="161.5" width="13" height="89" stroke="#FFFFFF" stroke-width="1" fill="#7cb5ec" rx="0" ry="0"></rect><rect x="439.5" y="161.5" width="13" height="89" stroke="#FFFFFF" stroke-width="1" fill="#7cb5ec" rx="0" ry="0"></rect><rect x="465.5" y="161.5" width="13" height="89" stroke="#FFFFFF" stroke-width="1" fill="#7cb5ec" rx="0" ry="0"></rect><rect x="490.5" y="161.5" width="13" height="89" stroke="#FFFFFF" stroke-width="1" fill="#7cb5ec" rx="0" ry="0"></rect></g><g class="highcharts-markers" visibility="visible"  transform="translate(64,61) scale(1 1)"></g></g><text x="292" text-anchor="middle" class="highcharts-title"  style="color:#333333;font-size:18px;fill:#333333;width:520px;" y="24"><tspan>World's largest cities per 2014</tspan></text><text x="292" text-anchor="middle" class="highcharts-subtitle"  style="color:#555555;fill:#555555;width:520px;" y="45"><tspan>Source: </tspan><tspan onclick="location.href=&quot;http://en.wikipedia.org/wiki/List_of_cities_proper_by_population&quot;" style="cursor: pointer; " dx="0">Wikipedia</tspan></text><g class="highcharts-data-labels highcharts-tracker" visibility="visible"  transform="translate(64,61) scale(1 1)" style=""><text x="17.3" y="23.5" r="0" padding="5"  transform="translate(0,0) rotate(-90 17.3 23.5)" style="color: rgb(255, 255, 255); font-size: 13px; font-weight: bold; font-family: verdana, sans-serif; fill: #ffffff; text-shadow: rgb(0, 0, 0) 0px 0px 6px, rgb(0, 0, 0) 0px 0px 3px; text-rendering: geometricprecision; " text-anchor="end"><tspan>23.7</tspan></text><text x="42.3" y="99.5" r="0" padding="5"  transform="translate(0,0) rotate(-90 42.3 99.5)" style="color: rgb(255, 255, 255); font-size: 13px; font-weight: bold; font-family: verdana, sans-serif; fill: #ffffff; text-shadow: rgb(0, 0, 0) 0px 0px 6px, rgb(0, 0, 0) 0px 0px 3px; text-rendering: geometricprecision; " text-anchor="end"><tspan>16.1</tspan></text><text x="68.3" y="118.5" r="0" padding="5"  transform="translate(0,0) rotate(-90 68.3 118.5)" style="color: rgb(255, 255, 255); font-size: 13px; font-weight: bold; font-family: verdana, sans-serif; fill: #ffffff; text-shadow: rgb(0, 0, 0) 0px 0px 6px, rgb(0, 0, 0) 0px 0px 3px; text-rendering: geometricprecision; " text-anchor="end"><tspan>14.2</tspan></text><text x="93.3" y="120.5" r="0" padding="5"  transform="translate(0,0) rotate(-90 93.3 120.5)" style="color: rgb(255, 255, 255); font-size: 13px; font-weight: bold; font-family: verdana, sans-serif; fill: #ffffff; text-shadow: rgb(0, 0, 0) 0px 0px 6px, rgb(0, 0, 0) 0px 0px 3px; text-rendering: geometricprecision; " text-anchor="end"><tspan>14.0</tspan></text><text x="119.3" y="135.5" r="0" padding="5"  transform="translate(0,0) rotate(-90 119.3 135.5)" style="color: rgb(255, 255, 255); font-size: 13px; font-weight: bold; font-family: verdana, sans-serif; fill: #ffffff; text-shadow: rgb(0, 0, 0) 0px 0px 6px, rgb(0, 0, 0) 0px 0px 3px; text-rendering: geometricprecision; " text-anchor="end"><tspan>12.5</tspan></text><text x="144.3" y="139.5" r="0" padding="5"  transform="translate(0,0) rotate(-90 144.3 139.5)" style="color: rgb(255, 255, 255); font-size: 13px; font-weight: bold; font-family: verdana, sans-serif; fill: #ffffff; text-shadow: rgb(0, 0, 0) 0px 0px 6px, rgb(0, 0, 0) 0px 0px 3px; text-rendering: geometricprecision; " text-anchor="end"><tspan>12.1</tspan></text><text x="170.3" y="142.5" r="0" padding="5"  transform="translate(0,0) rotate(-90 170.3 142.5)" style="color: rgb(255, 255, 255); font-size: 13px; font-weight: bold; font-family: verdana, sans-serif; fill: #ffffff; text-shadow: rgb(0, 0, 0) 0px 0px 6px, rgb(0, 0, 0) 0px 0px 3px; text-rendering: geometricprecision; " text-anchor="end"><tspan>11.8</tspan></text><text x="195.3" y="143.5" r="0" padding="5"  transform="translate(0,0) rotate(-90 195.3 143.5)" style="color: rgb(255, 255, 255); font-size: 13px; font-weight: bold; font-family: verdana, sans-serif; fill: #ffffff; text-shadow: rgb(0, 0, 0) 0px 0px 6px, rgb(0, 0, 0) 0px 0px 3px; text-rendering: geometricprecision; " text-anchor="end"><tspan>11.7</tspan></text><text x="221.3" y="149.5" r="0" padding="5"  transform="translate(0,0) rotate(-90 221.3 149.5)" style="color: rgb(255, 255, 255); font-size: 13px; font-weight: bold; font-family: verdana, sans-serif; fill: #ffffff; text-shadow: rgb(0, 0, 0) 0px 0px 6px, rgb(0, 0, 0) 0px 0px 3px; text-rendering: geometricprecision; " text-anchor="end"><tspan>11.1</tspan></text><text x="246.3" y="149.5" r="0" padding="5"  transform="translate(0,0) rotate(-90 246.3 149.5)" style="color: rgb(255, 255, 255); font-size: 13px; font-weight: bold; font-family: verdana, sans-serif; fill: #ffffff; text-shadow: rgb(0, 0, 0) 0px 0px 6px, rgb(0, 0, 0) 0px 0px 3px; text-rendering: geometricprecision; " text-anchor="end"><tspan>11.1</tspan></text><text x="272.3" y="155.5" r="0" padding="5"  transform="translate(0,0) rotate(-90 272.3 155.5)" style="color: rgb(255, 255, 255); font-size: 13px; font-weight: bold; font-family: verdana, sans-serif; fill: #ffffff; text-shadow: rgb(0, 0, 0) 0px 0px 6px, rgb(0, 0, 0) 0px 0px 3px; text-rendering: geometricprecision; " text-anchor="end"><tspan>10.5</tspan></text><text x="297.3" y="156.5" r="0" padding="5"  transform="translate(0,0) rotate(-90 297.3 156.5)" style="color: rgb(255, 255, 255); font-size: 13px; font-weight: bold; font-family: verdana, sans-serif; fill: #ffffff; text-shadow: rgb(0, 0, 0) 0px 0px 6px, rgb(0, 0, 0) 0px 0px 3px; text-rendering: geometricprecision; " text-anchor="end"><tspan>10.4</tspan></text><text x="323.3" y="160.5" r="0" padding="5"  transform="translate(0,0) rotate(-90 323.3 160.5)" style="color: rgb(255, 255, 255); font-size: 13px; font-weight: bold; font-family: verdana, sans-serif; fill: #ffffff; text-shadow: rgb(0, 0, 0) 0px 0px 6px, rgb(0, 0, 0) 0px 0px 3px; text-rendering: geometricprecision; " text-anchor="end"><tspan>10.0</tspan></text><text x="348.3" y="167.5" r="0" padding="5"  transform="translate(0,0) rotate(-90 348.3 167.5)" style="color: rgb(255, 255, 255); font-size: 13px; font-weight: bold; font-family: verdana, sans-serif; fill: #ffffff; text-shadow: rgb(0, 0, 0) 0px 0px 6px, rgb(0, 0, 0) 0px 0px 3px; text-rendering: geometricprecision; " text-anchor="end"><tspan>9.3</tspan></text><text x="374.3" y="167.5" r="0" padding="5"  transform="translate(0,0) rotate(-90 374.3 167.5)" style="color: rgb(255, 255, 255); font-size: 13px; font-weight: bold; font-family: verdana, sans-serif; fill: #ffffff; text-shadow: rgb(0, 0, 0) 0px 0px 6px, rgb(0, 0, 0) 0px 0px 3px; text-rendering: geometricprecision; " text-anchor="end"><tspan>9.3</tspan></text><text x="399.3" y="170.5" r="0" padding="5"  transform="translate(0,0) rotate(-90 399.3 170.5)" style="color: rgb(255, 255, 255); font-size: 13px; font-weight: bold; font-family: verdana, sans-serif; fill: #ffffff; text-shadow: rgb(0, 0, 0) 0px 0px 6px, rgb(0, 0, 0) 0px 0px 3px; text-rendering: geometricprecision; " text-anchor="end"><tspan>9.0</tspan></text><text x="425.3" y="171.5" r="0" padding="5"  transform="translate(0,0) rotate(-90 425.3 171.5)" style="color: rgb(255, 255, 255); font-size: 13px; font-weight: bold; font-family: verdana, sans-serif; fill: #ffffff; text-shadow: rgb(0, 0, 0) 0px 0px 6px, rgb(0, 0, 0) 0px 0px 3px; text-rendering: geometricprecision; " text-anchor="end"><tspan>8.9</tspan></text><text x="450.3" y="171.5" r="0" padding="5"  transform="translate(0,0) rotate(-90 450.3 171.5)" style="color: rgb(255, 255, 255); font-size: 13px; font-weight: bold; font-family: verdana, sans-serif; fill: #ffffff; text-shadow: rgb(0, 0, 0) 0px 0px 6px, rgb(0, 0, 0) 0px 0px 3px; text-rendering: geometricprecision; " text-anchor="end"><tspan>8.9</tspan></text><text x="476.3" y="171.5" r="0" padding="5"  transform="translate(0,0) rotate(-90 476.3 171.5)" style="color: rgb(255, 255, 255); font-size: 13px; font-weight: bold; font-family: verdana, sans-serif; fill: #ffffff; text-shadow: rgb(0, 0, 0) 0px 0px 6px, rgb(0, 0, 0) 0px 0px 3px; text-rendering: geometricprecision; " text-anchor="end"><tspan>8.9</tspan></text><text x="501.3" y="171.5" r="0" padding="5"  transform="translate(0,0) rotate(-90 501.3 171.5)" style="color: rgb(255, 255, 255); font-size: 13px; font-weight: bold; font-family: verdana, sans-serif; fill: #ffffff; text-shadow: rgb(0, 0, 0) 0px 0px 6px, rgb(0, 0, 0) 0px 0px 3px; text-rendering: geometricprecision; " text-anchor="end"><tspan>8.9</tspan></text></g><g class="highcharts-axis-labels highcharts-xaxis-labels" ><text x="79.8" style="color:#606060;cursor:default;font-size:13px;font-family:verdana, sans-serif;fill:#606060;width:400px;text-overflow:ellipsis;" text-anchor="end" transform="translate(0,0) rotate(-45 79.8 328)" y="328" opacity="1"><tspan>Shanghai</tspan></text><text x="105.3" style="color:#606060;cursor:default;font-size:13px;font-family:verdana, sans-serif;fill:#606060;width:400px;text-overflow:ellipsis;" text-anchor="end" transform="translate(0,0) rotate(-45 105.3 328)" y="328" opacity="1"><tspan>Lagos</tspan></text><text x="130.8" style="color:#606060;cursor:default;font-size:13px;font-family:verdana, sans-serif;fill:#606060;width:400px;text-overflow:ellipsis;" text-anchor="end" transform="translate(0,0) rotate(-45 130.8 328)" y="328" opacity="1"><tspan>Instanbul</tspan></text><text x="156.3" style="color:#606060;cursor:default;font-size:13px;font-family:verdana, sans-serif;fill:#606060;width:400px;text-overflow:ellipsis;" text-anchor="end" transform="translate(0,0) rotate(-45 156.3 328)" y="328" opacity="1"><tspan>Karachi</tspan></text><text x="181.8" style="color:#606060;cursor:default;font-size:13px;font-family:verdana, sans-serif;fill:#606060;width:400px;text-overflow:ellipsis;" text-anchor="end" transform="translate(0,0) rotate(-45 181.8 328)" y="328" opacity="1"><tspan>Mumbai</tspan></text><text x="207.3" style="color:#606060;cursor:default;font-size:13px;font-family:verdana, sans-serif;fill:#606060;width:400px;text-overflow:ellipsis;" text-anchor="end" transform="translate(0,0) rotate(-45 207.3 328)" y="328" opacity="1"><tspan>Moscow</tspan></text><text x="232.8" style="color:#606060;cursor:default;font-size:13px;font-family:verdana, sans-serif;fill:#606060;width:400px;text-overflow:ellipsis;" text-anchor="end" transform="translate(0,0) rotate(-45 232.8 328)" y="328" opacity="1"><tspan>São Paulo</tspan></text><text x="258.3" style="color:#606060;cursor:default;font-size:13px;font-family:verdana, sans-serif;fill:#606060;width:400px;text-overflow:ellipsis;" text-anchor="end" transform="translate(0,0) rotate(-45 258.3 328)" y="328" opacity="1"><tspan>Beijing</tspan></text><text x="283.8" style="color:#606060;cursor:default;font-size:13px;font-family:verdana, sans-serif;fill:#606060;width:400px;text-overflow:ellipsis;" text-anchor="end" transform="translate(0,0) rotate(-45 283.8 328)" y="328" opacity="1"><tspan>Guangzhou</tspan></text><text x="309.3" style="color:#606060;cursor:default;font-size:13px;font-family:verdana, sans-serif;fill:#606060;width:400px;text-overflow:ellipsis;" text-anchor="end" transform="translate(0,0) rotate(-45 309.3 328)" y="328" opacity="1"><tspan>Delhi</tspan></text><text x="334.8" style="color:#606060;cursor:default;font-size:13px;font-family:verdana, sans-serif;fill:#606060;width:400px;text-overflow:ellipsis;" text-anchor="end" transform="translate(0,0) rotate(-45 334.8 328)" y="328" opacity="1"><tspan>Shenzhen</tspan></text><text x="360.3" style="color:#606060;cursor:default;font-size:13px;font-family:verdana, sans-serif;fill:#606060;width:400px;text-overflow:ellipsis;" text-anchor="end" transform="translate(0,0) rotate(-45 360.3 328)" y="328" opacity="1"><tspan>Seoul</tspan></text><text x="385.8" style="color:#606060;cursor:default;font-size:13px;font-family:verdana, sans-serif;fill:#606060;width:400px;text-overflow:ellipsis;" text-anchor="end" transform="translate(0,0) rotate(-45 385.8 328)" y="328" opacity="1"><tspan>Jakarta</tspan></text><text x="411.3" style="color:#606060;cursor:default;font-size:13px;font-family:verdana, sans-serif;fill:#606060;width:400px;text-overflow:ellipsis;" text-anchor="end" transform="translate(0,0) rotate(-45 411.3 328)" y="328" opacity="1"><tspan>Kinshasa</tspan></text><text x="436.8" style="color:#606060;cursor:default;font-size:13px;font-family:verdana, sans-serif;fill:#606060;width:400px;text-overflow:ellipsis;" text-anchor="end" transform="translate(0,0) rotate(-45 436.8 328)" y="328" opacity="1"><tspan>Tianjin</tspan></text><text x="462.3" style="color:#606060;cursor:default;font-size:13px;font-family:verdana, sans-serif;fill:#606060;width:400px;text-overflow:ellipsis;" text-anchor="end" transform="translate(0,0) rotate(-45 462.3 328)" y="328" opacity="1"><tspan>Tokyo</tspan></text><text x="487.8" style="color:#606060;cursor:default;font-size:13px;font-family:verdana, sans-serif;fill:#606060;width:400px;text-overflow:ellipsis;" text-anchor="end" transform="translate(0,0) rotate(-45 487.8 328)" y="328" opacity="1"><tspan>Cairo</tspan></text><text x="513.3" style="color:#606060;cursor:default;font-size:13px;font-family:verdana, sans-serif;fill:#606060;width:400px;text-overflow:ellipsis;" text-anchor="end" transform="translate(0,0) rotate(-45 513.3 328)" y="328" opacity="1"><tspan>Dhaka</tspan></text><text x="538.8" style="color:#606060;cursor:default;font-size:13px;font-family:verdana, sans-serif;fill:#606060;width:400px;text-overflow:ellipsis;" text-anchor="end" transform="translate(0,0) rotate(-45 538.8 328)" y="328" opacity="1"><tspan>Mexico City</tspan></text><text x="564.3" style="color:#606060;cursor:default;font-size:13px;font-family:verdana, sans-serif;fill:#606060;width:400px;text-overflow:ellipsis;" text-anchor="end" transform="translate(0,0) rotate(-45 564.3 328)" y="328" opacity="1"><tspan>Lima</tspan></text></g><g class="highcharts-axis-labels highcharts-yaxis-labels" ><text x="49" style="color:#606060;cursor:default;font-size:11px;fill:#606060;width:183px;text-overflow:clip;" text-anchor="end" transform="translate(0,0)" y="316" opacity="1">0</text><text x="49" style="color:#606060;cursor:default;font-size:11px;fill:#606060;width:183px;text-overflow:clip;" text-anchor="end" transform="translate(0,0)" y="266" opacity="1">5</text><text x="49" style="color:#606060;cursor:default;font-size:11px;fill:#606060;width:183px;text-overflow:clip;" text-anchor="end" transform="translate(0,0)" y="216" opacity="1">10</text><text x="49" style="color:#606060;cursor:default;font-size:11px;fill:#606060;width:183px;text-overflow:clip;" text-anchor="end" transform="translate(0,0)" y="166" opacity="1">15</text><text x="49" style="color:#606060;cursor:default;font-size:11px;fill:#606060;width:183px;text-overflow:clip;" text-anchor="end" transform="translate(0,0)" y="116" opacity="1">20</text><text x="49" style="color:#606060;cursor:default;font-size:11px;fill:#606060;width:183px;text-overflow:clip;" text-anchor="end" transform="translate(0,0)" y="66" opacity="1">25</text></g><g class="highcharts-tooltip"  style="cursor:default;padding:0;white-space:nowrap;" transform="translate(0,-9999)"><path fill="none" d="M 3.5 0.5 L 13.5 0.5 C 16.5 0.5 16.5 0.5 16.5 3.5 L 16.5 13.5 C 16.5 16.5 16.5 16.5 13.5 16.5 L 3.5 16.5 C 0.5 16.5 0.5 16.5 0.5 13.5 L 0.5 3.5 C 0.5 0.5 0.5 0.5 3.5 0.5"  stroke="black" stroke-opacity="0.0" stroke-width="5" transform="translate(1, 1)"></path><path fill="none" d="M 3.5 0.5 L 13.5 0.5 C 16.5 0.5 16.5 0.5 16.5 3.5 L 16.5 13.5 C 16.5 16.5 16.5 16.5 13.5 16.5 L 3.5 16.5 C 0.5 16.5 0.5 16.5 0.5 13.5 L 0.5 3.5 C 0.5 0.5 0.5 0.5 3.5 0.5"  stroke="black" stroke-opacity="0.0" stroke-width="3" transform="translate(1, 1)"></path><path fill="none" d="M 3.5 0.5 L 13.5 0.5 C 16.5 0.5 16.5 0.5 16.5 3.5 L 16.5 13.5 C 16.5 16.5 16.5 16.5 13.5 16.5 L 3.5 16.5 C 0.5 16.5 0.5 16.5 0.5 13.5 L 0.5 3.5 C 0.5 0.5 0.5 0.5 3.5 0.5"  stroke="black" stroke-opacity="0.1" stroke-width="1" transform="translate(1, 1)"></path><path fill="rgb(249, 249, 249)" fill-opacity=" .85" d="M 3.5 0.5 L 13.5 0.5 C 16.5 0.5 16.5 0.5 16.5 3.5 L 16.5 13.5 C 16.5 16.5 16.5 16.5 13.5 16.5 L 3.5 16.5 C 0.5 16.5 0.5 16.5 0.5 13.5 L 0.5 3.5 C 0.5 0.5 0.5 0.5 3.5 0.5"></path><text x="8"  style="font-size:12px;color:#333333;fill:#333333;" y="20"></text></g></svg>