<svg version="1.1" style="font-family: signika, serif; font-size: 12px; background-image: url(http://www.highcharts.com/samples/graphics/sand.png); background-position: initial initial; background-repeat: initial initial;" xmlns="http://www.w3.org/2000/svg" width="584" height="400" viewBox="0 0 584 400" xmlns:xlink="http://www.w3.org/1999/xlink"><style type="text/css"><![CDATA[@import url(http://fonts.googleapis.com/css?family=Signika:700);]]></style><desc>Created with Highcharts 4.1.7</desc><defs><clipPath id="highcharts-1"><rect x="0" y="0" width="516" height="299"></rect></clipPath></defs><g class="highcharts-grid" ></g><g class="highcharts-grid" ><path fill="none" d="M 58 352.5 L 574 352.5" stroke="#D8D8D8" stroke-width="1"  opacity="1"></path><path fill="none" d="M 58 302.5 L 574 302.5" stroke="#D8D8D8" stroke-width="1"  opacity="1"></path><path fill="none" d="M 58 252.5 L 574 252.5" stroke="#D8D8D8" stroke-width="1"  opacity="1"></path><path fill="none" d="M 58 203.5 L 574 203.5" stroke="#D8D8D8" stroke-width="1"  opacity="1"></path><path fill="none" d="M 58 153.5 L 574 153.5" stroke="#D8D8D8" stroke-width="1"  opacity="1"></path><path fill="none" d="M 58 103.5 L 574 103.5" stroke="#D8D8D8" stroke-width="1"  opacity="1"></path><path fill="none" d="M 58 52.5 L 574 52.5" stroke="#D8D8D8" stroke-width="1"  opacity="1"></path></g><g class="highcharts-axis" ><path fill="none" d="M 143.5 352 L 143.5 362" stroke="#C0D0E0" stroke-width="1" opacity="1"></path><path fill="none" d="M 229.5 352 L 229.5 362" stroke="#C0D0E0" stroke-width="1" opacity="1"></path><path fill="none" d="M 315.5 352 L 315.5 362" stroke="#C0D0E0" stroke-width="1" opacity="1"></path><path fill="none" d="M 401.5 352 L 401.5 362" stroke="#C0D0E0" stroke-width="1" opacity="1"></path><path fill="none" d="M 487.5 352 L 487.5 362" stroke="#C0D0E0" stroke-width="1" opacity="1"></path><path fill="none" d="M 574.5 352 L 574.5 362" stroke="#C0D0E0" stroke-width="1" opacity="1"></path><path fill="none" d="M 57.5 352 L 57.5 362" stroke="#C0D0E0" stroke-width="1" opacity="1"></path><path fill="none" d="M 58 352.5 L 574 352.5" stroke="#C0D0E0" stroke-width="1"  visibility="visible"></path></g><g class="highcharts-axis" ><text x="22"  text-anchor="middle" transform="translate(0,0) rotate(270 22 202.5)" class=" highcharts-yaxis-title" style="color:#707070;fill:#707070;" visibility="visible" y="202.5"><tspan>Total percent market share</tspan></text></g><g class="highcharts-series-group" ><g class="highcharts-series highcharts-tracker" visibility="visible"  transform="translate(58,53) scale(1 1)" style="" clip-path="url(#highcharts-1)"><rect x="22" y="19" width="42" height="281" fill="none" rx="0" ry="0"  stroke="black" stroke-opacity="0.0" stroke-width="5" transform="translate(1, 1)"></rect><rect x="22" y="19" width="42" height="281" fill="none" rx="0" ry="0"  stroke="black" stroke-opacity="0.0" stroke-width="3" transform="translate(1, 1)"></rect><rect x="22" y="19" width="42" height="281" fill="none" rx="0" ry="0"  stroke="black" stroke-opacity="0.1" stroke-width="1" transform="translate(1, 1)"></rect><rect x="22" y="19" width="42" height="281" fill="#f45b5b" rx="0" ry="0" class="highcharts-drilldown-point" style="cursor:pointer;"></rect><rect x="108" y="180" width="42" height="120" fill="none" rx="0" ry="0"  stroke="black" stroke-opacity="0.0" stroke-width="5" transform="translate(1, 1)"></rect><rect x="108" y="180" width="42" height="120" fill="none" rx="0" ry="0"  stroke="black" stroke-opacity="0.0" stroke-width="3" transform="translate(1, 1)"></rect><rect x="108" y="180" width="42" height="120" fill="none" rx="0" ry="0"  stroke="black" stroke-opacity="0.1" stroke-width="1" transform="translate(1, 1)"></rect><rect x="108" y="180" width="42" height="120" fill="#8085e9" rx="0" ry="0" class="highcharts-drilldown-point" style="cursor:pointer;"></rect><rect x="194" y="248" width="42" height="52" fill="none" rx="0" ry="0"  stroke="black" stroke-opacity="0.0" stroke-width="5" transform="translate(1, 1)"></rect><rect x="194" y="248" width="42" height="52" fill="none" rx="0" ry="0"  stroke="black" stroke-opacity="0.0" stroke-width="3" transform="translate(1, 1)"></rect><rect x="194" y="248" width="42" height="52" fill="none" rx="0" ry="0"  stroke="black" stroke-opacity="0.1" stroke-width="1" transform="translate(1, 1)"></rect><rect x="194" y="248" width="42" height="52" fill="#8d4654" rx="0" ry="0" class="highcharts-drilldown-point" style="cursor:pointer;"></rect><rect x="280" y="276" width="42" height="24" fill="none" rx="0" ry="0"  stroke="black" stroke-opacity="0.0" stroke-width="5" transform="translate(1, 1)"></rect><rect x="280" y="276" width="42" height="24" fill="none" rx="0" ry="0"  stroke="black" stroke-opacity="0.0" stroke-width="3" transform="translate(1, 1)"></rect><rect x="280" y="276" width="42" height="24" fill="none" rx="0" ry="0"  stroke="black" stroke-opacity="0.1" stroke-width="1" transform="translate(1, 1)"></rect><rect x="280" y="276" width="42" height="24" fill="#7798BF" rx="0" ry="0" class="highcharts-drilldown-point" style="cursor:pointer;"></rect><rect x="366" y="295" width="42" height="5" fill="none" rx="0" ry="0"  stroke="black" stroke-opacity="0.0" stroke-width="5" transform="translate(1, 1)"></rect><rect x="366" y="295" width="42" height="5" fill="none" rx="0" ry="0"  stroke="black" stroke-opacity="0.0" stroke-width="3" transform="translate(1, 1)"></rect><rect x="366" y="295" width="42" height="5" fill="none" rx="0" ry="0"  stroke="black" stroke-opacity="0.1" stroke-width="1" transform="translate(1, 1)"></rect><rect x="366" y="295" width="42" height="5" fill="#aaeeee" rx="0" ry="0" class="highcharts-drilldown-point" style="cursor:pointer;"></rect><rect x="452" y="299" width="42" height="1" fill="none" rx="0" ry="0"  stroke="black" stroke-opacity="0.0" stroke-width="5" transform="translate(1, 1)"></rect><rect x="452" y="299" width="42" height="1" fill="none" rx="0" ry="0"  stroke="black" stroke-opacity="0.0" stroke-width="3" transform="translate(1, 1)"></rect><rect x="452" y="299" width="42" height="1" fill="none" rx="0" ry="0"  stroke="black" stroke-opacity="0.1" stroke-width="1" transform="translate(1, 1)"></rect><rect x="452" y="299" width="42" height="1" fill="#ff0066" rx="0" ry="0"></rect></g><g class="highcharts-markers" visibility="visible"  transform="translate(58,53) scale(1 1)"></g></g><text x="292" text-anchor="middle" class="highcharts-title"  style="color:black;font-size:16px;font-weight:bold;fill:black;width:520px;" y="22"><tspan>Browser market shares. January, 2015 to May, 2015</tspan></text><text x="292" text-anchor="middle" class="highcharts-subtitle"  style="color:black;fill:black;width:520px;" y="40"><tspan>Click the columns to view versions. Source: </tspan><tspan onclick="location.href=&quot;http://netmarketshare.com&quot;" dx="0" style="cursor: pointer;">netmarketshare.com</tspan><tspan dx="0">.</tspan></text><g class="highcharts-data-labels highcharts-tracker" visibility="visible"  transform="translate(58,53) scale(1 1)" style=""><g  style="cursor:pointer;" transform="translate(23,-2)" class="highcharts-drilldown-data-label"><text x="5"  style="font-size:11px;font-weight:bold;color:#0d233a;text-shadow:0 0 6px contrast, 0 0 3px contrast;fill:#0d233a;text-decoration:underline;" y="16"><tspan>56.3%</tspan></text></g><g  style="cursor:pointer;" transform="translate(109,159)" class="highcharts-drilldown-data-label"><text x="5"  style="font-size:11px;font-weight:bold;color:#0d233a;text-shadow:0 0 6px contrast, 0 0 3px contrast;fill:#0d233a;text-decoration:underline;" y="16"><tspan>24.0%</tspan></text></g><g  style="cursor:pointer;" transform="translate(195,227)" class="highcharts-drilldown-data-label"><text x="5"  style="font-size:11px;font-weight:bold;color:#0d233a;text-shadow:0 0 6px contrast, 0 0 3px contrast;fill:#0d233a;text-decoration:underline;" y="16"><tspan>10.4%</tspan></text></g><g  style="cursor:pointer;" transform="translate(284,255)" class="highcharts-drilldown-data-label"><text x="5"  style="font-size:11px;font-weight:bold;color:#0d233a;text-shadow:0 0 6px contrast, 0 0 3px contrast;fill:#0d233a;text-decoration:underline;" y="16"><tspan>4.8%</tspan></text></g><g  style="cursor:pointer;" transform="translate(370,274)" class="highcharts-drilldown-data-label"><text x="5"  style="font-size:11px;font-weight:bold;color:#0d233a;text-shadow:0 0 6px contrast, 0 0 3px contrast;fill:#0d233a;text-decoration:underline;" y="16"><tspan>0.9%</tspan></text></g><g  style="" transform="translate(456,278)"><text x="5"  style="font-size: 11px; font-weight: bold; color: rgb(0, 0, 0); fill: #000000; text-shadow: rgb(255, 255, 255) 0px 0px 6px, rgb(255, 255, 255) 0px 0px 3px; text-rendering: geometricprecision;" y="16"><tspan>0.2%</tspan></text></g></g><g class="highcharts-axis-labels highcharts-xaxis-labels" ><text x="101" style="color:#0d233a;cursor:pointer;font-size:11px;fill:#0d233a;width:84px;text-overflow:clip;font-weight:bold;text-decoration:underline;" text-anchor="middle" transform="translate(0,0)" y="371" opacity="1" class=" highcharts-drilldown-axis-label"><tspan>Microsoft</tspan><tspan dy="14" x="101">Internet Explorer</tspan><title>Microsoft Internet Explorer</title></text><text x="187" style="color:#0d233a;cursor:pointer;font-size:11px;fill:#0d233a;width:84px;text-overflow:clip;font-weight:bold;text-decoration:underline;" text-anchor="middle" transform="translate(0,0)" y="371" opacity="1" class=" highcharts-drilldown-axis-label">Chrome</text><text x="273" style="color:#0d233a;cursor:pointer;font-size:11px;fill:#0d233a;width:84px;text-overflow:clip;font-weight:bold;text-decoration:underline;" text-anchor="middle" transform="translate(0,0)" y="371" opacity="1" class=" highcharts-drilldown-axis-label">Firefox</text><text x="359" style="color:#0d233a;cursor:pointer;font-size:11px;fill:#0d233a;width:84px;text-overflow:clip;font-weight:bold;text-decoration:underline;" text-anchor="middle" transform="translate(0,0)" y="371" opacity="1" class=" highcharts-drilldown-axis-label">Safari</text><text x="445" style="color:#0d233a;cursor:pointer;font-size:11px;fill:#0d233a;width:84px;text-overflow:clip;font-weight:bold;text-decoration:underline;" text-anchor="middle" transform="translate(0,0)" y="371" opacity="1" class=" highcharts-drilldown-axis-label">Opera</text><text x="531" style="color:#6e6e70;cursor:default;font-size:11px;fill:#6e6e70;width:84px;text-overflow:clip;" text-anchor="middle" transform="translate(0,0)" y="371" opacity="1"><tspan>Proprietary or</tspan><tspan dy="14" x="531">Undetectable</tspan><title>Proprietary or Undetectable</title></text></g><g class="highcharts-axis-labels highcharts-yaxis-labels" ><text x="43" style="color:#6e6e70;cursor:default;font-size:11px;fill:#6e6e70;width:183px;text-overflow:clip;" text-anchor="end" transform="translate(0,0)" y="358" opacity="1">0</text><text x="43" style="color:#6e6e70;cursor:default;font-size:11px;fill:#6e6e70;width:183px;text-overflow:clip;" text-anchor="end" transform="translate(0,0)" y="308" opacity="1">10</text><text x="43" style="color:#6e6e70;cursor:default;font-size:11px;fill:#6e6e70;width:183px;text-overflow:clip;" text-anchor="end" transform="translate(0,0)" y="258" opacity="1">20</text><text x="43" style="color:#6e6e70;cursor:default;font-size:11px;fill:#6e6e70;width:183px;text-overflow:clip;" text-anchor="end" transform="translate(0,0)" y="208" opacity="1">30</text><text x="43" style="color:#6e6e70;cursor:default;font-size:11px;fill:#6e6e70;width:183px;text-overflow:clip;" text-anchor="end" transform="translate(0,0)" y="158" opacity="1">40</text><text x="43" style="color:#6e6e70;cursor:default;font-size:11px;fill:#6e6e70;width:183px;text-overflow:clip;" text-anchor="end" transform="translate(0,0)" y="108" opacity="1">50</text><text x="43" style="color:#6e6e70;cursor:default;font-size:11px;fill:#6e6e70;width:183px;text-overflow:clip;" text-anchor="end" transform="translate(0,0)" y="59" opacity="1">60</text></g><g class="highcharts-tooltip"  style="cursor:default;padding:0;white-space:nowrap;" transform="translate(0,-9999)"><path fill="none" d="M 3 0 L 13 0 C 16 0 16 0 16 3 L 16 13 C 16 16 16 16 13 16 L 3 16 C 0 16 0 16 0 13 L 0 3 C 0 0 0 0 3 0"  stroke="black" stroke-opacity="0.0" stroke-width="5" transform="translate(1, 1)"></path><path fill="none" d="M 3 0 L 13 0 C 16 0 16 0 16 3 L 16 13 C 16 16 16 16 13 16 L 3 16 C 0 16 0 16 0 13 L 0 3 C 0 0 0 0 3 0"  stroke="black" stroke-opacity="0.0" stroke-width="3" transform="translate(1, 1)"></path><path fill="none" d="M 3 0 L 13 0 C 16 0 16 0 16 3 L 16 13 C 16 16 16 16 13 16 L 3 16 C 0 16 0 16 0 13 L 0 3 C 0 0 0 0 3 0"  stroke="black" stroke-opacity="0.1" stroke-width="1" transform="translate(1, 1)"></path><path fill="rgb(249, 249, 249)" fill-opacity=" .85" d="M 3 0 L 13 0 C 16 0 16 0 16 3 L 16 13 C 16 16 16 16 13 16 L 3 16 C 0 16 0 16 0 13 L 0 3 C 0 0 0 0 3 0"></path><text x="8"  style="font-size:12px;color:#333333;fill:#333333;" y="20"></text></g></svg>