<svg version="1.1" style="font-family:&quot;lucida grande&quot;, &quot;lucida sans unicode&quot;, arial, helvetica, sans-serif;font-size:12px;" xmlns="http://www.w3.org/2000/svg" width="584" height="400" viewBox="0 0 584 400"><desc>Created with Highcharts 4.1.6</desc><defs><clipPath id="highcharts-1"><rect x="0" y="0" width="503" height="280"></rect></clipPath></defs><rect x="0" y="0" width="584" height="400" strokeWidth="0" fill="#FFFFFF" class=" highcharts-background" stroke="transparent"></rect><g class="highcharts-grid" ></g><g class="highcharts-grid" ><path fill="none" d="M 71 326.5 L 574 326.5" stroke="#D8D8D8" stroke-width="1"  opacity="1"></path><path fill="none" d="M 71 256.5 L 574 256.5" stroke="#D8D8D8" stroke-width="1"  opacity="1"></path><path fill="none" d="M 71 186.5 L 574 186.5" stroke="#D8D8D8" stroke-width="1"  opacity="1"></path><path fill="none" d="M 71 116.5 L 574 116.5" stroke="#D8D8D8" stroke-width="1"  opacity="1"></path><path fill="none" d="M 71 45.5 L 574 45.5" stroke="#D8D8D8" stroke-width="1"  opacity="1"></path></g><g class="highcharts-axis" ><path fill="none" d="M 171.5 326 L 171.5 336" stroke="#C0D0E0" stroke-width="1" opacity="1"></path><path fill="none" d="M 271.5 326 L 271.5 336" stroke="#C0D0E0" stroke-width="1" opacity="1"></path><path fill="none" d="M 372.5 326 L 372.5 336" stroke="#C0D0E0" stroke-width="1" opacity="1"></path><path fill="none" d="M 472.5 326 L 472.5 336" stroke="#C0D0E0" stroke-width="1" opacity="1"></path><path fill="none" d="M 574.5 326 L 574.5 336" stroke="#C0D0E0" stroke-width="1" opacity="1"></path><path fill="none" d="M 70.5 326 L 70.5 336" stroke="#C0D0E0" stroke-width="1" opacity="1"></path><path fill="none" d="M 71 326.5 L 574 326.5" stroke="#C0D0E0" stroke-width="1"  visibility="visible"></path></g><g class="highcharts-axis" ><text x="25"  text-anchor="middle" transform="translate(0,0) rotate(270 25 186)" class=" highcharts-yaxis-title" style="color:#707070;fill:#707070;" visibility="visible" y="186"><tspan>Total fruit consumption</tspan></text></g><g class="highcharts-series-group" ><g class="highcharts-series highcharts-tracker" visibility="visible"  transform="translate(71,46) scale(1 1)" style="" clip-path="url(#highcharts-1)"><rect x="25.5" y="-0.5" width="49" height="141" stroke="#FFFFFF" stroke-width="1" fill="#7cb5ec" rx="0" ry="0"></rect><rect x="126.5" y="-0.5" width="49" height="94" stroke="#FFFFFF" stroke-width="1" fill="#7cb5ec" rx="0" ry="0"></rect><rect x="226.5" y="-0.5" width="49" height="103" stroke="#FFFFFF" stroke-width="1" fill="#7cb5ec" rx="0" ry="0"></rect><rect x="327.5" y="-0.5" width="49" height="179" stroke="#FFFFFF" stroke-width="1" fill="#7cb5ec" rx="0" ry="0"></rect><rect x="428.5" y="-0.5" width="49" height="71" stroke="#FFFFFF" stroke-width="1" fill="#7cb5ec" rx="0" ry="0"></rect></g><g class="highcharts-markers" visibility="visible"  transform="translate(71,46) scale(1 1)"></g><g class="highcharts-series highcharts-tracker" visibility="visible"  transform="translate(71,46) scale(1 1)" style="" clip-path="url(#highcharts-1)"><rect x="25.5" y="140.5" width="49" height="56" stroke="#FFFFFF" stroke-width="1" fill="#434348" rx="0" ry="0"></rect><rect x="126.5" y="93.5" width="49" height="63" stroke="#FFFFFF" stroke-width="1" fill="#434348" rx="0" ry="0"></rect><rect x="226.5" y="102.5" width="49" height="76" stroke="#FFFFFF" stroke-width="1" fill="#434348" rx="0" ry="0"></rect><rect x="327.5" y="178.5" width="49" height="51" stroke="#FFFFFF" stroke-width="1" fill="#434348" rx="0" ry="0"></rect><rect x="428.5" y="70.5" width="49" height="35" stroke="#FFFFFF" stroke-width="1" fill="#434348" rx="0" ry="0"></rect></g><g class="highcharts-markers" visibility="visible"  transform="translate(71,46) scale(1 1)"></g><g class="highcharts-series highcharts-tracker" visibility="visible"  transform="translate(71,46) scale(1 1)" style="" clip-path="url(#highcharts-1)"><rect x="25.5" y="196.5" width="49" height="84" stroke="#FFFFFF" stroke-width="1" fill="#90ed7d" rx="0" ry="0"></rect><rect x="126.5" y="156.5" width="49" height="124" stroke="#FFFFFF" stroke-width="1" fill="#90ed7d" rx="0" ry="0"></rect><rect x="226.5" y="178.5" width="49" height="102" stroke="#FFFFFF" stroke-width="1" fill="#90ed7d" rx="0" ry="0"></rect><rect x="327.5" y="229.5" width="49" height="51" stroke="#FFFFFF" stroke-width="1" fill="#90ed7d" rx="0" ry="0"></rect><rect x="428.5" y="105.5" width="49" height="175" stroke="#FFFFFF" stroke-width="1" fill="#90ed7d" rx="0" ry="0"></rect></g><g class="highcharts-markers" visibility="visible"  transform="translate(71,46) scale(1 1)"></g></g><text x="292" text-anchor="middle" class="highcharts-title"  style="color:#333333;font-size:18px;fill:#333333;width:520px;" y="24"><tspan>Stacked column chart</tspan></text><g class="highcharts-legend"  transform="translate(195,359)"><g ><g><g class="highcharts-legend-item"  transform="translate(8,3)"><text x="21" style="color:#333333;font-size:12px;font-weight:bold;cursor:pointer;fill:#333333;" text-anchor="start"  y="15">John</text><rect x="0" y="4" width="16" height="12"  fill="#7cb5ec"></rect></g><g class="highcharts-legend-item"  transform="translate(78,3)"><text x="21" y="15" style="color:#333333;font-size:12px;font-weight:bold;cursor:pointer;fill:#333333;" text-anchor="start" >Jane</text><rect x="0" y="4" width="16" height="12"  fill="#434348"></rect></g><g class="highcharts-legend-item"  transform="translate(146,3)"><text x="21" y="15" style="color:#333333;font-size:12px;font-weight:bold;cursor:pointer;fill:#333333;" text-anchor="start" >Joe</text><rect x="0" y="4" width="16" height="12"  fill="#90ed7d"></rect></g></g></g></g><g class="highcharts-axis-labels highcharts-xaxis-labels" ><text x="121.3" style="color:#606060;cursor:default;font-size:11px;fill:#606060;width:91px;text-overflow:clip;" text-anchor="middle" transform="translate(0,0)" y="345" opacity="1">Apples</text><text x="221.8" style="color:#606060;cursor:default;font-size:11px;fill:#606060;width:91px;text-overflow:clip;" text-anchor="middle" transform="translate(0,0)" y="345" opacity="1">Oranges</text><text x="322.5" style="color:#606060;cursor:default;font-size:11px;fill:#606060;width:91px;text-overflow:clip;" text-anchor="middle" transform="translate(0,0)" y="345" opacity="1">Pears</text><text x="423.0" style="color:#606060;cursor:default;font-size:11px;fill:#606060;width:91px;text-overflow:clip;" text-anchor="middle" transform="translate(0,0)" y="345" opacity="1">Grapes</text><text x="523.7" style="color:#606060;cursor:default;font-size:11px;fill:#606060;width:91px;text-overflow:clip;" text-anchor="middle" transform="translate(0,0)" y="345" opacity="1">Bananas</text></g><g class="highcharts-axis-labels highcharts-yaxis-labels" ><text x="56" style="color:#606060;cursor:default;font-size:11px;fill:#606060;width:183px;text-overflow:clip;" text-anchor="end" transform="translate(0,0)" y="331" opacity="1">0</text><text x="56" style="color:#606060;cursor:default;font-size:11px;fill:#606060;width:183px;text-overflow:clip;" text-anchor="end" transform="translate(0,0)" y="261" opacity="1">25</text><text x="56" style="color:#606060;cursor:default;font-size:11px;fill:#606060;width:183px;text-overflow:clip;" text-anchor="end" transform="translate(0,0)" y="191" opacity="1">50</text><text x="56" style="color:#606060;cursor:default;font-size:11px;fill:#606060;width:183px;text-overflow:clip;" text-anchor="end" transform="translate(0,0)" y="121" opacity="1">75</text><text x="56" style="color:#606060;cursor:default;font-size:11px;fill:#606060;width:183px;text-overflow:clip;" text-anchor="end" transform="translate(0,0)" y="51" opacity="1">100</text></g><g class="highcharts-tooltip"  style="cursor:default;padding:0;white-space:nowrap;" transform="translate(0,-9999)"><path fill="none" d="M 3.5 0.5 L 13.5 0.5 C 16.5 0.5 16.5 0.5 16.5 3.5 L 16.5 13.5 C 16.5 16.5 16.5 16.5 13.5 16.5 L 3.5 16.5 C 0.5 16.5 0.5 16.5 0.5 13.5 L 0.5 3.5 C 0.5 0.5 0.5 0.5 3.5 0.5"  stroke="black" stroke-opacity="0.0" stroke-width="5" transform="translate(1, 1)"></path><path fill="none" d="M 3.5 0.5 L 13.5 0.5 C 16.5 0.5 16.5 0.5 16.5 3.5 L 16.5 13.5 C 16.5 16.5 16.5 16.5 13.5 16.5 L 3.5 16.5 C 0.5 16.5 0.5 16.5 0.5 13.5 L 0.5 3.5 C 0.5 0.5 0.5 0.5 3.5 0.5"  stroke="black" stroke-opacity="0.0" stroke-width="3" transform="translate(1, 1)"></path><path fill="none" d="M 3.5 0.5 L 13.5 0.5 C 16.5 0.5 16.5 0.5 16.5 3.5 L 16.5 13.5 C 16.5 16.5 16.5 16.5 13.5 16.5 L 3.5 16.5 C 0.5 16.5 0.5 16.5 0.5 13.5 L 0.5 3.5 C 0.5 0.5 0.5 0.5 3.5 0.5"  stroke="black" stroke-opacity="0.1" stroke-width="1" transform="translate(1, 1)"></path><path fill="rgb(249, 249, 249)" fill-opacity=" .85" d="M 3.5 0.5 L 13.5 0.5 C 16.5 0.5 16.5 0.5 16.5 3.5 L 16.5 13.5 C 16.5 16.5 16.5 16.5 13.5 16.5 L 3.5 16.5 C 0.5 16.5 0.5 16.5 0.5 13.5 L 0.5 3.5 C 0.5 0.5 0.5 0.5 3.5 0.5"></path><text x="8"  style="font-size:12px;color:#333333;fill:#333333;" y="20"></text></g></svg>