<svg version="1.1" style="font-family: signika, serif; font-size: 12px; background-image: url(http://www.highcharts.com/samples/graphics/sand.png); background-position: initial initial; background-repeat: initial initial;" xmlns="http://www.w3.org/2000/svg" width="584" height="400" viewBox="0 0 584 400" xmlns:xlink="http://www.w3.org/1999/xlink"><style type="text/css"><![CDATA[@import url(http://fonts.googleapis.com/css?family=Signika:700);]]></style><desc>Created with Highcharts 4.1.7</desc><defs><clipPath id="highcharts-1"><rect x="0" y="0" width="516" height="260"></rect></clipPath></defs><g class="highcharts-grid" ></g><g class="highcharts-grid" ><path fill="none" d="M 58 313.5 L 574 313.5" stroke="#D8D8D8" stroke-width="1"  opacity="1"></path><path fill="none" d="M 58 261.5 L 574 261.5" stroke="#D8D8D8" stroke-width="1"  opacity="1"></path><path fill="none" d="M 58 209.5 L 574 209.5" stroke="#D8D8D8" stroke-width="1"  opacity="1"></path><path fill="none" d="M 58 157.5 L 574 157.5" stroke="#D8D8D8" stroke-width="1"  opacity="1"></path><path fill="none" d="M 58 105.5 L 574 105.5" stroke="#D8D8D8" stroke-width="1"  opacity="1"></path><path fill="none" d="M 58 52.5 L 574 52.5" stroke="#D8D8D8" stroke-width="1"  opacity="1"></path></g><g class="highcharts-axis" ><path fill="none" d="M 83.5 313 L 83.5 323" stroke="#C0D0E0" stroke-width="1" opacity="1"></path><path fill="none" d="M 109.5 313 L 109.5 323" stroke="#C0D0E0" stroke-width="1" opacity="1"></path><path fill="none" d="M 134.5 313 L 134.5 323" stroke="#C0D0E0" stroke-width="1" opacity="1"></path><path fill="none" d="M 160.5 313 L 160.5 323" stroke="#C0D0E0" stroke-width="1" opacity="1"></path><path fill="none" d="M 186.5 313 L 186.5 323" stroke="#C0D0E0" stroke-width="1" opacity="1"></path><path fill="none" d="M 212.5 313 L 212.5 323" stroke="#C0D0E0" stroke-width="1" opacity="1"></path><path fill="none" d="M 238.5 313 L 238.5 323" stroke="#C0D0E0" stroke-width="1" opacity="1"></path><path fill="none" d="M 263.5 313 L 263.5 323" stroke="#C0D0E0" stroke-width="1" opacity="1"></path><path fill="none" d="M 289.5 313 L 289.5 323" stroke="#C0D0E0" stroke-width="1" opacity="1"></path><path fill="none" d="M 315.5 313 L 315.5 323" stroke="#C0D0E0" stroke-width="1" opacity="1"></path><path fill="none" d="M 341.5 313 L 341.5 323" stroke="#C0D0E0" stroke-width="1" opacity="1"></path><path fill="none" d="M 367.5 313 L 367.5 323" stroke="#C0D0E0" stroke-width="1" opacity="1"></path><path fill="none" d="M 392.5 313 L 392.5 323" stroke="#C0D0E0" stroke-width="1" opacity="1"></path><path fill="none" d="M 418.5 313 L 418.5 323" stroke="#C0D0E0" stroke-width="1" opacity="1"></path><path fill="none" d="M 444.5 313 L 444.5 323" stroke="#C0D0E0" stroke-width="1" opacity="1"></path><path fill="none" d="M 470.5 313 L 470.5 323" stroke="#C0D0E0" stroke-width="1" opacity="1"></path><path fill="none" d="M 496.5 313 L 496.5 323" stroke="#C0D0E0" stroke-width="1" opacity="1"></path><path fill="none" d="M 521.5 313 L 521.5 323" stroke="#C0D0E0" stroke-width="1" opacity="1"></path><path fill="none" d="M 547.5 313 L 547.5 323" stroke="#C0D0E0" stroke-width="1" opacity="1"></path><path fill="none" d="M 574.5 313 L 574.5 323" stroke="#C0D0E0" stroke-width="1" opacity="1"></path><path fill="none" d="M 57.5 313 L 57.5 323" stroke="#C0D0E0" stroke-width="1" opacity="1"></path><path fill="none" d="M 58 313.5 L 574 313.5" stroke="#C0D0E0" stroke-width="1"  visibility="visible"></path></g><g class="highcharts-axis" ><text x="22"  text-anchor="middle" transform="translate(0,0) rotate(270 22 183)" class=" highcharts-yaxis-title" style="color:#707070;fill:#707070;" visibility="visible" y="183"><tspan>Population (millions)</tspan></text></g><g class="highcharts-series-group" ><g class="highcharts-series highcharts-tracker" visibility="visible"  transform="translate(58,53) scale(1 1)" style="" clip-path="url(#highcharts-1)"><rect x="6.5" y="14.5" width="13" height="246" stroke="black" stroke-width="5" fill="none" rx="0" ry="0"  stroke-opacity="0.0" transform="translate(1, 1)"></rect><rect x="6.5" y="14.5" width="13" height="246" stroke="black" stroke-width="3" fill="none" rx="0" ry="0"  stroke-opacity="0.0" transform="translate(1, 1)"></rect><rect x="6.5" y="14.5" width="13" height="246" stroke="black" stroke-width="1" fill="none" rx="0" ry="0"  stroke-opacity="0.1" transform="translate(1, 1)"></rect><rect x="6.5" y="14.5" width="13" height="246" stroke="#FFFFFF" stroke-width="1" fill="#f45b5b" rx="0" ry="0"></rect><rect x="32.5" y="93.5" width="13" height="167" stroke="black" stroke-width="5" fill="none" rx="0" ry="0"  stroke-opacity="0.0" transform="translate(1, 1)"></rect><rect x="32.5" y="93.5" width="13" height="167" stroke="black" stroke-width="3" fill="none" rx="0" ry="0"  stroke-opacity="0.0" transform="translate(1, 1)"></rect><rect x="32.5" y="93.5" width="13" height="167" stroke="black" stroke-width="1" fill="none" rx="0" ry="0"  stroke-opacity="0.1" transform="translate(1, 1)"></rect><rect x="32.5" y="93.5" width="13" height="167" stroke="#FFFFFF" stroke-width="1" fill="#f45b5b" rx="0" ry="0"></rect><rect x="57.5" y="112.5" width="13" height="148" stroke="black" stroke-width="5" fill="none" rx="0" ry="0"  stroke-opacity="0.0" transform="translate(1, 1)"></rect><rect x="57.5" y="112.5" width="13" height="148" stroke="black" stroke-width="3" fill="none" rx="0" ry="0"  stroke-opacity="0.0" transform="translate(1, 1)"></rect><rect x="57.5" y="112.5" width="13" height="148" stroke="black" stroke-width="1" fill="none" rx="0" ry="0"  stroke-opacity="0.1" transform="translate(1, 1)"></rect><rect x="57.5" y="112.5" width="13" height="148" stroke="#FFFFFF" stroke-width="1" fill="#f45b5b" rx="0" ry="0"></rect><rect x="83.5" y="114.5" width="13" height="146" stroke="black" stroke-width="5" fill="none" rx="0" ry="0"  stroke-opacity="0.0" transform="translate(1, 1)"></rect><rect x="83.5" y="114.5" width="13" height="146" stroke="black" stroke-width="3" fill="none" rx="0" ry="0"  stroke-opacity="0.0" transform="translate(1, 1)"></rect><rect x="83.5" y="114.5" width="13" height="146" stroke="black" stroke-width="1" fill="none" rx="0" ry="0"  stroke-opacity="0.1" transform="translate(1, 1)"></rect><rect x="83.5" y="114.5" width="13" height="146" stroke="#FFFFFF" stroke-width="1" fill="#f45b5b" rx="0" ry="0"></rect><rect x="109.5" y="130.5" width="13" height="130" stroke="black" stroke-width="5" fill="none" rx="0" ry="0"  stroke-opacity="0.0" transform="translate(1, 1)"></rect><rect x="109.5" y="130.5" width="13" height="130" stroke="black" stroke-width="3" fill="none" rx="0" ry="0"  stroke-opacity="0.0" transform="translate(1, 1)"></rect><rect x="109.5" y="130.5" width="13" height="130" stroke="black" stroke-width="1" fill="none" rx="0" ry="0"  stroke-opacity="0.1" transform="translate(1, 1)"></rect><rect x="109.5" y="130.5" width="13" height="130" stroke="#FFFFFF" stroke-width="1" fill="#f45b5b" rx="0" ry="0"></rect><rect x="135.5" y="134.5" width="13" height="126" stroke="black" stroke-width="5" fill="none" rx="0" ry="0"  stroke-opacity="0.0" transform="translate(1, 1)"></rect><rect x="135.5" y="134.5" width="13" height="126" stroke="black" stroke-width="3" fill="none" rx="0" ry="0"  stroke-opacity="0.0" transform="translate(1, 1)"></rect><rect x="135.5" y="134.5" width="13" height="126" stroke="black" stroke-width="1" fill="none" rx="0" ry="0"  stroke-opacity="0.1" transform="translate(1, 1)"></rect><rect x="135.5" y="134.5" width="13" height="126" stroke="#FFFFFF" stroke-width="1" fill="#f45b5b" rx="0" ry="0"></rect><rect x="161.5" y="137.5" width="13" height="123" stroke="black" stroke-width="5" fill="none" rx="0" ry="0"  stroke-opacity="0.0" transform="translate(1, 1)"></rect><rect x="161.5" y="137.5" width="13" height="123" stroke="black" stroke-width="3" fill="none" rx="0" ry="0"  stroke-opacity="0.0" transform="translate(1, 1)"></rect><rect x="161.5" y="137.5" width="13" height="123" stroke="black" stroke-width="1" fill="none" rx="0" ry="0"  stroke-opacity="0.1" transform="translate(1, 1)"></rect><rect x="161.5" y="137.5" width="13" height="123" stroke="#FFFFFF" stroke-width="1" fill="#f45b5b" rx="0" ry="0"></rect><rect x="186.5" y="138.5" width="13" height="122" stroke="black" stroke-width="5" fill="none" rx="0" ry="0"  stroke-opacity="0.0" transform="translate(1, 1)"></rect><rect x="186.5" y="138.5" width="13" height="122" stroke="black" stroke-width="3" fill="none" rx="0" ry="0"  stroke-opacity="0.0" transform="translate(1, 1)"></rect><rect x="186.5" y="138.5" width="13" height="122" stroke="black" stroke-width="1" fill="none" rx="0" ry="0"  stroke-opacity="0.1" transform="translate(1, 1)"></rect><rect x="186.5" y="138.5" width="13" height="122" stroke="#FFFFFF" stroke-width="1" fill="#f45b5b" rx="0" ry="0"></rect><rect x="212.5" y="145.5" width="13" height="115" stroke="black" stroke-width="5" fill="none" rx="0" ry="0"  stroke-opacity="0.0" transform="translate(1, 1)"></rect><rect x="212.5" y="145.5" width="13" height="115" stroke="black" stroke-width="3" fill="none" rx="0" ry="0"  stroke-opacity="0.0" transform="translate(1, 1)"></rect><rect x="212.5" y="145.5" width="13" height="115" stroke="black" stroke-width="1" fill="none" rx="0" ry="0"  stroke-opacity="0.1" transform="translate(1, 1)"></rect><rect x="212.5" y="145.5" width="13" height="115" stroke="#FFFFFF" stroke-width="1" fill="#f45b5b" rx="0" ry="0"></rect><rect x="238.5" y="145.5" width="13" height="115" stroke="black" stroke-width="5" fill="none" rx="0" ry="0"  stroke-opacity="0.0" transform="translate(1, 1)"></rect><rect x="238.5" y="145.5" width="13" height="115" stroke="black" stroke-width="3" fill="none" rx="0" ry="0"  stroke-opacity="0.0" transform="translate(1, 1)"></rect><rect x="238.5" y="145.5" width="13" height="115" stroke="black" stroke-width="1" fill="none" rx="0" ry="0"  stroke-opacity="0.1" transform="translate(1, 1)"></rect><rect x="238.5" y="145.5" width="13" height="115" stroke="#FFFFFF" stroke-width="1" fill="#f45b5b" rx="0" ry="0"></rect><rect x="264.5" y="151.5" width="13" height="109" stroke="black" stroke-width="5" fill="none" rx="0" ry="0"  stroke-opacity="0.0" transform="translate(1, 1)"></rect><rect x="264.5" y="151.5" width="13" height="109" stroke="black" stroke-width="3" fill="none" rx="0" ry="0"  stroke-opacity="0.0" transform="translate(1, 1)"></rect><rect x="264.5" y="151.5" width="13" height="109" stroke="black" stroke-width="1" fill="none" rx="0" ry="0"  stroke-opacity="0.1" transform="translate(1, 1)"></rect><rect x="264.5" y="151.5" width="13" height="109" stroke="#FFFFFF" stroke-width="1" fill="#f45b5b" rx="0" ry="0"></rect><rect x="290.5" y="152.5" width="13" height="108" stroke="black" stroke-width="5" fill="none" rx="0" ry="0"  stroke-opacity="0.0" transform="translate(1, 1)"></rect><rect x="290.5" y="152.5" width="13" height="108" stroke="black" stroke-width="3" fill="none" rx="0" ry="0"  stroke-opacity="0.0" transform="translate(1, 1)"></rect><rect x="290.5" y="152.5" width="13" height="108" stroke="black" stroke-width="1" fill="none" rx="0" ry="0"  stroke-opacity="0.1" transform="translate(1, 1)"></rect><rect x="290.5" y="152.5" width="13" height="108" stroke="#FFFFFF" stroke-width="1" fill="#f45b5b" rx="0" ry="0"></rect><rect x="315.5" y="156.5" width="13" height="104" stroke="black" stroke-width="5" fill="none" rx="0" ry="0"  stroke-opacity="0.0" transform="translate(1, 1)"></rect><rect x="315.5" y="156.5" width="13" height="104" stroke="black" stroke-width="3" fill="none" rx="0" ry="0"  stroke-opacity="0.0" transform="translate(1, 1)"></rect><rect x="315.5" y="156.5" width="13" height="104" stroke="black" stroke-width="1" fill="none" rx="0" ry="0"  stroke-opacity="0.1" transform="translate(1, 1)"></rect><rect x="315.5" y="156.5" width="13" height="104" stroke="#FFFFFF" stroke-width="1" fill="#f45b5b" rx="0" ry="0"></rect><rect x="341.5" y="163.5" width="13" height="97" stroke="black" stroke-width="5" fill="none" rx="0" ry="0"  stroke-opacity="0.0" transform="translate(1, 1)"></rect><rect x="341.5" y="163.5" width="13" height="97" stroke="black" stroke-width="3" fill="none" rx="0" ry="0"  stroke-opacity="0.0" transform="translate(1, 1)"></rect><rect x="341.5" y="163.5" width="13" height="97" stroke="black" stroke-width="1" fill="none" rx="0" ry="0"  stroke-opacity="0.1" transform="translate(1, 1)"></rect><rect x="341.5" y="163.5" width="13" height="97" stroke="#FFFFFF" stroke-width="1" fill="#f45b5b" rx="0" ry="0"></rect><rect x="367.5" y="163.5" width="13" height="97" stroke="black" stroke-width="5" fill="none" rx="0" ry="0"  stroke-opacity="0.0" transform="translate(1, 1)"></rect><rect x="367.5" y="163.5" width="13" height="97" stroke="black" stroke-width="3" fill="none" rx="0" ry="0"  stroke-opacity="0.0" transform="translate(1, 1)"></rect><rect x="367.5" y="163.5" width="13" height="97" stroke="black" stroke-width="1" fill="none" rx="0" ry="0"  stroke-opacity="0.1" transform="translate(1, 1)"></rect><rect x="367.5" y="163.5" width="13" height="97" stroke="#FFFFFF" stroke-width="1" fill="#f45b5b" rx="0" ry="0"></rect><rect x="393.5" y="166.5" width="13" height="94" stroke="black" stroke-width="5" fill="none" rx="0" ry="0"  stroke-opacity="0.0" transform="translate(1, 1)"></rect><rect x="393.5" y="166.5" width="13" height="94" stroke="black" stroke-width="3" fill="none" rx="0" ry="0"  stroke-opacity="0.0" transform="translate(1, 1)"></rect><rect x="393.5" y="166.5" width="13" height="94" stroke="black" stroke-width="1" fill="none" rx="0" ry="0"  stroke-opacity="0.1" transform="translate(1, 1)"></rect><rect x="393.5" y="166.5" width="13" height="94" stroke="#FFFFFF" stroke-width="1" fill="#f45b5b" rx="0" ry="0"></rect><rect x="419.5" y="167.5" width="13" height="93" stroke="black" stroke-width="5" fill="none" rx="0" ry="0"  stroke-opacity="0.0" transform="translate(1, 1)"></rect><rect x="419.5" y="167.5" width="13" height="93" stroke="black" stroke-width="3" fill="none" rx="0" ry="0"  stroke-opacity="0.0" transform="translate(1, 1)"></rect><rect x="419.5" y="167.5" width="13" height="93" stroke="black" stroke-width="1" fill="none" rx="0" ry="0"  stroke-opacity="0.1" transform="translate(1, 1)"></rect><rect x="419.5" y="167.5" width="13" height="93" stroke="#FFFFFF" stroke-width="1" fill="#f45b5b" rx="0" ry="0"></rect><rect x="444.5" y="167.5" width="13" height="93" stroke="black" stroke-width="5" fill="none" rx="0" ry="0"  stroke-opacity="0.0" transform="translate(1, 1)"></rect><rect x="444.5" y="167.5" width="13" height="93" stroke="black" stroke-width="3" fill="none" rx="0" ry="0"  stroke-opacity="0.0" transform="translate(1, 1)"></rect><rect x="444.5" y="167.5" width="13" height="93" stroke="black" stroke-width="1" fill="none" rx="0" ry="0"  stroke-opacity="0.1" transform="translate(1, 1)"></rect><rect x="444.5" y="167.5" width="13" height="93" stroke="#FFFFFF" stroke-width="1" fill="#f45b5b" rx="0" ry="0"></rect><rect x="470.5" y="167.5" width="13" height="93" stroke="black" stroke-width="5" fill="none" rx="0" ry="0"  stroke-opacity="0.0" transform="translate(1, 1)"></rect><rect x="470.5" y="167.5" width="13" height="93" stroke="black" stroke-width="3" fill="none" rx="0" ry="0"  stroke-opacity="0.0" transform="translate(1, 1)"></rect><rect x="470.5" y="167.5" width="13" height="93" stroke="black" stroke-width="1" fill="none" rx="0" ry="0"  stroke-opacity="0.1" transform="translate(1, 1)"></rect><rect x="470.5" y="167.5" width="13" height="93" stroke="#FFFFFF" stroke-width="1" fill="#f45b5b" rx="0" ry="0"></rect><rect x="496.5" y="167.5" width="13" height="93" stroke="black" stroke-width="5" fill="none" rx="0" ry="0"  stroke-opacity="0.0" transform="translate(1, 1)"></rect><rect x="496.5" y="167.5" width="13" height="93" stroke="black" stroke-width="3" fill="none" rx="0" ry="0"  stroke-opacity="0.0" transform="translate(1, 1)"></rect><rect x="496.5" y="167.5" width="13" height="93" stroke="black" stroke-width="1" fill="none" rx="0" ry="0"  stroke-opacity="0.1" transform="translate(1, 1)"></rect><rect x="496.5" y="167.5" width="13" height="93" stroke="#FFFFFF" stroke-width="1" fill="#f45b5b" rx="0" ry="0"></rect></g><g class="highcharts-markers" visibility="visible"  transform="translate(58,53) scale(1 1)"></g></g><text x="292" text-anchor="middle" class="highcharts-title"  style="color:black;font-size:16px;font-weight:bold;fill:black;width:520px;" y="22"><tspan>World's largest cities per 2014</tspan></text><text x="292" text-anchor="middle" class="highcharts-subtitle"  style="color:black;fill:black;width:520px;" y="40"><tspan>Source: </tspan><tspan onclick="location.href=&quot;http://en.wikipedia.org/wiki/List_of_cities_proper_by_population&quot;" dx="0" style="cursor: pointer;">Wikipedia</tspan></text><g class="highcharts-data-labels highcharts-tracker" visibility="visible"  transform="translate(58,53) scale(1 1)" style=""><text x="17.3" y="24.5" r="0" padding="5"  transform="translate(0,0) rotate(-90 17.3 24.5)" style="color: rgb(255, 255, 255); font-size: 13px; font-weight: bold; font-family: verdana, sans-serif; fill: #ffffff; text-shadow: rgb(0, 0, 0) 0px 0px 6px, rgb(0, 0, 0) 0px 0px 3px; text-rendering: geometricprecision;" text-anchor="end"><tspan>23.7</tspan></text><text x="43.3" y="103.5" r="0" padding="5"  transform="translate(0,0) rotate(-90 43.3 103.5)" style="color: rgb(255, 255, 255); font-size: 13px; font-weight: bold; font-family: verdana, sans-serif; fill: #ffffff; text-shadow: rgb(0, 0, 0) 0px 0px 6px, rgb(0, 0, 0) 0px 0px 3px; text-rendering: geometricprecision;" text-anchor="end"><tspan>16.1</tspan></text><text x="68.3" y="122.5" r="0" padding="5"  transform="translate(0,0) rotate(-90 68.3 122.5)" style="color: rgb(255, 255, 255); font-size: 13px; font-weight: bold; font-family: verdana, sans-serif; fill: #ffffff; text-shadow: rgb(0, 0, 0) 0px 0px 6px, rgb(0, 0, 0) 0px 0px 3px; text-rendering: geometricprecision;" text-anchor="end"><tspan>14.2</tspan></text><text x="94.3" y="124.5" r="0" padding="5"  transform="translate(0,0) rotate(-90 94.3 124.5)" style="color: rgb(255, 255, 255); font-size: 13px; font-weight: bold; font-family: verdana, sans-serif; fill: #ffffff; text-shadow: rgb(0, 0, 0) 0px 0px 6px, rgb(0, 0, 0) 0px 0px 3px; text-rendering: geometricprecision;" text-anchor="end"><tspan>14.0</tspan></text><text x="120.3" y="140.5" r="0" padding="5"  transform="translate(0,0) rotate(-90 120.3 140.5)" style="color: rgb(255, 255, 255); font-size: 13px; font-weight: bold; font-family: verdana, sans-serif; fill: #ffffff; text-shadow: rgb(0, 0, 0) 0px 0px 6px, rgb(0, 0, 0) 0px 0px 3px; text-rendering: geometricprecision;" text-anchor="end"><tspan>12.5</tspan></text><text x="146.3" y="144.5" r="0" padding="5"  transform="translate(0,0) rotate(-90 146.3 144.5)" style="color: rgb(255, 255, 255); font-size: 13px; font-weight: bold; font-family: verdana, sans-serif; fill: #ffffff; text-shadow: rgb(0, 0, 0) 0px 0px 6px, rgb(0, 0, 0) 0px 0px 3px; text-rendering: geometricprecision;" text-anchor="end"><tspan>12.1</tspan></text><text x="172.3" y="147.5" r="0" padding="5"  transform="translate(0,0) rotate(-90 172.3 147.5)" style="color: rgb(255, 255, 255); font-size: 13px; font-weight: bold; font-family: verdana, sans-serif; fill: #ffffff; text-shadow: rgb(0, 0, 0) 0px 0px 6px, rgb(0, 0, 0) 0px 0px 3px; text-rendering: geometricprecision;" text-anchor="end"><tspan>11.8</tspan></text><text x="197.3" y="148.5" r="0" padding="5"  transform="translate(0,0) rotate(-90 197.3 148.5)" style="color: rgb(255, 255, 255); font-size: 13px; font-weight: bold; font-family: verdana, sans-serif; fill: #ffffff; text-shadow: rgb(0, 0, 0) 0px 0px 6px, rgb(0, 0, 0) 0px 0px 3px; text-rendering: geometricprecision;" text-anchor="end"><tspan>11.7</tspan></text><text x="223.3" y="155.5" r="0" padding="5"  transform="translate(0,0) rotate(-90 223.3 155.5)" style="color: rgb(255, 255, 255); font-size: 13px; font-weight: bold; font-family: verdana, sans-serif; fill: #ffffff; text-shadow: rgb(0, 0, 0) 0px 0px 6px, rgb(0, 0, 0) 0px 0px 3px; text-rendering: geometricprecision;" text-anchor="end"><tspan>11.1</tspan></text><text x="249.3" y="155.5" r="0" padding="5"  transform="translate(0,0) rotate(-90 249.3 155.5)" style="color: rgb(255, 255, 255); font-size: 13px; font-weight: bold; font-family: verdana, sans-serif; fill: #ffffff; text-shadow: rgb(0, 0, 0) 0px 0px 6px, rgb(0, 0, 0) 0px 0px 3px; text-rendering: geometricprecision;" text-anchor="end"><tspan>11.1</tspan></text><text x="275.3" y="161.5" r="0" padding="5"  transform="translate(0,0) rotate(-90 275.3 161.5)" style="color: rgb(255, 255, 255); font-size: 13px; font-weight: bold; font-family: verdana, sans-serif; fill: #ffffff; text-shadow: rgb(0, 0, 0) 0px 0px 6px, rgb(0, 0, 0) 0px 0px 3px; text-rendering: geometricprecision;" text-anchor="end"><tspan>10.5</tspan></text><text x="301.3" y="162.5" r="0" padding="5"  transform="translate(0,0) rotate(-90 301.3 162.5)" style="color: rgb(255, 255, 255); font-size: 13px; font-weight: bold; font-family: verdana, sans-serif; fill: #ffffff; text-shadow: rgb(0, 0, 0) 0px 0px 6px, rgb(0, 0, 0) 0px 0px 3px; text-rendering: geometricprecision;" text-anchor="end"><tspan>10.4</tspan></text><text x="326.3" y="166.5" r="0" padding="5"  transform="translate(0,0) rotate(-90 326.3 166.5)" style="color: rgb(255, 255, 255); font-size: 13px; font-weight: bold; font-family: verdana, sans-serif; fill: #ffffff; text-shadow: rgb(0, 0, 0) 0px 0px 6px, rgb(0, 0, 0) 0px 0px 3px; text-rendering: geometricprecision;" text-anchor="end"><tspan>10.0</tspan></text><text x="352.3" y="173.5" r="0" padding="5"  transform="translate(0,0) rotate(-90 352.3 173.5)" style="color: rgb(255, 255, 255); font-size: 13px; font-weight: bold; font-family: verdana, sans-serif; fill: #ffffff; text-shadow: rgb(0, 0, 0) 0px 0px 6px, rgb(0, 0, 0) 0px 0px 3px; text-rendering: geometricprecision;" text-anchor="end"><tspan>9.3</tspan></text><text x="378.3" y="173.5" r="0" padding="5"  transform="translate(0,0) rotate(-90 378.3 173.5)" style="color: rgb(255, 255, 255); font-size: 13px; font-weight: bold; font-family: verdana, sans-serif; fill: #ffffff; text-shadow: rgb(0, 0, 0) 0px 0px 6px, rgb(0, 0, 0) 0px 0px 3px; text-rendering: geometricprecision;" text-anchor="end"><tspan>9.3</tspan></text><text x="404.3" y="176.5" r="0" padding="5"  transform="translate(0,0) rotate(-90 404.3 176.5)" style="color: rgb(255, 255, 255); font-size: 13px; font-weight: bold; font-family: verdana, sans-serif; fill: #ffffff; text-shadow: rgb(0, 0, 0) 0px 0px 6px, rgb(0, 0, 0) 0px 0px 3px; text-rendering: geometricprecision;" text-anchor="end"><tspan>9.0</tspan></text><text x="430.3" y="177.5" r="0" padding="5"  transform="translate(0,0) rotate(-90 430.3 177.5)" style="color: rgb(255, 255, 255); font-size: 13px; font-weight: bold; font-family: verdana, sans-serif; fill: #ffffff; text-shadow: rgb(0, 0, 0) 0px 0px 6px, rgb(0, 0, 0) 0px 0px 3px; text-rendering: geometricprecision;" text-anchor="end"><tspan>8.9</tspan></text><text x="455.3" y="177.5" r="0" padding="5"  transform="translate(0,0) rotate(-90 455.3 177.5)" style="color: rgb(255, 255, 255); font-size: 13px; font-weight: bold; font-family: verdana, sans-serif; fill: #ffffff; text-shadow: rgb(0, 0, 0) 0px 0px 6px, rgb(0, 0, 0) 0px 0px 3px; text-rendering: geometricprecision;" text-anchor="end"><tspan>8.9</tspan></text><text x="481.3" y="177.5" r="0" padding="5"  transform="translate(0,0) rotate(-90 481.3 177.5)" style="color: rgb(255, 255, 255); font-size: 13px; font-weight: bold; font-family: verdana, sans-serif; fill: #ffffff; text-shadow: rgb(0, 0, 0) 0px 0px 6px, rgb(0, 0, 0) 0px 0px 3px; text-rendering: geometricprecision;" text-anchor="end"><tspan>8.9</tspan></text><text x="507.3" y="177.5" r="0" padding="5"  transform="translate(0,0) rotate(-90 507.3 177.5)" style="color: rgb(255, 255, 255); font-size: 13px; font-weight: bold; font-family: verdana, sans-serif; fill: #ffffff; text-shadow: rgb(0, 0, 0) 0px 0px 6px, rgb(0, 0, 0) 0px 0px 3px; text-rendering: geometricprecision;" text-anchor="end"><tspan>8.9</tspan></text></g><g class="highcharts-axis-labels highcharts-xaxis-labels" ><text x="73.9" style="color:#6e6e70;cursor:default;font-size:13px;font-family:verdana, sans-serif;fill:#6e6e70;width:400px;text-overflow:ellipsis;" text-anchor="end" transform="translate(0,0) rotate(-45 73.9 330)" y="330" opacity="1"><tspan>Shanghai</tspan></text><text x="99.7" style="color:#6e6e70;cursor:default;font-size:13px;font-family:verdana, sans-serif;fill:#6e6e70;width:400px;text-overflow:ellipsis;" text-anchor="end" transform="translate(0,0) rotate(-45 99.7 330)" y="330" opacity="1"><tspan>Lagos</tspan></text><text x="125.5" style="color:#6e6e70;cursor:default;font-size:13px;font-family:verdana, sans-serif;fill:#6e6e70;width:400px;text-overflow:ellipsis;" text-anchor="end" transform="translate(0,0) rotate(-45 125.5 330)" y="330" opacity="1"><tspan>Instanbul</tspan></text><text x="151.3" style="color:#6e6e70;cursor:default;font-size:13px;font-family:verdana, sans-serif;fill:#6e6e70;width:400px;text-overflow:ellipsis;" text-anchor="end" transform="translate(0,0) rotate(-45 151.3 330)" y="330" opacity="1"><tspan>Karachi</tspan></text><text x="177.1" style="color:#6e6e70;cursor:default;font-size:13px;font-family:verdana, sans-serif;fill:#6e6e70;width:400px;text-overflow:ellipsis;" text-anchor="end" transform="translate(0,0) rotate(-45 177.1 330)" y="330" opacity="1"><tspan>Mumbai</tspan></text><text x="202.9" style="color:#6e6e70;cursor:default;font-size:13px;font-family:verdana, sans-serif;fill:#6e6e70;width:400px;text-overflow:ellipsis;" text-anchor="end" transform="translate(0,0) rotate(-45 202.9 330)" y="330" opacity="1"><tspan>Moscow</tspan></text><text x="228.7" style="color:#6e6e70;cursor:default;font-size:13px;font-family:verdana, sans-serif;fill:#6e6e70;width:400px;text-overflow:ellipsis;" text-anchor="end" transform="translate(0,0) rotate(-45 228.7 330)" y="330" opacity="1"><tspan>São Paulo</tspan></text><text x="254.5" style="color:#6e6e70;cursor:default;font-size:13px;font-family:verdana, sans-serif;fill:#6e6e70;width:400px;text-overflow:ellipsis;" text-anchor="end" transform="translate(0,0) rotate(-45 254.5 330)" y="330" opacity="1"><tspan>Beijing</tspan></text><text x="280.3" style="color:#6e6e70;cursor:default;font-size:13px;font-family:verdana, sans-serif;fill:#6e6e70;width:400px;text-overflow:ellipsis;" text-anchor="end" transform="translate(0,0) rotate(-45 280.3 330)" y="330" opacity="1"><tspan>Guangzhou</tspan></text><text x="306.1" style="color:#6e6e70;cursor:default;font-size:13px;font-family:verdana, sans-serif;fill:#6e6e70;width:400px;text-overflow:ellipsis;" text-anchor="end" transform="translate(0,0) rotate(-45 306.1 330)" y="330" opacity="1"><tspan>Delhi</tspan></text><text x="331.9" style="color:#6e6e70;cursor:default;font-size:13px;font-family:verdana, sans-serif;fill:#6e6e70;width:400px;text-overflow:ellipsis;" text-anchor="end" transform="translate(0,0) rotate(-45 331.9 330)" y="330" opacity="1"><tspan>Shenzhen</tspan></text><text x="357.7" style="color:#6e6e70;cursor:default;font-size:13px;font-family:verdana, sans-serif;fill:#6e6e70;width:400px;text-overflow:ellipsis;" text-anchor="end" transform="translate(0,0) rotate(-45 357.7 330)" y="330" opacity="1"><tspan>Seoul</tspan></text><text x="383.5" style="color:#6e6e70;cursor:default;font-size:13px;font-family:verdana, sans-serif;fill:#6e6e70;width:400px;text-overflow:ellipsis;" text-anchor="end" transform="translate(0,0) rotate(-45 383.5 330)" y="330" opacity="1"><tspan>Jakarta</tspan></text><text x="409.3" style="color:#6e6e70;cursor:default;font-size:13px;font-family:verdana, sans-serif;fill:#6e6e70;width:400px;text-overflow:ellipsis;" text-anchor="end" transform="translate(0,0) rotate(-45 409.3 330)" y="330" opacity="1"><tspan>Kinshasa</tspan></text><text x="435.1" style="color:#6e6e70;cursor:default;font-size:13px;font-family:verdana, sans-serif;fill:#6e6e70;width:400px;text-overflow:ellipsis;" text-anchor="end" transform="translate(0,0) rotate(-45 435.1 330)" y="330" opacity="1"><tspan>Tianjin</tspan></text><text x="460.9" style="color:#6e6e70;cursor:default;font-size:13px;font-family:verdana, sans-serif;fill:#6e6e70;width:400px;text-overflow:ellipsis;" text-anchor="end" transform="translate(0,0) rotate(-45 460.9 330)" y="330" opacity="1"><tspan>Tokyo</tspan></text><text x="486.7" style="color:#6e6e70;cursor:default;font-size:13px;font-family:verdana, sans-serif;fill:#6e6e70;width:400px;text-overflow:ellipsis;" text-anchor="end" transform="translate(0,0) rotate(-45 486.7 330)" y="330" opacity="1"><tspan>Cairo</tspan></text><text x="512.5" style="color:#6e6e70;cursor:default;font-size:13px;font-family:verdana, sans-serif;fill:#6e6e70;width:400px;text-overflow:ellipsis;" text-anchor="end" transform="translate(0,0) rotate(-45 512.5 330)" y="330" opacity="1"><tspan>Dhaka</tspan></text><text x="538.3" style="color:#6e6e70;cursor:default;font-size:13px;font-family:verdana, sans-serif;fill:#6e6e70;width:400px;text-overflow:ellipsis;" text-anchor="end" transform="translate(0,0) rotate(-45 538.3 330)" y="330" opacity="1"><tspan>Mexico City</tspan></text><text x="564.1" style="color:#6e6e70;cursor:default;font-size:13px;font-family:verdana, sans-serif;fill:#6e6e70;width:400px;text-overflow:ellipsis;" text-anchor="end" transform="translate(0,0) rotate(-45 564.1 330)" y="330" opacity="1"><tspan>Lima</tspan></text></g><g class="highcharts-axis-labels highcharts-yaxis-labels" ><text x="43" style="color:#6e6e70;cursor:default;font-size:11px;fill:#6e6e70;width:183px;text-overflow:clip;" text-anchor="end" transform="translate(0,0)" y="319" opacity="1">0</text><text x="43" style="color:#6e6e70;cursor:default;font-size:11px;fill:#6e6e70;width:183px;text-overflow:clip;" text-anchor="end" transform="translate(0,0)" y="267" opacity="1">5</text><text x="43" style="color:#6e6e70;cursor:default;font-size:11px;fill:#6e6e70;width:183px;text-overflow:clip;" text-anchor="end" transform="translate(0,0)" y="215" opacity="1">10</text><text x="43" style="color:#6e6e70;cursor:default;font-size:11px;fill:#6e6e70;width:183px;text-overflow:clip;" text-anchor="end" transform="translate(0,0)" y="163" opacity="1">15</text><text x="43" style="color:#6e6e70;cursor:default;font-size:11px;fill:#6e6e70;width:183px;text-overflow:clip;" text-anchor="end" transform="translate(0,0)" y="111" opacity="1">20</text><text x="43" style="color:#6e6e70;cursor:default;font-size:11px;fill:#6e6e70;width:183px;text-overflow:clip;" text-anchor="end" transform="translate(0,0)" y="59" opacity="1">25</text></g><g class="highcharts-tooltip"  style="cursor:default;padding:0;white-space:nowrap;" transform="translate(0,-9999)"><path fill="none" d="M 3 0 L 13 0 C 16 0 16 0 16 3 L 16 13 C 16 16 16 16 13 16 L 3 16 C 0 16 0 16 0 13 L 0 3 C 0 0 0 0 3 0"  stroke="black" stroke-opacity="0.0" stroke-width="5" transform="translate(1, 1)"></path><path fill="none" d="M 3 0 L 13 0 C 16 0 16 0 16 3 L 16 13 C 16 16 16 16 13 16 L 3 16 C 0 16 0 16 0 13 L 0 3 C 0 0 0 0 3 0"  stroke="black" stroke-opacity="0.0" stroke-width="3" transform="translate(1, 1)"></path><path fill="none" d="M 3 0 L 13 0 C 16 0 16 0 16 3 L 16 13 C 16 16 16 16 13 16 L 3 16 C 0 16 0 16 0 13 L 0 3 C 0 0 0 0 3 0"  stroke="black" stroke-opacity="0.1" stroke-width="1" transform="translate(1, 1)"></path><path fill="rgb(249, 249, 249)" fill-opacity=" .85" d="M 3 0 L 13 0 C 16 0 16 0 16 3 L 16 13 C 16 16 16 16 13 16 L 3 16 C 0 16 0 16 0 13 L 0 3 C 0 0 0 0 3 0"></path><text x="8"  style="font-size:12px;color:#333333;fill:#333333;" y="20"></text></g></svg>