<svg version="1.1" style="font-family: signika, serif; font-size: 12px; background-image: url(http://www.highcharts.com/samples/graphics/sand.png); background-position: initial initial; background-repeat: initial initial;" xmlns="http://www.w3.org/2000/svg" width="584" height="400" viewBox="0 0 584 400" xmlns:xlink="http://www.w3.org/1999/xlink"><style type="text/css"><![CDATA[@import url(http://fonts.googleapis.com/css?family=Signika:700);]]></style><desc>Created with Highcharts 4.1.7</desc><defs><clipPath id="highcharts-1"><rect x="0" y="0" width="508" height="325"></rect></clipPath></defs><g class="highcharts-grid" ></g><g class="highcharts-grid" ><path fill="none" d="M 66 366.5 L 574 366.5" stroke="#D8D8D8" stroke-width="1"  opacity="1"></path><path fill="none" d="M 66 301.5 L 574 301.5" stroke="#D8D8D8" stroke-width="1"  opacity="1"></path><path fill="none" d="M 66 236.5 L 574 236.5" stroke="#D8D8D8" stroke-width="1"  opacity="1"></path><path fill="none" d="M 66 171.5 L 574 171.5" stroke="#D8D8D8" stroke-width="1"  opacity="1"></path><path fill="none" d="M 66 106.5 L 574 106.5" stroke="#D8D8D8" stroke-width="1"  opacity="1"></path><path fill="none" d="M 66 40.5 L 574 40.5" stroke="#D8D8D8" stroke-width="1"  opacity="1"></path></g><g class="highcharts-axis" ><path fill="none" d="M 167.5 366 L 167.5 376" stroke="#C0D0E0" stroke-width="1" opacity="1"></path><path fill="none" d="M 268.5 366 L 268.5 376" stroke="#C0D0E0" stroke-width="1" opacity="1"></path><path fill="none" d="M 370.5 366 L 370.5 376" stroke="#C0D0E0" stroke-width="1" opacity="1"></path><path fill="none" d="M 471.5 366 L 471.5 376" stroke="#C0D0E0" stroke-width="1" opacity="1"></path><path fill="none" d="M 574.5 366 L 574.5 376" stroke="#C0D0E0" stroke-width="1" opacity="1"></path><path fill="none" d="M 65.5 366 L 65.5 376" stroke="#C0D0E0" stroke-width="1" opacity="1"></path><path fill="none" d="M 66 366.5 L 574 366.5" stroke="#C0D0E0" stroke-width="1"  visibility="visible"></path></g><g class="highcharts-axis" ><text x="21.7"  text-anchor="middle" transform="translate(0,0) rotate(270 21.7 203.5)" class=" highcharts-yaxis-title" style="color:#707070;fill:#707070;" visibility="visible" y="203.5"><tspan>Total fruit consumption</tspan></text></g><g class="highcharts-series-group" ><g class="highcharts-series highcharts-tracker" visibility="visible"  transform="translate(66,41) scale(1 1)" style="" clip-path="url(#highcharts-1)"><rect x="25.5" y="65.5" width="49" height="125" stroke="black" stroke-width="5" fill="none" rx="0" ry="0"  stroke-opacity="0.0" transform="translate(1, 1)"></rect><rect x="25.5" y="65.5" width="49" height="127" stroke="black" stroke-width="3" fill="none" rx="0" ry="0"  stroke-opacity="0.0" transform="translate(1, 1)"></rect><rect x="25.5" y="65.5" width="49" height="129" stroke="black" stroke-width="1" fill="none" rx="0" ry="0"  stroke-opacity="0.1" transform="translate(1, 1)"></rect><rect x="25.5" y="65.5" width="49" height="130" stroke="#FFFFFF" stroke-width="1" fill="#f45b5b" rx="0" ry="0"></rect><rect x="127.5" y="91.5" width="49" height="73" stroke="black" stroke-width="5" fill="none" rx="0" ry="0"  stroke-opacity="0.0" transform="translate(1, 1)"></rect><rect x="127.5" y="91.5" width="49" height="75" stroke="black" stroke-width="3" fill="none" rx="0" ry="0"  stroke-opacity="0.0" transform="translate(1, 1)"></rect><rect x="127.5" y="91.5" width="49" height="77" stroke="black" stroke-width="1" fill="none" rx="0" ry="0"  stroke-opacity="0.1" transform="translate(1, 1)"></rect><rect x="127.5" y="91.5" width="49" height="78" stroke="#FFFFFF" stroke-width="1" fill="#f45b5b" rx="0" ry="0"></rect><rect x="229.5" y="39.5" width="49" height="99" stroke="black" stroke-width="5" fill="none" rx="0" ry="0"  stroke-opacity="0.0" transform="translate(1, 1)"></rect><rect x="229.5" y="39.5" width="49" height="101" stroke="black" stroke-width="3" fill="none" rx="0" ry="0"  stroke-opacity="0.0" transform="translate(1, 1)"></rect><rect x="229.5" y="39.5" width="49" height="103" stroke="black" stroke-width="1" fill="none" rx="0" ry="0"  stroke-opacity="0.1" transform="translate(1, 1)"></rect><rect x="229.5" y="39.5" width="49" height="104" stroke="#FFFFFF" stroke-width="1" fill="#f45b5b" rx="0" ry="0"></rect><rect x="330.5" y="39.5" width="49" height="177" stroke="black" stroke-width="5" fill="none" rx="0" ry="0"  stroke-opacity="0.0" transform="translate(1, 1)"></rect><rect x="330.5" y="39.5" width="49" height="179" stroke="black" stroke-width="3" fill="none" rx="0" ry="0"  stroke-opacity="0.0" transform="translate(1, 1)"></rect><rect x="330.5" y="39.5" width="49" height="181" stroke="black" stroke-width="1" fill="none" rx="0" ry="0"  stroke-opacity="0.1" transform="translate(1, 1)"></rect><rect x="330.5" y="39.5" width="49" height="182" stroke="#FFFFFF" stroke-width="1" fill="#f45b5b" rx="0" ry="0"></rect><rect x="432.5" y="117.5" width="49" height="47" stroke="black" stroke-width="5" fill="none" rx="0" ry="0"  stroke-opacity="0.0" transform="translate(1, 1)"></rect><rect x="432.5" y="117.5" width="49" height="49" stroke="black" stroke-width="3" fill="none" rx="0" ry="0"  stroke-opacity="0.0" transform="translate(1, 1)"></rect><rect x="432.5" y="117.5" width="49" height="51" stroke="black" stroke-width="1" fill="none" rx="0" ry="0"  stroke-opacity="0.1" transform="translate(1, 1)"></rect><rect x="432.5" y="117.5" width="49" height="52" stroke="#FFFFFF" stroke-width="1" fill="#f45b5b" rx="0" ry="0"></rect></g><g class="highcharts-markers" visibility="visible"  transform="translate(66,41) scale(1 1)"></g><g class="highcharts-series highcharts-tracker" visibility="visible"  transform="translate(66,41) scale(1 1)" style="" clip-path="url(#highcharts-1)"><rect x="25.5" y="195.5" width="49" height="47" stroke="black" stroke-width="5" fill="none" rx="0" ry="0"  stroke-opacity="0.0" transform="translate(1, 1)"></rect><rect x="25.5" y="195.5" width="49" height="49" stroke="black" stroke-width="3" fill="none" rx="0" ry="0"  stroke-opacity="0.0" transform="translate(1, 1)"></rect><rect x="25.5" y="195.5" width="49" height="51" stroke="black" stroke-width="1" fill="none" rx="0" ry="0"  stroke-opacity="0.1" transform="translate(1, 1)"></rect><rect x="25.5" y="195.5" width="49" height="52" stroke="#FFFFFF" stroke-width="1" fill="#8085e9" rx="0" ry="0"></rect><rect x="127.5" y="169.5" width="49" height="47" stroke="black" stroke-width="5" fill="none" rx="0" ry="0"  stroke-opacity="0.0" transform="translate(1, 1)"></rect><rect x="127.5" y="169.5" width="49" height="49" stroke="black" stroke-width="3" fill="none" rx="0" ry="0"  stroke-opacity="0.0" transform="translate(1, 1)"></rect><rect x="127.5" y="169.5" width="49" height="51" stroke="black" stroke-width="1" fill="none" rx="0" ry="0"  stroke-opacity="0.1" transform="translate(1, 1)"></rect><rect x="127.5" y="169.5" width="49" height="52" stroke="#FFFFFF" stroke-width="1" fill="#8085e9" rx="0" ry="0"></rect><rect x="229.5" y="143.5" width="49" height="73" stroke="black" stroke-width="5" fill="none" rx="0" ry="0"  stroke-opacity="0.0" transform="translate(1, 1)"></rect><rect x="229.5" y="143.5" width="49" height="75" stroke="black" stroke-width="3" fill="none" rx="0" ry="0"  stroke-opacity="0.0" transform="translate(1, 1)"></rect><rect x="229.5" y="143.5" width="49" height="77" stroke="black" stroke-width="1" fill="none" rx="0" ry="0"  stroke-opacity="0.1" transform="translate(1, 1)"></rect><rect x="229.5" y="143.5" width="49" height="78" stroke="#FFFFFF" stroke-width="1" fill="#8085e9" rx="0" ry="0"></rect><rect x="330.5" y="221.5" width="49" height="47" stroke="black" stroke-width="5" fill="none" rx="0" ry="0"  stroke-opacity="0.0" transform="translate(1, 1)"></rect><rect x="330.5" y="221.5" width="49" height="49" stroke="black" stroke-width="3" fill="none" rx="0" ry="0"  stroke-opacity="0.0" transform="translate(1, 1)"></rect><rect x="330.5" y="221.5" width="49" height="51" stroke="black" stroke-width="1" fill="none" rx="0" ry="0"  stroke-opacity="0.1" transform="translate(1, 1)"></rect><rect x="330.5" y="221.5" width="49" height="52" stroke="#FFFFFF" stroke-width="1" fill="#8085e9" rx="0" ry="0"></rect><rect x="432.5" y="169.5" width="49" height="21" stroke="black" stroke-width="5" fill="none" rx="0" ry="0"  stroke-opacity="0.0" transform="translate(1, 1)"></rect><rect x="432.5" y="169.5" width="49" height="23" stroke="black" stroke-width="3" fill="none" rx="0" ry="0"  stroke-opacity="0.0" transform="translate(1, 1)"></rect><rect x="432.5" y="169.5" width="49" height="25" stroke="black" stroke-width="1" fill="none" rx="0" ry="0"  stroke-opacity="0.1" transform="translate(1, 1)"></rect><rect x="432.5" y="169.5" width="49" height="26" stroke="#FFFFFF" stroke-width="1" fill="#8085e9" rx="0" ry="0"></rect></g><g class="highcharts-markers" visibility="visible"  transform="translate(66,41) scale(1 1)"></g><g class="highcharts-series highcharts-tracker" visibility="visible"  transform="translate(66,41) scale(1 1)" style="" clip-path="url(#highcharts-1)"><rect x="25.5" y="247.5" width="49" height="73" stroke="black" stroke-width="5" fill="none" rx="0" ry="0"  stroke-opacity="0.0" transform="translate(1, 1)"></rect><rect x="25.5" y="247.5" width="49" height="75" stroke="black" stroke-width="3" fill="none" rx="0" ry="0"  stroke-opacity="0.0" transform="translate(1, 1)"></rect><rect x="25.5" y="247.5" width="49" height="77" stroke="black" stroke-width="1" fill="none" rx="0" ry="0"  stroke-opacity="0.1" transform="translate(1, 1)"></rect><rect x="25.5" y="247.5" width="49" height="78" stroke="#FFFFFF" stroke-width="1" fill="#8d4654" rx="0" ry="0"></rect><rect x="127.5" y="221.5" width="49" height="99" stroke="black" stroke-width="5" fill="none" rx="0" ry="0"  stroke-opacity="0.0" transform="translate(1, 1)"></rect><rect x="127.5" y="221.5" width="49" height="101" stroke="black" stroke-width="3" fill="none" rx="0" ry="0"  stroke-opacity="0.0" transform="translate(1, 1)"></rect><rect x="127.5" y="221.5" width="49" height="103" stroke="black" stroke-width="1" fill="none" rx="0" ry="0"  stroke-opacity="0.1" transform="translate(1, 1)"></rect><rect x="127.5" y="221.5" width="49" height="104" stroke="#FFFFFF" stroke-width="1" fill="#8d4654" rx="0" ry="0"></rect><rect x="229.5" y="221.5" width="49" height="99" stroke="black" stroke-width="5" fill="none" rx="0" ry="0"  stroke-opacity="0.0" transform="translate(1, 1)"></rect><rect x="229.5" y="221.5" width="49" height="101" stroke="black" stroke-width="3" fill="none" rx="0" ry="0"  stroke-opacity="0.0" transform="translate(1, 1)"></rect><rect x="229.5" y="221.5" width="49" height="103" stroke="black" stroke-width="1" fill="none" rx="0" ry="0"  stroke-opacity="0.1" transform="translate(1, 1)"></rect><rect x="229.5" y="221.5" width="49" height="104" stroke="#FFFFFF" stroke-width="1" fill="#8d4654" rx="0" ry="0"></rect><rect x="330.5" y="273.5" width="49" height="47" stroke="black" stroke-width="5" fill="none" rx="0" ry="0"  stroke-opacity="0.0" transform="translate(1, 1)"></rect><rect x="330.5" y="273.5" width="49" height="49" stroke="black" stroke-width="3" fill="none" rx="0" ry="0"  stroke-opacity="0.0" transform="translate(1, 1)"></rect><rect x="330.5" y="273.5" width="49" height="51" stroke="black" stroke-width="1" fill="none" rx="0" ry="0"  stroke-opacity="0.1" transform="translate(1, 1)"></rect><rect x="330.5" y="273.5" width="49" height="52" stroke="#FFFFFF" stroke-width="1" fill="#8d4654" rx="0" ry="0"></rect><rect x="432.5" y="195.5" width="49" height="125" stroke="black" stroke-width="5" fill="none" rx="0" ry="0"  stroke-opacity="0.0" transform="translate(1, 1)"></rect><rect x="432.5" y="195.5" width="49" height="127" stroke="black" stroke-width="3" fill="none" rx="0" ry="0"  stroke-opacity="0.0" transform="translate(1, 1)"></rect><rect x="432.5" y="195.5" width="49" height="129" stroke="black" stroke-width="1" fill="none" rx="0" ry="0"  stroke-opacity="0.1" transform="translate(1, 1)"></rect><rect x="432.5" y="195.5" width="49" height="130" stroke="#FFFFFF" stroke-width="1" fill="#8d4654" rx="0" ry="0"></rect></g><g class="highcharts-markers" visibility="visible"  transform="translate(66,41) scale(1 1)"></g></g><text x="292" text-anchor="middle" class="highcharts-title"  style="color:black;font-size:16px;font-weight:bold;fill:black;width:520px;" y="22"><tspan>Stacked column chart</tspan></text><g class="highcharts-stack-labels" visibility="visible"  transform="translate(66,41)"><text x="51" style="color: gray; font-size: 11px; font-weight: bold; fill: #808080; text-shadow: rgb(255, 255, 255) 0px 0px 6px, rgb(255, 255, 255) 0px 0px 3px; text-rendering: geometricprecision;" text-anchor="middle" transform="translate(0,0)" y="59"><tspan>10</tspan></text><text x="152" style="color: gray; font-size: 11px; font-weight: bold; fill: #808080; text-shadow: rgb(255, 255, 255) 0px 0px 6px, rgb(255, 255, 255) 0px 0px 3px; text-rendering: geometricprecision;" text-anchor="middle" transform="translate(0,0)" y="85"><tspan>9</tspan></text><text x="254" style="color: gray; font-size: 11px; font-weight: bold; fill: #808080; text-shadow: rgb(255, 255, 255) 0px 0px 6px, rgb(255, 255, 255) 0px 0px 3px; text-rendering: geometricprecision;" text-anchor="middle" transform="translate(0,0)" y="33"><tspan>11</tspan></text><text x="356" style="color: gray; font-size: 11px; font-weight: bold; fill: #808080; text-shadow: rgb(255, 255, 255) 0px 0px 6px, rgb(255, 255, 255) 0px 0px 3px; text-rendering: geometricprecision;" text-anchor="middle" transform="translate(0,0)" y="33"><tspan>11</tspan></text><text x="457" style="color: gray; font-size: 11px; font-weight: bold; fill: #808080; text-shadow: rgb(255, 255, 255) 0px 0px 6px, rgb(255, 255, 255) 0px 0px 3px; text-rendering: geometricprecision;" text-anchor="middle" transform="translate(0,0)" y="111"><tspan>8</tspan></text></g><g class="highcharts-data-labels highcharts-tracker" visibility="visible"  transform="translate(66,41) scale(1 1)" style=""><g  style="" transform="translate(42,120)"><text x="5"  style="font-size: 11px; font-weight: bold; color: white; text-shadow: black 0px 0px 3px; fill: #ffffff; text-rendering: geometricprecision;" y="16"><tspan>5</tspan></text></g><g  style="" transform="translate(144,120)"><text x="5"  style="font-size: 11px; font-weight: bold; color: white; text-shadow: black 0px 0px 3px; fill: #ffffff; text-rendering: geometricprecision;" y="16"><tspan>3</tspan></text></g><g  style="" transform="translate(246,81)"><text x="5"  style="font-size: 11px; font-weight: bold; color: white; text-shadow: black 0px 0px 3px; fill: #ffffff; text-rendering: geometricprecision;" y="16"><tspan>4</tspan></text></g><g  style="" transform="translate(347,120)"><text x="5"  style="font-size: 11px; font-weight: bold; color: white; text-shadow: black 0px 0px 3px; fill: #ffffff; text-rendering: geometricprecision;" y="16"><tspan>7</tspan></text></g><g  style="" transform="translate(449,133)"><text x="5"  style="font-size: 11px; font-weight: bold; color: white; text-shadow: black 0px 0px 3px; fill: #ffffff; text-rendering: geometricprecision;" y="16"><tspan>2</tspan></text></g></g><g class="highcharts-data-labels highcharts-tracker" visibility="visible"  transform="translate(66,41) scale(1 1)" style=""><g  style="" transform="translate(42,211)"><text x="5"  style="font-size: 11px; font-weight: bold; color: white; text-shadow: black 0px 0px 3px; fill: #ffffff; text-rendering: geometricprecision;" y="16"><tspan>2</tspan></text></g><g  style="" transform="translate(144,185)"><text x="5"  style="font-size: 11px; font-weight: bold; color: white; text-shadow: black 0px 0px 3px; fill: #ffffff; text-rendering: geometricprecision;" y="16"><tspan>2</tspan></text></g><g  style="" transform="translate(246,172)"><text x="5"  style="font-size: 11px; font-weight: bold; color: white; text-shadow: black 0px 0px 3px; fill: #ffffff; text-rendering: geometricprecision;" y="16"><tspan>3</tspan></text></g><g  style="" transform="translate(347,237)"><text x="5"  style="font-size: 11px; font-weight: bold; color: white; text-shadow: black 0px 0px 3px; fill: #ffffff; text-rendering: geometricprecision;" y="16"><tspan>2</tspan></text></g><g  style="" transform="translate(449,172)"><text x="5"  style="font-size: 11px; font-weight: bold; color: white; text-shadow: black 0px 0px 3px; fill: #ffffff; text-rendering: geometricprecision;" y="16"><tspan>1</tspan></text></g></g><g class="highcharts-data-labels highcharts-tracker" visibility="visible"  transform="translate(66,41) scale(1 1)" style=""><g  style="" transform="translate(42,276)"><text x="5"  style="font-size: 11px; font-weight: bold; color: white; text-shadow: black 0px 0px 3px; fill: #ffffff; text-rendering: geometricprecision;" y="16"><tspan>3</tspan></text></g><g  style="" transform="translate(144,263)"><text x="5"  style="font-size: 11px; font-weight: bold; color: white; text-shadow: black 0px 0px 3px; fill: #ffffff; text-rendering: geometricprecision;" y="16"><tspan>4</tspan></text></g><g  style="" transform="translate(246,263)"><text x="5"  style="font-size: 11px; font-weight: bold; color: white; text-shadow: black 0px 0px 3px; fill: #ffffff; text-rendering: geometricprecision;" y="16"><tspan>4</tspan></text></g><g  style="" transform="translate(347,289)"><text x="5"  style="font-size: 11px; font-weight: bold; color: white; text-shadow: black 0px 0px 3px; fill: #ffffff; text-rendering: geometricprecision;" y="16"><tspan>2</tspan></text></g><g  style="" transform="translate(449,250)"><text x="5"  style="font-size: 11px; font-weight: bold; color: white; text-shadow: black 0px 0px 3px; fill: #ffffff; text-rendering: geometricprecision;" y="16"><tspan>5</tspan></text></g></g><g class="highcharts-legend"  transform="translate(353,35)"><rect x="0.5" y="0.5" width="190" height="23" strokeWidth="1" stroke="#CCC" stroke-width="1" fill="#E0E0E8" visibility="visible"></rect><g ><g><g class="highcharts-legend-item"  transform="translate(8,3)"><text x="21" style="color:#333333;font-size:13px;font-weight:bold;cursor:pointer;fill:#333333;" text-anchor="start"  y="16">John</text><rect x="0" y="4" width="16" height="13"  fill="#f45b5b"></rect></g><g class="highcharts-legend-item"  transform="translate(76.4,3)"><text x="21" y="16" style="color:#333333;font-size:13px;font-weight:bold;cursor:pointer;fill:#333333;" text-anchor="start" >Jane</text><rect x="0" y="4" width="16" height="13"  fill="#8085e9"></rect></g><g class="highcharts-legend-item"  transform="translate(143.4,3)"><text x="21" y="16" style="color:#333333;font-size:13px;font-weight:bold;cursor:pointer;fill:#333333;" text-anchor="start" >Joe</text><rect x="0" y="4" width="16" height="13"  fill="#8d4654"></rect></g></g></g></g><g class="highcharts-axis-labels highcharts-xaxis-labels" ><text x="116.8" style="color:#6e6e70;cursor:default;font-size:11px;fill:#6e6e70;width:92px;text-overflow:clip;" text-anchor="middle" transform="translate(0,0)" y="385" opacity="1">Apples</text><text x="218.3" style="color:#6e6e70;cursor:default;font-size:11px;fill:#6e6e70;width:92px;text-overflow:clip;" text-anchor="middle" transform="translate(0,0)" y="385" opacity="1">Oranges</text><text x="320" style="color:#6e6e70;cursor:default;font-size:11px;fill:#6e6e70;width:92px;text-overflow:clip;" text-anchor="middle" transform="translate(0,0)" y="385" opacity="1">Pears</text><text x="421.5" style="color:#6e6e70;cursor:default;font-size:11px;fill:#6e6e70;width:92px;text-overflow:clip;" text-anchor="middle" transform="translate(0,0)" y="385" opacity="1">Grapes</text><text x="523.2" style="color:#6e6e70;cursor:default;font-size:11px;fill:#6e6e70;width:92px;text-overflow:clip;" text-anchor="middle" transform="translate(0,0)" y="385" opacity="1">Bananas</text></g><g class="highcharts-axis-labels highcharts-yaxis-labels" ><text x="51" style="color:#6e6e70;cursor:default;font-size:11px;fill:#6e6e70;width:183px;text-overflow:clip;" text-anchor="end" transform="translate(0,0)" y="372" opacity="1">0</text><text x="51" style="color:#6e6e70;cursor:default;font-size:11px;fill:#6e6e70;width:183px;text-overflow:clip;" text-anchor="end" transform="translate(0,0)" y="307" opacity="1">2.5</text><text x="51" style="color:#6e6e70;cursor:default;font-size:11px;fill:#6e6e70;width:183px;text-overflow:clip;" text-anchor="end" transform="translate(0,0)" y="242" opacity="1">5</text><text x="51" style="color:#6e6e70;cursor:default;font-size:11px;fill:#6e6e70;width:183px;text-overflow:clip;" text-anchor="end" transform="translate(0,0)" y="177" opacity="1">7.5</text><text x="51" style="color:#6e6e70;cursor:default;font-size:11px;fill:#6e6e70;width:183px;text-overflow:clip;" text-anchor="end" transform="translate(0,0)" y="112" opacity="1">10</text><text x="51" style="color:#6e6e70;cursor:default;font-size:11px;fill:#6e6e70;width:183px;text-overflow:clip;" text-anchor="end" transform="translate(0,0)" y="47" opacity="1">12.5</text></g><g class="highcharts-tooltip"  style="cursor:default;padding:0;white-space:nowrap;" transform="translate(0,-9999)"><path fill="none" d="M 3 0 L 13 0 C 16 0 16 0 16 3 L 16 13 C 16 16 16 16 13 16 L 3 16 C 0 16 0 16 0 13 L 0 3 C 0 0 0 0 3 0"  stroke="black" stroke-opacity="0.0" stroke-width="5" transform="translate(1, 1)"></path><path fill="none" d="M 3 0 L 13 0 C 16 0 16 0 16 3 L 16 13 C 16 16 16 16 13 16 L 3 16 C 0 16 0 16 0 13 L 0 3 C 0 0 0 0 3 0"  stroke="black" stroke-opacity="0.0" stroke-width="3" transform="translate(1, 1)"></path><path fill="none" d="M 3 0 L 13 0 C 16 0 16 0 16 3 L 16 13 C 16 16 16 16 13 16 L 3 16 C 0 16 0 16 0 13 L 0 3 C 0 0 0 0 3 0"  stroke="black" stroke-opacity="0.1" stroke-width="1" transform="translate(1, 1)"></path><path fill="rgb(249, 249, 249)" fill-opacity=" .85" d="M 3 0 L 13 0 C 16 0 16 0 16 3 L 16 13 C 16 16 16 16 13 16 L 3 16 C 0 16 0 16 0 13 L 0 3 C 0 0 0 0 3 0"></path><text x="8"  style="font-size:12px;color:#333333;fill:#333333;" y="20"></text></g></svg>