<svg version="1.1" style="font-family: signika, serif; font-size: 12px; background-image: url(http://www.highcharts.com/samples/graphics/sand.png); background-position: initial initial; background-repeat: initial initial;" xmlns="http://www.w3.org/2000/svg" width="584" height="400" viewBox="0 0 584 400" xmlns:xlink="http://www.w3.org/1999/xlink"><style type="text/css"><![CDATA[@import url(http://fonts.googleapis.com/css?family=Signika:700);]]></style><desc>Created with Highcharts 4.1.7</desc><defs><clipPath id="highcharts-1"><rect x="0" y="0" width="457" height="289"></rect></clipPath></defs><g class="highcharts-grid" ></g><g class="highcharts-grid" ><path fill="none" d="M 64 330.5 L 521 330.5" stroke="#D8D8D8" stroke-width="1"  opacity="1"></path><path fill="none" d="M 64 272.5 L 521 272.5" stroke="#D8D8D8" stroke-width="1"  opacity="1"></path><path fill="none" d="M 64 214.5 L 521 214.5" stroke="#D8D8D8" stroke-width="1"  opacity="1"></path><path fill="none" d="M 64 157.5 L 521 157.5" stroke="#D8D8D8" stroke-width="1"  opacity="1"></path><path fill="none" d="M 64 99.5 L 521 99.5" stroke="#D8D8D8" stroke-width="1"  opacity="1"></path><path fill="none" d="M 64 40.5 L 521 40.5" stroke="#D8D8D8" stroke-width="1"  opacity="1"></path></g><g class="highcharts-grid" ><path fill="none" d="M 64 330.5 L 521 330.5" stroke="#D8D8D8" stroke-width="1"  opacity="1"></path><path fill="none" d="M 64 272.5 L 521 272.5" stroke="#D8D8D8" stroke-width="1"  opacity="1"></path><path fill="none" d="M 64 214.5 L 521 214.5" stroke="#D8D8D8" stroke-width="1"  opacity="1"></path><path fill="none" d="M 64 157.5 L 521 157.5" stroke="#D8D8D8" stroke-width="1"  opacity="1"></path><path fill="none" d="M 64 99.5 L 521 99.5" stroke="#D8D8D8" stroke-width="1"  opacity="1"></path><path fill="none" d="M 64 40.5 L 521 40.5" stroke="#D8D8D8" stroke-width="1"  opacity="1"></path></g><g class="highcharts-axis" ><path fill="none" d="M 215.5 330 L 215.5 340" stroke="#C0D0E0" stroke-width="1" opacity="1"></path><path fill="none" d="M 368.5 330 L 368.5 340" stroke="#C0D0E0" stroke-width="1" opacity="1"></path><path fill="none" d="M 521.5 330 L 521.5 340" stroke="#C0D0E0" stroke-width="1" opacity="1"></path><path fill="none" d="M 63.5 330 L 63.5 340" stroke="#C0D0E0" stroke-width="1" opacity="1"></path><path fill="none" d="M 64 330.5 L 521 330.5" stroke="#C0D0E0" stroke-width="1"  visibility="visible"></path></g><g class="highcharts-axis" ><text x="22.5"  text-anchor="middle" transform="translate(0,0) rotate(270 22.5 185.5)" class=" highcharts-yaxis-title" style="color:#707070;fill:#707070;" visibility="visible" y="185.5">Employees</text></g><g class="highcharts-axis" ><text x="562.5"  text-anchor="middle" transform="translate(0,0) rotate(90 562.5 185.5)" class=" highcharts-yaxis-title" style="color:#707070;fill:#707070;" visibility="visible" y="185.5"><tspan>Profit (millions)</tspan></text></g><g class="highcharts-series-group" ><g class="highcharts-series highcharts-tracker" visibility="visible"  transform="translate(64,41) scale(1 1)" style="" clip-path="url(#highcharts-1)"><rect x="27" y="117" width="37" height="173" fill="none" rx="0" ry="0"  stroke="black" stroke-opacity="0.0" stroke-width="5" transform="translate(1, 1)"></rect><rect x="27" y="117" width="37" height="173" fill="none" rx="0" ry="0"  stroke="black" stroke-opacity="0.0" stroke-width="3" transform="translate(1, 1)"></rect><rect x="27" y="117" width="37" height="173" fill="none" rx="0" ry="0"  stroke="black" stroke-opacity="0.1" stroke-width="1" transform="translate(1, 1)"></rect><rect x="27" y="117" width="37" height="173" fill="rgb(165,170,217)" fill-opacity="1" rx="0" ry="0"></rect><rect x="180" y="206" width="37" height="84" fill="none" rx="0" ry="0"  stroke="black" stroke-opacity="0.0" stroke-width="5" transform="translate(1, 1)"></rect><rect x="180" y="206" width="37" height="84" fill="none" rx="0" ry="0"  stroke="black" stroke-opacity="0.0" stroke-width="3" transform="translate(1, 1)"></rect><rect x="180" y="206" width="37" height="84" fill="none" rx="0" ry="0"  stroke="black" stroke-opacity="0.1" stroke-width="1" transform="translate(1, 1)"></rect><rect x="180" y="206" width="37" height="84" fill="rgb(165,170,217)" fill-opacity="1" rx="0" ry="0"></rect><rect x="332" y="267" width="37" height="23" fill="none" rx="0" ry="0"  stroke="black" stroke-opacity="0.0" stroke-width="5" transform="translate(1, 1)"></rect><rect x="332" y="267" width="37" height="23" fill="none" rx="0" ry="0"  stroke="black" stroke-opacity="0.0" stroke-width="3" transform="translate(1, 1)"></rect><rect x="332" y="267" width="37" height="23" fill="none" rx="0" ry="0"  stroke="black" stroke-opacity="0.1" stroke-width="1" transform="translate(1, 1)"></rect><rect x="332" y="267" width="37" height="23" fill="rgb(165,170,217)" fill-opacity="1" rx="0" ry="0"></rect></g><g class="highcharts-markers" visibility="visible"  transform="translate(64,41) scale(1 1)"></g><g class="highcharts-series highcharts-tracker" visibility="visible"  transform="translate(64,41) scale(1 1)" style="" clip-path="url(#highcharts-1)"><rect x="37" y="128" width="19" height="162" fill="none" rx="0" ry="0"  stroke="black" stroke-opacity="0.0" stroke-width="5" transform="translate(1, 1)"></rect><rect x="37" y="128" width="19" height="162" fill="none" rx="0" ry="0"  stroke="black" stroke-opacity="0.0" stroke-width="3" transform="translate(1, 1)"></rect><rect x="37" y="128" width="19" height="162" fill="none" rx="0" ry="0"  stroke="black" stroke-opacity="0.1" stroke-width="1" transform="translate(1, 1)"></rect><rect x="37" y="128" width="19" height="162" fill="rgb(126,86,134)" fill-opacity=".9" rx="0" ry="0"></rect><rect x="189" y="186" width="19" height="104" fill="none" rx="0" ry="0"  stroke="black" stroke-opacity="0.0" stroke-width="5" transform="translate(1, 1)"></rect><rect x="189" y="186" width="19" height="104" fill="none" rx="0" ry="0"  stroke="black" stroke-opacity="0.0" stroke-width="3" transform="translate(1, 1)"></rect><rect x="189" y="186" width="19" height="104" fill="none" rx="0" ry="0"  stroke="black" stroke-opacity="0.1" stroke-width="1" transform="translate(1, 1)"></rect><rect x="189" y="186" width="19" height="104" fill="rgb(126,86,134)" fill-opacity=".9" rx="0" ry="0"></rect><rect x="341" y="244" width="19" height="46" fill="none" rx="0" ry="0"  stroke="black" stroke-opacity="0.0" stroke-width="5" transform="translate(1, 1)"></rect><rect x="341" y="244" width="19" height="46" fill="none" rx="0" ry="0"  stroke="black" stroke-opacity="0.0" stroke-width="3" transform="translate(1, 1)"></rect><rect x="341" y="244" width="19" height="46" fill="none" rx="0" ry="0"  stroke="black" stroke-opacity="0.1" stroke-width="1" transform="translate(1, 1)"></rect><rect x="341" y="244" width="19" height="46" fill="rgb(126,86,134)" fill-opacity=".9" rx="0" ry="0"></rect></g><g class="highcharts-markers" visibility="visible"  transform="translate(64,41) scale(1 1)"></g><g class="highcharts-series highcharts-tracker" visibility="visible"  transform="translate(64,41) scale(1 1)" style="" clip-path="url(#highcharts-1)"><rect x="88" y="78" width="37" height="212" fill="none" rx="0" ry="0"  stroke="black" stroke-opacity="0.0" stroke-width="5" transform="translate(1, 1)"></rect><rect x="88" y="78" width="37" height="212" fill="none" rx="0" ry="0"  stroke="black" stroke-opacity="0.0" stroke-width="3" transform="translate(1, 1)"></rect><rect x="88" y="78" width="37" height="212" fill="none" rx="0" ry="0"  stroke="black" stroke-opacity="0.1" stroke-width="1" transform="translate(1, 1)"></rect><rect x="88" y="78" width="37" height="212" fill="rgb(248,161,63)" fill-opacity="1" rx="0" ry="0"></rect><rect x="241" y="83" width="37" height="207" fill="none" rx="0" ry="0"  stroke="black" stroke-opacity="0.0" stroke-width="5" transform="translate(1, 1)"></rect><rect x="241" y="83" width="37" height="207" fill="none" rx="0" ry="0"  stroke="black" stroke-opacity="0.0" stroke-width="3" transform="translate(1, 1)"></rect><rect x="241" y="83" width="37" height="207" fill="none" rx="0" ry="0"  stroke="black" stroke-opacity="0.1" stroke-width="1" transform="translate(1, 1)"></rect><rect x="241" y="83" width="37" height="207" fill="rgb(248,161,63)" fill-opacity="1" rx="0" ry="0"></rect><rect x="393" y="61" width="37" height="229" fill="none" rx="0" ry="0"  stroke="black" stroke-opacity="0.0" stroke-width="5" transform="translate(1, 1)"></rect><rect x="393" y="61" width="37" height="229" fill="none" rx="0" ry="0"  stroke="black" stroke-opacity="0.0" stroke-width="3" transform="translate(1, 1)"></rect><rect x="393" y="61" width="37" height="229" fill="none" rx="0" ry="0"  stroke="black" stroke-opacity="0.1" stroke-width="1" transform="translate(1, 1)"></rect><rect x="393" y="61" width="37" height="229" fill="rgb(248,161,63)" fill-opacity="1" rx="0" ry="0"></rect></g><g class="highcharts-markers" visibility="visible"  transform="translate(64,41) scale(1 1)"></g><g class="highcharts-series highcharts-tracker" visibility="visible"  transform="translate(64,41) scale(1 1)" style="" clip-path="url(#highcharts-1)"><rect x="97" y="55" width="19" height="235" fill="none" rx="0" ry="0"  stroke="black" stroke-opacity="0.0" stroke-width="5" transform="translate(1, 1)"></rect><rect x="97" y="55" width="19" height="235" fill="none" rx="0" ry="0"  stroke="black" stroke-opacity="0.0" stroke-width="3" transform="translate(1, 1)"></rect><rect x="97" y="55" width="19" height="235" fill="none" rx="0" ry="0"  stroke="black" stroke-opacity="0.1" stroke-width="1" transform="translate(1, 1)"></rect><rect x="97" y="55" width="19" height="235" fill="rgb(186,60,61)" fill-opacity=".9" rx="0" ry="0"></rect><rect x="250" y="60" width="19" height="230" fill="none" rx="0" ry="0"  stroke="black" stroke-opacity="0.0" stroke-width="5" transform="translate(1, 1)"></rect><rect x="250" y="60" width="19" height="230" fill="none" rx="0" ry="0"  stroke="black" stroke-opacity="0.0" stroke-width="3" transform="translate(1, 1)"></rect><rect x="250" y="60" width="19" height="230" fill="none" rx="0" ry="0"  stroke="black" stroke-opacity="0.1" stroke-width="1" transform="translate(1, 1)"></rect><rect x="250" y="60" width="19" height="230" fill="rgb(186,60,61)" fill-opacity=".9" rx="0" ry="0"></rect><rect x="402" y="49" width="19" height="241" fill="none" rx="0" ry="0"  stroke="black" stroke-opacity="0.0" stroke-width="5" transform="translate(1, 1)"></rect><rect x="402" y="49" width="19" height="241" fill="none" rx="0" ry="0"  stroke="black" stroke-opacity="0.0" stroke-width="3" transform="translate(1, 1)"></rect><rect x="402" y="49" width="19" height="241" fill="none" rx="0" ry="0"  stroke="black" stroke-opacity="0.1" stroke-width="1" transform="translate(1, 1)"></rect><rect x="402" y="49" width="19" height="241" fill="rgb(186,60,61)" fill-opacity=".9" rx="0" ry="0"></rect></g><g class="highcharts-markers" visibility="visible"  transform="translate(64,41) scale(1 1)"></g></g><text x="292" text-anchor="middle" class="highcharts-title"  style="color:black;font-size:16px;font-weight:bold;fill:black;width:520px;" y="22"><tspan>Efficiency Optimization by Branch</tspan></text><g class="highcharts-legend"  transform="translate(58,361)"><g ><g><g class="highcharts-legend-item"  transform="translate(8,3)"><text x="21" style="color:#333333;font-size:13px;font-weight:bold;cursor:pointer;fill:#333333;" text-anchor="start"  y="16">Employees</text><rect x="0" y="4" width="16" height="13"  fill="rgb(165,170,217)" fill-opacity="1"></rect></g><g class="highcharts-legend-item"  transform="translate(108.8,3)"><text x="21" y="16" style="color:#333333;font-size:13px;font-weight:bold;cursor:pointer;fill:#333333;" text-anchor="start" ><tspan>Employees Optimized</tspan></text><rect x="0" y="4" width="16" height="13"  fill="rgb(126,86,134)" fill-opacity=".9"></rect></g><g class="highcharts-legend-item"  transform="translate(271.4,3)"><text x="21" y="16" style="color:#333333;font-size:13px;font-weight:bold;cursor:pointer;fill:#333333;" text-anchor="start" >Profit</text><rect x="0" y="4" width="16" height="13"  fill="rgb(248,161,63)" fill-opacity="1"></rect></g><g class="highcharts-legend-item"  transform="translate(344.9,3)"><text x="21" y="16" style="color:#333333;font-size:13px;font-weight:bold;cursor:pointer;fill:#333333;" text-anchor="start" ><tspan>Profit Optimized</tspan></text><rect x="0" y="4" width="16" height="13"  fill="rgb(186,60,61)" fill-opacity=".9"></rect></g></g></g></g><g class="highcharts-axis-labels highcharts-xaxis-labels" ><text x="140.1" style="color:#6e6e70;cursor:default;font-size:11px;fill:#6e6e70;width:142px;text-overflow:clip;" text-anchor="middle" transform="translate(0,0)" y="349" opacity="1"><tspan>Seattle HQ</tspan></text><text x="292.5" style="color:#6e6e70;cursor:default;font-size:11px;fill:#6e6e70;width:142px;text-overflow:clip;" text-anchor="middle" transform="translate(0,0)" y="349" opacity="1"><tspan>San Francisco</tspan></text><text x="444.8" style="color:#6e6e70;cursor:default;font-size:11px;fill:#6e6e70;width:142px;text-overflow:clip;" text-anchor="middle" transform="translate(0,0)" y="349" opacity="1">Tokyo</text></g><g class="highcharts-axis-labels highcharts-yaxis-labels" ><text x="49" style="color:#6e6e70;cursor:default;font-size:11px;fill:#6e6e70;width:183px;text-overflow:clip;" text-anchor="end" transform="translate(0,0)" y="336" opacity="1">0</text><text x="49" style="color:#6e6e70;cursor:default;font-size:11px;fill:#6e6e70;width:183px;text-overflow:clip;" text-anchor="end" transform="translate(0,0)" y="278" opacity="1">50</text><text x="49" style="color:#6e6e70;cursor:default;font-size:11px;fill:#6e6e70;width:183px;text-overflow:clip;" text-anchor="end" transform="translate(0,0)" y="220" opacity="1">100</text><text x="49" style="color:#6e6e70;cursor:default;font-size:11px;fill:#6e6e70;width:183px;text-overflow:clip;" text-anchor="end" transform="translate(0,0)" y="162" opacity="1">150</text><text x="49" style="color:#6e6e70;cursor:default;font-size:11px;fill:#6e6e70;width:183px;text-overflow:clip;" text-anchor="end" transform="translate(0,0)" y="104" opacity="1">200</text><text x="49" style="color:#6e6e70;cursor:default;font-size:11px;fill:#6e6e70;width:183px;text-overflow:clip;" text-anchor="end" transform="translate(0,0)" y="47" opacity="1">250</text></g><g class="highcharts-axis-labels highcharts-yaxis-labels" ><text x="536" style="color:#6e6e70;cursor:default;font-size:11px;fill:#6e6e70;width:183px;text-overflow:clip;" text-anchor="start" transform="translate(0,0)" y="336" opacity="1">0</text><text x="536" style="color:#6e6e70;cursor:default;font-size:11px;fill:#6e6e70;width:183px;text-overflow:clip;" text-anchor="start" transform="translate(0,0)" y="278" opacity="1">50</text><text x="536" style="color:#6e6e70;cursor:default;font-size:11px;fill:#6e6e70;width:183px;text-overflow:clip;" text-anchor="start" transform="translate(0,0)" y="220" opacity="1">100</text><text x="536" style="color:#6e6e70;cursor:default;font-size:11px;fill:#6e6e70;width:183px;text-overflow:clip;" text-anchor="start" transform="translate(0,0)" y="162" opacity="1">150</text><text x="536" style="color:#6e6e70;cursor:default;font-size:11px;fill:#6e6e70;width:183px;text-overflow:clip;" text-anchor="start" transform="translate(0,0)" y="104" opacity="1">200</text><text x="536" style="color:#6e6e70;cursor:default;font-size:11px;fill:#6e6e70;width:183px;text-overflow:clip;" text-anchor="start" transform="translate(0,0)" y="47" opacity="1">250</text></g><g class="highcharts-tooltip"  style="cursor:default;padding:0;white-space:nowrap;" transform="translate(0,-9999)"><path fill="none" d="M 3 0 L 13 0 C 16 0 16 0 16 3 L 16 13 C 16 16 16 16 13 16 L 3 16 C 0 16 0 16 0 13 L 0 3 C 0 0 0 0 3 0"  stroke="black" stroke-opacity="0.0" stroke-width="5" transform="translate(1, 1)"></path><path fill="none" d="M 3 0 L 13 0 C 16 0 16 0 16 3 L 16 13 C 16 16 16 16 13 16 L 3 16 C 0 16 0 16 0 13 L 0 3 C 0 0 0 0 3 0"  stroke="black" stroke-opacity="0.0" stroke-width="3" transform="translate(1, 1)"></path><path fill="none" d="M 3 0 L 13 0 C 16 0 16 0 16 3 L 16 13 C 16 16 16 16 13 16 L 3 16 C 0 16 0 16 0 13 L 0 3 C 0 0 0 0 3 0"  stroke="black" stroke-opacity="0.1" stroke-width="1" transform="translate(1, 1)"></path><path fill="rgb(249, 249, 249)" fill-opacity=" .85" d="M 3 0 L 13 0 C 16 0 16 0 16 3 L 16 13 C 16 16 16 16 13 16 L 3 16 C 0 16 0 16 0 13 L 0 3 C 0 0 0 0 3 0"></path><text x="8"  style="font-size:12px;color:#333333;fill:#333333;" y="20"></text></g></svg>