<svg version="1.1" style="font-family: signika, serif; font-size: 12px; background-image: url(http://www.highcharts.com/samples/graphics/sand.png); background-position: initial initial; background-repeat: initial initial;" xmlns="http://www.w3.org/2000/svg" width="584" height="400" viewBox="0 0 584 400" xmlns:xlink="http://www.w3.org/1999/xlink"><style type="text/css"><![CDATA[@import url(http://fonts.googleapis.com/css?family=Signika:700);]]></style><desc>Created with Highcharts 4.1.7</desc><defs><clipPath id="highcharts-1"><rect x="0" y="0" width="516" height="289"></rect></clipPath></defs><g class="highcharts-grid" ></g><g class="highcharts-grid" ><path fill="none" d="M 58 330.5 L 574 330.5" stroke="#D8D8D8" stroke-width="1"  opacity="1"></path><path fill="none" d="M 58 282.5 L 574 282.5" stroke="#D8D8D8" stroke-width="1"  opacity="1"></path><path fill="none" d="M 58 234.5 L 574 234.5" stroke="#D8D8D8" stroke-width="1"  opacity="1"></path><path fill="none" d="M 58 186.5 L 574 186.5" stroke="#D8D8D8" stroke-width="1"  opacity="1"></path><path fill="none" d="M 58 137.5 L 574 137.5" stroke="#D8D8D8" stroke-width="1"  opacity="1"></path><path fill="none" d="M 58 89.5 L 574 89.5" stroke="#D8D8D8" stroke-width="1"  opacity="1"></path><path fill="none" d="M 58 40.5 L 574 40.5" stroke="#D8D8D8" stroke-width="1"  opacity="1"></path></g><g class="highcharts-axis" ><path fill="none" d="M 160.5 330 L 160.5 340" stroke="#C0D0E0" stroke-width="1" opacity="1"></path><path fill="none" d="M 263.5 330 L 263.5 340" stroke="#C0D0E0" stroke-width="1" opacity="1"></path><path fill="none" d="M 367.5 330 L 367.5 340" stroke="#C0D0E0" stroke-width="1" opacity="1"></path><path fill="none" d="M 470.5 330 L 470.5 340" stroke="#C0D0E0" stroke-width="1" opacity="1"></path><path fill="none" d="M 574.5 330 L 574.5 340" stroke="#C0D0E0" stroke-width="1" opacity="1"></path><path fill="none" d="M 57.5 330 L 57.5 340" stroke="#C0D0E0" stroke-width="1" opacity="1"></path><path fill="none" d="M 58 330.5 L 574 330.5" stroke="#C0D0E0" stroke-width="1"  visibility="visible"></path></g><g class="highcharts-axis" ><text x="22"  text-anchor="middle" transform="translate(0,0) rotate(270 22 185.5)" class=" highcharts-yaxis-title" style="color:#707070;fill:#707070;" visibility="visible" y="185.5"><tspan>Number of fruits</tspan></text></g><g class="highcharts-series-group" ><g class="highcharts-series highcharts-tracker" visibility="visible"  transform="translate(58,41) scale(1 1)" style="" clip-path="url(#highcharts-1)"><rect x="23.5" y="96.5" width="25" height="116" stroke="black" stroke-width="5" fill="none" rx="0" ry="0"  stroke-opacity="0.0" transform="translate(1, 1)"></rect><rect x="23.5" y="96.5" width="25" height="118" stroke="black" stroke-width="3" fill="none" rx="0" ry="0"  stroke-opacity="0.0" transform="translate(1, 1)"></rect><rect x="23.5" y="96.5" width="25" height="120" stroke="black" stroke-width="1" fill="none" rx="0" ry="0"  stroke-opacity="0.1" transform="translate(1, 1)"></rect><rect x="23.5" y="96.5" width="25" height="121" stroke="#FFFFFF" stroke-width="1" fill="#f45b5b" rx="0" ry="0"></rect><rect x="126.5" y="120.5" width="25" height="68" stroke="black" stroke-width="5" fill="none" rx="0" ry="0"  stroke-opacity="0.0" transform="translate(1, 1)"></rect><rect x="126.5" y="120.5" width="25" height="70" stroke="black" stroke-width="3" fill="none" rx="0" ry="0"  stroke-opacity="0.0" transform="translate(1, 1)"></rect><rect x="126.5" y="120.5" width="25" height="72" stroke="black" stroke-width="1" fill="none" rx="0" ry="0"  stroke-opacity="0.1" transform="translate(1, 1)"></rect><rect x="126.5" y="120.5" width="25" height="73" stroke="#FFFFFF" stroke-width="1" fill="#f45b5b" rx="0" ry="0"></rect><rect x="229.5" y="96.5" width="25" height="92" stroke="black" stroke-width="5" fill="none" rx="0" ry="0"  stroke-opacity="0.0" transform="translate(1, 1)"></rect><rect x="229.5" y="96.5" width="25" height="94" stroke="black" stroke-width="3" fill="none" rx="0" ry="0"  stroke-opacity="0.0" transform="translate(1, 1)"></rect><rect x="229.5" y="96.5" width="25" height="96" stroke="black" stroke-width="1" fill="none" rx="0" ry="0"  stroke-opacity="0.1" transform="translate(1, 1)"></rect><rect x="229.5" y="96.5" width="25" height="97" stroke="#FFFFFF" stroke-width="1" fill="#f45b5b" rx="0" ry="0"></rect><rect x="332.5" y="72.5" width="25" height="164" stroke="black" stroke-width="5" fill="none" rx="0" ry="0"  stroke-opacity="0.0" transform="translate(1, 1)"></rect><rect x="332.5" y="72.5" width="25" height="166" stroke="black" stroke-width="3" fill="none" rx="0" ry="0"  stroke-opacity="0.0" transform="translate(1, 1)"></rect><rect x="332.5" y="72.5" width="25" height="168" stroke="black" stroke-width="1" fill="none" rx="0" ry="0"  stroke-opacity="0.1" transform="translate(1, 1)"></rect><rect x="332.5" y="72.5" width="25" height="169" stroke="#FFFFFF" stroke-width="1" fill="#f45b5b" rx="0" ry="0"></rect><rect x="436.5" y="120.5" width="25" height="44" stroke="black" stroke-width="5" fill="none" rx="0" ry="0"  stroke-opacity="0.0" transform="translate(1, 1)"></rect><rect x="436.5" y="120.5" width="25" height="46" stroke="black" stroke-width="3" fill="none" rx="0" ry="0"  stroke-opacity="0.0" transform="translate(1, 1)"></rect><rect x="436.5" y="120.5" width="25" height="48" stroke="black" stroke-width="1" fill="none" rx="0" ry="0"  stroke-opacity="0.1" transform="translate(1, 1)"></rect><rect x="436.5" y="120.5" width="25" height="49" stroke="#FFFFFF" stroke-width="1" fill="#f45b5b" rx="0" ry="0"></rect></g><g class="highcharts-markers" visibility="visible"  transform="translate(58,41) scale(1 1)"></g><g class="highcharts-series highcharts-tracker" visibility="visible"  transform="translate(58,41) scale(1 1)" style="" clip-path="url(#highcharts-1)"><rect x="23.5" y="217.5" width="25" height="67" stroke="black" stroke-width="5" fill="none" rx="0" ry="0"  stroke-opacity="0.0" transform="translate(1, 1)"></rect><rect x="23.5" y="217.5" width="25" height="69" stroke="black" stroke-width="3" fill="none" rx="0" ry="0"  stroke-opacity="0.0" transform="translate(1, 1)"></rect><rect x="23.5" y="217.5" width="25" height="71" stroke="black" stroke-width="1" fill="none" rx="0" ry="0"  stroke-opacity="0.1" transform="translate(1, 1)"></rect><rect x="23.5" y="217.5" width="25" height="72" stroke="#FFFFFF" stroke-width="1" fill="#8085e9" rx="0" ry="0"></rect><rect x="126.5" y="193.5" width="25" height="91" stroke="black" stroke-width="5" fill="none" rx="0" ry="0"  stroke-opacity="0.0" transform="translate(1, 1)"></rect><rect x="126.5" y="193.5" width="25" height="93" stroke="black" stroke-width="3" fill="none" rx="0" ry="0"  stroke-opacity="0.0" transform="translate(1, 1)"></rect><rect x="126.5" y="193.5" width="25" height="95" stroke="black" stroke-width="1" fill="none" rx="0" ry="0"  stroke-opacity="0.1" transform="translate(1, 1)"></rect><rect x="126.5" y="193.5" width="25" height="96" stroke="#FFFFFF" stroke-width="1" fill="#8085e9" rx="0" ry="0"></rect><rect x="229.5" y="193.5" width="25" height="91" stroke="black" stroke-width="5" fill="none" rx="0" ry="0"  stroke-opacity="0.0" transform="translate(1, 1)"></rect><rect x="229.5" y="193.5" width="25" height="93" stroke="black" stroke-width="3" fill="none" rx="0" ry="0"  stroke-opacity="0.0" transform="translate(1, 1)"></rect><rect x="229.5" y="193.5" width="25" height="95" stroke="black" stroke-width="1" fill="none" rx="0" ry="0"  stroke-opacity="0.1" transform="translate(1, 1)"></rect><rect x="229.5" y="193.5" width="25" height="96" stroke="#FFFFFF" stroke-width="1" fill="#8085e9" rx="0" ry="0"></rect><rect x="332.5" y="241.5" width="25" height="43" stroke="black" stroke-width="5" fill="none" rx="0" ry="0"  stroke-opacity="0.0" transform="translate(1, 1)"></rect><rect x="332.5" y="241.5" width="25" height="45" stroke="black" stroke-width="3" fill="none" rx="0" ry="0"  stroke-opacity="0.0" transform="translate(1, 1)"></rect><rect x="332.5" y="241.5" width="25" height="47" stroke="black" stroke-width="1" fill="none" rx="0" ry="0"  stroke-opacity="0.1" transform="translate(1, 1)"></rect><rect x="332.5" y="241.5" width="25" height="48" stroke="#FFFFFF" stroke-width="1" fill="#8085e9" rx="0" ry="0"></rect><rect x="436.5" y="169.5" width="25" height="115" stroke="black" stroke-width="5" fill="none" rx="0" ry="0"  stroke-opacity="0.0" transform="translate(1, 1)"></rect><rect x="436.5" y="169.5" width="25" height="117" stroke="black" stroke-width="3" fill="none" rx="0" ry="0"  stroke-opacity="0.0" transform="translate(1, 1)"></rect><rect x="436.5" y="169.5" width="25" height="119" stroke="black" stroke-width="1" fill="none" rx="0" ry="0"  stroke-opacity="0.1" transform="translate(1, 1)"></rect><rect x="436.5" y="169.5" width="25" height="120" stroke="#FFFFFF" stroke-width="1" fill="#8085e9" rx="0" ry="0"></rect></g><g class="highcharts-markers" visibility="visible"  transform="translate(58,41) scale(1 1)"></g><g class="highcharts-series highcharts-tracker" visibility="visible"  transform="translate(58,41) scale(1 1)" style="" clip-path="url(#highcharts-1)"><rect x="54.5" y="169.5" width="25" height="43" stroke="black" stroke-width="5" fill="none" rx="0" ry="0"  stroke-opacity="0.0" transform="translate(1, 1)"></rect><rect x="54.5" y="169.5" width="25" height="45" stroke="black" stroke-width="3" fill="none" rx="0" ry="0"  stroke-opacity="0.0" transform="translate(1, 1)"></rect><rect x="54.5" y="169.5" width="25" height="47" stroke="black" stroke-width="1" fill="none" rx="0" ry="0"  stroke-opacity="0.1" transform="translate(1, 1)"></rect><rect x="54.5" y="169.5" width="25" height="48" stroke="#FFFFFF" stroke-width="1" fill="#8d4654" rx="0" ry="0"></rect><rect x="157.5" y="169.5" width="25" height="115" stroke="black" stroke-width="5" fill="none" rx="0" ry="0"  stroke-opacity="0.0" transform="translate(1, 1)"></rect><rect x="157.5" y="169.5" width="25" height="117" stroke="black" stroke-width="3" fill="none" rx="0" ry="0"  stroke-opacity="0.0" transform="translate(1, 1)"></rect><rect x="157.5" y="169.5" width="25" height="119" stroke="black" stroke-width="1" fill="none" rx="0" ry="0"  stroke-opacity="0.1" transform="translate(1, 1)"></rect><rect x="157.5" y="169.5" width="25" height="120" stroke="#FFFFFF" stroke-width="1" fill="#8d4654" rx="0" ry="0"></rect><rect x="260.5" y="48.5" width="25" height="140" stroke="black" stroke-width="5" fill="none" rx="0" ry="0"  stroke-opacity="0.0" transform="translate(1, 1)"></rect><rect x="260.5" y="48.5" width="25" height="142" stroke="black" stroke-width="3" fill="none" rx="0" ry="0"  stroke-opacity="0.0" transform="translate(1, 1)"></rect><rect x="260.5" y="48.5" width="25" height="144" stroke="black" stroke-width="1" fill="none" rx="0" ry="0"  stroke-opacity="0.1" transform="translate(1, 1)"></rect><rect x="260.5" y="48.5" width="25" height="145" stroke="#FFFFFF" stroke-width="1" fill="#8d4654" rx="0" ry="0"></rect><rect x="363.5" y="145.5" width="25" height="43" stroke="black" stroke-width="5" fill="none" rx="0" ry="0"  stroke-opacity="0.0" transform="translate(1, 1)"></rect><rect x="363.5" y="145.5" width="25" height="45" stroke="black" stroke-width="3" fill="none" rx="0" ry="0"  stroke-opacity="0.0" transform="translate(1, 1)"></rect><rect x="363.5" y="145.5" width="25" height="47" stroke="black" stroke-width="1" fill="none" rx="0" ry="0"  stroke-opacity="0.1" transform="translate(1, 1)"></rect><rect x="363.5" y="145.5" width="25" height="48" stroke="#FFFFFF" stroke-width="1" fill="#8d4654" rx="0" ry="0"></rect><rect x="466.5" y="193.5" width="25" height="19" stroke="black" stroke-width="5" fill="none" rx="0" ry="0"  stroke-opacity="0.0" transform="translate(1, 1)"></rect><rect x="466.5" y="193.5" width="25" height="21" stroke="black" stroke-width="3" fill="none" rx="0" ry="0"  stroke-opacity="0.0" transform="translate(1, 1)"></rect><rect x="466.5" y="193.5" width="25" height="23" stroke="black" stroke-width="1" fill="none" rx="0" ry="0"  stroke-opacity="0.1" transform="translate(1, 1)"></rect><rect x="466.5" y="193.5" width="25" height="24" stroke="#FFFFFF" stroke-width="1" fill="#8d4654" rx="0" ry="0"></rect></g><g class="highcharts-markers" visibility="visible"  transform="translate(58,41) scale(1 1)"></g><g class="highcharts-series highcharts-tracker" visibility="visible"  transform="translate(58,41) scale(1 1)" style="" clip-path="url(#highcharts-1)"><rect x="54.5" y="217.5" width="25" height="67" stroke="black" stroke-width="5" fill="none" rx="0" ry="0"  stroke-opacity="0.0" transform="translate(1, 1)"></rect><rect x="54.5" y="217.5" width="25" height="69" stroke="black" stroke-width="3" fill="none" rx="0" ry="0"  stroke-opacity="0.0" transform="translate(1, 1)"></rect><rect x="54.5" y="217.5" width="25" height="71" stroke="black" stroke-width="1" fill="none" rx="0" ry="0"  stroke-opacity="0.1" transform="translate(1, 1)"></rect><rect x="54.5" y="217.5" width="25" height="72" stroke="#FFFFFF" stroke-width="1" fill="#7798BF" rx="0" ry="0"></rect><rect x="157.5" y="289.5" width="25" height="0" stroke="black" stroke-width="5" fill="none" rx="0" ry="0"  stroke-opacity="0.0" transform="translate(1, 1)"></rect><rect x="157.5" y="289.5" width="25" height="0" stroke="black" stroke-width="3" fill="none" rx="0" ry="0"  stroke-opacity="0.0" transform="translate(1, 1)"></rect><rect x="157.5" y="289.5" width="25" height="0" stroke="black" stroke-width="1" fill="none" rx="0" ry="0"  stroke-opacity="0.1" transform="translate(1, 1)"></rect><rect x="157.5" y="289.5" width="25" height="0" stroke="#FFFFFF" stroke-width="1" fill="#7798BF" rx="0" ry="0"></rect><rect x="260.5" y="193.5" width="25" height="91" stroke="black" stroke-width="5" fill="none" rx="0" ry="0"  stroke-opacity="0.0" transform="translate(1, 1)"></rect><rect x="260.5" y="193.5" width="25" height="93" stroke="black" stroke-width="3" fill="none" rx="0" ry="0"  stroke-opacity="0.0" transform="translate(1, 1)"></rect><rect x="260.5" y="193.5" width="25" height="95" stroke="black" stroke-width="1" fill="none" rx="0" ry="0"  stroke-opacity="0.1" transform="translate(1, 1)"></rect><rect x="260.5" y="193.5" width="25" height="96" stroke="#FFFFFF" stroke-width="1" fill="#7798BF" rx="0" ry="0"></rect><rect x="363.5" y="193.5" width="25" height="91" stroke="black" stroke-width="5" fill="none" rx="0" ry="0"  stroke-opacity="0.0" transform="translate(1, 1)"></rect><rect x="363.5" y="193.5" width="25" height="93" stroke="black" stroke-width="3" fill="none" rx="0" ry="0"  stroke-opacity="0.0" transform="translate(1, 1)"></rect><rect x="363.5" y="193.5" width="25" height="95" stroke="black" stroke-width="1" fill="none" rx="0" ry="0"  stroke-opacity="0.1" transform="translate(1, 1)"></rect><rect x="363.5" y="193.5" width="25" height="96" stroke="#FFFFFF" stroke-width="1" fill="#7798BF" rx="0" ry="0"></rect><rect x="466.5" y="217.5" width="25" height="67" stroke="black" stroke-width="5" fill="none" rx="0" ry="0"  stroke-opacity="0.0" transform="translate(1, 1)"></rect><rect x="466.5" y="217.5" width="25" height="69" stroke="black" stroke-width="3" fill="none" rx="0" ry="0"  stroke-opacity="0.0" transform="translate(1, 1)"></rect><rect x="466.5" y="217.5" width="25" height="71" stroke="black" stroke-width="1" fill="none" rx="0" ry="0"  stroke-opacity="0.1" transform="translate(1, 1)"></rect><rect x="466.5" y="217.5" width="25" height="72" stroke="#FFFFFF" stroke-width="1" fill="#7798BF" rx="0" ry="0"></rect></g><g class="highcharts-markers" visibility="visible"  transform="translate(58,41) scale(1 1)"></g></g><text x="292" text-anchor="middle" class="highcharts-title"  style="color:black;font-size:16px;font-weight:bold;fill:black;width:520px;" y="22"><tspan>Total fruit consumtion, grouped by gender</tspan></text><g class="highcharts-legend"  transform="translate(161,361)"><g ><g><g class="highcharts-legend-item"  transform="translate(8,3)"><text x="21" style="color:#333333;font-size:13px;font-weight:bold;cursor:pointer;fill:#333333;" text-anchor="start"  y="16">John</text><rect x="0" y="4" width="16" height="13"  fill="#f45b5b"></rect></g><g class="highcharts-legend-item"  transform="translate(76.4,3)"><text x="21" y="16" style="color:#333333;font-size:13px;font-weight:bold;cursor:pointer;fill:#333333;" text-anchor="start" >Joe</text><rect x="0" y="4" width="16" height="13"  fill="#8085e9"></rect></g><g class="highcharts-legend-item"  transform="translate(136.2,3)"><text x="21" y="16" style="color:#333333;font-size:13px;font-weight:bold;cursor:pointer;fill:#333333;" text-anchor="start" >Jane</text><rect x="0" y="4" width="16" height="13"  fill="#8d4654"></rect></g><g class="highcharts-legend-item"  transform="translate(203.1,3)"><text x="21" y="16" style="color:#333333;font-size:13px;font-weight:bold;cursor:pointer;fill:#333333;" text-anchor="start" >Janet</text><rect x="0" y="4" width="16" height="13"  fill="#7798BF"></rect></g></g></g></g><g class="highcharts-axis-labels highcharts-xaxis-labels" ><text x="109.6" style="color:#6e6e70;cursor:default;font-size:11px;fill:#6e6e70;width:103px;text-overflow:clip;" text-anchor="middle" transform="translate(0,0)" y="349" opacity="1">Apples</text><text x="212.7" style="color:#6e6e70;cursor:default;font-size:11px;fill:#6e6e70;width:103px;text-overflow:clip;" text-anchor="middle" transform="translate(0,0)" y="349" opacity="1">Oranges</text><text x="316" style="color:#6e6e70;cursor:default;font-size:11px;fill:#6e6e70;width:103px;text-overflow:clip;" text-anchor="middle" transform="translate(0,0)" y="349" opacity="1">Pears</text><text x="419.2" style="color:#6e6e70;cursor:default;font-size:11px;fill:#6e6e70;width:103px;text-overflow:clip;" text-anchor="middle" transform="translate(0,0)" y="349" opacity="1">Grapes</text><text x="522.4" style="color:#6e6e70;cursor:default;font-size:11px;fill:#6e6e70;width:103px;text-overflow:clip;" text-anchor="middle" transform="translate(0,0)" y="349" opacity="1">Bananas</text></g><g class="highcharts-axis-labels highcharts-yaxis-labels" ><text x="43" style="color:#6e6e70;cursor:default;font-size:11px;fill:#6e6e70;width:183px;text-overflow:clip;" text-anchor="end" transform="translate(0,0)" y="336" opacity="1">0</text><text x="43" style="color:#6e6e70;cursor:default;font-size:11px;fill:#6e6e70;width:183px;text-overflow:clip;" text-anchor="end" transform="translate(0,0)" y="287" opacity="1">2</text><text x="43" style="color:#6e6e70;cursor:default;font-size:11px;fill:#6e6e70;width:183px;text-overflow:clip;" text-anchor="end" transform="translate(0,0)" y="239" opacity="1">4</text><text x="43" style="color:#6e6e70;cursor:default;font-size:11px;fill:#6e6e70;width:183px;text-overflow:clip;" text-anchor="end" transform="translate(0,0)" y="191" opacity="1">6</text><text x="43" style="color:#6e6e70;cursor:default;font-size:11px;fill:#6e6e70;width:183px;text-overflow:clip;" text-anchor="end" transform="translate(0,0)" y="143" opacity="1">8</text><text x="43" style="color:#6e6e70;cursor:default;font-size:11px;fill:#6e6e70;width:183px;text-overflow:clip;" text-anchor="end" transform="translate(0,0)" y="95" opacity="1">10</text><text x="43" style="color:#6e6e70;cursor:default;font-size:11px;fill:#6e6e70;width:183px;text-overflow:clip;" text-anchor="end" transform="translate(0,0)" y="47" opacity="1">12</text></g><g class="highcharts-tooltip"  style="cursor:default;padding:0;white-space:nowrap;" transform="translate(0,-9999)"><path fill="none" d="M 3 0 L 13 0 C 16 0 16 0 16 3 L 16 13 C 16 16 16 16 13 16 L 3 16 C 0 16 0 16 0 13 L 0 3 C 0 0 0 0 3 0"  stroke="black" stroke-opacity="0.0" stroke-width="5" transform="translate(1, 1)"></path><path fill="none" d="M 3 0 L 13 0 C 16 0 16 0 16 3 L 16 13 C 16 16 16 16 13 16 L 3 16 C 0 16 0 16 0 13 L 0 3 C 0 0 0 0 3 0"  stroke="black" stroke-opacity="0.0" stroke-width="3" transform="translate(1, 1)"></path><path fill="none" d="M 3 0 L 13 0 C 16 0 16 0 16 3 L 16 13 C 16 16 16 16 13 16 L 3 16 C 0 16 0 16 0 13 L 0 3 C 0 0 0 0 3 0"  stroke="black" stroke-opacity="0.1" stroke-width="1" transform="translate(1, 1)"></path><path fill="rgb(249, 249, 249)" fill-opacity=" .85" d="M 3 0 L 13 0 C 16 0 16 0 16 3 L 16 13 C 16 16 16 16 13 16 L 3 16 C 0 16 0 16 0 13 L 0 3 C 0 0 0 0 3 0"></path><text x="8"  style="font-size:12px;color:#333333;fill:#333333;" y="20"></text></g></svg>