<svg version="1.1" style="font-family:&quot;lucida grande&quot;, &quot;lucida sans unicode&quot;, arial, helvetica, sans-serif;font-size:12px;" xmlns="http://www.w3.org/2000/svg" width="584" height="400" viewBox="0 0 584 400"><desc>Created with Highcharts 4.1.6</desc><defs><clipPath id="highcharts-1"><rect x="0" y="0" width="283" height="527"></rect></clipPath></defs><rect x="0" y="0" width="584" height="400" strokeWidth="0" fill="#FFFFFF" class=" highcharts-background" stroke="transparent"></rect><g class="highcharts-grid" ></g><g class="highcharts-grid" ><path fill="none" d="M 46.5 61 L 46.5 344" stroke="#D8D8D8" stroke-width="1"  opacity="1"></path><path fill="none" d="M 94.5 61 L 94.5 344" stroke="#D8D8D8" stroke-width="1"  opacity="1"></path><path fill="none" d="M 142.5 61 L 142.5 344" stroke="#D8D8D8" stroke-width="1"  opacity="1"></path><path fill="none" d="M 190.5 61 L 190.5 344" stroke="#D8D8D8" stroke-width="1"  opacity="1"></path><path fill="none" d="M 238.5 61 L 238.5 344" stroke="#D8D8D8" stroke-width="1"  opacity="1"></path><path fill="none" d="M 286.5 61 L 286.5 344" stroke="#D8D8D8" stroke-width="1"  opacity="1"></path><path fill="none" d="M 333.5 61 L 333.5 344" stroke="#D8D8D8" stroke-width="1"  opacity="1"></path><path fill="none" d="M 381.5 61 L 381.5 344" stroke="#D8D8D8" stroke-width="1"  opacity="1"></path><path fill="none" d="M 429.5 61 L 429.5 344" stroke="#D8D8D8" stroke-width="1"  opacity="1"></path><path fill="none" d="M 477.5 61 L 477.5 344" stroke="#D8D8D8" stroke-width="1"  opacity="1"></path><path fill="none" d="M 525.5 61 L 525.5 344" stroke="#D8D8D8" stroke-width="1"  opacity="1"></path><path fill="none" d="M 574.5 61 L 574.5 344" stroke="#D8D8D8" stroke-width="1"  opacity="1"></path></g><g class="highcharts-axis" ><path fill="none" d="M 47 85.5 L 37 85.5" stroke="#C0D0E0" stroke-width="1" opacity="1"></path><path fill="none" d="M 47 108.5 L 37 108.5" stroke="#C0D0E0" stroke-width="1" opacity="1"></path><path fill="none" d="M 47 132.5 L 37 132.5" stroke="#C0D0E0" stroke-width="1" opacity="1"></path><path fill="none" d="M 47 155.5 L 37 155.5" stroke="#C0D0E0" stroke-width="1" opacity="1"></path><path fill="none" d="M 47 179.5 L 37 179.5" stroke="#C0D0E0" stroke-width="1" opacity="1"></path><path fill="none" d="M 47 203.5 L 37 203.5" stroke="#C0D0E0" stroke-width="1" opacity="1"></path><path fill="none" d="M 47 226.5 L 37 226.5" stroke="#C0D0E0" stroke-width="1" opacity="1"></path><path fill="none" d="M 47 250.5 L 37 250.5" stroke="#C0D0E0" stroke-width="1" opacity="1"></path><path fill="none" d="M 47 273.5 L 37 273.5" stroke="#C0D0E0" stroke-width="1" opacity="1"></path><path fill="none" d="M 47 297.5 L 37 297.5" stroke="#C0D0E0" stroke-width="1" opacity="1"></path><path fill="none" d="M 47 320.5 L 37 320.5" stroke="#C0D0E0" stroke-width="1" opacity="1"></path><path fill="none" d="M 47 344.5 L 37 344.5" stroke="#C0D0E0" stroke-width="1" opacity="1"></path><path fill="none" d="M 47 60.5 L 37 60.5" stroke="#C0D0E0" stroke-width="1" opacity="1"></path><path fill="none" d="M 46.5 61 L 46.5 344" stroke="#C0D0E0" stroke-width="1"  visibility="visible"></path></g><g class="highcharts-axis" ><text x="310.5"  text-anchor="middle" transform="translate(0,0)" class=" highcharts-yaxis-title" style="color:#707070;fill:#707070;" visibility="visible" y="382"><tspan>Temperature ( °C )</tspan></text></g><g class="highcharts-series-group" ><g class="highcharts-series highcharts-tracker" visibility="visible"  transform="translate(574,344) rotate(90) scale(-1,1) scale(1 1)" style="" width="527" height="283" clip-path="url(#highcharts-1)"><rect x="265.5" y="245.2" width="12" height="183.0" stroke="#FFFFFF" stroke-width="1" fill="#7cb5ec" rx="0" ry="0"></rect><rect x="241.5" y="273.0" width="12" height="145.6" stroke="#FFFFFF" stroke-width="1" fill="#7cb5ec" rx="0" ry="0"></rect><rect x="217.5" y="245.2" width="12" height="123.6" stroke="#FFFFFF" stroke-width="1" fill="#7cb5ec" rx="0" ry="0"></rect><rect x="194.5" y="144.6" width="12" height="204.0" stroke="#FFFFFF" stroke-width="1" fill="#7cb5ec" rx="0" ry="0"></rect><rect x="170.5" y="118.8" width="12" height="216.5" stroke="#FFFFFF" stroke-width="1" fill="#7cb5ec" rx="0" ry="0"></rect><rect x="147.5" y="52.6" width="12" height="254.8" stroke="#FFFFFF" stroke-width="1" fill="#7cb5ec" rx="0" ry="0"></rect><rect x="123.5" y="41.2" width="12" height="206.0" stroke="#FFFFFF" stroke-width="1" fill="#7cb5ec" rx="0" ry="0"></rect><rect x="99.5" y="81.4" width="12" height="183.9" stroke="#FFFFFF" stroke-width="1" fill="#7cb5ec" rx="0" ry="0"></rect><rect x="76.5" y="162.8" width="12" height="130.3" stroke="#FFFFFF" stroke-width="1" fill="#7cb5ec" rx="0" ry="0"></rect><rect x="52.5" y="226.1" width="12" height="138.9" stroke="#FFFFFF" stroke-width="1" fill="#7cb5ec" rx="0" ry="0"></rect><rect x="29.5" y="235.7" width="12" height="149.4" stroke="#FFFFFF" stroke-width="1" fill="#7cb5ec" rx="0" ry="0"></rect><rect x="5.5" y="241.4" width="12" height="223.2" stroke="#FFFFFF" stroke-width="1" fill="#7cb5ec" rx="0" ry="0"></rect></g><g class="highcharts-markers" visibility="visible"  transform="translate(574,344) rotate(90) scale(-1,1) scale(1 1)" width="527" height="283"></g></g><text x="292" text-anchor="middle" class="highcharts-title"  style="color:#333333;font-size:18px;fill:#333333;width:520px;" y="24"><tspan>Temperature variation by month</tspan></text><text x="292" text-anchor="middle" class="highcharts-subtitle"  style="color:#555555;fill:#555555;width:520px;" y="45"><tspan>Observed in Vik i Sogn, Norway, 2009</tspan></text><g class="highcharts-data-labels highcharts-tracker" visibility="visible"  transform="translate(47,61) scale(1 1)" style=""><g  style="" transform="translate(282,0)"><text x="5"  style="font-size: 11px; font-weight: bold; color: rgb(0, 0, 0); fill: #000000; text-shadow: rgb(255, 255, 255) 0px 0px 6px, rgb(255, 255, 255) 0px 0px 3px; text-rendering: geometricprecision; " y="16"><tspan>9.4°C</tspan></text></g><g  style="" transform="translate(254,24)"><text x="5"  style="font-size: 11px; font-weight: bold; color: rgb(0, 0, 0); fill: #000000; text-shadow: rgb(255, 255, 255) 0px 0px 6px, rgb(255, 255, 255) 0px 0px 3px; text-rendering: geometricprecision; " y="16"><tspan>6.5°C</tspan></text></g><g  style="" transform="translate(282,48)"><text x="5"  style="font-size: 11px; font-weight: bold; color: rgb(0, 0, 0); fill: #000000; text-shadow: rgb(255, 255, 255) 0px 0px 6px, rgb(255, 255, 255) 0px 0px 3px; text-rendering: geometricprecision; " y="16"><tspan>9.4°C</tspan></text></g><g  style="" transform="translate(382,71)"><text x="5"  style="font-size: 11px; font-weight: bold; color: rgb(0, 0, 0); fill: #000000; text-shadow: rgb(255, 255, 255) 0px 0px 6px, rgb(255, 255, 255) 0px 0px 3px; text-rendering: geometricprecision; " y="16"><tspan>19.9°C</tspan></text></g><g  style="" transform="translate(408,95)"><text x="5"  style="font-size: 11px; font-weight: bold; color: rgb(0, 0, 0); fill: #000000; text-shadow: rgb(255, 255, 255) 0px 0px 6px, rgb(255, 255, 255) 0px 0px 3px; text-rendering: geometricprecision; " y="16"><tspan>22.6°C</tspan></text></g><g  style="" transform="translate(474,118)"><text x="5"  style="font-size: 11px; font-weight: bold; color: rgb(0, 0, 0); fill: #000000; text-shadow: rgb(255, 255, 255) 0px 0px 6px, rgb(255, 255, 255) 0px 0px 3px; text-rendering: geometricprecision; " y="16"><tspan>29.5°C</tspan></text></g><g  style="" transform="translate(439,142)"><text x="5"  style="font-size: 11px; font-weight: bold; color: rgb(0, 0, 0); fill: #000000; text-shadow: rgb(255, 255, 255) 0px 0px 6px, rgb(255, 255, 255) 0px 0px 3px; text-rendering: geometricprecision; " y="16"><tspan>30.7°C</tspan></text></g><g  style="" transform="translate(446,166)"><text x="5"  style="font-size: 11px; font-weight: bold; color: rgb(0, 0, 0); fill: #000000; text-shadow: rgb(255, 255, 255) 0px 0px 6px, rgb(255, 255, 255) 0px 0px 3px; text-rendering: geometricprecision; " y="16"><tspan>26.5°C</tspan></text></g><g  style="" transform="translate(364,189)"><text x="5"  style="font-size: 11px; font-weight: bold; color: rgb(0, 0, 0); fill: #000000; text-shadow: rgb(255, 255, 255) 0px 0px 6px, rgb(255, 255, 255) 0px 0px 3px; text-rendering: geometricprecision; " y="16"><tspan>18°C</tspan></text></g><g  style="" transform="translate(301,213)"><text x="5"  style="font-size: 11px; font-weight: bold; color: rgb(0, 0, 0); fill: #000000; text-shadow: rgb(255, 255, 255) 0px 0px 6px, rgb(255, 255, 255) 0px 0px 3px; text-rendering: geometricprecision; " y="16"><tspan>11.4°C</tspan></text></g><g  style="" transform="translate(291,236)"><text x="5"  style="font-size: 11px; font-weight: bold; color: rgb(0, 0, 0); fill: #000000; text-shadow: rgb(255, 255, 255) 0px 0px 6px, rgb(255, 255, 255) 0px 0px 3px; text-rendering: geometricprecision; " y="16"><tspan>10.4°C</tspan></text></g><g  style="" transform="translate(286,260)"><text x="5"  style="font-size: 11px; font-weight: bold; color: rgb(0, 0, 0); fill: #000000; text-shadow: rgb(255, 255, 255) 0px 0px 6px, rgb(255, 255, 255) 0px 0px 3px; text-rendering: geometricprecision; " y="16"><tspan>9.8°C</tspan></text></g><g  style="" transform="translate(52,0)"><text x="5"  style="font-size: 11px; font-weight: bold; color: rgb(0, 0, 0); fill: #000000; text-shadow: rgb(255, 255, 255) 0px 0px 6px, rgb(255, 255, 255) 0px 0px 3px; text-rendering: geometricprecision; " y="16"><tspan>-9.7°C</tspan></text></g><g  style="" transform="translate(61,24)"><text x="5"  style="font-size: 11px; font-weight: bold; color: rgb(0, 0, 0); fill: #000000; text-shadow: rgb(255, 255, 255) 0px 0px 6px, rgb(255, 255, 255) 0px 0px 3px; text-rendering: geometricprecision; " y="16"><tspan>-8.7°C</tspan></text></g><g  style="" transform="translate(111,48)" opacity="0"><text x="5"  style="font-size: 11px; font-weight: bold; color: rgb(0, 0, 0); fill: #000000; text-shadow: rgb(255, 255, 255) 0px 0px 6px, rgb(255, 255, 255) 0px 0px 3px; text-rendering: geometricprecision; " y="16"><tspan>-3.5°C</tspan></text></g><g  style="" transform="translate(131,71)"><text x="5"  style="font-size: 11px; font-weight: bold; color: rgb(0, 0, 0); fill: #000000; text-shadow: rgb(255, 255, 255) 0px 0px 6px, rgb(255, 255, 255) 0px 0px 3px; text-rendering: geometricprecision; " y="16"><tspan>-1.4°C</tspan></text></g><g  style="" transform="translate(162,95)" opacity="0"><text x="5"  style="font-size: 11px; font-weight: bold; color: rgb(0, 0, 0); fill: #000000; text-shadow: rgb(255, 255, 255) 0px 0px 6px, rgb(255, 255, 255) 0px 0px 3px; text-rendering: geometricprecision; " y="16"><tspan>0°C</tspan></text></g><g  style="" transform="translate(179,118)"><text x="5"  style="font-size: 11px; font-weight: bold; color: rgb(0, 0, 0); fill: #000000; text-shadow: rgb(255, 255, 255) 0px 0px 6px, rgb(255, 255, 255) 0px 0px 3px; text-rendering: geometricprecision; " y="16"><tspan>2.9°C</tspan></text></g><g  style="" transform="translate(240,142)"><text x="5"  style="font-size: 11px; font-weight: bold; color: rgb(0, 0, 0); fill: #000000; text-shadow: rgb(255, 255, 255) 0px 0px 6px, rgb(255, 255, 255) 0px 0px 3px; text-rendering: geometricprecision; " y="16"><tspan>9.2°C</tspan></text></g><g  style="" transform="translate(222,166)"><text x="5"  style="font-size: 11px; font-weight: bold; color: rgb(0, 0, 0); fill: #000000; text-shadow: rgb(255, 255, 255) 0px 0px 6px, rgb(255, 255, 255) 0px 0px 3px; text-rendering: geometricprecision; " y="16"><tspan>7.3°C</tspan></text></g><g  style="" transform="translate(194,189)" opacity="0"><text x="5"  style="font-size: 11px; font-weight: bold; color: rgb(0, 0, 0); fill: #000000; text-shadow: rgb(255, 255, 255) 0px 0px 6px, rgb(255, 255, 255) 0px 0px 3px; text-rendering: geometricprecision; " y="16"><tspan>4.4°C</tspan></text></g><g  style="" transform="translate(115,213)" opacity="0"><text x="5"  style="font-size: 11px; font-weight: bold; color: rgb(0, 0, 0); fill: #000000; text-shadow: rgb(255, 255, 255) 0px 0px 6px, rgb(255, 255, 255) 0px 0px 3px; text-rendering: geometricprecision; " y="16"><tspan>-3.1°C</tspan></text></g><g  style="" transform="translate(95,236)"><text x="5"  style="font-size: 11px; font-weight: bold; color: rgb(0, 0, 0); fill: #000000; text-shadow: rgb(255, 255, 255) 0px 0px 6px, rgb(255, 255, 255) 0px 0px 3px; text-rendering: geometricprecision; " y="16"><tspan>-5.2°C</tspan></text></g><g  style="" transform="translate(8,260)"><text x="5"  style="font-size: 11px; font-weight: bold; color: rgb(0, 0, 0); fill: #000000; text-shadow: rgb(255, 255, 255) 0px 0px 6px, rgb(255, 255, 255) 0px 0px 3px; text-rendering: geometricprecision; " y="16"><tspan>-13.5°C</tspan></text></g></g><g class="highcharts-axis-labels highcharts-xaxis-labels" ><text x="32" style="color:#606060;cursor:default;font-size:11px;fill:#606060;width:183px;text-overflow:clip;" text-anchor="end" transform="translate(0,0)" y="77" opacity="1">Jan</text><text x="32" style="color:#606060;cursor:default;font-size:11px;fill:#606060;width:183px;text-overflow:clip;" text-anchor="end" transform="translate(0,0)" y="101" opacity="1">Feb</text><text x="32" style="color:#606060;cursor:default;font-size:11px;fill:#606060;width:183px;text-overflow:clip;" text-anchor="end" transform="translate(0,0)" y="124" opacity="1">Mar</text><text x="32" style="color:#606060;cursor:default;font-size:11px;fill:#606060;width:183px;text-overflow:clip;" text-anchor="end" transform="translate(0,0)" y="148" opacity="1">Apr</text><text x="32" style="color:#606060;cursor:default;font-size:11px;fill:#606060;width:183px;text-overflow:clip;" text-anchor="end" transform="translate(0,0)" y="172" opacity="1">May</text><text x="32" style="color:#606060;cursor:default;font-size:11px;fill:#606060;width:183px;text-overflow:clip;" text-anchor="end" transform="translate(0,0)" y="195" opacity="1">Jun</text><text x="32" style="color:#606060;cursor:default;font-size:11px;fill:#606060;width:183px;text-overflow:clip;" text-anchor="end" transform="translate(0,0)" y="219" opacity="1">Jul</text><text x="32" style="color:#606060;cursor:default;font-size:11px;fill:#606060;width:183px;text-overflow:clip;" text-anchor="end" transform="translate(0,0)" y="242" opacity="1">Aug</text><text x="32" style="color:#606060;cursor:default;font-size:11px;fill:#606060;width:183px;text-overflow:clip;" text-anchor="end" transform="translate(0,0)" y="266" opacity="1">Sep</text><text x="32" style="color:#606060;cursor:default;font-size:11px;fill:#606060;width:183px;text-overflow:clip;" text-anchor="end" transform="translate(0,0)" y="290" opacity="1">Oct</text><text x="32" style="color:#606060;cursor:default;font-size:11px;fill:#606060;width:183px;text-overflow:clip;" text-anchor="end" transform="translate(0,0)" y="313" opacity="1">Nov</text><text x="32" style="color:#606060;cursor:default;font-size:11px;fill:#606060;width:183px;text-overflow:clip;" text-anchor="end" transform="translate(0,0)" y="337" opacity="1">Dec</text></g><g class="highcharts-axis-labels highcharts-yaxis-labels" ><text x="47" style="color:#606060;cursor:default;font-size:11px;fill:#606060;" text-anchor="middle" transform="translate(0,0)" y="363" opacity="1">-20</text><text x="94.9" style="color:#606060;cursor:default;font-size:11px;fill:#606060;" text-anchor="middle" transform="translate(0,0)" y="363" opacity="1">-15</text><text x="142.8" style="color:#606060;cursor:default;font-size:11px;fill:#606060;" text-anchor="middle" transform="translate(0,0)" y="363" opacity="1">-10</text><text x="190.7" style="color:#606060;cursor:default;font-size:11px;fill:#606060;" text-anchor="middle" transform="translate(0,0)" y="363" opacity="1">-5</text><text x="238.6" style="color:#606060;cursor:default;font-size:11px;fill:#606060;" text-anchor="middle" transform="translate(0,0)" y="363" opacity="1">0</text><text x="286.5" style="color:#606060;cursor:default;font-size:11px;fill:#606060;" text-anchor="middle" transform="translate(0,0)" y="363" opacity="1">5</text><text x="334.4" style="color:#606060;cursor:default;font-size:11px;fill:#606060;" text-anchor="middle" transform="translate(0,0)" y="363" opacity="1">10</text><text x="382.3" style="color:#606060;cursor:default;font-size:11px;fill:#606060;" text-anchor="middle" transform="translate(0,0)" y="363" opacity="1">15</text><text x="430.2" style="color:#606060;cursor:default;font-size:11px;fill:#606060;" text-anchor="middle" transform="translate(0,0)" y="363" opacity="1">20</text><text x="478.1" style="color:#606060;cursor:default;font-size:11px;fill:#606060;" text-anchor="middle" transform="translate(0,0)" y="363" opacity="1">25</text><text x="526.0" style="color:#606060;cursor:default;font-size:11px;fill:#606060;" text-anchor="middle" transform="translate(0,0)" y="363" opacity="1">30</text><text x="567" style="color:#606060;cursor:default;font-size:11px;fill:#606060;" text-anchor="middle" transform="translate(0,0)" y="363" opacity="1">35</text></g><g class="highcharts-tooltip"  style="cursor:default;padding:0;white-space:nowrap;" transform="translate(0,-9999)"><path fill="none" d="M 3.5 0.5 L 13.5 0.5 C 16.5 0.5 16.5 0.5 16.5 3.5 L 16.5 13.5 C 16.5 16.5 16.5 16.5 13.5 16.5 L 3.5 16.5 C 0.5 16.5 0.5 16.5 0.5 13.5 L 0.5 3.5 C 0.5 0.5 0.5 0.5 3.5 0.5"  stroke="black" stroke-opacity="0.0" stroke-width="5" transform="translate(1, 1)"></path><path fill="none" d="M 3.5 0.5 L 13.5 0.5 C 16.5 0.5 16.5 0.5 16.5 3.5 L 16.5 13.5 C 16.5 16.5 16.5 16.5 13.5 16.5 L 3.5 16.5 C 0.5 16.5 0.5 16.5 0.5 13.5 L 0.5 3.5 C 0.5 0.5 0.5 0.5 3.5 0.5"  stroke="black" stroke-opacity="0.0" stroke-width="3" transform="translate(1, 1)"></path><path fill="none" d="M 3.5 0.5 L 13.5 0.5 C 16.5 0.5 16.5 0.5 16.5 3.5 L 16.5 13.5 C 16.5 16.5 16.5 16.5 13.5 16.5 L 3.5 16.5 C 0.5 16.5 0.5 16.5 0.5 13.5 L 0.5 3.5 C 0.5 0.5 0.5 0.5 3.5 0.5"  stroke="black" stroke-opacity="0.1" stroke-width="1" transform="translate(1, 1)"></path><path fill="rgb(249, 249, 249)" fill-opacity=" .85" d="M 3.5 0.5 L 13.5 0.5 C 16.5 0.5 16.5 0.5 16.5 3.5 L 16.5 13.5 C 16.5 16.5 16.5 16.5 13.5 16.5 L 3.5 16.5 C 0.5 16.5 0.5 16.5 0.5 13.5 L 0.5 3.5 C 0.5 0.5 0.5 0.5 3.5 0.5"></path><text x="8"  style="font-size:12px;color:#333333;fill:#333333;" y="20"></text></g></svg>