<svg version="1.1" style="font-family:&quot;lucida grande&quot;, &quot;lucida sans unicode&quot;, arial, helvetica, sans-serif;font-size:12px;" xmlns="http://www.w3.org/2000/svg" width="584" height="400" viewBox="0 0 584 400"><desc>Created with Highcharts 4.1.6</desc><defs><clipPath id="highcharts-1"><rect x="0" y="0" width="442" height="280"></rect></clipPath></defs><rect x="0" y="0" width="584" height="400" strokeWidth="0" fill="#FFFFFF" class=" highcharts-background" stroke="transparent"></rect><g class="highcharts-grid" ></g><g class="highcharts-grid" ><path fill="none" d="M 71 326.5 L 513 326.5" stroke="#D8D8D8" stroke-width="1"  opacity="1"></path><path fill="none" d="M 71 256.5 L 513 256.5" stroke="#D8D8D8" stroke-width="1"  opacity="1"></path><path fill="none" d="M 71 186.5 L 513 186.5" stroke="#D8D8D8" stroke-width="1"  opacity="1"></path><path fill="none" d="M 71 116.5 L 513 116.5" stroke="#D8D8D8" stroke-width="1"  opacity="1"></path><path fill="none" d="M 71 45.5 L 513 45.5" stroke="#D8D8D8" stroke-width="1"  opacity="1"></path></g><g class="highcharts-grid" ><path fill="none" d="M 71 326.5 L 513 326.5" stroke="#D8D8D8" stroke-width="1"  opacity="1"></path><path fill="none" d="M 71 256.5 L 513 256.5" stroke="#D8D8D8" stroke-width="1"  opacity="1"></path><path fill="none" d="M 71 186.5 L 513 186.5" stroke="#D8D8D8" stroke-width="1"  opacity="1"></path><path fill="none" d="M 71 116.5 L 513 116.5" stroke="#D8D8D8" stroke-width="1"  opacity="1"></path><path fill="none" d="M 71 45.5 L 513 45.5" stroke="#D8D8D8" stroke-width="1"  opacity="1"></path></g><g class="highcharts-axis" ><path fill="none" d="M 217.5 326 L 217.5 336" stroke="#C0D0E0" stroke-width="1" opacity="1"></path><path fill="none" d="M 365.5 326 L 365.5 336" stroke="#C0D0E0" stroke-width="1" opacity="1"></path><path fill="none" d="M 513.5 326 L 513.5 336" stroke="#C0D0E0" stroke-width="1" opacity="1"></path><path fill="none" d="M 70.5 326 L 70.5 336" stroke="#C0D0E0" stroke-width="1" opacity="1"></path><path fill="none" d="M 71 326.5 L 513 326.5" stroke="#C0D0E0" stroke-width="1"  visibility="visible"></path></g><g class="highcharts-axis" ><text x="25"  text-anchor="middle" transform="translate(0,0) rotate(270 25 186)" class=" highcharts-yaxis-title" style="color:#707070;fill:#707070;" visibility="visible" y="186">Employees</text></g><g class="highcharts-axis" ><text x="559"  text-anchor="middle" transform="translate(0,0) rotate(90 559 186)" class=" highcharts-yaxis-title" style="color:#707070;fill:#707070;" visibility="visible" y="186"><tspan>Profit (millions)</tspan></text></g><g class="highcharts-series-group" ><g class="highcharts-series highcharts-tracker" visibility="visible"  transform="translate(71,46) scale(1 1)" style="" clip-path="url(#highcharts-1)"><rect x="27" y="71" width="36" height="210" fill="rgb(165,170,217)" fill-opacity="1" rx="0" ry="0"></rect><rect x="174" y="179" width="36" height="102" fill="rgb(165,170,217)" fill-opacity="1" rx="0" ry="0"></rect><rect x="321" y="253" width="36" height="28" fill="rgb(165,170,217)" fill-opacity="1" rx="0" ry="0"></rect></g><g class="highcharts-markers" visibility="visible"  transform="translate(71,46) scale(1 1)"></g><g class="highcharts-series highcharts-tracker" visibility="visible"  transform="translate(71,46) scale(1 1)" style="" clip-path="url(#highcharts-1)"><rect x="35" y="85" width="18" height="196" fill="rgb(126,86,134)" fill-opacity=".9" rx="0" ry="0"></rect><rect x="183" y="155" width="18" height="126" fill="rgb(126,86,134)" fill-opacity=".9" rx="0" ry="0"></rect><rect x="330" y="225" width="18" height="56" fill="rgb(126,86,134)" fill-opacity=".9" rx="0" ry="0"></rect></g><g class="highcharts-markers" visibility="visible"  transform="translate(71,46) scale(1 1)"></g><g class="highcharts-series highcharts-tracker" visibility="visible"  transform="translate(71,46) scale(1 1)" style="" clip-path="url(#highcharts-1)"><rect x="85" y="152" width="36" height="129" fill="rgb(248,161,63)" fill-opacity="1" rx="0" ry="0"></rect><rect x="233" y="156" width="36" height="125" fill="rgb(248,161,63)" fill-opacity="1" rx="0" ry="0"></rect><rect x="380" y="142" width="36" height="139" fill="rgb(248,161,63)" fill-opacity="1" rx="0" ry="0"></rect></g><g class="highcharts-markers" visibility="visible"  transform="translate(71,46) scale(1 1)"></g><g class="highcharts-series highcharts-tracker" visibility="visible"  transform="translate(71,46) scale(1 1)" style="" clip-path="url(#highcharts-1)"><rect x="94" y="138" width="18" height="143" fill="rgb(186,60,61)" fill-opacity=".9" rx="0" ry="0"></rect><rect x="242" y="142" width="18" height="139" fill="rgb(186,60,61)" fill-opacity=".9" rx="0" ry="0"></rect><rect x="389" y="135" width="18" height="146" fill="rgb(186,60,61)" fill-opacity=".9" rx="0" ry="0"></rect></g><g class="highcharts-markers" visibility="visible"  transform="translate(71,46) scale(1 1)"></g></g><text x="292" text-anchor="middle" class="highcharts-title"  style="color:#333333;font-size:18px;fill:#333333;width:520px;" y="24"><tspan>Efficiency Optimization by Branch</tspan></text><g class="highcharts-legend"  transform="translate(42,359)"><g ><g><g class="highcharts-legend-item"  transform="translate(8,3)"><text x="21" style="color:#333333;font-size:12px;font-weight:bold;cursor:pointer;fill:#333333;" text-anchor="start"  y="15">Employees</text><rect x="0" y="4" width="16" height="12"  fill="rgb(165,170,217)" fill-opacity="1"></rect></g><g class="highcharts-legend-item"  transform="translate(116,3)"><text x="21" y="15" style="color:#333333;font-size:12px;font-weight:bold;cursor:pointer;fill:#333333;" text-anchor="start" ><tspan>Employees Optimized</tspan></text><rect x="0" y="4" width="16" height="12"  fill="rgb(126,86,134)" fill-opacity=".9"></rect></g><g class="highcharts-legend-item"  transform="translate(293,3)"><text x="21" y="15" style="color:#333333;font-size:12px;font-weight:bold;cursor:pointer;fill:#333333;" text-anchor="start" >Profit</text><rect x="0" y="4" width="16" height="12"  fill="rgb(248,161,63)" fill-opacity="1"></rect></g><g class="highcharts-legend-item"  transform="translate(368,3)"><text x="21" y="15" style="color:#333333;font-size:12px;font-weight:bold;cursor:pointer;fill:#333333;" text-anchor="start" ><tspan>Profit Optimized</tspan></text><rect x="0" y="4" width="16" height="12"  fill="rgb(186,60,61)" fill-opacity=".9"></rect></g></g></g></g><g class="highcharts-axis-labels highcharts-xaxis-labels" ><text x="144.6" style="color:#606060;cursor:default;font-size:11px;fill:#606060;width:137px;text-overflow:clip;" text-anchor="middle" transform="translate(0,0)" y="345" opacity="1"><tspan>Seattle HQ</tspan></text><text x="292" style="color:#606060;cursor:default;font-size:11px;fill:#606060;width:137px;text-overflow:clip;" text-anchor="middle" transform="translate(0,0)" y="345" opacity="1"><tspan>San Francisco</tspan></text><text x="439.3" style="color:#606060;cursor:default;font-size:11px;fill:#606060;width:137px;text-overflow:clip;" text-anchor="middle" transform="translate(0,0)" y="345" opacity="1">Tokyo</text></g><g class="highcharts-axis-labels highcharts-yaxis-labels" ><text x="56" style="color:#606060;cursor:default;font-size:11px;fill:#606060;width:183px;text-overflow:clip;" text-anchor="end" transform="translate(0,0)" y="331" opacity="1">0</text><text x="56" style="color:#606060;cursor:default;font-size:11px;fill:#606060;width:183px;text-overflow:clip;" text-anchor="end" transform="translate(0,0)" y="261" opacity="1">50</text><text x="56" style="color:#606060;cursor:default;font-size:11px;fill:#606060;width:183px;text-overflow:clip;" text-anchor="end" transform="translate(0,0)" y="191" opacity="1">100</text><text x="56" style="color:#606060;cursor:default;font-size:11px;fill:#606060;width:183px;text-overflow:clip;" text-anchor="end" transform="translate(0,0)" y="121" opacity="1">150</text><text x="56" style="color:#606060;cursor:default;font-size:11px;fill:#606060;width:183px;text-overflow:clip;" text-anchor="end" transform="translate(0,0)" y="51" opacity="1">200</text></g><g class="highcharts-axis-labels highcharts-yaxis-labels" ><text x="528" style="color:#606060;cursor:default;font-size:11px;fill:#606060;width:183px;text-overflow:clip;" text-anchor="start" transform="translate(0,0)" y="331" opacity="1">0</text><text x="528" style="color:#606060;cursor:default;font-size:11px;fill:#606060;width:183px;text-overflow:clip;" text-anchor="start" transform="translate(0,0)" y="261" opacity="1">100</text><text x="528" style="color:#606060;cursor:default;font-size:11px;fill:#606060;width:183px;text-overflow:clip;" text-anchor="start" transform="translate(0,0)" y="191" opacity="1">200</text><text x="528" style="color:#606060;cursor:default;font-size:11px;fill:#606060;width:183px;text-overflow:clip;" text-anchor="start" transform="translate(0,0)" y="121" opacity="1">300</text><text x="528" style="color:#606060;cursor:default;font-size:11px;fill:#606060;width:183px;text-overflow:clip;" text-anchor="start" transform="translate(0,0)" y="51" opacity="1">400</text></g><g class="highcharts-tooltip"  style="cursor:default;padding:0;white-space:nowrap;" transform="translate(0,-9999)"><path fill="none" d="M 3.5 0.5 L 13.5 0.5 C 16.5 0.5 16.5 0.5 16.5 3.5 L 16.5 13.5 C 16.5 16.5 16.5 16.5 13.5 16.5 L 3.5 16.5 C 0.5 16.5 0.5 16.5 0.5 13.5 L 0.5 3.5 C 0.5 0.5 0.5 0.5 3.5 0.5"  stroke="black" stroke-opacity="0.0" stroke-width="5" transform="translate(1, 1)"></path><path fill="none" d="M 3.5 0.5 L 13.5 0.5 C 16.5 0.5 16.5 0.5 16.5 3.5 L 16.5 13.5 C 16.5 16.5 16.5 16.5 13.5 16.5 L 3.5 16.5 C 0.5 16.5 0.5 16.5 0.5 13.5 L 0.5 3.5 C 0.5 0.5 0.5 0.5 3.5 0.5"  stroke="black" stroke-opacity="0.0" stroke-width="3" transform="translate(1, 1)"></path><path fill="none" d="M 3.5 0.5 L 13.5 0.5 C 16.5 0.5 16.5 0.5 16.5 3.5 L 16.5 13.5 C 16.5 16.5 16.5 16.5 13.5 16.5 L 3.5 16.5 C 0.5 16.5 0.5 16.5 0.5 13.5 L 0.5 3.5 C 0.5 0.5 0.5 0.5 3.5 0.5"  stroke="black" stroke-opacity="0.1" stroke-width="1" transform="translate(1, 1)"></path><path fill="rgb(249, 249, 249)" fill-opacity=" .85" d="M 3.5 0.5 L 13.5 0.5 C 16.5 0.5 16.5 0.5 16.5 3.5 L 16.5 13.5 C 16.5 16.5 16.5 16.5 13.5 16.5 L 3.5 16.5 C 0.5 16.5 0.5 16.5 0.5 13.5 L 0.5 3.5 C 0.5 0.5 0.5 0.5 3.5 0.5"></path><text x="8"  style="font-size:12px;color:#333333;fill:#333333;" y="20"></text></g></svg>