<svg version="1.1" style="font-family: signika, serif; font-size: 12px; background-image: url(http://www.highcharts.com/samples/graphics/sand.png); background-position: initial initial; background-repeat: initial initial;" xmlns="http://www.w3.org/2000/svg" width="584" height="400" viewBox="0 0 584 400" xmlns:xlink="http://www.w3.org/1999/xlink"><style type="text/css"><![CDATA[@import url(http://fonts.googleapis.com/css?family=Signika:700);]]></style><desc>Created with Highcharts 4.1.7</desc><defs><clipPath id="highcharts-1"><rect x="0" y="0" width="355" height="302"></rect></clipPath><clipPath id="highcharts-2"><rect x="-99" y="-53" width="454" height="400"></rect></clipPath><clipPath id="highcharts-3"><rect x="0" y="0" width="355" height="302"></rect></clipPath></defs><g class="highcharts-grid" ></g><g class="highcharts-grid" ><path fill="none" d="M 83 355.5 L 438 355.5" stroke="#D8D8D8" stroke-width="1"  opacity="1"></path><path fill="none" d="M 83 295.5 L 438 295.5" stroke="#D8D8D8" stroke-width="1"  opacity="1"></path><path fill="none" d="M 83 234.5 L 438 234.5" stroke="#D8D8D8" stroke-width="1"  opacity="1"></path><path fill="none" d="M 83 174.5 L 438 174.5" stroke="#D8D8D8" stroke-width="1"  opacity="1"></path><path fill="none" d="M 83 113.5 L 438 113.5" stroke="#D8D8D8" stroke-width="1"  opacity="1"></path><path fill="none" d="M 83 52.5 L 438 52.5" stroke="#D8D8D8" stroke-width="1"  opacity="1"></path></g><g class="highcharts-grid" ></g><g class="highcharts-grid" ></g><g class="highcharts-axis" ><path fill="none" d="M 112.5 355 L 112.5 365" stroke="#C0D0E0" stroke-width="1" opacity="1"></path><path fill="none" d="M 141.5 355 L 141.5 365" stroke="#C0D0E0" stroke-width="1" opacity="1"></path><path fill="none" d="M 171.5 355 L 171.5 365" stroke="#C0D0E0" stroke-width="1" opacity="1"></path><path fill="none" d="M 200.5 355 L 200.5 365" stroke="#C0D0E0" stroke-width="1" opacity="1"></path><path fill="none" d="M 230.5 355 L 230.5 365" stroke="#C0D0E0" stroke-width="1" opacity="1"></path><path fill="none" d="M 260.5 355 L 260.5 365" stroke="#C0D0E0" stroke-width="1" opacity="1"></path><path fill="none" d="M 289.5 355 L 289.5 365" stroke="#C0D0E0" stroke-width="1" opacity="1"></path><path fill="none" d="M 319.5 355 L 319.5 365" stroke="#C0D0E0" stroke-width="1" opacity="1"></path><path fill="none" d="M 348.5 355 L 348.5 365" stroke="#C0D0E0" stroke-width="1" opacity="1"></path><path fill="none" d="M 378.5 355 L 378.5 365" stroke="#C0D0E0" stroke-width="1" opacity="1"></path><path fill="none" d="M 407.5 355 L 407.5 365" stroke="#C0D0E0" stroke-width="1" opacity="1"></path><path fill="none" d="M 438.5 355 L 438.5 365" stroke="#C0D0E0" stroke-width="1" opacity="1"></path><path fill="none" d="M 82.5 355 L 82.5 365" stroke="#C0D0E0" stroke-width="1" opacity="1"></path><path fill="none" d="M 83 355.5 L 438 355.5" stroke="#C0D0E0" stroke-width="1"  visibility="visible"></path></g><g class="highcharts-axis" ><text x="485.7"  text-anchor="middle" transform="translate(0,0) rotate(90 485.7 204)" class=" highcharts-yaxis-title" style="color:#8d4654;fill:#8d4654;" visibility="visible" y="204">Temperature</text></g><g class="highcharts-axis" ><text x="21.6"  text-anchor="middle" transform="translate(0,0) rotate(270 21.6 204)" class=" highcharts-yaxis-title" style="color:#f45b5b;fill:#f45b5b;" visibility="visible" y="204">Rainfall</text></g><g class="highcharts-axis" ><text x="561.5"  text-anchor="middle" transform="translate(0,0) rotate(90 561.5 204)" class=" highcharts-yaxis-title" style="color:#8085e9;fill:#8085e9;" visibility="visible" y="204"><tspan>Sea-Level Pressure</tspan></text></g><g class="highcharts-series-group" ><g class="highcharts-series highcharts-tracker" visibility="visible"  transform="translate(83,53) scale(1 1)" style="" clip-path="url(#highcharts-1)"><rect x="7.5" y="242.5" width="15" height="60" stroke="black" stroke-width="5" fill="none" rx="0" ry="0"  stroke-opacity="0.0" transform="translate(1, 1)"></rect><rect x="7.5" y="242.5" width="15" height="60" stroke="black" stroke-width="3" fill="none" rx="0" ry="0"  stroke-opacity="0.0" transform="translate(1, 1)"></rect><rect x="7.5" y="242.5" width="15" height="60" stroke="black" stroke-width="1" fill="none" rx="0" ry="0"  stroke-opacity="0.1" transform="translate(1, 1)"></rect><rect x="7.5" y="242.5" width="15" height="60" stroke="#FFFFFF" stroke-width="1" fill="#f45b5b" rx="0" ry="0"></rect><rect x="36.5" y="216.5" width="15" height="86" stroke="black" stroke-width="5" fill="none" rx="0" ry="0"  stroke-opacity="0.0" transform="translate(1, 1)"></rect><rect x="36.5" y="216.5" width="15" height="86" stroke="black" stroke-width="3" fill="none" rx="0" ry="0"  stroke-opacity="0.0" transform="translate(1, 1)"></rect><rect x="36.5" y="216.5" width="15" height="86" stroke="black" stroke-width="1" fill="none" rx="0" ry="0"  stroke-opacity="0.1" transform="translate(1, 1)"></rect><rect x="36.5" y="216.5" width="15" height="86" stroke="#FFFFFF" stroke-width="1" fill="#f45b5b" rx="0" ry="0"></rect><rect x="66.5" y="173.5" width="15" height="129" stroke="black" stroke-width="5" fill="none" rx="0" ry="0"  stroke-opacity="0.0" transform="translate(1, 1)"></rect><rect x="66.5" y="173.5" width="15" height="129" stroke="black" stroke-width="3" fill="none" rx="0" ry="0"  stroke-opacity="0.0" transform="translate(1, 1)"></rect><rect x="66.5" y="173.5" width="15" height="129" stroke="black" stroke-width="1" fill="none" rx="0" ry="0"  stroke-opacity="0.1" transform="translate(1, 1)"></rect><rect x="66.5" y="173.5" width="15" height="129" stroke="#FFFFFF" stroke-width="1" fill="#f45b5b" rx="0" ry="0"></rect><rect x="95.5" y="146.5" width="15" height="156" stroke="black" stroke-width="5" fill="none" rx="0" ry="0"  stroke-opacity="0.0" transform="translate(1, 1)"></rect><rect x="95.5" y="146.5" width="15" height="156" stroke="black" stroke-width="3" fill="none" rx="0" ry="0"  stroke-opacity="0.0" transform="translate(1, 1)"></rect><rect x="95.5" y="146.5" width="15" height="156" stroke="black" stroke-width="1" fill="none" rx="0" ry="0"  stroke-opacity="0.1" transform="translate(1, 1)"></rect><rect x="95.5" y="146.5" width="15" height="156" stroke="#FFFFFF" stroke-width="1" fill="#f45b5b" rx="0" ry="0"></rect><rect x="125.5" y="128.5" width="15" height="174" stroke="black" stroke-width="5" fill="none" rx="0" ry="0"  stroke-opacity="0.0" transform="translate(1, 1)"></rect><rect x="125.5" y="128.5" width="15" height="174" stroke="black" stroke-width="3" fill="none" rx="0" ry="0"  stroke-opacity="0.0" transform="translate(1, 1)"></rect><rect x="125.5" y="128.5" width="15" height="174" stroke="black" stroke-width="1" fill="none" rx="0" ry="0"  stroke-opacity="0.1" transform="translate(1, 1)"></rect><rect x="125.5" y="128.5" width="15" height="174" stroke="#FFFFFF" stroke-width="1" fill="#f45b5b" rx="0" ry="0"></rect><rect x="155.5" y="89.5" width="15" height="213" stroke="black" stroke-width="5" fill="none" rx="0" ry="0"  stroke-opacity="0.0" transform="translate(1, 1)"></rect><rect x="155.5" y="89.5" width="15" height="213" stroke="black" stroke-width="3" fill="none" rx="0" ry="0"  stroke-opacity="0.0" transform="translate(1, 1)"></rect><rect x="155.5" y="89.5" width="15" height="213" stroke="black" stroke-width="1" fill="none" rx="0" ry="0"  stroke-opacity="0.1" transform="translate(1, 1)"></rect><rect x="155.5" y="89.5" width="15" height="213" stroke="#FFFFFF" stroke-width="1" fill="#f45b5b" rx="0" ry="0"></rect><rect x="184.5" y="138.5" width="15" height="164" stroke="black" stroke-width="5" fill="none" rx="0" ry="0"  stroke-opacity="0.0" transform="translate(1, 1)"></rect><rect x="184.5" y="138.5" width="15" height="164" stroke="black" stroke-width="3" fill="none" rx="0" ry="0"  stroke-opacity="0.0" transform="translate(1, 1)"></rect><rect x="184.5" y="138.5" width="15" height="164" stroke="black" stroke-width="1" fill="none" rx="0" ry="0"  stroke-opacity="0.1" transform="translate(1, 1)"></rect><rect x="184.5" y="138.5" width="15" height="164" stroke="#FFFFFF" stroke-width="1" fill="#f45b5b" rx="0" ry="0"></rect><rect x="214.5" y="123.5" width="15" height="179" stroke="black" stroke-width="5" fill="none" rx="0" ry="0"  stroke-opacity="0.0" transform="translate(1, 1)"></rect><rect x="214.5" y="123.5" width="15" height="179" stroke="black" stroke-width="3" fill="none" rx="0" ry="0"  stroke-opacity="0.0" transform="translate(1, 1)"></rect><rect x="214.5" y="123.5" width="15" height="179" stroke="black" stroke-width="1" fill="none" rx="0" ry="0"  stroke-opacity="0.1" transform="translate(1, 1)"></rect><rect x="214.5" y="123.5" width="15" height="179" stroke="#FFFFFF" stroke-width="1" fill="#f45b5b" rx="0" ry="0"></rect><rect x="243.5" y="41.5" width="15" height="261" stroke="black" stroke-width="5" fill="none" rx="0" ry="0"  stroke-opacity="0.0" transform="translate(1, 1)"></rect><rect x="243.5" y="41.5" width="15" height="261" stroke="black" stroke-width="3" fill="none" rx="0" ry="0"  stroke-opacity="0.0" transform="translate(1, 1)"></rect><rect x="243.5" y="41.5" width="15" height="261" stroke="black" stroke-width="1" fill="none" rx="0" ry="0"  stroke-opacity="0.1" transform="translate(1, 1)"></rect><rect x="243.5" y="41.5" width="15" height="261" stroke="#FFFFFF" stroke-width="1" fill="#f45b5b" rx="0" ry="0"></rect><rect x="273.5" y="68.5" width="15" height="234" stroke="black" stroke-width="5" fill="none" rx="0" ry="0"  stroke-opacity="0.0" transform="translate(1, 1)"></rect><rect x="273.5" y="68.5" width="15" height="234" stroke="black" stroke-width="3" fill="none" rx="0" ry="0"  stroke-opacity="0.0" transform="translate(1, 1)"></rect><rect x="273.5" y="68.5" width="15" height="234" stroke="black" stroke-width="1" fill="none" rx="0" ry="0"  stroke-opacity="0.1" transform="translate(1, 1)"></rect><rect x="273.5" y="68.5" width="15" height="234" stroke="#FFFFFF" stroke-width="1" fill="#f45b5b" rx="0" ry="0"></rect><rect x="303.5" y="187.5" width="15" height="115" stroke="black" stroke-width="5" fill="none" rx="0" ry="0"  stroke-opacity="0.0" transform="translate(1, 1)"></rect><rect x="303.5" y="187.5" width="15" height="115" stroke="black" stroke-width="3" fill="none" rx="0" ry="0"  stroke-opacity="0.0" transform="translate(1, 1)"></rect><rect x="303.5" y="187.5" width="15" height="115" stroke="black" stroke-width="1" fill="none" rx="0" ry="0"  stroke-opacity="0.1" transform="translate(1, 1)"></rect><rect x="303.5" y="187.5" width="15" height="115" stroke="#FFFFFF" stroke-width="1" fill="#f45b5b" rx="0" ry="0"></rect><rect x="332.5" y="236.5" width="15" height="66" stroke="black" stroke-width="5" fill="none" rx="0" ry="0"  stroke-opacity="0.0" transform="translate(1, 1)"></rect><rect x="332.5" y="236.5" width="15" height="66" stroke="black" stroke-width="3" fill="none" rx="0" ry="0"  stroke-opacity="0.0" transform="translate(1, 1)"></rect><rect x="332.5" y="236.5" width="15" height="66" stroke="black" stroke-width="1" fill="none" rx="0" ry="0"  stroke-opacity="0.1" transform="translate(1, 1)"></rect><rect x="332.5" y="236.5" width="15" height="66" stroke="#FFFFFF" stroke-width="1" fill="#f45b5b" rx="0" ry="0"></rect></g><g class="highcharts-markers" visibility="visible"  transform="translate(83,53) scale(1 1)"></g><g class="highcharts-series" visibility="visible"  transform="translate(83,53) scale(1 1)" clip-path="url(#highcharts-3)"><path fill="none" d="M 14.7 181.2 C 14.7 181.2 32.5 181.2 44.3 181.2 C 56.2 181.2 62.1 181.2 73.9 182.7 C 85.7 184.2 91.7 182.7 103.5 188.7 C 115.3 194.7 121.2 218.9 133.1 237.0 C 144.9 255.1 150.8 279.3 162.7 279.3 C 174.5 279.3 180.4 279.3 192.2 277.8 C 204.1 276.3 210.0 277.8 221.8 268.7 C 233.7 259.7 239.6 245.2 251.4 224.9 C 263.2 204.7 269.2 183.0 281.0 167.6 C 292.8 152.2 298.7 147.9 310.6 147.9 C 322.4 147.9 340.2 170.6 340.2 170.6" stroke="black" stroke-width="5"  stroke-dasharray="2,2"  stroke-opacity="0.0" transform="translate(1, 1)"></path><path fill="none" d="M 14.7 181.2 C 14.7 181.2 32.5 181.2 44.3 181.2 C 56.2 181.2 62.1 181.2 73.9 182.7 C 85.7 184.2 91.7 182.7 103.5 188.7 C 115.3 194.7 121.2 218.9 133.1 237.0 C 144.9 255.1 150.8 279.3 162.7 279.3 C 174.5 279.3 180.4 279.3 192.2 277.8 C 204.1 276.3 210.0 277.8 221.8 268.7 C 233.7 259.7 239.6 245.2 251.4 224.9 C 263.2 204.7 269.2 183.0 281.0 167.6 C 292.8 152.2 298.7 147.9 310.6 147.9 C 322.4 147.9 340.2 170.6 340.2 170.6" stroke="black" stroke-width="3"  stroke-dasharray="2,2"  stroke-opacity="0.0" transform="translate(1, 1)"></path><path fill="none" d="M 14.7 181.2 C 14.7 181.2 32.5 181.2 44.3 181.2 C 56.2 181.2 62.1 181.2 73.9 182.7 C 85.7 184.2 91.7 182.7 103.5 188.7 C 115.3 194.7 121.2 218.9 133.1 237.0 C 144.9 255.1 150.8 279.3 162.7 279.3 C 174.5 279.3 180.4 279.3 192.2 277.8 C 204.1 276.3 210.0 277.8 221.8 268.7 C 233.7 259.7 239.6 245.2 251.4 224.9 C 263.2 204.7 269.2 183.0 281.0 167.6 C 292.8 152.2 298.7 147.9 310.6 147.9 C 322.4 147.9 340.2 170.6 340.2 170.6" stroke="black" stroke-width="1"  stroke-dasharray="2,2"  stroke-opacity="0.1" transform="translate(1, 1)"></path><path fill="none" d="M 14.7 181.2 C 14.7 181.2 32.5 181.2 44.3 181.2 C 56.2 181.2 62.1 181.2 73.9 182.7 C 85.7 184.2 91.7 182.7 103.5 188.7 C 115.3 194.7 121.2 218.9 133.1 237.0 C 144.9 255.1 150.8 279.3 162.7 279.3 C 174.5 279.3 180.4 279.3 192.2 277.8 C 204.1 276.3 210.0 277.8 221.8 268.7 C 233.7 259.7 239.6 245.2 251.4 224.9 C 263.2 204.7 269.2 183.0 281.0 167.6 C 292.8 152.2 298.7 147.9 310.6 147.9 C 322.4 147.9 340.2 170.6 340.2 170.6" stroke="#8085e9" stroke-width="2"  stroke-dasharray="2,2"></path><path fill="none" d="M 4.7 181.2 L 14.7 181.2 C 14.7 181.2 32.5 181.2 44.3 181.2 C 56.2 181.2 62.1 181.2 73.9 182.7 C 85.7 184.2 91.7 182.7 103.5 188.7 C 115.3 194.7 121.2 218.9 133.1 237.0 C 144.9 255.1 150.8 279.3 162.7 279.3 C 174.5 279.3 180.4 279.3 192.2 277.8 C 204.1 276.3 210.0 277.8 221.8 268.7 C 233.7 259.7 239.6 245.2 251.4 224.9 C 263.2 204.7 269.2 183.0 281.0 167.6 C 292.8 152.2 298.7 147.9 310.6 147.9 C 322.4 147.9 340.2 170.6 340.2 170.6 L 350.2 170.6" stroke-linejoin="round" visibility="visible" stroke="rgb(192,192,192)" stroke-opacity="0.0" stroke-width="22"  class=" highcharts-tracker" style=""></path></g><g class="highcharts-markers highcharts-tracker" visibility="visible"  transform="translate(83,53) scale(1 1)" clip-path="url(#highcharts-2)" style=""></g><g class="highcharts-series" visibility="visible"  transform="translate(83,53) scale(1 1)" clip-path="url(#highcharts-3)"><path fill="none" d="M 14.7 277.8 C 14.7 277.8 32.5 279.0 44.3 279.0 C 56.2 279.0 62.1 266.0 73.9 247.6 C 85.7 229.2 91.7 208.2 103.5 187.2 C 115.3 166.2 121.2 159.4 133.1 142.5 C 144.9 125.6 150.8 119.5 162.7 102.6 C 174.5 85.7 180.4 70.0 192.2 57.9 C 204.1 45.9 210.0 42.2 221.8 42.2 C 233.7 42.2 239.6 61.1 251.4 80.9 C 263.2 100.7 269.2 118.6 281.0 141.3 C 292.8 164.0 298.7 173.4 310.6 194.4 C 322.4 215.5 340.2 246.4 340.2 246.4" stroke="black" stroke-width="5"  stroke-linejoin="round" stroke-linecap="round"  stroke-opacity="0.0" transform="translate(1, 1)"></path><path fill="none" d="M 14.7 277.8 C 14.7 277.8 32.5 279.0 44.3 279.0 C 56.2 279.0 62.1 266.0 73.9 247.6 C 85.7 229.2 91.7 208.2 103.5 187.2 C 115.3 166.2 121.2 159.4 133.1 142.5 C 144.9 125.6 150.8 119.5 162.7 102.6 C 174.5 85.7 180.4 70.0 192.2 57.9 C 204.1 45.9 210.0 42.2 221.8 42.2 C 233.7 42.2 239.6 61.1 251.4 80.9 C 263.2 100.7 269.2 118.6 281.0 141.3 C 292.8 164.0 298.7 173.4 310.6 194.4 C 322.4 215.5 340.2 246.4 340.2 246.4" stroke="black" stroke-width="3"  stroke-linejoin="round" stroke-linecap="round"  stroke-opacity="0.0" transform="translate(1, 1)"></path><path fill="none" d="M 14.7 277.8 C 14.7 277.8 32.5 279.0 44.3 279.0 C 56.2 279.0 62.1 266.0 73.9 247.6 C 85.7 229.2 91.7 208.2 103.5 187.2 C 115.3 166.2 121.2 159.4 133.1 142.5 C 144.9 125.6 150.8 119.5 162.7 102.6 C 174.5 85.7 180.4 70.0 192.2 57.9 C 204.1 45.9 210.0 42.2 221.8 42.2 C 233.7 42.2 239.6 61.1 251.4 80.9 C 263.2 100.7 269.2 118.6 281.0 141.3 C 292.8 164.0 298.7 173.4 310.6 194.4 C 322.4 215.5 340.2 246.4 340.2 246.4" stroke="black" stroke-width="1"  stroke-linejoin="round" stroke-linecap="round"  stroke-opacity="0.1" transform="translate(1, 1)"></path><path fill="none" d="M 14.7 277.8 C 14.7 277.8 32.5 279.0 44.3 279.0 C 56.2 279.0 62.1 266.0 73.9 247.6 C 85.7 229.2 91.7 208.2 103.5 187.2 C 115.3 166.2 121.2 159.4 133.1 142.5 C 144.9 125.6 150.8 119.5 162.7 102.6 C 174.5 85.7 180.4 70.0 192.2 57.9 C 204.1 45.9 210.0 42.2 221.8 42.2 C 233.7 42.2 239.6 61.1 251.4 80.9 C 263.2 100.7 269.2 118.6 281.0 141.3 C 292.8 164.0 298.7 173.4 310.6 194.4 C 322.4 215.5 340.2 246.4 340.2 246.4" stroke="#8d4654" stroke-width="2"  stroke-linejoin="round" stroke-linecap="round"></path><path fill="none" d="M 4.7 277.8 L 14.7 277.8 C 14.7 277.8 32.5 279.0 44.3 279.0 C 56.2 279.0 62.1 266.0 73.9 247.6 C 85.7 229.2 91.7 208.2 103.5 187.2 C 115.3 166.2 121.2 159.4 133.1 142.5 C 144.9 125.6 150.8 119.5 162.7 102.6 C 174.5 85.7 180.4 70.0 192.2 57.9 C 204.1 45.9 210.0 42.2 221.8 42.2 C 233.7 42.2 239.6 61.1 251.4 80.9 C 263.2 100.7 269.2 118.6 281.0 141.3 C 292.8 164.0 298.7 173.4 310.6 194.4 C 322.4 215.5 340.2 246.4 340.2 246.4 L 350.2 246.4" stroke-linejoin="round" visibility="visible" stroke="rgb(192,192,192)" stroke-opacity="0.0" stroke-width="22"  class=" highcharts-tracker" style=""></path></g><g class="highcharts-markers highcharts-tracker" visibility="visible"  transform="translate(83,53) scale(1 1)" clip-path="url(#highcharts-2)" style=""><path fill="#8d4654" d="M 340 242.4 L 344 246.4 340 250.4 336 246.4 Z"></path><path fill="#8d4654" d="M 310 190.4 L 314 194.4 310 198.4 306 194.4 Z"></path><path fill="#8d4654" d="M 281 137.3 L 285 141.3 281 145.3 277 141.3 Z"></path><path fill="#8d4654" d="M 251 76.9 L 255 80.9 251 84.9 247 80.9 Z"></path><path fill="#8d4654" d="M 221 38.2 L 225 42.2 221 46.2 217 42.2 Z"></path><path fill="#8d4654" d="M 192 53.9 L 196 57.9 192 61.9 188 57.9 Z"></path><path fill="#8d4654" d="M 162 98.6 L 166 102.6 162 106.6 158 102.6 Z"></path><path fill="#8d4654" d="M 133 138.5 L 137 142.5 133 146.5 129 142.5 Z"></path><path fill="#8d4654" d="M 103 183.2 L 107 187.2 103 191.2 99 187.2 Z"></path><path fill="#8d4654" d="M 73 243.6 L 77 247.6 73 251.6 69 247.6 Z"></path><path fill="#8d4654" d="M 44 275.0 L 48 279.0 44 283.0 40 279.0 Z"></path><path fill="#8d4654" d="M 14 273.8 L 18 277.8 14 281.8 10 277.8 Z"></path></g></g><text x="292" text-anchor="middle" class="highcharts-title"  style="color:black;font-size:16px;font-weight:bold;fill:black;width:520px;" y="22"><tspan>Average Monthly Weather Data for Tokyo</tspan></text><text x="292" text-anchor="middle" class="highcharts-subtitle"  style="color:black;fill:black;width:520px;" y="40"><tspan>Source: WorldClimate.com</tspan></text><g class="highcharts-legend"  transform="translate(90,65)"><rect x="0" y="0" width="142" height="50" strokeWidth="0" fill="#FFFFFF" visibility="visible"></rect><g ><g><g class="highcharts-legend-item"  transform="translate(8,3)"><text x="21" style="color:#333333;font-size:13px;font-weight:bold;cursor:pointer;fill:#333333;" text-anchor="start"  y="16">Rainfall</text><rect x="0" y="4" width="16" height="13"  fill="#f45b5b"></rect></g><g class="highcharts-legend-item"  transform="translate(8,16)"><path fill="none" d="M 0 12 L 16 12" stroke-dasharray="2,2" stroke="#8085e9" stroke-width="2"></path><text x="21" y="16" style="color:#333333;font-size:13px;font-weight:bold;cursor:pointer;fill:#333333;" text-anchor="start" ><tspan>Sea-Level Pressure</tspan></text></g><g class="highcharts-legend-item"  transform="translate(8,29)"><path fill="none" d="M 0 12 L 16 12" stroke="#8d4654" stroke-width="2"></path><path fill="#8d4654" d="M 8 8 L 12 12 8 16 4 12 Z"></path><text x="21" y="16" style="color:#333333;font-size:13px;font-weight:bold;cursor:pointer;fill:#333333;" text-anchor="start" >Temperature</text></g></g></g></g><g class="highcharts-axis-labels highcharts-xaxis-labels" ><text x="100.3" style="color:#6e6e70;cursor:default;font-size:11px;fill:#6e6e70;width:400px;text-overflow:ellipsis;" text-anchor="end" transform="translate(0,0) rotate(-45 100.3 371)" y="371" opacity="1"><tspan>Jan</tspan></text><text x="129.9" style="color:#6e6e70;cursor:default;font-size:11px;fill:#6e6e70;width:400px;text-overflow:ellipsis;" text-anchor="end" transform="translate(0,0) rotate(-45 129.9 371)" y="371" opacity="1"><tspan>Feb</tspan></text><text x="159.5" style="color:#6e6e70;cursor:default;font-size:11px;fill:#6e6e70;width:400px;text-overflow:ellipsis;" text-anchor="end" transform="translate(0,0) rotate(-45 159.5 371)" y="371" opacity="1"><tspan>Mar</tspan></text><text x="189.1" style="color:#6e6e70;cursor:default;font-size:11px;fill:#6e6e70;width:400px;text-overflow:ellipsis;" text-anchor="end" transform="translate(0,0) rotate(-45 189.1 371)" y="371" opacity="1"><tspan>Apr</tspan></text><text x="218.7" style="color:#6e6e70;cursor:default;font-size:11px;fill:#6e6e70;width:400px;text-overflow:ellipsis;" text-anchor="end" transform="translate(0,0) rotate(-45 218.7 371)" y="371" opacity="1"><tspan>May</tspan></text><text x="248.3" style="color:#6e6e70;cursor:default;font-size:11px;fill:#6e6e70;width:400px;text-overflow:ellipsis;" text-anchor="end" transform="translate(0,0) rotate(-45 248.3 371)" y="371" opacity="1"><tspan>Jun</tspan></text><text x="277.8" style="color:#6e6e70;cursor:default;font-size:11px;fill:#6e6e70;width:400px;text-overflow:ellipsis;" text-anchor="end" transform="translate(0,0) rotate(-45 277.8 371)" y="371" opacity="1"><tspan>Jul</tspan></text><text x="307.4" style="color:#6e6e70;cursor:default;font-size:11px;fill:#6e6e70;width:400px;text-overflow:ellipsis;" text-anchor="end" transform="translate(0,0) rotate(-45 307.4 371)" y="371" opacity="1"><tspan>Aug</tspan></text><text x="337.0" style="color:#6e6e70;cursor:default;font-size:11px;fill:#6e6e70;width:400px;text-overflow:ellipsis;" text-anchor="end" transform="translate(0,0) rotate(-45 337.0 371)" y="371" opacity="1"><tspan>Sep</tspan></text><text x="366.6" style="color:#6e6e70;cursor:default;font-size:11px;fill:#6e6e70;width:400px;text-overflow:ellipsis;" text-anchor="end" transform="translate(0,0) rotate(-45 366.6 371)" y="371" opacity="1"><tspan>Oct</tspan></text><text x="396.2" style="color:#6e6e70;cursor:default;font-size:11px;fill:#6e6e70;width:400px;text-overflow:ellipsis;" text-anchor="end" transform="translate(0,0) rotate(-45 396.2 371)" y="371" opacity="1"><tspan>Nov</tspan></text><text x="425.8" style="color:#6e6e70;cursor:default;font-size:11px;fill:#6e6e70;width:400px;text-overflow:ellipsis;" text-anchor="end" transform="translate(0,0) rotate(-45 425.8 371)" y="371" opacity="1"><tspan>Dec</tspan></text></g><g class="highcharts-axis-labels highcharts-yaxis-labels" ><text x="453" style="color:#8d4654;cursor:default;font-size:11px;fill:#8d4654;width:183px;text-overflow:clip;" text-anchor="start" transform="translate(0,0)" y="361" opacity="1">5°C</text><text x="453" style="color:#8d4654;cursor:default;font-size:11px;fill:#8d4654;width:183px;text-overflow:clip;" text-anchor="start" transform="translate(0,0)" y="300" opacity="1">10°C</text><text x="453" style="color:#8d4654;cursor:default;font-size:11px;fill:#8d4654;width:183px;text-overflow:clip;" text-anchor="start" transform="translate(0,0)" y="240" opacity="1">15°C</text><text x="453" style="color:#8d4654;cursor:default;font-size:11px;fill:#8d4654;width:183px;text-overflow:clip;" text-anchor="start" transform="translate(0,0)" y="179" opacity="1">20°C</text><text x="453" style="color:#8d4654;cursor:default;font-size:11px;fill:#8d4654;width:183px;text-overflow:clip;" text-anchor="start" transform="translate(0,0)" y="119" opacity="1">25°C</text><text x="453" style="color:#8d4654;cursor:default;font-size:11px;fill:#8d4654;width:183px;text-overflow:clip;" text-anchor="start" transform="translate(0,0)" y="59" opacity="1">30°C</text></g><g class="highcharts-axis-labels highcharts-yaxis-labels" ><text x="68" style="color:#f45b5b;cursor:default;font-size:11px;fill:#f45b5b;width:183px;text-overflow:clip;" text-anchor="end" transform="translate(0,0)" y="361" opacity="1"><tspan>0 mm</tspan></text><text x="68" style="color:#f45b5b;cursor:default;font-size:11px;fill:#f45b5b;width:183px;text-overflow:clip;" text-anchor="end" transform="translate(0,0)" y="300" opacity="1"><tspan>50 mm</tspan></text><text x="68" style="color:#f45b5b;cursor:default;font-size:11px;fill:#f45b5b;width:183px;text-overflow:clip;" text-anchor="end" transform="translate(0,0)" y="240" opacity="1"><tspan>100 mm</tspan></text><text x="68" style="color:#f45b5b;cursor:default;font-size:11px;fill:#f45b5b;width:183px;text-overflow:clip;" text-anchor="end" transform="translate(0,0)" y="179" opacity="1"><tspan>150 mm</tspan></text><text x="68" style="color:#f45b5b;cursor:default;font-size:11px;fill:#f45b5b;width:183px;text-overflow:clip;" text-anchor="end" transform="translate(0,0)" y="119" opacity="1"><tspan>200 mm</tspan></text><text x="68" style="color:#f45b5b;cursor:default;font-size:11px;fill:#f45b5b;width:183px;text-overflow:clip;" text-anchor="end" transform="translate(0,0)" y="59" opacity="1"><tspan>250 mm</tspan></text></g><g class="highcharts-axis-labels highcharts-yaxis-labels" ><text x="512.7" style="color:#8085e9;cursor:default;font-size:11px;fill:#8085e9;width:183px;text-overflow:clip;" text-anchor="start" transform="translate(0,0)" y="361" opacity="1"><tspan>1008 mb</tspan></text><text x="512.7" style="color:#8085e9;cursor:default;font-size:11px;fill:#8085e9;width:183px;text-overflow:clip;" text-anchor="start" transform="translate(0,0)" y="300" opacity="1"><tspan>1012 mb</tspan></text><text x="512.7" style="color:#8085e9;cursor:default;font-size:11px;fill:#8085e9;width:183px;text-overflow:clip;" text-anchor="start" transform="translate(0,0)" y="240" opacity="1"><tspan>1016 mb</tspan></text><text x="512.7" style="color:#8085e9;cursor:default;font-size:11px;fill:#8085e9;width:183px;text-overflow:clip;" text-anchor="start" transform="translate(0,0)" y="179" opacity="1"><tspan>1020 mb</tspan></text><text x="512.7" style="color:#8085e9;cursor:default;font-size:11px;fill:#8085e9;width:183px;text-overflow:clip;" text-anchor="start" transform="translate(0,0)" y="119" opacity="1"><tspan>1024 mb</tspan></text><text x="512.7" style="color:#8085e9;cursor:default;font-size:11px;fill:#8085e9;width:183px;text-overflow:clip;" text-anchor="start" transform="translate(0,0)" y="59" opacity="1"><tspan>1028 mb</tspan></text></g><g class="highcharts-tooltip"  style="cursor:default;padding:0;white-space:nowrap;" transform="translate(0,-9999)"><path fill="none" d="M 3 0 L 13 0 C 16 0 16 0 16 3 L 16 13 C 16 16 16 16 13 16 L 3 16 C 0 16 0 16 0 13 L 0 3 C 0 0 0 0 3 0"  stroke="black" stroke-opacity="0.0" stroke-width="5" transform="translate(1, 1)"></path><path fill="none" d="M 3 0 L 13 0 C 16 0 16 0 16 3 L 16 13 C 16 16 16 16 13 16 L 3 16 C 0 16 0 16 0 13 L 0 3 C 0 0 0 0 3 0"  stroke="black" stroke-opacity="0.0" stroke-width="3" transform="translate(1, 1)"></path><path fill="none" d="M 3 0 L 13 0 C 16 0 16 0 16 3 L 16 13 C 16 16 16 16 13 16 L 3 16 C 0 16 0 16 0 13 L 0 3 C 0 0 0 0 3 0"  stroke="black" stroke-opacity="0.1" stroke-width="1" transform="translate(1, 1)"></path><path fill="rgb(249, 249, 249)" fill-opacity=" .85" d="M 3 0 L 13 0 C 16 0 16 0 16 3 L 16 13 C 16 16 16 16 13 16 L 3 16 C 0 16 0 16 0 13 L 0 3 C 0 0 0 0 3 0"></path><text x="8"  style="font-size:12px;color:#333333;fill:#333333;" y="20"></text></g></svg>