<svg version="1.1" style="font-family:&quot;lucida grande&quot;, &quot;lucida sans unicode&quot;, arial, helvetica, sans-serif;font-size:12px;" xmlns="http://www.w3.org/2000/svg" width="584" height="400" viewBox="0 0 584 400"><desc>Created with Highcharts 4.1.6</desc><defs><clipPath id="highcharts-1"><rect x="0" y="0" width="507" height="280"></rect></clipPath><clipPath id="highcharts-2"><rect x="-99" y="-46" width="606" height="400"></rect></clipPath><clipPath id="highcharts-3"><rect x="0" y="0" width="507" height="280"></rect></clipPath></defs><rect x="0" y="0" width="584" height="400" strokeWidth="0" fill="#FFFFFF" class=" highcharts-background" stroke="transparent"></rect><g class="highcharts-grid" ></g><g class="highcharts-grid" ><path fill="none" d="M 67 326.5 L 574 326.5" stroke="#D8D8D8" stroke-width="1"  opacity="1"></path><path fill="none" d="M 67 256.5 L 574 256.5" stroke="#D8D8D8" stroke-width="1"  opacity="1"></path><path fill="none" d="M 67 186.5 L 574 186.5" stroke="#D8D8D8" stroke-width="1"  opacity="1"></path><path fill="none" d="M 67 116.5 L 574 116.5" stroke="#D8D8D8" stroke-width="1"  opacity="1"></path><path fill="none" d="M 67 45.5 L 574 45.5" stroke="#D8D8D8" stroke-width="1"  opacity="1"></path></g><g class="highcharts-axis" ><path fill="none" d="M 167.5 326 L 167.5 336" stroke="#C0D0E0" stroke-width="1" opacity="1"></path><path fill="none" d="M 269.5 326 L 269.5 336" stroke="#C0D0E0" stroke-width="1" opacity="1"></path><path fill="none" d="M 370.5 326 L 370.5 336" stroke="#C0D0E0" stroke-width="1" opacity="1"></path><path fill="none" d="M 472.5 326 L 472.5 336" stroke="#C0D0E0" stroke-width="1" opacity="1"></path><path fill="none" d="M 574.5 326 L 574.5 336" stroke="#C0D0E0" stroke-width="1" opacity="1"></path><path fill="none" d="M 66.5 326 L 66.5 336" stroke="#C0D0E0" stroke-width="1" opacity="1"></path><path fill="none" d="M 67 326.5 L 574 326.5" stroke="#C0D0E0" stroke-width="1"  visibility="visible"></path></g><g class="highcharts-axis" ><text x="25"  text-anchor="middle" transform="translate(0,0) rotate(270 25 186)" class=" highcharts-yaxis-title" style="color:#707070;fill:#707070;" visibility="visible" y="186">Values</text></g><text x="117" y="76"  style="position:absolute;color:black;fill:black;"><tspan>Total fruit consumption</tspan></text><g class="highcharts-series-group" ><g class="highcharts-series highcharts-tracker" visibility="visible"  transform="translate(67,46) scale(1 1)" style="" clip-path="url(#highcharts-1)"><rect x="21.5" y="196.5" width="17" height="84" stroke="#FFFFFF" stroke-width="1" fill="#7cb5ec" rx="0" ry="0"></rect><rect x="123.5" y="224.5" width="17" height="56" stroke="#FFFFFF" stroke-width="1" fill="#7cb5ec" rx="0" ry="0"></rect><rect x="224.5" y="252.5" width="17" height="28" stroke="#FFFFFF" stroke-width="1" fill="#7cb5ec" rx="0" ry="0"></rect><rect x="326.5" y="196.5" width="17" height="84" stroke="#FFFFFF" stroke-width="1" fill="#7cb5ec" rx="0" ry="0"></rect><rect x="427.5" y="168.5" width="17" height="112" stroke="#FFFFFF" stroke-width="1" fill="#7cb5ec" rx="0" ry="0"></rect></g><g class="highcharts-markers" visibility="visible"  transform="translate(67,46) scale(1 1)"></g><g class="highcharts-series highcharts-tracker" visibility="visible"  transform="translate(67,46) scale(1 1)" style="" clip-path="url(#highcharts-1)"><rect x="42.5" y="224.5" width="17" height="56" stroke="#FFFFFF" stroke-width="1" fill="#434348" rx="0" ry="0"></rect><rect x="143.5" y="196.5" width="17" height="84" stroke="#FFFFFF" stroke-width="1" fill="#434348" rx="0" ry="0"></rect><rect x="244.5" y="140.5" width="17" height="140" stroke="#FFFFFF" stroke-width="1" fill="#434348" rx="0" ry="0"></rect><rect x="346.5" y="84.5" width="17" height="196" stroke="#FFFFFF" stroke-width="1" fill="#434348" rx="0" ry="0"></rect><rect x="447.5" y="112.5" width="17" height="168" stroke="#FFFFFF" stroke-width="1" fill="#434348" rx="0" ry="0"></rect></g><g class="highcharts-markers" visibility="visible"  transform="translate(67,46) scale(1 1)"></g><g class="highcharts-series highcharts-tracker" visibility="visible"  transform="translate(67,46) scale(1 1)" style="" clip-path="url(#highcharts-1)"><rect x="62.5" y="168.5" width="17" height="112" stroke="#FFFFFF" stroke-width="1" fill="#90ed7d" rx="0" ry="0"></rect><rect x="163.5" y="196.5" width="17" height="84" stroke="#FFFFFF" stroke-width="1" fill="#90ed7d" rx="0" ry="0"></rect><rect x="265.5" y="196.5" width="17" height="84" stroke="#FFFFFF" stroke-width="1" fill="#90ed7d" rx="0" ry="0"></rect><rect x="366.5" y="28.5" width="17" height="252" stroke="#FFFFFF" stroke-width="1" fill="#90ed7d" rx="0" ry="0"></rect><rect x="467.5" y="280.5" width="17" height="0" stroke="#FFFFFF" stroke-width="1" fill="#90ed7d" rx="0" ry="0"></rect></g><g class="highcharts-markers" visibility="visible"  transform="translate(67,46) scale(1 1)"></g><g class="highcharts-series" visibility="visible"  transform="translate(67,46) scale(1 1)" clip-path="url(#highcharts-3)"><path fill="none" d="M 50.7 196 C 50.7 196 111.5 205.2 152.1 205.2 C 192.6 205.2 212.9 205.2 253.5 196 C 294.0 186.7 314.3 102.7 354.9 102.7 C 395.4 102.7 456.3 186.7 456.3 186.7" stroke="#f7a35c" stroke-width="2"  stroke-linejoin="round" stroke-linecap="round"></path><path fill="none" d="M 40.7 196 L 50.7 196 C 50.7 196 111.5 205.2 152.1 205.2 C 192.6 205.2 212.9 205.2 253.5 196 C 294.0 186.7 314.3 102.7 354.9 102.7 C 395.4 102.7 456.3 186.7 456.3 186.7 L 466.3 186.7" stroke-linejoin="round" visibility="visible" stroke="rgb(192,192,192)" stroke-opacity="0.0" stroke-width="22"  class=" highcharts-tracker" style=""></path></g><g class="highcharts-markers highcharts-tracker" visibility="visible"  transform="translate(67,46) scale(1 1)" clip-path="url(#highcharts-2)" style=""><path fill="white" d="M 456 182.7 C 461.3 182.7 461.3 190.7 456 190.7 C 450.6 190.7 450.6 182.7 456 182.7 Z" stroke="#f7a35c" stroke-width="2"></path><path fill="white" d="M 354 98.7 C 359.3 98.7 359.3 106.7 354 106.7 C 348.6 106.7 348.6 98.7 354 98.7 Z" stroke="#f7a35c" stroke-width="2"></path><path fill="white" d="M 253 192 C 258.3 192 258.3 200 253 200 C 247.6 200 247.6 192 253 192 Z" stroke="#f7a35c" stroke-width="2"></path><path fill="white" d="M 152 201.2 C 157.3 201.2 157.3 209.2 152 209.2 C 146.6 209.2 146.6 201.2 152 201.2 Z" stroke="#f7a35c" stroke-width="2"></path><path fill="white" d="M 50 192 C 55.3 192 55.3 200 50 200 C 44.6 200 44.6 192 50 192 Z" stroke="#f7a35c" stroke-width="2"></path></g><g class="highcharts-series highcharts-tracker" visibility="visible"  transform="translate(67,46) scale(1 1)" style=""><path fill="#7cb5ec" d="M 119.9 50.0 A 50 50 0 0 1 169.8 95.6 L 120 100 A 0 0 0 0 0 120 100 Z" stroke="#FFFFFF" stroke-width="1" stroke-linejoin="round" transform="translate(0,0)"></path><path fill="#434348" d="M 169.8 95.7 A 50 50 0 0 1 78.7 128.2 L 120 100 A 0 0 0 0 0 120 100 Z" stroke="#FFFFFF" stroke-width="1" stroke-linejoin="round" transform="translate(0,0)"></path><path fill="#90ed7d" d="M 78.7 128.2 A 50 50 0 0 1 119.9 50.0 L 120 100 A 0 0 0 0 0 120 100 Z" stroke="#FFFFFF" stroke-width="1" stroke-linejoin="round" transform="translate(0,0)"></path></g><g class="highcharts-markers" visibility="visible"  transform="translate(67,46) scale(1 1)"></g></g><text x="292" text-anchor="middle" class="highcharts-title"  style="color:#333333;font-size:18px;fill:#333333;width:520px;" y="24"><tspan>Combination chart</tspan></text><g class="highcharts-legend"  transform="translate(149,359)"><g ><g><g class="highcharts-legend-item"  transform="translate(8,3)"><text x="21" style="color:#333333;font-size:12px;font-weight:bold;cursor:pointer;fill:#333333;" text-anchor="start"  y="15">Jane</text><rect x="0" y="4" width="16" height="12"  fill="#7cb5ec"></rect></g><g class="highcharts-legend-item"  transform="translate(76,3)"><text x="21" y="15" style="color:#333333;font-size:12px;font-weight:bold;cursor:pointer;fill:#333333;" text-anchor="start" >John</text><rect x="0" y="4" width="16" height="12"  fill="#434348"></rect></g><g class="highcharts-legend-item"  transform="translate(146,3)"><text x="21" y="15" style="color:#333333;font-size:12px;font-weight:bold;cursor:pointer;fill:#333333;" text-anchor="start" >Joe</text><rect x="0" y="4" width="16" height="12"  fill="#90ed7d"></rect></g><g class="highcharts-legend-item"  transform="translate(207,3)"><path fill="none" d="M 0 11 L 16 11" stroke="#f7a35c" stroke-width="2"></path><path fill="white" d="M 8 7 C 13.3 7 13.3 15 8 15 C 2.6 15 2.6 7 8 7 Z" stroke="#f7a35c" stroke-width="2"></path><text x="21" y="15" style="color:#333333;font-size:12px;font-weight:bold;cursor:pointer;fill:#333333;" text-anchor="start" >Average</text></g></g></g></g><g class="highcharts-axis-labels highcharts-xaxis-labels" ><text x="117.7" style="color:#606060;cursor:default;font-size:11px;fill:#606060;width:91px;text-overflow:clip;" text-anchor="middle" transform="translate(0,0)" y="345" opacity="1">Apples</text><text x="219.1" style="color:#606060;cursor:default;font-size:11px;fill:#606060;width:91px;text-overflow:clip;" text-anchor="middle" transform="translate(0,0)" y="345" opacity="1">Oranges</text><text x="320.5" style="color:#606060;cursor:default;font-size:11px;fill:#606060;width:91px;text-overflow:clip;" text-anchor="middle" transform="translate(0,0)" y="345" opacity="1">Pears</text><text x="421.9" style="color:#606060;cursor:default;font-size:11px;fill:#606060;width:91px;text-overflow:clip;" text-anchor="middle" transform="translate(0,0)" y="345" opacity="1">Bananas</text><text x="523.3" style="color:#606060;cursor:default;font-size:11px;fill:#606060;width:91px;text-overflow:clip;" text-anchor="middle" transform="translate(0,0)" y="345" opacity="1">Plums</text></g><g class="highcharts-axis-labels highcharts-yaxis-labels" ><text x="52" style="color:#606060;cursor:default;font-size:11px;fill:#606060;width:183px;text-overflow:clip;" text-anchor="end" transform="translate(0,0)" y="331" opacity="1">0</text><text x="52" style="color:#606060;cursor:default;font-size:11px;fill:#606060;width:183px;text-overflow:clip;" text-anchor="end" transform="translate(0,0)" y="261" opacity="1">2.5</text><text x="52" style="color:#606060;cursor:default;font-size:11px;fill:#606060;width:183px;text-overflow:clip;" text-anchor="end" transform="translate(0,0)" y="191" opacity="1">5</text><text x="52" style="color:#606060;cursor:default;font-size:11px;fill:#606060;width:183px;text-overflow:clip;" text-anchor="end" transform="translate(0,0)" y="121" opacity="1">7.5</text><text x="52" style="color:#606060;cursor:default;font-size:11px;fill:#606060;width:183px;text-overflow:clip;" text-anchor="end" transform="translate(0,0)" y="51" opacity="1">10</text></g><g class="highcharts-tooltip"  style="cursor:default;padding:0;white-space:nowrap;" transform="translate(0,-9999)"><path fill="none" d="M 3.5 0.5 L 13.5 0.5 C 16.5 0.5 16.5 0.5 16.5 3.5 L 16.5 13.5 C 16.5 16.5 16.5 16.5 13.5 16.5 L 3.5 16.5 C 0.5 16.5 0.5 16.5 0.5 13.5 L 0.5 3.5 C 0.5 0.5 0.5 0.5 3.5 0.5"  stroke="black" stroke-opacity="0.0" stroke-width="5" transform="translate(1, 1)"></path><path fill="none" d="M 3.5 0.5 L 13.5 0.5 C 16.5 0.5 16.5 0.5 16.5 3.5 L 16.5 13.5 C 16.5 16.5 16.5 16.5 13.5 16.5 L 3.5 16.5 C 0.5 16.5 0.5 16.5 0.5 13.5 L 0.5 3.5 C 0.5 0.5 0.5 0.5 3.5 0.5"  stroke="black" stroke-opacity="0.0" stroke-width="3" transform="translate(1, 1)"></path><path fill="none" d="M 3.5 0.5 L 13.5 0.5 C 16.5 0.5 16.5 0.5 16.5 3.5 L 16.5 13.5 C 16.5 16.5 16.5 16.5 13.5 16.5 L 3.5 16.5 C 0.5 16.5 0.5 16.5 0.5 13.5 L 0.5 3.5 C 0.5 0.5 0.5 0.5 3.5 0.5"  stroke="black" stroke-opacity="0.1" stroke-width="1" transform="translate(1, 1)"></path><path fill="rgb(249, 249, 249)" fill-opacity=" .85" d="M 3.5 0.5 L 13.5 0.5 C 16.5 0.5 16.5 0.5 16.5 3.5 L 16.5 13.5 C 16.5 16.5 16.5 16.5 13.5 16.5 L 3.5 16.5 C 0.5 16.5 0.5 16.5 0.5 13.5 L 0.5 3.5 C 0.5 0.5 0.5 0.5 3.5 0.5"></path><text x="8"  style="font-size:12px;color:#333333;fill:#333333;" y="20"></text></g></svg>