<svg version="1.1" style="font-family: signika, serif; font-size: 12px; background-image: url(http://www.highcharts.com/samples/graphics/sand.png); background-position: initial initial; background-repeat: initial initial;" xmlns="http://www.w3.org/2000/svg" width="584" height="400" viewBox="0 0 584 400" xmlns:xlink="http://www.w3.org/1999/xlink"><style type="text/css"><![CDATA[@import url(http://fonts.googleapis.com/css?family=Signika:700);]]></style><desc>Created with Highcharts 4.1.7</desc><defs><clipPath id="highcharts-1"><rect x="0" y="0" width="431" height="313"></rect></clipPath><clipPath id="highcharts-2"><rect x="-99" y="-53" width="530" height="400"></rect></clipPath><clipPath id="highcharts-3"><rect x="0" y="0" width="431" height="313"></rect></clipPath></defs><g class="highcharts-grid" ></g><g class="highcharts-grid" ><path fill="none" d="M 70 366.5 L 501 366.5" stroke="#D8D8D8" stroke-width="1"  opacity="1"></path><path fill="none" d="M 70 303.5 L 501 303.5" stroke="#D8D8D8" stroke-width="1"  opacity="1"></path><path fill="none" d="M 70 241.5 L 501 241.5" stroke="#D8D8D8" stroke-width="1"  opacity="1"></path><path fill="none" d="M 70 178.5 L 501 178.5" stroke="#D8D8D8" stroke-width="1"  opacity="1"></path><path fill="none" d="M 70 116.5 L 501 116.5" stroke="#D8D8D8" stroke-width="1"  opacity="1"></path><path fill="none" d="M 70 52.5 L 501 52.5" stroke="#D8D8D8" stroke-width="1"  opacity="1"></path></g><g class="highcharts-grid" ><path fill="none" d="M 70 366.5 L 501 366.5" stroke="#D8D8D8" stroke-width="1"  opacity="1"></path><path fill="none" d="M 70 303.5 L 501 303.5" stroke="#D8D8D8" stroke-width="1"  opacity="1"></path><path fill="none" d="M 70 241.5 L 501 241.5" stroke="#D8D8D8" stroke-width="1"  opacity="1"></path><path fill="none" d="M 70 178.5 L 501 178.5" stroke="#D8D8D8" stroke-width="1"  opacity="1"></path><path fill="none" d="M 70 116.5 L 501 116.5" stroke="#D8D8D8" stroke-width="1"  opacity="1"></path><path fill="none" d="M 70 52.5 L 501 52.5" stroke="#D8D8D8" stroke-width="1"  opacity="1"></path></g><g class="highcharts-axis" ><path fill="none" d="M 105.5 366 L 105.5 376" stroke="#C0D0E0" stroke-width="1" opacity="1"></path><path fill="none" d="M 141.5 366 L 141.5 376" stroke="#C0D0E0" stroke-width="1" opacity="1"></path><path fill="none" d="M 177.5 366 L 177.5 376" stroke="#C0D0E0" stroke-width="1" opacity="1"></path><path fill="none" d="M 213.5 366 L 213.5 376" stroke="#C0D0E0" stroke-width="1" opacity="1"></path><path fill="none" d="M 249.5 366 L 249.5 376" stroke="#C0D0E0" stroke-width="1" opacity="1"></path><path fill="none" d="M 285.5 366 L 285.5 376" stroke="#C0D0E0" stroke-width="1" opacity="1"></path><path fill="none" d="M 320.5 366 L 320.5 376" stroke="#C0D0E0" stroke-width="1" opacity="1"></path><path fill="none" d="M 356.5 366 L 356.5 376" stroke="#C0D0E0" stroke-width="1" opacity="1"></path><path fill="none" d="M 392.5 366 L 392.5 376" stroke="#C0D0E0" stroke-width="1" opacity="1"></path><path fill="none" d="M 428.5 366 L 428.5 376" stroke="#C0D0E0" stroke-width="1" opacity="1"></path><path fill="none" d="M 464.5 366 L 464.5 376" stroke="#C0D0E0" stroke-width="1" opacity="1"></path><path fill="none" d="M 500.5 366 L 500.5 376" stroke="#C0D0E0" stroke-width="1" opacity="1"></path><path fill="none" d="M 69.5 366 L 69.5 376" stroke="#C0D0E0" stroke-width="1" opacity="1"></path><path fill="none" d="M 70 366.5 L 501 366.5" stroke="#C0D0E0" stroke-width="1"  visibility="visible"></path></g><g class="highcharts-axis" ><text x="22.2"  text-anchor="middle" transform="translate(0,0) rotate(270 22.2 209.5)" class=" highcharts-yaxis-title" style="color:#8085e9;fill:#8085e9;" visibility="visible" y="209.5">Temperature</text></g><g class="highcharts-axis" ><text x="562.3"  text-anchor="middle" transform="translate(0,0) rotate(90 562.3 209.5)" class=" highcharts-yaxis-title" style="color:#f45b5b;fill:#f45b5b;" visibility="visible" y="209.5">Rainfall</text></g><g class="highcharts-series-group" ><g class="highcharts-series highcharts-tracker" visibility="visible"  transform="translate(70,53) scale(1 1)" style="" clip-path="url(#highcharts-1)"><rect x="8.5" y="251.5" width="18" height="62" stroke="black" stroke-width="5" fill="none" rx="0" ry="0"  stroke-opacity="0.0" transform="translate(1, 1)"></rect><rect x="8.5" y="251.5" width="18" height="62" stroke="black" stroke-width="3" fill="none" rx="0" ry="0"  stroke-opacity="0.0" transform="translate(1, 1)"></rect><rect x="8.5" y="251.5" width="18" height="62" stroke="black" stroke-width="1" fill="none" rx="0" ry="0"  stroke-opacity="0.1" transform="translate(1, 1)"></rect><rect x="8.5" y="251.5" width="18" height="62" stroke="#FFFFFF" stroke-width="1" fill="#f45b5b" rx="0" ry="0"></rect><rect x="44.5" y="223.5" width="18" height="90" stroke="black" stroke-width="5" fill="none" rx="0" ry="0"  stroke-opacity="0.0" transform="translate(1, 1)"></rect><rect x="44.5" y="223.5" width="18" height="90" stroke="black" stroke-width="3" fill="none" rx="0" ry="0"  stroke-opacity="0.0" transform="translate(1, 1)"></rect><rect x="44.5" y="223.5" width="18" height="90" stroke="black" stroke-width="1" fill="none" rx="0" ry="0"  stroke-opacity="0.1" transform="translate(1, 1)"></rect><rect x="44.5" y="223.5" width="18" height="90" stroke="#FFFFFF" stroke-width="1" fill="#f45b5b" rx="0" ry="0"></rect><rect x="80.5" y="180.5" width="18" height="133" stroke="black" stroke-width="5" fill="none" rx="0" ry="0"  stroke-opacity="0.0" transform="translate(1, 1)"></rect><rect x="80.5" y="180.5" width="18" height="133" stroke="black" stroke-width="3" fill="none" rx="0" ry="0"  stroke-opacity="0.0" transform="translate(1, 1)"></rect><rect x="80.5" y="180.5" width="18" height="133" stroke="black" stroke-width="1" fill="none" rx="0" ry="0"  stroke-opacity="0.1" transform="translate(1, 1)"></rect><rect x="80.5" y="180.5" width="18" height="133" stroke="#FFFFFF" stroke-width="1" fill="#f45b5b" rx="0" ry="0"></rect><rect x="116.5" y="151.5" width="18" height="162" stroke="black" stroke-width="5" fill="none" rx="0" ry="0"  stroke-opacity="0.0" transform="translate(1, 1)"></rect><rect x="116.5" y="151.5" width="18" height="162" stroke="black" stroke-width="3" fill="none" rx="0" ry="0"  stroke-opacity="0.0" transform="translate(1, 1)"></rect><rect x="116.5" y="151.5" width="18" height="162" stroke="black" stroke-width="1" fill="none" rx="0" ry="0"  stroke-opacity="0.1" transform="translate(1, 1)"></rect><rect x="116.5" y="151.5" width="18" height="162" stroke="#FFFFFF" stroke-width="1" fill="#f45b5b" rx="0" ry="0"></rect><rect x="152.5" y="133.5" width="18" height="180" stroke="black" stroke-width="5" fill="none" rx="0" ry="0"  stroke-opacity="0.0" transform="translate(1, 1)"></rect><rect x="152.5" y="133.5" width="18" height="180" stroke="black" stroke-width="3" fill="none" rx="0" ry="0"  stroke-opacity="0.0" transform="translate(1, 1)"></rect><rect x="152.5" y="133.5" width="18" height="180" stroke="black" stroke-width="1" fill="none" rx="0" ry="0"  stroke-opacity="0.1" transform="translate(1, 1)"></rect><rect x="152.5" y="133.5" width="18" height="180" stroke="#FFFFFF" stroke-width="1" fill="#f45b5b" rx="0" ry="0"></rect><rect x="188.5" y="93.5" width="18" height="220" stroke="black" stroke-width="5" fill="none" rx="0" ry="0"  stroke-opacity="0.0" transform="translate(1, 1)"></rect><rect x="188.5" y="93.5" width="18" height="220" stroke="black" stroke-width="3" fill="none" rx="0" ry="0"  stroke-opacity="0.0" transform="translate(1, 1)"></rect><rect x="188.5" y="93.5" width="18" height="220" stroke="black" stroke-width="1" fill="none" rx="0" ry="0"  stroke-opacity="0.1" transform="translate(1, 1)"></rect><rect x="188.5" y="93.5" width="18" height="220" stroke="#FFFFFF" stroke-width="1" fill="#f45b5b" rx="0" ry="0"></rect><rect x="224.5" y="143.5" width="18" height="170" stroke="black" stroke-width="5" fill="none" rx="0" ry="0"  stroke-opacity="0.0" transform="translate(1, 1)"></rect><rect x="224.5" y="143.5" width="18" height="170" stroke="black" stroke-width="3" fill="none" rx="0" ry="0"  stroke-opacity="0.0" transform="translate(1, 1)"></rect><rect x="224.5" y="143.5" width="18" height="170" stroke="black" stroke-width="1" fill="none" rx="0" ry="0"  stroke-opacity="0.1" transform="translate(1, 1)"></rect><rect x="224.5" y="143.5" width="18" height="170" stroke="#FFFFFF" stroke-width="1" fill="#f45b5b" rx="0" ry="0"></rect><rect x="260.5" y="127.5" width="18" height="186" stroke="black" stroke-width="5" fill="none" rx="0" ry="0"  stroke-opacity="0.0" transform="translate(1, 1)"></rect><rect x="260.5" y="127.5" width="18" height="186" stroke="black" stroke-width="3" fill="none" rx="0" ry="0"  stroke-opacity="0.0" transform="translate(1, 1)"></rect><rect x="260.5" y="127.5" width="18" height="186" stroke="black" stroke-width="1" fill="none" rx="0" ry="0"  stroke-opacity="0.1" transform="translate(1, 1)"></rect><rect x="260.5" y="127.5" width="18" height="186" stroke="#FFFFFF" stroke-width="1" fill="#f45b5b" rx="0" ry="0"></rect><rect x="296.5" y="42.5" width="18" height="271" stroke="black" stroke-width="5" fill="none" rx="0" ry="0"  stroke-opacity="0.0" transform="translate(1, 1)"></rect><rect x="296.5" y="42.5" width="18" height="271" stroke="black" stroke-width="3" fill="none" rx="0" ry="0"  stroke-opacity="0.0" transform="translate(1, 1)"></rect><rect x="296.5" y="42.5" width="18" height="271" stroke="black" stroke-width="1" fill="none" rx="0" ry="0"  stroke-opacity="0.1" transform="translate(1, 1)"></rect><rect x="296.5" y="42.5" width="18" height="271" stroke="#FFFFFF" stroke-width="1" fill="#f45b5b" rx="0" ry="0"></rect><rect x="332.5" y="70.5" width="18" height="243" stroke="black" stroke-width="5" fill="none" rx="0" ry="0"  stroke-opacity="0.0" transform="translate(1, 1)"></rect><rect x="332.5" y="70.5" width="18" height="243" stroke="black" stroke-width="3" fill="none" rx="0" ry="0"  stroke-opacity="0.0" transform="translate(1, 1)"></rect><rect x="332.5" y="70.5" width="18" height="243" stroke="black" stroke-width="1" fill="none" rx="0" ry="0"  stroke-opacity="0.1" transform="translate(1, 1)"></rect><rect x="332.5" y="70.5" width="18" height="243" stroke="#FFFFFF" stroke-width="1" fill="#f45b5b" rx="0" ry="0"></rect><rect x="368.5" y="193.5" width="18" height="120" stroke="black" stroke-width="5" fill="none" rx="0" ry="0"  stroke-opacity="0.0" transform="translate(1, 1)"></rect><rect x="368.5" y="193.5" width="18" height="120" stroke="black" stroke-width="3" fill="none" rx="0" ry="0"  stroke-opacity="0.0" transform="translate(1, 1)"></rect><rect x="368.5" y="193.5" width="18" height="120" stroke="black" stroke-width="1" fill="none" rx="0" ry="0"  stroke-opacity="0.1" transform="translate(1, 1)"></rect><rect x="368.5" y="193.5" width="18" height="120" stroke="#FFFFFF" stroke-width="1" fill="#f45b5b" rx="0" ry="0"></rect><rect x="403.5" y="245.5" width="18" height="68" stroke="black" stroke-width="5" fill="none" rx="0" ry="0"  stroke-opacity="0.0" transform="translate(1, 1)"></rect><rect x="403.5" y="245.5" width="18" height="68" stroke="black" stroke-width="3" fill="none" rx="0" ry="0"  stroke-opacity="0.0" transform="translate(1, 1)"></rect><rect x="403.5" y="245.5" width="18" height="68" stroke="black" stroke-width="1" fill="none" rx="0" ry="0"  stroke-opacity="0.1" transform="translate(1, 1)"></rect><rect x="403.5" y="245.5" width="18" height="68" stroke="#FFFFFF" stroke-width="1" fill="#f45b5b" rx="0" ry="0"></rect></g><g class="highcharts-markers" visibility="visible"  transform="translate(70,53) scale(1 1)"></g><g class="highcharts-series" visibility="visible"  transform="translate(70,53) scale(1 1)" clip-path="url(#highcharts-3)"><path fill="none" d="M 17.9 287.9 C 17.9 287.9 39.5 289.2 53.8 289.2 C 68.2 289.2 75.4 275.6 89.7 256.6 C 104.1 237.6 111.3 215.8 125.7 194.0 C 140.0 172.2 147.2 165.2 161.6 147.7 C 175.9 130.2 183.1 123.9 197.5 106.4 C 211.9 88.8 219.0 72.6 233.4 60.0 C 247.8 47.5 255.0 43.8 269.3 43.8 C 283.7 43.8 290.9 63.3 305.2 83.8 C 319.6 104.4 326.8 122.9 341.2 146.4 C 355.5 170.0 362.7 179.7 377.1 201.5 C 391.4 223.3 413.0 255.4 413.0 255.4" stroke="black" stroke-width="5"  stroke-linejoin="round" stroke-linecap="round"  stroke-opacity="0.0" transform="translate(1, 1)"></path><path fill="none" d="M 17.9 287.9 C 17.9 287.9 39.5 289.2 53.8 289.2 C 68.2 289.2 75.4 275.6 89.7 256.6 C 104.1 237.6 111.3 215.8 125.7 194.0 C 140.0 172.2 147.2 165.2 161.6 147.7 C 175.9 130.2 183.1 123.9 197.5 106.4 C 211.9 88.8 219.0 72.6 233.4 60.0 C 247.8 47.5 255.0 43.8 269.3 43.8 C 283.7 43.8 290.9 63.3 305.2 83.8 C 319.6 104.4 326.8 122.9 341.2 146.4 C 355.5 170.0 362.7 179.7 377.1 201.5 C 391.4 223.3 413.0 255.4 413.0 255.4" stroke="black" stroke-width="3"  stroke-linejoin="round" stroke-linecap="round"  stroke-opacity="0.0" transform="translate(1, 1)"></path><path fill="none" d="M 17.9 287.9 C 17.9 287.9 39.5 289.2 53.8 289.2 C 68.2 289.2 75.4 275.6 89.7 256.6 C 104.1 237.6 111.3 215.8 125.7 194.0 C 140.0 172.2 147.2 165.2 161.6 147.7 C 175.9 130.2 183.1 123.9 197.5 106.4 C 211.9 88.8 219.0 72.6 233.4 60.0 C 247.8 47.5 255.0 43.8 269.3 43.8 C 283.7 43.8 290.9 63.3 305.2 83.8 C 319.6 104.4 326.8 122.9 341.2 146.4 C 355.5 170.0 362.7 179.7 377.1 201.5 C 391.4 223.3 413.0 255.4 413.0 255.4" stroke="black" stroke-width="1"  stroke-linejoin="round" stroke-linecap="round"  stroke-opacity="0.1" transform="translate(1, 1)"></path><path fill="none" d="M 17.9 287.9 C 17.9 287.9 39.5 289.2 53.8 289.2 C 68.2 289.2 75.4 275.6 89.7 256.6 C 104.1 237.6 111.3 215.8 125.7 194.0 C 140.0 172.2 147.2 165.2 161.6 147.7 C 175.9 130.2 183.1 123.9 197.5 106.4 C 211.9 88.8 219.0 72.6 233.4 60.0 C 247.8 47.5 255.0 43.8 269.3 43.8 C 283.7 43.8 290.9 63.3 305.2 83.8 C 319.6 104.4 326.8 122.9 341.2 146.4 C 355.5 170.0 362.7 179.7 377.1 201.5 C 391.4 223.3 413.0 255.4 413.0 255.4" stroke="#8085e9" stroke-width="2"  stroke-linejoin="round" stroke-linecap="round"></path><path fill="none" d="M 7.9 287.9 L 17.9 287.9 C 17.9 287.9 39.5 289.2 53.8 289.2 C 68.2 289.2 75.4 275.6 89.7 256.6 C 104.1 237.6 111.3 215.8 125.7 194.0 C 140.0 172.2 147.2 165.2 161.6 147.7 C 175.9 130.2 183.1 123.9 197.5 106.4 C 211.9 88.8 219.0 72.6 233.4 60.0 C 247.8 47.5 255.0 43.8 269.3 43.8 C 283.7 43.8 290.9 63.3 305.2 83.8 C 319.6 104.4 326.8 122.9 341.2 146.4 C 355.5 170.0 362.7 179.7 377.1 201.5 C 391.4 223.3 413.0 255.4 413.0 255.4 L 423.0 255.4" stroke-linejoin="round" visibility="visible" stroke="rgb(192,192,192)" stroke-opacity="0.0" stroke-width="22"  class=" highcharts-tracker" style=""></path></g><g class="highcharts-markers highcharts-tracker" visibility="visible"  transform="translate(70,53) scale(1 1)" clip-path="url(#highcharts-2)" style=""><path fill="#8085e9" d="M 413 251.4 C 418.3 251.4 418.3 259.4 413 259.4 C 407.6 259.4 407.6 251.4 413 251.4 Z"></path><path fill="#8085e9" d="M 377 197.5 C 382.3 197.5 382.3 205.5 377 205.5 C 371.6 205.5 371.6 197.5 377 197.5 Z"></path><path fill="#8085e9" d="M 341 142.4 C 346.3 142.4 346.3 150.4 341 150.4 C 335.6 150.4 335.6 142.4 341 142.4 Z"></path><path fill="#8085e9" d="M 305 79.8 C 310.3 79.8 310.3 87.8 305 87.8 C 299.6 87.8 299.6 79.8 305 79.8 Z"></path><path fill="#8085e9" d="M 269 39.8 C 274.3 39.8 274.3 47.8 269 47.8 C 263.6 47.8 263.6 39.8 269 39.8 Z"></path><path fill="#8085e9" d="M 233 56.0 C 238.3 56.0 238.3 64.0 233 64.0 C 227.6 64.0 227.6 56.0 233 56.0 Z"></path><path fill="#8085e9" d="M 197 102.4 C 202.3 102.4 202.3 110.4 197 110.4 C 191.6 110.4 191.6 102.4 197 102.4 Z"></path><path fill="#8085e9" d="M 161 143.7 C 166.3 143.7 166.3 151.7 161 151.7 C 155.6 151.7 155.6 143.7 161 143.7 Z"></path><path fill="#8085e9" d="M 125 190.0 C 130.3 190.0 130.3 198.0 125 198.0 C 119.6 198.0 119.6 190.0 125 190.0 Z"></path><path fill="#8085e9" d="M 89 252.6 C 94.3 252.6 94.3 260.6 89 260.6 C 83.6 260.6 83.6 252.6 89 252.6 Z"></path><path fill="#8085e9" d="M 53 285.2 C 58.3 285.2 58.3 293.2 53 293.2 C 47.6 293.2 47.6 285.2 53 285.2 Z"></path><path fill="#8085e9" d="M 17 283.9 C 22.3 283.9 22.3 291.9 17 291.9 C 11.6 291.9 11.6 283.9 17 283.9 Z"></path></g></g><text x="292" text-anchor="middle" class="highcharts-title"  style="color:black;font-size:16px;font-weight:bold;fill:black;width:520px;" y="22"><tspan>Average Monthly Temperature and Rainfall in Tokyo</tspan></text><text x="292" text-anchor="middle" class="highcharts-subtitle"  style="color:black;fill:black;width:520px;" y="40"><tspan>Source: WorldClimate.com</tspan></text><g class="highcharts-legend"  transform="translate(130,110)"><rect x="0" y="0" width="110" height="37" strokeWidth="0" fill="#FFFFFF" visibility="visible"></rect><g ><g><g class="highcharts-legend-item"  transform="translate(8,3)"><text x="21" style="color:#333333;font-size:13px;font-weight:bold;cursor:pointer;fill:#333333;" text-anchor="start"  y="16">Rainfall</text><rect x="0" y="4" width="16" height="13"  fill="#f45b5b"></rect></g><g class="highcharts-legend-item"  transform="translate(8,16)"><path fill="none" d="M 0 12 L 16 12" stroke="#8085e9" stroke-width="2"></path><path fill="#8085e9" d="M 8 8 C 13.3 8 13.3 16 8 16 C 2.6 16 2.6 8 8 8 Z"></path><text x="21" y="16" style="color:#333333;font-size:13px;font-weight:bold;cursor:pointer;fill:#333333;" text-anchor="start" >Temperature</text></g></g></g></g><g class="highcharts-axis-labels highcharts-xaxis-labels" ><text x="87.9" style="color:#6e6e70;cursor:default;font-size:11px;fill:#6e6e70;" text-anchor="middle" transform="translate(0,0)" y="385" opacity="1">Jan</text><text x="123.8" style="color:#6e6e70;cursor:default;font-size:11px;fill:#6e6e70;" text-anchor="middle" transform="translate(0,0)" y="385" opacity="1">Feb</text><text x="159.7" style="color:#6e6e70;cursor:default;font-size:11px;fill:#6e6e70;" text-anchor="middle" transform="translate(0,0)" y="385" opacity="1">Mar</text><text x="195.7" style="color:#6e6e70;cursor:default;font-size:11px;fill:#6e6e70;" text-anchor="middle" transform="translate(0,0)" y="385" opacity="1">Apr</text><text x="231.6" style="color:#6e6e70;cursor:default;font-size:11px;fill:#6e6e70;" text-anchor="middle" transform="translate(0,0)" y="385" opacity="1">May</text><text x="267.5" style="color:#6e6e70;cursor:default;font-size:11px;fill:#6e6e70;" text-anchor="middle" transform="translate(0,0)" y="385" opacity="1">Jun</text><text x="303.4" style="color:#6e6e70;cursor:default;font-size:11px;fill:#6e6e70;" text-anchor="middle" transform="translate(0,0)" y="385" opacity="1">Jul</text><text x="339.3" style="color:#6e6e70;cursor:default;font-size:11px;fill:#6e6e70;" text-anchor="middle" transform="translate(0,0)" y="385" opacity="1">Aug</text><text x="375.2" style="color:#6e6e70;cursor:default;font-size:11px;fill:#6e6e70;" text-anchor="middle" transform="translate(0,0)" y="385" opacity="1">Sep</text><text x="411.2" style="color:#6e6e70;cursor:default;font-size:11px;fill:#6e6e70;" text-anchor="middle" transform="translate(0,0)" y="385" opacity="1">Oct</text><text x="447.1" style="color:#6e6e70;cursor:default;font-size:11px;fill:#6e6e70;" text-anchor="middle" transform="translate(0,0)" y="385" opacity="1">Nov</text><text x="483.0" style="color:#6e6e70;cursor:default;font-size:11px;fill:#6e6e70;" text-anchor="middle" transform="translate(0,0)" y="385" opacity="1">Dec</text></g><g class="highcharts-axis-labels highcharts-yaxis-labels" ><text x="55" style="color:#8085e9;cursor:default;font-size:11px;fill:#8085e9;width:183px;text-overflow:clip;" text-anchor="end" transform="translate(0,0)" y="372" opacity="1">5°C</text><text x="55" style="color:#8085e9;cursor:default;font-size:11px;fill:#8085e9;width:183px;text-overflow:clip;" text-anchor="end" transform="translate(0,0)" y="309" opacity="1">10°C</text><text x="55" style="color:#8085e9;cursor:default;font-size:11px;fill:#8085e9;width:183px;text-overflow:clip;" text-anchor="end" transform="translate(0,0)" y="246" opacity="1">15°C</text><text x="55" style="color:#8085e9;cursor:default;font-size:11px;fill:#8085e9;width:183px;text-overflow:clip;" text-anchor="end" transform="translate(0,0)" y="184" opacity="1">20°C</text><text x="55" style="color:#8085e9;cursor:default;font-size:11px;fill:#8085e9;width:183px;text-overflow:clip;" text-anchor="end" transform="translate(0,0)" y="121" opacity="1">25°C</text><text x="55" style="color:#8085e9;cursor:default;font-size:11px;fill:#8085e9;width:183px;text-overflow:clip;" text-anchor="end" transform="translate(0,0)" y="59" opacity="1">30°C</text></g><g class="highcharts-axis-labels highcharts-yaxis-labels" ><text x="516" style="color:#f45b5b;cursor:default;font-size:11px;fill:#f45b5b;width:183px;text-overflow:clip;" text-anchor="start" transform="translate(0,0)" y="372" opacity="1"><tspan>0 mm</tspan></text><text x="516" style="color:#f45b5b;cursor:default;font-size:11px;fill:#f45b5b;width:183px;text-overflow:clip;" text-anchor="start" transform="translate(0,0)" y="309" opacity="1"><tspan>50 mm</tspan></text><text x="516" style="color:#f45b5b;cursor:default;font-size:11px;fill:#f45b5b;width:183px;text-overflow:clip;" text-anchor="start" transform="translate(0,0)" y="246" opacity="1"><tspan>100 mm</tspan></text><text x="516" style="color:#f45b5b;cursor:default;font-size:11px;fill:#f45b5b;width:183px;text-overflow:clip;" text-anchor="start" transform="translate(0,0)" y="184" opacity="1"><tspan>150 mm</tspan></text><text x="516" style="color:#f45b5b;cursor:default;font-size:11px;fill:#f45b5b;width:183px;text-overflow:clip;" text-anchor="start" transform="translate(0,0)" y="121" opacity="1"><tspan>200 mm</tspan></text><text x="516" style="color:#f45b5b;cursor:default;font-size:11px;fill:#f45b5b;width:183px;text-overflow:clip;" text-anchor="start" transform="translate(0,0)" y="59" opacity="1"><tspan>250 mm</tspan></text></g><g class="highcharts-tooltip"  style="cursor:default;padding:0;white-space:nowrap;" transform="translate(0,-9999)"><path fill="none" d="M 3 0 L 13 0 C 16 0 16 0 16 3 L 16 13 C 16 16 16 16 13 16 L 3 16 C 0 16 0 16 0 13 L 0 3 C 0 0 0 0 3 0"  stroke="black" stroke-opacity="0.0" stroke-width="5" transform="translate(1, 1)"></path><path fill="none" d="M 3 0 L 13 0 C 16 0 16 0 16 3 L 16 13 C 16 16 16 16 13 16 L 3 16 C 0 16 0 16 0 13 L 0 3 C 0 0 0 0 3 0"  stroke="black" stroke-opacity="0.0" stroke-width="3" transform="translate(1, 1)"></path><path fill="none" d="M 3 0 L 13 0 C 16 0 16 0 16 3 L 16 13 C 16 16 16 16 13 16 L 3 16 C 0 16 0 16 0 13 L 0 3 C 0 0 0 0 3 0"  stroke="black" stroke-opacity="0.1" stroke-width="1" transform="translate(1, 1)"></path><path fill="rgb(249, 249, 249)" fill-opacity=" .85" d="M 3 0 L 13 0 C 16 0 16 0 16 3 L 16 13 C 16 16 16 16 13 16 L 3 16 C 0 16 0 16 0 13 L 0 3 C 0 0 0 0 3 0"></path><text x="8"  style="font-size:12px;color:#333333;fill:#333333;" y="20"></text></g></svg>