<svg version="1.1" style="font-family: signika, serif; font-size: 12px; background-image: url(http://www.highcharts.com/samples/graphics/sand.png); background-position: initial initial; background-repeat: initial initial;" xmlns="http://www.w3.org/2000/svg" width="584" height="400" viewBox="0 0 584 400" xmlns:xlink="http://www.w3.org/1999/xlink"><style type="text/css"><![CDATA[@import url(http://fonts.googleapis.com/css?family=Signika:700);]]></style><desc>Created with Highcharts 4.1.7</desc><defs><clipPath id="highcharts-1"><rect x="0" y="0" width="521" height="289"></rect></clipPath><clipPath id="highcharts-2"><rect x="-99" y="-41" width="620" height="400"></rect></clipPath><clipPath id="highcharts-3"><rect x="0" y="0" width="521" height="289"></rect></clipPath></defs><g class="highcharts-grid" ></g><g class="highcharts-grid" ><path fill="none" d="M 53 330.5 L 574 330.5" stroke="#D8D8D8" stroke-width="1"  opacity="1"></path><path fill="none" d="M 53 272.5 L 574 272.5" stroke="#D8D8D8" stroke-width="1"  opacity="1"></path><path fill="none" d="M 53 214.5 L 574 214.5" stroke="#D8D8D8" stroke-width="1"  opacity="1"></path><path fill="none" d="M 53 157.5 L 574 157.5" stroke="#D8D8D8" stroke-width="1"  opacity="1"></path><path fill="none" d="M 53 99.5 L 574 99.5" stroke="#D8D8D8" stroke-width="1"  opacity="1"></path><path fill="none" d="M 53 40.5 L 574 40.5" stroke="#D8D8D8" stroke-width="1"  opacity="1"></path></g><g class="highcharts-axis" ><path fill="none" d="M 95.5 330 L 95.5 340" stroke="#C0D0E0" stroke-width="1" opacity="1"></path><path fill="none" d="M 182.5 330 L 182.5 340" stroke="#C0D0E0" stroke-width="1" opacity="1"></path><path fill="none" d="M 269.5 330 L 269.5 340" stroke="#C0D0E0" stroke-width="1" opacity="1"></path><path fill="none" d="M 356.5 330 L 356.5 340" stroke="#C0D0E0" stroke-width="1" opacity="1"></path><path fill="none" d="M 443.5 330 L 443.5 340" stroke="#C0D0E0" stroke-width="1" opacity="1"></path><path fill="none" d="M 530.5 330 L 530.5 340" stroke="#C0D0E0" stroke-width="1" opacity="1"></path><path fill="none" d="M 53 330.5 L 574 330.5" stroke="#C0D0E0" stroke-width="1"  visibility="visible"></path></g><g class="highcharts-axis" ><text x="22.5"  text-anchor="middle" transform="translate(0,0) rotate(270 22.5 185.5)" class=" highcharts-yaxis-title" style="color:#707070;fill:#707070;" visibility="visible" y="185.5">Values</text></g><g class="highcharts-series-group" ><g class="highcharts-series" visibility="visible"  transform="translate(53,41) scale(1 1)" clip-path="url(#highcharts-3)"><path fill="none" d="M 43.4 224.8 L 477.5 28.3" stroke="black" stroke-width="5"  stroke-linejoin="round" stroke-linecap="round"  stroke-opacity="0.0" transform="translate(1, 1)"></path><path fill="none" d="M 43.4 224.8 L 477.5 28.3" stroke="black" stroke-width="3"  stroke-linejoin="round" stroke-linecap="round"  stroke-opacity="0.0" transform="translate(1, 1)"></path><path fill="none" d="M 43.4 224.8 L 477.5 28.3" stroke="black" stroke-width="1"  stroke-linejoin="round" stroke-linecap="round"  stroke-opacity="0.1" transform="translate(1, 1)"></path><path fill="none" d="M 43.4 224.8 L 477.5 28.3" stroke="#f45b5b" stroke-width="2"  stroke-linejoin="round" stroke-linecap="round"></path></g><g class="highcharts-markers" visibility="visible"  transform="translate(53,41) scale(1 1)" clip-path="url(#highcharts-2)"></g><g class="highcharts-series highcharts-tracker" visibility="visible"  transform="translate(53,41) scale(1 1)" clip-path="url(#highcharts-3)" style=""></g><g class="highcharts-markers highcharts-tracker" visibility="visible"  transform="translate(53,41) scale(1 1)" clip-path="url(#highcharts-2)" style=""><path fill="#8085e9" d="M 477 42.2 L 481 46.2 477 50.2 473 46.2 Z"></path><path fill="#8085e9" d="M 390 59.5 L 394 63.5 390 67.5 386 63.5 Z"></path><path fill="#8085e9" d="M 303 82.7 L 307 86.7 303 90.7 299 86.7 Z"></path><path fill="#8085e9" d="M 217 123.1 L 221 127.1 217 131.1 213 127.1 Z"></path><path fill="#8085e9" d="M 130 198.3 L 134 202.3 130 206.3 126 202.3 Z"></path><path fill="#8085e9" d="M 43 227.2 L 47 231.2 43 235.2 39 231.2 Z"></path></g></g><text x="292" text-anchor="middle" class="highcharts-title"  style="color:black;font-size:16px;font-weight:bold;fill:black;width:520px;" y="22"><tspan>Scatter plot with regression line</tspan></text><g class="highcharts-legend"  transform="translate(172,361)"><g ><g><g class="highcharts-legend-item"  transform="translate(8,3)"><path fill="none" d="M 0 12 L 16 12" stroke="#f45b5b" stroke-width="2"></path><text x="21" style="color:#333333;font-size:13px;font-weight:bold;cursor:pointer;fill:#333333;" text-anchor="start"  y="16"><tspan>Regression Line</tspan></text></g><g class="highcharts-legend-item"  transform="translate(138.0,3)"><path fill="#8085e9" d="M 8 8 L 12 12 8 16 4 12 Z"></path><text x="21" y="16" style="color:#333333;font-size:13px;font-weight:bold;cursor:pointer;fill:#333333;" text-anchor="start" >Observations</text></g></g></g></g><g class="highcharts-axis-labels highcharts-xaxis-labels" ><text x="96.4" style="color:#6e6e70;cursor:default;font-size:11px;fill:#6e6e70;width:103px;text-overflow:clip;" text-anchor="middle" transform="translate(0,0)" y="349" opacity="1">0</text><text x="183.2" style="color:#6e6e70;cursor:default;font-size:11px;fill:#6e6e70;width:103px;text-overflow:clip;" text-anchor="middle" transform="translate(0,0)" y="349" opacity="1">1</text><text x="270.0" style="color:#6e6e70;cursor:default;font-size:11px;fill:#6e6e70;width:103px;text-overflow:clip;" text-anchor="middle" transform="translate(0,0)" y="349" opacity="1">2</text><text x="356.9" style="color:#6e6e70;cursor:default;font-size:11px;fill:#6e6e70;width:103px;text-overflow:clip;" text-anchor="middle" transform="translate(0,0)" y="349" opacity="1">3</text><text x="443.7" style="color:#6e6e70;cursor:default;font-size:11px;fill:#6e6e70;width:103px;text-overflow:clip;" text-anchor="middle" transform="translate(0,0)" y="349" opacity="1">4</text><text x="530.5" style="color:#6e6e70;cursor:default;font-size:11px;fill:#6e6e70;width:103px;text-overflow:clip;" text-anchor="middle" transform="translate(0,0)" y="349" opacity="1">5</text></g><g class="highcharts-axis-labels highcharts-yaxis-labels" ><text x="38" style="color:#6e6e70;cursor:default;font-size:11px;fill:#6e6e70;width:183px;text-overflow:clip;" text-anchor="end" transform="translate(0,0)" y="336" opacity="1">0</text><text x="38" style="color:#6e6e70;cursor:default;font-size:11px;fill:#6e6e70;width:183px;text-overflow:clip;" text-anchor="end" transform="translate(0,0)" y="278" opacity="1">1</text><text x="38" style="color:#6e6e70;cursor:default;font-size:11px;fill:#6e6e70;width:183px;text-overflow:clip;" text-anchor="end" transform="translate(0,0)" y="220" opacity="1">2</text><text x="38" style="color:#6e6e70;cursor:default;font-size:11px;fill:#6e6e70;width:183px;text-overflow:clip;" text-anchor="end" transform="translate(0,0)" y="162" opacity="1">3</text><text x="38" style="color:#6e6e70;cursor:default;font-size:11px;fill:#6e6e70;width:183px;text-overflow:clip;" text-anchor="end" transform="translate(0,0)" y="104" opacity="1">4</text><text x="38" style="color:#6e6e70;cursor:default;font-size:11px;fill:#6e6e70;width:183px;text-overflow:clip;" text-anchor="end" transform="translate(0,0)" y="47" opacity="1">5</text></g><g class="highcharts-tooltip"  style="cursor:default;padding:0;white-space:nowrap;" transform="translate(0,-9999)"><path fill="none" d="M 3 0 L 13 0 C 16 0 16 0 16 3 L 16 13 C 16 16 16 16 13 16 L 3 16 C 0 16 0 16 0 13 L 0 3 C 0 0 0 0 3 0"  stroke="black" stroke-opacity="0.0" stroke-width="5" transform="translate(1, 1)"></path><path fill="none" d="M 3 0 L 13 0 C 16 0 16 0 16 3 L 16 13 C 16 16 16 16 13 16 L 3 16 C 0 16 0 16 0 13 L 0 3 C 0 0 0 0 3 0"  stroke="black" stroke-opacity="0.0" stroke-width="3" transform="translate(1, 1)"></path><path fill="none" d="M 3 0 L 13 0 C 16 0 16 0 16 3 L 16 13 C 16 16 16 16 13 16 L 3 16 C 0 16 0 16 0 13 L 0 3 C 0 0 0 0 3 0"  stroke="black" stroke-opacity="0.1" stroke-width="1" transform="translate(1, 1)"></path><path fill="rgb(249, 249, 249)" fill-opacity=" .85" d="M 3 0 L 13 0 C 16 0 16 0 16 3 L 16 13 C 16 16 16 16 13 16 L 3 16 C 0 16 0 16 0 13 L 0 3 C 0 0 0 0 3 0"></path><text x="8"  style="font-size:12px;color:#333333;fill:#333333;" y="20"></text></g></svg>