<svg version="1.1" style="font-family: signika, serif; font-size: 12px; background-image: url(http://www.highcharts.com/samples/graphics/sand.png); background-position: initial initial; background-repeat: initial initial;" xmlns="http://www.w3.org/2000/svg" width="584" height="400" viewBox="0 0 584 400" xmlns:xlink="http://www.w3.org/1999/xlink"><style type="text/css"><![CDATA[@import url(http://fonts.googleapis.com/css?family=Signika:700);]]></style><desc>Created with Highcharts 4.1.7</desc><defs><clipPath id="highcharts-1"><rect x="0" y="0" width="513" height="289"></rect></clipPath><clipPath id="highcharts-2"><rect x="-99" y="-41" width="612" height="400"></rect></clipPath><clipPath id="highcharts-3"><rect x="0" y="0" width="513" height="289"></rect></clipPath></defs><g class="highcharts-grid" ></g><g class="highcharts-grid" ><path fill="none" d="M 61 330.5 L 574 330.5" stroke="#D8D8D8" stroke-width="1"  opacity="1"></path><path fill="none" d="M 61 258.5 L 574 258.5" stroke="#D8D8D8" stroke-width="1"  opacity="1"></path><path fill="none" d="M 61 186.5 L 574 186.5" stroke="#D8D8D8" stroke-width="1"  opacity="1"></path><path fill="none" d="M 61 113.5 L 574 113.5" stroke="#D8D8D8" stroke-width="1"  opacity="1"></path><path fill="none" d="M 61 40.5 L 574 40.5" stroke="#D8D8D8" stroke-width="1"  opacity="1"></path></g><g class="highcharts-axis" ><path fill="none" d="M 163.5 330 L 163.5 340" stroke="#C0D0E0" stroke-width="1" opacity="1"></path><path fill="none" d="M 265.5 330 L 265.5 340" stroke="#C0D0E0" stroke-width="1" opacity="1"></path><path fill="none" d="M 368.5 330 L 368.5 340" stroke="#C0D0E0" stroke-width="1" opacity="1"></path><path fill="none" d="M 470.5 330 L 470.5 340" stroke="#C0D0E0" stroke-width="1" opacity="1"></path><path fill="none" d="M 574.5 330 L 574.5 340" stroke="#C0D0E0" stroke-width="1" opacity="1"></path><path fill="none" d="M 60.5 330 L 60.5 340" stroke="#C0D0E0" stroke-width="1" opacity="1"></path><path fill="none" d="M 61 330.5 L 574 330.5" stroke="#C0D0E0" stroke-width="1"  visibility="visible"></path></g><g class="highcharts-axis" ><text x="22.2"  text-anchor="middle" transform="translate(0,0) rotate(270 22.2 185.5)" class=" highcharts-yaxis-title" style="color:#707070;fill:#707070;" visibility="visible" y="185.5">Values</text></g><text x="111" y="71"  style="position:absolute;color:black;fill:black;"><tspan>Total fruit consumption</tspan></text><g class="highcharts-series-group" ><g class="highcharts-series highcharts-tracker" visibility="visible"  transform="translate(61,41) scale(1 1)" style="" clip-path="url(#highcharts-1)"><rect x="22.5" y="202.5" width="17" height="87" stroke="black" stroke-width="5" fill="none" rx="0" ry="0"  stroke-opacity="0.0" transform="translate(1, 1)"></rect><rect x="22.5" y="202.5" width="17" height="87" stroke="black" stroke-width="3" fill="none" rx="0" ry="0"  stroke-opacity="0.0" transform="translate(1, 1)"></rect><rect x="22.5" y="202.5" width="17" height="87" stroke="black" stroke-width="1" fill="none" rx="0" ry="0"  stroke-opacity="0.1" transform="translate(1, 1)"></rect><rect x="22.5" y="202.5" width="17" height="87" stroke="#FFFFFF" stroke-width="1" fill="#f45b5b" rx="0" ry="0"></rect><rect x="124.5" y="231.5" width="17" height="58" stroke="black" stroke-width="5" fill="none" rx="0" ry="0"  stroke-opacity="0.0" transform="translate(1, 1)"></rect><rect x="124.5" y="231.5" width="17" height="58" stroke="black" stroke-width="3" fill="none" rx="0" ry="0"  stroke-opacity="0.0" transform="translate(1, 1)"></rect><rect x="124.5" y="231.5" width="17" height="58" stroke="black" stroke-width="1" fill="none" rx="0" ry="0"  stroke-opacity="0.1" transform="translate(1, 1)"></rect><rect x="124.5" y="231.5" width="17" height="58" stroke="#FFFFFF" stroke-width="1" fill="#f45b5b" rx="0" ry="0"></rect><rect x="227.5" y="260.5" width="17" height="29" stroke="black" stroke-width="5" fill="none" rx="0" ry="0"  stroke-opacity="0.0" transform="translate(1, 1)"></rect><rect x="227.5" y="260.5" width="17" height="29" stroke="black" stroke-width="3" fill="none" rx="0" ry="0"  stroke-opacity="0.0" transform="translate(1, 1)"></rect><rect x="227.5" y="260.5" width="17" height="29" stroke="black" stroke-width="1" fill="none" rx="0" ry="0"  stroke-opacity="0.1" transform="translate(1, 1)"></rect><rect x="227.5" y="260.5" width="17" height="29" stroke="#FFFFFF" stroke-width="1" fill="#f45b5b" rx="0" ry="0"></rect><rect x="329.5" y="202.5" width="17" height="87" stroke="black" stroke-width="5" fill="none" rx="0" ry="0"  stroke-opacity="0.0" transform="translate(1, 1)"></rect><rect x="329.5" y="202.5" width="17" height="87" stroke="black" stroke-width="3" fill="none" rx="0" ry="0"  stroke-opacity="0.0" transform="translate(1, 1)"></rect><rect x="329.5" y="202.5" width="17" height="87" stroke="black" stroke-width="1" fill="none" rx="0" ry="0"  stroke-opacity="0.1" transform="translate(1, 1)"></rect><rect x="329.5" y="202.5" width="17" height="87" stroke="#FFFFFF" stroke-width="1" fill="#f45b5b" rx="0" ry="0"></rect><rect x="432.5" y="173.5" width="17" height="116" stroke="black" stroke-width="5" fill="none" rx="0" ry="0"  stroke-opacity="0.0" transform="translate(1, 1)"></rect><rect x="432.5" y="173.5" width="17" height="116" stroke="black" stroke-width="3" fill="none" rx="0" ry="0"  stroke-opacity="0.0" transform="translate(1, 1)"></rect><rect x="432.5" y="173.5" width="17" height="116" stroke="black" stroke-width="1" fill="none" rx="0" ry="0"  stroke-opacity="0.1" transform="translate(1, 1)"></rect><rect x="432.5" y="173.5" width="17" height="116" stroke="#FFFFFF" stroke-width="1" fill="#f45b5b" rx="0" ry="0"></rect></g><g class="highcharts-markers" visibility="visible"  transform="translate(61,41) scale(1 1)"></g><g class="highcharts-series highcharts-tracker" visibility="visible"  transform="translate(61,41) scale(1 1)" style="" clip-path="url(#highcharts-1)"><rect x="42.5" y="231.5" width="17" height="58" stroke="black" stroke-width="5" fill="none" rx="0" ry="0"  stroke-opacity="0.0" transform="translate(1, 1)"></rect><rect x="42.5" y="231.5" width="17" height="58" stroke="black" stroke-width="3" fill="none" rx="0" ry="0"  stroke-opacity="0.0" transform="translate(1, 1)"></rect><rect x="42.5" y="231.5" width="17" height="58" stroke="black" stroke-width="1" fill="none" rx="0" ry="0"  stroke-opacity="0.1" transform="translate(1, 1)"></rect><rect x="42.5" y="231.5" width="17" height="58" stroke="#FFFFFF" stroke-width="1" fill="#8085e9" rx="0" ry="0"></rect><rect x="145.5" y="202.5" width="17" height="87" stroke="black" stroke-width="5" fill="none" rx="0" ry="0"  stroke-opacity="0.0" transform="translate(1, 1)"></rect><rect x="145.5" y="202.5" width="17" height="87" stroke="black" stroke-width="3" fill="none" rx="0" ry="0"  stroke-opacity="0.0" transform="translate(1, 1)"></rect><rect x="145.5" y="202.5" width="17" height="87" stroke="black" stroke-width="1" fill="none" rx="0" ry="0"  stroke-opacity="0.1" transform="translate(1, 1)"></rect><rect x="145.5" y="202.5" width="17" height="87" stroke="#FFFFFF" stroke-width="1" fill="#8085e9" rx="0" ry="0"></rect><rect x="247.5" y="145.5" width="17" height="144" stroke="black" stroke-width="5" fill="none" rx="0" ry="0"  stroke-opacity="0.0" transform="translate(1, 1)"></rect><rect x="247.5" y="145.5" width="17" height="144" stroke="black" stroke-width="3" fill="none" rx="0" ry="0"  stroke-opacity="0.0" transform="translate(1, 1)"></rect><rect x="247.5" y="145.5" width="17" height="144" stroke="black" stroke-width="1" fill="none" rx="0" ry="0"  stroke-opacity="0.1" transform="translate(1, 1)"></rect><rect x="247.5" y="145.5" width="17" height="144" stroke="#FFFFFF" stroke-width="1" fill="#8085e9" rx="0" ry="0"></rect><rect x="350.5" y="87.5" width="17" height="202" stroke="black" stroke-width="5" fill="none" rx="0" ry="0"  stroke-opacity="0.0" transform="translate(1, 1)"></rect><rect x="350.5" y="87.5" width="17" height="202" stroke="black" stroke-width="3" fill="none" rx="0" ry="0"  stroke-opacity="0.0" transform="translate(1, 1)"></rect><rect x="350.5" y="87.5" width="17" height="202" stroke="black" stroke-width="1" fill="none" rx="0" ry="0"  stroke-opacity="0.1" transform="translate(1, 1)"></rect><rect x="350.5" y="87.5" width="17" height="202" stroke="#FFFFFF" stroke-width="1" fill="#8085e9" rx="0" ry="0"></rect><rect x="452.5" y="116.5" width="17" height="173" stroke="black" stroke-width="5" fill="none" rx="0" ry="0"  stroke-opacity="0.0" transform="translate(1, 1)"></rect><rect x="452.5" y="116.5" width="17" height="173" stroke="black" stroke-width="3" fill="none" rx="0" ry="0"  stroke-opacity="0.0" transform="translate(1, 1)"></rect><rect x="452.5" y="116.5" width="17" height="173" stroke="black" stroke-width="1" fill="none" rx="0" ry="0"  stroke-opacity="0.1" transform="translate(1, 1)"></rect><rect x="452.5" y="116.5" width="17" height="173" stroke="#FFFFFF" stroke-width="1" fill="#8085e9" rx="0" ry="0"></rect></g><g class="highcharts-markers" visibility="visible"  transform="translate(61,41) scale(1 1)"></g><g class="highcharts-series highcharts-tracker" visibility="visible"  transform="translate(61,41) scale(1 1)" style="" clip-path="url(#highcharts-1)"><rect x="63.5" y="173.5" width="17" height="116" stroke="black" stroke-width="5" fill="none" rx="0" ry="0"  stroke-opacity="0.0" transform="translate(1, 1)"></rect><rect x="63.5" y="173.5" width="17" height="116" stroke="black" stroke-width="3" fill="none" rx="0" ry="0"  stroke-opacity="0.0" transform="translate(1, 1)"></rect><rect x="63.5" y="173.5" width="17" height="116" stroke="black" stroke-width="1" fill="none" rx="0" ry="0"  stroke-opacity="0.1" transform="translate(1, 1)"></rect><rect x="63.5" y="173.5" width="17" height="116" stroke="#FFFFFF" stroke-width="1" fill="#8d4654" rx="0" ry="0"></rect><rect x="165.5" y="202.5" width="17" height="87" stroke="black" stroke-width="5" fill="none" rx="0" ry="0"  stroke-opacity="0.0" transform="translate(1, 1)"></rect><rect x="165.5" y="202.5" width="17" height="87" stroke="black" stroke-width="3" fill="none" rx="0" ry="0"  stroke-opacity="0.0" transform="translate(1, 1)"></rect><rect x="165.5" y="202.5" width="17" height="87" stroke="black" stroke-width="1" fill="none" rx="0" ry="0"  stroke-opacity="0.1" transform="translate(1, 1)"></rect><rect x="165.5" y="202.5" width="17" height="87" stroke="#FFFFFF" stroke-width="1" fill="#8d4654" rx="0" ry="0"></rect><rect x="268.5" y="202.5" width="17" height="87" stroke="black" stroke-width="5" fill="none" rx="0" ry="0"  stroke-opacity="0.0" transform="translate(1, 1)"></rect><rect x="268.5" y="202.5" width="17" height="87" stroke="black" stroke-width="3" fill="none" rx="0" ry="0"  stroke-opacity="0.0" transform="translate(1, 1)"></rect><rect x="268.5" y="202.5" width="17" height="87" stroke="black" stroke-width="1" fill="none" rx="0" ry="0"  stroke-opacity="0.1" transform="translate(1, 1)"></rect><rect x="268.5" y="202.5" width="17" height="87" stroke="#FFFFFF" stroke-width="1" fill="#8d4654" rx="0" ry="0"></rect><rect x="370.5" y="29.5" width="17" height="260" stroke="black" stroke-width="5" fill="none" rx="0" ry="0"  stroke-opacity="0.0" transform="translate(1, 1)"></rect><rect x="370.5" y="29.5" width="17" height="260" stroke="black" stroke-width="3" fill="none" rx="0" ry="0"  stroke-opacity="0.0" transform="translate(1, 1)"></rect><rect x="370.5" y="29.5" width="17" height="260" stroke="black" stroke-width="1" fill="none" rx="0" ry="0"  stroke-opacity="0.1" transform="translate(1, 1)"></rect><rect x="370.5" y="29.5" width="17" height="260" stroke="#FFFFFF" stroke-width="1" fill="#8d4654" rx="0" ry="0"></rect><rect x="473.5" y="289.5" width="17" height="0" stroke="black" stroke-width="5" fill="none" rx="0" ry="0"  stroke-opacity="0.0" transform="translate(1, 1)"></rect><rect x="473.5" y="289.5" width="17" height="0" stroke="black" stroke-width="3" fill="none" rx="0" ry="0"  stroke-opacity="0.0" transform="translate(1, 1)"></rect><rect x="473.5" y="289.5" width="17" height="0" stroke="black" stroke-width="1" fill="none" rx="0" ry="0"  stroke-opacity="0.1" transform="translate(1, 1)"></rect><rect x="473.5" y="289.5" width="17" height="0" stroke="#FFFFFF" stroke-width="1" fill="#8d4654" rx="0" ry="0"></rect></g><g class="highcharts-markers" visibility="visible"  transform="translate(61,41) scale(1 1)"></g><g class="highcharts-series" visibility="visible"  transform="translate(61,41) scale(1 1)" clip-path="url(#highcharts-3)"><path fill="none" d="M 51.3 202.3 C 51.3 202.3 112.8 211.8 153.8 211.8 C 194.9 211.8 215.4 211.8 256.5 202.3 C 297.5 192.7 318.0 106.0 359.0 106.0 C 400.1 106.0 461.7 192.7 461.7 192.7" stroke="black" stroke-width="5"  stroke-linejoin="round" stroke-linecap="round"  stroke-opacity="0.0" transform="translate(1, 1)"></path><path fill="none" d="M 51.3 202.3 C 51.3 202.3 112.8 211.8 153.8 211.8 C 194.9 211.8 215.4 211.8 256.5 202.3 C 297.5 192.7 318.0 106.0 359.0 106.0 C 400.1 106.0 461.7 192.7 461.7 192.7" stroke="black" stroke-width="3"  stroke-linejoin="round" stroke-linecap="round"  stroke-opacity="0.0" transform="translate(1, 1)"></path><path fill="none" d="M 51.3 202.3 C 51.3 202.3 112.8 211.8 153.8 211.8 C 194.9 211.8 215.4 211.8 256.5 202.3 C 297.5 192.7 318.0 106.0 359.0 106.0 C 400.1 106.0 461.7 192.7 461.7 192.7" stroke="black" stroke-width="1"  stroke-linejoin="round" stroke-linecap="round"  stroke-opacity="0.1" transform="translate(1, 1)"></path><path fill="none" d="M 51.3 202.3 C 51.3 202.3 112.8 211.8 153.8 211.8 C 194.9 211.8 215.4 211.8 256.5 202.3 C 297.5 192.7 318.0 106.0 359.0 106.0 C 400.1 106.0 461.7 192.7 461.7 192.7" stroke="#7798BF" stroke-width="2"  stroke-linejoin="round" stroke-linecap="round"></path><path fill="none" d="M 41.3 202.3 L 51.3 202.3 C 51.3 202.3 112.8 211.8 153.8 211.8 C 194.9 211.8 215.4 211.8 256.5 202.3 C 297.5 192.7 318.0 106.0 359.0 106.0 C 400.1 106.0 461.7 192.7 461.7 192.7 L 471.7 192.7" stroke-linejoin="round" visibility="visible" stroke="rgb(192,192,192)" stroke-opacity="0.0" stroke-width="22"  class=" highcharts-tracker" style=""></path></g><g class="highcharts-markers highcharts-tracker" visibility="visible"  transform="translate(61,41) scale(1 1)" clip-path="url(#highcharts-2)" style=""><path fill="white" d="M 461 188.7 C 466.3 188.7 466.3 196.7 461 196.7 C 455.6 196.7 455.6 188.7 461 188.7 Z" stroke="#7798BF" stroke-width="2"></path><path fill="white" d="M 359 102.0 C 364.3 102.0 364.3 110.0 359 110.0 C 353.6 110.0 353.6 102.0 359 102.0 Z" stroke="#7798BF" stroke-width="2"></path><path fill="white" d="M 256 198.3 C 261.3 198.3 261.3 206.3 256 206.3 C 250.6 206.3 250.6 198.3 256 198.3 Z" stroke="#7798BF" stroke-width="2"></path><path fill="white" d="M 153 207.8 C 158.3 207.8 158.3 215.8 153 215.8 C 147.6 215.8 147.6 207.8 153 207.8 Z" stroke="#7798BF" stroke-width="2"></path><path fill="white" d="M 51 198.3 C 56.3 198.3 56.3 206.3 51 206.3 C 45.6 206.3 45.6 198.3 51 198.3 Z" stroke="#7798BF" stroke-width="2"></path></g><g class="highcharts-series highcharts-tracker" visibility="visible"  transform="translate(61,41) scale(1 1)" style=""><g class="highcharts-shadow"><g class="highcharts-shadow" transform="translate(0,0)"><path fill="none" d="M 119.9 50.0 A 50 50 0 0 1 169.8 95.6 L 120 100 A 0 0 0 0 0 120 100 Z" stroke="black" stroke-width="5" stroke-linejoin="round" transform="translate(1, 1)"  stroke-opacity="0.0" r="50"></path><path fill="none" d="M 119.9 50.0 A 50 50 0 0 1 169.8 95.6 L 120 100 A 0 0 0 0 0 120 100 Z" stroke="black" stroke-width="3" stroke-linejoin="round" transform="translate(1, 1)"  stroke-opacity="0.0" r="50"></path><path fill="none" d="M 119.9 50.0 A 50 50 0 0 1 169.8 95.6 L 120 100 A 0 0 0 0 0 120 100 Z" stroke="black" stroke-width="1" stroke-linejoin="round" transform="translate(1, 1)"  stroke-opacity="0.1" r="50"></path></g><g class="highcharts-shadow" transform="translate(0,0)"><path fill="none" d="M 169.8 95.7 A 50 50 0 0 1 78.7 128.2 L 120 100 A 0 0 0 0 0 120 100 Z" stroke="black" stroke-width="5" stroke-linejoin="round" transform="translate(1, 1)"  stroke-opacity="0.0" r="50"></path><path fill="none" d="M 169.8 95.7 A 50 50 0 0 1 78.7 128.2 L 120 100 A 0 0 0 0 0 120 100 Z" stroke="black" stroke-width="3" stroke-linejoin="round" transform="translate(1, 1)"  stroke-opacity="0.0" r="50"></path><path fill="none" d="M 169.8 95.7 A 50 50 0 0 1 78.7 128.2 L 120 100 A 0 0 0 0 0 120 100 Z" stroke="black" stroke-width="1" stroke-linejoin="round" transform="translate(1, 1)"  stroke-opacity="0.1" r="50"></path></g><g class="highcharts-shadow" transform="translate(0,0)"><path fill="none" d="M 78.7 128.2 A 50 50 0 0 1 119.9 50.0 L 120 100 A 0 0 0 0 0 120 100 Z" stroke="black" stroke-width="5" stroke-linejoin="round" transform="translate(1, 1)"  stroke-opacity="0.0" r="50"></path><path fill="none" d="M 78.7 128.2 A 50 50 0 0 1 119.9 50.0 L 120 100 A 0 0 0 0 0 120 100 Z" stroke="black" stroke-width="3" stroke-linejoin="round" transform="translate(1, 1)"  stroke-opacity="0.0" r="50"></path><path fill="none" d="M 78.7 128.2 A 50 50 0 0 1 119.9 50.0 L 120 100 A 0 0 0 0 0 120 100 Z" stroke="black" stroke-width="1" stroke-linejoin="round" transform="translate(1, 1)"  stroke-opacity="0.1" r="50"></path></g></g><path fill="#f45b5b" d="M 119.9 50.0 A 50 50 0 0 1 169.8 95.6 L 120 100 A 0 0 0 0 0 120 100 Z" stroke="#FFFFFF" stroke-width="1" stroke-linejoin="round" transform="translate(0,0)"></path><path fill="#8085e9" d="M 169.8 95.7 A 50 50 0 0 1 78.7 128.2 L 120 100 A 0 0 0 0 0 120 100 Z" stroke="#FFFFFF" stroke-width="1" stroke-linejoin="round" transform="translate(0,0)"></path><path fill="#8d4654" d="M 78.7 128.2 A 50 50 0 0 1 119.9 50.0 L 120 100 A 0 0 0 0 0 120 100 Z" stroke="#FFFFFF" stroke-width="1" stroke-linejoin="round" transform="translate(0,0)"></path></g><g class="highcharts-markers" visibility="visible"  transform="translate(61,41) scale(1 1)"></g></g><text x="292" text-anchor="middle" class="highcharts-title"  style="color:black;font-size:16px;font-weight:bold;fill:black;width:520px;" y="22"><tspan>Combination chart</tspan></text><g class="highcharts-legend"  transform="translate(153,361)"><g ><g><g class="highcharts-legend-item"  transform="translate(8,3)"><text x="21" style="color:#333333;font-size:13px;font-weight:bold;cursor:pointer;fill:#333333;" text-anchor="start"  y="16">Jane</text><rect x="0" y="4" width="16" height="13"  fill="#f45b5b"></rect></g><g class="highcharts-legend-item"  transform="translate(74.9,3)"><text x="21" y="16" style="color:#333333;font-size:13px;font-weight:bold;cursor:pointer;fill:#333333;" text-anchor="start" >John</text><rect x="0" y="4" width="16" height="13"  fill="#8085e9"></rect></g><g class="highcharts-legend-item"  transform="translate(143.4,3)"><text x="21" y="16" style="color:#333333;font-size:13px;font-weight:bold;cursor:pointer;fill:#333333;" text-anchor="start" >Joe</text><rect x="0" y="4" width="16" height="13"  fill="#8d4654"></rect></g><g class="highcharts-legend-item"  transform="translate(203.1,3)"><path fill="none" d="M 0 12 L 16 12" stroke="#7798BF" stroke-width="2"></path><path fill="white" d="M 8 8 C 13.3 8 13.3 16 8 16 C 2.6 16 2.6 8 8 8 Z" stroke="#7798BF" stroke-width="2"></path><text x="21" y="16" style="color:#333333;font-size:13px;font-weight:bold;cursor:pointer;fill:#333333;" text-anchor="start" >Average</text></g></g></g></g><g class="highcharts-axis-labels highcharts-xaxis-labels" ><text x="112.3" style="color:#6e6e70;cursor:default;font-size:11px;fill:#6e6e70;width:103px;text-overflow:clip;" text-anchor="middle" transform="translate(0,0)" y="349" opacity="1">Apples</text><text x="214.8" style="color:#6e6e70;cursor:default;font-size:11px;fill:#6e6e70;width:103px;text-overflow:clip;" text-anchor="middle" transform="translate(0,0)" y="349" opacity="1">Oranges</text><text x="317.5" style="color:#6e6e70;cursor:default;font-size:11px;fill:#6e6e70;width:103px;text-overflow:clip;" text-anchor="middle" transform="translate(0,0)" y="349" opacity="1">Pears</text><text x="420.0" style="color:#6e6e70;cursor:default;font-size:11px;fill:#6e6e70;width:103px;text-overflow:clip;" text-anchor="middle" transform="translate(0,0)" y="349" opacity="1">Bananas</text><text x="522.7" style="color:#6e6e70;cursor:default;font-size:11px;fill:#6e6e70;width:103px;text-overflow:clip;" text-anchor="middle" transform="translate(0,0)" y="349" opacity="1">Plums</text></g><g class="highcharts-axis-labels highcharts-yaxis-labels" ><text x="46" style="color:#6e6e70;cursor:default;font-size:11px;fill:#6e6e70;width:183px;text-overflow:clip;" text-anchor="end" transform="translate(0,0)" y="336" opacity="1">0</text><text x="46" style="color:#6e6e70;cursor:default;font-size:11px;fill:#6e6e70;width:183px;text-overflow:clip;" text-anchor="end" transform="translate(0,0)" y="263" opacity="1">2.5</text><text x="46" style="color:#6e6e70;cursor:default;font-size:11px;fill:#6e6e70;width:183px;text-overflow:clip;" text-anchor="end" transform="translate(0,0)" y="191" opacity="1">5</text><text x="46" style="color:#6e6e70;cursor:default;font-size:11px;fill:#6e6e70;width:183px;text-overflow:clip;" text-anchor="end" transform="translate(0,0)" y="119" opacity="1">7.5</text><text x="46" style="color:#6e6e70;cursor:default;font-size:11px;fill:#6e6e70;width:183px;text-overflow:clip;" text-anchor="end" transform="translate(0,0)" y="47" opacity="1">10</text></g><g class="highcharts-tooltip"  style="cursor:default;padding:0;white-space:nowrap;" transform="translate(0,-9999)"><path fill="none" d="M 3 0 L 13 0 C 16 0 16 0 16 3 L 16 13 C 16 16 16 16 13 16 L 3 16 C 0 16 0 16 0 13 L 0 3 C 0 0 0 0 3 0"  stroke="black" stroke-opacity="0.0" stroke-width="5" transform="translate(1, 1)"></path><path fill="none" d="M 3 0 L 13 0 C 16 0 16 0 16 3 L 16 13 C 16 16 16 16 13 16 L 3 16 C 0 16 0 16 0 13 L 0 3 C 0 0 0 0 3 0"  stroke="black" stroke-opacity="0.0" stroke-width="3" transform="translate(1, 1)"></path><path fill="none" d="M 3 0 L 13 0 C 16 0 16 0 16 3 L 16 13 C 16 16 16 16 13 16 L 3 16 C 0 16 0 16 0 13 L 0 3 C 0 0 0 0 3 0"  stroke="black" stroke-opacity="0.1" stroke-width="1" transform="translate(1, 1)"></path><path fill="rgb(249, 249, 249)" fill-opacity=" .85" d="M 3 0 L 13 0 C 16 0 16 0 16 3 L 16 13 C 16 16 16 16 13 16 L 3 16 C 0 16 0 16 0 13 L 0 3 C 0 0 0 0 3 0"></path><text x="8"  style="font-size:12px;color:#333333;fill:#333333;" y="20"></text></g></svg>