<svg version="1.1" style="font-family:&quot;lucida grande&quot;, &quot;lucida sans unicode&quot;, arial, helvetica, sans-serif;font-size:12px;" xmlns="http://www.w3.org/2000/svg" width="584" height="400" viewBox="0 0 584 400"><desc>Created with Highcharts 4.1.6</desc><defs><clipPath id="highcharts-1"><rect x="0" y="0" width="325" height="291"></rect></clipPath><clipPath id="highcharts-2"><rect x="-99" y="-61" width="424" height="400"></rect></clipPath><clipPath id="highcharts-3"><rect x="0" y="0" width="325" height="291"></rect></clipPath></defs><rect x="0" y="0" width="584" height="400" strokeWidth="0" fill="#FFFFFF" class=" highcharts-background" stroke="transparent"></rect><g class="highcharts-grid" ></g><g class="highcharts-grid" ><path fill="none" d="M 94 352.5 L 419 352.5" stroke="#D8D8D8" stroke-width="1"  opacity="1"></path><path fill="none" d="M 94 294.5 L 419 294.5" stroke="#D8D8D8" stroke-width="1"  opacity="1"></path><path fill="none" d="M 94 236.5 L 419 236.5" stroke="#D8D8D8" stroke-width="1"  opacity="1"></path><path fill="none" d="M 94 177.5 L 419 177.5" stroke="#D8D8D8" stroke-width="1"  opacity="1"></path><path fill="none" d="M 94 119.5 L 419 119.5" stroke="#D8D8D8" stroke-width="1"  opacity="1"></path><path fill="none" d="M 94 60.5 L 419 60.5" stroke="#D8D8D8" stroke-width="1"  opacity="1"></path></g><g class="highcharts-grid" ></g><g class="highcharts-grid" ></g><g class="highcharts-axis" ><path fill="none" d="M 120.5 352 L 120.5 362" stroke="#C0D0E0" stroke-width="1" opacity="1"></path><path fill="none" d="M 147.5 352 L 147.5 362" stroke="#C0D0E0" stroke-width="1" opacity="1"></path><path fill="none" d="M 174.5 352 L 174.5 362" stroke="#C0D0E0" stroke-width="1" opacity="1"></path><path fill="none" d="M 201.5 352 L 201.5 362" stroke="#C0D0E0" stroke-width="1" opacity="1"></path><path fill="none" d="M 228.5 352 L 228.5 362" stroke="#C0D0E0" stroke-width="1" opacity="1"></path><path fill="none" d="M 256.5 352 L 256.5 362" stroke="#C0D0E0" stroke-width="1" opacity="1"></path><path fill="none" d="M 283.5 352 L 283.5 362" stroke="#C0D0E0" stroke-width="1" opacity="1"></path><path fill="none" d="M 310.5 352 L 310.5 362" stroke="#C0D0E0" stroke-width="1" opacity="1"></path><path fill="none" d="M 337.5 352 L 337.5 362" stroke="#C0D0E0" stroke-width="1" opacity="1"></path><path fill="none" d="M 364.5 352 L 364.5 362" stroke="#C0D0E0" stroke-width="1" opacity="1"></path><path fill="none" d="M 391.5 352 L 391.5 362" stroke="#C0D0E0" stroke-width="1" opacity="1"></path><path fill="none" d="M 419.5 352 L 419.5 362" stroke="#C0D0E0" stroke-width="1" opacity="1"></path><path fill="none" d="M 93.5 352 L 93.5 362" stroke="#C0D0E0" stroke-width="1" opacity="1"></path><path fill="none" d="M 94 352.5 L 419 352.5" stroke="#C0D0E0" stroke-width="1"  visibility="visible"></path></g><g class="highcharts-axis" ><text x="471"  text-anchor="middle" transform="translate(0,0) rotate(90 471 206.5)" class=" highcharts-yaxis-title" style="color:#90ed7d;fill:#90ed7d;" visibility="visible" y="206.5">Temperature</text></g><g class="highcharts-axis" ><text x="25"  text-anchor="middle" transform="translate(0,0) rotate(270 25 206.5)" class=" highcharts-yaxis-title" style="color:#7cb5ec;fill:#7cb5ec;" visibility="visible" y="206.5">Rainfall</text></g><g class="highcharts-axis" ><text x="559"  text-anchor="middle" transform="translate(0,0) rotate(90 559 206.5)" class=" highcharts-yaxis-title" style="color:#434348;fill:#434348;" visibility="visible" y="206.5"><tspan>Sea-Level Pressure</tspan></text></g><g class="highcharts-series-group" ><g class="highcharts-series highcharts-tracker" visibility="visible"  transform="translate(94,61) scale(1 1)" style="" clip-path="url(#highcharts-1)"><rect x="6.5" y="233.5" width="13" height="58" stroke="#FFFFFF" stroke-width="1" fill="#7cb5ec" rx="0" ry="0"></rect><rect x="33.5" y="208.5" width="13" height="83" stroke="#FFFFFF" stroke-width="1" fill="#7cb5ec" rx="0" ry="0"></rect><rect x="60.5" y="167.5" width="13" height="124" stroke="#FFFFFF" stroke-width="1" fill="#7cb5ec" rx="0" ry="0"></rect><rect x="87.5" y="141.5" width="13" height="150" stroke="#FFFFFF" stroke-width="1" fill="#7cb5ec" rx="0" ry="0"></rect><rect x="114.5" y="123.5" width="13" height="168" stroke="#FFFFFF" stroke-width="1" fill="#7cb5ec" rx="0" ry="0"></rect><rect x="141.5" y="86.5" width="13" height="205" stroke="#FFFFFF" stroke-width="1" fill="#7cb5ec" rx="0" ry="0"></rect><rect x="169.5" y="133.5" width="13" height="158" stroke="#FFFFFF" stroke-width="1" fill="#7cb5ec" rx="0" ry="0"></rect><rect x="196.5" y="118.5" width="13" height="173" stroke="#FFFFFF" stroke-width="1" fill="#7cb5ec" rx="0" ry="0"></rect><rect x="223.5" y="39.5" width="13" height="252" stroke="#FFFFFF" stroke-width="1" fill="#7cb5ec" rx="0" ry="0"></rect><rect x="250.5" y="65.5" width="13" height="226" stroke="#FFFFFF" stroke-width="1" fill="#7cb5ec" rx="0" ry="0"></rect><rect x="277.5" y="180.5" width="13" height="111" stroke="#FFFFFF" stroke-width="1" fill="#7cb5ec" rx="0" ry="0"></rect><rect x="304.5" y="228.5" width="13" height="63" stroke="#FFFFFF" stroke-width="1" fill="#7cb5ec" rx="0" ry="0"></rect></g><g class="highcharts-markers" visibility="visible"  transform="translate(94,61) scale(1 1)"></g><g class="highcharts-series" visibility="visible"  transform="translate(94,61) scale(1 1)" clip-path="url(#highcharts-3)"><path fill="none" d="M 13.5 174.6 C 13.5 174.6 29.7 174.6 40.6 174.6 C 51.4 174.6 56.8 174.6 67.7 176.0 C 78.5 177.5 83.9 176.0 94.7 181.8 C 105.6 187.6 111.0 210.9 121.8 228.4 C 132.7 245.8 138.1 269.1 148.9 269.1 C 159.7 269.1 165.2 269.1 176.0 267.7 C 186.8 266.2 192.2 267.7 203.1 258.9 C 213.9 250.2 219.3 236.2 230.2 216.7 C 241.0 197.2 246.4 176.3 257.2 161.5 C 268.1 146.6 273.5 142.5 284.3 142.5 C 295.2 142.5 311.4 164.4 311.4 164.4" stroke="#434348" stroke-width="2"  stroke-dasharray="2,2"></path><path fill="none" d="M 3.5 174.6 L 13.5 174.6 C 13.5 174.6 29.7 174.6 40.6 174.6 C 51.4 174.6 56.8 174.6 67.7 176.0 C 78.5 177.5 83.9 176.0 94.7 181.8 C 105.6 187.6 111.0 210.9 121.8 228.4 C 132.7 245.8 138.1 269.1 148.9 269.1 C 159.7 269.1 165.2 269.1 176.0 267.7 C 186.8 266.2 192.2 267.7 203.1 258.9 C 213.9 250.2 219.3 236.2 230.2 216.7 C 241.0 197.2 246.4 176.3 257.2 161.5 C 268.1 146.6 273.5 142.5 284.3 142.5 C 295.2 142.5 311.4 164.4 311.4 164.4 L 321.4 164.4" stroke-linejoin="round" visibility="visible" stroke="rgb(192,192,192)" stroke-opacity="0.0" stroke-width="22"  class=" highcharts-tracker" style=""></path></g><g class="highcharts-markers highcharts-tracker" visibility="visible"  transform="translate(94,61) scale(1 1)" clip-path="url(#highcharts-2)" style=""></g><g class="highcharts-series" visibility="visible"  transform="translate(94,61) scale(1 1)" clip-path="url(#highcharts-3)"><path fill="none" d="M 13.5 267.7 C 13.5 267.7 29.7 268.8 40.6 268.8 C 51.4 268.8 56.8 256.3 67.7 238.6 C 78.5 220.9 83.9 200.6 94.7 180.4 C 105.6 160.1 111.0 153.6 121.8 137.3 C 132.7 121.0 138.1 115.2 148.9 98.9 C 159.7 82.6 165.2 67.5 176.0 55.8 C 186.8 44.2 192.2 40.7 203.1 40.7 C 213.9 40.7 219.3 58.8 230.2 77.9 C 241.0 97.0 246.4 114.3 257.2 136.1 C 268.1 158.0 273.5 167.1 284.3 187.4 C 295.2 207.6 311.4 237.4 311.4 237.4" stroke="#90ed7d" stroke-width="2"  stroke-linejoin="round" stroke-linecap="round"></path><path fill="none" d="M 3.5 267.7 L 13.5 267.7 C 13.5 267.7 29.7 268.8 40.6 268.8 C 51.4 268.8 56.8 256.3 67.7 238.6 C 78.5 220.9 83.9 200.6 94.7 180.4 C 105.6 160.1 111.0 153.6 121.8 137.3 C 132.7 121.0 138.1 115.2 148.9 98.9 C 159.7 82.6 165.2 67.5 176.0 55.8 C 186.8 44.2 192.2 40.7 203.1 40.7 C 213.9 40.7 219.3 58.8 230.2 77.9 C 241.0 97.0 246.4 114.3 257.2 136.1 C 268.1 158.0 273.5 167.1 284.3 187.4 C 295.2 207.6 311.4 237.4 311.4 237.4 L 321.4 237.4" stroke-linejoin="round" visibility="visible" stroke="rgb(192,192,192)" stroke-opacity="0.0" stroke-width="22"  class=" highcharts-tracker" style=""></path></g><g class="highcharts-markers highcharts-tracker" visibility="visible"  transform="translate(94,61) scale(1 1)" clip-path="url(#highcharts-2)" style=""><path fill="#90ed7d" d="M 311 233.4 L 315 237.4 311 241.4 307 237.4 Z"></path><path fill="#90ed7d" d="M 284 183.4 L 288 187.4 284 191.4 280 187.4 Z"></path><path fill="#90ed7d" d="M 257 132.1 L 261 136.1 257 140.1 253 136.1 Z"></path><path fill="#90ed7d" d="M 230 73.9 L 234 77.9 230 81.9 226 77.9 Z"></path><path fill="#90ed7d" d="M 203 36.7 L 207 40.7 203 44.7 199 40.7 Z"></path><path fill="#90ed7d" d="M 176 51.8 L 180 55.8 176 59.8 172 55.8 Z"></path><path fill="#90ed7d" d="M 148 94.9 L 152 98.9 148 102.9 144 98.9 Z"></path><path fill="#90ed7d" d="M 121 133.3 L 125 137.3 121 141.3 117 137.3 Z"></path><path fill="#90ed7d" d="M 94 176.4 L 98 180.4 94 184.4 90 180.4 Z"></path><path fill="#90ed7d" d="M 67 234.6 L 71 238.6 67 242.6 63 238.6 Z"></path><path fill="#90ed7d" d="M 40 264.8 L 44 268.8 40 272.8 36 268.8 Z"></path><path fill="#90ed7d" d="M 13 263.7 L 17 267.7 13 271.7 9 267.7 Z"></path></g></g><text x="292" text-anchor="middle" class="highcharts-title"  style="color:#333333;font-size:18px;fill:#333333;width:520px;" y="24"><tspan>Average Monthly Weather Data for Tokyo</tspan></text><text x="292" text-anchor="middle" class="highcharts-subtitle"  style="color:#555555;fill:#555555;width:520px;" y="45"><tspan>Source: WorldClimate.com</tspan></text><g class="highcharts-legend"  transform="translate(90,65)"><rect x="0" y="0" width="155" height="56" strokeWidth="0" fill="#FFFFFF" visibility="visible"></rect><g ><g><g class="highcharts-legend-item"  transform="translate(8,3)"><text x="21" style="color:#333333;font-size:12px;font-weight:bold;cursor:pointer;fill:#333333;" text-anchor="start"  y="15">Rainfall</text><rect x="0" y="4" width="16" height="12"  fill="#7cb5ec"></rect></g><g class="highcharts-legend-item"  transform="translate(8,18)"><path fill="none" d="M 0 11 L 16 11" stroke-dasharray="2,2" stroke="#434348" stroke-width="2"></path><text x="21" y="15" style="color:#333333;font-size:12px;font-weight:bold;cursor:pointer;fill:#333333;" text-anchor="start" ><tspan>Sea-Level Pressure</tspan></text></g><g class="highcharts-legend-item"  transform="translate(8,33)"><path fill="none" d="M 0 11 L 16 11" stroke="#90ed7d" stroke-width="2"></path><path fill="#90ed7d" d="M 8 7 L 12 11 8 15 4 11 Z"></path><text x="21" y="15" style="color:#333333;font-size:12px;font-weight:bold;cursor:pointer;fill:#333333;" text-anchor="start" >Temperature</text></g></g></g></g><g class="highcharts-axis-labels highcharts-xaxis-labels" ><text x="110.1" style="color:#606060;cursor:default;font-size:11px;fill:#606060;width:400px;text-overflow:ellipsis;" text-anchor="end" transform="translate(0,0) rotate(-45 110.1 368)" y="368" opacity="1"><tspan>Jan</tspan></text><text x="137.2" style="color:#606060;cursor:default;font-size:11px;fill:#606060;width:400px;text-overflow:ellipsis;" text-anchor="end" transform="translate(0,0) rotate(-45 137.2 368)" y="368" opacity="1"><tspan>Feb</tspan></text><text x="164.3" style="color:#606060;cursor:default;font-size:11px;fill:#606060;width:400px;text-overflow:ellipsis;" text-anchor="end" transform="translate(0,0) rotate(-45 164.3 368)" y="368" opacity="1"><tspan>Mar</tspan></text><text x="191.3" style="color:#606060;cursor:default;font-size:11px;fill:#606060;width:400px;text-overflow:ellipsis;" text-anchor="end" transform="translate(0,0) rotate(-45 191.3 368)" y="368" opacity="1"><tspan>Apr</tspan></text><text x="218.4" style="color:#606060;cursor:default;font-size:11px;fill:#606060;width:400px;text-overflow:ellipsis;" text-anchor="end" transform="translate(0,0) rotate(-45 218.4 368)" y="368" opacity="1"><tspan>May</tspan></text><text x="245.5" style="color:#606060;cursor:default;font-size:11px;fill:#606060;width:400px;text-overflow:ellipsis;" text-anchor="end" transform="translate(0,0) rotate(-45 245.5 368)" y="368" opacity="1"><tspan>Jun</tspan></text><text x="272.6" style="color:#606060;cursor:default;font-size:11px;fill:#606060;width:400px;text-overflow:ellipsis;" text-anchor="end" transform="translate(0,0) rotate(-45 272.6 368)" y="368" opacity="1"><tspan>Jul</tspan></text><text x="299.7" style="color:#606060;cursor:default;font-size:11px;fill:#606060;width:400px;text-overflow:ellipsis;" text-anchor="end" transform="translate(0,0) rotate(-45 299.7 368)" y="368" opacity="1"><tspan>Aug</tspan></text><text x="326.8" style="color:#606060;cursor:default;font-size:11px;fill:#606060;width:400px;text-overflow:ellipsis;" text-anchor="end" transform="translate(0,0) rotate(-45 326.8 368)" y="368" opacity="1"><tspan>Sep</tspan></text><text x="353.8" style="color:#606060;cursor:default;font-size:11px;fill:#606060;width:400px;text-overflow:ellipsis;" text-anchor="end" transform="translate(0,0) rotate(-45 353.8 368)" y="368" opacity="1"><tspan>Oct</tspan></text><text x="380.9" style="color:#606060;cursor:default;font-size:11px;fill:#606060;width:400px;text-overflow:ellipsis;" text-anchor="end" transform="translate(0,0) rotate(-45 380.9 368)" y="368" opacity="1"><tspan>Nov</tspan></text><text x="408.0" style="color:#606060;cursor:default;font-size:11px;fill:#606060;width:400px;text-overflow:ellipsis;" text-anchor="end" transform="translate(0,0) rotate(-45 408.0 368)" y="368" opacity="1"><tspan>Dec</tspan></text></g><g class="highcharts-axis-labels highcharts-yaxis-labels" ><text x="434" style="color:#90ed7d;cursor:default;font-size:11px;fill:#90ed7d;width:183px;text-overflow:clip;" text-anchor="start" transform="translate(0,0)" y="357" opacity="1">5°C</text><text x="434" style="color:#90ed7d;cursor:default;font-size:11px;fill:#90ed7d;width:183px;text-overflow:clip;" text-anchor="start" transform="translate(0,0)" y="298" opacity="1">10°C</text><text x="434" style="color:#90ed7d;cursor:default;font-size:11px;fill:#90ed7d;width:183px;text-overflow:clip;" text-anchor="start" transform="translate(0,0)" y="240" opacity="1">15°C</text><text x="434" style="color:#90ed7d;cursor:default;font-size:11px;fill:#90ed7d;width:183px;text-overflow:clip;" text-anchor="start" transform="translate(0,0)" y="182" opacity="1">20°C</text><text x="434" style="color:#90ed7d;cursor:default;font-size:11px;fill:#90ed7d;width:183px;text-overflow:clip;" text-anchor="start" transform="translate(0,0)" y="124" opacity="1">25°C</text><text x="434" style="color:#90ed7d;cursor:default;font-size:11px;fill:#90ed7d;width:183px;text-overflow:clip;" text-anchor="start" transform="translate(0,0)" y="66" opacity="1">30°C</text></g><g class="highcharts-axis-labels highcharts-yaxis-labels" ><text x="79" style="color:#7cb5ec;cursor:default;font-size:11px;fill:#7cb5ec;width:183px;text-overflow:clip;" text-anchor="end" transform="translate(0,0)" y="357" opacity="1"><tspan>0 mm</tspan></text><text x="79" style="color:#7cb5ec;cursor:default;font-size:11px;fill:#7cb5ec;width:183px;text-overflow:clip;" text-anchor="end" transform="translate(0,0)" y="298" opacity="1"><tspan>50 mm</tspan></text><text x="79" style="color:#7cb5ec;cursor:default;font-size:11px;fill:#7cb5ec;width:183px;text-overflow:clip;" text-anchor="end" transform="translate(0,0)" y="240" opacity="1"><tspan>100 mm</tspan></text><text x="79" style="color:#7cb5ec;cursor:default;font-size:11px;fill:#7cb5ec;width:183px;text-overflow:clip;" text-anchor="end" transform="translate(0,0)" y="182" opacity="1"><tspan>150 mm</tspan></text><text x="79" style="color:#7cb5ec;cursor:default;font-size:11px;fill:#7cb5ec;width:183px;text-overflow:clip;" text-anchor="end" transform="translate(0,0)" y="124" opacity="1"><tspan>200 mm</tspan></text><text x="79" style="color:#7cb5ec;cursor:default;font-size:11px;fill:#7cb5ec;width:183px;text-overflow:clip;" text-anchor="end" transform="translate(0,0)" y="66" opacity="1"><tspan>250 mm</tspan></text></g><g class="highcharts-axis-labels highcharts-yaxis-labels" ><text x="501" style="color:#434348;cursor:default;font-size:11px;fill:#434348;width:183px;text-overflow:clip;" text-anchor="start" transform="translate(0,0)" y="357" opacity="1"><tspan>1008 mb</tspan></text><text x="501" style="color:#434348;cursor:default;font-size:11px;fill:#434348;width:183px;text-overflow:clip;" text-anchor="start" transform="translate(0,0)" y="298" opacity="1"><tspan>1012 mb</tspan></text><text x="501" style="color:#434348;cursor:default;font-size:11px;fill:#434348;width:183px;text-overflow:clip;" text-anchor="start" transform="translate(0,0)" y="240" opacity="1"><tspan>1016 mb</tspan></text><text x="501" style="color:#434348;cursor:default;font-size:11px;fill:#434348;width:183px;text-overflow:clip;" text-anchor="start" transform="translate(0,0)" y="182" opacity="1"><tspan>1020 mb</tspan></text><text x="501" style="color:#434348;cursor:default;font-size:11px;fill:#434348;width:183px;text-overflow:clip;" text-anchor="start" transform="translate(0,0)" y="124" opacity="1"><tspan>1024 mb</tspan></text><text x="501" style="color:#434348;cursor:default;font-size:11px;fill:#434348;width:183px;text-overflow:clip;" text-anchor="start" transform="translate(0,0)" y="66" opacity="1"><tspan>1028 mb</tspan></text></g><g class="highcharts-tooltip"  style="cursor:default;padding:0;white-space:nowrap;" transform="translate(0,-9999)"><path fill="none" d="M 3.5 0.5 L 13.5 0.5 C 16.5 0.5 16.5 0.5 16.5 3.5 L 16.5 13.5 C 16.5 16.5 16.5 16.5 13.5 16.5 L 3.5 16.5 C 0.5 16.5 0.5 16.5 0.5 13.5 L 0.5 3.5 C 0.5 0.5 0.5 0.5 3.5 0.5"  stroke="black" stroke-opacity="0.0" stroke-width="5" transform="translate(1, 1)"></path><path fill="none" d="M 3.5 0.5 L 13.5 0.5 C 16.5 0.5 16.5 0.5 16.5 3.5 L 16.5 13.5 C 16.5 16.5 16.5 16.5 13.5 16.5 L 3.5 16.5 C 0.5 16.5 0.5 16.5 0.5 13.5 L 0.5 3.5 C 0.5 0.5 0.5 0.5 3.5 0.5"  stroke="black" stroke-opacity="0.0" stroke-width="3" transform="translate(1, 1)"></path><path fill="none" d="M 3.5 0.5 L 13.5 0.5 C 16.5 0.5 16.5 0.5 16.5 3.5 L 16.5 13.5 C 16.5 16.5 16.5 16.5 13.5 16.5 L 3.5 16.5 C 0.5 16.5 0.5 16.5 0.5 13.5 L 0.5 3.5 C 0.5 0.5 0.5 0.5 3.5 0.5"  stroke="black" stroke-opacity="0.1" stroke-width="1" transform="translate(1, 1)"></path><path fill="rgb(249, 249, 249)" fill-opacity=" .85" d="M 3.5 0.5 L 13.5 0.5 C 16.5 0.5 16.5 0.5 16.5 3.5 L 16.5 13.5 C 16.5 16.5 16.5 16.5 13.5 16.5 L 3.5 16.5 C 0.5 16.5 0.5 16.5 0.5 13.5 L 0.5 3.5 C 0.5 0.5 0.5 0.5 3.5 0.5"></path><text x="8"  style="font-size:12px;color:#333333;fill:#333333;" y="20"></text></g></svg>