<svg version="1.1" style="font-family: signika, serif; font-size: 12px; background-image: url(http://www.highcharts.com/samples/graphics/sand.png); background-position: initial initial; background-repeat: initial initial;" xmlns="http://www.w3.org/2000/svg" width="584" height="420" viewBox="0 0 584 420" xmlns:xlink="http://www.w3.org/1999/xlink"><style type="text/css"><![CDATA[@import url(http://fonts.googleapis.com/css?family=Signika:700);]]></style><desc>Created with Highstock 2.1.7</desc><defs><clipPath id="highcharts-1"><rect x="0" y="0" width="516" height="309"></rect></clipPath><clipPath id="highcharts-2"><rect x="-99" y="-41" width="615" height="420"></rect></clipPath><clipPath id="highcharts-3"><rect x="0" y="0" width="516" height="309"></rect></clipPath></defs><path fill="#EFFFFF" d="M 21.5 41 L 21.5 350 122.5 350 122.5 41 M 21.5 41 L 21.5 350 122.5 350 122.5 41"></path><text x="72" text-anchor="middle" transform="translate(0,0)" style="color:#999999;fill:#999999;" y="221" visibility="visible"><tspan style="font-style:italic">Offices:</tspan><tspan x="72" dy="15"> Torstein's basement</tspan></text><path fill="#FFFFEF" d="M 122.5 41 L 122.5 350 405.5 350 405.5 41 M 122.5 41 L 122.5 350 405.5 350 405.5 41"></path><text x="264" text-anchor="middle" transform="translate(0,0)" style="color:#999999;fill:#999999;" y="71" visibility="visible"><tspan style="font-style:italic">Offices:</tspan><tspan x="264" dy="15"> Tomtebu</tspan></text><path fill="#FFEFFF" d="M 405.5 41 L 405.5 350 520.5 350 520.5 41 M 405.5 41 L 405.5 350 520.5 350 520.5 41"></path><text x="463" text-anchor="middle" transform="translate(0,0)" style="color:#999999;fill:#999999;" y="71" visibility="visible"><tspan style="font-style:italic">Offices:</tspan><tspan x="463" dy="15"> VikØrsta</tspan></text><g class="highcharts-grid" ></g><g class="highcharts-grid" ><path fill="none" d="M 10 350.5 L 526 350.5" stroke="rgb(0, 0, 0)" stroke-opacity=" 0.0" stroke-width="1"  opacity="1"></path><path fill="none" d="M 10 288.5 L 526 288.5" stroke="rgb(0, 0, 0)" stroke-opacity=" 0.0" stroke-width="1"  opacity="1"></path><path fill="none" d="M 10 226.5 L 526 226.5" stroke="rgb(0, 0, 0)" stroke-opacity=" 0.0" stroke-width="1"  opacity="1"></path><path fill="none" d="M 10 165.5 L 526 165.5" stroke="rgb(0, 0, 0)" stroke-opacity=" 0.0" stroke-width="1"  opacity="1"></path><path fill="none" d="M 10 103.5 L 526 103.5" stroke="rgb(0, 0, 0)" stroke-opacity=" 0.0" stroke-width="1"  opacity="1"></path><path fill="none" d="M 10 40.5 L 526 40.5" stroke="rgb(0, 0, 0)" stroke-opacity=" 0.0" stroke-width="1"  opacity="1"></path></g><g class="highcharts-grid" ></g><g class="highcharts-axis" ><path fill="none" d="M 31.5 350 L 31.5 360" stroke="#C0D0E0" stroke-width="1" opacity="1"></path><path fill="none" d="M 130.5 350 L 130.5 360" stroke="#C0D0E0" stroke-width="1" opacity="1"></path><path fill="none" d="M 230.5 350 L 230.5 360" stroke="#C0D0E0" stroke-width="1" opacity="1"></path><path fill="none" d="M 330.5 350 L 330.5 360" stroke="#C0D0E0" stroke-width="1" opacity="1"></path><path fill="none" d="M 430.5 350 L 430.5 360" stroke="#C0D0E0" stroke-width="1" opacity="1"></path><path fill="none" d="M 10 350.5 L 526 350.5" stroke="#C0D0E0" stroke-width="1"  visibility="visible"></path></g><g class="highcharts-axis" ></g><g class="highcharts-axis" ><text x="562"  text-anchor="middle" transform="translate(0,0) rotate(90 562 195.5)" class=" highcharts-yaxis-title" style="color:#8d4654;fill:#8d4654;" visibility="visible" y="195.5">Employees</text></g><g class="highcharts-series-group" ><g class="highcharts-series" visibility="visible"  transform="translate(10,41) scale(1 1)" clip-path="url(#highcharts-3)"><path fill="none" d="M 9.1 309 C 9.1 309 14.1 297.8 17.4 293.5 C 20.8 289.1 22.5 287.3 25.9 287.3 C 29.1 287.3 30.7 293.5 34.0 293.5 C 37.2 293.5 38.8 292.2 42.0 290.4 C 45.3 288.5 47.0 287.3 50.3 284.2 C 53.7 281.1 55.3 275.0 58.7 275.0 C 62.0 275.0 63.7 281.1 67.0 281.1 C 70.3 281.1 72.0 274.3 75.3 271.9 C 78.7 269.4 80.4 271.9 83.8 268.8 C 87.1 265.7 88.8 256.4 92.1 256.4 C 95.5 256.4 97.1 256.4 100.5 256.4 C 103.8 256.4 105.5 255.2 108.8 253.3 C 112.1 251.5 113.8 247.2 117.1 247.2 C 120.5 247.2 122.2 247.2 125.6 247.2 C 128.8 247.2 130.4 232.9 133.7 225.5 C 136.9 218.1 138.5 210.1 141.7 210.1 C 145.0 210.1 146.7 219.3 150.0 219.3 C 153.4 219.3 155.0 203.9 158.4 203.9 C 161.7 203.9 163.4 203.9 166.7 203.9 C 170.0 203.9 171.7 203.2 175.0 197.7 C 178.4 192.1 180.1 179.2 183.5 176.1 C 186.8 173.0 188.5 173.0 191.8 173.0 C 195.2 173.0 196.8 179.2 200.2 179.2 C 203.5 179.2 205.2 163.7 208.5 163.7 C 211.8 163.7 213.5 166.8 216.8 166.8 C 220.2 166.8 221.9 161.4 225.3 154.5 C 228.6 147.8 230.2 132.8 233.5 132.8 C 236.8 132.8 238.4 142.1 241.7 142.1 C 245.0 142.1 246.7 131.6 250.0 126.6 C 253.3 121.7 255.0 121.7 258.3 117.4 C 261.7 113.0 263.3 105.0 266.7 105.0 C 270.0 105.0 271.7 120.5 275.0 120.5 C 278.4 120.5 280.1 98.8 283.5 98.8 C 286.8 98.8 288.5 101.9 291.8 101.9 C 295.1 101.9 296.8 83.4 300.1 83.4 C 303.5 83.4 305.1 102.5 308.5 114.3 C 311.8 126.0 313.5 142.1 316.8 142.1 C 320.2 142.1 321.9 114.6 325.3 101.9 C 328.5 89.9 330.1 88.9 333.3 80.3 C 336.6 71.6 338.2 67.8 341.4 58.7 C 344.7 49.3 346.4 33.9 349.7 33.9 C 353.0 33.9 354.7 52.5 358.0 52.5 C 361.4 52.5 363.0 37.0 366.4 37.0 C 369.7 37.0 371.4 38.9 374.7 43.2 C 378.1 47.6 379.8 58.7 383.2 58.7 C 386.5 58.7 388.2 58.7 391.5 52.5 C 394.8 46.3 396.5 15.4 399.8 15.4 C 403.2 15.4 404.8 35.8 408.2 43.2 C 411.5 50.6 413.2 52.5 416.5 52.5 C 419.9 52.5 421.6 37.0 425.0 33.9 C 428.2 30.9 429.8 33.9 433.0 30.9 C 436.3 27.8 437.9 24.6 441.1 18.5 C 444.4 12.2 446.1 0 449.4 0 C 452.7 0 454.4 0 457.7 0 C 461.1 0 462.7 3.0 466.1 3.0 C 469.4 3.0 471.1 3.0 474.4 3.0 C 477.8 3.0 479.5 21.6 482.9 21.6 C 486.2 21.6 487.9 12.3 491.2 9.2 C 494.5 6.1 499.5 6.1 499.5 6.1" stroke="black" stroke-width="5"  stroke-dasharray="8,6"  stroke-opacity="0.0" transform="translate(1, 1)"></path><path fill="none" d="M 9.1 309 C 9.1 309 14.1 297.8 17.4 293.5 C 20.8 289.1 22.5 287.3 25.9 287.3 C 29.1 287.3 30.7 293.5 34.0 293.5 C 37.2 293.5 38.8 292.2 42.0 290.4 C 45.3 288.5 47.0 287.3 50.3 284.2 C 53.7 281.1 55.3 275.0 58.7 275.0 C 62.0 275.0 63.7 281.1 67.0 281.1 C 70.3 281.1 72.0 274.3 75.3 271.9 C 78.7 269.4 80.4 271.9 83.8 268.8 C 87.1 265.7 88.8 256.4 92.1 256.4 C 95.5 256.4 97.1 256.4 100.5 256.4 C 103.8 256.4 105.5 255.2 108.8 253.3 C 112.1 251.5 113.8 247.2 117.1 247.2 C 120.5 247.2 122.2 247.2 125.6 247.2 C 128.8 247.2 130.4 232.9 133.7 225.5 C 136.9 218.1 138.5 210.1 141.7 210.1 C 145.0 210.1 146.7 219.3 150.0 219.3 C 153.4 219.3 155.0 203.9 158.4 203.9 C 161.7 203.9 163.4 203.9 166.7 203.9 C 170.0 203.9 171.7 203.2 175.0 197.7 C 178.4 192.1 180.1 179.2 183.5 176.1 C 186.8 173.0 188.5 173.0 191.8 173.0 C 195.2 173.0 196.8 179.2 200.2 179.2 C 203.5 179.2 205.2 163.7 208.5 163.7 C 211.8 163.7 213.5 166.8 216.8 166.8 C 220.2 166.8 221.9 161.4 225.3 154.5 C 228.6 147.8 230.2 132.8 233.5 132.8 C 236.8 132.8 238.4 142.1 241.7 142.1 C 245.0 142.1 246.7 131.6 250.0 126.6 C 253.3 121.7 255.0 121.7 258.3 117.4 C 261.7 113.0 263.3 105.0 266.7 105.0 C 270.0 105.0 271.7 120.5 275.0 120.5 C 278.4 120.5 280.1 98.8 283.5 98.8 C 286.8 98.8 288.5 101.9 291.8 101.9 C 295.1 101.9 296.8 83.4 300.1 83.4 C 303.5 83.4 305.1 102.5 308.5 114.3 C 311.8 126.0 313.5 142.1 316.8 142.1 C 320.2 142.1 321.9 114.6 325.3 101.9 C 328.5 89.9 330.1 88.9 333.3 80.3 C 336.6 71.6 338.2 67.8 341.4 58.7 C 344.7 49.3 346.4 33.9 349.7 33.9 C 353.0 33.9 354.7 52.5 358.0 52.5 C 361.4 52.5 363.0 37.0 366.4 37.0 C 369.7 37.0 371.4 38.9 374.7 43.2 C 378.1 47.6 379.8 58.7 383.2 58.7 C 386.5 58.7 388.2 58.7 391.5 52.5 C 394.8 46.3 396.5 15.4 399.8 15.4 C 403.2 15.4 404.8 35.8 408.2 43.2 C 411.5 50.6 413.2 52.5 416.5 52.5 C 419.9 52.5 421.6 37.0 425.0 33.9 C 428.2 30.9 429.8 33.9 433.0 30.9 C 436.3 27.8 437.9 24.6 441.1 18.5 C 444.4 12.2 446.1 0 449.4 0 C 452.7 0 454.4 0 457.7 0 C 461.1 0 462.7 3.0 466.1 3.0 C 469.4 3.0 471.1 3.0 474.4 3.0 C 477.8 3.0 479.5 21.6 482.9 21.6 C 486.2 21.6 487.9 12.3 491.2 9.2 C 494.5 6.1 499.5 6.1 499.5 6.1" stroke="black" stroke-width="3"  stroke-dasharray="8,6"  stroke-opacity="0.0" transform="translate(1, 1)"></path><path fill="none" d="M 9.1 309 C 9.1 309 14.1 297.8 17.4 293.5 C 20.8 289.1 22.5 287.3 25.9 287.3 C 29.1 287.3 30.7 293.5 34.0 293.5 C 37.2 293.5 38.8 292.2 42.0 290.4 C 45.3 288.5 47.0 287.3 50.3 284.2 C 53.7 281.1 55.3 275.0 58.7 275.0 C 62.0 275.0 63.7 281.1 67.0 281.1 C 70.3 281.1 72.0 274.3 75.3 271.9 C 78.7 269.4 80.4 271.9 83.8 268.8 C 87.1 265.7 88.8 256.4 92.1 256.4 C 95.5 256.4 97.1 256.4 100.5 256.4 C 103.8 256.4 105.5 255.2 108.8 253.3 C 112.1 251.5 113.8 247.2 117.1 247.2 C 120.5 247.2 122.2 247.2 125.6 247.2 C 128.8 247.2 130.4 232.9 133.7 225.5 C 136.9 218.1 138.5 210.1 141.7 210.1 C 145.0 210.1 146.7 219.3 150.0 219.3 C 153.4 219.3 155.0 203.9 158.4 203.9 C 161.7 203.9 163.4 203.9 166.7 203.9 C 170.0 203.9 171.7 203.2 175.0 197.7 C 178.4 192.1 180.1 179.2 183.5 176.1 C 186.8 173.0 188.5 173.0 191.8 173.0 C 195.2 173.0 196.8 179.2 200.2 179.2 C 203.5 179.2 205.2 163.7 208.5 163.7 C 211.8 163.7 213.5 166.8 216.8 166.8 C 220.2 166.8 221.9 161.4 225.3 154.5 C 228.6 147.8 230.2 132.8 233.5 132.8 C 236.8 132.8 238.4 142.1 241.7 142.1 C 245.0 142.1 246.7 131.6 250.0 126.6 C 253.3 121.7 255.0 121.7 258.3 117.4 C 261.7 113.0 263.3 105.0 266.7 105.0 C 270.0 105.0 271.7 120.5 275.0 120.5 C 278.4 120.5 280.1 98.8 283.5 98.8 C 286.8 98.8 288.5 101.9 291.8 101.9 C 295.1 101.9 296.8 83.4 300.1 83.4 C 303.5 83.4 305.1 102.5 308.5 114.3 C 311.8 126.0 313.5 142.1 316.8 142.1 C 320.2 142.1 321.9 114.6 325.3 101.9 C 328.5 89.9 330.1 88.9 333.3 80.3 C 336.6 71.6 338.2 67.8 341.4 58.7 C 344.7 49.3 346.4 33.9 349.7 33.9 C 353.0 33.9 354.7 52.5 358.0 52.5 C 361.4 52.5 363.0 37.0 366.4 37.0 C 369.7 37.0 371.4 38.9 374.7 43.2 C 378.1 47.6 379.8 58.7 383.2 58.7 C 386.5 58.7 388.2 58.7 391.5 52.5 C 394.8 46.3 396.5 15.4 399.8 15.4 C 403.2 15.4 404.8 35.8 408.2 43.2 C 411.5 50.6 413.2 52.5 416.5 52.5 C 419.9 52.5 421.6 37.0 425.0 33.9 C 428.2 30.9 429.8 33.9 433.0 30.9 C 436.3 27.8 437.9 24.6 441.1 18.5 C 444.4 12.2 446.1 0 449.4 0 C 452.7 0 454.4 0 457.7 0 C 461.1 0 462.7 3.0 466.1 3.0 C 469.4 3.0 471.1 3.0 474.4 3.0 C 477.8 3.0 479.5 21.6 482.9 21.6 C 486.2 21.6 487.9 12.3 491.2 9.2 C 494.5 6.1 499.5 6.1 499.5 6.1" stroke="black" stroke-width="1"  stroke-dasharray="8,6"  stroke-opacity="0.1" transform="translate(1, 1)"></path><path fill="none" d="M 9.1 309 C 9.1 309 14.1 297.8 17.4 293.5 C 20.8 289.1 22.5 287.3 25.9 287.3 C 29.1 287.3 30.7 293.5 34.0 293.5 C 37.2 293.5 38.8 292.2 42.0 290.4 C 45.3 288.5 47.0 287.3 50.3 284.2 C 53.7 281.1 55.3 275.0 58.7 275.0 C 62.0 275.0 63.7 281.1 67.0 281.1 C 70.3 281.1 72.0 274.3 75.3 271.9 C 78.7 269.4 80.4 271.9 83.8 268.8 C 87.1 265.7 88.8 256.4 92.1 256.4 C 95.5 256.4 97.1 256.4 100.5 256.4 C 103.8 256.4 105.5 255.2 108.8 253.3 C 112.1 251.5 113.8 247.2 117.1 247.2 C 120.5 247.2 122.2 247.2 125.6 247.2 C 128.8 247.2 130.4 232.9 133.7 225.5 C 136.9 218.1 138.5 210.1 141.7 210.1 C 145.0 210.1 146.7 219.3 150.0 219.3 C 153.4 219.3 155.0 203.9 158.4 203.9 C 161.7 203.9 163.4 203.9 166.7 203.9 C 170.0 203.9 171.7 203.2 175.0 197.7 C 178.4 192.1 180.1 179.2 183.5 176.1 C 186.8 173.0 188.5 173.0 191.8 173.0 C 195.2 173.0 196.8 179.2 200.2 179.2 C 203.5 179.2 205.2 163.7 208.5 163.7 C 211.8 163.7 213.5 166.8 216.8 166.8 C 220.2 166.8 221.9 161.4 225.3 154.5 C 228.6 147.8 230.2 132.8 233.5 132.8 C 236.8 132.8 238.4 142.1 241.7 142.1 C 245.0 142.1 246.7 131.6 250.0 126.6 C 253.3 121.7 255.0 121.7 258.3 117.4 C 261.7 113.0 263.3 105.0 266.7 105.0 C 270.0 105.0 271.7 120.5 275.0 120.5 C 278.4 120.5 280.1 98.8 283.5 98.8 C 286.8 98.8 288.5 101.9 291.8 101.9 C 295.1 101.9 296.8 83.4 300.1 83.4 C 303.5 83.4 305.1 102.5 308.5 114.3 C 311.8 126.0 313.5 142.1 316.8 142.1 C 320.2 142.1 321.9 114.6 325.3 101.9 C 328.5 89.9 330.1 88.9 333.3 80.3 C 336.6 71.6 338.2 67.8 341.4 58.7 C 344.7 49.3 346.4 33.9 349.7 33.9 C 353.0 33.9 354.7 52.5 358.0 52.5 C 361.4 52.5 363.0 37.0 366.4 37.0 C 369.7 37.0 371.4 38.9 374.7 43.2 C 378.1 47.6 379.8 58.7 383.2 58.7 C 386.5 58.7 388.2 58.7 391.5 52.5 C 394.8 46.3 396.5 15.4 399.8 15.4 C 403.2 15.4 404.8 35.8 408.2 43.2 C 411.5 50.6 413.2 52.5 416.5 52.5 C 419.9 52.5 421.6 37.0 425.0 33.9 C 428.2 30.9 429.8 33.9 433.0 30.9 C 436.3 27.8 437.9 24.6 441.1 18.5 C 444.4 12.2 446.1 0 449.4 0 C 452.7 0 454.4 0 457.7 0 C 461.1 0 462.7 3.0 466.1 3.0 C 469.4 3.0 471.1 3.0 474.4 3.0 C 477.8 3.0 479.5 21.6 482.9 21.6 C 486.2 21.6 487.9 12.3 491.2 9.2 C 494.5 6.1 499.5 6.1 499.5 6.1" stroke="#f45b5b" stroke-width="2"  stroke-dasharray="8,6"></path><path fill="none" d="M -0.8 309 L 9.1 309 C 9.1 309 14.1 297.8 17.4 293.5 C 20.8 289.1 22.5 287.3 25.9 287.3 C 29.1 287.3 30.7 293.5 34.0 293.5 C 37.2 293.5 38.8 292.2 42.0 290.4 C 45.3 288.5 47.0 287.3 50.3 284.2 C 53.7 281.1 55.3 275.0 58.7 275.0 C 62.0 275.0 63.7 281.1 67.0 281.1 C 70.3 281.1 72.0 274.3 75.3 271.9 C 78.7 269.4 80.4 271.9 83.8 268.8 C 87.1 265.7 88.8 256.4 92.1 256.4 C 95.5 256.4 97.1 256.4 100.5 256.4 C 103.8 256.4 105.5 255.2 108.8 253.3 C 112.1 251.5 113.8 247.2 117.1 247.2 C 120.5 247.2 122.2 247.2 125.6 247.2 C 128.8 247.2 130.4 232.9 133.7 225.5 C 136.9 218.1 138.5 210.1 141.7 210.1 C 145.0 210.1 146.7 219.3 150.0 219.3 C 153.4 219.3 155.0 203.9 158.4 203.9 C 161.7 203.9 163.4 203.9 166.7 203.9 C 170.0 203.9 171.7 203.2 175.0 197.7 C 178.4 192.1 180.1 179.2 183.5 176.1 C 186.8 173.0 188.5 173.0 191.8 173.0 C 195.2 173.0 196.8 179.2 200.2 179.2 C 203.5 179.2 205.2 163.7 208.5 163.7 C 211.8 163.7 213.5 166.8 216.8 166.8 C 220.2 166.8 221.9 161.4 225.3 154.5 C 228.6 147.8 230.2 132.8 233.5 132.8 C 236.8 132.8 238.4 142.1 241.7 142.1 C 245.0 142.1 246.7 131.6 250.0 126.6 C 253.3 121.7 255.0 121.7 258.3 117.4 C 261.7 113.0 263.3 105.0 266.7 105.0 C 270.0 105.0 271.7 120.5 275.0 120.5 C 278.4 120.5 280.1 98.8 283.5 98.8 C 286.8 98.8 288.5 101.9 291.8 101.9 C 295.1 101.9 296.8 83.4 300.1 83.4 C 303.5 83.4 305.1 102.5 308.5 114.3 C 311.8 126.0 313.5 142.1 316.8 142.1 C 320.2 142.1 321.9 114.6 325.3 101.9 C 328.5 89.9 330.1 88.9 333.3 80.3 C 336.6 71.6 338.2 67.8 341.4 58.7 C 344.7 49.3 346.4 33.9 349.7 33.9 C 353.0 33.9 354.7 52.5 358.0 52.5 C 361.4 52.5 363.0 37.0 366.4 37.0 C 369.7 37.0 371.4 38.9 374.7 43.2 C 378.1 47.6 379.8 58.7 383.2 58.7 C 386.5 58.7 388.2 58.7 391.5 52.5 C 394.8 46.3 396.5 15.4 399.8 15.4 C 403.2 15.4 404.8 35.8 408.2 43.2 C 411.5 50.6 413.2 52.5 416.5 52.5 C 419.9 52.5 421.6 37.0 425.0 33.9 C 428.2 30.9 429.8 33.9 433.0 30.9 C 436.3 27.8 437.9 24.6 441.1 18.5 C 444.4 12.2 446.1 0 449.4 0 C 452.7 0 454.4 0 457.7 0 C 461.1 0 462.7 3.0 466.1 3.0 C 469.4 3.0 471.1 3.0 474.4 3.0 C 477.8 3.0 479.5 21.6 482.9 21.6 C 486.2 21.6 487.9 12.3 491.2 9.2 C 494.5 6.1 499.5 6.1 499.5 6.1 L 509.5 6.1" stroke-linejoin="round" visibility="visible" stroke="rgb(192,192,192)" stroke-opacity="0.0" stroke-width="22"  class=" highcharts-tracker" style=""></path></g><g class="highcharts-markers highcharts-tracker" visibility="visible"  transform="translate(10,41) scale(1 1)" clip-path="url(#highcharts-2)" style=""></g><g class="highcharts-series" visibility="visible"  transform="translate(10,41) scale(1 1)" clip-path="url(#highcharts-3)"><path fill="rgb(128,133,233)" fill-opacity="0.5" d="M 5.0 302.8 L 13.2 299.7 L 21.7 302.8 L 30.1 299.7 L 37.8 296.6 L 46.3 296.6 L 54.4 296.6 L 62.9 296.6 L 71.1 293.5 L 79.6 287.3 L 88.0 290.4 L 96.2 281.1 L 104.7 278.1 L 112.9 284.2 L 121.4 278.1 L 129.8 268.8 L 137.5 262.6 L 146.0 265.7 L 154.2 262.6 L 162.6 259.5 L 170.8 241.0 L 179.3 250.2 L 187.7 247.2 L 195.9 210.1 L 204.4 203.9 L 212.6 197.7 L 221.1 203.9 L 229.5 185.4 L 237.5 194.6 L 245.9 200.8 L 254.1 185.4 L 262.6 191.5 L 270.8 188.4 L 279.3 176.1 L 287.7 157.5 L 295.9 176.1 L 304.4 142.1 L 312.6 173.0 L 321.0 176.1 L 329.5 176.1 L 337.2 148.3 L 345.6 148.3 L 353.8 135.9 L 362.3 117.4 L 370.5 105.0 L 379.0 117.4 L 387.4 114.3 L 395.6 123.6 L 404.1 123.6 L 412.3 129.7 L 420.8 108.1 L 429.2 148.3 L 436.9 86.5 L 445.3 132.8 L 453.5 92.7 L 462.0 114.3 L 470.2 108.1 L 478.7 108.1 L 487.1 33.9 L 495.3 0 L 495.3 309 L 5.0 309" ></path><path fill="none" d="M 5.0 302.8 L 13.2 299.7 L 21.7 302.8 L 30.1 299.7 L 37.8 296.6 L 46.3 296.6 L 54.4 296.6 L 62.9 296.6 L 71.1 293.5 L 79.6 287.3 L 88.0 290.4 L 96.2 281.1 L 104.7 278.1 L 112.9 284.2 L 121.4 278.1 L 129.8 268.8 L 137.5 262.6 L 146.0 265.7 L 154.2 262.6 L 162.6 259.5 L 170.8 241.0 L 179.3 250.2 L 187.7 247.2 L 195.9 210.1 L 204.4 203.9 L 212.6 197.7 L 221.1 203.9 L 229.5 185.4 L 237.5 194.6 L 245.9 200.8 L 254.1 185.4 L 262.6 191.5 L 270.8 188.4 L 279.3 176.1 L 287.7 157.5 L 295.9 176.1 L 304.4 142.1 L 312.6 173.0 L 321.0 176.1 L 329.5 176.1 L 337.2 148.3 L 345.6 148.3 L 353.8 135.9 L 362.3 117.4 L 370.5 105.0 L 379.0 117.4 L 387.4 114.3 L 395.6 123.6 L 404.1 123.6 L 412.3 129.7 L 420.8 108.1 L 429.2 148.3 L 436.9 86.5 L 445.3 132.8 L 453.5 92.7 L 462.0 114.3 L 470.2 108.1 L 478.7 108.1 L 487.1 33.9 L 495.3 0" stroke="black" stroke-width="5"  stroke-linejoin="round" stroke-linecap="round"  stroke-opacity="0.0" transform="translate(1, 1)"></path><path fill="none" d="M 5.0 302.8 L 13.2 299.7 L 21.7 302.8 L 30.1 299.7 L 37.8 296.6 L 46.3 296.6 L 54.4 296.6 L 62.9 296.6 L 71.1 293.5 L 79.6 287.3 L 88.0 290.4 L 96.2 281.1 L 104.7 278.1 L 112.9 284.2 L 121.4 278.1 L 129.8 268.8 L 137.5 262.6 L 146.0 265.7 L 154.2 262.6 L 162.6 259.5 L 170.8 241.0 L 179.3 250.2 L 187.7 247.2 L 195.9 210.1 L 204.4 203.9 L 212.6 197.7 L 221.1 203.9 L 229.5 185.4 L 237.5 194.6 L 245.9 200.8 L 254.1 185.4 L 262.6 191.5 L 270.8 188.4 L 279.3 176.1 L 287.7 157.5 L 295.9 176.1 L 304.4 142.1 L 312.6 173.0 L 321.0 176.1 L 329.5 176.1 L 337.2 148.3 L 345.6 148.3 L 353.8 135.9 L 362.3 117.4 L 370.5 105.0 L 379.0 117.4 L 387.4 114.3 L 395.6 123.6 L 404.1 123.6 L 412.3 129.7 L 420.8 108.1 L 429.2 148.3 L 436.9 86.5 L 445.3 132.8 L 453.5 92.7 L 462.0 114.3 L 470.2 108.1 L 478.7 108.1 L 487.1 33.9 L 495.3 0" stroke="black" stroke-width="3"  stroke-linejoin="round" stroke-linecap="round"  stroke-opacity="0.0" transform="translate(1, 1)"></path><path fill="none" d="M 5.0 302.8 L 13.2 299.7 L 21.7 302.8 L 30.1 299.7 L 37.8 296.6 L 46.3 296.6 L 54.4 296.6 L 62.9 296.6 L 71.1 293.5 L 79.6 287.3 L 88.0 290.4 L 96.2 281.1 L 104.7 278.1 L 112.9 284.2 L 121.4 278.1 L 129.8 268.8 L 137.5 262.6 L 146.0 265.7 L 154.2 262.6 L 162.6 259.5 L 170.8 241.0 L 179.3 250.2 L 187.7 247.2 L 195.9 210.1 L 204.4 203.9 L 212.6 197.7 L 221.1 203.9 L 229.5 185.4 L 237.5 194.6 L 245.9 200.8 L 254.1 185.4 L 262.6 191.5 L 270.8 188.4 L 279.3 176.1 L 287.7 157.5 L 295.9 176.1 L 304.4 142.1 L 312.6 173.0 L 321.0 176.1 L 329.5 176.1 L 337.2 148.3 L 345.6 148.3 L 353.8 135.9 L 362.3 117.4 L 370.5 105.0 L 379.0 117.4 L 387.4 114.3 L 395.6 123.6 L 404.1 123.6 L 412.3 129.7 L 420.8 108.1 L 429.2 148.3 L 436.9 86.5 L 445.3 132.8 L 453.5 92.7 L 462.0 114.3 L 470.2 108.1 L 478.7 108.1 L 487.1 33.9 L 495.3 0" stroke="black" stroke-width="1"  stroke-linejoin="round" stroke-linecap="round"  stroke-opacity="0.1" transform="translate(1, 1)"></path><path fill="none" d="M 5.0 302.8 L 13.2 299.7 L 21.7 302.8 L 30.1 299.7 L 37.8 296.6 L 46.3 296.6 L 54.4 296.6 L 62.9 296.6 L 71.1 293.5 L 79.6 287.3 L 88.0 290.4 L 96.2 281.1 L 104.7 278.1 L 112.9 284.2 L 121.4 278.1 L 129.8 268.8 L 137.5 262.6 L 146.0 265.7 L 154.2 262.6 L 162.6 259.5 L 170.8 241.0 L 179.3 250.2 L 187.7 247.2 L 195.9 210.1 L 204.4 203.9 L 212.6 197.7 L 221.1 203.9 L 229.5 185.4 L 237.5 194.6 L 245.9 200.8 L 254.1 185.4 L 262.6 191.5 L 270.8 188.4 L 279.3 176.1 L 287.7 157.5 L 295.9 176.1 L 304.4 142.1 L 312.6 173.0 L 321.0 176.1 L 329.5 176.1 L 337.2 148.3 L 345.6 148.3 L 353.8 135.9 L 362.3 117.4 L 370.5 105.0 L 379.0 117.4 L 387.4 114.3 L 395.6 123.6 L 404.1 123.6 L 412.3 129.7 L 420.8 108.1 L 429.2 148.3 L 436.9 86.5 L 445.3 132.8 L 453.5 92.7 L 462.0 114.3 L 470.2 108.1 L 478.7 108.1 L 487.1 33.9 L 495.3 0" stroke="#8085e9" stroke-width="2"  stroke-linejoin="round" stroke-linecap="round"></path><path fill="none" d="M -4.9 302.8 L 5.0 302.8 L 13.2 299.7 L 21.7 302.8 L 30.1 299.7 L 37.8 296.6 L 46.3 296.6 L 54.4 296.6 L 62.9 296.6 L 71.1 293.5 L 79.6 287.3 L 88.0 290.4 L 96.2 281.1 L 104.7 278.1 L 112.9 284.2 L 121.4 278.1 L 129.8 268.8 L 137.5 262.6 L 146.0 265.7 L 154.2 262.6 L 162.6 259.5 L 170.8 241.0 L 179.3 250.2 L 187.7 247.2 L 195.9 210.1 L 204.4 203.9 L 212.6 197.7 L 221.1 203.9 L 229.5 185.4 L 237.5 194.6 L 245.9 200.8 L 254.1 185.4 L 262.6 191.5 L 270.8 188.4 L 279.3 176.1 L 287.7 157.5 L 295.9 176.1 L 304.4 142.1 L 312.6 173.0 L 321.0 176.1 L 329.5 176.1 L 337.2 148.3 L 345.6 148.3 L 353.8 135.9 L 362.3 117.4 L 370.5 105.0 L 379.0 117.4 L 387.4 114.3 L 395.6 123.6 L 404.1 123.6 L 412.3 129.7 L 420.8 108.1 L 429.2 148.3 L 436.9 86.5 L 445.3 132.8 L 453.5 92.7 L 462.0 114.3 L 470.2 108.1 L 478.7 108.1 L 487.1 33.9 L 495.3 0 L 505.3 0" stroke-linejoin="round" visibility="visible" stroke="rgb(192,192,192)" stroke-opacity="0.0" stroke-width="22"  class=" highcharts-tracker" style=""></path></g><g class="highcharts-markers highcharts-tracker" visibility="visible"  transform="translate(10,41) scale(1 1)" clip-path="url(#highcharts-2)" style=""></g><g class="highcharts-series" visibility="visible"  transform="translate(10,41) scale(1 1)" clip-path="url(#highcharts-3)"><path fill="rgb(141,70,84)" fill-opacity="0.5" d="M 5.0 296.6 L 109.9 296.6 109.9 284.2 L 146.0 284.2 146.0 271.9 L 179.3 271.9 179.3 259.5 L 183.1 259.5 183.1 247.2 L 262.6 247.2 262.6 234.8 L 287.7 234.8 287.7 247.2 L 291.5 247.2 291.5 234.8 L 321.0 234.8 321.0 222.4 L 379.0 222.4 379.0 210.1 L 384.1 210.1 384.1 197.7 L 395.6 197.7 395.6 185.4 L 495.3 185.4 495.3 173.0 L 510.9 173.0 510.9 173.0 L 510.9 309 L 5.0 309" ></path><path fill="none" d="M 5.0 296.6 L 109.9 296.6 109.9 284.2 L 146.0 284.2 146.0 271.9 L 179.3 271.9 179.3 259.5 L 183.1 259.5 183.1 247.2 L 262.6 247.2 262.6 234.8 L 287.7 234.8 287.7 247.2 L 291.5 247.2 291.5 234.8 L 321.0 234.8 321.0 222.4 L 379.0 222.4 379.0 210.1 L 384.1 210.1 384.1 197.7 L 395.6 197.7 395.6 185.4 L 495.3 185.4 495.3 173.0 L 510.9 173.0 510.9 173.0" stroke="black" stroke-width="5"  stroke-linejoin="round" stroke-linecap="round"  stroke-opacity="0.0" transform="translate(1, 1)"></path><path fill="none" d="M 5.0 296.6 L 109.9 296.6 109.9 284.2 L 146.0 284.2 146.0 271.9 L 179.3 271.9 179.3 259.5 L 183.1 259.5 183.1 247.2 L 262.6 247.2 262.6 234.8 L 287.7 234.8 287.7 247.2 L 291.5 247.2 291.5 234.8 L 321.0 234.8 321.0 222.4 L 379.0 222.4 379.0 210.1 L 384.1 210.1 384.1 197.7 L 395.6 197.7 395.6 185.4 L 495.3 185.4 495.3 173.0 L 510.9 173.0 510.9 173.0" stroke="black" stroke-width="3"  stroke-linejoin="round" stroke-linecap="round"  stroke-opacity="0.0" transform="translate(1, 1)"></path><path fill="none" d="M 5.0 296.6 L 109.9 296.6 109.9 284.2 L 146.0 284.2 146.0 271.9 L 179.3 271.9 179.3 259.5 L 183.1 259.5 183.1 247.2 L 262.6 247.2 262.6 234.8 L 287.7 234.8 287.7 247.2 L 291.5 247.2 291.5 234.8 L 321.0 234.8 321.0 222.4 L 379.0 222.4 379.0 210.1 L 384.1 210.1 384.1 197.7 L 395.6 197.7 395.6 185.4 L 495.3 185.4 495.3 173.0 L 510.9 173.0 510.9 173.0" stroke="black" stroke-width="1"  stroke-linejoin="round" stroke-linecap="round"  stroke-opacity="0.1" transform="translate(1, 1)"></path><path fill="none" d="M 5.0 296.6 L 109.9 296.6 109.9 284.2 L 146.0 284.2 146.0 271.9 L 179.3 271.9 179.3 259.5 L 183.1 259.5 183.1 247.2 L 262.6 247.2 262.6 234.8 L 287.7 234.8 287.7 247.2 L 291.5 247.2 291.5 234.8 L 321.0 234.8 321.0 222.4 L 379.0 222.4 379.0 210.1 L 384.1 210.1 384.1 197.7 L 395.6 197.7 395.6 185.4 L 495.3 185.4 495.3 173.0 L 510.9 173.0 510.9 173.0" stroke="#8d4654" stroke-width="2"  stroke-linejoin="round" stroke-linecap="round"></path><path fill="none" d="M -4.9 296.6 L 5.0 296.6 L 109.9 296.6 109.9 284.2 L 146.0 284.2 146.0 271.9 L 179.3 271.9 179.3 259.5 L 183.1 259.5 183.1 247.2 L 262.6 247.2 262.6 234.8 L 287.7 234.8 287.7 247.2 L 291.5 247.2 291.5 234.8 L 321.0 234.8 321.0 222.4 L 379.0 222.4 379.0 210.1 L 384.1 210.1 384.1 197.7 L 395.6 197.7 395.6 185.4 L 495.3 185.4 495.3 173.0 L 510.9 173.0 510.9 173.0 L 520.9 173.0" stroke-linejoin="round" visibility="visible" stroke="rgb(192,192,192)" stroke-opacity="0.0" stroke-width="22"  class=" highcharts-tracker" style=""></path></g><g class="highcharts-markers highcharts-tracker" visibility="visible"  transform="translate(10,41) scale(1 1)" clip-path="url(#highcharts-2)" style=""></g><g class="highcharts-series" visibility="visible"  transform="translate(10,41) scale(1 1)" clip-path="url(#highcharts-1)"></g><g class="highcharts-markers highcharts-tracker" visibility="visible"  transform="translate(10,41) scale(1 1)" style=""><g style="text-align:center;" transform="translate(437,229)"><path fill="none" d="M -0.5 0.5 L 34.5 0.5 34.5 17.5 -0.5 17.5 Z M 16.5 17.5 L 16.5 80" stroke="black" stroke-width="5"  stroke-opacity="0.0" transform="translate(1, 1)"></path><path fill="none" d="M -0.5 0.5 L 34.5 0.5 34.5 17.5 -0.5 17.5 Z M 16.5 17.5 L 16.5 80" stroke="black" stroke-width="3"  stroke-opacity="0.0" transform="translate(1, 1)"></path><path fill="none" d="M -0.5 0.5 L 34.5 0.5 34.5 17.5 -0.5 17.5 Z M 16.5 17.5 L 16.5 80" stroke="black" stroke-width="1"  stroke-opacity="0.1" transform="translate(1, 1)"></path><path fill="white" d="M -0.5 0.5 L 34.5 0.5 34.5 17.5 -0.5 17.5 Z M 16.5 17.5 L 16.5 80" stroke="#333333" stroke-width="1"></path><text x="1.5"  style="font-size:11px;font-weight:bold;" y="14">Cloud</text></g></g><g class="highcharts-series" visibility="visible"  transform="translate(10,41) scale(1 1)" clip-path="url(#highcharts-1)"></g><g class="highcharts-markers highcharts-tracker" visibility="visible"  transform="translate(10,41) scale(1 1)" style=""><g style="text-align:center;" transform="translate(450,254)"><path fill="none" d="M -0.5 0.5 L 31.5 0.5 31.5 17.5 -0.5 17.5 Z M 14.5 17.5 L 14.5 55" stroke="black" stroke-width="5"  stroke-opacity="0.0" transform="translate(1, 1)"></path><path fill="none" d="M -0.5 0.5 L 31.5 0.5 31.5 17.5 -0.5 17.5 Z M 14.5 17.5 L 14.5 55" stroke="black" stroke-width="3"  stroke-opacity="0.0" transform="translate(1, 1)"></path><path fill="none" d="M -0.5 0.5 L 31.5 0.5 31.5 17.5 -0.5 17.5 Z M 14.5 17.5 L 14.5 55" stroke="black" stroke-width="1"  stroke-opacity="0.1" transform="translate(1, 1)"></path><path fill="white" d="M -0.5 0.5 L 31.5 0.5 31.5 17.5 -0.5 17.5 Z M 14.5 17.5 L 14.5 55" stroke="#333333" stroke-width="1"></path><text x="1.5"  style="font-size:11px;font-weight:bold;" y="14">Maps</text></g></g><g class="highcharts-series" visibility="visible"  transform="translate(10,41) scale(1 1)" clip-path="url(#highcharts-1)"></g><g class="highcharts-markers highcharts-tracker" visibility="visible"  transform="translate(10,41) scale(1 1)" style=""><g style="text-align:center;" transform="translate(442,279)"><path fill="none" d="M 9.5 0.5 C 22.8 0.5 22.8 17.5 9.5 17.5 C -3.8 17.5 -3.8 0.5 9.5 0.5 Z M 8.5 17.5 L 8.5 30" stroke="black" stroke-width="5"  stroke-opacity="0.0" transform="translate(1, 1)"></path><path fill="none" d="M 9.5 0.5 C 22.8 0.5 22.8 17.5 9.5 17.5 C -3.8 17.5 -3.8 0.5 9.5 0.5 Z M 8.5 17.5 L 8.5 30" stroke="black" stroke-width="3"  stroke-opacity="0.0" transform="translate(1, 1)"></path><path fill="none" d="M 9.5 0.5 C 22.8 0.5 22.8 17.5 9.5 17.5 C -3.8 17.5 -3.8 0.5 9.5 0.5 Z M 8.5 17.5 L 8.5 30" stroke="black" stroke-width="1"  stroke-opacity="0.1" transform="translate(1, 1)"></path><path fill="white" d="M 9.5 0.5 C 22.8 0.5 22.8 17.5 9.5 17.5 C -3.8 17.5 -3.8 0.5 9.5 0.5 Z M 8.5 17.5 L 8.5 30" stroke="#333333" stroke-width="1"></path><text x="1.5"  style="font-size:11px;font-weight:bold;" y="14">4.0</text></g><g style="text-align:center;" transform="translate(334,279)"><path fill="none" d="M 9.5 0.5 C 22.8 0.5 22.8 17.5 9.5 17.5 C -3.8 17.5 -3.8 0.5 9.5 0.5 Z M 8.5 17.5 L 8.5 30" stroke="black" stroke-width="5"  stroke-opacity="0.0" transform="translate(1, 1)"></path><path fill="none" d="M 9.5 0.5 C 22.8 0.5 22.8 17.5 9.5 17.5 C -3.8 17.5 -3.8 0.5 9.5 0.5 Z M 8.5 17.5 L 8.5 30" stroke="black" stroke-width="3"  stroke-opacity="0.0" transform="translate(1, 1)"></path><path fill="none" d="M 9.5 0.5 C 22.8 0.5 22.8 17.5 9.5 17.5 C -3.8 17.5 -3.8 0.5 9.5 0.5 Z M 8.5 17.5 L 8.5 30" stroke="black" stroke-width="1"  stroke-opacity="0.1" transform="translate(1, 1)"></path><path fill="white" d="M 9.5 0.5 C 22.8 0.5 22.8 17.5 9.5 17.5 C -3.8 17.5 -3.8 0.5 9.5 0.5 Z M 8.5 17.5 L 8.5 30" stroke="#333333" stroke-width="1"></path><text x="1.5"  style="font-size:11px;font-weight:bold;" y="14">3.0</text></g><g style="text-align:center;" transform="translate(276,279)"><path fill="none" d="M 9.5 0.5 C 22.8 0.5 22.8 17.5 9.5 17.5 C -3.8 17.5 -3.8 0.5 9.5 0.5 Z M 9.5 17.5 L 9.5 30" stroke="black" stroke-width="5"  stroke-opacity="0.0" transform="translate(1, 1)"></path><path fill="none" d="M 9.5 0.5 C 22.8 0.5 22.8 17.5 9.5 17.5 C -3.8 17.5 -3.8 0.5 9.5 0.5 Z M 9.5 17.5 L 9.5 30" stroke="black" stroke-width="3"  stroke-opacity="0.0" transform="translate(1, 1)"></path><path fill="none" d="M 9.5 0.5 C 22.8 0.5 22.8 17.5 9.5 17.5 C -3.8 17.5 -3.8 0.5 9.5 0.5 Z M 9.5 17.5 L 9.5 30" stroke="black" stroke-width="1"  stroke-opacity="0.1" transform="translate(1, 1)"></path><path fill="white" d="M 9.5 0.5 C 22.8 0.5 22.8 17.5 9.5 17.5 C -3.8 17.5 -3.8 0.5 9.5 0.5 Z M 9.5 17.5 L 9.5 30" stroke="#333333" stroke-width="1"></path><text x="1.5"  style="font-size:11px;font-weight:bold;" y="14">2.3</text></g><g style="text-align:center;" transform="translate(185,279)"><path fill="none" d="M -0.5 0.5 L 31.5 0.5 31.5 17.5 -0.5 17.5 Z M 15.5 17.5 L 15.5 30" stroke="black" stroke-width="5"  stroke-opacity="0.0" transform="translate(1, 1)"></path><path fill="none" d="M -0.5 0.5 L 31.5 0.5 31.5 17.5 -0.5 17.5 Z M 15.5 17.5 L 15.5 30" stroke="black" stroke-width="3"  stroke-opacity="0.0" transform="translate(1, 1)"></path><path fill="none" d="M -0.5 0.5 L 31.5 0.5 31.5 17.5 -0.5 17.5 Z M 15.5 17.5 L 15.5 30" stroke="black" stroke-width="1"  stroke-opacity="0.1" transform="translate(1, 1)"></path><path fill="white" d="M -0.5 0.5 L 31.5 0.5 31.5 17.5 -0.5 17.5 Z M 15.5 17.5 L 15.5 30" stroke="#333333" stroke-width="1"></path><text x="1.5"  style="font-size:11px;font-weight:bold;" y="14">Stock</text></g><g style="text-align:center;" transform="translate(101,279)"><path fill="none" d="M 9.5 0.5 C 22.8 0.5 22.8 17.5 9.5 17.5 C -3.8 17.5 -3.8 0.5 9.5 0.5 Z M 9.5 17.5 L 9.5 30" stroke="black" stroke-width="5"  stroke-opacity="0.0" transform="translate(1, 1)"></path><path fill="none" d="M 9.5 0.5 C 22.8 0.5 22.8 17.5 9.5 17.5 C -3.8 17.5 -3.8 0.5 9.5 0.5 Z M 9.5 17.5 L 9.5 30" stroke="black" stroke-width="3"  stroke-opacity="0.0" transform="translate(1, 1)"></path><path fill="none" d="M 9.5 0.5 C 22.8 0.5 22.8 17.5 9.5 17.5 C -3.8 17.5 -3.8 0.5 9.5 0.5 Z M 9.5 17.5 L 9.5 30" stroke="black" stroke-width="1"  stroke-opacity="0.1" transform="translate(1, 1)"></path><path fill="white" d="M 9.5 0.5 C 22.8 0.5 22.8 17.5 9.5 17.5 C -3.8 17.5 -3.8 0.5 9.5 0.5 Z M 9.5 17.5 L 9.5 30" stroke="#333333" stroke-width="1"></path><text x="1.5"  style="font-size:11px;font-weight:bold;" y="14">2.1</text></g><g style="text-align:center;" transform="translate(65,279)"><path fill="none" d="M 9.5 0.5 C 22.8 0.5 22.8 17.5 9.5 17.5 C -3.8 17.5 -3.8 0.5 9.5 0.5 Z M 8.5 17.5 L 8.5 30" stroke="black" stroke-width="5"  stroke-opacity="0.0" transform="translate(1, 1)"></path><path fill="none" d="M 9.5 0.5 C 22.8 0.5 22.8 17.5 9.5 17.5 C -3.8 17.5 -3.8 0.5 9.5 0.5 Z M 8.5 17.5 L 8.5 30" stroke="black" stroke-width="3"  stroke-opacity="0.0" transform="translate(1, 1)"></path><path fill="none" d="M 9.5 0.5 C 22.8 0.5 22.8 17.5 9.5 17.5 C -3.8 17.5 -3.8 0.5 9.5 0.5 Z M 8.5 17.5 L 8.5 30" stroke="black" stroke-width="1"  stroke-opacity="0.1" transform="translate(1, 1)"></path><path fill="white" d="M 9.5 0.5 C 22.8 0.5 22.8 17.5 9.5 17.5 C -3.8 17.5 -3.8 0.5 9.5 0.5 Z M 8.5 17.5 L 8.5 30" stroke="#333333" stroke-width="1"></path><text x="1.5"  style="font-size:11px;font-weight:bold;" y="14">2.0</text></g><g style="text-align:center;" transform="translate(3,279)"><path fill="none" d="M 9.5 0.5 C 22.8 0.5 22.8 17.5 9.5 17.5 C -3.8 17.5 -3.8 0.5 9.5 0.5 Z M 8.5 17.5 L 8.5 30" stroke="black" stroke-width="5"  stroke-opacity="0.0" transform="translate(1, 1)"></path><path fill="none" d="M 9.5 0.5 C 22.8 0.5 22.8 17.5 9.5 17.5 C -3.8 17.5 -3.8 0.5 9.5 0.5 Z M 8.5 17.5 L 8.5 30" stroke="black" stroke-width="3"  stroke-opacity="0.0" transform="translate(1, 1)"></path><path fill="none" d="M 9.5 0.5 C 22.8 0.5 22.8 17.5 9.5 17.5 C -3.8 17.5 -3.8 0.5 9.5 0.5 Z M 8.5 17.5 L 8.5 30" stroke="black" stroke-width="1"  stroke-opacity="0.1" transform="translate(1, 1)"></path><path fill="white" d="M 9.5 0.5 C 22.8 0.5 22.8 17.5 9.5 17.5 C -3.8 17.5 -3.8 0.5 9.5 0.5 Z M 8.5 17.5 L 8.5 30" stroke="#333333" stroke-width="1"></path><text x="1.5"  style="font-size:11px;font-weight:bold;" y="14">1.0</text></g></g><g class="highcharts-series" visibility="visible"  transform="translate(10,41) scale(1 1)" clip-path="url(#highcharts-1)"></g><g class="highcharts-markers highcharts-tracker" visibility="visible"  transform="translate(10,41) scale(1 1)" style=""><g style="text-align:center;" transform="translate(459,79)"><path fill="none" d="M 0.5 30.4 L 0.5 17.5 0.5 0.5 38.5 0.5 38.5 17.5 0.5 17.5 Z" stroke="black" stroke-width="5"  stroke-opacity="0.0" transform="translate(1, 1)"></path><path fill="none" d="M 0.5 30.4 L 0.5 17.5 0.5 0.5 38.5 0.5 38.5 17.5 0.5 17.5 Z" stroke="black" stroke-width="3"  stroke-opacity="0.0" transform="translate(1, 1)"></path><path fill="none" d="M 0.5 30.4 L 0.5 17.5 0.5 0.5 38.5 0.5 38.5 17.5 0.5 17.5 Z" stroke="black" stroke-width="1"  stroke-opacity="0.1" transform="translate(1, 1)"></path><path fill="rgb(255,255,255)" fill-opacity="0.8" d="M 0.5 30.4 L 0.5 17.5 0.5 0.5 38.5 0.5 38.5 17.5 0.5 17.5 Z" stroke="#333333" stroke-width="1"></path><text x="3"  style="font-size:11px;font-weight:bold;" y="14">Award</text></g><g style="text-align:center;" transform="translate(359,92)"><path fill="none" d="M 0.5 29.6 L 0.5 17.5 0.5 0.5 38.5 0.5 38.5 17.5 0.5 17.5 Z" stroke="black" stroke-width="5"  stroke-opacity="0.0" transform="translate(1, 1)"></path><path fill="none" d="M 0.5 29.6 L 0.5 17.5 0.5 0.5 38.5 0.5 38.5 17.5 0.5 17.5 Z" stroke="black" stroke-width="3"  stroke-opacity="0.0" transform="translate(1, 1)"></path><path fill="none" d="M 0.5 29.6 L 0.5 17.5 0.5 0.5 38.5 0.5 38.5 17.5 0.5 17.5 Z" stroke="black" stroke-width="1"  stroke-opacity="0.1" transform="translate(1, 1)"></path><path fill="rgb(255,255,255)" fill-opacity="0.8" d="M 0.5 29.6 L 0.5 17.5 0.5 0.5 38.5 0.5 38.5 17.5 0.5 17.5 Z" stroke="#333333" stroke-width="1"></path><text x="3"  style="font-size:11px;font-weight:bold;" y="14">Award</text></g><g style="text-align:center;" transform="translate(318,145)"><path fill="none" d="M 0.5 30.4 L 0.5 17.5 0.5 0.5 55.5 0.5 55.5 17.5 0.5 17.5 Z" stroke="black" stroke-width="5"  stroke-opacity="0.0" transform="translate(1, 1)"></path><path fill="none" d="M 0.5 30.4 L 0.5 17.5 0.5 0.5 55.5 0.5 55.5 17.5 0.5 17.5 Z" stroke="black" stroke-width="3"  stroke-opacity="0.0" transform="translate(1, 1)"></path><path fill="none" d="M 0.5 30.4 L 0.5 17.5 0.5 0.5 55.5 0.5 55.5 17.5 0.5 17.5 Z" stroke="black" stroke-width="1"  stroke-opacity="0.1" transform="translate(1, 1)"></path><path fill="rgb(255,255,255)" fill-opacity="0.8" d="M 0.5 30.4 L 0.5 17.5 0.5 0.5 55.5 0.5 55.5 17.5 0.5 17.5 Z" stroke="#333333" stroke-width="1"></path><text x="3"  style="font-size:11px;font-weight:bold;" y="14"><tspan>First book</tspan></text></g><g style="text-align:center;" transform="translate(303,112)"><path fill="none" d="M 0.5 30.1 L 0.5 17.5 0.5 0.5 38.5 0.5 38.5 17.5 0.5 17.5 Z" stroke="black" stroke-width="5"  stroke-opacity="0.0" transform="translate(1, 1)"></path><path fill="none" d="M 0.5 30.1 L 0.5 17.5 0.5 0.5 38.5 0.5 38.5 17.5 0.5 17.5 Z" stroke="black" stroke-width="3"  stroke-opacity="0.0" transform="translate(1, 1)"></path><path fill="none" d="M 0.5 30.1 L 0.5 17.5 0.5 0.5 38.5 0.5 38.5 17.5 0.5 17.5 Z" stroke="black" stroke-width="1"  stroke-opacity="0.1" transform="translate(1, 1)"></path><path fill="rgb(255,255,255)" fill-opacity="0.8" d="M 0.5 30.1 L 0.5 17.5 0.5 0.5 38.5 0.5 38.5 17.5 0.5 17.5 Z" stroke="#333333" stroke-width="1"></path><text x="3"  style="font-size:11px;font-weight:bold;" y="14">Award</text></g></g></g><text x="292" text-anchor="middle" class="highcharts-title"  style="color:black;font-size:16px;font-weight:bold;fill:black;width:520px;" y="22"><tspan>Highcharts and Highsoft timeline</tspan></text><path fill="rgb(193,40,40)" fill-opacity="1" d="M 50 140 L 230 140 230 160 50 160 z M 50 150 L 30 150 40 160 30 170 60 170 50 160 60 170 60 160 50 160 z M 230 150 L 250 150 240 160 250 170 220 170 230 160 220 170 220 160 230 160 z" stroke="#FFFFFF" stroke-width="1" ></path><path fill="rgb(193,40,40)" fill-opacity="1" d="M 210 110 L 219.3 120.4 L 207.6 128.1 L 213.9 140.6 L 200.6 145 L 203.4 158.7 L 189.4 159.4 L 188.7 173.4 L 175 170.6 L 170.6 183.9 L 158.1 177.6 L 150.4 189.3 L 140 180 L 129.5 189.3 L 121.8 177.6 L 109.3 183.9 L 105 170.6 L 91.2 173.4 L 90.5 159.4 L 76.5 158.7 L 79.3 145.0 L 66.0 140.6 L 72.3 128.1 L 60.6 120.4 L 70 110.0 L 60.6 99.5 L 72.3 91.8 L 66.0 79.3 L 79.3 75.0 L 76.5 61.2 L 90.5 60.5 L 91.2 46.5 L 104.9 49.3 L 109.3 36.0 L 121.8 42.3 L 129.5 30.6 L 139.9 40 L 150.4 30.6 L 158.1 42.3 L 170.6 36.0 L 174.9 49.3 L 188.7 46.5 L 189.4 60.5 L 203.4 61.2 L 200.6 74.9 L 213.9 79.3 L 207.6 91.8 L 219.3 99.5 L 210 109.9 z" ></path><text x="118.6"  style="color:white;font-size:100px;font-style:italic;font-family:'brush script mt', sans-serif;fill:white;" y="124">5</text><text x="82.5"  style="color:#ffffff;fill:#ffffff;" y="154"><tspan>Highcharts Anniversary</tspan></text><text x="118.3"  style="color:#ffffff;font-style:italic;font-size:10px;fill:#ffffff;" y="172">2009-2014</text><g class="highcharts-legend"  transform="translate(75,381)"><g ><g><g class="highcharts-legend-item"  transform="translate(8,3)"><path fill="none" d="M 0 12 L 16 12" stroke-dasharray="8,6" stroke="#f45b5b" stroke-width="2"></path><text x="21" style="color:#333333;font-size:13px;font-weight:bold;cursor:pointer;fill:#333333;" text-anchor="start"  y="16"><tspan>Google search for </tspan><tspan style="font-style:italic" dx="0">highcharts</tspan></text></g><g class="highcharts-legend-item"  transform="translate(208.1,3)"><text x="21" y="16" style="color:#333333;font-size:13px;font-weight:bold;cursor:pointer;fill:#333333;" text-anchor="start" >Revenue</text><rect x="0" y="4" width="16" height="13"  fill="#8085e9"></rect></g><g class="highcharts-legend-item"  transform="translate(296.7,3)"><text x="21" y="16" style="color:#333333;font-size:13px;font-weight:bold;cursor:pointer;fill:#333333;" text-anchor="start" ><tspan>Highsoft employees</tspan></text><rect x="0" y="4" width="16" height="13"  fill="#8d4654"></rect></g></g></g></g><g class="highcharts-axis-labels highcharts-xaxis-labels" ><text x="31.7" style="color:#6e6e70;cursor:default;font-size:11px;fill:#6e6e70;width:131px;text-overflow:clip;" text-anchor="start" transform="translate(0,0)" y="369" opacity="1">2010</text><text x="131.4" style="color:#6e6e70;cursor:default;font-size:11px;fill:#6e6e70;width:131px;text-overflow:clip;" text-anchor="start" transform="translate(0,0)" y="369" opacity="1">2011</text><text x="231.1" style="color:#6e6e70;cursor:default;font-size:11px;fill:#6e6e70;width:131px;text-overflow:clip;" text-anchor="start" transform="translate(0,0)" y="369" opacity="1">2012</text><text x="331.0" style="color:#6e6e70;cursor:default;font-size:11px;fill:#6e6e70;width:131px;text-overflow:clip;" text-anchor="start" transform="translate(0,0)" y="369" opacity="1">2013</text><text x="430.8" style="color:#6e6e70;cursor:default;font-size:11px;fill:#6e6e70;width:131px;text-overflow:clip;" text-anchor="start" transform="translate(0,0)" y="369" opacity="1">2014</text></g><g class="highcharts-axis-labels highcharts-yaxis-labels" ></g><g class="highcharts-axis-labels highcharts-yaxis-labels" ><text x="541" style="color:#8d4654;cursor:default;font-size:11px;fill:#8d4654;width:183px;text-overflow:clip;" text-anchor="start" transform="translate(0,0)" y="356" opacity="1">0</text><text x="541" style="color:#8d4654;cursor:default;font-size:11px;fill:#8d4654;width:183px;text-overflow:clip;" text-anchor="start" transform="translate(0,0)" y="294" opacity="1">5</text><text x="541" style="color:#8d4654;cursor:default;font-size:11px;fill:#8d4654;width:183px;text-overflow:clip;" text-anchor="start" transform="translate(0,0)" y="232" opacity="1">10</text><text x="541" style="color:#8d4654;cursor:default;font-size:11px;fill:#8d4654;width:183px;text-overflow:clip;" text-anchor="start" transform="translate(0,0)" y="170" opacity="1">15</text><text x="541" style="color:#8d4654;cursor:default;font-size:11px;fill:#8d4654;width:183px;text-overflow:clip;" text-anchor="start" transform="translate(0,0)" y="108" opacity="1">20</text><text x="541" style="color:#8d4654;cursor:default;font-size:11px;fill:#8d4654;width:183px;text-overflow:clip;" text-anchor="start" transform="translate(0,0)" y="47" opacity="1">25</text></g><path fill="none" d="M 210 110 L 219.3 120.4 L 207.6 128.1 L 213.9 140.6 L 200.6 145 L 203.4 158.7 L 189.4 159.4 L 188.7 173.4 L 175 170.6 L 170.6 183.9 L 158.1 177.6 L 150.4 189.3 L 140 180 L 129.5 189.3 L 121.8 177.6 L 109.3 183.9 L 105 170.6 L 91.2 173.4 L 90.5 159.4 L 76.5 158.7 L 79.3 145.0 L 66.0 140.6 L 72.3 128.1 L 60.6 120.4 L 70 110.0 L 60.6 99.5 L 72.3 91.8 L 66.0 79.3 L 79.3 75.0 L 76.5 61.2 L 90.5 60.5 L 91.2 46.5 L 104.9 49.3 L 109.3 36.0 L 121.8 42.3 L 129.5 30.6 L 139.9 40 L 150.4 30.6 L 158.1 42.3 L 170.6 36.0 L 174.9 49.3 L 188.7 46.5 L 189.4 60.5 L 203.4 61.2 L 200.6 74.9 L 213.9 79.3 L 207.6 91.8 L 219.3 99.5 L 210 109.9 z"  opacity="0" stroke="rgb(193,40,40)" stroke-opacity="1" stroke-width="1"></path><g class="highcharts-tooltip"  style="cursor:default;padding:0;white-space:nowrap;" transform="translate(0,-9999)"><path fill="none" d="M 3 0 L 13 0 C 16 0 16 0 16 3 L 16 13 C 16 16 16 16 13 16 L 3 16 C 0 16 0 16 0 13 L 0 3 C 0 0 0 0 3 0"  stroke="black" stroke-opacity="0.0" stroke-width="5" transform="translate(1, 1)"></path><path fill="none" d="M 3 0 L 13 0 C 16 0 16 0 16 3 L 16 13 C 16 16 16 16 13 16 L 3 16 C 0 16 0 16 0 13 L 0 3 C 0 0 0 0 3 0"  stroke="black" stroke-opacity="0.0" stroke-width="3" transform="translate(1, 1)"></path><path fill="none" d="M 3 0 L 13 0 C 16 0 16 0 16 3 L 16 13 C 16 16 16 16 13 16 L 3 16 C 0 16 0 16 0 13 L 0 3 C 0 0 0 0 3 0"  stroke="black" stroke-opacity="0.1" stroke-width="1" transform="translate(1, 1)"></path><path fill="rgb(249, 249, 249)" fill-opacity=" .85" d="M 3 0 L 13 0 C 16 0 16 0 16 3 L 16 13 C 16 16 16 16 13 16 L 3 16 C 0 16 0 16 0 13 L 0 3 C 0 0 0 0 3 0"></path><text x="8"  style="font-size:12px;color:#333333;width:250px;fill:#333333;" y="20"></text></g></svg>