<svg version="1.1" style="font-family:&quot;lucida grande&quot;, &quot;lucida sans unicode&quot;, arial, helvetica, sans-serif;font-size:12px;" xmlns="http://www.w3.org/2000/svg" width="584" height="400" viewBox="0 0 584 400"><desc>Created with Highcharts 4.1.6</desc><defs><clipPath id="highcharts-1"><rect x="0" y="0" width="413" height="303"></rect></clipPath><clipPath id="highcharts-2"><rect x="-99" y="-61" width="512" height="400"></rect></clipPath><clipPath id="highcharts-3"><rect x="0" y="0" width="413" height="303"></rect></clipPath></defs><rect x="0" y="0" width="584" height="400" strokeWidth="0" fill="#FFFFFF" class=" highcharts-background" stroke="transparent"></rect><g class="highcharts-grid" ></g><g class="highcharts-grid" ><path fill="none" d="M 77 364.5 L 490 364.5" stroke="#D8D8D8" stroke-width="1"  opacity="1"></path><path fill="none" d="M 77 303.5 L 490 303.5" stroke="#D8D8D8" stroke-width="1"  opacity="1"></path><path fill="none" d="M 77 243.5 L 490 243.5" stroke="#D8D8D8" stroke-width="1"  opacity="1"></path><path fill="none" d="M 77 182.5 L 490 182.5" stroke="#D8D8D8" stroke-width="1"  opacity="1"></path><path fill="none" d="M 77 122.5 L 490 122.5" stroke="#D8D8D8" stroke-width="1"  opacity="1"></path><path fill="none" d="M 77 60.5 L 490 60.5" stroke="#D8D8D8" stroke-width="1"  opacity="1"></path></g><g class="highcharts-grid" ><path fill="none" d="M 77 364.5 L 490 364.5" stroke="#D8D8D8" stroke-width="1"  opacity="1"></path><path fill="none" d="M 77 303.5 L 490 303.5" stroke="#D8D8D8" stroke-width="1"  opacity="1"></path><path fill="none" d="M 77 243.5 L 490 243.5" stroke="#D8D8D8" stroke-width="1"  opacity="1"></path><path fill="none" d="M 77 182.5 L 490 182.5" stroke="#D8D8D8" stroke-width="1"  opacity="1"></path><path fill="none" d="M 77 122.5 L 490 122.5" stroke="#D8D8D8" stroke-width="1"  opacity="1"></path><path fill="none" d="M 77 60.5 L 490 60.5" stroke="#D8D8D8" stroke-width="1"  opacity="1"></path></g><g class="highcharts-axis" ><path fill="none" d="M 110.5 364 L 110.5 374" stroke="#C0D0E0" stroke-width="1" opacity="1"></path><path fill="none" d="M 145.5 364 L 145.5 374" stroke="#C0D0E0" stroke-width="1" opacity="1"></path><path fill="none" d="M 179.5 364 L 179.5 374" stroke="#C0D0E0" stroke-width="1" opacity="1"></path><path fill="none" d="M 214.5 364 L 214.5 374" stroke="#C0D0E0" stroke-width="1" opacity="1"></path><path fill="none" d="M 248.5 364 L 248.5 374" stroke="#C0D0E0" stroke-width="1" opacity="1"></path><path fill="none" d="M 283.5 364 L 283.5 374" stroke="#C0D0E0" stroke-width="1" opacity="1"></path><path fill="none" d="M 317.5 364 L 317.5 374" stroke="#C0D0E0" stroke-width="1" opacity="1"></path><path fill="none" d="M 351.5 364 L 351.5 374" stroke="#C0D0E0" stroke-width="1" opacity="1"></path><path fill="none" d="M 386.5 364 L 386.5 374" stroke="#C0D0E0" stroke-width="1" opacity="1"></path><path fill="none" d="M 420.5 364 L 420.5 374" stroke="#C0D0E0" stroke-width="1" opacity="1"></path><path fill="none" d="M 455.5 364 L 455.5 374" stroke="#C0D0E0" stroke-width="1" opacity="1"></path><path fill="none" d="M 489.5 364 L 489.5 374" stroke="#C0D0E0" stroke-width="1" opacity="1"></path><path fill="none" d="M 76.5 364 L 76.5 374" stroke="#C0D0E0" stroke-width="1" opacity="1"></path><path fill="none" d="M 77 364.5 L 490 364.5" stroke="#C0D0E0" stroke-width="1"  visibility="visible"></path></g><g class="highcharts-axis" ><text x="25"  text-anchor="middle" transform="translate(0,0) rotate(270 25 212.5)" class=" highcharts-yaxis-title" style="color:#434348;fill:#434348;" visibility="visible" y="212.5">Temperature</text></g><g class="highcharts-axis" ><text x="559"  text-anchor="middle" transform="translate(0,0) rotate(90 559 212.5)" class=" highcharts-yaxis-title" style="color:#7cb5ec;fill:#7cb5ec;" visibility="visible" y="212.5">Rainfall</text></g><g class="highcharts-series-group" ><g class="highcharts-series highcharts-tracker" visibility="visible"  transform="translate(77,61) scale(1 1)" style="" clip-path="url(#highcharts-1)"><rect x="8.5" y="243.5" width="17" height="60" stroke="#FFFFFF" stroke-width="1" fill="#7cb5ec" rx="0" ry="0"></rect><rect x="42.5" y="216.5" width="17" height="87" stroke="#FFFFFF" stroke-width="1" fill="#7cb5ec" rx="0" ry="0"></rect><rect x="77.5" y="174.5" width="17" height="129" stroke="#FFFFFF" stroke-width="1" fill="#7cb5ec" rx="0" ry="0"></rect><rect x="111.5" y="146.5" width="17" height="157" stroke="#FFFFFF" stroke-width="1" fill="#7cb5ec" rx="0" ry="0"></rect><rect x="146.5" y="128.5" width="17" height="175" stroke="#FFFFFF" stroke-width="1" fill="#7cb5ec" rx="0" ry="0"></rect><rect x="180.5" y="90.5" width="17" height="213" stroke="#FFFFFF" stroke-width="1" fill="#7cb5ec" rx="0" ry="0"></rect><rect x="214.5" y="139.5" width="17" height="164" stroke="#FFFFFF" stroke-width="1" fill="#7cb5ec" rx="0" ry="0"></rect><rect x="249.5" y="123.5" width="17" height="180" stroke="#FFFFFF" stroke-width="1" fill="#7cb5ec" rx="0" ry="0"></rect><rect x="283.5" y="41.5" width="17" height="262" stroke="#FFFFFF" stroke-width="1" fill="#7cb5ec" rx="0" ry="0"></rect><rect x="318.5" y="68.5" width="17" height="235" stroke="#FFFFFF" stroke-width="1" fill="#7cb5ec" rx="0" ry="0"></rect><rect x="352.5" y="187.5" width="17" height="116" stroke="#FFFFFF" stroke-width="1" fill="#7cb5ec" rx="0" ry="0"></rect><rect x="387.5" y="237.5" width="17" height="66" stroke="#FFFFFF" stroke-width="1" fill="#7cb5ec" rx="0" ry="0"></rect></g><g class="highcharts-markers" visibility="visible"  transform="translate(77,61) scale(1 1)"></g><g class="highcharts-series" visibility="visible"  transform="translate(77,61) scale(1 1)" clip-path="url(#highcharts-3)"><path fill="none" d="M 17.2 278.7 C 17.2 278.7 37.8 279.9 51.6 279.9 C 65.3 279.9 72.2 266.8 86.0 248.4 C 99.8 230.0 106.6 208.9 120.4 187.8 C 134.2 166.7 141.1 159.9 154.8 143.0 C 168.6 126.0 175.5 119.9 189.2 103.0 C 203.0 86.0 209.9 70.2 223.7 58.1 C 237.4 46.0 244.3 42.4 258.1 42.4 C 271.8 42.4 278.7 61.3 292.5 81.2 C 306.3 101.0 313.1 119.0 326.9 141.8 C 340.7 164.5 347.6 174.0 361.3 195.1 C 375.1 216.2 395.7 247.2 395.7 247.2" stroke="#434348" stroke-width="2"  stroke-linejoin="round" stroke-linecap="round"></path><path fill="none" d="M 7.2 278.7 L 17.2 278.7 C 17.2 278.7 37.8 279.9 51.6 279.9 C 65.3 279.9 72.2 266.8 86.0 248.4 C 99.8 230.0 106.6 208.9 120.4 187.8 C 134.2 166.7 141.1 159.9 154.8 143.0 C 168.6 126.0 175.5 119.9 189.2 103.0 C 203.0 86.0 209.9 70.2 223.7 58.1 C 237.4 46.0 244.3 42.4 258.1 42.4 C 271.8 42.4 278.7 61.3 292.5 81.2 C 306.3 101.0 313.1 119.0 326.9 141.8 C 340.7 164.5 347.6 174.0 361.3 195.1 C 375.1 216.2 395.7 247.2 395.7 247.2 L 405.7 247.2" stroke-linejoin="round" visibility="visible" stroke="rgb(192,192,192)" stroke-opacity="0.0" stroke-width="22"  class=" highcharts-tracker" style=""></path></g><g class="highcharts-markers highcharts-tracker" visibility="visible"  transform="translate(77,61) scale(1 1)" clip-path="url(#highcharts-2)" style=""><path fill="#434348" d="M 395 243.2 C 400.3 243.2 400.3 251.2 395 251.2 C 389.6 251.2 389.6 243.2 395 243.2 Z"></path><path fill="#434348" d="M 361 191.1 C 366.3 191.1 366.3 199.1 361 199.1 C 355.6 199.1 355.6 191.1 361 191.1 Z"></path><path fill="#434348" d="M 326 137.8 C 331.3 137.8 331.3 145.8 326 145.8 C 320.6 145.8 320.6 137.8 326 137.8 Z"></path><path fill="#434348" d="M 292 77.2 C 297.3 77.2 297.3 85.2 292 85.2 C 286.6 85.2 286.6 77.2 292 77.2 Z"></path><path fill="#434348" d="M 258 38.4 C 263.3 38.4 263.3 46.4 258 46.4 C 252.6 46.4 252.6 38.4 258 38.4 Z"></path><path fill="#434348" d="M 223 54.1 C 228.3 54.1 228.3 62.1 223 62.1 C 217.6 62.1 217.6 54.1 223 54.1 Z"></path><path fill="#434348" d="M 189 99.0 C 194.3 99.0 194.3 107.0 189 107.0 C 183.6 107.0 183.6 99.0 189 99.0 Z"></path><path fill="#434348" d="M 154 139.0 C 159.3 139.0 159.3 147.0 154 147.0 C 148.6 147.0 148.6 139.0 154 139.0 Z"></path><path fill="#434348" d="M 120 183.8 C 125.3 183.8 125.3 191.8 120 191.8 C 114.6 191.8 114.6 183.8 120 183.8 Z"></path><path fill="#434348" d="M 86 244.4 C 91.3 244.4 91.3 252.4 86 252.4 C 80.6 252.4 80.6 244.4 86 244.4 Z"></path><path fill="#434348" d="M 51 275.9 C 56.3 275.9 56.3 283.9 51 283.9 C 45.6 283.9 45.6 275.9 51 275.9 Z"></path><path fill="#434348" d="M 17 274.7 C 22.3 274.7 22.3 282.7 17 282.7 C 11.6 282.7 11.6 274.7 17 274.7 Z"></path></g></g><text x="292" text-anchor="middle" class="highcharts-title"  style="color:#333333;font-size:18px;fill:#333333;width:520px;" y="24"><tspan>Average Monthly Temperature and Rainfall in Tokyo</tspan></text><text x="292" text-anchor="middle" class="highcharts-subtitle"  style="color:#555555;fill:#555555;width:520px;" y="45"><tspan>Source: WorldClimate.com</tspan></text><g class="highcharts-legend"  transform="translate(130,110)"><rect x="0" y="0" width="116" height="41" strokeWidth="0" fill="#FFFFFF" visibility="visible"></rect><g ><g><g class="highcharts-legend-item"  transform="translate(8,3)"><text x="21" style="color:#333333;font-size:12px;font-weight:bold;cursor:pointer;fill:#333333;" text-anchor="start"  y="15">Rainfall</text><rect x="0" y="4" width="16" height="12"  fill="#7cb5ec"></rect></g><g class="highcharts-legend-item"  transform="translate(8,18)"><path fill="none" d="M 0 11 L 16 11" stroke="#434348" stroke-width="2"></path><path fill="#434348" d="M 8 7 C 13.3 7 13.3 15 8 15 C 2.6 15 2.6 7 8 7 Z"></path><text x="21" y="15" style="color:#333333;font-size:12px;font-weight:bold;cursor:pointer;fill:#333333;" text-anchor="start" >Temperature</text></g></g></g></g><g class="highcharts-axis-labels highcharts-xaxis-labels" ><text x="94.2" style="color:#606060;cursor:default;font-size:11px;fill:#606060;" text-anchor="middle" transform="translate(0,0)" y="383" opacity="1">Jan</text><text x="128.6" style="color:#606060;cursor:default;font-size:11px;fill:#606060;" text-anchor="middle" transform="translate(0,0)" y="383" opacity="1">Feb</text><text x="163.0" style="color:#606060;cursor:default;font-size:11px;fill:#606060;" text-anchor="middle" transform="translate(0,0)" y="383" opacity="1">Mar</text><text x="197.4" style="color:#606060;cursor:default;font-size:11px;fill:#606060;" text-anchor="middle" transform="translate(0,0)" y="383" opacity="1">Apr</text><text x="231.8" style="color:#606060;cursor:default;font-size:11px;fill:#606060;" text-anchor="middle" transform="translate(0,0)" y="383" opacity="1">May</text><text x="266.2" style="color:#606060;cursor:default;font-size:11px;fill:#606060;" text-anchor="middle" transform="translate(0,0)" y="383" opacity="1">Jun</text><text x="300.7" style="color:#606060;cursor:default;font-size:11px;fill:#606060;" text-anchor="middle" transform="translate(0,0)" y="383" opacity="1">Jul</text><text x="335.1" style="color:#606060;cursor:default;font-size:11px;fill:#606060;" text-anchor="middle" transform="translate(0,0)" y="383" opacity="1">Aug</text><text x="369.5" style="color:#606060;cursor:default;font-size:11px;fill:#606060;" text-anchor="middle" transform="translate(0,0)" y="383" opacity="1">Sep</text><text x="403.9" style="color:#606060;cursor:default;font-size:11px;fill:#606060;" text-anchor="middle" transform="translate(0,0)" y="383" opacity="1">Oct</text><text x="438.3" style="color:#606060;cursor:default;font-size:11px;fill:#606060;" text-anchor="middle" transform="translate(0,0)" y="383" opacity="1">Nov</text><text x="472.7" style="color:#606060;cursor:default;font-size:11px;fill:#606060;" text-anchor="middle" transform="translate(0,0)" y="383" opacity="1">Dec</text></g><g class="highcharts-axis-labels highcharts-yaxis-labels" ><text x="62" style="color:#434348;cursor:default;font-size:11px;fill:#434348;width:183px;text-overflow:clip;" text-anchor="end" transform="translate(0,0)" y="369" opacity="1">5°C</text><text x="62" style="color:#434348;cursor:default;font-size:11px;fill:#434348;width:183px;text-overflow:clip;" text-anchor="end" transform="translate(0,0)" y="308" opacity="1">10°C</text><text x="62" style="color:#434348;cursor:default;font-size:11px;fill:#434348;width:183px;text-overflow:clip;" text-anchor="end" transform="translate(0,0)" y="247" opacity="1">15°C</text><text x="62" style="color:#434348;cursor:default;font-size:11px;fill:#434348;width:183px;text-overflow:clip;" text-anchor="end" transform="translate(0,0)" y="187" opacity="1">20°C</text><text x="62" style="color:#434348;cursor:default;font-size:11px;fill:#434348;width:183px;text-overflow:clip;" text-anchor="end" transform="translate(0,0)" y="126" opacity="1">25°C</text><text x="62" style="color:#434348;cursor:default;font-size:11px;fill:#434348;width:183px;text-overflow:clip;" text-anchor="end" transform="translate(0,0)" y="66" opacity="1">30°C</text></g><g class="highcharts-axis-labels highcharts-yaxis-labels" ><text x="505" style="color:#7cb5ec;cursor:default;font-size:11px;fill:#7cb5ec;width:183px;text-overflow:clip;" text-anchor="start" transform="translate(0,0)" y="369" opacity="1"><tspan>0 mm</tspan></text><text x="505" style="color:#7cb5ec;cursor:default;font-size:11px;fill:#7cb5ec;width:183px;text-overflow:clip;" text-anchor="start" transform="translate(0,0)" y="308" opacity="1"><tspan>50 mm</tspan></text><text x="505" style="color:#7cb5ec;cursor:default;font-size:11px;fill:#7cb5ec;width:183px;text-overflow:clip;" text-anchor="start" transform="translate(0,0)" y="247" opacity="1"><tspan>100 mm</tspan></text><text x="505" style="color:#7cb5ec;cursor:default;font-size:11px;fill:#7cb5ec;width:183px;text-overflow:clip;" text-anchor="start" transform="translate(0,0)" y="187" opacity="1"><tspan>150 mm</tspan></text><text x="505" style="color:#7cb5ec;cursor:default;font-size:11px;fill:#7cb5ec;width:183px;text-overflow:clip;" text-anchor="start" transform="translate(0,0)" y="126" opacity="1"><tspan>200 mm</tspan></text><text x="505" style="color:#7cb5ec;cursor:default;font-size:11px;fill:#7cb5ec;width:183px;text-overflow:clip;" text-anchor="start" transform="translate(0,0)" y="66" opacity="1"><tspan>250 mm</tspan></text></g><g class="highcharts-tooltip"  style="cursor:default;padding:0;white-space:nowrap;" transform="translate(0,-9999)"><path fill="none" d="M 3.5 0.5 L 13.5 0.5 C 16.5 0.5 16.5 0.5 16.5 3.5 L 16.5 13.5 C 16.5 16.5 16.5 16.5 13.5 16.5 L 3.5 16.5 C 0.5 16.5 0.5 16.5 0.5 13.5 L 0.5 3.5 C 0.5 0.5 0.5 0.5 3.5 0.5"  stroke="black" stroke-opacity="0.0" stroke-width="5" transform="translate(1, 1)"></path><path fill="none" d="M 3.5 0.5 L 13.5 0.5 C 16.5 0.5 16.5 0.5 16.5 3.5 L 16.5 13.5 C 16.5 16.5 16.5 16.5 13.5 16.5 L 3.5 16.5 C 0.5 16.5 0.5 16.5 0.5 13.5 L 0.5 3.5 C 0.5 0.5 0.5 0.5 3.5 0.5"  stroke="black" stroke-opacity="0.0" stroke-width="3" transform="translate(1, 1)"></path><path fill="none" d="M 3.5 0.5 L 13.5 0.5 C 16.5 0.5 16.5 0.5 16.5 3.5 L 16.5 13.5 C 16.5 16.5 16.5 16.5 13.5 16.5 L 3.5 16.5 C 0.5 16.5 0.5 16.5 0.5 13.5 L 0.5 3.5 C 0.5 0.5 0.5 0.5 3.5 0.5"  stroke="black" stroke-opacity="0.1" stroke-width="1" transform="translate(1, 1)"></path><path fill="rgb(249, 249, 249)" fill-opacity=" .85" d="M 3.5 0.5 L 13.5 0.5 C 16.5 0.5 16.5 0.5 16.5 3.5 L 16.5 13.5 C 16.5 16.5 16.5 16.5 13.5 16.5 L 3.5 16.5 C 0.5 16.5 0.5 16.5 0.5 13.5 L 0.5 3.5 C 0.5 0.5 0.5 0.5 3.5 0.5"></path><text x="8"  style="font-size:12px;color:#333333;fill:#333333;" y="20"></text></g></svg>