<svg version="1.1" style="font-family:&quot;lucida grande&quot;, &quot;lucida sans unicode&quot;, arial, helvetica, sans-serif;font-size:12px;" xmlns="http://www.w3.org/2000/svg" width="584" height="400" viewBox="0 0 584 400"><desc>Created with Highcharts 4.1.6</desc><defs><clipPath id="highcharts-1"><rect x="0" y="0" width="517" height="280"></rect></clipPath><clipPath id="highcharts-2"><rect x="-99" y="-46" width="616" height="400"></rect></clipPath><clipPath id="highcharts-3"><rect x="0" y="0" width="517" height="280"></rect></clipPath></defs><rect x="0" y="0" width="584" height="400" strokeWidth="0" fill="#FFFFFF" class=" highcharts-background" stroke="transparent"></rect><g class="highcharts-grid" ></g><g class="highcharts-grid" ><path fill="none" d="M 57 326.5 L 574 326.5" stroke="#D8D8D8" stroke-width="1"  opacity="1"></path><path fill="none" d="M 57 270.5 L 574 270.5" stroke="#D8D8D8" stroke-width="1"  opacity="1"></path><path fill="none" d="M 57 214.5 L 574 214.5" stroke="#D8D8D8" stroke-width="1"  opacity="1"></path><path fill="none" d="M 57 158.5 L 574 158.5" stroke="#D8D8D8" stroke-width="1"  opacity="1"></path><path fill="none" d="M 57 102.5 L 574 102.5" stroke="#D8D8D8" stroke-width="1"  opacity="1"></path><path fill="none" d="M 57 45.5 L 574 45.5" stroke="#D8D8D8" stroke-width="1"  opacity="1"></path></g><g class="highcharts-axis" ><path fill="none" d="M 99.5 326 L 99.5 336" stroke="#C0D0E0" stroke-width="1" opacity="1"></path><path fill="none" d="M 185.5 326 L 185.5 336" stroke="#C0D0E0" stroke-width="1" opacity="1"></path><path fill="none" d="M 271.5 326 L 271.5 336" stroke="#C0D0E0" stroke-width="1" opacity="1"></path><path fill="none" d="M 358.5 326 L 358.5 336" stroke="#C0D0E0" stroke-width="1" opacity="1"></path><path fill="none" d="M 444.5 326 L 444.5 336" stroke="#C0D0E0" stroke-width="1" opacity="1"></path><path fill="none" d="M 530.5 326 L 530.5 336" stroke="#C0D0E0" stroke-width="1" opacity="1"></path><path fill="none" d="M 57 326.5 L 574 326.5" stroke="#C0D0E0" stroke-width="1"  visibility="visible"></path></g><g class="highcharts-axis" ><text x="25"  text-anchor="middle" transform="translate(0,0) rotate(270 25 186)" class=" highcharts-yaxis-title" style="color:#707070;fill:#707070;" visibility="visible" y="186">Values</text></g><g class="highcharts-series-group" ><g class="highcharts-series" visibility="visible"  transform="translate(57,46) scale(1 1)" clip-path="url(#highcharts-3)"><path fill="none" d="M 43.0 217.8 L 473.9 27.4" stroke="#7cb5ec" stroke-width="2"  stroke-linejoin="round" stroke-linecap="round"></path></g><g class="highcharts-markers" visibility="visible"  transform="translate(57,46) scale(1 1)" clip-path="url(#highcharts-2)"></g><g class="highcharts-series highcharts-tracker" visibility="visible"  transform="translate(57,46) scale(1 1)" clip-path="url(#highcharts-3)" style=""></g><g class="highcharts-markers highcharts-tracker" visibility="visible"  transform="translate(57,46) scale(1 1)" clip-path="url(#highcharts-2)" style=""><path fill="#434348" d="M 473 40.7 L 477 44.7 473 48.7 469 44.7 Z"></path><path fill="#434348" d="M 387 57.5 L 391 61.5 387 65.6 383 61.5 Z"></path><path fill="#434348" d="M 301 80 L 305 84 301 88 297 84 Z"></path><path fill="#434348" d="M 215 119.2 L 219 123.2 215 127.2 211 123.2 Z"></path><path fill="#434348" d="M 129 192 L 133 196 129 200 125 196 Z"></path><path fill="#434348" d="M 43 220 L 47 224 43 228 39 224 Z"></path></g></g><text x="292" text-anchor="middle" class="highcharts-title"  style="color:#333333;font-size:18px;fill:#333333;width:520px;" y="24"><tspan>Scatter plot with regression line</tspan></text><g class="highcharts-legend"  transform="translate(162,359)"><g ><g><g class="highcharts-legend-item"  transform="translate(8,3)"><path fill="none" d="M 0 11 L 16 11" stroke="#7cb5ec" stroke-width="2"></path><text x="21" style="color:#333333;font-size:12px;font-weight:bold;cursor:pointer;fill:#333333;" text-anchor="start"  y="15"><tspan>Regression Line</tspan></text></g><g class="highcharts-legend-item"  transform="translate(148,3)"><path fill="#434348" d="M 8 7 L 12 11 8 15 4 11 Z"></path><text x="21" y="15" style="color:#333333;font-size:12px;font-weight:bold;cursor:pointer;fill:#333333;" text-anchor="start" >Observations</text></g></g></g></g><g class="highcharts-axis-labels highcharts-xaxis-labels" ><text x="100.0" style="color:#606060;cursor:default;font-size:11px;fill:#606060;width:103px;text-overflow:clip;" text-anchor="middle" transform="translate(0,0)" y="345" opacity="1">0</text><text x="186.2" style="color:#606060;cursor:default;font-size:11px;fill:#606060;width:103px;text-overflow:clip;" text-anchor="middle" transform="translate(0,0)" y="345" opacity="1">1</text><text x="272.4" style="color:#606060;cursor:default;font-size:11px;fill:#606060;width:103px;text-overflow:clip;" text-anchor="middle" transform="translate(0,0)" y="345" opacity="1">2</text><text x="358.5" style="color:#606060;cursor:default;font-size:11px;fill:#606060;width:103px;text-overflow:clip;" text-anchor="middle" transform="translate(0,0)" y="345" opacity="1">3</text><text x="444.7" style="color:#606060;cursor:default;font-size:11px;fill:#606060;width:103px;text-overflow:clip;" text-anchor="middle" transform="translate(0,0)" y="345" opacity="1">4</text><text x="530.9" style="color:#606060;cursor:default;font-size:11px;fill:#606060;width:103px;text-overflow:clip;" text-anchor="middle" transform="translate(0,0)" y="345" opacity="1">5</text></g><g class="highcharts-axis-labels highcharts-yaxis-labels" ><text x="42" style="color:#606060;cursor:default;font-size:11px;fill:#606060;width:183px;text-overflow:clip;" text-anchor="end" transform="translate(0,0)" y="331" opacity="1">0</text><text x="42" style="color:#606060;cursor:default;font-size:11px;fill:#606060;width:183px;text-overflow:clip;" text-anchor="end" transform="translate(0,0)" y="275" opacity="1">1</text><text x="42" style="color:#606060;cursor:default;font-size:11px;fill:#606060;width:183px;text-overflow:clip;" text-anchor="end" transform="translate(0,0)" y="219" opacity="1">2</text><text x="42" style="color:#606060;cursor:default;font-size:11px;fill:#606060;width:183px;text-overflow:clip;" text-anchor="end" transform="translate(0,0)" y="163" opacity="1">3</text><text x="42" style="color:#606060;cursor:default;font-size:11px;fill:#606060;width:183px;text-overflow:clip;" text-anchor="end" transform="translate(0,0)" y="107" opacity="1">4</text><text x="42" style="color:#606060;cursor:default;font-size:11px;fill:#606060;width:183px;text-overflow:clip;" text-anchor="end" transform="translate(0,0)" y="51" opacity="1">5</text></g><g class="highcharts-tooltip"  style="cursor:default;padding:0;white-space:nowrap;" transform="translate(0,-9999)"><path fill="none" d="M 3.5 0.5 L 13.5 0.5 C 16.5 0.5 16.5 0.5 16.5 3.5 L 16.5 13.5 C 16.5 16.5 16.5 16.5 13.5 16.5 L 3.5 16.5 C 0.5 16.5 0.5 16.5 0.5 13.5 L 0.5 3.5 C 0.5 0.5 0.5 0.5 3.5 0.5"  stroke="black" stroke-opacity="0.0" stroke-width="5" transform="translate(1, 1)"></path><path fill="none" d="M 3.5 0.5 L 13.5 0.5 C 16.5 0.5 16.5 0.5 16.5 3.5 L 16.5 13.5 C 16.5 16.5 16.5 16.5 13.5 16.5 L 3.5 16.5 C 0.5 16.5 0.5 16.5 0.5 13.5 L 0.5 3.5 C 0.5 0.5 0.5 0.5 3.5 0.5"  stroke="black" stroke-opacity="0.0" stroke-width="3" transform="translate(1, 1)"></path><path fill="none" d="M 3.5 0.5 L 13.5 0.5 C 16.5 0.5 16.5 0.5 16.5 3.5 L 16.5 13.5 C 16.5 16.5 16.5 16.5 13.5 16.5 L 3.5 16.5 C 0.5 16.5 0.5 16.5 0.5 13.5 L 0.5 3.5 C 0.5 0.5 0.5 0.5 3.5 0.5"  stroke="black" stroke-opacity="0.1" stroke-width="1" transform="translate(1, 1)"></path><path fill="rgb(249, 249, 249)" fill-opacity=" .85" d="M 3.5 0.5 L 13.5 0.5 C 16.5 0.5 16.5 0.5 16.5 3.5 L 16.5 13.5 C 16.5 16.5 16.5 16.5 13.5 16.5 L 3.5 16.5 C 0.5 16.5 0.5 16.5 0.5 13.5 L 0.5 3.5 C 0.5 0.5 0.5 0.5 3.5 0.5"></path><text x="8"  style="font-size:12px;color:#333333;fill:#333333;" y="20"></text></g></svg>