<svg version="1.1" style="font-family:&quot;lucida grande&quot;, &quot;lucida sans unicode&quot;, arial, helvetica, sans-serif;font-size:12px;" xmlns="http://www.w3.org/2000/svg" width="584" height="420" viewBox="0 0 584 420"><desc>Created with Highstock 2.1.7</desc><defs><clipPath id="highcharts-1"><rect x="0" y="0" width="511" height="301"></rect></clipPath><clipPath id="highcharts-2"><rect x="-99" y="-46" width="610" height="420"></rect></clipPath><clipPath id="highcharts-3"><rect x="0" y="0" width="511" height="301"></rect></clipPath></defs><rect x="0" y="0" width="584" height="420" strokeWidth="0" fill="#FFFFFF" class=" highcharts-background" stroke="transparent"></rect><path fill="#EFFFFF" d="M 21.5 46 L 21.5 347 121.5 347 121.5 46 M 21.5 46 L 21.5 347 121.5 347 121.5 46"></path><text x="72" text-anchor="middle" transform="translate(0,0)" style="color:#999999;fill:#999999;" y="226" visibility="visible"><tspan style="font-style:italic">Offices:</tspan><tspan x="72" dy="15"> Torstein's basement</tspan></text><path fill="#FFFFEF" d="M 121.5 46 L 121.5 347 401.5 347 401.5 46 M 121.5 46 L 121.5 347 401.5 347 401.5 46"></path><text x="262" text-anchor="middle" transform="translate(0,0)" style="color:#999999;fill:#999999;" y="76" visibility="visible"><tspan style="font-style:italic">Offices:</tspan><tspan x="262" dy="15"> Tomtebu</tspan></text><path fill="#FFEFFF" d="M 401.5 46 L 401.5 347 515.5 347 515.5 46 M 401.5 46 L 401.5 347 515.5 347 515.5 46"></path><text x="459" text-anchor="middle" transform="translate(0,0)" style="color:#999999;fill:#999999;" y="76" visibility="visible"><tspan style="font-style:italic">Offices:</tspan><tspan x="459" dy="15"> VikØrsta</tspan></text><g class="highcharts-grid" ></g><g class="highcharts-grid" ><path fill="none" d="M 10 347.5 L 521 347.5" stroke="rgb(0, 0, 0)" stroke-opacity=" 0.0" stroke-width="1"  opacity="1"></path><path fill="none" d="M 10 287.5 L 521 287.5" stroke="rgb(0, 0, 0)" stroke-opacity=" 0.0" stroke-width="1"  opacity="1"></path><path fill="none" d="M 10 227.5 L 521 227.5" stroke="rgb(0, 0, 0)" stroke-opacity=" 0.0" stroke-width="1"  opacity="1"></path><path fill="none" d="M 10 166.5 L 521 166.5" stroke="rgb(0, 0, 0)" stroke-opacity=" 0.0" stroke-width="1"  opacity="1"></path><path fill="none" d="M 10 106.5 L 521 106.5" stroke="rgb(0, 0, 0)" stroke-opacity=" 0.0" stroke-width="1"  opacity="1"></path><path fill="none" d="M 10 45.5 L 521 45.5" stroke="rgb(0, 0, 0)" stroke-opacity=" 0.0" stroke-width="1"  opacity="1"></path></g><g class="highcharts-grid" ></g><g class="highcharts-axis" ><path fill="none" d="M 31.5 347 L 31.5 357" stroke="#C0D0E0" stroke-width="1" opacity="1"></path><path fill="none" d="M 129.5 347 L 129.5 357" stroke="#C0D0E0" stroke-width="1" opacity="1"></path><path fill="none" d="M 228.5 347 L 228.5 357" stroke="#C0D0E0" stroke-width="1" opacity="1"></path><path fill="none" d="M 327.5 347 L 327.5 357" stroke="#C0D0E0" stroke-width="1" opacity="1"></path><path fill="none" d="M 426.5 347 L 426.5 357" stroke="#C0D0E0" stroke-width="1" opacity="1"></path><path fill="none" d="M 10 347.5 L 521 347.5" stroke="#C0D0E0" stroke-width="1"  visibility="visible"></path></g><g class="highcharts-axis" ></g><g class="highcharts-axis" ><text x="559.9"  text-anchor="middle" transform="translate(0,0) rotate(90 559.9 196.5)" class=" highcharts-yaxis-title" style="color:#90ed7d;fill:#90ed7d;" visibility="visible" y="196.5">Employees</text></g><g class="highcharts-series-group" ><g class="highcharts-series" visibility="visible"  transform="translate(10,46) scale(1 1)" clip-path="url(#highcharts-3)"><path fill="none" d="M 9.0 301 C 9.0 301 14.0 290.1 17.3 285.9 C 20.6 281.7 22.3 279.9 25.6 279.9 C 28.8 279.9 30.4 285.9 33.6 285.9 C 36.8 285.9 38.4 284.7 41.6 282.9 C 44.9 281.1 46.6 279.9 49.8 276.9 C 53.1 273.9 54.8 267.8 58.1 267.8 C 61.4 267.8 63.0 273.9 66.3 273.9 C 69.6 273.9 71.3 267.2 74.6 264.8 C 77.9 262.4 79.6 264.8 83.0 261.8 C 86.3 258.8 87.9 249.8 91.2 249.8 C 94.5 249.8 96.2 249.8 99.5 249.8 C 102.8 249.8 104.4 248.6 107.7 246.8 C 111.0 245.0 112.7 240.8 116.0 240.8 C 119.3 240.8 121.0 240.8 124.4 240.8 C 127.6 240.8 129.2 226.9 132.4 219.7 C 135.6 212.5 137.2 204.6 140.3 204.6 C 143.6 204.6 145.3 213.7 148.6 213.7 C 151.9 213.7 153.5 198.6 156.8 198.6 C 160.1 198.6 161.8 198.6 165.1 198.6 C 168.4 198.6 170.0 198.0 173.3 192.6 C 176.7 187.1 178.4 174.5 181.7 171.5 C 185.0 168.5 186.7 168.5 190.0 168.5 C 193.3 168.5 194.9 174.5 198.2 174.5 C 201.5 174.5 203.2 159.5 206.5 159.5 C 209.8 159.5 211.4 162.5 214.7 162.5 C 218.1 162.5 219.8 157.2 223.1 150.5 C 226.4 143.9 228.0 129.4 231.2 129.4 C 234.5 129.4 236.1 138.4 239.4 138.4 C 242.6 138.4 244.3 128.2 247.6 123.4 C 250.9 118.5 252.5 118.5 255.8 114.3 C 259.1 110.1 260.8 102.3 264.1 102.3 C 267.4 102.3 269.0 117.3 272.3 117.3 C 275.7 117.3 277.4 96.3 280.7 96.3 C 284.0 96.3 285.7 99.3 289.0 99.3 C 292.3 99.3 293.9 81.2 297.2 81.2 C 300.5 81.2 302.2 99.9 305.5 111.3 C 308.8 122.8 310.4 138.4 313.7 138.4 C 317.1 138.4 318.8 111.6 322.1 99.3 C 325.3 87.5 326.9 86.6 330.1 78.2 C 333.3 69.8 334.9 66.0 338.1 57.1 C 341.4 48.0 343.0 33.1 346.3 33.1 C 349.6 33.1 351.3 51.1 354.6 51.1 C 357.9 51.1 359.5 36.1 362.8 36.1 C 366.1 36.1 367.8 37.9 371.1 42.1 C 374.4 46.3 376.1 57.1 379.5 57.1 C 382.8 57.1 384.4 57.1 387.7 51.1 C 391.0 45.1 392.7 15.0 396.0 15.0 C 399.3 15.0 400.9 34.9 404.2 42.1 C 407.5 49.3 409.2 51.1 412.5 51.1 C 415.8 51.1 417.5 36.1 420.9 33.1 C 424.0 30.1 425.6 33.1 428.8 30.1 C 432.0 27.0 433.6 23.9 436.8 18.0 C 440.1 11.9 441.8 0 445.1 0 C 448.4 0 450.0 0 453.3 0 C 456.6 0 458.3 3.0 461.6 3.0 C 464.9 3.0 466.5 3.0 469.8 3.0 C 473.2 3.0 474.8 21.0 478.2 21.0 C 481.5 21.0 483.1 12.0 486.4 9.0 C 489.7 6.0 494.7 6.0 494.7 6.0" stroke="#7cb5ec" stroke-width="2"  stroke-dasharray="8,6"></path><path fill="none" d="M -0.9 301 L 9.0 301 C 9.0 301 14.0 290.1 17.3 285.9 C 20.6 281.7 22.3 279.9 25.6 279.9 C 28.8 279.9 30.4 285.9 33.6 285.9 C 36.8 285.9 38.4 284.7 41.6 282.9 C 44.9 281.1 46.6 279.9 49.8 276.9 C 53.1 273.9 54.8 267.8 58.1 267.8 C 61.4 267.8 63.0 273.9 66.3 273.9 C 69.6 273.9 71.3 267.2 74.6 264.8 C 77.9 262.4 79.6 264.8 83.0 261.8 C 86.3 258.8 87.9 249.8 91.2 249.8 C 94.5 249.8 96.2 249.8 99.5 249.8 C 102.8 249.8 104.4 248.6 107.7 246.8 C 111.0 245.0 112.7 240.8 116.0 240.8 C 119.3 240.8 121.0 240.8 124.4 240.8 C 127.6 240.8 129.2 226.9 132.4 219.7 C 135.6 212.5 137.2 204.6 140.3 204.6 C 143.6 204.6 145.3 213.7 148.6 213.7 C 151.9 213.7 153.5 198.6 156.8 198.6 C 160.1 198.6 161.8 198.6 165.1 198.6 C 168.4 198.6 170.0 198.0 173.3 192.6 C 176.7 187.1 178.4 174.5 181.7 171.5 C 185.0 168.5 186.7 168.5 190.0 168.5 C 193.3 168.5 194.9 174.5 198.2 174.5 C 201.5 174.5 203.2 159.5 206.5 159.5 C 209.8 159.5 211.4 162.5 214.7 162.5 C 218.1 162.5 219.8 157.2 223.1 150.5 C 226.4 143.9 228.0 129.4 231.2 129.4 C 234.5 129.4 236.1 138.4 239.4 138.4 C 242.6 138.4 244.3 128.2 247.6 123.4 C 250.9 118.5 252.5 118.5 255.8 114.3 C 259.1 110.1 260.8 102.3 264.1 102.3 C 267.4 102.3 269.0 117.3 272.3 117.3 C 275.7 117.3 277.4 96.3 280.7 96.3 C 284.0 96.3 285.7 99.3 289.0 99.3 C 292.3 99.3 293.9 81.2 297.2 81.2 C 300.5 81.2 302.2 99.9 305.5 111.3 C 308.8 122.8 310.4 138.4 313.7 138.4 C 317.1 138.4 318.8 111.6 322.1 99.3 C 325.3 87.5 326.9 86.6 330.1 78.2 C 333.3 69.8 334.9 66.0 338.1 57.1 C 341.4 48.0 343.0 33.1 346.3 33.1 C 349.6 33.1 351.3 51.1 354.6 51.1 C 357.9 51.1 359.5 36.1 362.8 36.1 C 366.1 36.1 367.8 37.9 371.1 42.1 C 374.4 46.3 376.1 57.1 379.5 57.1 C 382.8 57.1 384.4 57.1 387.7 51.1 C 391.0 45.1 392.7 15.0 396.0 15.0 C 399.3 15.0 400.9 34.9 404.2 42.1 C 407.5 49.3 409.2 51.1 412.5 51.1 C 415.8 51.1 417.5 36.1 420.9 33.1 C 424.0 30.1 425.6 33.1 428.8 30.1 C 432.0 27.0 433.6 23.9 436.8 18.0 C 440.1 11.9 441.8 0 445.1 0 C 448.4 0 450.0 0 453.3 0 C 456.6 0 458.3 3.0 461.6 3.0 C 464.9 3.0 466.5 3.0 469.8 3.0 C 473.2 3.0 474.8 21.0 478.2 21.0 C 481.5 21.0 483.1 12.0 486.4 9.0 C 489.7 6.0 494.7 6.0 494.7 6.0 L 504.7 6.0" stroke-linejoin="round" visibility="visible" stroke="rgb(192,192,192)" stroke-opacity="0.0" stroke-width="22"  class=" highcharts-tracker" style=""></path></g><g class="highcharts-markers highcharts-tracker" visibility="visible"  transform="translate(10,46) scale(1 1)" clip-path="url(#highcharts-2)" style=""></g><g class="highcharts-series" visibility="visible"  transform="translate(10,46) scale(1 1)" clip-path="url(#highcharts-3)"><path fill="rgb(67,67,72)" fill-opacity="0.5" d="M 5.0 294.9 L 13.1 291.9 L 21.5 294.9 L 29.8 291.9 L 37.4 288.9 L 45.8 288.9 L 53.9 288.9 L 62.3 288.9 L 70.4 285.9 L 78.8 279.9 L 87.2 282.9 L 95.3 273.9 L 103.7 270.9 L 111.8 276.9 L 120.2 270.9 L 128.6 261.8 L 136.2 255.8 L 144.5 258.8 L 152.7 255.8 L 161.0 252.8 L 169.2 234.7 L 177.5 243.8 L 185.9 240.8 L 194.0 204.6 L 202.4 198.6 L 210.5 192.6 L 218.9 198.6 L 227.3 180.6 L 235.2 189.6 L 243.5 195.6 L 251.7 180.6 L 260.0 186.6 L 268.2 183.6 L 276.5 171.5 L 284.9 153.5 L 293.1 171.5 L 301.4 138.4 L 309.6 168.5 L 317.9 171.5 L 326.3 171.5 L 333.9 144.4 L 342.3 144.4 L 350.4 132.4 L 358.8 114.3 L 366.9 102.3 L 375.3 114.3 L 383.7 111.3 L 391.8 120.4 L 400.2 120.4 L 408.3 126.4 L 416.7 105.3 L 425.1 144.4 L 432.6 84.2 L 441.0 129.4 L 449.1 90.3 L 457.5 111.3 L 465.6 105.3 L 474.0 105.3 L 482.4 33.1 L 490.5 0 L 490.5 301 L 5.0 301" ></path><path fill="none" d="M 5.0 294.9 L 13.1 291.9 L 21.5 294.9 L 29.8 291.9 L 37.4 288.9 L 45.8 288.9 L 53.9 288.9 L 62.3 288.9 L 70.4 285.9 L 78.8 279.9 L 87.2 282.9 L 95.3 273.9 L 103.7 270.9 L 111.8 276.9 L 120.2 270.9 L 128.6 261.8 L 136.2 255.8 L 144.5 258.8 L 152.7 255.8 L 161.0 252.8 L 169.2 234.7 L 177.5 243.8 L 185.9 240.8 L 194.0 204.6 L 202.4 198.6 L 210.5 192.6 L 218.9 198.6 L 227.3 180.6 L 235.2 189.6 L 243.5 195.6 L 251.7 180.6 L 260.0 186.6 L 268.2 183.6 L 276.5 171.5 L 284.9 153.5 L 293.1 171.5 L 301.4 138.4 L 309.6 168.5 L 317.9 171.5 L 326.3 171.5 L 333.9 144.4 L 342.3 144.4 L 350.4 132.4 L 358.8 114.3 L 366.9 102.3 L 375.3 114.3 L 383.7 111.3 L 391.8 120.4 L 400.2 120.4 L 408.3 126.4 L 416.7 105.3 L 425.1 144.4 L 432.6 84.2 L 441.0 129.4 L 449.1 90.3 L 457.5 111.3 L 465.6 105.3 L 474.0 105.3 L 482.4 33.1 L 490.5 0" stroke="#434348" stroke-width="2"  stroke-linejoin="round" stroke-linecap="round"></path><path fill="none" d="M -4.9 294.9 L 5.0 294.9 L 13.1 291.9 L 21.5 294.9 L 29.8 291.9 L 37.4 288.9 L 45.8 288.9 L 53.9 288.9 L 62.3 288.9 L 70.4 285.9 L 78.8 279.9 L 87.2 282.9 L 95.3 273.9 L 103.7 270.9 L 111.8 276.9 L 120.2 270.9 L 128.6 261.8 L 136.2 255.8 L 144.5 258.8 L 152.7 255.8 L 161.0 252.8 L 169.2 234.7 L 177.5 243.8 L 185.9 240.8 L 194.0 204.6 L 202.4 198.6 L 210.5 192.6 L 218.9 198.6 L 227.3 180.6 L 235.2 189.6 L 243.5 195.6 L 251.7 180.6 L 260.0 186.6 L 268.2 183.6 L 276.5 171.5 L 284.9 153.5 L 293.1 171.5 L 301.4 138.4 L 309.6 168.5 L 317.9 171.5 L 326.3 171.5 L 333.9 144.4 L 342.3 144.4 L 350.4 132.4 L 358.8 114.3 L 366.9 102.3 L 375.3 114.3 L 383.7 111.3 L 391.8 120.4 L 400.2 120.4 L 408.3 126.4 L 416.7 105.3 L 425.1 144.4 L 432.6 84.2 L 441.0 129.4 L 449.1 90.3 L 457.5 111.3 L 465.6 105.3 L 474.0 105.3 L 482.4 33.1 L 490.5 0 L 500.5 0" stroke-linejoin="round" visibility="visible" stroke="rgb(192,192,192)" stroke-opacity="0.0" stroke-width="22"  class=" highcharts-tracker" style=""></path></g><g class="highcharts-markers highcharts-tracker" visibility="visible"  transform="translate(10,46) scale(1 1)" clip-path="url(#highcharts-2)" style=""></g><g class="highcharts-series" visibility="visible"  transform="translate(10,46) scale(1 1)" clip-path="url(#highcharts-3)"><path fill="rgb(144,237,125)" fill-opacity="0.5" d="M 5.0 288.9 L 108.8 288.9 108.8 276.9 L 144.5 276.9 144.5 264.8 L 177.5 264.8 177.5 252.8 L 181.3 252.8 181.3 240.8 L 260.0 240.8 260.0 228.7 L 284.9 228.7 284.9 240.8 L 288.7 240.8 288.7 228.7 L 317.9 228.7 317.9 216.7 L 375.3 216.7 375.3 204.6 L 380.4 204.6 380.4 192.6 L 391.8 192.6 391.8 180.6 L 490.5 180.6 490.5 168.5 L 505.9 168.5 505.9 168.5 L 505.9 301 L 5.0 301" ></path><path fill="none" d="M 5.0 288.9 L 108.8 288.9 108.8 276.9 L 144.5 276.9 144.5 264.8 L 177.5 264.8 177.5 252.8 L 181.3 252.8 181.3 240.8 L 260.0 240.8 260.0 228.7 L 284.9 228.7 284.9 240.8 L 288.7 240.8 288.7 228.7 L 317.9 228.7 317.9 216.7 L 375.3 216.7 375.3 204.6 L 380.4 204.6 380.4 192.6 L 391.8 192.6 391.8 180.6 L 490.5 180.6 490.5 168.5 L 505.9 168.5 505.9 168.5" stroke="#90ed7d" stroke-width="2"  stroke-linejoin="round" stroke-linecap="round"></path><path fill="none" d="M -4.9 288.9 L 5.0 288.9 L 108.8 288.9 108.8 276.9 L 144.5 276.9 144.5 264.8 L 177.5 264.8 177.5 252.8 L 181.3 252.8 181.3 240.8 L 260.0 240.8 260.0 228.7 L 284.9 228.7 284.9 240.8 L 288.7 240.8 288.7 228.7 L 317.9 228.7 317.9 216.7 L 375.3 216.7 375.3 204.6 L 380.4 204.6 380.4 192.6 L 391.8 192.6 391.8 180.6 L 490.5 180.6 490.5 168.5 L 505.9 168.5 505.9 168.5 L 515.9 168.5" stroke-linejoin="round" visibility="visible" stroke="rgb(192,192,192)" stroke-opacity="0.0" stroke-width="22"  class=" highcharts-tracker" style=""></path></g><g class="highcharts-markers highcharts-tracker" visibility="visible"  transform="translate(10,46) scale(1 1)" clip-path="url(#highcharts-2)" style=""></g><g class="highcharts-series" visibility="visible"  transform="translate(10,46) scale(1 1)" clip-path="url(#highcharts-1)"></g><g class="highcharts-markers highcharts-tracker" visibility="visible"  transform="translate(10,46) scale(1 1)" style=""><g style="text-align:center;" transform="translate(430,221)"><path fill="white" d="M -0.5 0.5 L 38.5 0.5 38.5 19.5 -0.5 19.5 Z M 18.5 19.5 L 18.5 80" stroke="#333333" stroke-width="1"></path><text x="1.5"  style="font-size:11px;font-weight:bold;" y="14">Cloud</text></g></g><g class="highcharts-series" visibility="visible"  transform="translate(10,46) scale(1 1)" clip-path="url(#highcharts-1)"></g><g class="highcharts-markers highcharts-tracker" visibility="visible"  transform="translate(10,46) scale(1 1)" style=""><g style="text-align:center;" transform="translate(443,246)"><path fill="white" d="M -0.5 0.5 L 35.5 0.5 35.5 19.5 -0.5 19.5 Z M 17.5 19.5 L 17.5 55" stroke="#333333" stroke-width="1"></path><text x="1.5"  style="font-size:11px;font-weight:bold;" y="14">Maps</text></g></g><g class="highcharts-series" visibility="visible"  transform="translate(10,46) scale(1 1)" clip-path="url(#highcharts-1)"></g><g class="highcharts-markers highcharts-tracker" visibility="visible"  transform="translate(10,46) scale(1 1)" style=""><g style="text-align:center;" transform="translate(436,271)"><path fill="white" d="M 11 0.5 C 26.3 0.5 26.3 19.5 11 19.5 C -4.3 19.5 -4.3 0.5 11 0.5 Z M 10.5 19.5 L 10.5 30" stroke="#333333" stroke-width="1"></path><text x="1.5"  style="font-size:11px;font-weight:bold;" y="14">4.0</text></g><g style="text-align:center;" transform="translate(329,271)"><path fill="white" d="M 11 0.5 C 26.3 0.5 26.3 19.5 11 19.5 C -4.3 19.5 -4.3 0.5 11 0.5 Z M 10.5 19.5 L 10.5 30" stroke="#333333" stroke-width="1"></path><text x="1.5"  style="font-size:11px;font-weight:bold;" y="14">3.0</text></g><g style="text-align:center;" transform="translate(272,271)"><path fill="white" d="M 11 0.5 C 26.3 0.5 26.3 19.5 11 19.5 C -4.3 19.5 -4.3 0.5 11 0.5 Z M 10.5 19.5 L 10.5 30" stroke="#333333" stroke-width="1"></path><text x="1.5"  style="font-size:11px;font-weight:bold;" y="14">2.3</text></g><g style="text-align:center;" transform="translate(181,271)"><path fill="white" d="M -0.5 0.5 L 36.5 0.5 36.5 19.5 -0.5 19.5 Z M 17.5 19.5 L 17.5 30" stroke="#333333" stroke-width="1"></path><text x="1.5"  style="font-size:11px;font-weight:bold;" y="14">Stock</text></g><g style="text-align:center;" transform="translate(99,271)"><path fill="white" d="M 11 0.5 C 26.3 0.5 26.3 19.5 11 19.5 C -4.3 19.5 -4.3 0.5 11 0.5 Z M 10.5 19.5 L 10.5 30" stroke="#333333" stroke-width="1"></path><text x="1.5"  style="font-size:11px;font-weight:bold;" y="14">2.1</text></g><g style="text-align:center;" transform="translate(63,271)"><path fill="white" d="M 11 0.5 C 26.3 0.5 26.3 19.5 11 19.5 C -4.3 19.5 -4.3 0.5 11 0.5 Z M 10.5 19.5 L 10.5 30" stroke="#333333" stroke-width="1"></path><text x="1.5"  style="font-size:11px;font-weight:bold;" y="14">2.0</text></g><g style="text-align:center;" transform="translate(1,271)"><path fill="white" d="M 11 0.5 C 26.3 0.5 26.3 19.5 11 19.5 C -4.3 19.5 -4.3 0.5 11 0.5 Z M 10.5 19.5 L 10.5 30" stroke="#333333" stroke-width="1"></path><text x="1.5"  style="font-size:11px;font-weight:bold;" y="14">1.0</text></g></g><g class="highcharts-series" visibility="visible"  transform="translate(10,46) scale(1 1)" clip-path="url(#highcharts-1)"></g><g class="highcharts-markers highcharts-tracker" visibility="visible"  transform="translate(10,46) scale(1 1)" style=""><g style="text-align:center;" transform="translate(455,77)"><path fill="rgb(255,255,255)" fill-opacity="0.8" d="M 0.5 29.6 L 0.5 19.5 0.5 0.5 42.5 0.5 42.5 19.5 0.5 19.5 Z" stroke="#333333" stroke-width="1"></path><text x="3"  style="font-size:11px;font-weight:bold;" y="14">Award</text></g><g style="text-align:center;" transform="translate(356,88)"><path fill="rgb(255,255,255)" fill-opacity="0.8" d="M 0.5 30.4 L 0.5 19.5 0.5 0.5 42.5 0.5 42.5 19.5 0.5 19.5 Z" stroke="#333333" stroke-width="1"></path><text x="3"  style="font-size:11px;font-weight:bold;" y="14">Award</text></g><g style="text-align:center;" transform="translate(315,141)"><path fill="rgb(255,255,255)" fill-opacity="0.8" d="M 0.5 29.8 L 0.5 19.5 0.5 0.5 63.5 0.5 63.5 19.5 0.5 19.5 Z" stroke="#333333" stroke-width="1"></path><text x="3"  style="font-size:11px;font-weight:bold;" y="14"><tspan>First book</tspan></text></g><g style="text-align:center;" transform="translate(300,108)"><path fill="rgb(255,255,255)" fill-opacity="0.8" d="M 0.5 30.4 L 0.5 19.5 0.5 0.5 42.5 0.5 42.5 19.5 0.5 19.5 Z" stroke="#333333" stroke-width="1"></path><text x="3"  style="font-size:11px;font-weight:bold;" y="14">Award</text></g></g></g><text x="292" text-anchor="middle" class="highcharts-title"  style="color:#333333;font-size:18px;fill:#333333;width:520px;" y="24"><tspan>Highcharts and Highsoft timeline</tspan></text><path fill="rgb(73,130,185)" fill-opacity="1" d="M 50 140 L 230 140 230 160 50 160 z M 50 150 L 30 150 40 160 30 170 60 170 50 160 60 170 60 160 50 160 z M 230 150 L 250 150 240 160 250 170 220 170 230 160 220 170 220 160 230 160 z" stroke="#FFFFFF" stroke-width="1" ></path><path fill="rgb(73,130,185)" fill-opacity="1" d="M 210 110 L 219.3 120.4 L 207.6 128.1 L 213.9 140.6 L 200.6 145 L 203.4 158.7 L 189.4 159.4 L 188.7 173.4 L 175 170.6 L 170.6 183.9 L 158.1 177.6 L 150.4 189.3 L 140 180 L 129.5 189.3 L 121.8 177.6 L 109.3 183.9 L 105 170.6 L 91.2 173.4 L 90.5 159.4 L 76.5 158.7 L 79.3 145.0 L 66.0 140.6 L 72.3 128.1 L 60.6 120.4 L 70 110.0 L 60.6 99.5 L 72.3 91.8 L 66.0 79.3 L 79.3 75.0 L 76.5 61.2 L 90.5 60.5 L 91.2 46.5 L 104.9 49.3 L 109.3 36.0 L 121.8 42.3 L 129.5 30.6 L 139.9 40 L 150.4 30.6 L 158.1 42.3 L 170.6 36.0 L 174.9 49.3 L 188.7 46.5 L 189.4 60.5 L 203.4 61.2 L 200.6 74.9 L 213.9 79.3 L 207.6 91.8 L 219.3 99.5 L 210 109.9 z" ></path><text x="118.6"  style="color:white;font-size:100px;font-style:italic;font-family:'brush script mt', sans-serif;fill:white;" y="124">5</text><text x="72.5"  style="color:#ffffff;fill:#ffffff;" y="154"><tspan>Highcharts Anniversary</tspan></text><text x="111.8"  style="color:#ffffff;font-style:italic;font-size:10px;fill:#ffffff;" y="172">2009-2014</text><g class="highcharts-legend"  transform="translate(55,380)"><g ><g><g class="highcharts-legend-item"  transform="translate(8,3)"><path fill="none" d="M 0 11 L 16 11" stroke-dasharray="8,6" stroke="#7cb5ec" stroke-width="2"></path><text x="21" style="color:#333333;font-size:12px;font-weight:bold;cursor:pointer;fill:#333333;" text-anchor="start"  y="15"><tspan>Google search for </tspan><tspan style="font-style:italic" dx="0">highcharts</tspan></text></g><g class="highcharts-legend-item"  transform="translate(228.5,3)"><text x="21" y="15" style="color:#333333;font-size:12px;font-weight:bold;cursor:pointer;fill:#333333;" text-anchor="start" >Revenue</text><rect x="0" y="4" width="16" height="12"  fill="#434348"></rect></g><g class="highcharts-legend-item"  transform="translate(321.7,3)"><text x="21" y="15" style="color:#333333;font-size:12px;font-weight:bold;cursor:pointer;fill:#333333;" text-anchor="start" ><tspan>Highsoft employees</tspan></text><rect x="0" y="4" width="16" height="12"  fill="#90ed7d"></rect></g></g></g></g><g class="highcharts-axis-labels highcharts-xaxis-labels" ><text x="31.5" style="color:#606060;cursor:default;font-size:11px;fill:#606060;width:118px;text-overflow:clip;" text-anchor="start" transform="translate(0,0)" y="366" opacity="1">2010</text><text x="130.2" style="color:#606060;cursor:default;font-size:11px;fill:#606060;width:118px;text-overflow:clip;" text-anchor="start" transform="translate(0,0)" y="366" opacity="1">2011</text><text x="228.9" style="color:#606060;cursor:default;font-size:11px;fill:#606060;width:118px;text-overflow:clip;" text-anchor="start" transform="translate(0,0)" y="366" opacity="1">2012</text><text x="327.9" style="color:#606060;cursor:default;font-size:11px;fill:#606060;width:118px;text-overflow:clip;" text-anchor="start" transform="translate(0,0)" y="366" opacity="1">2013</text><text x="426.7" style="color:#606060;cursor:default;font-size:11px;fill:#606060;width:118px;text-overflow:clip;" text-anchor="start" transform="translate(0,0)" y="366" opacity="1">2014</text></g><g class="highcharts-axis-labels highcharts-yaxis-labels" ></g><g class="highcharts-axis-labels highcharts-yaxis-labels" ><text x="536" style="color:#90ed7d;cursor:default;font-size:11px;fill:#90ed7d;width:183px;text-overflow:clip;" text-anchor="start" transform="translate(0,0)" y="352" opacity="1">0</text><text x="536" style="color:#90ed7d;cursor:default;font-size:11px;fill:#90ed7d;width:183px;text-overflow:clip;" text-anchor="start" transform="translate(0,0)" y="291" opacity="1">5</text><text x="536" style="color:#90ed7d;cursor:default;font-size:11px;fill:#90ed7d;width:183px;text-overflow:clip;" text-anchor="start" transform="translate(0,0)" y="231" opacity="1">10</text><text x="536" style="color:#90ed7d;cursor:default;font-size:11px;fill:#90ed7d;width:183px;text-overflow:clip;" text-anchor="start" transform="translate(0,0)" y="171" opacity="1">15</text><text x="536" style="color:#90ed7d;cursor:default;font-size:11px;fill:#90ed7d;width:183px;text-overflow:clip;" text-anchor="start" transform="translate(0,0)" y="111" opacity="1">20</text><text x="536" style="color:#90ed7d;cursor:default;font-size:11px;fill:#90ed7d;width:183px;text-overflow:clip;" text-anchor="start" transform="translate(0,0)" y="51" opacity="1">25</text></g><path fill="none" d="M 210 110 L 219.3 120.4 L 207.6 128.1 L 213.9 140.6 L 200.6 145 L 203.4 158.7 L 189.4 159.4 L 188.7 173.4 L 175 170.6 L 170.6 183.9 L 158.1 177.6 L 150.4 189.3 L 140 180 L 129.5 189.3 L 121.8 177.6 L 109.3 183.9 L 105 170.6 L 91.2 173.4 L 90.5 159.4 L 76.5 158.7 L 79.3 145.0 L 66.0 140.6 L 72.3 128.1 L 60.6 120.4 L 70 110.0 L 60.6 99.5 L 72.3 91.8 L 66.0 79.3 L 79.3 75.0 L 76.5 61.2 L 90.5 60.5 L 91.2 46.5 L 104.9 49.3 L 109.3 36.0 L 121.8 42.3 L 129.5 30.6 L 139.9 40 L 150.4 30.6 L 158.1 42.3 L 170.6 36.0 L 174.9 49.3 L 188.7 46.5 L 189.4 60.5 L 203.4 61.2 L 200.6 74.9 L 213.9 79.3 L 207.6 91.8 L 219.3 99.5 L 210 109.9 z"  opacity="0" stroke="rgb(73,130,185)" stroke-opacity="1" stroke-width="1"></path><g class="highcharts-tooltip"  style="cursor:default;padding:0;white-space:nowrap;" transform="translate(0,-9999)"><path fill="none" d="M 3.5 0.5 L 13.5 0.5 C 16.5 0.5 16.5 0.5 16.5 3.5 L 16.5 13.5 C 16.5 16.5 16.5 16.5 13.5 16.5 L 3.5 16.5 C 0.5 16.5 0.5 16.5 0.5 13.5 L 0.5 3.5 C 0.5 0.5 0.5 0.5 3.5 0.5"  stroke="black" stroke-opacity="0.0" stroke-width="5" transform="translate(1, 1)"></path><path fill="none" d="M 3.5 0.5 L 13.5 0.5 C 16.5 0.5 16.5 0.5 16.5 3.5 L 16.5 13.5 C 16.5 16.5 16.5 16.5 13.5 16.5 L 3.5 16.5 C 0.5 16.5 0.5 16.5 0.5 13.5 L 0.5 3.5 C 0.5 0.5 0.5 0.5 3.5 0.5"  stroke="black" stroke-opacity="0.0" stroke-width="3" transform="translate(1, 1)"></path><path fill="none" d="M 3.5 0.5 L 13.5 0.5 C 16.5 0.5 16.5 0.5 16.5 3.5 L 16.5 13.5 C 16.5 16.5 16.5 16.5 13.5 16.5 L 3.5 16.5 C 0.5 16.5 0.5 16.5 0.5 13.5 L 0.5 3.5 C 0.5 0.5 0.5 0.5 3.5 0.5"  stroke="black" stroke-opacity="0.1" stroke-width="1" transform="translate(1, 1)"></path><path fill="rgb(249, 249, 249)" fill-opacity=" .85" d="M 3.5 0.5 L 13.5 0.5 C 16.5 0.5 16.5 0.5 16.5 3.5 L 16.5 13.5 C 16.5 16.5 16.5 16.5 13.5 16.5 L 3.5 16.5 C 0.5 16.5 0.5 16.5 0.5 13.5 L 0.5 3.5 C 0.5 0.5 0.5 0.5 3.5 0.5"></path><text x="8"  style="font-size:12px;color:#333333;width:250px;fill:#333333;" y="20"></text></g></svg>