<svg version="1.1" style="font-family:&quot;lucida grande&quot;, &quot;lucida sans unicode&quot;, arial, helvetica, sans-serif;font-size:12px;" xmlns="http://www.w3.org/2000/svg" width="584" height="400" viewBox="0 0 584 400"><desc>Created with Highcharts 4.1.7</desc><defs><clipPath id="highcharts-1"><rect x="0" y="0" width="494" height="318"></rect></clipPath><clipPath id="highcharts-2"><rect x="-99" y="-46" width="593" height="400"></rect></clipPath><clipPath id="highcharts-3"><rect x="0" y="0" width="494" height="318"></rect></clipPath></defs><rect x="0" y="0" width="584" height="400" strokeWidth="0" fill="#FFFFFF" class=" highcharts-background"></rect><path fill="none" d="M 80 311.5 L 574 311.5" stroke="#808080" stroke-width="1"></path><g class="highcharts-grid" ></g><g class="highcharts-grid" ><path fill="none" d="M 80 364.5 L 574 364.5" stroke="#D8D8D8" stroke-width="1"  opacity="1"></path><path fill="none" d="M 80 311.5 L 574 311.5" stroke="#D8D8D8" stroke-width="1"  opacity="1"></path><path fill="none" d="M 80 258.5 L 574 258.5" stroke="#D8D8D8" stroke-width="1"  opacity="1"></path><path fill="none" d="M 80 205.5 L 574 205.5" stroke="#D8D8D8" stroke-width="1"  opacity="1"></path><path fill="none" d="M 80 152.5 L 574 152.5" stroke="#D8D8D8" stroke-width="1"  opacity="1"></path><path fill="none" d="M 80 99.5 L 574 99.5" stroke="#D8D8D8" stroke-width="1"  opacity="1"></path><path fill="none" d="M 80 45.5 L 574 45.5" stroke="#D8D8D8" stroke-width="1"  opacity="1"></path></g><g class="highcharts-axis" ><path fill="none" d="M 171.5 364 L 171.5 374" stroke="#C0D0E0" stroke-width="1" opacity="1"></path><path fill="none" d="M 299.5 364 L 299.5 374" stroke="#C0D0E0" stroke-width="1" opacity="1"></path><path fill="none" d="M 426.5 364 L 426.5 374" stroke="#C0D0E0" stroke-width="1" opacity="1"></path><path fill="none" d="M 554.5 364 L 554.5 374" stroke="#C0D0E0" stroke-width="1" opacity="1"></path><path fill="none" d="M 80 364.5 L 574 364.5" stroke="#C0D0E0" stroke-width="1"  visibility="visible"></path></g><g class="highcharts-axis" ><text x="24.3"  text-anchor="middle" transform="translate(0,0) rotate(270 24.3 205)" class=" highcharts-yaxis-title" style="color:#707070;fill:#707070;" visibility="visible" y="205">Value</text></g><g class="highcharts-series-group" ><g class="highcharts-series" visibility="visible"  transform="translate(80,46) scale(1 1)" clip-path="url(#highcharts-3)"><path fill="none" d="M 4.8 172.8 C 4.8 172.8 20.1 89.8 30.3 72.7 C 40.5 55.7 45.6 55.7 55.8 55.7 C 66.0 55.7 71.1 149.8 81.3 182.3 C 91.5 214.7 96.6 218.0 106.8 218.0 C 117 218.0 122.0 127.5 132.2 127.5 C 142.4 127.5 147.5 236.3 157.7 236.3 C 167.9 236.3 173.0 173.4 183.2 149.7 C 193.4 126.0 198.5 117.8 208.7 117.8 C 218.9 117.8 224.0 127.1 234.2 154.0 C 244.4 180.9 249.5 252.4 259.7 252.4 C 269.9 252.4 275.0 90.7 285.2 90.7 C 295.4 90.7 300.5 104.5 310.7 104.5 C 320.9 104.5 326.0 59.8 336.2 59.8 C 346.4 59.8 351.5 261.8 361.7 261.8 C 371.9 261.8 377 192.8 387.1 166.6 C 397.3 140.3 402.4 130.6 412.6 130.6 C 422.8 130.6 427.9 247.7 438.1 247.7 C 448.3 247.7 453.4 195.4 463.6 156.6 C 473.8 117.8 489.1 53.8 489.1 53.8" stroke="#7cb5ec" stroke-width="2"  stroke-linejoin="round" stroke-linecap="round"></path><path fill="none" d="M -5.1 172.8 L 4.8 172.8 C 4.8 172.8 20.1 89.8 30.3 72.7 C 40.5 55.7 45.6 55.7 55.8 55.7 C 66.0 55.7 71.1 149.8 81.3 182.3 C 91.5 214.7 96.6 218.0 106.8 218.0 C 117 218.0 122.0 127.5 132.2 127.5 C 142.4 127.5 147.5 236.3 157.7 236.3 C 167.9 236.3 173.0 173.4 183.2 149.7 C 193.4 126.0 198.5 117.8 208.7 117.8 C 218.9 117.8 224.0 127.1 234.2 154.0 C 244.4 180.9 249.5 252.4 259.7 252.4 C 269.9 252.4 275.0 90.7 285.2 90.7 C 295.4 90.7 300.5 104.5 310.7 104.5 C 320.9 104.5 326.0 59.8 336.2 59.8 C 346.4 59.8 351.5 261.8 361.7 261.8 C 371.9 261.8 377 192.8 387.1 166.6 C 397.3 140.3 402.4 130.6 412.6 130.6 C 422.8 130.6 427.9 247.7 438.1 247.7 C 448.3 247.7 453.4 195.4 463.6 156.6 C 473.8 117.8 489.1 53.8 489.1 53.8 L 499.1 53.8" stroke-linejoin="round" visibility="visible" stroke="rgb(192,192,192)" stroke-opacity="0.0" stroke-width="22"  class=" highcharts-tracker" style=""></path></g><g class="highcharts-markers highcharts-tracker" visibility="visible"  transform="translate(80,46) scale(1 1)" clip-path="url(#highcharts-2)" style=""><path fill="#7cb5ec" d="M 489 49.8 C 494.3 49.8 494.3 57.8 489 57.8 C 483.6 57.8 483.6 49.8 489 49.8 Z"></path><path fill="#7cb5ec" d="M 463 152.6 C 468.3 152.6 468.3 160.6 463 160.6 C 457.6 160.6 457.6 152.6 463 152.6 Z"></path><path fill="#7cb5ec" d="M 438 243.7 C 443.3 243.7 443.3 251.7 438 251.7 C 432.6 251.7 432.6 243.7 438 243.7 Z"></path><path fill="#7cb5ec" d="M 412 126.6 C 417.3 126.6 417.3 134.6 412 134.6 C 406.6 134.6 406.6 126.6 412 126.6 Z"></path><path fill="#7cb5ec" d="M 387 162.6 C 392.3 162.6 392.3 170.6 387 170.6 C 381.6 170.6 381.6 162.6 387 162.6 Z"></path><path fill="#7cb5ec" d="M 361 257.8 C 366.3 257.8 366.3 265.8 361 265.8 C 355.6 265.8 355.6 257.8 361 257.8 Z"></path><path fill="#7cb5ec" d="M 336 55.8 C 341.3 55.8 341.3 63.8 336 63.8 C 330.6 63.8 330.6 55.8 336 55.8 Z"></path><path fill="#7cb5ec" d="M 310 100.5 C 315.3 100.5 315.3 108.5 310 108.5 C 304.6 108.5 304.6 100.5 310 100.5 Z"></path><path fill="#7cb5ec" d="M 285 86.7 C 290.3 86.7 290.3 94.7 285 94.7 C 279.6 94.7 279.6 86.7 285 86.7 Z"></path><path fill="#7cb5ec" d="M 259 248.4 C 264.3 248.4 264.3 256.4 259 256.4 C 253.6 256.4 253.6 248.4 259 248.4 Z"></path><path fill="#7cb5ec" d="M 234 150.0 C 239.3 150.0 239.3 158.0 234 158.0 C 228.6 158.0 228.6 150.0 234 150.0 Z"></path><path fill="#7cb5ec" d="M 208 113.8 C 213.3 113.8 213.3 121.8 208 121.8 C 202.6 121.8 202.6 113.8 208 113.8 Z"></path><path fill="#7cb5ec" d="M 183 145.7 C 188.3 145.7 188.3 153.7 183 153.7 C 177.6 153.7 177.6 145.7 183 145.7 Z"></path><path fill="#7cb5ec" d="M 157 232.3 C 162.3 232.3 162.3 240.3 157 240.3 C 151.6 240.3 151.6 232.3 157 232.3 Z"></path><path fill="#7cb5ec" d="M 132 123.5 C 137.3 123.5 137.3 131.5 132 131.5 C 126.6 131.5 126.6 123.5 132 123.5 Z"></path><path fill="#7cb5ec" d="M 106 214.0 C 111.3 214.0 111.3 222.0 106 222.0 C 100.6 222.0 100.6 214.0 106 214.0 Z"></path><path fill="#7cb5ec" d="M 81 178.3 C 86.3 178.3 86.3 186.3 81 186.3 C 75.6 186.3 75.6 178.3 81 178.3 Z"></path><path fill="#7cb5ec" d="M 55 51.7 C 60.3 51.7 60.3 59.7 55 59.7 C 49.6 59.7 49.6 51.7 55 51.7 Z"></path><path fill="#7cb5ec" d="M 30 68.7 C 35.3 68.7 35.3 76.7 30 76.7 C 24.6 76.7 24.6 68.7 30 68.7 Z"></path><path fill="#7cb5ec" d="M 4 168.8 C 9.3 168.8 9.3 176.8 4 176.8 C -1.3 176.8 -1.3 168.8 4 168.8 Z"></path></g></g><text x="292" text-anchor="middle" class="highcharts-title"  style="color:#333333;font-size:18px;fill:#333333;width:520px;" y="24"><tspan>Live random data</tspan></text><g class="highcharts-axis-labels highcharts-xaxis-labels" ><text x="172.3" style="color:#606060;cursor:default;font-size:11px;fill:#606060;width:155px;text-overflow:clip;" text-anchor="middle" transform="translate(0,0)" y="383" opacity="1">11:55:15</text><text x="299.7" style="color:#606060;cursor:default;font-size:11px;fill:#606060;width:155px;text-overflow:clip;" text-anchor="middle" transform="translate(0,0)" y="383" opacity="1">11:55:20</text><text x="427.2" style="color:#606060;cursor:default;font-size:11px;fill:#606060;width:155px;text-overflow:clip;" text-anchor="middle" transform="translate(0,0)" y="383" opacity="1">11:55:25</text><text x="549.6" style="color:#606060;cursor:default;font-size:11px;fill:#606060;width:155px;text-overflow:clip;" text-anchor="middle" transform="translate(0,0)" y="383" opacity="1">11:55:30</text></g><g class="highcharts-axis-labels highcharts-yaxis-labels" ><text x="65" style="color:#606060;cursor:default;font-size:11px;fill:#606060;width:183px;text-overflow:clip;" text-anchor="end" transform="translate(0,0)" y="369" opacity="1">-0.2</text><text x="65" style="color:#606060;cursor:default;font-size:11px;fill:#606060;width:183px;text-overflow:clip;" text-anchor="end" transform="translate(0,0)" y="316" opacity="1">0</text><text x="65" style="color:#606060;cursor:default;font-size:11px;fill:#606060;width:183px;text-overflow:clip;" text-anchor="end" transform="translate(0,0)" y="263" opacity="1">0.2</text><text x="65" style="color:#606060;cursor:default;font-size:11px;fill:#606060;width:183px;text-overflow:clip;" text-anchor="end" transform="translate(0,0)" y="210" opacity="1">0.5</text><text x="65" style="color:#606060;cursor:default;font-size:11px;fill:#606060;width:183px;text-overflow:clip;" text-anchor="end" transform="translate(0,0)" y="157" opacity="1">0.7</text><text x="65" style="color:#606060;cursor:default;font-size:11px;fill:#606060;width:183px;text-overflow:clip;" text-anchor="end" transform="translate(0,0)" y="104" opacity="1">1</text><text x="65" style="color:#606060;cursor:default;font-size:11px;fill:#606060;width:183px;text-overflow:clip;" text-anchor="end" transform="translate(0,0)" y="51" opacity="1">1.2</text></g><g class="highcharts-tooltip"  style="cursor:default;padding:0;white-space:nowrap;" transform="translate(0,-9999)"><path fill="none" d="M 3.5 0.5 L 13.5 0.5 C 16.5 0.5 16.5 0.5 16.5 3.5 L 16.5 13.5 C 16.5 16.5 16.5 16.5 13.5 16.5 L 3.5 16.5 C 0.5 16.5 0.5 16.5 0.5 13.5 L 0.5 3.5 C 0.5 0.5 0.5 0.5 3.5 0.5"  stroke="black" stroke-opacity="0.0" stroke-width="5" transform="translate(1, 1)"></path><path fill="none" d="M 3.5 0.5 L 13.5 0.5 C 16.5 0.5 16.5 0.5 16.5 3.5 L 16.5 13.5 C 16.5 16.5 16.5 16.5 13.5 16.5 L 3.5 16.5 C 0.5 16.5 0.5 16.5 0.5 13.5 L 0.5 3.5 C 0.5 0.5 0.5 0.5 3.5 0.5"  stroke="black" stroke-opacity="0.0" stroke-width="3" transform="translate(1, 1)"></path><path fill="none" d="M 3.5 0.5 L 13.5 0.5 C 16.5 0.5 16.5 0.5 16.5 3.5 L 16.5 13.5 C 16.5 16.5 16.5 16.5 13.5 16.5 L 3.5 16.5 C 0.5 16.5 0.5 16.5 0.5 13.5 L 0.5 3.5 C 0.5 0.5 0.5 0.5 3.5 0.5"  stroke="black" stroke-opacity="0.1" stroke-width="1" transform="translate(1, 1)"></path><path fill="rgb(249, 249, 249)" fill-opacity=" .85" d="M 3.5 0.5 L 13.5 0.5 C 16.5 0.5 16.5 0.5 16.5 3.5 L 16.5 13.5 C 16.5 16.5 16.5 16.5 13.5 16.5 L 3.5 16.5 C 0.5 16.5 0.5 16.5 0.5 13.5 L 0.5 3.5 C 0.5 0.5 0.5 0.5 3.5 0.5"></path><text x="8"  style="font-size:12px;color:#333333;fill:#333333;" y="20"></text></g></svg>