<svg version="1.1" style="font-family:&quot;lucida grande&quot;, &quot;lucida sans unicode&quot;, arial, helvetica, sans-serif;font-size:12px;position:absolute;" xmlns="http://www.w3.org/2000/svg" width="584" height="400" viewBox="0 0 584 400"><desc>Created with Highcharts 4.1.7</desc><defs><clipPath id="highcharts-6"><rect x="0" y="0" width="514" height="219"></rect></clipPath><clipPath id="highcharts-7"><rect x="-99" y="-61" width="613" height="400"></rect></clipPath><clipPath id="highcharts-8"><rect x="0" y="0" width="514" height="219"></rect></clipPath></defs><rect x="0" y="0" width="584" height="400" strokeWidth="0" fill="#FFFFFF" class=" highcharts-background"></rect><g class="highcharts-grid" ></g><g class="highcharts-grid" ><path fill="none" d="M 50 280.5 L 564 280.5" stroke="#D8D8D8" stroke-width="1"  opacity="1"></path><path fill="none" d="M 50 207.5 L 564 207.5" stroke="#D8D8D8" stroke-width="1"  opacity="1"></path><path fill="none" d="M 50 134.5 L 564 134.5" stroke="#D8D8D8" stroke-width="1"  opacity="1"></path><path fill="none" d="M 50 60.5 L 564 60.5" stroke="#D8D8D8" stroke-width="1"  opacity="1"></path></g><g class="highcharts-axis" ><path fill="none" d="M 125.5 280 L 125.5 290" stroke="#C0D0E0" stroke-width="1" opacity="1"></path><path fill="none" d="M 219.5 280 L 219.5 290" stroke="#C0D0E0" stroke-width="1" opacity="1"></path><path fill="none" d="M 312.5 280 L 312.5 290" stroke="#C0D0E0" stroke-width="1" opacity="1"></path><path fill="none" d="M 408.5 280 L 408.5 290" stroke="#C0D0E0" stroke-width="1" opacity="1"></path><path fill="none" d="M 502.5 280 L 502.5 290" stroke="#C0D0E0" stroke-width="1" opacity="1"></path><path fill="none" d="M 50 280.5 L 564 280.5" stroke="#C0D0E0" stroke-width="1"  visibility="visible"></path></g><g class="highcharts-axis" ></g><g class="highcharts-series-group" ><g class="highcharts-series" visibility="visible"  transform="translate(50,61) scale(1 1)" clip-path="url(#highcharts-8)"><path fill="none" d="M 5.0 168.2 L 5.8 171.6 L 6.5 171.9 L 7.3 172.4 L 8.1 178.9 L 8.9 177.9 L 9.6 177.0 L 10.4 179.3 L 11.2 181.7 L 12.0 182.6 L 12.7 184.1 L 13.5 183.0 L 14.3 183.4 L 15.1 183.9 L 15.8 184.9 L 16.6 180.9 L 17.4 177.8 L 18.2 173.6 L 18.9 173.0 L 19.7 173.5 L 20.5 171.9 L 21.3 168.9 L 22.0 170.0 L 22.8 168.8 L 23.6 168.8 L 24.4 171.2 L 25.1 167.5 L 25.9 168.8 L 26.7 164.6 L 27.5 161.1 L 28.2 160.3 L 29.0 162.7 L 29.8 158.8 L 30.6 167.5 L 31.3 172.6 L 32.1 171.4 L 32.9 171.1 L 33.7 171.1 L 34.4 175.3 L 35.2 173.8 L 36.0 173.1 L 36.8 174.5 L 37.6 175.2 L 38.3 176.3 L 39.1 177.9 L 39.9 177.0 L 40.7 180.2 L 41.4 180.3 L 42.2 180.6 L 43.0 179.5 L 43.8 179.5 L 44.5 181.1 L 45.3 177.3 L 46.1 180.3 L 46.9 180.1 L 47.6 179.4 L 48.4 181.4 L 49.2 182.6 L 50.0 184.4 L 50.7 182.9 L 51.5 182.7 L 52.3 181.1 L 53.1 179.5 L 53.8 179.3 L 54.6 183.0 L 55.4 182.3 L 56.2 182.2 L 56.9 182.5 L 57.7 185.9 L 58.5 183.4 L 59.3 183.4 L 60.0 184.5 L 60.8 184.6 L 61.6 183.9 L 62.4 184.9 L 63.1 182.7 L 63.9 178.7 L 64.7 177.9 L 65.5 177.2 L 66.2 176.5 L 67.0 175.7 L 67.8 177.3 L 68.6 173.5 L 69.3 176.0 L 70.1 175.8 L 70.9 179.2 L 71.7 179.7 L 72.4 181.6 L 73.2 181.1 L 74.0 180.8 L 74.8 183.5 L 75.5 182.4 L 76.3 183.5 L 77.1 190.0 L 77.9 190.4 L 78.6 190.2 L 79.4 190.6 L 80.2 188.9 L 81.0 188.1 L 81.7 190.3 L 82.5 188.8 L 83.3 190.0 L 84.1 189.0 L 84.8 190.3 L 85.6 190.3 L 86.4 192.3 L 87.2 193.9 L 87.9 191.5 L 88.7 191.9 L 89.5 192.5 L 90.3 192.1 L 91.0 190.3 L 91.8 190.0 L 92.6 190.8 L 93.4 191.4 L 94.1 191.6 L 94.9 190.1 L 95.7 190.6 L 96.5 196.2 L 97.2 196.5 L 98.0 196.4 L 98.8 196.5 L 99.6 200.3 L 100.3 200.1 L 101.1 200.9 L 101.9 201.1 L 102.7 201.1 L 103.4 200.3 L 104.2 198.9 L 105.0 198.5 L 105.8 192.6 L 106.5 188.7 L 107.3 188.9 L 108.1 189.8 L 108.9 188.2 L 109.6 189.7 L 110.4 186.0 L 111.2 184.0 L 112.0 183.0 L 112.8 185.4 L 113.5 186.7 L 114.3 188.7 L 115.1 187.6 L 115.9 189.0 L 116.6 188.5 L 117.4 189.4 L 118.2 190.8 L 119.0 186.8 L 119.7 188.4 L 120.5 191.5 L 121.3 191.3 L 122.1 189.8 L 122.8 192.0 L 123.6 192.3 L 124.4 193.4 L 125.2 192.8 L 125.9 192.5 L 126.7 190.8 L 127.5 192.7 L 128.3 192.9 L 129.0 195.8 L 129.8 197.3 L 130.6 197.3 L 131.4 198.6 L 132.1 199.5 L 132.9 200.4 L 133.7 199.2 L 134.5 198.8 L 135.2 198.7 L 136.0 199.5 L 136.8 199.8 L 137.6 196.5 L 138.3 195.7 L 139.1 196.0 L 139.9 196.2 L 140.7 197.0 L 141.4 196.5 L 142.2 196.3 L 143.0 196.8 L 143.8 198.7 L 144.5 199.1 L 145.3 201.1 L 146.1 198.9 L 146.9 199.2 L 147.6 196.0 L 148.4 192.7 L 149.2 193.0 L 150.0 194.3 L 150.7 193.8 L 151.5 192.2 L 152.3 193.5 L 153.1 195.9 L 153.8 196.0 L 154.6 196.0 L 155.4 196.3 L 156.2 193.4 L 156.9 194.1 L 157.7 190.8 L 158.5 190.3 L 159.3 191.3 L 160.0 191.7 L 160.8 191.1 L 161.6 197.0 L 162.4 196.2 L 163.1 196.6 L 163.9 196.0 L 164.7 195.9 L 165.5 195.7 L 166.2 191.4 L 167.0 188.7 L 167.8 188.7 L 168.6 190.3 L 169.3 190.0 L 170.1 190.6 L 170.9 192.8 L 171.7 194.6 L 172.4 193.9 L 173.2 195.0 L 174.0 194.7 L 174.8 193.0 L 175.5 196.4 L 176.3 196.8 L 177.1 197.1 L 177.9 197.4 L 178.6 199.4 L 179.4 198.4 L 180.2 197.9 L 181.0 198.7 L 181.7 198.5 L 182.5 198.5 L 183.3 198.9 L 184.1 196.6 L 184.9 197.4 L 185.6 201.1 L 186.4 200.0 L 187.2 198.5 L 188.0 198.8 L 188.7 198.4 L 189.5 203.3 L 190.3 203.9 L 191.1 203.9 L 191.8 203.8 L 192.6 203.2 L 193.4 204.9 L 194.2 203.6 L 194.9 205.3 L 195.7 205.2 L 196.5 205.6 L 197.3 206.0 L 198.0 202.2 L 198.8 200.1 L 199.6 200.8 L 200.4 200.9 L 201.1 202.5 L 201.9 202.0 L 202.7 200.3 L 203.5 198.7 L 204.2 199.2 L 205.0 199.1 L 205.8 199.9 L 206.6 200.7 L 207.3 199.7 L 208.1 197.9 L 208.9 197.2 L 209.7 197.2 L 210.4 198.7 L 211.2 200.8 L 212.0 203.0 L 212.8 204.3 L 213.5 204.2 L 214.3 202.7 L 215.1 201.7 L 215.9 201.5 L 216.6 201.6 L 217.4 201.6 L 218.2 201.6 L 219.0 201.5 L 219.7 200.7 L 220.5 201.1 L 221.3 201.6 L 222.1 202.2 L 222.8 202.2 L 223.6 202.5 L 224.4 202.9 L 225.2 201.4 L 225.9 203.5 L 226.7 203.6 L 227.5 203.7 L 228.3 203.7 L 229.0 203.8 L 229.8 205.8 L 230.6 205.2 L 231.4 202.5 L 232.1 199.4 L 232.9 199.5 L 233.7 199.3 L 234.5 197.3 L 235.2 197.7 L 236.0 197.5 L 236.8 196.9 L 237.6 197.2 L 238.3 197.4 L 239.1 197.2 L 239.9 196.5 L 240.7 195.4 L 241.4 194.5 L 242.2 194.3 L 243.0 194.9 L 243.8 194.5 L 244.5 192.8 L 245.3 193.3 L 246.1 194.3 L 246.9 194.3 L 247.6 193.0 L 248.4 194.3 L 249.2 193.2 L 250.0 195.5 L 250.7 194.9 L 251.5 195.1 L 252.3 193.0 L 253.1 191.1 L 253.8 190.6 L 254.6 191.3 L 255.4 190.9 L 256.2 190.6 L 257 192.2 L 257.7 191.1 L 258.5 193.0 L 259.3 193.5 L 260.1 193.2 L 260.8 192.9 L 261.6 193.4 L 262.4 193.4 L 263.2 194.3 L 263.9 193.6 L 264.7 195.1 L 265.5 194.9 L 266.3 196.8 L 267.0 196.3 L 267.8 195.6 L 268.6 193.6 L 269.4 193.0 L 270.1 192.7 L 270.9 193.4 L 271.7 193.7 L 272.5 194.9 L 273.2 193.5 L 274.0 193.5 L 274.8 193.3 L 275.6 194.0 L 276.3 192.0 L 277.1 190.3 L 277.9 190.3 L 278.7 190.2 L 279.4 190.5 L 280.2 190.1 L 281.0 187.8 L 281.8 187.8 L 282.5 187.7 L 283.3 186.4 L 284.1 186.3 L 284.9 186.8 L 285.6 185.5 L 286.4 185.1 L 287.2 184.7 L 288.0 186.4 L 288.7 186.3 L 289.5 186.1 L 290.3 184.1 L 291.1 184.5 L 291.8 183.7 L 292.6 185.6 L 293.4 185.4 L 294.2 184.6 L 294.9 183.9 L 295.7 183.8 L 296.5 183.8 L 297.3 185.2 L 298.0 184.7 L 298.8 183.7 L 299.6 181.9 L 300.4 179.5 L 301.1 180.3 L 301.9 178.7 L 302.7 176.8 L 303.5 176.6 L 304.2 175.7 L 305.0 176.6 L 305.8 176.2 L 306.6 174.1 L 307.3 173.8 L 308.1 173.8 L 308.9 174.1 L 309.7 174.9 L 310.4 166.0 L 311.2 166.2 L 312.0 166.3 L 312.8 164.0 L 313.5 165.7 L 314.3 164.8 L 315.1 165.2 L 315.9 166.9 L 316.6 166.6 L 317.4 165.9 L 318.2 166.7 L 319.0 162.6 L 319.7 165.0 L 320.5 161.0 L 321.3 161.4 L 322.1 161.9 L 322.8 161.7 L 323.6 158.8 L 324.4 157.4 L 325.2 154.4 L 325.9 153.9 L 326.7 154.5 L 327.5 152.1 L 328.3 151.6 L 329.0 153.8 L 329.8 146.8 L 330.6 146.5 L 331.4 153.0 L 332.2 153.8 L 332.9 156.7 L 333.7 154.7 L 334.5 151.9 L 335.3 152.4 L 336.0 157.5 L 336.8 153.2 L 337.6 161.3 L 338.4 160.1 L 339.1 158.0 L 339.9 157.3 L 340.7 159.6 L 341.5 155.9 L 342.2 152.9 L 343.0 152.7 L 343.8 153.8 L 344.6 154.1 L 345.3 155.1 L 346.1 156.7 L 346.9 152.1 L 347.7 151.1 L 348.4 147.1 L 349.2 146.0 L 350.0 145.1 L 350.8 148.1 L 351.5 145.3 L 352.3 140.0 L 353.1 143.8 L 353.9 144.1 L 354.6 142.2 L 355.4 144.8 L 356.2 143.0 L 357.0 144.9 L 357.7 147.0 L 358.5 146.8 L 359.3 143.6 L 360.1 147.7 L 360.8 148.5 L 361.6 147.8 L 362.4 140.8 L 363.2 140.0 L 363.9 143.2 L 364.7 144.8 L 365.5 146.2 L 366.3 144.3 L 367.0 143.7 L 367.8 143.0 L 368.6 144.5 L 369.4 140.5 L 370.1 137.0 L 370.9 140.3 L 371.7 135.8 L 372.5 136.1 L 373.2 137.3 L 374.0 140.0 L 374.8 143.5 L 375.6 141.8 L 376.3 144.2 L 377.1 144.2 L 377.9 143.0 L 378.7 146.5 L 379.4 138.5 L 380.2 135.8 L 381.0 133.0 L 381.8 132.8 L 382.5 133.1 L 383.3 130.3 L 384.1 131.4 L 384.9 132.7 L 385.6 130.4 L 386.4 130.0 L 387.2 129.2 L 388.0 129.5 L 388.7 126.5 L 389.5 126.8 L 390.3 121.8 L 391.1 118.9 L 391.8 118.2 L 392.6 115.9 L 393.4 113.3 L 394.2 110.9 L 394.9 113.5 L 395.7 114.9 L 396.5 113.0 L 397.3 109.8 L 398.0 110.8 L 398.8 102.3 L 399.6 99.0 L 400.4 98.6 L 401.1 100.9 L 401.9 97.9 L 402.7 101.2 L 403.5 87.7 L 404.3 78.6 L 405.0 73.7 L 405.8 80.4 L 406.6 88.5 L 407.4 83.2 L 408.1 85.1 L 408.9 83.2 L 409.7 84.4 L 410.5 86.3 L 411.2 94.1 L 412.0 86.6 L 412.8 93.9 L 413.6 84.8 L 414.3 84.7 L 415.1 85.3 L 415.9 85.1 L 416.7 85.9 L 417.4 89.7 L 418.2 88.8 L 419.0 89.4 L 419.8 87.0 L 420.5 90.3 L 421.3 89.4 L 422.1 87.7 L 422.9 88.5 L 423.6 88.5 L 424.4 85.8 L 425.2 86.2 L 426.0 87.5 L 426.7 78.0 L 427.5 77.9 L 428.3 75.9 L 429.1 77.3 L 429.8 76.7 L 430.6 71.1 L 431.4 68.1 L 432.2 56.7 L 432.9 56.8 L 433.7 57.3 L 434.5 47.6 L 435.3 37.8 L 436.0 43.5 L 436.8 34.4 L 437.6 33.5 L 438.4 39.2 L 439.1 41.2 L 439.9 58.1 L 440.7 45.1 L 441.5 55.4 L 442.2 55.6 L 443.0 63.1 L 443.8 61.9 L 444.6 64.6 L 445.3 59.2 L 446.1 59.5 L 446.9 59.2 L 447.7 56.1 L 448.4 49.7 L 449.2 51.7 L 450.0 59.2 L 450.8 65.0 L 451.5 66.3 L 452.3 61.7 L 453.1 55.0 L 453.9 52.8 L 454.6 45.1 L 455.4 41.5 L 456.2 41.9 L 457.0 39.2 L 457.7 44.8 L 458.5 46.9 L 459.3 51.6 L 460.1 54.4 L 460.8 54.6 L 461.6 50.2 L 462.4 50.0 L 463.2 49.4 L 463.9 55.7 L 464.7 58.6 L 465.5 58.3 L 466.3 59.5 L 467.0 65.2 L 467.8 74.2 L 468.6 79.6 L 469.4 78.2 L 470.1 77.3 L 470.9 75.0 L 471.7 77.3 L 472.5 87.0 L 473.2 82.0 L 474.0 78.4 L 474.8 77.8 L 475.6 75.6 L 476.3 79.0 L 477.1 87.2 L 477.9 90.2 L 478.7 92.5 L 479.5 92.1 L 480.2 84.8 L 481.0 75.2 L 481.8 71.9 L 482.6 73.0 L 483.3 67.4 L 484.1 65.8 L 484.9 64.9 L 485.7 58.6 L 486.4 60.5 L 487.2 63.2 L 488.0 65.6 L 488.8 63.8 L 489.5 61.9 L 490.3 75.5 L 491.1 82.4 L 491.9 80.4 L 492.6 73.0 L 493.4 72.7 L 494.2 83.4 L 495.0 83.0 L 495.7 85.4 L 496.5 81.6 L 497.3 82.2 L 498.1 79.3 L 498.8 83.0 L 499.6 80.9 L 500.4 86.0 L 501.2 87.4 L 501.9 87.0 L 502.7 88.0 L 503.5 86.2 L 504.3 76.5 L 505.0 78.5 L 505.8 78.4 L 506.6 76.2 L 507.4 64.7 L 508.1 80.2 L 508.9 76.6" stroke="#7cb5ec" stroke-width="2"  stroke-linejoin="round" stroke-linecap="round"></path><path fill="none" d="M -4.9 168.2 L 5.0 168.2 L 5.8 171.6 L 6.5 171.9 L 7.3 172.4 L 8.1 178.9 L 8.9 177.9 L 9.6 177.0 L 10.4 179.3 L 11.2 181.7 L 12.0 182.6 L 12.7 184.1 L 13.5 183.0 L 14.3 183.4 L 15.1 183.9 L 15.8 184.9 L 16.6 180.9 L 17.4 177.8 L 18.2 173.6 L 18.9 173.0 L 19.7 173.5 L 20.5 171.9 L 21.3 168.9 L 22.0 170.0 L 22.8 168.8 L 23.6 168.8 L 24.4 171.2 L 25.1 167.5 L 25.9 168.8 L 26.7 164.6 L 27.5 161.1 L 28.2 160.3 L 29.0 162.7 L 29.8 158.8 L 30.6 167.5 L 31.3 172.6 L 32.1 171.4 L 32.9 171.1 L 33.7 171.1 L 34.4 175.3 L 35.2 173.8 L 36.0 173.1 L 36.8 174.5 L 37.6 175.2 L 38.3 176.3 L 39.1 177.9 L 39.9 177.0 L 40.7 180.2 L 41.4 180.3 L 42.2 180.6 L 43.0 179.5 L 43.8 179.5 L 44.5 181.1 L 45.3 177.3 L 46.1 180.3 L 46.9 180.1 L 47.6 179.4 L 48.4 181.4 L 49.2 182.6 L 50.0 184.4 L 50.7 182.9 L 51.5 182.7 L 52.3 181.1 L 53.1 179.5 L 53.8 179.3 L 54.6 183.0 L 55.4 182.3 L 56.2 182.2 L 56.9 182.5 L 57.7 185.9 L 58.5 183.4 L 59.3 183.4 L 60.0 184.5 L 60.8 184.6 L 61.6 183.9 L 62.4 184.9 L 63.1 182.7 L 63.9 178.7 L 64.7 177.9 L 65.5 177.2 L 66.2 176.5 L 67.0 175.7 L 67.8 177.3 L 68.6 173.5 L 69.3 176.0 L 70.1 175.8 L 70.9 179.2 L 71.7 179.7 L 72.4 181.6 L 73.2 181.1 L 74.0 180.8 L 74.8 183.5 L 75.5 182.4 L 76.3 183.5 L 77.1 190.0 L 77.9 190.4 L 78.6 190.2 L 79.4 190.6 L 80.2 188.9 L 81.0 188.1 L 81.7 190.3 L 82.5 188.8 L 83.3 190.0 L 84.1 189.0 L 84.8 190.3 L 85.6 190.3 L 86.4 192.3 L 87.2 193.9 L 87.9 191.5 L 88.7 191.9 L 89.5 192.5 L 90.3 192.1 L 91.0 190.3 L 91.8 190.0 L 92.6 190.8 L 93.4 191.4 L 94.1 191.6 L 94.9 190.1 L 95.7 190.6 L 96.5 196.2 L 97.2 196.5 L 98.0 196.4 L 98.8 196.5 L 99.6 200.3 L 100.3 200.1 L 101.1 200.9 L 101.9 201.1 L 102.7 201.1 L 103.4 200.3 L 104.2 198.9 L 105.0 198.5 L 105.8 192.6 L 106.5 188.7 L 107.3 188.9 L 108.1 189.8 L 108.9 188.2 L 109.6 189.7 L 110.4 186.0 L 111.2 184.0 L 112.0 183.0 L 112.8 185.4 L 113.5 186.7 L 114.3 188.7 L 115.1 187.6 L 115.9 189.0 L 116.6 188.5 L 117.4 189.4 L 118.2 190.8 L 119.0 186.8 L 119.7 188.4 L 120.5 191.5 L 121.3 191.3 L 122.1 189.8 L 122.8 192.0 L 123.6 192.3 L 124.4 193.4 L 125.2 192.8 L 125.9 192.5 L 126.7 190.8 L 127.5 192.7 L 128.3 192.9 L 129.0 195.8 L 129.8 197.3 L 130.6 197.3 L 131.4 198.6 L 132.1 199.5 L 132.9 200.4 L 133.7 199.2 L 134.5 198.8 L 135.2 198.7 L 136.0 199.5 L 136.8 199.8 L 137.6 196.5 L 138.3 195.7 L 139.1 196.0 L 139.9 196.2 L 140.7 197.0 L 141.4 196.5 L 142.2 196.3 L 143.0 196.8 L 143.8 198.7 L 144.5 199.1 L 145.3 201.1 L 146.1 198.9 L 146.9 199.2 L 147.6 196.0 L 148.4 192.7 L 149.2 193.0 L 150.0 194.3 L 150.7 193.8 L 151.5 192.2 L 152.3 193.5 L 153.1 195.9 L 153.8 196.0 L 154.6 196.0 L 155.4 196.3 L 156.2 193.4 L 156.9 194.1 L 157.7 190.8 L 158.5 190.3 L 159.3 191.3 L 160.0 191.7 L 160.8 191.1 L 161.6 197.0 L 162.4 196.2 L 163.1 196.6 L 163.9 196.0 L 164.7 195.9 L 165.5 195.7 L 166.2 191.4 L 167.0 188.7 L 167.8 188.7 L 168.6 190.3 L 169.3 190.0 L 170.1 190.6 L 170.9 192.8 L 171.7 194.6 L 172.4 193.9 L 173.2 195.0 L 174.0 194.7 L 174.8 193.0 L 175.5 196.4 L 176.3 196.8 L 177.1 197.1 L 177.9 197.4 L 178.6 199.4 L 179.4 198.4 L 180.2 197.9 L 181.0 198.7 L 181.7 198.5 L 182.5 198.5 L 183.3 198.9 L 184.1 196.6 L 184.9 197.4 L 185.6 201.1 L 186.4 200.0 L 187.2 198.5 L 188.0 198.8 L 188.7 198.4 L 189.5 203.3 L 190.3 203.9 L 191.1 203.9 L 191.8 203.8 L 192.6 203.2 L 193.4 204.9 L 194.2 203.6 L 194.9 205.3 L 195.7 205.2 L 196.5 205.6 L 197.3 206.0 L 198.0 202.2 L 198.8 200.1 L 199.6 200.8 L 200.4 200.9 L 201.1 202.5 L 201.9 202.0 L 202.7 200.3 L 203.5 198.7 L 204.2 199.2 L 205.0 199.1 L 205.8 199.9 L 206.6 200.7 L 207.3 199.7 L 208.1 197.9 L 208.9 197.2 L 209.7 197.2 L 210.4 198.7 L 211.2 200.8 L 212.0 203.0 L 212.8 204.3 L 213.5 204.2 L 214.3 202.7 L 215.1 201.7 L 215.9 201.5 L 216.6 201.6 L 217.4 201.6 L 218.2 201.6 L 219.0 201.5 L 219.7 200.7 L 220.5 201.1 L 221.3 201.6 L 222.1 202.2 L 222.8 202.2 L 223.6 202.5 L 224.4 202.9 L 225.2 201.4 L 225.9 203.5 L 226.7 203.6 L 227.5 203.7 L 228.3 203.7 L 229.0 203.8 L 229.8 205.8 L 230.6 205.2 L 231.4 202.5 L 232.1 199.4 L 232.9 199.5 L 233.7 199.3 L 234.5 197.3 L 235.2 197.7 L 236.0 197.5 L 236.8 196.9 L 237.6 197.2 L 238.3 197.4 L 239.1 197.2 L 239.9 196.5 L 240.7 195.4 L 241.4 194.5 L 242.2 194.3 L 243.0 194.9 L 243.8 194.5 L 244.5 192.8 L 245.3 193.3 L 246.1 194.3 L 246.9 194.3 L 247.6 193.0 L 248.4 194.3 L 249.2 193.2 L 250.0 195.5 L 250.7 194.9 L 251.5 195.1 L 252.3 193.0 L 253.1 191.1 L 253.8 190.6 L 254.6 191.3 L 255.4 190.9 L 256.2 190.6 L 257 192.2 L 257.7 191.1 L 258.5 193.0 L 259.3 193.5 L 260.1 193.2 L 260.8 192.9 L 261.6 193.4 L 262.4 193.4 L 263.2 194.3 L 263.9 193.6 L 264.7 195.1 L 265.5 194.9 L 266.3 196.8 L 267.0 196.3 L 267.8 195.6 L 268.6 193.6 L 269.4 193.0 L 270.1 192.7 L 270.9 193.4 L 271.7 193.7 L 272.5 194.9 L 273.2 193.5 L 274.0 193.5 L 274.8 193.3 L 275.6 194.0 L 276.3 192.0 L 277.1 190.3 L 277.9 190.3 L 278.7 190.2 L 279.4 190.5 L 280.2 190.1 L 281.0 187.8 L 281.8 187.8 L 282.5 187.7 L 283.3 186.4 L 284.1 186.3 L 284.9 186.8 L 285.6 185.5 L 286.4 185.1 L 287.2 184.7 L 288.0 186.4 L 288.7 186.3 L 289.5 186.1 L 290.3 184.1 L 291.1 184.5 L 291.8 183.7 L 292.6 185.6 L 293.4 185.4 L 294.2 184.6 L 294.9 183.9 L 295.7 183.8 L 296.5 183.8 L 297.3 185.2 L 298.0 184.7 L 298.8 183.7 L 299.6 181.9 L 300.4 179.5 L 301.1 180.3 L 301.9 178.7 L 302.7 176.8 L 303.5 176.6 L 304.2 175.7 L 305.0 176.6 L 305.8 176.2 L 306.6 174.1 L 307.3 173.8 L 308.1 173.8 L 308.9 174.1 L 309.7 174.9 L 310.4 166.0 L 311.2 166.2 L 312.0 166.3 L 312.8 164.0 L 313.5 165.7 L 314.3 164.8 L 315.1 165.2 L 315.9 166.9 L 316.6 166.6 L 317.4 165.9 L 318.2 166.7 L 319.0 162.6 L 319.7 165.0 L 320.5 161.0 L 321.3 161.4 L 322.1 161.9 L 322.8 161.7 L 323.6 158.8 L 324.4 157.4 L 325.2 154.4 L 325.9 153.9 L 326.7 154.5 L 327.5 152.1 L 328.3 151.6 L 329.0 153.8 L 329.8 146.8 L 330.6 146.5 L 331.4 153.0 L 332.2 153.8 L 332.9 156.7 L 333.7 154.7 L 334.5 151.9 L 335.3 152.4 L 336.0 157.5 L 336.8 153.2 L 337.6 161.3 L 338.4 160.1 L 339.1 158.0 L 339.9 157.3 L 340.7 159.6 L 341.5 155.9 L 342.2 152.9 L 343.0 152.7 L 343.8 153.8 L 344.6 154.1 L 345.3 155.1 L 346.1 156.7 L 346.9 152.1 L 347.7 151.1 L 348.4 147.1 L 349.2 146.0 L 350.0 145.1 L 350.8 148.1 L 351.5 145.3 L 352.3 140.0 L 353.1 143.8 L 353.9 144.1 L 354.6 142.2 L 355.4 144.8 L 356.2 143.0 L 357.0 144.9 L 357.7 147.0 L 358.5 146.8 L 359.3 143.6 L 360.1 147.7 L 360.8 148.5 L 361.6 147.8 L 362.4 140.8 L 363.2 140.0 L 363.9 143.2 L 364.7 144.8 L 365.5 146.2 L 366.3 144.3 L 367.0 143.7 L 367.8 143.0 L 368.6 144.5 L 369.4 140.5 L 370.1 137.0 L 370.9 140.3 L 371.7 135.8 L 372.5 136.1 L 373.2 137.3 L 374.0 140.0 L 374.8 143.5 L 375.6 141.8 L 376.3 144.2 L 377.1 144.2 L 377.9 143.0 L 378.7 146.5 L 379.4 138.5 L 380.2 135.8 L 381.0 133.0 L 381.8 132.8 L 382.5 133.1 L 383.3 130.3 L 384.1 131.4 L 384.9 132.7 L 385.6 130.4 L 386.4 130.0 L 387.2 129.2 L 388.0 129.5 L 388.7 126.5 L 389.5 126.8 L 390.3 121.8 L 391.1 118.9 L 391.8 118.2 L 392.6 115.9 L 393.4 113.3 L 394.2 110.9 L 394.9 113.5 L 395.7 114.9 L 396.5 113.0 L 397.3 109.8 L 398.0 110.8 L 398.8 102.3 L 399.6 99.0 L 400.4 98.6 L 401.1 100.9 L 401.9 97.9 L 402.7 101.2 L 403.5 87.7 L 404.3 78.6 L 405.0 73.7 L 405.8 80.4 L 406.6 88.5 L 407.4 83.2 L 408.1 85.1 L 408.9 83.2 L 409.7 84.4 L 410.5 86.3 L 411.2 94.1 L 412.0 86.6 L 412.8 93.9 L 413.6 84.8 L 414.3 84.7 L 415.1 85.3 L 415.9 85.1 L 416.7 85.9 L 417.4 89.7 L 418.2 88.8 L 419.0 89.4 L 419.8 87.0 L 420.5 90.3 L 421.3 89.4 L 422.1 87.7 L 422.9 88.5 L 423.6 88.5 L 424.4 85.8 L 425.2 86.2 L 426.0 87.5 L 426.7 78.0 L 427.5 77.9 L 428.3 75.9 L 429.1 77.3 L 429.8 76.7 L 430.6 71.1 L 431.4 68.1 L 432.2 56.7 L 432.9 56.8 L 433.7 57.3 L 434.5 47.6 L 435.3 37.8 L 436.0 43.5 L 436.8 34.4 L 437.6 33.5 L 438.4 39.2 L 439.1 41.2 L 439.9 58.1 L 440.7 45.1 L 441.5 55.4 L 442.2 55.6 L 443.0 63.1 L 443.8 61.9 L 444.6 64.6 L 445.3 59.2 L 446.1 59.5 L 446.9 59.2 L 447.7 56.1 L 448.4 49.7 L 449.2 51.7 L 450.0 59.2 L 450.8 65.0 L 451.5 66.3 L 452.3 61.7 L 453.1 55.0 L 453.9 52.8 L 454.6 45.1 L 455.4 41.5 L 456.2 41.9 L 457.0 39.2 L 457.7 44.8 L 458.5 46.9 L 459.3 51.6 L 460.1 54.4 L 460.8 54.6 L 461.6 50.2 L 462.4 50.0 L 463.2 49.4 L 463.9 55.7 L 464.7 58.6 L 465.5 58.3 L 466.3 59.5 L 467.0 65.2 L 467.8 74.2 L 468.6 79.6 L 469.4 78.2 L 470.1 77.3 L 470.9 75.0 L 471.7 77.3 L 472.5 87.0 L 473.2 82.0 L 474.0 78.4 L 474.8 77.8 L 475.6 75.6 L 476.3 79.0 L 477.1 87.2 L 477.9 90.2 L 478.7 92.5 L 479.5 92.1 L 480.2 84.8 L 481.0 75.2 L 481.8 71.9 L 482.6 73.0 L 483.3 67.4 L 484.1 65.8 L 484.9 64.9 L 485.7 58.6 L 486.4 60.5 L 487.2 63.2 L 488.0 65.6 L 488.8 63.8 L 489.5 61.9 L 490.3 75.5 L 491.1 82.4 L 491.9 80.4 L 492.6 73.0 L 493.4 72.7 L 494.2 83.4 L 495.0 83.0 L 495.7 85.4 L 496.5 81.6 L 497.3 82.2 L 498.1 79.3 L 498.8 83.0 L 499.6 80.9 L 500.4 86.0 L 501.2 87.4 L 501.9 87.0 L 502.7 88.0 L 503.5 86.2 L 504.3 76.5 L 505.0 78.5 L 505.8 78.4 L 506.6 76.2 L 507.4 64.7 L 508.1 80.2 L 508.9 76.6 L 518.9 76.6" stroke-linejoin="round" visibility="visible" stroke="rgb(192,192,192)" stroke-opacity="0.0" stroke-width="22"  class=" highcharts-tracker" style=""></path></g><g class="highcharts-markers highcharts-tracker" visibility="visible"  transform="translate(50,61) scale(1 1)" clip-path="url(#highcharts-7)" style=""></g></g><text x="292" text-anchor="middle" class="highcharts-title"  style="color:#333333;font-size:18px;fill:#333333;width:520px;" y="24"><tspan>Historical USD to EUR Exchange Rate</tspan></text><text x="292" text-anchor="middle" class="highcharts-subtitle"  style="color:#555555;fill:#555555;width:520px;" y="45"><tspan>Select an area by dragging across the lower chart</tspan></text><g class="highcharts-axis-labels highcharts-xaxis-labels" ><text x="125.5" style="color:#606060;cursor:default;font-size:11px;fill:#606060;width:119px;text-overflow:clip;" text-anchor="middle" transform="translate(0,0)" y="299" opacity="1"><tspan>Sep '13</tspan></text><text x="220.1" style="color:#606060;cursor:default;font-size:11px;fill:#606060;width:119px;text-overflow:clip;" text-anchor="middle" transform="translate(0,0)" y="299" opacity="1"><tspan>Jan '14</tspan></text><text x="313.2" style="color:#606060;cursor:default;font-size:11px;fill:#606060;width:119px;text-overflow:clip;" text-anchor="middle" transform="translate(0,0)" y="299" opacity="1"><tspan>May '14</tspan></text><text x="408.5" style="color:#606060;cursor:default;font-size:11px;fill:#606060;width:119px;text-overflow:clip;" text-anchor="middle" transform="translate(0,0)" y="299" opacity="1"><tspan>Sep '14</tspan></text><text x="503.1" style="color:#606060;cursor:default;font-size:11px;fill:#606060;width:119px;text-overflow:clip;" text-anchor="middle" transform="translate(0,0)" y="299" opacity="1"><tspan>Jan '15</tspan></text></g><g class="highcharts-axis-labels highcharts-yaxis-labels" ><text x="35" style="color:#606060;cursor:default;font-size:11px;fill:#606060;width:30px;text-overflow:clip;" text-anchor="end" transform="translate(0,0)" y="285" opacity="1">0.7</text><text x="35" style="color:#606060;cursor:default;font-size:11px;fill:#606060;width:30px;text-overflow:clip;" text-anchor="end" transform="translate(0,0)" y="212" opacity="1">0.8</text><text x="35" style="color:#606060;cursor:default;font-size:11px;fill:#606060;width:30px;text-overflow:clip;" text-anchor="end" transform="translate(0,0)" y="139" opacity="1">0.9</text><text x="35" style="color:#606060;cursor:default;font-size:11px;fill:#606060;width:30px;text-overflow:clip;" text-anchor="end" transform="translate(0,0)" y="66" opacity="1">1</text></g><g class="highcharts-tooltip"  style="cursor:default;padding:0;white-space:nowrap;" transform="translate(0,-9999)"><path fill="none" d="M 3.5 0.5 L 13.5 0.5 C 16.5 0.5 16.5 0.5 16.5 3.5 L 16.5 13.5 C 16.5 16.5 16.5 16.5 13.5 16.5 L 3.5 16.5 C 0.5 16.5 0.5 16.5 0.5 13.5 L 0.5 3.5 C 0.5 0.5 0.5 0.5 3.5 0.5"  stroke="black" stroke-opacity="0.0" stroke-width="5" transform="translate(1, 1)"></path><path fill="none" d="M 3.5 0.5 L 13.5 0.5 C 16.5 0.5 16.5 0.5 16.5 3.5 L 16.5 13.5 C 16.5 16.5 16.5 16.5 13.5 16.5 L 3.5 16.5 C 0.5 16.5 0.5 16.5 0.5 13.5 L 0.5 3.5 C 0.5 0.5 0.5 0.5 3.5 0.5"  stroke="black" stroke-opacity="0.0" stroke-width="3" transform="translate(1, 1)"></path><path fill="none" d="M 3.5 0.5 L 13.5 0.5 C 16.5 0.5 16.5 0.5 16.5 3.5 L 16.5 13.5 C 16.5 16.5 16.5 16.5 13.5 16.5 L 3.5 16.5 C 0.5 16.5 0.5 16.5 0.5 13.5 L 0.5 3.5 C 0.5 0.5 0.5 0.5 3.5 0.5"  stroke="black" stroke-opacity="0.1" stroke-width="1" transform="translate(1, 1)"></path><path fill="rgb(249, 249, 249)" fill-opacity=" .85" d="M 3.5 0.5 L 13.5 0.5 C 16.5 0.5 16.5 0.5 16.5 3.5 L 16.5 13.5 C 16.5 16.5 16.5 16.5 13.5 16.5 L 3.5 16.5 C 0.5 16.5 0.5 16.5 0.5 13.5 L 0.5 3.5 C 0.5 0.5 0.5 0.5 3.5 0.5"></path><text x="8"  style="font-size:12px;color:#333333;fill:#333333;" y="20"></text></g></svg>