<svg version="1.1" style="font-family: signika, serif; font-size: 12px; position: absolute; background-image: url(http://www.highcharts.com/samples/graphics/sand.png); background-position: initial initial; background-repeat: initial initial;" xmlns="http://www.w3.org/2000/svg" width="584" height="400" viewBox="0 0 584 400" xmlns:xlink="http://www.w3.org/1999/xlink"><style type="text/css"><![CDATA[@import url(http://fonts.googleapis.com/css?family=Signika:700);]]></style><desc>Created with Highcharts 4.1.7</desc><defs><clipPath id="highcharts-6"><rect x="0" y="0" width="514" height="227"></rect></clipPath><clipPath id="highcharts-7"><rect x="-99" y="-53" width="613" height="400"></rect></clipPath><clipPath id="highcharts-8"><rect x="0" y="0" width="514" height="227"></rect></clipPath></defs><g class="highcharts-grid" ></g><g class="highcharts-grid" ><path fill="none" d="M 50 280.5 L 564 280.5" stroke="#D8D8D8" stroke-width="1"  opacity="1"></path><path fill="none" d="M 50 204.5 L 564 204.5" stroke="#D8D8D8" stroke-width="1"  opacity="1"></path><path fill="none" d="M 50 129.5 L 564 129.5" stroke="#D8D8D8" stroke-width="1"  opacity="1"></path><path fill="none" d="M 50 52.5 L 564 52.5" stroke="#D8D8D8" stroke-width="1"  opacity="1"></path></g><g class="highcharts-axis" ><path fill="none" d="M 125.5 280 L 125.5 290" stroke="#C0D0E0" stroke-width="1" opacity="1"></path><path fill="none" d="M 219.5 280 L 219.5 290" stroke="#C0D0E0" stroke-width="1" opacity="1"></path><path fill="none" d="M 312.5 280 L 312.5 290" stroke="#C0D0E0" stroke-width="1" opacity="1"></path><path fill="none" d="M 408.5 280 L 408.5 290" stroke="#C0D0E0" stroke-width="1" opacity="1"></path><path fill="none" d="M 502.5 280 L 502.5 290" stroke="#C0D0E0" stroke-width="1" opacity="1"></path><path fill="none" d="M 50 280.5 L 564 280.5" stroke="#C0D0E0" stroke-width="1"  visibility="visible"></path></g><g class="highcharts-axis" ></g><g class="highcharts-series-group" ><g class="highcharts-series" visibility="visible"  transform="translate(50,53) scale(1 1)" clip-path="url(#highcharts-8)"><path fill="none" d="M 5.0 174.4 L 5.8 177.9 L 6.5 178.1 L 7.3 178.7 L 8.1 185.4 L 8.9 184.4 L 9.6 183.5 L 10.4 185.9 L 11.2 188.4 L 12.0 189.3 L 12.7 190.9 L 13.5 189.7 L 14.3 190.1 L 15.1 190.6 L 15.8 191.7 L 16.6 187.5 L 17.4 184.3 L 18.2 180.0 L 18.9 179.3 L 19.7 179.8 L 20.5 178.2 L 21.3 175.1 L 22.0 176.2 L 22.8 175.0 L 23.6 175.0 L 24.4 177.5 L 25.1 173.6 L 25.9 175.0 L 26.7 170.7 L 27.5 166.9 L 28.2 166.1 L 29.0 168.7 L 29.8 164.6 L 30.6 173.6 L 31.3 178.9 L 32.1 177.6 L 32.9 177.3 L 33.7 177.4 L 34.4 181.7 L 35.2 180.1 L 36.0 179.4 L 36.8 180.9 L 37.6 181.6 L 38.3 182.8 L 39.1 184.4 L 39.9 183.4 L 40.7 186.8 L 41.4 186.8 L 42.2 187.1 L 43.0 186.1 L 43.8 186.1 L 44.5 187.8 L 45.3 183.7 L 46.1 186.9 L 46.9 186.7 L 47.6 185.9 L 48.4 188.0 L 49.2 189.3 L 50.0 191.2 L 50.7 189.6 L 51.5 189.3 L 52.3 187.7 L 53.1 186.1 L 53.8 185.9 L 54.6 189.7 L 55.4 189.0 L 56.2 188.9 L 56.9 189.2 L 57.7 192.7 L 58.5 190.1 L 59.3 190.1 L 60.0 191.2 L 60.8 191.3 L 61.6 190.6 L 62.4 191.6 L 63.1 189.3 L 63.9 185.2 L 64.7 184.4 L 65.5 183.7 L 66.2 183.0 L 67.0 182.1 L 67.8 183.7 L 68.6 179.9 L 69.3 182.5 L 70.1 182.2 L 70.9 185.8 L 71.7 186.3 L 72.4 188.2 L 73.2 187.7 L 74.0 187.5 L 74.8 190.2 L 75.5 189.1 L 76.3 190.2 L 77.1 197.0 L 77.9 197.4 L 78.6 197.1 L 79.4 197.5 L 80.2 195.9 L 81.0 195.0 L 81.7 197.2 L 82.5 195.7 L 83.3 197.0 L 84.1 195.9 L 84.8 197.2 L 85.6 197.2 L 86.4 199.3 L 87.2 201.0 L 87.9 198.5 L 88.7 199.0 L 89.5 199.6 L 90.3 199.1 L 91.0 197.2 L 91.8 196.9 L 92.6 197.8 L 93.4 198.4 L 94.1 198.7 L 94.9 197.1 L 95.7 197.5 L 96.5 203.3 L 97.2 203.7 L 98.0 203.6 L 98.8 203.6 L 99.6 207.6 L 100.3 207.4 L 101.1 208.3 L 101.9 208.5 L 102.7 208.5 L 103.4 207.7 L 104.2 206.1 L 105.0 205.8 L 105.8 199.6 L 106.5 195.5 L 107.3 195.9 L 108.1 196.8 L 108.9 195.1 L 109.6 196.7 L 110.4 192.7 L 111.2 190.7 L 112.0 189.7 L 112.8 192.1 L 113.5 193.5 L 114.3 195.5 L 115.1 194.5 L 115.9 195.9 L 116.6 195.4 L 117.4 196.3 L 118.2 197.7 L 119.0 193.6 L 119.7 195.3 L 120.5 198.5 L 121.3 198.3 L 122.1 196.8 L 122.8 199.0 L 123.6 199.3 L 124.4 200.5 L 125.2 199.9 L 125.9 199.6 L 126.7 197.8 L 127.5 199.8 L 128.3 199.9 L 129.0 203.0 L 129.8 204.5 L 130.6 204.6 L 131.4 205.8 L 132.1 206.7 L 132.9 207.7 L 133.7 206.5 L 134.5 206.1 L 135.2 205.9 L 136.0 206.7 L 136.8 207.0 L 137.6 203.7 L 138.3 202.8 L 139.1 203.1 L 139.9 203.4 L 140.7 204.2 L 141.4 203.6 L 142.2 203.5 L 143.0 203.9 L 143.8 206.0 L 144.5 206.4 L 145.3 208.5 L 146.1 206.1 L 146.9 206.4 L 147.6 203.2 L 148.4 199.8 L 149.2 200.1 L 150.0 201.4 L 150.7 200.8 L 151.5 199.3 L 152.3 200.5 L 153.1 203.0 L 153.8 203.1 L 154.6 203.1 L 155.4 203.5 L 156.2 200.5 L 156.9 201.1 L 157.7 197.8 L 158.5 197.3 L 159.3 198.3 L 160.0 198.7 L 160.8 198.1 L 161.6 204.2 L 162.4 203.4 L 163.1 203.8 L 163.9 203.2 L 164.7 203.0 L 165.5 202.8 L 166.2 198.4 L 167.0 195.5 L 167.8 195.6 L 168.6 197.2 L 169.3 196.9 L 170.1 197.5 L 170.9 199.9 L 171.7 201.7 L 172.4 201.0 L 173.2 202.1 L 174.0 201.8 L 174.8 200.0 L 175.5 203.6 L 176.3 203.9 L 177.1 204.2 L 177.9 204.6 L 178.6 206.7 L 179.4 205.7 L 180.2 205.1 L 181.0 205.9 L 181.7 205.8 L 182.5 205.8 L 183.3 206.1 L 184.1 203.8 L 184.9 204.6 L 185.6 208.4 L 186.4 207.4 L 187.2 205.8 L 188.0 206.1 L 188.7 205.6 L 189.5 210.7 L 190.3 211.4 L 191.1 211.4 L 191.8 211.3 L 192.6 210.6 L 193.4 212.4 L 194.2 211.1 L 194.9 212.8 L 195.7 212.7 L 196.5 213.1 L 197.3 213.6 L 198.0 209.6 L 198.8 207.4 L 199.6 208.1 L 200.4 208.3 L 201.1 209.8 L 201.9 209.4 L 202.7 207.7 L 203.5 205.9 L 204.2 206.4 L 205.0 206.4 L 205.8 207.2 L 206.6 208.0 L 207.3 207.0 L 208.1 205.1 L 208.9 204.4 L 209.7 204.4 L 210.4 205.9 L 211.2 208.2 L 212.0 210.5 L 212.8 211.8 L 213.5 211.7 L 214.3 210.2 L 215.1 209.1 L 215.9 208.9 L 216.6 208.9 L 217.4 208.9 L 218.2 208.9 L 219.0 208.9 L 219.7 208.0 L 220.5 208.5 L 221.3 208.9 L 222.1 209.6 L 222.8 209.6 L 223.6 209.8 L 224.4 210.3 L 225.2 208.8 L 225.9 211.0 L 226.7 211.1 L 227.5 211.1 L 228.3 211.1 L 229.0 211.3 L 229.8 213.3 L 230.6 212.7 L 231.4 209.9 L 232.1 206.7 L 232.9 206.7 L 233.7 206.6 L 234.5 204.5 L 235.2 204.9 L 236.0 204.7 L 236.8 204.1 L 237.6 204.4 L 238.3 204.6 L 239.1 204.4 L 239.9 203.7 L 240.7 202.5 L 241.4 201.6 L 242.2 201.4 L 243.0 202.1 L 243.8 201.6 L 244.5 199.9 L 245.3 200.4 L 246.1 201.5 L 246.9 201.4 L 247.6 200.1 L 248.4 201.4 L 249.2 200.2 L 250.0 202.7 L 250.7 202.0 L 251.5 202.2 L 252.3 200.0 L 253.1 198.1 L 253.8 197.5 L 254.6 198.3 L 255.4 197.9 L 256.2 197.6 L 257 199.2 L 257.7 198.0 L 258.5 200.0 L 259.3 200.5 L 260.1 200.2 L 260.8 199.9 L 261.6 200.5 L 262.4 200.5 L 263.2 201.5 L 263.9 200.7 L 264.7 202.2 L 265.5 202.0 L 266.3 203.9 L 267.0 203.5 L 267.8 202.7 L 268.6 200.7 L 269.4 200.0 L 270.1 199.7 L 270.9 200.5 L 271.7 200.8 L 272.5 202.1 L 273.2 200.6 L 274.0 200.5 L 274.8 200.3 L 275.6 201.1 L 276.3 199.0 L 277.1 197.2 L 277.9 197.3 L 278.7 197.1 L 279.4 197.4 L 280.2 197.1 L 281.0 194.6 L 281.8 194.6 L 282.5 194.6 L 283.3 193.2 L 284.1 193.1 L 284.9 193.7 L 285.6 192.3 L 286.4 191.8 L 287.2 191.5 L 288.0 193.2 L 288.7 193.1 L 289.5 192.9 L 290.3 190.9 L 291.1 191.2 L 291.8 190.4 L 292.6 192.4 L 293.4 192.1 L 294.2 191.4 L 294.9 190.6 L 295.7 190.5 L 296.5 190.5 L 297.3 191.9 L 298.0 191.5 L 298.8 190.4 L 299.6 188.5 L 300.4 186.0 L 301.1 186.9 L 301.9 185.3 L 302.7 183.3 L 303.5 183.1 L 304.2 182.1 L 305.0 183.1 L 305.8 182.7 L 306.6 180.5 L 307.3 180.2 L 308.1 180.2 L 308.9 180.5 L 309.7 181.2 L 310.4 172.1 L 311.2 172.3 L 312.0 172.4 L 312.8 170.0 L 313.5 171.7 L 314.3 170.8 L 315.1 171.3 L 315.9 173.0 L 316.6 172.7 L 317.4 171.9 L 318.2 172.8 L 319.0 168.5 L 319.7 171.0 L 320.5 166.9 L 321.3 167.3 L 322.1 167.8 L 322.8 167.6 L 323.6 164.6 L 324.4 163.2 L 325.2 160.1 L 325.9 159.5 L 326.7 160.1 L 327.5 157.6 L 328.3 157.2 L 329.0 159.4 L 329.8 152.1 L 330.6 151.9 L 331.4 158.6 L 332.2 159.4 L 332.9 162.4 L 333.7 160.4 L 334.5 157.4 L 335.3 157.9 L 336.0 163.2 L 336.8 158.8 L 337.6 167.2 L 338.4 166.0 L 339.1 163.8 L 339.9 163.1 L 340.7 165.4 L 341.5 161.6 L 342.2 158.5 L 343.0 158.3 L 343.8 159.4 L 344.6 159.7 L 345.3 160.7 L 346.1 162.4 L 346.9 157.6 L 347.7 156.7 L 348.4 152.5 L 349.2 151.4 L 350.0 150.4 L 350.8 153.5 L 351.5 150.6 L 352.3 145.2 L 353.1 149.0 L 353.9 149.4 L 354.6 147.4 L 355.4 150.1 L 356.2 148.3 L 357.0 150.1 L 357.7 152.4 L 358.5 152.2 L 359.3 148.9 L 360.1 153.1 L 360.8 153.9 L 361.6 153.2 L 362.4 145.9 L 363.2 145.1 L 363.9 148.5 L 364.7 150.1 L 365.5 151.6 L 366.3 149.6 L 367.0 148.9 L 367.8 148.3 L 368.6 149.8 L 369.4 145.6 L 370.1 142.0 L 370.9 145.4 L 371.7 140.8 L 372.5 141.1 L 373.2 142.3 L 374.0 145.2 L 374.8 148.7 L 375.6 147.0 L 376.3 149.5 L 377.1 149.5 L 377.9 148.3 L 378.7 151.8 L 379.4 143.6 L 380.2 140.8 L 381.0 137.9 L 381.8 137.7 L 382.5 138.0 L 383.3 135.0 L 384.1 136.2 L 384.9 137.5 L 385.6 135.2 L 386.4 134.8 L 387.2 134.0 L 388.0 134.3 L 388.7 131.2 L 389.5 131.5 L 390.3 126.2 L 391.1 123.2 L 391.8 122.5 L 392.6 120.2 L 393.4 117.5 L 394.2 115.0 L 394.9 117.6 L 395.7 119.1 L 396.5 117.2 L 397.3 113.8 L 398.0 114.8 L 398.8 106.0 L 399.6 102.6 L 400.4 102.3 L 401.1 104.6 L 401.9 101.5 L 402.7 104.9 L 403.5 90.9 L 404.3 81.5 L 405.0 76.4 L 405.8 83.3 L 406.6 91.7 L 407.4 86.3 L 408.1 88.2 L 408.9 86.3 L 409.7 87.5 L 410.5 89.5 L 411.2 97.6 L 412.0 89.8 L 412.8 97.3 L 413.6 88.0 L 414.3 87.8 L 415.1 88.4 L 415.9 88.3 L 416.7 89.0 L 417.4 93.0 L 418.2 92.0 L 419.0 92.7 L 419.8 90.2 L 420.5 93.6 L 421.3 92.7 L 422.1 90.9 L 422.9 91.7 L 423.6 91.7 L 424.4 88.9 L 425.2 89.4 L 426.0 90.7 L 426.7 80.8 L 427.5 80.8 L 428.3 78.6 L 429.1 80.1 L 429.8 79.6 L 430.6 73.6 L 431.4 70.6 L 432.2 58.8 L 432.9 58.9 L 433.7 59.4 L 434.5 49.4 L 435.3 39.1 L 436.0 45.1 L 436.8 35.7 L 437.6 34.7 L 438.4 40.7 L 439.1 42.7 L 439.9 60.3 L 440.7 46.8 L 441.5 57.4 L 442.2 57.7 L 443.0 65.4 L 443.8 64.1 L 444.6 67.0 L 445.3 61.4 L 446.1 61.7 L 446.9 61.4 L 447.7 58.1 L 448.4 51.5 L 449.2 53.6 L 450.0 61.4 L 450.8 67.4 L 451.5 68.7 L 452.3 64.0 L 453.1 57.0 L 453.9 54.7 L 454.6 46.7 L 455.4 43.0 L 456.2 43.4 L 457.0 40.6 L 457.7 46.4 L 458.5 48.6 L 459.3 53.4 L 460.1 56.4 L 460.8 56.6 L 461.6 52.0 L 462.4 51.8 L 463.2 51.2 L 463.9 57.8 L 464.7 60.8 L 465.5 60.4 L 466.3 61.7 L 467.0 67.6 L 467.8 76.9 L 468.6 82.5 L 469.4 81.1 L 470.1 80.1 L 470.9 77.7 L 471.7 80.2 L 472.5 90.1 L 473.2 85.0 L 474.0 81.3 L 474.8 80.6 L 475.6 78.3 L 476.3 81.9 L 477.1 90.4 L 477.9 93.5 L 478.7 95.9 L 479.5 95.5 L 480.2 87.9 L 481.0 78.0 L 481.8 74.6 L 482.6 75.7 L 483.3 69.9 L 484.1 68.2 L 484.9 67.3 L 485.7 60.8 L 486.4 62.8 L 487.2 65.6 L 488.0 68.0 L 488.8 66.1 L 489.5 64.2 L 490.3 78.3 L 491.1 85.4 L 491.9 83.3 L 492.6 75.7 L 493.4 75.3 L 494.2 86.4 L 495.0 86.1 L 495.7 88.6 L 496.5 84.5 L 497.3 85.2 L 498.1 82.2 L 498.8 86.1 L 499.6 83.9 L 500.4 89.2 L 501.2 90.6 L 501.9 90.1 L 502.7 91.2 L 503.5 89.4 L 504.3 79.2 L 505.0 81.4 L 505.8 81.3 L 506.6 79.0 L 507.4 67.1 L 508.1 83.2 L 508.9 79.4" stroke="black" stroke-width="5"  stroke-linejoin="round" stroke-linecap="round"  stroke-opacity="0.0" transform="translate(1, 1)"></path><path fill="none" d="M 5.0 174.4 L 5.8 177.9 L 6.5 178.1 L 7.3 178.7 L 8.1 185.4 L 8.9 184.4 L 9.6 183.5 L 10.4 185.9 L 11.2 188.4 L 12.0 189.3 L 12.7 190.9 L 13.5 189.7 L 14.3 190.1 L 15.1 190.6 L 15.8 191.7 L 16.6 187.5 L 17.4 184.3 L 18.2 180.0 L 18.9 179.3 L 19.7 179.8 L 20.5 178.2 L 21.3 175.1 L 22.0 176.2 L 22.8 175.0 L 23.6 175.0 L 24.4 177.5 L 25.1 173.6 L 25.9 175.0 L 26.7 170.7 L 27.5 166.9 L 28.2 166.1 L 29.0 168.7 L 29.8 164.6 L 30.6 173.6 L 31.3 178.9 L 32.1 177.6 L 32.9 177.3 L 33.7 177.4 L 34.4 181.7 L 35.2 180.1 L 36.0 179.4 L 36.8 180.9 L 37.6 181.6 L 38.3 182.8 L 39.1 184.4 L 39.9 183.4 L 40.7 186.8 L 41.4 186.8 L 42.2 187.1 L 43.0 186.1 L 43.8 186.1 L 44.5 187.8 L 45.3 183.7 L 46.1 186.9 L 46.9 186.7 L 47.6 185.9 L 48.4 188.0 L 49.2 189.3 L 50.0 191.2 L 50.7 189.6 L 51.5 189.3 L 52.3 187.7 L 53.1 186.1 L 53.8 185.9 L 54.6 189.7 L 55.4 189.0 L 56.2 188.9 L 56.9 189.2 L 57.7 192.7 L 58.5 190.1 L 59.3 190.1 L 60.0 191.2 L 60.8 191.3 L 61.6 190.6 L 62.4 191.6 L 63.1 189.3 L 63.9 185.2 L 64.7 184.4 L 65.5 183.7 L 66.2 183.0 L 67.0 182.1 L 67.8 183.7 L 68.6 179.9 L 69.3 182.5 L 70.1 182.2 L 70.9 185.8 L 71.7 186.3 L 72.4 188.2 L 73.2 187.7 L 74.0 187.5 L 74.8 190.2 L 75.5 189.1 L 76.3 190.2 L 77.1 197.0 L 77.9 197.4 L 78.6 197.1 L 79.4 197.5 L 80.2 195.9 L 81.0 195.0 L 81.7 197.2 L 82.5 195.7 L 83.3 197.0 L 84.1 195.9 L 84.8 197.2 L 85.6 197.2 L 86.4 199.3 L 87.2 201.0 L 87.9 198.5 L 88.7 199.0 L 89.5 199.6 L 90.3 199.1 L 91.0 197.2 L 91.8 196.9 L 92.6 197.8 L 93.4 198.4 L 94.1 198.7 L 94.9 197.1 L 95.7 197.5 L 96.5 203.3 L 97.2 203.7 L 98.0 203.6 L 98.8 203.6 L 99.6 207.6 L 100.3 207.4 L 101.1 208.3 L 101.9 208.5 L 102.7 208.5 L 103.4 207.7 L 104.2 206.1 L 105.0 205.8 L 105.8 199.6 L 106.5 195.5 L 107.3 195.9 L 108.1 196.8 L 108.9 195.1 L 109.6 196.7 L 110.4 192.7 L 111.2 190.7 L 112.0 189.7 L 112.8 192.1 L 113.5 193.5 L 114.3 195.5 L 115.1 194.5 L 115.9 195.9 L 116.6 195.4 L 117.4 196.3 L 118.2 197.7 L 119.0 193.6 L 119.7 195.3 L 120.5 198.5 L 121.3 198.3 L 122.1 196.8 L 122.8 199.0 L 123.6 199.3 L 124.4 200.5 L 125.2 199.9 L 125.9 199.6 L 126.7 197.8 L 127.5 199.8 L 128.3 199.9 L 129.0 203.0 L 129.8 204.5 L 130.6 204.6 L 131.4 205.8 L 132.1 206.7 L 132.9 207.7 L 133.7 206.5 L 134.5 206.1 L 135.2 205.9 L 136.0 206.7 L 136.8 207.0 L 137.6 203.7 L 138.3 202.8 L 139.1 203.1 L 139.9 203.4 L 140.7 204.2 L 141.4 203.6 L 142.2 203.5 L 143.0 203.9 L 143.8 206.0 L 144.5 206.4 L 145.3 208.5 L 146.1 206.1 L 146.9 206.4 L 147.6 203.2 L 148.4 199.8 L 149.2 200.1 L 150.0 201.4 L 150.7 200.8 L 151.5 199.3 L 152.3 200.5 L 153.1 203.0 L 153.8 203.1 L 154.6 203.1 L 155.4 203.5 L 156.2 200.5 L 156.9 201.1 L 157.7 197.8 L 158.5 197.3 L 159.3 198.3 L 160.0 198.7 L 160.8 198.1 L 161.6 204.2 L 162.4 203.4 L 163.1 203.8 L 163.9 203.2 L 164.7 203.0 L 165.5 202.8 L 166.2 198.4 L 167.0 195.5 L 167.8 195.6 L 168.6 197.2 L 169.3 196.9 L 170.1 197.5 L 170.9 199.9 L 171.7 201.7 L 172.4 201.0 L 173.2 202.1 L 174.0 201.8 L 174.8 200.0 L 175.5 203.6 L 176.3 203.9 L 177.1 204.2 L 177.9 204.6 L 178.6 206.7 L 179.4 205.7 L 180.2 205.1 L 181.0 205.9 L 181.7 205.8 L 182.5 205.8 L 183.3 206.1 L 184.1 203.8 L 184.9 204.6 L 185.6 208.4 L 186.4 207.4 L 187.2 205.8 L 188.0 206.1 L 188.7 205.6 L 189.5 210.7 L 190.3 211.4 L 191.1 211.4 L 191.8 211.3 L 192.6 210.6 L 193.4 212.4 L 194.2 211.1 L 194.9 212.8 L 195.7 212.7 L 196.5 213.1 L 197.3 213.6 L 198.0 209.6 L 198.8 207.4 L 199.6 208.1 L 200.4 208.3 L 201.1 209.8 L 201.9 209.4 L 202.7 207.7 L 203.5 205.9 L 204.2 206.4 L 205.0 206.4 L 205.8 207.2 L 206.6 208.0 L 207.3 207.0 L 208.1 205.1 L 208.9 204.4 L 209.7 204.4 L 210.4 205.9 L 211.2 208.2 L 212.0 210.5 L 212.8 211.8 L 213.5 211.7 L 214.3 210.2 L 215.1 209.1 L 215.9 208.9 L 216.6 208.9 L 217.4 208.9 L 218.2 208.9 L 219.0 208.9 L 219.7 208.0 L 220.5 208.5 L 221.3 208.9 L 222.1 209.6 L 222.8 209.6 L 223.6 209.8 L 224.4 210.3 L 225.2 208.8 L 225.9 211.0 L 226.7 211.1 L 227.5 211.1 L 228.3 211.1 L 229.0 211.3 L 229.8 213.3 L 230.6 212.7 L 231.4 209.9 L 232.1 206.7 L 232.9 206.7 L 233.7 206.6 L 234.5 204.5 L 235.2 204.9 L 236.0 204.7 L 236.8 204.1 L 237.6 204.4 L 238.3 204.6 L 239.1 204.4 L 239.9 203.7 L 240.7 202.5 L 241.4 201.6 L 242.2 201.4 L 243.0 202.1 L 243.8 201.6 L 244.5 199.9 L 245.3 200.4 L 246.1 201.5 L 246.9 201.4 L 247.6 200.1 L 248.4 201.4 L 249.2 200.2 L 250.0 202.7 L 250.7 202.0 L 251.5 202.2 L 252.3 200.0 L 253.1 198.1 L 253.8 197.5 L 254.6 198.3 L 255.4 197.9 L 256.2 197.6 L 257 199.2 L 257.7 198.0 L 258.5 200.0 L 259.3 200.5 L 260.1 200.2 L 260.8 199.9 L 261.6 200.5 L 262.4 200.5 L 263.2 201.5 L 263.9 200.7 L 264.7 202.2 L 265.5 202.0 L 266.3 203.9 L 267.0 203.5 L 267.8 202.7 L 268.6 200.7 L 269.4 200.0 L 270.1 199.7 L 270.9 200.5 L 271.7 200.8 L 272.5 202.1 L 273.2 200.6 L 274.0 200.5 L 274.8 200.3 L 275.6 201.1 L 276.3 199.0 L 277.1 197.2 L 277.9 197.3 L 278.7 197.1 L 279.4 197.4 L 280.2 197.1 L 281.0 194.6 L 281.8 194.6 L 282.5 194.6 L 283.3 193.2 L 284.1 193.1 L 284.9 193.7 L 285.6 192.3 L 286.4 191.8 L 287.2 191.5 L 288.0 193.2 L 288.7 193.1 L 289.5 192.9 L 290.3 190.9 L 291.1 191.2 L 291.8 190.4 L 292.6 192.4 L 293.4 192.1 L 294.2 191.4 L 294.9 190.6 L 295.7 190.5 L 296.5 190.5 L 297.3 191.9 L 298.0 191.5 L 298.8 190.4 L 299.6 188.5 L 300.4 186.0 L 301.1 186.9 L 301.9 185.3 L 302.7 183.3 L 303.5 183.1 L 304.2 182.1 L 305.0 183.1 L 305.8 182.7 L 306.6 180.5 L 307.3 180.2 L 308.1 180.2 L 308.9 180.5 L 309.7 181.2 L 310.4 172.1 L 311.2 172.3 L 312.0 172.4 L 312.8 170.0 L 313.5 171.7 L 314.3 170.8 L 315.1 171.3 L 315.9 173.0 L 316.6 172.7 L 317.4 171.9 L 318.2 172.8 L 319.0 168.5 L 319.7 171.0 L 320.5 166.9 L 321.3 167.3 L 322.1 167.8 L 322.8 167.6 L 323.6 164.6 L 324.4 163.2 L 325.2 160.1 L 325.9 159.5 L 326.7 160.1 L 327.5 157.6 L 328.3 157.2 L 329.0 159.4 L 329.8 152.1 L 330.6 151.9 L 331.4 158.6 L 332.2 159.4 L 332.9 162.4 L 333.7 160.4 L 334.5 157.4 L 335.3 157.9 L 336.0 163.2 L 336.8 158.8 L 337.6 167.2 L 338.4 166.0 L 339.1 163.8 L 339.9 163.1 L 340.7 165.4 L 341.5 161.6 L 342.2 158.5 L 343.0 158.3 L 343.8 159.4 L 344.6 159.7 L 345.3 160.7 L 346.1 162.4 L 346.9 157.6 L 347.7 156.7 L 348.4 152.5 L 349.2 151.4 L 350.0 150.4 L 350.8 153.5 L 351.5 150.6 L 352.3 145.2 L 353.1 149.0 L 353.9 149.4 L 354.6 147.4 L 355.4 150.1 L 356.2 148.3 L 357.0 150.1 L 357.7 152.4 L 358.5 152.2 L 359.3 148.9 L 360.1 153.1 L 360.8 153.9 L 361.6 153.2 L 362.4 145.9 L 363.2 145.1 L 363.9 148.5 L 364.7 150.1 L 365.5 151.6 L 366.3 149.6 L 367.0 148.9 L 367.8 148.3 L 368.6 149.8 L 369.4 145.6 L 370.1 142.0 L 370.9 145.4 L 371.7 140.8 L 372.5 141.1 L 373.2 142.3 L 374.0 145.2 L 374.8 148.7 L 375.6 147.0 L 376.3 149.5 L 377.1 149.5 L 377.9 148.3 L 378.7 151.8 L 379.4 143.6 L 380.2 140.8 L 381.0 137.9 L 381.8 137.7 L 382.5 138.0 L 383.3 135.0 L 384.1 136.2 L 384.9 137.5 L 385.6 135.2 L 386.4 134.8 L 387.2 134.0 L 388.0 134.3 L 388.7 131.2 L 389.5 131.5 L 390.3 126.2 L 391.1 123.2 L 391.8 122.5 L 392.6 120.2 L 393.4 117.5 L 394.2 115.0 L 394.9 117.6 L 395.7 119.1 L 396.5 117.2 L 397.3 113.8 L 398.0 114.8 L 398.8 106.0 L 399.6 102.6 L 400.4 102.3 L 401.1 104.6 L 401.9 101.5 L 402.7 104.9 L 403.5 90.9 L 404.3 81.5 L 405.0 76.4 L 405.8 83.3 L 406.6 91.7 L 407.4 86.3 L 408.1 88.2 L 408.9 86.3 L 409.7 87.5 L 410.5 89.5 L 411.2 97.6 L 412.0 89.8 L 412.8 97.3 L 413.6 88.0 L 414.3 87.8 L 415.1 88.4 L 415.9 88.3 L 416.7 89.0 L 417.4 93.0 L 418.2 92.0 L 419.0 92.7 L 419.8 90.2 L 420.5 93.6 L 421.3 92.7 L 422.1 90.9 L 422.9 91.7 L 423.6 91.7 L 424.4 88.9 L 425.2 89.4 L 426.0 90.7 L 426.7 80.8 L 427.5 80.8 L 428.3 78.6 L 429.1 80.1 L 429.8 79.6 L 430.6 73.6 L 431.4 70.6 L 432.2 58.8 L 432.9 58.9 L 433.7 59.4 L 434.5 49.4 L 435.3 39.1 L 436.0 45.1 L 436.8 35.7 L 437.6 34.7 L 438.4 40.7 L 439.1 42.7 L 439.9 60.3 L 440.7 46.8 L 441.5 57.4 L 442.2 57.7 L 443.0 65.4 L 443.8 64.1 L 444.6 67.0 L 445.3 61.4 L 446.1 61.7 L 446.9 61.4 L 447.7 58.1 L 448.4 51.5 L 449.2 53.6 L 450.0 61.4 L 450.8 67.4 L 451.5 68.7 L 452.3 64.0 L 453.1 57.0 L 453.9 54.7 L 454.6 46.7 L 455.4 43.0 L 456.2 43.4 L 457.0 40.6 L 457.7 46.4 L 458.5 48.6 L 459.3 53.4 L 460.1 56.4 L 460.8 56.6 L 461.6 52.0 L 462.4 51.8 L 463.2 51.2 L 463.9 57.8 L 464.7 60.8 L 465.5 60.4 L 466.3 61.7 L 467.0 67.6 L 467.8 76.9 L 468.6 82.5 L 469.4 81.1 L 470.1 80.1 L 470.9 77.7 L 471.7 80.2 L 472.5 90.1 L 473.2 85.0 L 474.0 81.3 L 474.8 80.6 L 475.6 78.3 L 476.3 81.9 L 477.1 90.4 L 477.9 93.5 L 478.7 95.9 L 479.5 95.5 L 480.2 87.9 L 481.0 78.0 L 481.8 74.6 L 482.6 75.7 L 483.3 69.9 L 484.1 68.2 L 484.9 67.3 L 485.7 60.8 L 486.4 62.8 L 487.2 65.6 L 488.0 68.0 L 488.8 66.1 L 489.5 64.2 L 490.3 78.3 L 491.1 85.4 L 491.9 83.3 L 492.6 75.7 L 493.4 75.3 L 494.2 86.4 L 495.0 86.1 L 495.7 88.6 L 496.5 84.5 L 497.3 85.2 L 498.1 82.2 L 498.8 86.1 L 499.6 83.9 L 500.4 89.2 L 501.2 90.6 L 501.9 90.1 L 502.7 91.2 L 503.5 89.4 L 504.3 79.2 L 505.0 81.4 L 505.8 81.3 L 506.6 79.0 L 507.4 67.1 L 508.1 83.2 L 508.9 79.4" stroke="black" stroke-width="3"  stroke-linejoin="round" stroke-linecap="round"  stroke-opacity="0.0" transform="translate(1, 1)"></path><path fill="none" d="M 5.0 174.4 L 5.8 177.9 L 6.5 178.1 L 7.3 178.7 L 8.1 185.4 L 8.9 184.4 L 9.6 183.5 L 10.4 185.9 L 11.2 188.4 L 12.0 189.3 L 12.7 190.9 L 13.5 189.7 L 14.3 190.1 L 15.1 190.6 L 15.8 191.7 L 16.6 187.5 L 17.4 184.3 L 18.2 180.0 L 18.9 179.3 L 19.7 179.8 L 20.5 178.2 L 21.3 175.1 L 22.0 176.2 L 22.8 175.0 L 23.6 175.0 L 24.4 177.5 L 25.1 173.6 L 25.9 175.0 L 26.7 170.7 L 27.5 166.9 L 28.2 166.1 L 29.0 168.7 L 29.8 164.6 L 30.6 173.6 L 31.3 178.9 L 32.1 177.6 L 32.9 177.3 L 33.7 177.4 L 34.4 181.7 L 35.2 180.1 L 36.0 179.4 L 36.8 180.9 L 37.6 181.6 L 38.3 182.8 L 39.1 184.4 L 39.9 183.4 L 40.7 186.8 L 41.4 186.8 L 42.2 187.1 L 43.0 186.1 L 43.8 186.1 L 44.5 187.8 L 45.3 183.7 L 46.1 186.9 L 46.9 186.7 L 47.6 185.9 L 48.4 188.0 L 49.2 189.3 L 50.0 191.2 L 50.7 189.6 L 51.5 189.3 L 52.3 187.7 L 53.1 186.1 L 53.8 185.9 L 54.6 189.7 L 55.4 189.0 L 56.2 188.9 L 56.9 189.2 L 57.7 192.7 L 58.5 190.1 L 59.3 190.1 L 60.0 191.2 L 60.8 191.3 L 61.6 190.6 L 62.4 191.6 L 63.1 189.3 L 63.9 185.2 L 64.7 184.4 L 65.5 183.7 L 66.2 183.0 L 67.0 182.1 L 67.8 183.7 L 68.6 179.9 L 69.3 182.5 L 70.1 182.2 L 70.9 185.8 L 71.7 186.3 L 72.4 188.2 L 73.2 187.7 L 74.0 187.5 L 74.8 190.2 L 75.5 189.1 L 76.3 190.2 L 77.1 197.0 L 77.9 197.4 L 78.6 197.1 L 79.4 197.5 L 80.2 195.9 L 81.0 195.0 L 81.7 197.2 L 82.5 195.7 L 83.3 197.0 L 84.1 195.9 L 84.8 197.2 L 85.6 197.2 L 86.4 199.3 L 87.2 201.0 L 87.9 198.5 L 88.7 199.0 L 89.5 199.6 L 90.3 199.1 L 91.0 197.2 L 91.8 196.9 L 92.6 197.8 L 93.4 198.4 L 94.1 198.7 L 94.9 197.1 L 95.7 197.5 L 96.5 203.3 L 97.2 203.7 L 98.0 203.6 L 98.8 203.6 L 99.6 207.6 L 100.3 207.4 L 101.1 208.3 L 101.9 208.5 L 102.7 208.5 L 103.4 207.7 L 104.2 206.1 L 105.0 205.8 L 105.8 199.6 L 106.5 195.5 L 107.3 195.9 L 108.1 196.8 L 108.9 195.1 L 109.6 196.7 L 110.4 192.7 L 111.2 190.7 L 112.0 189.7 L 112.8 192.1 L 113.5 193.5 L 114.3 195.5 L 115.1 194.5 L 115.9 195.9 L 116.6 195.4 L 117.4 196.3 L 118.2 197.7 L 119.0 193.6 L 119.7 195.3 L 120.5 198.5 L 121.3 198.3 L 122.1 196.8 L 122.8 199.0 L 123.6 199.3 L 124.4 200.5 L 125.2 199.9 L 125.9 199.6 L 126.7 197.8 L 127.5 199.8 L 128.3 199.9 L 129.0 203.0 L 129.8 204.5 L 130.6 204.6 L 131.4 205.8 L 132.1 206.7 L 132.9 207.7 L 133.7 206.5 L 134.5 206.1 L 135.2 205.9 L 136.0 206.7 L 136.8 207.0 L 137.6 203.7 L 138.3 202.8 L 139.1 203.1 L 139.9 203.4 L 140.7 204.2 L 141.4 203.6 L 142.2 203.5 L 143.0 203.9 L 143.8 206.0 L 144.5 206.4 L 145.3 208.5 L 146.1 206.1 L 146.9 206.4 L 147.6 203.2 L 148.4 199.8 L 149.2 200.1 L 150.0 201.4 L 150.7 200.8 L 151.5 199.3 L 152.3 200.5 L 153.1 203.0 L 153.8 203.1 L 154.6 203.1 L 155.4 203.5 L 156.2 200.5 L 156.9 201.1 L 157.7 197.8 L 158.5 197.3 L 159.3 198.3 L 160.0 198.7 L 160.8 198.1 L 161.6 204.2 L 162.4 203.4 L 163.1 203.8 L 163.9 203.2 L 164.7 203.0 L 165.5 202.8 L 166.2 198.4 L 167.0 195.5 L 167.8 195.6 L 168.6 197.2 L 169.3 196.9 L 170.1 197.5 L 170.9 199.9 L 171.7 201.7 L 172.4 201.0 L 173.2 202.1 L 174.0 201.8 L 174.8 200.0 L 175.5 203.6 L 176.3 203.9 L 177.1 204.2 L 177.9 204.6 L 178.6 206.7 L 179.4 205.7 L 180.2 205.1 L 181.0 205.9 L 181.7 205.8 L 182.5 205.8 L 183.3 206.1 L 184.1 203.8 L 184.9 204.6 L 185.6 208.4 L 186.4 207.4 L 187.2 205.8 L 188.0 206.1 L 188.7 205.6 L 189.5 210.7 L 190.3 211.4 L 191.1 211.4 L 191.8 211.3 L 192.6 210.6 L 193.4 212.4 L 194.2 211.1 L 194.9 212.8 L 195.7 212.7 L 196.5 213.1 L 197.3 213.6 L 198.0 209.6 L 198.8 207.4 L 199.6 208.1 L 200.4 208.3 L 201.1 209.8 L 201.9 209.4 L 202.7 207.7 L 203.5 205.9 L 204.2 206.4 L 205.0 206.4 L 205.8 207.2 L 206.6 208.0 L 207.3 207.0 L 208.1 205.1 L 208.9 204.4 L 209.7 204.4 L 210.4 205.9 L 211.2 208.2 L 212.0 210.5 L 212.8 211.8 L 213.5 211.7 L 214.3 210.2 L 215.1 209.1 L 215.9 208.9 L 216.6 208.9 L 217.4 208.9 L 218.2 208.9 L 219.0 208.9 L 219.7 208.0 L 220.5 208.5 L 221.3 208.9 L 222.1 209.6 L 222.8 209.6 L 223.6 209.8 L 224.4 210.3 L 225.2 208.8 L 225.9 211.0 L 226.7 211.1 L 227.5 211.1 L 228.3 211.1 L 229.0 211.3 L 229.8 213.3 L 230.6 212.7 L 231.4 209.9 L 232.1 206.7 L 232.9 206.7 L 233.7 206.6 L 234.5 204.5 L 235.2 204.9 L 236.0 204.7 L 236.8 204.1 L 237.6 204.4 L 238.3 204.6 L 239.1 204.4 L 239.9 203.7 L 240.7 202.5 L 241.4 201.6 L 242.2 201.4 L 243.0 202.1 L 243.8 201.6 L 244.5 199.9 L 245.3 200.4 L 246.1 201.5 L 246.9 201.4 L 247.6 200.1 L 248.4 201.4 L 249.2 200.2 L 250.0 202.7 L 250.7 202.0 L 251.5 202.2 L 252.3 200.0 L 253.1 198.1 L 253.8 197.5 L 254.6 198.3 L 255.4 197.9 L 256.2 197.6 L 257 199.2 L 257.7 198.0 L 258.5 200.0 L 259.3 200.5 L 260.1 200.2 L 260.8 199.9 L 261.6 200.5 L 262.4 200.5 L 263.2 201.5 L 263.9 200.7 L 264.7 202.2 L 265.5 202.0 L 266.3 203.9 L 267.0 203.5 L 267.8 202.7 L 268.6 200.7 L 269.4 200.0 L 270.1 199.7 L 270.9 200.5 L 271.7 200.8 L 272.5 202.1 L 273.2 200.6 L 274.0 200.5 L 274.8 200.3 L 275.6 201.1 L 276.3 199.0 L 277.1 197.2 L 277.9 197.3 L 278.7 197.1 L 279.4 197.4 L 280.2 197.1 L 281.0 194.6 L 281.8 194.6 L 282.5 194.6 L 283.3 193.2 L 284.1 193.1 L 284.9 193.7 L 285.6 192.3 L 286.4 191.8 L 287.2 191.5 L 288.0 193.2 L 288.7 193.1 L 289.5 192.9 L 290.3 190.9 L 291.1 191.2 L 291.8 190.4 L 292.6 192.4 L 293.4 192.1 L 294.2 191.4 L 294.9 190.6 L 295.7 190.5 L 296.5 190.5 L 297.3 191.9 L 298.0 191.5 L 298.8 190.4 L 299.6 188.5 L 300.4 186.0 L 301.1 186.9 L 301.9 185.3 L 302.7 183.3 L 303.5 183.1 L 304.2 182.1 L 305.0 183.1 L 305.8 182.7 L 306.6 180.5 L 307.3 180.2 L 308.1 180.2 L 308.9 180.5 L 309.7 181.2 L 310.4 172.1 L 311.2 172.3 L 312.0 172.4 L 312.8 170.0 L 313.5 171.7 L 314.3 170.8 L 315.1 171.3 L 315.9 173.0 L 316.6 172.7 L 317.4 171.9 L 318.2 172.8 L 319.0 168.5 L 319.7 171.0 L 320.5 166.9 L 321.3 167.3 L 322.1 167.8 L 322.8 167.6 L 323.6 164.6 L 324.4 163.2 L 325.2 160.1 L 325.9 159.5 L 326.7 160.1 L 327.5 157.6 L 328.3 157.2 L 329.0 159.4 L 329.8 152.1 L 330.6 151.9 L 331.4 158.6 L 332.2 159.4 L 332.9 162.4 L 333.7 160.4 L 334.5 157.4 L 335.3 157.9 L 336.0 163.2 L 336.8 158.8 L 337.6 167.2 L 338.4 166.0 L 339.1 163.8 L 339.9 163.1 L 340.7 165.4 L 341.5 161.6 L 342.2 158.5 L 343.0 158.3 L 343.8 159.4 L 344.6 159.7 L 345.3 160.7 L 346.1 162.4 L 346.9 157.6 L 347.7 156.7 L 348.4 152.5 L 349.2 151.4 L 350.0 150.4 L 350.8 153.5 L 351.5 150.6 L 352.3 145.2 L 353.1 149.0 L 353.9 149.4 L 354.6 147.4 L 355.4 150.1 L 356.2 148.3 L 357.0 150.1 L 357.7 152.4 L 358.5 152.2 L 359.3 148.9 L 360.1 153.1 L 360.8 153.9 L 361.6 153.2 L 362.4 145.9 L 363.2 145.1 L 363.9 148.5 L 364.7 150.1 L 365.5 151.6 L 366.3 149.6 L 367.0 148.9 L 367.8 148.3 L 368.6 149.8 L 369.4 145.6 L 370.1 142.0 L 370.9 145.4 L 371.7 140.8 L 372.5 141.1 L 373.2 142.3 L 374.0 145.2 L 374.8 148.7 L 375.6 147.0 L 376.3 149.5 L 377.1 149.5 L 377.9 148.3 L 378.7 151.8 L 379.4 143.6 L 380.2 140.8 L 381.0 137.9 L 381.8 137.7 L 382.5 138.0 L 383.3 135.0 L 384.1 136.2 L 384.9 137.5 L 385.6 135.2 L 386.4 134.8 L 387.2 134.0 L 388.0 134.3 L 388.7 131.2 L 389.5 131.5 L 390.3 126.2 L 391.1 123.2 L 391.8 122.5 L 392.6 120.2 L 393.4 117.5 L 394.2 115.0 L 394.9 117.6 L 395.7 119.1 L 396.5 117.2 L 397.3 113.8 L 398.0 114.8 L 398.8 106.0 L 399.6 102.6 L 400.4 102.3 L 401.1 104.6 L 401.9 101.5 L 402.7 104.9 L 403.5 90.9 L 404.3 81.5 L 405.0 76.4 L 405.8 83.3 L 406.6 91.7 L 407.4 86.3 L 408.1 88.2 L 408.9 86.3 L 409.7 87.5 L 410.5 89.5 L 411.2 97.6 L 412.0 89.8 L 412.8 97.3 L 413.6 88.0 L 414.3 87.8 L 415.1 88.4 L 415.9 88.3 L 416.7 89.0 L 417.4 93.0 L 418.2 92.0 L 419.0 92.7 L 419.8 90.2 L 420.5 93.6 L 421.3 92.7 L 422.1 90.9 L 422.9 91.7 L 423.6 91.7 L 424.4 88.9 L 425.2 89.4 L 426.0 90.7 L 426.7 80.8 L 427.5 80.8 L 428.3 78.6 L 429.1 80.1 L 429.8 79.6 L 430.6 73.6 L 431.4 70.6 L 432.2 58.8 L 432.9 58.9 L 433.7 59.4 L 434.5 49.4 L 435.3 39.1 L 436.0 45.1 L 436.8 35.7 L 437.6 34.7 L 438.4 40.7 L 439.1 42.7 L 439.9 60.3 L 440.7 46.8 L 441.5 57.4 L 442.2 57.7 L 443.0 65.4 L 443.8 64.1 L 444.6 67.0 L 445.3 61.4 L 446.1 61.7 L 446.9 61.4 L 447.7 58.1 L 448.4 51.5 L 449.2 53.6 L 450.0 61.4 L 450.8 67.4 L 451.5 68.7 L 452.3 64.0 L 453.1 57.0 L 453.9 54.7 L 454.6 46.7 L 455.4 43.0 L 456.2 43.4 L 457.0 40.6 L 457.7 46.4 L 458.5 48.6 L 459.3 53.4 L 460.1 56.4 L 460.8 56.6 L 461.6 52.0 L 462.4 51.8 L 463.2 51.2 L 463.9 57.8 L 464.7 60.8 L 465.5 60.4 L 466.3 61.7 L 467.0 67.6 L 467.8 76.9 L 468.6 82.5 L 469.4 81.1 L 470.1 80.1 L 470.9 77.7 L 471.7 80.2 L 472.5 90.1 L 473.2 85.0 L 474.0 81.3 L 474.8 80.6 L 475.6 78.3 L 476.3 81.9 L 477.1 90.4 L 477.9 93.5 L 478.7 95.9 L 479.5 95.5 L 480.2 87.9 L 481.0 78.0 L 481.8 74.6 L 482.6 75.7 L 483.3 69.9 L 484.1 68.2 L 484.9 67.3 L 485.7 60.8 L 486.4 62.8 L 487.2 65.6 L 488.0 68.0 L 488.8 66.1 L 489.5 64.2 L 490.3 78.3 L 491.1 85.4 L 491.9 83.3 L 492.6 75.7 L 493.4 75.3 L 494.2 86.4 L 495.0 86.1 L 495.7 88.6 L 496.5 84.5 L 497.3 85.2 L 498.1 82.2 L 498.8 86.1 L 499.6 83.9 L 500.4 89.2 L 501.2 90.6 L 501.9 90.1 L 502.7 91.2 L 503.5 89.4 L 504.3 79.2 L 505.0 81.4 L 505.8 81.3 L 506.6 79.0 L 507.4 67.1 L 508.1 83.2 L 508.9 79.4" stroke="black" stroke-width="1"  stroke-linejoin="round" stroke-linecap="round"  stroke-opacity="0.1" transform="translate(1, 1)"></path><path fill="none" d="M 5.0 174.4 L 5.8 177.9 L 6.5 178.1 L 7.3 178.7 L 8.1 185.4 L 8.9 184.4 L 9.6 183.5 L 10.4 185.9 L 11.2 188.4 L 12.0 189.3 L 12.7 190.9 L 13.5 189.7 L 14.3 190.1 L 15.1 190.6 L 15.8 191.7 L 16.6 187.5 L 17.4 184.3 L 18.2 180.0 L 18.9 179.3 L 19.7 179.8 L 20.5 178.2 L 21.3 175.1 L 22.0 176.2 L 22.8 175.0 L 23.6 175.0 L 24.4 177.5 L 25.1 173.6 L 25.9 175.0 L 26.7 170.7 L 27.5 166.9 L 28.2 166.1 L 29.0 168.7 L 29.8 164.6 L 30.6 173.6 L 31.3 178.9 L 32.1 177.6 L 32.9 177.3 L 33.7 177.4 L 34.4 181.7 L 35.2 180.1 L 36.0 179.4 L 36.8 180.9 L 37.6 181.6 L 38.3 182.8 L 39.1 184.4 L 39.9 183.4 L 40.7 186.8 L 41.4 186.8 L 42.2 187.1 L 43.0 186.1 L 43.8 186.1 L 44.5 187.8 L 45.3 183.7 L 46.1 186.9 L 46.9 186.7 L 47.6 185.9 L 48.4 188.0 L 49.2 189.3 L 50.0 191.2 L 50.7 189.6 L 51.5 189.3 L 52.3 187.7 L 53.1 186.1 L 53.8 185.9 L 54.6 189.7 L 55.4 189.0 L 56.2 188.9 L 56.9 189.2 L 57.7 192.7 L 58.5 190.1 L 59.3 190.1 L 60.0 191.2 L 60.8 191.3 L 61.6 190.6 L 62.4 191.6 L 63.1 189.3 L 63.9 185.2 L 64.7 184.4 L 65.5 183.7 L 66.2 183.0 L 67.0 182.1 L 67.8 183.7 L 68.6 179.9 L 69.3 182.5 L 70.1 182.2 L 70.9 185.8 L 71.7 186.3 L 72.4 188.2 L 73.2 187.7 L 74.0 187.5 L 74.8 190.2 L 75.5 189.1 L 76.3 190.2 L 77.1 197.0 L 77.9 197.4 L 78.6 197.1 L 79.4 197.5 L 80.2 195.9 L 81.0 195.0 L 81.7 197.2 L 82.5 195.7 L 83.3 197.0 L 84.1 195.9 L 84.8 197.2 L 85.6 197.2 L 86.4 199.3 L 87.2 201.0 L 87.9 198.5 L 88.7 199.0 L 89.5 199.6 L 90.3 199.1 L 91.0 197.2 L 91.8 196.9 L 92.6 197.8 L 93.4 198.4 L 94.1 198.7 L 94.9 197.1 L 95.7 197.5 L 96.5 203.3 L 97.2 203.7 L 98.0 203.6 L 98.8 203.6 L 99.6 207.6 L 100.3 207.4 L 101.1 208.3 L 101.9 208.5 L 102.7 208.5 L 103.4 207.7 L 104.2 206.1 L 105.0 205.8 L 105.8 199.6 L 106.5 195.5 L 107.3 195.9 L 108.1 196.8 L 108.9 195.1 L 109.6 196.7 L 110.4 192.7 L 111.2 190.7 L 112.0 189.7 L 112.8 192.1 L 113.5 193.5 L 114.3 195.5 L 115.1 194.5 L 115.9 195.9 L 116.6 195.4 L 117.4 196.3 L 118.2 197.7 L 119.0 193.6 L 119.7 195.3 L 120.5 198.5 L 121.3 198.3 L 122.1 196.8 L 122.8 199.0 L 123.6 199.3 L 124.4 200.5 L 125.2 199.9 L 125.9 199.6 L 126.7 197.8 L 127.5 199.8 L 128.3 199.9 L 129.0 203.0 L 129.8 204.5 L 130.6 204.6 L 131.4 205.8 L 132.1 206.7 L 132.9 207.7 L 133.7 206.5 L 134.5 206.1 L 135.2 205.9 L 136.0 206.7 L 136.8 207.0 L 137.6 203.7 L 138.3 202.8 L 139.1 203.1 L 139.9 203.4 L 140.7 204.2 L 141.4 203.6 L 142.2 203.5 L 143.0 203.9 L 143.8 206.0 L 144.5 206.4 L 145.3 208.5 L 146.1 206.1 L 146.9 206.4 L 147.6 203.2 L 148.4 199.8 L 149.2 200.1 L 150.0 201.4 L 150.7 200.8 L 151.5 199.3 L 152.3 200.5 L 153.1 203.0 L 153.8 203.1 L 154.6 203.1 L 155.4 203.5 L 156.2 200.5 L 156.9 201.1 L 157.7 197.8 L 158.5 197.3 L 159.3 198.3 L 160.0 198.7 L 160.8 198.1 L 161.6 204.2 L 162.4 203.4 L 163.1 203.8 L 163.9 203.2 L 164.7 203.0 L 165.5 202.8 L 166.2 198.4 L 167.0 195.5 L 167.8 195.6 L 168.6 197.2 L 169.3 196.9 L 170.1 197.5 L 170.9 199.9 L 171.7 201.7 L 172.4 201.0 L 173.2 202.1 L 174.0 201.8 L 174.8 200.0 L 175.5 203.6 L 176.3 203.9 L 177.1 204.2 L 177.9 204.6 L 178.6 206.7 L 179.4 205.7 L 180.2 205.1 L 181.0 205.9 L 181.7 205.8 L 182.5 205.8 L 183.3 206.1 L 184.1 203.8 L 184.9 204.6 L 185.6 208.4 L 186.4 207.4 L 187.2 205.8 L 188.0 206.1 L 188.7 205.6 L 189.5 210.7 L 190.3 211.4 L 191.1 211.4 L 191.8 211.3 L 192.6 210.6 L 193.4 212.4 L 194.2 211.1 L 194.9 212.8 L 195.7 212.7 L 196.5 213.1 L 197.3 213.6 L 198.0 209.6 L 198.8 207.4 L 199.6 208.1 L 200.4 208.3 L 201.1 209.8 L 201.9 209.4 L 202.7 207.7 L 203.5 205.9 L 204.2 206.4 L 205.0 206.4 L 205.8 207.2 L 206.6 208.0 L 207.3 207.0 L 208.1 205.1 L 208.9 204.4 L 209.7 204.4 L 210.4 205.9 L 211.2 208.2 L 212.0 210.5 L 212.8 211.8 L 213.5 211.7 L 214.3 210.2 L 215.1 209.1 L 215.9 208.9 L 216.6 208.9 L 217.4 208.9 L 218.2 208.9 L 219.0 208.9 L 219.7 208.0 L 220.5 208.5 L 221.3 208.9 L 222.1 209.6 L 222.8 209.6 L 223.6 209.8 L 224.4 210.3 L 225.2 208.8 L 225.9 211.0 L 226.7 211.1 L 227.5 211.1 L 228.3 211.1 L 229.0 211.3 L 229.8 213.3 L 230.6 212.7 L 231.4 209.9 L 232.1 206.7 L 232.9 206.7 L 233.7 206.6 L 234.5 204.5 L 235.2 204.9 L 236.0 204.7 L 236.8 204.1 L 237.6 204.4 L 238.3 204.6 L 239.1 204.4 L 239.9 203.7 L 240.7 202.5 L 241.4 201.6 L 242.2 201.4 L 243.0 202.1 L 243.8 201.6 L 244.5 199.9 L 245.3 200.4 L 246.1 201.5 L 246.9 201.4 L 247.6 200.1 L 248.4 201.4 L 249.2 200.2 L 250.0 202.7 L 250.7 202.0 L 251.5 202.2 L 252.3 200.0 L 253.1 198.1 L 253.8 197.5 L 254.6 198.3 L 255.4 197.9 L 256.2 197.6 L 257 199.2 L 257.7 198.0 L 258.5 200.0 L 259.3 200.5 L 260.1 200.2 L 260.8 199.9 L 261.6 200.5 L 262.4 200.5 L 263.2 201.5 L 263.9 200.7 L 264.7 202.2 L 265.5 202.0 L 266.3 203.9 L 267.0 203.5 L 267.8 202.7 L 268.6 200.7 L 269.4 200.0 L 270.1 199.7 L 270.9 200.5 L 271.7 200.8 L 272.5 202.1 L 273.2 200.6 L 274.0 200.5 L 274.8 200.3 L 275.6 201.1 L 276.3 199.0 L 277.1 197.2 L 277.9 197.3 L 278.7 197.1 L 279.4 197.4 L 280.2 197.1 L 281.0 194.6 L 281.8 194.6 L 282.5 194.6 L 283.3 193.2 L 284.1 193.1 L 284.9 193.7 L 285.6 192.3 L 286.4 191.8 L 287.2 191.5 L 288.0 193.2 L 288.7 193.1 L 289.5 192.9 L 290.3 190.9 L 291.1 191.2 L 291.8 190.4 L 292.6 192.4 L 293.4 192.1 L 294.2 191.4 L 294.9 190.6 L 295.7 190.5 L 296.5 190.5 L 297.3 191.9 L 298.0 191.5 L 298.8 190.4 L 299.6 188.5 L 300.4 186.0 L 301.1 186.9 L 301.9 185.3 L 302.7 183.3 L 303.5 183.1 L 304.2 182.1 L 305.0 183.1 L 305.8 182.7 L 306.6 180.5 L 307.3 180.2 L 308.1 180.2 L 308.9 180.5 L 309.7 181.2 L 310.4 172.1 L 311.2 172.3 L 312.0 172.4 L 312.8 170.0 L 313.5 171.7 L 314.3 170.8 L 315.1 171.3 L 315.9 173.0 L 316.6 172.7 L 317.4 171.9 L 318.2 172.8 L 319.0 168.5 L 319.7 171.0 L 320.5 166.9 L 321.3 167.3 L 322.1 167.8 L 322.8 167.6 L 323.6 164.6 L 324.4 163.2 L 325.2 160.1 L 325.9 159.5 L 326.7 160.1 L 327.5 157.6 L 328.3 157.2 L 329.0 159.4 L 329.8 152.1 L 330.6 151.9 L 331.4 158.6 L 332.2 159.4 L 332.9 162.4 L 333.7 160.4 L 334.5 157.4 L 335.3 157.9 L 336.0 163.2 L 336.8 158.8 L 337.6 167.2 L 338.4 166.0 L 339.1 163.8 L 339.9 163.1 L 340.7 165.4 L 341.5 161.6 L 342.2 158.5 L 343.0 158.3 L 343.8 159.4 L 344.6 159.7 L 345.3 160.7 L 346.1 162.4 L 346.9 157.6 L 347.7 156.7 L 348.4 152.5 L 349.2 151.4 L 350.0 150.4 L 350.8 153.5 L 351.5 150.6 L 352.3 145.2 L 353.1 149.0 L 353.9 149.4 L 354.6 147.4 L 355.4 150.1 L 356.2 148.3 L 357.0 150.1 L 357.7 152.4 L 358.5 152.2 L 359.3 148.9 L 360.1 153.1 L 360.8 153.9 L 361.6 153.2 L 362.4 145.9 L 363.2 145.1 L 363.9 148.5 L 364.7 150.1 L 365.5 151.6 L 366.3 149.6 L 367.0 148.9 L 367.8 148.3 L 368.6 149.8 L 369.4 145.6 L 370.1 142.0 L 370.9 145.4 L 371.7 140.8 L 372.5 141.1 L 373.2 142.3 L 374.0 145.2 L 374.8 148.7 L 375.6 147.0 L 376.3 149.5 L 377.1 149.5 L 377.9 148.3 L 378.7 151.8 L 379.4 143.6 L 380.2 140.8 L 381.0 137.9 L 381.8 137.7 L 382.5 138.0 L 383.3 135.0 L 384.1 136.2 L 384.9 137.5 L 385.6 135.2 L 386.4 134.8 L 387.2 134.0 L 388.0 134.3 L 388.7 131.2 L 389.5 131.5 L 390.3 126.2 L 391.1 123.2 L 391.8 122.5 L 392.6 120.2 L 393.4 117.5 L 394.2 115.0 L 394.9 117.6 L 395.7 119.1 L 396.5 117.2 L 397.3 113.8 L 398.0 114.8 L 398.8 106.0 L 399.6 102.6 L 400.4 102.3 L 401.1 104.6 L 401.9 101.5 L 402.7 104.9 L 403.5 90.9 L 404.3 81.5 L 405.0 76.4 L 405.8 83.3 L 406.6 91.7 L 407.4 86.3 L 408.1 88.2 L 408.9 86.3 L 409.7 87.5 L 410.5 89.5 L 411.2 97.6 L 412.0 89.8 L 412.8 97.3 L 413.6 88.0 L 414.3 87.8 L 415.1 88.4 L 415.9 88.3 L 416.7 89.0 L 417.4 93.0 L 418.2 92.0 L 419.0 92.7 L 419.8 90.2 L 420.5 93.6 L 421.3 92.7 L 422.1 90.9 L 422.9 91.7 L 423.6 91.7 L 424.4 88.9 L 425.2 89.4 L 426.0 90.7 L 426.7 80.8 L 427.5 80.8 L 428.3 78.6 L 429.1 80.1 L 429.8 79.6 L 430.6 73.6 L 431.4 70.6 L 432.2 58.8 L 432.9 58.9 L 433.7 59.4 L 434.5 49.4 L 435.3 39.1 L 436.0 45.1 L 436.8 35.7 L 437.6 34.7 L 438.4 40.7 L 439.1 42.7 L 439.9 60.3 L 440.7 46.8 L 441.5 57.4 L 442.2 57.7 L 443.0 65.4 L 443.8 64.1 L 444.6 67.0 L 445.3 61.4 L 446.1 61.7 L 446.9 61.4 L 447.7 58.1 L 448.4 51.5 L 449.2 53.6 L 450.0 61.4 L 450.8 67.4 L 451.5 68.7 L 452.3 64.0 L 453.1 57.0 L 453.9 54.7 L 454.6 46.7 L 455.4 43.0 L 456.2 43.4 L 457.0 40.6 L 457.7 46.4 L 458.5 48.6 L 459.3 53.4 L 460.1 56.4 L 460.8 56.6 L 461.6 52.0 L 462.4 51.8 L 463.2 51.2 L 463.9 57.8 L 464.7 60.8 L 465.5 60.4 L 466.3 61.7 L 467.0 67.6 L 467.8 76.9 L 468.6 82.5 L 469.4 81.1 L 470.1 80.1 L 470.9 77.7 L 471.7 80.2 L 472.5 90.1 L 473.2 85.0 L 474.0 81.3 L 474.8 80.6 L 475.6 78.3 L 476.3 81.9 L 477.1 90.4 L 477.9 93.5 L 478.7 95.9 L 479.5 95.5 L 480.2 87.9 L 481.0 78.0 L 481.8 74.6 L 482.6 75.7 L 483.3 69.9 L 484.1 68.2 L 484.9 67.3 L 485.7 60.8 L 486.4 62.8 L 487.2 65.6 L 488.0 68.0 L 488.8 66.1 L 489.5 64.2 L 490.3 78.3 L 491.1 85.4 L 491.9 83.3 L 492.6 75.7 L 493.4 75.3 L 494.2 86.4 L 495.0 86.1 L 495.7 88.6 L 496.5 84.5 L 497.3 85.2 L 498.1 82.2 L 498.8 86.1 L 499.6 83.9 L 500.4 89.2 L 501.2 90.6 L 501.9 90.1 L 502.7 91.2 L 503.5 89.4 L 504.3 79.2 L 505.0 81.4 L 505.8 81.3 L 506.6 79.0 L 507.4 67.1 L 508.1 83.2 L 508.9 79.4" stroke="#f45b5b" stroke-width="2"  stroke-linejoin="round" stroke-linecap="round"></path><path fill="none" d="M -4.9 174.4 L 5.0 174.4 L 5.8 177.9 L 6.5 178.1 L 7.3 178.7 L 8.1 185.4 L 8.9 184.4 L 9.6 183.5 L 10.4 185.9 L 11.2 188.4 L 12.0 189.3 L 12.7 190.9 L 13.5 189.7 L 14.3 190.1 L 15.1 190.6 L 15.8 191.7 L 16.6 187.5 L 17.4 184.3 L 18.2 180.0 L 18.9 179.3 L 19.7 179.8 L 20.5 178.2 L 21.3 175.1 L 22.0 176.2 L 22.8 175.0 L 23.6 175.0 L 24.4 177.5 L 25.1 173.6 L 25.9 175.0 L 26.7 170.7 L 27.5 166.9 L 28.2 166.1 L 29.0 168.7 L 29.8 164.6 L 30.6 173.6 L 31.3 178.9 L 32.1 177.6 L 32.9 177.3 L 33.7 177.4 L 34.4 181.7 L 35.2 180.1 L 36.0 179.4 L 36.8 180.9 L 37.6 181.6 L 38.3 182.8 L 39.1 184.4 L 39.9 183.4 L 40.7 186.8 L 41.4 186.8 L 42.2 187.1 L 43.0 186.1 L 43.8 186.1 L 44.5 187.8 L 45.3 183.7 L 46.1 186.9 L 46.9 186.7 L 47.6 185.9 L 48.4 188.0 L 49.2 189.3 L 50.0 191.2 L 50.7 189.6 L 51.5 189.3 L 52.3 187.7 L 53.1 186.1 L 53.8 185.9 L 54.6 189.7 L 55.4 189.0 L 56.2 188.9 L 56.9 189.2 L 57.7 192.7 L 58.5 190.1 L 59.3 190.1 L 60.0 191.2 L 60.8 191.3 L 61.6 190.6 L 62.4 191.6 L 63.1 189.3 L 63.9 185.2 L 64.7 184.4 L 65.5 183.7 L 66.2 183.0 L 67.0 182.1 L 67.8 183.7 L 68.6 179.9 L 69.3 182.5 L 70.1 182.2 L 70.9 185.8 L 71.7 186.3 L 72.4 188.2 L 73.2 187.7 L 74.0 187.5 L 74.8 190.2 L 75.5 189.1 L 76.3 190.2 L 77.1 197.0 L 77.9 197.4 L 78.6 197.1 L 79.4 197.5 L 80.2 195.9 L 81.0 195.0 L 81.7 197.2 L 82.5 195.7 L 83.3 197.0 L 84.1 195.9 L 84.8 197.2 L 85.6 197.2 L 86.4 199.3 L 87.2 201.0 L 87.9 198.5 L 88.7 199.0 L 89.5 199.6 L 90.3 199.1 L 91.0 197.2 L 91.8 196.9 L 92.6 197.8 L 93.4 198.4 L 94.1 198.7 L 94.9 197.1 L 95.7 197.5 L 96.5 203.3 L 97.2 203.7 L 98.0 203.6 L 98.8 203.6 L 99.6 207.6 L 100.3 207.4 L 101.1 208.3 L 101.9 208.5 L 102.7 208.5 L 103.4 207.7 L 104.2 206.1 L 105.0 205.8 L 105.8 199.6 L 106.5 195.5 L 107.3 195.9 L 108.1 196.8 L 108.9 195.1 L 109.6 196.7 L 110.4 192.7 L 111.2 190.7 L 112.0 189.7 L 112.8 192.1 L 113.5 193.5 L 114.3 195.5 L 115.1 194.5 L 115.9 195.9 L 116.6 195.4 L 117.4 196.3 L 118.2 197.7 L 119.0 193.6 L 119.7 195.3 L 120.5 198.5 L 121.3 198.3 L 122.1 196.8 L 122.8 199.0 L 123.6 199.3 L 124.4 200.5 L 125.2 199.9 L 125.9 199.6 L 126.7 197.8 L 127.5 199.8 L 128.3 199.9 L 129.0 203.0 L 129.8 204.5 L 130.6 204.6 L 131.4 205.8 L 132.1 206.7 L 132.9 207.7 L 133.7 206.5 L 134.5 206.1 L 135.2 205.9 L 136.0 206.7 L 136.8 207.0 L 137.6 203.7 L 138.3 202.8 L 139.1 203.1 L 139.9 203.4 L 140.7 204.2 L 141.4 203.6 L 142.2 203.5 L 143.0 203.9 L 143.8 206.0 L 144.5 206.4 L 145.3 208.5 L 146.1 206.1 L 146.9 206.4 L 147.6 203.2 L 148.4 199.8 L 149.2 200.1 L 150.0 201.4 L 150.7 200.8 L 151.5 199.3 L 152.3 200.5 L 153.1 203.0 L 153.8 203.1 L 154.6 203.1 L 155.4 203.5 L 156.2 200.5 L 156.9 201.1 L 157.7 197.8 L 158.5 197.3 L 159.3 198.3 L 160.0 198.7 L 160.8 198.1 L 161.6 204.2 L 162.4 203.4 L 163.1 203.8 L 163.9 203.2 L 164.7 203.0 L 165.5 202.8 L 166.2 198.4 L 167.0 195.5 L 167.8 195.6 L 168.6 197.2 L 169.3 196.9 L 170.1 197.5 L 170.9 199.9 L 171.7 201.7 L 172.4 201.0 L 173.2 202.1 L 174.0 201.8 L 174.8 200.0 L 175.5 203.6 L 176.3 203.9 L 177.1 204.2 L 177.9 204.6 L 178.6 206.7 L 179.4 205.7 L 180.2 205.1 L 181.0 205.9 L 181.7 205.8 L 182.5 205.8 L 183.3 206.1 L 184.1 203.8 L 184.9 204.6 L 185.6 208.4 L 186.4 207.4 L 187.2 205.8 L 188.0 206.1 L 188.7 205.6 L 189.5 210.7 L 190.3 211.4 L 191.1 211.4 L 191.8 211.3 L 192.6 210.6 L 193.4 212.4 L 194.2 211.1 L 194.9 212.8 L 195.7 212.7 L 196.5 213.1 L 197.3 213.6 L 198.0 209.6 L 198.8 207.4 L 199.6 208.1 L 200.4 208.3 L 201.1 209.8 L 201.9 209.4 L 202.7 207.7 L 203.5 205.9 L 204.2 206.4 L 205.0 206.4 L 205.8 207.2 L 206.6 208.0 L 207.3 207.0 L 208.1 205.1 L 208.9 204.4 L 209.7 204.4 L 210.4 205.9 L 211.2 208.2 L 212.0 210.5 L 212.8 211.8 L 213.5 211.7 L 214.3 210.2 L 215.1 209.1 L 215.9 208.9 L 216.6 208.9 L 217.4 208.9 L 218.2 208.9 L 219.0 208.9 L 219.7 208.0 L 220.5 208.5 L 221.3 208.9 L 222.1 209.6 L 222.8 209.6 L 223.6 209.8 L 224.4 210.3 L 225.2 208.8 L 225.9 211.0 L 226.7 211.1 L 227.5 211.1 L 228.3 211.1 L 229.0 211.3 L 229.8 213.3 L 230.6 212.7 L 231.4 209.9 L 232.1 206.7 L 232.9 206.7 L 233.7 206.6 L 234.5 204.5 L 235.2 204.9 L 236.0 204.7 L 236.8 204.1 L 237.6 204.4 L 238.3 204.6 L 239.1 204.4 L 239.9 203.7 L 240.7 202.5 L 241.4 201.6 L 242.2 201.4 L 243.0 202.1 L 243.8 201.6 L 244.5 199.9 L 245.3 200.4 L 246.1 201.5 L 246.9 201.4 L 247.6 200.1 L 248.4 201.4 L 249.2 200.2 L 250.0 202.7 L 250.7 202.0 L 251.5 202.2 L 252.3 200.0 L 253.1 198.1 L 253.8 197.5 L 254.6 198.3 L 255.4 197.9 L 256.2 197.6 L 257 199.2 L 257.7 198.0 L 258.5 200.0 L 259.3 200.5 L 260.1 200.2 L 260.8 199.9 L 261.6 200.5 L 262.4 200.5 L 263.2 201.5 L 263.9 200.7 L 264.7 202.2 L 265.5 202.0 L 266.3 203.9 L 267.0 203.5 L 267.8 202.7 L 268.6 200.7 L 269.4 200.0 L 270.1 199.7 L 270.9 200.5 L 271.7 200.8 L 272.5 202.1 L 273.2 200.6 L 274.0 200.5 L 274.8 200.3 L 275.6 201.1 L 276.3 199.0 L 277.1 197.2 L 277.9 197.3 L 278.7 197.1 L 279.4 197.4 L 280.2 197.1 L 281.0 194.6 L 281.8 194.6 L 282.5 194.6 L 283.3 193.2 L 284.1 193.1 L 284.9 193.7 L 285.6 192.3 L 286.4 191.8 L 287.2 191.5 L 288.0 193.2 L 288.7 193.1 L 289.5 192.9 L 290.3 190.9 L 291.1 191.2 L 291.8 190.4 L 292.6 192.4 L 293.4 192.1 L 294.2 191.4 L 294.9 190.6 L 295.7 190.5 L 296.5 190.5 L 297.3 191.9 L 298.0 191.5 L 298.8 190.4 L 299.6 188.5 L 300.4 186.0 L 301.1 186.9 L 301.9 185.3 L 302.7 183.3 L 303.5 183.1 L 304.2 182.1 L 305.0 183.1 L 305.8 182.7 L 306.6 180.5 L 307.3 180.2 L 308.1 180.2 L 308.9 180.5 L 309.7 181.2 L 310.4 172.1 L 311.2 172.3 L 312.0 172.4 L 312.8 170.0 L 313.5 171.7 L 314.3 170.8 L 315.1 171.3 L 315.9 173.0 L 316.6 172.7 L 317.4 171.9 L 318.2 172.8 L 319.0 168.5 L 319.7 171.0 L 320.5 166.9 L 321.3 167.3 L 322.1 167.8 L 322.8 167.6 L 323.6 164.6 L 324.4 163.2 L 325.2 160.1 L 325.9 159.5 L 326.7 160.1 L 327.5 157.6 L 328.3 157.2 L 329.0 159.4 L 329.8 152.1 L 330.6 151.9 L 331.4 158.6 L 332.2 159.4 L 332.9 162.4 L 333.7 160.4 L 334.5 157.4 L 335.3 157.9 L 336.0 163.2 L 336.8 158.8 L 337.6 167.2 L 338.4 166.0 L 339.1 163.8 L 339.9 163.1 L 340.7 165.4 L 341.5 161.6 L 342.2 158.5 L 343.0 158.3 L 343.8 159.4 L 344.6 159.7 L 345.3 160.7 L 346.1 162.4 L 346.9 157.6 L 347.7 156.7 L 348.4 152.5 L 349.2 151.4 L 350.0 150.4 L 350.8 153.5 L 351.5 150.6 L 352.3 145.2 L 353.1 149.0 L 353.9 149.4 L 354.6 147.4 L 355.4 150.1 L 356.2 148.3 L 357.0 150.1 L 357.7 152.4 L 358.5 152.2 L 359.3 148.9 L 360.1 153.1 L 360.8 153.9 L 361.6 153.2 L 362.4 145.9 L 363.2 145.1 L 363.9 148.5 L 364.7 150.1 L 365.5 151.6 L 366.3 149.6 L 367.0 148.9 L 367.8 148.3 L 368.6 149.8 L 369.4 145.6 L 370.1 142.0 L 370.9 145.4 L 371.7 140.8 L 372.5 141.1 L 373.2 142.3 L 374.0 145.2 L 374.8 148.7 L 375.6 147.0 L 376.3 149.5 L 377.1 149.5 L 377.9 148.3 L 378.7 151.8 L 379.4 143.6 L 380.2 140.8 L 381.0 137.9 L 381.8 137.7 L 382.5 138.0 L 383.3 135.0 L 384.1 136.2 L 384.9 137.5 L 385.6 135.2 L 386.4 134.8 L 387.2 134.0 L 388.0 134.3 L 388.7 131.2 L 389.5 131.5 L 390.3 126.2 L 391.1 123.2 L 391.8 122.5 L 392.6 120.2 L 393.4 117.5 L 394.2 115.0 L 394.9 117.6 L 395.7 119.1 L 396.5 117.2 L 397.3 113.8 L 398.0 114.8 L 398.8 106.0 L 399.6 102.6 L 400.4 102.3 L 401.1 104.6 L 401.9 101.5 L 402.7 104.9 L 403.5 90.9 L 404.3 81.5 L 405.0 76.4 L 405.8 83.3 L 406.6 91.7 L 407.4 86.3 L 408.1 88.2 L 408.9 86.3 L 409.7 87.5 L 410.5 89.5 L 411.2 97.6 L 412.0 89.8 L 412.8 97.3 L 413.6 88.0 L 414.3 87.8 L 415.1 88.4 L 415.9 88.3 L 416.7 89.0 L 417.4 93.0 L 418.2 92.0 L 419.0 92.7 L 419.8 90.2 L 420.5 93.6 L 421.3 92.7 L 422.1 90.9 L 422.9 91.7 L 423.6 91.7 L 424.4 88.9 L 425.2 89.4 L 426.0 90.7 L 426.7 80.8 L 427.5 80.8 L 428.3 78.6 L 429.1 80.1 L 429.8 79.6 L 430.6 73.6 L 431.4 70.6 L 432.2 58.8 L 432.9 58.9 L 433.7 59.4 L 434.5 49.4 L 435.3 39.1 L 436.0 45.1 L 436.8 35.7 L 437.6 34.7 L 438.4 40.7 L 439.1 42.7 L 439.9 60.3 L 440.7 46.8 L 441.5 57.4 L 442.2 57.7 L 443.0 65.4 L 443.8 64.1 L 444.6 67.0 L 445.3 61.4 L 446.1 61.7 L 446.9 61.4 L 447.7 58.1 L 448.4 51.5 L 449.2 53.6 L 450.0 61.4 L 450.8 67.4 L 451.5 68.7 L 452.3 64.0 L 453.1 57.0 L 453.9 54.7 L 454.6 46.7 L 455.4 43.0 L 456.2 43.4 L 457.0 40.6 L 457.7 46.4 L 458.5 48.6 L 459.3 53.4 L 460.1 56.4 L 460.8 56.6 L 461.6 52.0 L 462.4 51.8 L 463.2 51.2 L 463.9 57.8 L 464.7 60.8 L 465.5 60.4 L 466.3 61.7 L 467.0 67.6 L 467.8 76.9 L 468.6 82.5 L 469.4 81.1 L 470.1 80.1 L 470.9 77.7 L 471.7 80.2 L 472.5 90.1 L 473.2 85.0 L 474.0 81.3 L 474.8 80.6 L 475.6 78.3 L 476.3 81.9 L 477.1 90.4 L 477.9 93.5 L 478.7 95.9 L 479.5 95.5 L 480.2 87.9 L 481.0 78.0 L 481.8 74.6 L 482.6 75.7 L 483.3 69.9 L 484.1 68.2 L 484.9 67.3 L 485.7 60.8 L 486.4 62.8 L 487.2 65.6 L 488.0 68.0 L 488.8 66.1 L 489.5 64.2 L 490.3 78.3 L 491.1 85.4 L 491.9 83.3 L 492.6 75.7 L 493.4 75.3 L 494.2 86.4 L 495.0 86.1 L 495.7 88.6 L 496.5 84.5 L 497.3 85.2 L 498.1 82.2 L 498.8 86.1 L 499.6 83.9 L 500.4 89.2 L 501.2 90.6 L 501.9 90.1 L 502.7 91.2 L 503.5 89.4 L 504.3 79.2 L 505.0 81.4 L 505.8 81.3 L 506.6 79.0 L 507.4 67.1 L 508.1 83.2 L 508.9 79.4 L 518.9 79.4" stroke-linejoin="round" visibility="visible" stroke="rgb(192,192,192)" stroke-opacity="0.0" stroke-width="22"  class=" highcharts-tracker" style=""></path></g><g class="highcharts-markers highcharts-tracker" visibility="visible"  transform="translate(50,53) scale(1 1)" clip-path="url(#highcharts-7)" style=""></g></g><text x="292" text-anchor="middle" class="highcharts-title"  style="color:black;font-size:16px;font-weight:bold;fill:black;width:520px;" y="22"><tspan>Historical USD to EUR Exchange Rate</tspan></text><text x="292" text-anchor="middle" class="highcharts-subtitle"  style="color:black;fill:black;width:520px;" y="40"><tspan>Select an area by dragging across the lower chart</tspan></text><g class="highcharts-axis-labels highcharts-xaxis-labels" ><text x="125.5" style="color:#6e6e70;cursor:default;font-size:11px;fill:#6e6e70;width:119px;text-overflow:clip;" text-anchor="middle" transform="translate(0,0)" y="299" opacity="1"><tspan>Sep '13</tspan></text><text x="220.1" style="color:#6e6e70;cursor:default;font-size:11px;fill:#6e6e70;width:119px;text-overflow:clip;" text-anchor="middle" transform="translate(0,0)" y="299" opacity="1"><tspan>Jan '14</tspan></text><text x="313.2" style="color:#6e6e70;cursor:default;font-size:11px;fill:#6e6e70;width:119px;text-overflow:clip;" text-anchor="middle" transform="translate(0,0)" y="299" opacity="1"><tspan>May '14</tspan></text><text x="408.5" style="color:#6e6e70;cursor:default;font-size:11px;fill:#6e6e70;width:119px;text-overflow:clip;" text-anchor="middle" transform="translate(0,0)" y="299" opacity="1"><tspan>Sep '14</tspan></text><text x="503.1" style="color:#6e6e70;cursor:default;font-size:11px;fill:#6e6e70;width:119px;text-overflow:clip;" text-anchor="middle" transform="translate(0,0)" y="299" opacity="1"><tspan>Jan '15</tspan></text></g><g class="highcharts-axis-labels highcharts-yaxis-labels" ><text x="35" style="color:#6e6e70;cursor:default;font-size:11px;fill:#6e6e70;width:30px;text-overflow:clip;" text-anchor="end" transform="translate(0,0)" y="286" opacity="1">0.7</text><text x="35" style="color:#6e6e70;cursor:default;font-size:11px;fill:#6e6e70;width:30px;text-overflow:clip;" text-anchor="end" transform="translate(0,0)" y="210" opacity="1">0.8</text><text x="35" style="color:#6e6e70;cursor:default;font-size:11px;fill:#6e6e70;width:30px;text-overflow:clip;" text-anchor="end" transform="translate(0,0)" y="134" opacity="1">0.9</text><text x="35" style="color:#6e6e70;cursor:default;font-size:11px;fill:#6e6e70;width:30px;text-overflow:clip;" text-anchor="end" transform="translate(0,0)" y="59" opacity="1">1</text></g><g class="highcharts-tooltip"  style="cursor:default;padding:0;white-space:nowrap;" transform="translate(0,-9999)"><path fill="none" d="M 3 0 L 13 0 C 16 0 16 0 16 3 L 16 13 C 16 16 16 16 13 16 L 3 16 C 0 16 0 16 0 13 L 0 3 C 0 0 0 0 3 0"  stroke="black" stroke-opacity="0.0" stroke-width="5" transform="translate(1, 1)"></path><path fill="none" d="M 3 0 L 13 0 C 16 0 16 0 16 3 L 16 13 C 16 16 16 16 13 16 L 3 16 C 0 16 0 16 0 13 L 0 3 C 0 0 0 0 3 0"  stroke="black" stroke-opacity="0.0" stroke-width="3" transform="translate(1, 1)"></path><path fill="none" d="M 3 0 L 13 0 C 16 0 16 0 16 3 L 16 13 C 16 16 16 16 13 16 L 3 16 C 0 16 0 16 0 13 L 0 3 C 0 0 0 0 3 0"  stroke="black" stroke-opacity="0.1" stroke-width="1" transform="translate(1, 1)"></path><path fill="rgb(249, 249, 249)" fill-opacity=" .85" d="M 3 0 L 13 0 C 16 0 16 0 16 3 L 16 13 C 16 16 16 16 13 16 L 3 16 C 0 16 0 16 0 13 L 0 3 C 0 0 0 0 3 0"></path><text x="8"  style="font-size:12px;color:#333333;fill:#333333;" y="20"></text></g></svg>