<svg version="1.1" style="font-family: signika, serif; font-size: 12px; background-image: url(http://www.highcharts.com/samples/graphics/sand.png); background-position: initial initial; background-repeat: initial initial;" xmlns="http://www.w3.org/2000/svg" width="584" height="400" viewBox="0 0 584 400" xmlns:xlink="http://www.w3.org/1999/xlink"><style type="text/css"><![CDATA[@import url(http://fonts.googleapis.com/css?family=Signika:700);]]></style><desc>Created with Highcharts 4.1.7</desc><defs><clipPath id="highcharts-1"><rect x="0" y="0" width="504" height="325"></rect></clipPath><clipPath id="highcharts-2"><rect x="-99" y="-41" width="603" height="400"></rect></clipPath><clipPath id="highcharts-3"><rect x="0" y="0" width="504" height="325"></rect></clipPath></defs><path fill="none" d="M 70 312.5 L 574 312.5" stroke="#808080" stroke-width="1"></path><g class="highcharts-grid" ></g><g class="highcharts-grid" ><path fill="none" d="M 70 366.5 L 574 366.5" stroke="#D8D8D8" stroke-width="1"  opacity="1"></path><path fill="none" d="M 70 312.5 L 574 312.5" stroke="#D8D8D8" stroke-width="1"  opacity="1"></path><path fill="none" d="M 70 258.5 L 574 258.5" stroke="#D8D8D8" stroke-width="1"  opacity="1"></path><path fill="none" d="M 70 204.5 L 574 204.5" stroke="#D8D8D8" stroke-width="1"  opacity="1"></path><path fill="none" d="M 70 149.5 L 574 149.5" stroke="#D8D8D8" stroke-width="1"  opacity="1"></path><path fill="none" d="M 70 95.5 L 574 95.5" stroke="#D8D8D8" stroke-width="1"  opacity="1"></path><path fill="none" d="M 70 40.5 L 574 40.5" stroke="#D8D8D8" stroke-width="1"  opacity="1"></path></g><g class="highcharts-axis" ><path fill="none" d="M 158.5 366 L 158.5 376" stroke="#C0D0E0" stroke-width="1" opacity="1"></path><path fill="none" d="M 288.5 366 L 288.5 376" stroke="#C0D0E0" stroke-width="1" opacity="1"></path><path fill="none" d="M 418.5 366 L 418.5 376" stroke="#C0D0E0" stroke-width="1" opacity="1"></path><path fill="none" d="M 548.5 366 L 548.5 376" stroke="#C0D0E0" stroke-width="1" opacity="1"></path><path fill="none" d="M 70 366.5 L 574 366.5" stroke="#C0D0E0" stroke-width="1"  visibility="visible"></path></g><g class="highcharts-axis" ><text x="22.0"  text-anchor="middle" transform="translate(0,0) rotate(270 22.0 203.5)" class=" highcharts-yaxis-title" style="color:#707070;fill:#707070;" visibility="visible" y="203.5">Value</text></g><g class="highcharts-series-group" ><g class="highcharts-series" visibility="visible"  transform="translate(70,41) scale(1 1)" clip-path="url(#highcharts-3)"><path fill="none" d="M 4.9 100.2 C 4.9 100.2 20.5 169.8 30.9 169.8 C 41.3 169.8 46.5 58.0 56.9 58.0 C 67.3 58.0 72.5 170.8 82.9 202.6 C 93.3 234.3 98.5 234.3 108.9 234.3 C 119.3 234.3 124.5 234.3 134.9 220.8 C 145.3 207.3 150.5 103.9 160.9 103.9 C 171.3 103.9 176.5 191.4 186.9 191.4 C 197.3 191.4 202.5 84.1 212.9 84.1 C 223.3 84.1 228.5 262.5 238.9 262.5 C 249.3 262.5 254.6 179.2 265.0 139.8 C 275.4 100.4 280.6 65.6 291.0 65.6 C 301.4 65.6 306.6 66.3 317.0 106.1 C 327.4 146.0 332.6 264.9 343.0 264.9 C 353.4 264.9 358.6 154.0 369.0 154.0 C 379.4 154.0 384.6 154.0 395.0 162.0 C 405.4 170.1 410.6 249.9 421.0 249.9 C 431.4 249.9 436.6 91.3 447.0 91.3 C 457.4 91.3 462.6 116.3 473.0 149.3 C 483.4 182.3 499.0 256.3 499.0 256.3" stroke="black" stroke-width="5"  stroke-linejoin="round" stroke-linecap="round"  stroke-opacity="0.0" transform="translate(1, 1)"></path><path fill="none" d="M 4.9 100.2 C 4.9 100.2 20.5 169.8 30.9 169.8 C 41.3 169.8 46.5 58.0 56.9 58.0 C 67.3 58.0 72.5 170.8 82.9 202.6 C 93.3 234.3 98.5 234.3 108.9 234.3 C 119.3 234.3 124.5 234.3 134.9 220.8 C 145.3 207.3 150.5 103.9 160.9 103.9 C 171.3 103.9 176.5 191.4 186.9 191.4 C 197.3 191.4 202.5 84.1 212.9 84.1 C 223.3 84.1 228.5 262.5 238.9 262.5 C 249.3 262.5 254.6 179.2 265.0 139.8 C 275.4 100.4 280.6 65.6 291.0 65.6 C 301.4 65.6 306.6 66.3 317.0 106.1 C 327.4 146.0 332.6 264.9 343.0 264.9 C 353.4 264.9 358.6 154.0 369.0 154.0 C 379.4 154.0 384.6 154.0 395.0 162.0 C 405.4 170.1 410.6 249.9 421.0 249.9 C 431.4 249.9 436.6 91.3 447.0 91.3 C 457.4 91.3 462.6 116.3 473.0 149.3 C 483.4 182.3 499.0 256.3 499.0 256.3" stroke="black" stroke-width="3"  stroke-linejoin="round" stroke-linecap="round"  stroke-opacity="0.0" transform="translate(1, 1)"></path><path fill="none" d="M 4.9 100.2 C 4.9 100.2 20.5 169.8 30.9 169.8 C 41.3 169.8 46.5 58.0 56.9 58.0 C 67.3 58.0 72.5 170.8 82.9 202.6 C 93.3 234.3 98.5 234.3 108.9 234.3 C 119.3 234.3 124.5 234.3 134.9 220.8 C 145.3 207.3 150.5 103.9 160.9 103.9 C 171.3 103.9 176.5 191.4 186.9 191.4 C 197.3 191.4 202.5 84.1 212.9 84.1 C 223.3 84.1 228.5 262.5 238.9 262.5 C 249.3 262.5 254.6 179.2 265.0 139.8 C 275.4 100.4 280.6 65.6 291.0 65.6 C 301.4 65.6 306.6 66.3 317.0 106.1 C 327.4 146.0 332.6 264.9 343.0 264.9 C 353.4 264.9 358.6 154.0 369.0 154.0 C 379.4 154.0 384.6 154.0 395.0 162.0 C 405.4 170.1 410.6 249.9 421.0 249.9 C 431.4 249.9 436.6 91.3 447.0 91.3 C 457.4 91.3 462.6 116.3 473.0 149.3 C 483.4 182.3 499.0 256.3 499.0 256.3" stroke="black" stroke-width="1"  stroke-linejoin="round" stroke-linecap="round"  stroke-opacity="0.1" transform="translate(1, 1)"></path><path fill="none" d="M 4.9 100.2 C 4.9 100.2 20.5 169.8 30.9 169.8 C 41.3 169.8 46.5 58.0 56.9 58.0 C 67.3 58.0 72.5 170.8 82.9 202.6 C 93.3 234.3 98.5 234.3 108.9 234.3 C 119.3 234.3 124.5 234.3 134.9 220.8 C 145.3 207.3 150.5 103.9 160.9 103.9 C 171.3 103.9 176.5 191.4 186.9 191.4 C 197.3 191.4 202.5 84.1 212.9 84.1 C 223.3 84.1 228.5 262.5 238.9 262.5 C 249.3 262.5 254.6 179.2 265.0 139.8 C 275.4 100.4 280.6 65.6 291.0 65.6 C 301.4 65.6 306.6 66.3 317.0 106.1 C 327.4 146.0 332.6 264.9 343.0 264.9 C 353.4 264.9 358.6 154.0 369.0 154.0 C 379.4 154.0 384.6 154.0 395.0 162.0 C 405.4 170.1 410.6 249.9 421.0 249.9 C 431.4 249.9 436.6 91.3 447.0 91.3 C 457.4 91.3 462.6 116.3 473.0 149.3 C 483.4 182.3 499.0 256.3 499.0 256.3" stroke="#f45b5b" stroke-width="2"  stroke-linejoin="round" stroke-linecap="round"></path><path fill="none" d="M -5.0 100.2 L 4.9 100.2 C 4.9 100.2 20.5 169.8 30.9 169.8 C 41.3 169.8 46.5 58.0 56.9 58.0 C 67.3 58.0 72.5 170.8 82.9 202.6 C 93.3 234.3 98.5 234.3 108.9 234.3 C 119.3 234.3 124.5 234.3 134.9 220.8 C 145.3 207.3 150.5 103.9 160.9 103.9 C 171.3 103.9 176.5 191.4 186.9 191.4 C 197.3 191.4 202.5 84.1 212.9 84.1 C 223.3 84.1 228.5 262.5 238.9 262.5 C 249.3 262.5 254.6 179.2 265.0 139.8 C 275.4 100.4 280.6 65.6 291.0 65.6 C 301.4 65.6 306.6 66.3 317.0 106.1 C 327.4 146.0 332.6 264.9 343.0 264.9 C 353.4 264.9 358.6 154.0 369.0 154.0 C 379.4 154.0 384.6 154.0 395.0 162.0 C 405.4 170.1 410.6 249.9 421.0 249.9 C 431.4 249.9 436.6 91.3 447.0 91.3 C 457.4 91.3 462.6 116.3 473.0 149.3 C 483.4 182.3 499.0 256.3 499.0 256.3 L 509.0 256.3" stroke-linejoin="round" visibility="visible" stroke="rgb(192,192,192)" stroke-opacity="0.0" stroke-width="22"  class=" highcharts-tracker" style=""></path></g><g class="highcharts-markers highcharts-tracker" visibility="visible"  transform="translate(70,41) scale(1 1)" clip-path="url(#highcharts-2)" style=""><path fill="#f45b5b" d="M 499 252.3 C 504.3 252.3 504.3 260.3 499 260.3 C 493.6 260.3 493.6 252.3 499 252.3 Z"></path><path fill="#f45b5b" d="M 473 145.3 C 478.3 145.3 478.3 153.3 473 153.3 C 467.6 153.3 467.6 145.3 473 145.3 Z"></path><path fill="#f45b5b" d="M 447 87.3 C 452.3 87.3 452.3 95.3 447 95.3 C 441.6 95.3 441.6 87.3 447 87.3 Z"></path><path fill="#f45b5b" d="M 421 245.9 C 426.3 245.9 426.3 253.9 421 253.9 C 415.6 253.9 415.6 245.9 421 245.9 Z"></path><path fill="#f45b5b" d="M 395 158.0 C 400.3 158.0 400.3 166.0 395 166.0 C 389.6 166.0 389.6 158.0 395 158.0 Z"></path><path fill="#f45b5b" d="M 369 150.0 C 374.3 150.0 374.3 158.0 369 158.0 C 363.6 158.0 363.6 150.0 369 150.0 Z"></path><path fill="#f45b5b" d="M 343 260.9 C 348.3 260.9 348.3 268.9 343 268.9 C 337.6 268.9 337.6 260.9 343 260.9 Z"></path><path fill="#f45b5b" d="M 317 102.1 C 322.3 102.1 322.3 110.1 317 110.1 C 311.6 110.1 311.6 102.1 317 102.1 Z"></path><path fill="#f45b5b" d="M 291 61.6 C 296.3 61.6 296.3 69.6 291 69.6 C 285.6 69.6 285.6 61.6 291 61.6 Z"></path><path fill="#f45b5b" d="M 265 135.8 C 270.3 135.8 270.3 143.8 265 143.8 C 259.6 143.8 259.6 135.8 265 135.8 Z"></path><path fill="#f45b5b" d="M 238 258.5 C 243.3 258.5 243.3 266.5 238 266.5 C 232.6 266.5 232.6 258.5 238 258.5 Z"></path><path fill="#f45b5b" d="M 212 80.1 C 217.3 80.1 217.3 88.1 212 88.1 C 206.6 88.1 206.6 80.1 212 80.1 Z"></path><path fill="#f45b5b" d="M 186 187.4 C 191.3 187.4 191.3 195.4 186 195.4 C 180.6 195.4 180.6 187.4 186 187.4 Z"></path><path fill="#f45b5b" d="M 160 99.9 C 165.3 99.9 165.3 107.9 160 107.9 C 154.6 107.9 154.6 99.9 160 99.9 Z"></path><path fill="#f45b5b" d="M 134 216.8 C 139.3 216.8 139.3 224.8 134 224.8 C 128.6 224.8 128.6 216.8 134 216.8 Z"></path><path fill="#f45b5b" d="M 108 230.3 C 113.3 230.3 113.3 238.3 108 238.3 C 102.6 238.3 102.6 230.3 108 230.3 Z"></path><path fill="#f45b5b" d="M 82 198.6 C 87.3 198.6 87.3 206.6 82 206.6 C 76.6 206.6 76.6 198.6 82 198.6 Z"></path><path fill="#f45b5b" d="M 56 54.0 C 61.3 54.0 61.3 62.0 56 62.0 C 50.6 62.0 50.6 54.0 56 54.0 Z"></path><path fill="#f45b5b" d="M 30 165.8 C 35.3 165.8 35.3 173.8 30 173.8 C 24.6 173.8 24.6 165.8 30 165.8 Z"></path><path fill="#f45b5b" d="M 4 96.2 C 9.3 96.2 9.3 104.2 4 104.2 C -1.3 104.2 -1.3 96.2 4 96.2 Z"></path></g></g><text x="292" text-anchor="middle" class="highcharts-title"  style="color:black;font-size:16px;font-weight:bold;fill:black;width:520px;" y="22"><tspan>Live random data</tspan></text><g class="highcharts-axis-labels highcharts-xaxis-labels" ><text x="159.2" style="color:#6e6e70;cursor:default;font-size:11px;fill:#6e6e70;width:158px;text-overflow:clip;" text-anchor="middle" transform="translate(0,0)" y="385" opacity="1">11:55:15</text><text x="289.2" style="color:#6e6e70;cursor:default;font-size:11px;fill:#6e6e70;width:158px;text-overflow:clip;" text-anchor="middle" transform="translate(0,0)" y="385" opacity="1">11:55:20</text><text x="419.2" style="color:#6e6e70;cursor:default;font-size:11px;fill:#6e6e70;width:158px;text-overflow:clip;" text-anchor="middle" transform="translate(0,0)" y="385" opacity="1">11:55:25</text><text x="549.2" style="color:#6e6e70;cursor:default;font-size:11px;fill:#6e6e70;width:158px;text-overflow:clip;" text-anchor="middle" transform="translate(0,0)" y="385" opacity="1">11:55:30</text></g><g class="highcharts-axis-labels highcharts-yaxis-labels" ><text x="55" style="color:#6e6e70;cursor:default;font-size:11px;fill:#6e6e70;width:183px;text-overflow:clip;" text-anchor="end" transform="translate(0,0)" y="372" opacity="1">-0.2</text><text x="55" style="color:#6e6e70;cursor:default;font-size:11px;fill:#6e6e70;width:183px;text-overflow:clip;" text-anchor="end" transform="translate(0,0)" y="317" opacity="1">0</text><text x="55" style="color:#6e6e70;cursor:default;font-size:11px;fill:#6e6e70;width:183px;text-overflow:clip;" text-anchor="end" transform="translate(0,0)" y="263" opacity="1">0.2</text><text x="55" style="color:#6e6e70;cursor:default;font-size:11px;fill:#6e6e70;width:183px;text-overflow:clip;" text-anchor="end" transform="translate(0,0)" y="209" opacity="1">0.5</text><text x="55" style="color:#6e6e70;cursor:default;font-size:11px;fill:#6e6e70;width:183px;text-overflow:clip;" text-anchor="end" transform="translate(0,0)" y="155" opacity="1">0.7</text><text x="55" style="color:#6e6e70;cursor:default;font-size:11px;fill:#6e6e70;width:183px;text-overflow:clip;" text-anchor="end" transform="translate(0,0)" y="101" opacity="1">1</text><text x="55" style="color:#6e6e70;cursor:default;font-size:11px;fill:#6e6e70;width:183px;text-overflow:clip;" text-anchor="end" transform="translate(0,0)" y="47" opacity="1">1.2</text></g><g class="highcharts-tooltip"  style="cursor:default;padding:0;white-space:nowrap;" transform="translate(0,-9999)"><path fill="none" d="M 3 0 L 13 0 C 16 0 16 0 16 3 L 16 13 C 16 16 16 16 13 16 L 3 16 C 0 16 0 16 0 13 L 0 3 C 0 0 0 0 3 0"  stroke="black" stroke-opacity="0.0" stroke-width="5" transform="translate(1, 1)"></path><path fill="none" d="M 3 0 L 13 0 C 16 0 16 0 16 3 L 16 13 C 16 16 16 16 13 16 L 3 16 C 0 16 0 16 0 13 L 0 3 C 0 0 0 0 3 0"  stroke="black" stroke-opacity="0.0" stroke-width="3" transform="translate(1, 1)"></path><path fill="none" d="M 3 0 L 13 0 C 16 0 16 0 16 3 L 16 13 C 16 16 16 16 13 16 L 3 16 C 0 16 0 16 0 13 L 0 3 C 0 0 0 0 3 0"  stroke="black" stroke-opacity="0.1" stroke-width="1" transform="translate(1, 1)"></path><path fill="rgb(249, 249, 249)" fill-opacity=" .85" d="M 3 0 L 13 0 C 16 0 16 0 16 3 L 16 13 C 16 16 16 16 13 16 L 3 16 C 0 16 0 16 0 13 L 0 3 C 0 0 0 0 3 0"></path><text x="8"  style="font-size:12px;color:#333333;fill:#333333;" y="20"></text></g></svg>