<svg version="1.1" style="font-family:&quot;lucida grande&quot;, &quot;lucida sans unicode&quot;, arial, helvetica, sans-serif;font-size:12px;" xmlns="http://www.w3.org/2000/svg" width="584" height="400" viewBox="0 0 584 400"><desc>Created with Highcharts 4.1.6</desc><defs><clipPath id="highcharts-1"><rect x="0" y="0" width="410" height="280"></rect></clipPath><clipPath id="highcharts-2"><rect x="-99" y="-46" width="509" height="400"></rect></clipPath><clipPath id="highcharts-3"><rect x="0" y="0" width="410" height="280"></rect></clipPath></defs><rect x="0" y="0" width="584" height="400" strokeWidth="0" fill="#FFFFFF" class=" highcharts-background" stroke="transparent"></rect><g class="highcharts-grid" ></g><g class="highcharts-grid" ><path fill="none" d="M 80 326.5 L 490 326.5" stroke="#D8D8D8" stroke-width="1"  opacity="1"></path><path fill="none" d="M 80 256.5 L 490 256.5" stroke="#D8D8D8" stroke-width="1"  opacity="1"></path><path fill="none" d="M 80 186.5 L 490 186.5" stroke="#D8D8D8" stroke-width="1"  opacity="1"></path><path fill="none" d="M 80 116.5 L 490 116.5" stroke="#D8D8D8" stroke-width="1"  opacity="1"></path><path fill="none" d="M 80 45.5 L 490 45.5" stroke="#D8D8D8" stroke-width="1"  opacity="1"></path></g><g class="highcharts-grid" ><path fill="none" d="M 80 326.5 L 490 326.5" stroke="#D8D8D8" stroke-width="1"  opacity="1"></path><path fill="none" d="M 80 256.5 L 490 256.5" stroke="#D8D8D8" stroke-width="1"  opacity="1"></path><path fill="none" d="M 80 186.5 L 490 186.5" stroke="#D8D8D8" stroke-width="1"  opacity="1"></path><path fill="none" d="M 80 116.5 L 490 116.5" stroke="#D8D8D8" stroke-width="1"  opacity="1"></path><path fill="none" d="M 80 45.5 L 490 45.5" stroke="#D8D8D8" stroke-width="1"  opacity="1"></path></g><g class="highcharts-axis" ><path fill="none" d="M 113.5 326 L 113.5 336" stroke="#C0D0E0" stroke-width="1" opacity="1"></path><path fill="none" d="M 147.5 326 L 147.5 336" stroke="#C0D0E0" stroke-width="1" opacity="1"></path><path fill="none" d="M 182.5 326 L 182.5 336" stroke="#C0D0E0" stroke-width="1" opacity="1"></path><path fill="none" d="M 216.5 326 L 216.5 336" stroke="#C0D0E0" stroke-width="1" opacity="1"></path><path fill="none" d="M 250.5 326 L 250.5 336" stroke="#C0D0E0" stroke-width="1" opacity="1"></path><path fill="none" d="M 284.5 326 L 284.5 336" stroke="#C0D0E0" stroke-width="1" opacity="1"></path><path fill="none" d="M 318.5 326 L 318.5 336" stroke="#C0D0E0" stroke-width="1" opacity="1"></path><path fill="none" d="M 352.5 326 L 352.5 336" stroke="#C0D0E0" stroke-width="1" opacity="1"></path><path fill="none" d="M 386.5 326 L 386.5 336" stroke="#C0D0E0" stroke-width="1" opacity="1"></path><path fill="none" d="M 421.5 326 L 421.5 336" stroke="#C0D0E0" stroke-width="1" opacity="1"></path><path fill="none" d="M 455.5 326 L 455.5 336" stroke="#C0D0E0" stroke-width="1" opacity="1"></path><path fill="none" d="M 489.5 326 L 489.5 336" stroke="#C0D0E0" stroke-width="1" opacity="1"></path><path fill="none" d="M 79.5 326 L 79.5 336" stroke="#C0D0E0" stroke-width="1" opacity="1"></path><path fill="none" d="M 80 326.5 L 490 326.5" stroke="#C0D0E0" stroke-width="1"  visibility="visible"></path></g><g class="highcharts-axis" ><text x="25"  text-anchor="middle" transform="translate(0,0) rotate(270 25 186)" class=" highcharts-yaxis-title" style="color:#434348;fill:#434348;" visibility="visible" y="186">Temperature</text></g><g class="highcharts-axis" ><text x="559"  text-anchor="middle" transform="translate(0,0) rotate(90 559 186)" class=" highcharts-yaxis-title" style="color:#7cb5ec;fill:#7cb5ec;" visibility="visible" y="186">Rainfall</text></g><g class="highcharts-series-group" ><g class="highcharts-series highcharts-tracker" visibility="visible"  transform="translate(80,46) scale(1 1)" style="" clip-path="url(#highcharts-1)"><rect x="8.5" y="245.5" width="17" height="35" stroke="#FFFFFF" stroke-width="1" fill="#7cb5ec" rx="0" ry="0"></rect><rect x="42.5" y="230.5" width="17" height="50" stroke="#FFFFFF" stroke-width="1" fill="#7cb5ec" rx="0" ry="0"></rect><rect x="76.5" y="206.5" width="17" height="74" stroke="#FFFFFF" stroke-width="1" fill="#7cb5ec" rx="0" ry="0"></rect><rect x="110.5" y="190.5" width="17" height="90" stroke="#FFFFFF" stroke-width="1" fill="#7cb5ec" rx="0" ry="0"></rect><rect x="145.5" y="179.5" width="17" height="101" stroke="#FFFFFF" stroke-width="1" fill="#7cb5ec" rx="0" ry="0"></rect><rect x="179.5" y="157.5" width="17" height="123" stroke="#FFFFFF" stroke-width="1" fill="#7cb5ec" rx="0" ry="0"></rect><rect x="213.5" y="185.5" width="17" height="95" stroke="#FFFFFF" stroke-width="1" fill="#7cb5ec" rx="0" ry="0"></rect><rect x="247.5" y="176.5" width="17" height="104" stroke="#FFFFFF" stroke-width="1" fill="#7cb5ec" rx="0" ry="0"></rect><rect x="281.5" y="129.5" width="17" height="151" stroke="#FFFFFF" stroke-width="1" fill="#7cb5ec" rx="0" ry="0"></rect><rect x="315.5" y="144.5" width="17" height="136" stroke="#FFFFFF" stroke-width="1" fill="#7cb5ec" rx="0" ry="0"></rect><rect x="350.5" y="213.5" width="17" height="67" stroke="#FFFFFF" stroke-width="1" fill="#7cb5ec" rx="0" ry="0"></rect><rect x="384.5" y="242.5" width="17" height="38" stroke="#FFFFFF" stroke-width="1" fill="#7cb5ec" rx="0" ry="0"></rect></g><g class="highcharts-markers" visibility="visible"  transform="translate(80,46) scale(1 1)"></g><g class="highcharts-series highcharts-tracker" visibility="visible"  transform="translate(80,46) scale(1 1)" style="" clip-path="url(#highcharts-1)"><g><path fill="none" d="M 17.5 246 L 17.5 244 M 17.5 246 L 17.5 246" stroke="#000000" stroke-width="1"></path><path fill="none" d="M 13 244.5 L 22 244.5 M 13 246.5 L 22 246.5" stroke="#000000" stroke-width="1"></path><path fill="none" d="M 0 0" stroke="#000000" stroke-width="2"></path></g><g><path fill="none" d="M 51.5 232 L 51.5 228 M 51.5 232 L 51.5 232" stroke="#000000" stroke-width="1"></path><path fill="none" d="M 47 228.5 L 56 228.5 M 47 232.5 L 56 232.5" stroke="#000000" stroke-width="1"></path><path fill="none" d="M 0 0" stroke="#000000" stroke-width="2"></path></g><g><path fill="none" d="M 85.5 215 L 85.5 203 M 85.5 215 L 85.5 215" stroke="#000000" stroke-width="1"></path><path fill="none" d="M 81 203.5 L 90 203.5 M 81 215.5 L 90 215.5" stroke="#000000" stroke-width="1"></path><path fill="none" d="M 0 0" stroke="#000000" stroke-width="2"></path></g><g><path fill="none" d="M 119.5 190 L 119.5 184 M 119.5 190 L 119.5 190" stroke="#000000" stroke-width="1"></path><path fill="none" d="M 115 184.5 L 124 184.5 M 115 190.5 L 124 190.5" stroke="#000000" stroke-width="1"></path><path fill="none" d="M 0 0" stroke="#000000" stroke-width="2"></path></g><g><path fill="none" d="M 154.5 182 L 154.5 175 M 154.5 182 L 154.5 182" stroke="#000000" stroke-width="1"></path><path fill="none" d="M 150 175.5 L 159 175.5 M 150 182.5 L 159 182.5" stroke="#000000" stroke-width="1"></path><path fill="none" d="M 0 0" stroke="#000000" stroke-width="2"></path></g><g><path fill="none" d="M 188.5 160 L 188.5 154 M 188.5 160 L 188.5 160" stroke="#000000" stroke-width="1"></path><path fill="none" d="M 184 154.5 L 193 154.5 M 184 160.5 L 193 160.5" stroke="#000000" stroke-width="1"></path><path fill="none" d="M 0 0" stroke="#000000" stroke-width="2"></path></g><g><path fill="none" d="M 222.5 185 L 222.5 179 M 222.5 185 L 222.5 185" stroke="#000000" stroke-width="1"></path><path fill="none" d="M 218 179.5 L 227 179.5 M 218 185.5 L 227 185.5" stroke="#000000" stroke-width="1"></path><path fill="none" d="M 0 0" stroke="#000000" stroke-width="2"></path></g><g><path fill="none" d="M 256.5 180 L 256.5 175 M 256.5 180 L 256.5 180" stroke="#000000" stroke-width="1"></path><path fill="none" d="M 252 175.5 L 261 175.5 M 252 180.5 L 261 180.5" stroke="#000000" stroke-width="1"></path><path fill="none" d="M 0 0" stroke="#000000" stroke-width="2"></path></g><g><path fill="none" d="M 290.5 137 L 290.5 126 M 290.5 137 L 290.5 137" stroke="#000000" stroke-width="1"></path><path fill="none" d="M 286 126.5 L 295 126.5 M 286 137.5 L 295 137.5" stroke="#000000" stroke-width="1"></path><path fill="none" d="M 0 0" stroke="#000000" stroke-width="2"></path></g><g><path fill="none" d="M 324.5 147 L 324.5 140 M 324.5 147 L 324.5 147" stroke="#000000" stroke-width="1"></path><path fill="none" d="M 320 140.5 L 329 140.5 M 320 147.5 L 329 147.5" stroke="#000000" stroke-width="1"></path><path fill="none" d="M 0 0" stroke="#000000" stroke-width="2"></path></g><g><path fill="none" d="M 359.5 213 L 359.5 203 M 359.5 213 L 359.5 213" stroke="#000000" stroke-width="1"></path><path fill="none" d="M 355 203.5 L 364 203.5 M 355 213.5 L 364 213.5" stroke="#000000" stroke-width="1"></path><path fill="none" d="M 0 0" stroke="#000000" stroke-width="2"></path></g><g><path fill="none" d="M 393.5 243 L 393.5 240 M 393.5 243 L 393.5 243" stroke="#000000" stroke-width="1"></path><path fill="none" d="M 389 240.5 L 398 240.5 M 389 243.5 L 398 243.5" stroke="#000000" stroke-width="1"></path><path fill="none" d="M 0 0" stroke="#000000" stroke-width="2"></path></g></g><g class="highcharts-markers" visibility="visible"  transform="translate(80,46) scale(1 1)"></g><g class="highcharts-series" visibility="visible"  transform="translate(80,46) scale(1 1)" clip-path="url(#highcharts-3)"><path fill="none" d="M 17.0 231 C 17.0 231 37.5 231.7 51.2 231.7 C 64.9 231.7 71.7 224.1 85.4 213.5 C 99.0 202.8 105.9 190.6 119.5 178.5 C 133.2 166.3 140.0 162.4 153.7 152.6 C 167.4 142.8 174.2 139.2 187.9 129.5 C 201.5 119.6 208.4 110.6 222.0 103.6 C 235.7 96.6 242.5 94.5 256.2 94.5 C 269.9 94.5 276.7 105.4 290.4 116.9 C 304.0 128.3 310.9 138.7 324.5 151.9 C 338.2 165.0 345.0 170.5 358.7 182.7 C 372.4 194.8 392.9 212.8 392.9 212.8" stroke="#434348" stroke-width="2"  stroke-linejoin="round" stroke-linecap="round"></path><path fill="none" d="M 7.0 231 L 17.0 231 C 17.0 231 37.5 231.7 51.2 231.7 C 64.9 231.7 71.7 224.1 85.4 213.5 C 99.0 202.8 105.9 190.6 119.5 178.5 C 133.2 166.3 140.0 162.4 153.7 152.6 C 167.4 142.8 174.2 139.2 187.9 129.5 C 201.5 119.6 208.4 110.6 222.0 103.6 C 235.7 96.6 242.5 94.5 256.2 94.5 C 269.9 94.5 276.7 105.4 290.4 116.9 C 304.0 128.3 310.9 138.7 324.5 151.9 C 338.2 165.0 345.0 170.5 358.7 182.7 C 372.4 194.8 392.9 212.8 392.9 212.8 L 402.9 212.8" stroke-linejoin="round" visibility="visible" stroke="rgb(192,192,192)" stroke-opacity="0.0" stroke-width="22"  class=" highcharts-tracker" style=""></path></g><g class="highcharts-markers highcharts-tracker" visibility="visible"  transform="translate(80,46) scale(1 1)" clip-path="url(#highcharts-2)" style=""><path fill="#434348" d="M 392 208.8 C 397.3 208.8 397.3 216.8 392 216.8 C 386.6 216.8 386.6 208.8 392 208.8 Z"></path><path fill="#434348" d="M 358 178.7 C 363.3 178.7 363.3 186.7 358 186.7 C 352.6 186.7 352.6 178.7 358 178.7 Z"></path><path fill="#434348" d="M 324 147.9 C 329.3 147.9 329.3 155.9 324 155.9 C 318.6 155.9 318.6 147.9 324 147.9 Z"></path><path fill="#434348" d="M 290 112.9 C 295.3 112.9 295.3 120.9 290 120.9 C 284.6 120.9 284.6 112.9 290 112.9 Z"></path><path fill="#434348" d="M 256 90.5 C 261.3 90.5 261.3 98.5 256 98.5 C 250.6 98.5 250.6 90.5 256 90.5 Z"></path><path fill="#434348" d="M 222 99.6 C 227.3 99.6 227.3 107.6 222 107.6 C 216.6 107.6 216.6 99.6 222 99.6 Z"></path><path fill="#434348" d="M 187 125.5 C 192.3 125.5 192.3 133.5 187 133.5 C 181.6 133.5 181.6 125.5 187 125.5 Z"></path><path fill="#434348" d="M 153 148.6 C 158.3 148.6 158.3 156.6 153 156.6 C 147.6 156.6 147.6 148.6 153 148.6 Z"></path><path fill="#434348" d="M 119 174.5 C 124.3 174.5 124.3 182.5 119 182.5 C 113.6 182.5 113.6 174.5 119 174.5 Z"></path><path fill="#434348" d="M 85 209.5 C 90.3 209.5 90.3 217.5 85 217.5 C 79.6 217.5 79.6 209.5 85 209.5 Z"></path><path fill="#434348" d="M 51 227.7 C 56.3 227.7 56.3 235.7 51 235.7 C 45.6 235.7 45.6 227.7 51 227.7 Z"></path><path fill="#434348" d="M 17 227 C 22.3 227 22.3 235 17 235 C 11.6 235 11.6 227 17 227 Z"></path></g><g class="highcharts-series highcharts-tracker" visibility="visible"  transform="translate(80,46) scale(1 1)" style="" clip-path="url(#highcharts-1)"><g><path fill="none" d="M 17.5 238 L 17.5 224 M 17.5 238 L 17.5 238" stroke="#000000" stroke-width="1"></path><path fill="none" d="M 13 224.5 L 22 224.5 M 13 238.5 L 22 238.5" stroke="#000000" stroke-width="1"></path><path fill="none" d="M 0 0" stroke="#000000" stroke-width="2"></path></g><g><path fill="none" d="M 51.5 238 L 51.5 226 M 51.5 238 L 51.5 238" stroke="#000000" stroke-width="1"></path><path fill="none" d="M 47 226.5 L 56 226.5 M 47 238.5 L 56 238.5" stroke="#000000" stroke-width="1"></path><path fill="none" d="M 0 0" stroke="#000000" stroke-width="2"></path></g><g><path fill="none" d="M 85.5 214 L 85.5 207 M 85.5 214 L 85.5 214" stroke="#000000" stroke-width="1"></path><path fill="none" d="M 81 207.5 L 90 207.5 M 81 214.5 L 90 214.5" stroke="#000000" stroke-width="1"></path><path fill="none" d="M 0 0" stroke="#000000" stroke-width="2"></path></g><g><path fill="none" d="M 119.5 181 L 119.5 168 M 119.5 181 L 119.5 181" stroke="#000000" stroke-width="1"></path><path fill="none" d="M 115 168.5 L 124 168.5 M 115 181.5 L 124 181.5" stroke="#000000" stroke-width="1"></path><path fill="none" d="M 0 0" stroke="#000000" stroke-width="2"></path></g><g><path fill="none" d="M 154.5 154 L 154.5 139 M 154.5 154 L 154.5 154" stroke="#000000" stroke-width="1"></path><path fill="none" d="M 150 139.5 L 159 139.5 M 150 154.5 L 159 154.5" stroke="#000000" stroke-width="1"></path><path fill="none" d="M 0 0" stroke="#000000" stroke-width="2"></path></g><g><path fill="none" d="M 188.5 133 L 188.5 112 M 188.5 133 L 188.5 133" stroke="#000000" stroke-width="1"></path><path fill="none" d="M 184 112.5 L 193 112.5 M 184 133.5 L 193 133.5" stroke="#000000" stroke-width="1"></path><path fill="none" d="M 0 0" stroke="#000000" stroke-width="2"></path></g><g><path fill="none" d="M 222.5 117 L 222.5 102 M 222.5 117 L 222.5 117" stroke="#000000" stroke-width="1"></path><path fill="none" d="M 218 102.5 L 227 102.5 M 218 117.5 L 227 117.5" stroke="#000000" stroke-width="1"></path><path fill="none" d="M 0 0" stroke="#000000" stroke-width="2"></path></g><g><path fill="none" d="M 256.5 97 L 256.5 85 M 256.5 97 L 256.5 97" stroke="#000000" stroke-width="1"></path><path fill="none" d="M 252 85.5 L 261 85.5 M 252 97.5 L 261 97.5" stroke="#000000" stroke-width="1"></path><path fill="none" d="M 0 0" stroke="#000000" stroke-width="2"></path></g><g><path fill="none" d="M 290.5 117 L 290.5 112 M 290.5 117 L 290.5 117" stroke="#000000" stroke-width="1"></path><path fill="none" d="M 286 112.5 L 295 112.5 M 286 117.5 L 295 117.5" stroke="#000000" stroke-width="1"></path><path fill="none" d="M 0 0" stroke="#000000" stroke-width="2"></path></g><g><path fill="none" d="M 324.5 154 L 324.5 132 M 324.5 154 L 324.5 154" stroke="#000000" stroke-width="1"></path><path fill="none" d="M 320 132.5 L 329 132.5 M 320 154.5 L 329 154.5" stroke="#000000" stroke-width="1"></path><path fill="none" d="M 0 0" stroke="#000000" stroke-width="2"></path></g><g><path fill="none" d="M 359.5 189 L 359.5 182 M 359.5 189 L 359.5 189" stroke="#000000" stroke-width="1"></path><path fill="none" d="M 355 182.5 L 364 182.5 M 355 189.5 L 364 189.5" stroke="#000000" stroke-width="1"></path><path fill="none" d="M 0 0" stroke="#000000" stroke-width="2"></path></g><g><path fill="none" d="M 393.5 226 L 393.5 210 M 393.5 226 L 393.5 226" stroke="#000000" stroke-width="1"></path><path fill="none" d="M 389 210.5 L 398 210.5 M 389 226.5 L 398 226.5" stroke="#000000" stroke-width="1"></path><path fill="none" d="M 0 0" stroke="#000000" stroke-width="2"></path></g></g><g class="highcharts-markers" visibility="visible"  transform="translate(80,46) scale(1 1)"></g></g><text x="292" text-anchor="middle" class="highcharts-title"  style="color:#333333;font-size:18px;fill:#333333;width:520px;" y="24"><tspan>Temperature vs Rainfall</tspan></text><g class="highcharts-legend"  transform="translate(190,359)"><g ><g><g class="highcharts-legend-item"  transform="translate(8,3)"><text x="21" style="color:#333333;font-size:12px;font-weight:bold;cursor:pointer;fill:#333333;" text-anchor="start"  y="15">Rainfall</text><rect x="0" y="4" width="16" height="12"  fill="#7cb5ec"></rect></g><g class="highcharts-legend-item"  transform="translate(96,3)"><path fill="none" d="M 0 11 L 16 11" stroke="#434348" stroke-width="2"></path><path fill="#434348" d="M 8 7 C 13.3 7 13.3 15 8 15 C 2.6 15 2.6 7 8 7 Z"></path><text x="21" y="15" style="color:#333333;font-size:12px;font-weight:bold;cursor:pointer;fill:#333333;" text-anchor="start" >Temperature</text></g></g></g></g><g class="highcharts-axis-labels highcharts-xaxis-labels" ><text x="97.0" style="color:#606060;cursor:default;font-size:11px;fill:#606060;" text-anchor="middle" transform="translate(0,0)" y="345" opacity="1">Jan</text><text x="131.2" style="color:#606060;cursor:default;font-size:11px;fill:#606060;" text-anchor="middle" transform="translate(0,0)" y="345" opacity="1">Feb</text><text x="165.4" style="color:#606060;cursor:default;font-size:11px;fill:#606060;" text-anchor="middle" transform="translate(0,0)" y="345" opacity="1">Mar</text><text x="199.5" style="color:#606060;cursor:default;font-size:11px;fill:#606060;" text-anchor="middle" transform="translate(0,0)" y="345" opacity="1">Apr</text><text x="233.7" style="color:#606060;cursor:default;font-size:11px;fill:#606060;" text-anchor="middle" transform="translate(0,0)" y="345" opacity="1">May</text><text x="267.9" style="color:#606060;cursor:default;font-size:11px;fill:#606060;" text-anchor="middle" transform="translate(0,0)" y="345" opacity="1">Jun</text><text x="302.0" style="color:#606060;cursor:default;font-size:11px;fill:#606060;" text-anchor="middle" transform="translate(0,0)" y="345" opacity="1">Jul</text><text x="336.2" style="color:#606060;cursor:default;font-size:11px;fill:#606060;" text-anchor="middle" transform="translate(0,0)" y="345" opacity="1">Aug</text><text x="370.4" style="color:#606060;cursor:default;font-size:11px;fill:#606060;" text-anchor="middle" transform="translate(0,0)" y="345" opacity="1">Sep</text><text x="404.5" style="color:#606060;cursor:default;font-size:11px;fill:#606060;" text-anchor="middle" transform="translate(0,0)" y="345" opacity="1">Oct</text><text x="438.7" style="color:#606060;cursor:default;font-size:11px;fill:#606060;" text-anchor="middle" transform="translate(0,0)" y="345" opacity="1">Nov</text><text x="472.9" style="color:#606060;cursor:default;font-size:11px;fill:#606060;" text-anchor="middle" transform="translate(0,0)" y="345" opacity="1">Dec</text></g><g class="highcharts-axis-labels highcharts-yaxis-labels" ><text x="65" style="color:#434348;cursor:default;font-size:11px;fill:#434348;width:183px;text-overflow:clip;" text-anchor="end" transform="translate(0,0)" y="331" opacity="1"><tspan>0 °C</tspan></text><text x="65" style="color:#434348;cursor:default;font-size:11px;fill:#434348;width:183px;text-overflow:clip;" text-anchor="end" transform="translate(0,0)" y="261" opacity="1"><tspan>10 °C</tspan></text><text x="65" style="color:#434348;cursor:default;font-size:11px;fill:#434348;width:183px;text-overflow:clip;" text-anchor="end" transform="translate(0,0)" y="191" opacity="1"><tspan>20 °C</tspan></text><text x="65" style="color:#434348;cursor:default;font-size:11px;fill:#434348;width:183px;text-overflow:clip;" text-anchor="end" transform="translate(0,0)" y="121" opacity="1"><tspan>30 °C</tspan></text><text x="65" style="color:#434348;cursor:default;font-size:11px;fill:#434348;width:183px;text-overflow:clip;" text-anchor="end" transform="translate(0,0)" y="51" opacity="1"><tspan>40 °C</tspan></text></g><g class="highcharts-axis-labels highcharts-yaxis-labels" ><text x="505" style="color:#7cb5ec;cursor:default;font-size:11px;fill:#7cb5ec;width:183px;text-overflow:clip;" text-anchor="start" transform="translate(0,0)" y="331" opacity="1"><tspan>0 mm</tspan></text><text x="505" style="color:#7cb5ec;cursor:default;font-size:11px;fill:#7cb5ec;width:183px;text-overflow:clip;" text-anchor="start" transform="translate(0,0)" y="261" opacity="1"><tspan>100 mm</tspan></text><text x="505" style="color:#7cb5ec;cursor:default;font-size:11px;fill:#7cb5ec;width:183px;text-overflow:clip;" text-anchor="start" transform="translate(0,0)" y="191" opacity="1"><tspan>200 mm</tspan></text><text x="505" style="color:#7cb5ec;cursor:default;font-size:11px;fill:#7cb5ec;width:183px;text-overflow:clip;" text-anchor="start" transform="translate(0,0)" y="121" opacity="1"><tspan>300 mm</tspan></text><text x="505" style="color:#7cb5ec;cursor:default;font-size:11px;fill:#7cb5ec;width:183px;text-overflow:clip;" text-anchor="start" transform="translate(0,0)" y="51" opacity="1"><tspan>400 mm</tspan></text></g><g class="highcharts-tooltip"  style="cursor:default;padding:0;white-space:nowrap;" transform="translate(0,-9999)"><path fill="none" d="M 3.5 0.5 L 13.5 0.5 C 16.5 0.5 16.5 0.5 16.5 3.5 L 16.5 13.5 C 16.5 16.5 16.5 16.5 13.5 16.5 L 3.5 16.5 C 0.5 16.5 0.5 16.5 0.5 13.5 L 0.5 3.5 C 0.5 0.5 0.5 0.5 3.5 0.5"  stroke="black" stroke-opacity="0.0" stroke-width="5" transform="translate(1, 1)"></path><path fill="none" d="M 3.5 0.5 L 13.5 0.5 C 16.5 0.5 16.5 0.5 16.5 3.5 L 16.5 13.5 C 16.5 16.5 16.5 16.5 13.5 16.5 L 3.5 16.5 C 0.5 16.5 0.5 16.5 0.5 13.5 L 0.5 3.5 C 0.5 0.5 0.5 0.5 3.5 0.5"  stroke="black" stroke-opacity="0.0" stroke-width="3" transform="translate(1, 1)"></path><path fill="none" d="M 3.5 0.5 L 13.5 0.5 C 16.5 0.5 16.5 0.5 16.5 3.5 L 16.5 13.5 C 16.5 16.5 16.5 16.5 13.5 16.5 L 3.5 16.5 C 0.5 16.5 0.5 16.5 0.5 13.5 L 0.5 3.5 C 0.5 0.5 0.5 0.5 3.5 0.5"  stroke="black" stroke-opacity="0.1" stroke-width="1" transform="translate(1, 1)"></path><path fill="rgb(249, 249, 249)" fill-opacity=" .85" d="M 3.5 0.5 L 13.5 0.5 C 16.5 0.5 16.5 0.5 16.5 3.5 L 16.5 13.5 C 16.5 16.5 16.5 16.5 13.5 16.5 L 3.5 16.5 C 0.5 16.5 0.5 16.5 0.5 13.5 L 0.5 3.5 C 0.5 0.5 0.5 0.5 3.5 0.5"></path><text x="8"  style="font-size:12px;color:#333333;fill:#333333;" y="20"></text></g></svg>