<svg version="1.1" style="font-family: signika, serif; font-size: 12px; background-image: url(http://www.highcharts.com/samples/graphics/sand.png); background-position: initial initial; background-repeat: initial initial;" xmlns="http://www.w3.org/2000/svg" width="584" height="400" viewBox="0 0 584 400" xmlns:xlink="http://www.w3.org/1999/xlink"><style type="text/css"><![CDATA[@import url(http://fonts.googleapis.com/css?family=Signika:700);]]></style><desc>Created with Highcharts 4.1.7</desc><defs><clipPath id="highcharts-1"><rect x="0" y="0" width="429" height="289"></rect></clipPath><clipPath id="highcharts-2"><rect x="-99" y="-41" width="528" height="400"></rect></clipPath><clipPath id="highcharts-3"><rect x="0" y="0" width="429" height="289"></rect></clipPath></defs><g class="highcharts-grid" ></g><g class="highcharts-grid" ><path fill="none" d="M 72 330.5 L 501 330.5" stroke="#D8D8D8" stroke-width="1"  opacity="1"></path><path fill="none" d="M 72 272.5 L 501 272.5" stroke="#D8D8D8" stroke-width="1"  opacity="1"></path><path fill="none" d="M 72 214.5 L 501 214.5" stroke="#D8D8D8" stroke-width="1"  opacity="1"></path><path fill="none" d="M 72 157.5 L 501 157.5" stroke="#D8D8D8" stroke-width="1"  opacity="1"></path><path fill="none" d="M 72 99.5 L 501 99.5" stroke="#D8D8D8" stroke-width="1"  opacity="1"></path><path fill="none" d="M 72 40.5 L 501 40.5" stroke="#D8D8D8" stroke-width="1"  opacity="1"></path></g><g class="highcharts-grid" ><path fill="none" d="M 72 330.5 L 501 330.5" stroke="#D8D8D8" stroke-width="1"  opacity="1"></path><path fill="none" d="M 72 272.5 L 501 272.5" stroke="#D8D8D8" stroke-width="1"  opacity="1"></path><path fill="none" d="M 72 214.5 L 501 214.5" stroke="#D8D8D8" stroke-width="1"  opacity="1"></path><path fill="none" d="M 72 157.5 L 501 157.5" stroke="#D8D8D8" stroke-width="1"  opacity="1"></path><path fill="none" d="M 72 99.5 L 501 99.5" stroke="#D8D8D8" stroke-width="1"  opacity="1"></path><path fill="none" d="M 72 40.5 L 501 40.5" stroke="#D8D8D8" stroke-width="1"  opacity="1"></path></g><g class="highcharts-axis" ><path fill="none" d="M 107.5 330 L 107.5 340" stroke="#C0D0E0" stroke-width="1" opacity="1"></path><path fill="none" d="M 143.5 330 L 143.5 340" stroke="#C0D0E0" stroke-width="1" opacity="1"></path><path fill="none" d="M 178.5 330 L 178.5 340" stroke="#C0D0E0" stroke-width="1" opacity="1"></path><path fill="none" d="M 214.5 330 L 214.5 340" stroke="#C0D0E0" stroke-width="1" opacity="1"></path><path fill="none" d="M 250.5 330 L 250.5 340" stroke="#C0D0E0" stroke-width="1" opacity="1"></path><path fill="none" d="M 286.5 330 L 286.5 340" stroke="#C0D0E0" stroke-width="1" opacity="1"></path><path fill="none" d="M 321.5 330 L 321.5 340" stroke="#C0D0E0" stroke-width="1" opacity="1"></path><path fill="none" d="M 357.5 330 L 357.5 340" stroke="#C0D0E0" stroke-width="1" opacity="1"></path><path fill="none" d="M 393.5 330 L 393.5 340" stroke="#C0D0E0" stroke-width="1" opacity="1"></path><path fill="none" d="M 429.5 330 L 429.5 340" stroke="#C0D0E0" stroke-width="1" opacity="1"></path><path fill="none" d="M 464.5 330 L 464.5 340" stroke="#C0D0E0" stroke-width="1" opacity="1"></path><path fill="none" d="M 501.5 330 L 501.5 340" stroke="#C0D0E0" stroke-width="1" opacity="1"></path><path fill="none" d="M 71.5 330 L 71.5 340" stroke="#C0D0E0" stroke-width="1" opacity="1"></path><path fill="none" d="M 72 330.5 L 501 330.5" stroke="#C0D0E0" stroke-width="1"  visibility="visible"></path></g><g class="highcharts-axis" ><text x="21.5"  text-anchor="middle" transform="translate(0,0) rotate(270 21.5 185.5)" class=" highcharts-yaxis-title" style="color:#8085e9;fill:#8085e9;" visibility="visible" y="185.5">Temperature</text></g><g class="highcharts-axis" ><text x="562.3"  text-anchor="middle" transform="translate(0,0) rotate(90 562.3 185.5)" class=" highcharts-yaxis-title" style="color:#f45b5b;fill:#f45b5b;" visibility="visible" y="185.5">Rainfall</text></g><g class="highcharts-series-group" ><g class="highcharts-series highcharts-tracker" visibility="visible"  transform="translate(72,41) scale(1 1)" style="" clip-path="url(#highcharts-1)"><rect x="8.5" y="231.5" width="18" height="58" stroke="black" stroke-width="5" fill="none" rx="0" ry="0"  stroke-opacity="0.0" transform="translate(1, 1)"></rect><rect x="8.5" y="231.5" width="18" height="58" stroke="black" stroke-width="3" fill="none" rx="0" ry="0"  stroke-opacity="0.0" transform="translate(1, 1)"></rect><rect x="8.5" y="231.5" width="18" height="58" stroke="black" stroke-width="1" fill="none" rx="0" ry="0"  stroke-opacity="0.1" transform="translate(1, 1)"></rect><rect x="8.5" y="231.5" width="18" height="58" stroke="#FFFFFF" stroke-width="1" fill="#f45b5b" rx="0" ry="0"></rect><rect x="44.5" y="206.5" width="18" height="83" stroke="black" stroke-width="5" fill="none" rx="0" ry="0"  stroke-opacity="0.0" transform="translate(1, 1)"></rect><rect x="44.5" y="206.5" width="18" height="83" stroke="black" stroke-width="3" fill="none" rx="0" ry="0"  stroke-opacity="0.0" transform="translate(1, 1)"></rect><rect x="44.5" y="206.5" width="18" height="83" stroke="black" stroke-width="1" fill="none" rx="0" ry="0"  stroke-opacity="0.1" transform="translate(1, 1)"></rect><rect x="44.5" y="206.5" width="18" height="83" stroke="#FFFFFF" stroke-width="1" fill="#f45b5b" rx="0" ry="0"></rect><rect x="80.5" y="166.5" width="18" height="123" stroke="black" stroke-width="5" fill="none" rx="0" ry="0"  stroke-opacity="0.0" transform="translate(1, 1)"></rect><rect x="80.5" y="166.5" width="18" height="123" stroke="black" stroke-width="3" fill="none" rx="0" ry="0"  stroke-opacity="0.0" transform="translate(1, 1)"></rect><rect x="80.5" y="166.5" width="18" height="123" stroke="black" stroke-width="1" fill="none" rx="0" ry="0"  stroke-opacity="0.1" transform="translate(1, 1)"></rect><rect x="80.5" y="166.5" width="18" height="123" stroke="#FFFFFF" stroke-width="1" fill="#f45b5b" rx="0" ry="0"></rect><rect x="116.5" y="140.5" width="18" height="149" stroke="black" stroke-width="5" fill="none" rx="0" ry="0"  stroke-opacity="0.0" transform="translate(1, 1)"></rect><rect x="116.5" y="140.5" width="18" height="149" stroke="black" stroke-width="3" fill="none" rx="0" ry="0"  stroke-opacity="0.0" transform="translate(1, 1)"></rect><rect x="116.5" y="140.5" width="18" height="149" stroke="black" stroke-width="1" fill="none" rx="0" ry="0"  stroke-opacity="0.1" transform="translate(1, 1)"></rect><rect x="116.5" y="140.5" width="18" height="149" stroke="#FFFFFF" stroke-width="1" fill="#f45b5b" rx="0" ry="0"></rect><rect x="151.5" y="123.5" width="18" height="166" stroke="black" stroke-width="5" fill="none" rx="0" ry="0"  stroke-opacity="0.0" transform="translate(1, 1)"></rect><rect x="151.5" y="123.5" width="18" height="166" stroke="black" stroke-width="3" fill="none" rx="0" ry="0"  stroke-opacity="0.0" transform="translate(1, 1)"></rect><rect x="151.5" y="123.5" width="18" height="166" stroke="black" stroke-width="1" fill="none" rx="0" ry="0"  stroke-opacity="0.1" transform="translate(1, 1)"></rect><rect x="151.5" y="123.5" width="18" height="166" stroke="#FFFFFF" stroke-width="1" fill="#f45b5b" rx="0" ry="0"></rect><rect x="187.5" y="86.5" width="18" height="203" stroke="black" stroke-width="5" fill="none" rx="0" ry="0"  stroke-opacity="0.0" transform="translate(1, 1)"></rect><rect x="187.5" y="86.5" width="18" height="203" stroke="black" stroke-width="3" fill="none" rx="0" ry="0"  stroke-opacity="0.0" transform="translate(1, 1)"></rect><rect x="187.5" y="86.5" width="18" height="203" stroke="black" stroke-width="1" fill="none" rx="0" ry="0"  stroke-opacity="0.1" transform="translate(1, 1)"></rect><rect x="187.5" y="86.5" width="18" height="203" stroke="#FFFFFF" stroke-width="1" fill="#f45b5b" rx="0" ry="0"></rect><rect x="223.5" y="132.5" width="18" height="157" stroke="black" stroke-width="5" fill="none" rx="0" ry="0"  stroke-opacity="0.0" transform="translate(1, 1)"></rect><rect x="223.5" y="132.5" width="18" height="157" stroke="black" stroke-width="3" fill="none" rx="0" ry="0"  stroke-opacity="0.0" transform="translate(1, 1)"></rect><rect x="223.5" y="132.5" width="18" height="157" stroke="black" stroke-width="1" fill="none" rx="0" ry="0"  stroke-opacity="0.1" transform="translate(1, 1)"></rect><rect x="223.5" y="132.5" width="18" height="157" stroke="#FFFFFF" stroke-width="1" fill="#f45b5b" rx="0" ry="0"></rect><rect x="259.5" y="117.5" width="18" height="172" stroke="black" stroke-width="5" fill="none" rx="0" ry="0"  stroke-opacity="0.0" transform="translate(1, 1)"></rect><rect x="259.5" y="117.5" width="18" height="172" stroke="black" stroke-width="3" fill="none" rx="0" ry="0"  stroke-opacity="0.0" transform="translate(1, 1)"></rect><rect x="259.5" y="117.5" width="18" height="172" stroke="black" stroke-width="1" fill="none" rx="0" ry="0"  stroke-opacity="0.1" transform="translate(1, 1)"></rect><rect x="259.5" y="117.5" width="18" height="172" stroke="#FFFFFF" stroke-width="1" fill="#f45b5b" rx="0" ry="0"></rect><rect x="294.5" y="39.5" width="18" height="250" stroke="black" stroke-width="5" fill="none" rx="0" ry="0"  stroke-opacity="0.0" transform="translate(1, 1)"></rect><rect x="294.5" y="39.5" width="18" height="250" stroke="black" stroke-width="3" fill="none" rx="0" ry="0"  stroke-opacity="0.0" transform="translate(1, 1)"></rect><rect x="294.5" y="39.5" width="18" height="250" stroke="black" stroke-width="1" fill="none" rx="0" ry="0"  stroke-opacity="0.1" transform="translate(1, 1)"></rect><rect x="294.5" y="39.5" width="18" height="250" stroke="#FFFFFF" stroke-width="1" fill="#f45b5b" rx="0" ry="0"></rect><rect x="330.5" y="65.5" width="18" height="224" stroke="black" stroke-width="5" fill="none" rx="0" ry="0"  stroke-opacity="0.0" transform="translate(1, 1)"></rect><rect x="330.5" y="65.5" width="18" height="224" stroke="black" stroke-width="3" fill="none" rx="0" ry="0"  stroke-opacity="0.0" transform="translate(1, 1)"></rect><rect x="330.5" y="65.5" width="18" height="224" stroke="black" stroke-width="1" fill="none" rx="0" ry="0"  stroke-opacity="0.1" transform="translate(1, 1)"></rect><rect x="330.5" y="65.5" width="18" height="224" stroke="#FFFFFF" stroke-width="1" fill="#f45b5b" rx="0" ry="0"></rect><rect x="366.5" y="178.5" width="18" height="111" stroke="black" stroke-width="5" fill="none" rx="0" ry="0"  stroke-opacity="0.0" transform="translate(1, 1)"></rect><rect x="366.5" y="178.5" width="18" height="111" stroke="black" stroke-width="3" fill="none" rx="0" ry="0"  stroke-opacity="0.0" transform="translate(1, 1)"></rect><rect x="366.5" y="178.5" width="18" height="111" stroke="black" stroke-width="1" fill="none" rx="0" ry="0"  stroke-opacity="0.1" transform="translate(1, 1)"></rect><rect x="366.5" y="178.5" width="18" height="111" stroke="#FFFFFF" stroke-width="1" fill="#f45b5b" rx="0" ry="0"></rect><rect x="402.5" y="226.5" width="18" height="63" stroke="black" stroke-width="5" fill="none" rx="0" ry="0"  stroke-opacity="0.0" transform="translate(1, 1)"></rect><rect x="402.5" y="226.5" width="18" height="63" stroke="black" stroke-width="3" fill="none" rx="0" ry="0"  stroke-opacity="0.0" transform="translate(1, 1)"></rect><rect x="402.5" y="226.5" width="18" height="63" stroke="black" stroke-width="1" fill="none" rx="0" ry="0"  stroke-opacity="0.1" transform="translate(1, 1)"></rect><rect x="402.5" y="226.5" width="18" height="63" stroke="#FFFFFF" stroke-width="1" fill="#f45b5b" rx="0" ry="0"></rect></g><g class="highcharts-markers" visibility="visible"  transform="translate(72,41) scale(1 1)"></g><g class="highcharts-series highcharts-tracker" visibility="visible"  transform="translate(72,41) scale(1 1)" style="" clip-path="url(#highcharts-1)"><g><path fill="none" d="M 17.5 233 L 17.5 230 M 17.5 233 L 17.5 233" stroke="#000000" stroke-width="1"></path><path fill="none" d="M 13 230.5 L 22 230.5 M 13 233.5 L 22 233.5" stroke="#000000" stroke-width="1"></path><path fill="none" d="M 0 0" stroke="#000000" stroke-width="2"></path></g><g><path fill="none" d="M 53.5 210 L 53.5 204 M 53.5 210 L 53.5 210" stroke="#000000" stroke-width="1"></path><path fill="none" d="M 49 204.5 L 58 204.5 M 49 210.5 L 58 210.5" stroke="#000000" stroke-width="1"></path><path fill="none" d="M 0 0" stroke="#000000" stroke-width="2"></path></g><g><path fill="none" d="M 89.5 182 L 89.5 161 M 89.5 182 L 89.5 182" stroke="#000000" stroke-width="1"></path><path fill="none" d="M 85 161.5 L 94 161.5 M 85 182.5 L 94 182.5" stroke="#000000" stroke-width="1"></path><path fill="none" d="M 0 0" stroke="#000000" stroke-width="2"></path></g><g><path fill="none" d="M 125.5 141 L 125.5 131 M 125.5 141 L 125.5 141" stroke="#000000" stroke-width="1"></path><path fill="none" d="M 121 131.5 L 130 131.5 M 121 141.5 L 130 141.5" stroke="#000000" stroke-width="1"></path><path fill="none" d="M 0 0" stroke="#000000" stroke-width="2"></path></g><g><path fill="none" d="M 160.5 127 L 160.5 115 M 160.5 127 L 160.5 127" stroke="#000000" stroke-width="1"></path><path fill="none" d="M 156 115.5 L 165 115.5 M 156 127.5 L 165 127.5" stroke="#000000" stroke-width="1"></path><path fill="none" d="M 0 0" stroke="#000000" stroke-width="2"></path></g><g><path fill="none" d="M 196.5 91 L 196.5 82 M 196.5 91 L 196.5 91" stroke="#000000" stroke-width="1"></path><path fill="none" d="M 192 82.5 L 201 82.5 M 192 91.5 L 201 91.5" stroke="#000000" stroke-width="1"></path><path fill="none" d="M 0 0" stroke="#000000" stroke-width="2"></path></g><g><path fill="none" d="M 232.5 132 L 232.5 123 M 232.5 132 L 232.5 132" stroke="#000000" stroke-width="1"></path><path fill="none" d="M 228 123.5 L 237 123.5 M 228 132.5 L 237 132.5" stroke="#000000" stroke-width="1"></path><path fill="none" d="M 0 0" stroke="#000000" stroke-width="2"></path></g><g><path fill="none" d="M 268.5 124 L 268.5 116 M 268.5 124 L 268.5 124" stroke="#000000" stroke-width="1"></path><path fill="none" d="M 264 116.5 L 273 116.5 M 264 124.5 L 273 124.5" stroke="#000000" stroke-width="1"></path><path fill="none" d="M 0 0" stroke="#000000" stroke-width="2"></path></g><g><path fill="none" d="M 303.5 53 L 303.5 34 M 303.5 53 L 303.5 53" stroke="#000000" stroke-width="1"></path><path fill="none" d="M 299 34.5 L 308 34.5 M 299 53.5 L 308 53.5" stroke="#000000" stroke-width="1"></path><path fill="none" d="M 0 0" stroke="#000000" stroke-width="2"></path></g><g><path fill="none" d="M 339.5 70 L 339.5 58 M 339.5 70 L 339.5 70" stroke="#000000" stroke-width="1"></path><path fill="none" d="M 335 58.5 L 344 58.5 M 335 70.5 L 344 70.5" stroke="#000000" stroke-width="1"></path><path fill="none" d="M 0 0" stroke="#000000" stroke-width="2"></path></g><g><path fill="none" d="M 375.5 179 L 375.5 161 M 375.5 179 L 375.5 179" stroke="#000000" stroke-width="1"></path><path fill="none" d="M 371 161.5 L 380 161.5 M 371 179.5 L 380 179.5" stroke="#000000" stroke-width="1"></path><path fill="none" d="M 0 0" stroke="#000000" stroke-width="2"></path></g><g><path fill="none" d="M 411.5 228 L 411.5 224 M 411.5 228 L 411.5 228" stroke="#000000" stroke-width="1"></path><path fill="none" d="M 407 224.5 L 416 224.5 M 407 228.5 L 416 228.5" stroke="#000000" stroke-width="1"></path><path fill="none" d="M 0 0" stroke="#000000" stroke-width="2"></path></g></g><g class="highcharts-markers" visibility="visible"  transform="translate(72,41) scale(1 1)"></g><g class="highcharts-series" visibility="visible"  transform="translate(72,41) scale(1 1)" clip-path="url(#highcharts-3)"><path fill="none" d="M 17.8 248.5 C 17.8 248.5 39.3 249.1 53.6 249.1 C 67.9 249.1 75.0 242.8 89.3 234.0 C 103.6 225.3 110.8 215.2 125.1 205.1 C 139.4 195.1 146.5 191.8 160.8 183.8 C 175.1 175.7 182.3 172.8 196.6 164.7 C 210.9 156.6 218.0 149.1 232.3 143.3 C 246.6 137.5 253.8 135.8 268.1 135.8 C 282.4 135.8 289.5 144.8 303.8 154.3 C 318.1 163.8 325.3 172.3 339.6 183.2 C 353.9 194.0 361.0 198.6 375.3 208.6 C 389.6 218.7 411.1 233.5 411.1 233.5" stroke="black" stroke-width="5"  stroke-linejoin="round" stroke-linecap="round"  stroke-opacity="0.0" transform="translate(1, 1)"></path><path fill="none" d="M 17.8 248.5 C 17.8 248.5 39.3 249.1 53.6 249.1 C 67.9 249.1 75.0 242.8 89.3 234.0 C 103.6 225.3 110.8 215.2 125.1 205.1 C 139.4 195.1 146.5 191.8 160.8 183.8 C 175.1 175.7 182.3 172.8 196.6 164.7 C 210.9 156.6 218.0 149.1 232.3 143.3 C 246.6 137.5 253.8 135.8 268.1 135.8 C 282.4 135.8 289.5 144.8 303.8 154.3 C 318.1 163.8 325.3 172.3 339.6 183.2 C 353.9 194.0 361.0 198.6 375.3 208.6 C 389.6 218.7 411.1 233.5 411.1 233.5" stroke="black" stroke-width="3"  stroke-linejoin="round" stroke-linecap="round"  stroke-opacity="0.0" transform="translate(1, 1)"></path><path fill="none" d="M 17.8 248.5 C 17.8 248.5 39.3 249.1 53.6 249.1 C 67.9 249.1 75.0 242.8 89.3 234.0 C 103.6 225.3 110.8 215.2 125.1 205.1 C 139.4 195.1 146.5 191.8 160.8 183.8 C 175.1 175.7 182.3 172.8 196.6 164.7 C 210.9 156.6 218.0 149.1 232.3 143.3 C 246.6 137.5 253.8 135.8 268.1 135.8 C 282.4 135.8 289.5 144.8 303.8 154.3 C 318.1 163.8 325.3 172.3 339.6 183.2 C 353.9 194.0 361.0 198.6 375.3 208.6 C 389.6 218.7 411.1 233.5 411.1 233.5" stroke="black" stroke-width="1"  stroke-linejoin="round" stroke-linecap="round"  stroke-opacity="0.1" transform="translate(1, 1)"></path><path fill="none" d="M 17.8 248.5 C 17.8 248.5 39.3 249.1 53.6 249.1 C 67.9 249.1 75.0 242.8 89.3 234.0 C 103.6 225.3 110.8 215.2 125.1 205.1 C 139.4 195.1 146.5 191.8 160.8 183.8 C 175.1 175.7 182.3 172.8 196.6 164.7 C 210.9 156.6 218.0 149.1 232.3 143.3 C 246.6 137.5 253.8 135.8 268.1 135.8 C 282.4 135.8 289.5 144.8 303.8 154.3 C 318.1 163.8 325.3 172.3 339.6 183.2 C 353.9 194.0 361.0 198.6 375.3 208.6 C 389.6 218.7 411.1 233.5 411.1 233.5" stroke="#8085e9" stroke-width="2"  stroke-linejoin="round" stroke-linecap="round"></path><path fill="none" d="M 7.8 248.5 L 17.8 248.5 C 17.8 248.5 39.3 249.1 53.6 249.1 C 67.9 249.1 75.0 242.8 89.3 234.0 C 103.6 225.3 110.8 215.2 125.1 205.1 C 139.4 195.1 146.5 191.8 160.8 183.8 C 175.1 175.7 182.3 172.8 196.6 164.7 C 210.9 156.6 218.0 149.1 232.3 143.3 C 246.6 137.5 253.8 135.8 268.1 135.8 C 282.4 135.8 289.5 144.8 303.8 154.3 C 318.1 163.8 325.3 172.3 339.6 183.2 C 353.9 194.0 361.0 198.6 375.3 208.6 C 389.6 218.7 411.1 233.5 411.1 233.5 L 421.1 233.5" stroke-linejoin="round" visibility="visible" stroke="rgb(192,192,192)" stroke-opacity="0.0" stroke-width="22"  class=" highcharts-tracker" style=""></path></g><g class="highcharts-markers highcharts-tracker" visibility="visible"  transform="translate(72,41) scale(1 1)" clip-path="url(#highcharts-2)" style=""><path fill="#8085e9" d="M 411 229.5 C 416.3 229.5 416.3 237.5 411 237.5 C 405.6 237.5 405.6 229.5 411 229.5 Z"></path><path fill="#8085e9" d="M 375 204.6 C 380.3 204.6 380.3 212.6 375 212.6 C 369.6 212.6 369.6 204.6 375 204.6 Z"></path><path fill="#8085e9" d="M 339 179.2 C 344.3 179.2 344.3 187.2 339 187.2 C 333.6 187.2 333.6 179.2 339 179.2 Z"></path><path fill="#8085e9" d="M 303 150.3 C 308.3 150.3 308.3 158.3 303 158.3 C 297.6 158.3 297.6 150.3 303 150.3 Z"></path><path fill="#8085e9" d="M 268 131.8 C 273.3 131.8 273.3 139.8 268 139.8 C 262.6 139.8 262.6 131.8 268 131.8 Z"></path><path fill="#8085e9" d="M 232 139.3 C 237.3 139.3 237.3 147.3 232 147.3 C 226.6 147.3 226.6 139.3 232 139.3 Z"></path><path fill="#8085e9" d="M 196 160.7 C 201.3 160.7 201.3 168.7 196 168.7 C 190.6 168.7 190.6 160.7 196 160.7 Z"></path><path fill="#8085e9" d="M 160 179.8 C 165.3 179.8 165.3 187.8 160 187.8 C 154.6 187.8 154.6 179.8 160 179.8 Z"></path><path fill="#8085e9" d="M 125 201.1 C 130.3 201.1 130.3 209.1 125 209.1 C 119.6 209.1 119.6 201.1 125 201.1 Z"></path><path fill="#8085e9" d="M 89 230.0 C 94.3 230.0 94.3 238.0 89 238.0 C 83.6 238.0 83.6 230.0 89 230.0 Z"></path><path fill="#8085e9" d="M 53 245.1 C 58.3 245.1 58.3 253.1 53 253.1 C 47.6 253.1 47.6 245.1 53 245.1 Z"></path><path fill="#8085e9" d="M 17 244.5 C 22.3 244.5 22.3 252.5 17 252.5 C 11.6 252.5 11.6 244.5 17 244.5 Z"></path></g><g class="highcharts-series highcharts-tracker" visibility="visible"  transform="translate(72,41) scale(1 1)" style="" clip-path="url(#highcharts-1)"><g><path fill="none" d="M 17.5 254 L 17.5 242 M 17.5 254 L 17.5 254" stroke="#000000" stroke-width="1"></path><path fill="none" d="M 13 242.5 L 22 242.5 M 13 254.5 L 22 254.5" stroke="#000000" stroke-width="1"></path><path fill="none" d="M 0 0" stroke="#000000" stroke-width="2"></path></g><g><path fill="none" d="M 53.5 254 L 53.5 245 M 53.5 254 L 53.5 254" stroke="#000000" stroke-width="1"></path><path fill="none" d="M 49 245.5 L 58 245.5 M 49 254.5 L 58 254.5" stroke="#000000" stroke-width="1"></path><path fill="none" d="M 0 0" stroke="#000000" stroke-width="2"></path></g><g><path fill="none" d="M 89.5 234 L 89.5 228 M 89.5 234 L 89.5 234" stroke="#000000" stroke-width="1"></path><path fill="none" d="M 85 228.5 L 94 228.5 M 85 234.5 L 94 234.5" stroke="#000000" stroke-width="1"></path><path fill="none" d="M 0 0" stroke="#000000" stroke-width="2"></path></g><g><path fill="none" d="M 125.5 207 L 125.5 197 M 125.5 207 L 125.5 207" stroke="#000000" stroke-width="1"></path><path fill="none" d="M 121 197.5 L 130 197.5 M 121 207.5 L 130 207.5" stroke="#000000" stroke-width="1"></path><path fill="none" d="M 0 0" stroke="#000000" stroke-width="2"></path></g><g><path fill="none" d="M 160.5 184 L 160.5 172 M 160.5 184 L 160.5 184" stroke="#000000" stroke-width="1"></path><path fill="none" d="M 156 172.5 L 165 172.5 M 156 184.5 L 165 184.5" stroke="#000000" stroke-width="1"></path><path fill="none" d="M 0 0" stroke="#000000" stroke-width="2"></path></g><g><path fill="none" d="M 196.5 167 L 196.5 150 M 196.5 167 L 196.5 167" stroke="#000000" stroke-width="1"></path><path fill="none" d="M 192 150.5 L 201 150.5 M 192 167.5 L 201 167.5" stroke="#000000" stroke-width="1"></path><path fill="none" d="M 0 0" stroke="#000000" stroke-width="2"></path></g><g><path fill="none" d="M 232.5 154 L 232.5 142 M 232.5 154 L 232.5 154" stroke="#000000" stroke-width="1"></path><path fill="none" d="M 228 142.5 L 237 142.5 M 228 154.5 L 237 154.5" stroke="#000000" stroke-width="1"></path><path fill="none" d="M 0 0" stroke="#000000" stroke-width="2"></path></g><g><path fill="none" d="M 268.5 138 L 268.5 128 M 268.5 138 L 268.5 138" stroke="#000000" stroke-width="1"></path><path fill="none" d="M 264 128.5 L 273 128.5 M 264 138.5 L 273 138.5" stroke="#000000" stroke-width="1"></path><path fill="none" d="M 0 0" stroke="#000000" stroke-width="2"></path></g><g><path fill="none" d="M 303.5 154 L 303.5 150 M 303.5 154 L 303.5 154" stroke="#000000" stroke-width="1"></path><path fill="none" d="M 299 150.5 L 308 150.5 M 299 154.5 L 308 154.5" stroke="#000000" stroke-width="1"></path><path fill="none" d="M 0 0" stroke="#000000" stroke-width="2"></path></g><g><path fill="none" d="M 339.5 184 L 339.5 167 M 339.5 184 L 339.5 184" stroke="#000000" stroke-width="1"></path><path fill="none" d="M 335 167.5 L 344 167.5 M 335 184.5 L 344 184.5" stroke="#000000" stroke-width="1"></path><path fill="none" d="M 0 0" stroke="#000000" stroke-width="2"></path></g><g><path fill="none" d="M 375.5 214 L 375.5 208 M 375.5 214 L 375.5 214" stroke="#000000" stroke-width="1"></path><path fill="none" d="M 371 208.5 L 380 208.5 M 371 214.5 L 380 214.5" stroke="#000000" stroke-width="1"></path><path fill="none" d="M 0 0" stroke="#000000" stroke-width="2"></path></g><g><path fill="none" d="M 411.5 245 L 411.5 231 M 411.5 245 L 411.5 245" stroke="#000000" stroke-width="1"></path><path fill="none" d="M 407 231.5 L 416 231.5 M 407 245.5 L 416 245.5" stroke="#000000" stroke-width="1"></path><path fill="none" d="M 0 0" stroke="#000000" stroke-width="2"></path></g></g><g class="highcharts-markers" visibility="visible"  transform="translate(72,41) scale(1 1)"></g></g><text x="292" text-anchor="middle" class="highcharts-title"  style="color:black;font-size:16px;font-weight:bold;fill:black;width:520px;" y="22"><tspan>Temperature vs Rainfall</tspan></text><g class="highcharts-legend"  transform="translate(194,361)"><g ><g><g class="highcharts-legend-item"  transform="translate(8,3)"><text x="21" style="color:#333333;font-size:13px;font-weight:bold;cursor:pointer;fill:#333333;" text-anchor="start"  y="16">Rainfall</text><rect x="0" y="4" width="16" height="13"  fill="#f45b5b"></rect></g><g class="highcharts-legend-item"  transform="translate(93.7,3)"><path fill="none" d="M 0 12 L 16 12" stroke="#8085e9" stroke-width="2"></path><path fill="#8085e9" d="M 8 8 C 13.3 8 13.3 16 8 16 C 2.6 16 2.6 8 8 8 Z"></path><text x="21" y="16" style="color:#333333;font-size:13px;font-weight:bold;cursor:pointer;fill:#333333;" text-anchor="start" >Temperature</text></g></g></g></g><g class="highcharts-axis-labels highcharts-xaxis-labels" ><text x="89.8" style="color:#6e6e70;cursor:default;font-size:11px;fill:#6e6e70;" text-anchor="middle" transform="translate(0,0)" y="349" opacity="1">Jan</text><text x="125.6" style="color:#6e6e70;cursor:default;font-size:11px;fill:#6e6e70;" text-anchor="middle" transform="translate(0,0)" y="349" opacity="1">Feb</text><text x="161.3" style="color:#6e6e70;cursor:default;font-size:11px;fill:#6e6e70;" text-anchor="middle" transform="translate(0,0)" y="349" opacity="1">Mar</text><text x="197.1" style="color:#6e6e70;cursor:default;font-size:11px;fill:#6e6e70;" text-anchor="middle" transform="translate(0,0)" y="349" opacity="1">Apr</text><text x="232.8" style="color:#6e6e70;cursor:default;font-size:11px;fill:#6e6e70;" text-anchor="middle" transform="translate(0,0)" y="349" opacity="1">May</text><text x="268.6" style="color:#6e6e70;cursor:default;font-size:11px;fill:#6e6e70;" text-anchor="middle" transform="translate(0,0)" y="349" opacity="1">Jun</text><text x="304.3" style="color:#6e6e70;cursor:default;font-size:11px;fill:#6e6e70;" text-anchor="middle" transform="translate(0,0)" y="349" opacity="1">Jul</text><text x="340.1" style="color:#6e6e70;cursor:default;font-size:11px;fill:#6e6e70;" text-anchor="middle" transform="translate(0,0)" y="349" opacity="1">Aug</text><text x="375.8" style="color:#6e6e70;cursor:default;font-size:11px;fill:#6e6e70;" text-anchor="middle" transform="translate(0,0)" y="349" opacity="1">Sep</text><text x="411.6" style="color:#6e6e70;cursor:default;font-size:11px;fill:#6e6e70;" text-anchor="middle" transform="translate(0,0)" y="349" opacity="1">Oct</text><text x="447.3" style="color:#6e6e70;cursor:default;font-size:11px;fill:#6e6e70;" text-anchor="middle" transform="translate(0,0)" y="349" opacity="1">Nov</text><text x="483.1" style="color:#6e6e70;cursor:default;font-size:11px;fill:#6e6e70;" text-anchor="middle" transform="translate(0,0)" y="349" opacity="1">Dec</text></g><g class="highcharts-axis-labels highcharts-yaxis-labels" ><text x="57" style="color:#8085e9;cursor:default;font-size:11px;fill:#8085e9;width:183px;text-overflow:clip;" text-anchor="end" transform="translate(0,0)" y="336" opacity="1"><tspan>0 °C</tspan></text><text x="57" style="color:#8085e9;cursor:default;font-size:11px;fill:#8085e9;width:183px;text-overflow:clip;" text-anchor="end" transform="translate(0,0)" y="278" opacity="1"><tspan>10 °C</tspan></text><text x="57" style="color:#8085e9;cursor:default;font-size:11px;fill:#8085e9;width:183px;text-overflow:clip;" text-anchor="end" transform="translate(0,0)" y="220" opacity="1"><tspan>20 °C</tspan></text><text x="57" style="color:#8085e9;cursor:default;font-size:11px;fill:#8085e9;width:183px;text-overflow:clip;" text-anchor="end" transform="translate(0,0)" y="162" opacity="1"><tspan>30 °C</tspan></text><text x="57" style="color:#8085e9;cursor:default;font-size:11px;fill:#8085e9;width:183px;text-overflow:clip;" text-anchor="end" transform="translate(0,0)" y="104" opacity="1"><tspan>40 °C</tspan></text><text x="57" style="color:#8085e9;cursor:default;font-size:11px;fill:#8085e9;width:183px;text-overflow:clip;" text-anchor="end" transform="translate(0,0)" y="47" opacity="1"><tspan>50 °C</tspan></text></g><g class="highcharts-axis-labels highcharts-yaxis-labels" ><text x="516" style="color:#f45b5b;cursor:default;font-size:11px;fill:#f45b5b;width:183px;text-overflow:clip;" text-anchor="start" transform="translate(0,0)" y="336" opacity="1"><tspan>0 mm</tspan></text><text x="516" style="color:#f45b5b;cursor:default;font-size:11px;fill:#f45b5b;width:183px;text-overflow:clip;" text-anchor="start" transform="translate(0,0)" y="278" opacity="1"><tspan>50 mm</tspan></text><text x="516" style="color:#f45b5b;cursor:default;font-size:11px;fill:#f45b5b;width:183px;text-overflow:clip;" text-anchor="start" transform="translate(0,0)" y="220" opacity="1"><tspan>100 mm</tspan></text><text x="516" style="color:#f45b5b;cursor:default;font-size:11px;fill:#f45b5b;width:183px;text-overflow:clip;" text-anchor="start" transform="translate(0,0)" y="162" opacity="1"><tspan>150 mm</tspan></text><text x="516" style="color:#f45b5b;cursor:default;font-size:11px;fill:#f45b5b;width:183px;text-overflow:clip;" text-anchor="start" transform="translate(0,0)" y="104" opacity="1"><tspan>200 mm</tspan></text><text x="516" style="color:#f45b5b;cursor:default;font-size:11px;fill:#f45b5b;width:183px;text-overflow:clip;" text-anchor="start" transform="translate(0,0)" y="47" opacity="1"><tspan>250 mm</tspan></text></g><g class="highcharts-tooltip"  style="cursor:default;padding:0;white-space:nowrap;" transform="translate(0,-9999)"><path fill="none" d="M 3 0 L 13 0 C 16 0 16 0 16 3 L 16 13 C 16 16 16 16 13 16 L 3 16 C 0 16 0 16 0 13 L 0 3 C 0 0 0 0 3 0"  stroke="black" stroke-opacity="0.0" stroke-width="5" transform="translate(1, 1)"></path><path fill="none" d="M 3 0 L 13 0 C 16 0 16 0 16 3 L 16 13 C 16 16 16 16 13 16 L 3 16 C 0 16 0 16 0 13 L 0 3 C 0 0 0 0 3 0"  stroke="black" stroke-opacity="0.0" stroke-width="3" transform="translate(1, 1)"></path><path fill="none" d="M 3 0 L 13 0 C 16 0 16 0 16 3 L 16 13 C 16 16 16 16 13 16 L 3 16 C 0 16 0 16 0 13 L 0 3 C 0 0 0 0 3 0"  stroke="black" stroke-opacity="0.1" stroke-width="1" transform="translate(1, 1)"></path><path fill="rgb(249, 249, 249)" fill-opacity=" .85" d="M 3 0 L 13 0 C 16 0 16 0 16 3 L 16 13 C 16 16 16 16 13 16 L 3 16 C 0 16 0 16 0 13 L 0 3 C 0 0 0 0 3 0"></path><text x="8"  style="font-size:12px;color:#333333;fill:#333333;" y="20"></text></g></svg>