<svg version="1.1" style="font-family:&quot;lucida grande&quot;, &quot;lucida sans unicode&quot;, arial, helvetica, sans-serif;font-size:12px;" xmlns="http://www.w3.org/2000/svg" width="584" height="400" viewBox="0 0 584 400"><desc>Created with Highcharts 4.1.6</desc><defs><clipPath id="highcharts-1"><rect x="0" y="0" width="474" height="339"></rect></clipPath></defs><rect x="0" y="0" width="584" height="400" strokeWidth="0" fill="#FFFFFF" class=" highcharts-background" stroke="transparent"></rect><g class="highcharts-series-group" ><g class="highcharts-series highcharts-tracker" visibility="visible"  transform="translate(10,46) scale(1 1)" style=""><path fill="#7cb5ec" d="M 23.6 0 L 450.3 0 324.1 225.5 149.8 225.5 Z" stroke="#FFFFFF" stroke-width="1"></path><path fill="#434348" d="M 149.8 225.5 L 324.1 225.5 308.1 254.2 308.1 284.1 165.9 284.1 165.9 254.2 Z" stroke="#FFFFFF" stroke-width="1"></path><path fill="#90ed7d" d="M 165.9 284.1 L 308.1 284.1 308.1 312.7 165.9 312.7 Z" stroke="#FFFFFF" stroke-width="1"></path><path fill="#f7a35c" d="M 165.9 312.7 L 308.1 312.7 308.1 326.8 165.9 326.8 Z" stroke="#FFFFFF" stroke-width="1"></path><path fill="#8085e9" d="M 165.9 326.8 L 308.1 326.8 308.1 338.9 165.9 338.9 Z" stroke="#FFFFFF" stroke-width="1"></path></g><g class="highcharts-markers" visibility="visible"  transform="translate(10,46) scale(1 1)"></g></g><text x="242" text-anchor="middle" class="highcharts-title"  style="color:#333333;font-size:18px;fill:#333333;width:520px;" y="24"><tspan>Sales funnel</tspan></text><g class="highcharts-data-labels highcharts-tracker" visibility="visible"  transform="translate(10,46) scale(1 1)" style=""><path fill="none" d="M 422.2 112.7 C 417.2 112.7 397.2 112.7 392.2 112.7 L 387.2 112.7" stroke="#606060" stroke-width="1" visibility="inherit"></path><path fill="none" d="M 343.7 253 C 338.7 253 318.1 254.8 313.1 254.8 L 308.1 254.8" stroke="#606060" stroke-width="1" visibility="inherit"></path><path fill="none" d="M 343.1 276 C 338.1 276 318.1 298.4 313.1 298.4 L 308.1 298.4" stroke="#606060" stroke-width="1" visibility="inherit"></path><path fill="none" d="M 343.1 299 C 338.1 299 318.1 319.7 313.1 319.7 L 308.1 319.7" stroke="#606060" stroke-width="1" visibility="inherit"></path><path fill="none" d="M 343.1 332.9 C 338.1 332.9 318.1 332.9 313.1 332.9 L 308.1 332.9" stroke="#606060" stroke-width="1" visibility="inherit"></path><g  style="" transform="translate(427,103)" visibility="inherit"><text x="5"  style="font-size: 11px; font-weight: bold; color: black; fill: #000000; text-shadow: rgb(255, 255, 255) 0px 0px 6px, rgb(255, 255, 255) 0px 0px 3px; text-rendering: geometricprecision; " y="16"><tspan style="font-weight:bold">Website visits</tspan><tspan dx="0"> (15 654)</tspan></text></g><g  style="" transform="translate(349,243)" visibility="inherit"><text x="5"  style="font-size: 11px; font-weight: bold; color: black; fill: #000000; text-shadow: rgb(255, 255, 255) 0px 0px 6px, rgb(255, 255, 255) 0px 0px 3px; text-rendering: geometricprecision; " y="16"><tspan style="font-weight:bold">Downloads</tspan><tspan dx="0"> (4 064)</tspan></text></g><g  style="" transform="translate(348,266)" visibility="inherit"><text x="5"  style="font-size: 11px; font-weight: bold; color: black; fill: #000000; text-shadow: rgb(255, 255, 255) 0px 0px 6px, rgb(255, 255, 255) 0px 0px 3px; text-rendering: geometricprecision; " y="16"><tspan style="font-weight:bold">Requested price list</tspan><tspan dx="0"> (1 987)</tspan></text></g><g  style="" transform="translate(348,289)" visibility="inherit"><text x="5"  style="font-size: 11px; font-weight: bold; color: black; fill: #000000; text-shadow: rgb(255, 255, 255) 0px 0px 6px, rgb(255, 255, 255) 0px 0px 3px; text-rendering: geometricprecision; " y="16"><tspan style="font-weight:bold">Invoice sent</tspan><tspan dx="0"> (976)</tspan></text></g><g  style="" transform="translate(348,323)" visibility="inherit"><text x="5"  style="font-size: 11px; font-weight: bold; color: black; fill: #000000; text-shadow: rgb(255, 255, 255) 0px 0px 6px, rgb(255, 255, 255) 0px 0px 3px; text-rendering: geometricprecision; " y="16"><tspan style="font-weight:bold">Finalized</tspan><tspan dx="0"> (846)</tspan></text></g></g><g class="highcharts-tooltip"  style="cursor:default;padding:0;white-space:nowrap;" transform="translate(0,-9999)"><path fill="none" d="M 3.5 0.5 L 13.5 0.5 C 16.5 0.5 16.5 0.5 16.5 3.5 L 16.5 13.5 C 16.5 16.5 16.5 16.5 13.5 16.5 L 3.5 16.5 C 0.5 16.5 0.5 16.5 0.5 13.5 L 0.5 3.5 C 0.5 0.5 0.5 0.5 3.5 0.5"  stroke="black" stroke-opacity="0.0" stroke-width="5" transform="translate(1, 1)"></path><path fill="none" d="M 3.5 0.5 L 13.5 0.5 C 16.5 0.5 16.5 0.5 16.5 3.5 L 16.5 13.5 C 16.5 16.5 16.5 16.5 13.5 16.5 L 3.5 16.5 C 0.5 16.5 0.5 16.5 0.5 13.5 L 0.5 3.5 C 0.5 0.5 0.5 0.5 3.5 0.5"  stroke="black" stroke-opacity="0.0" stroke-width="3" transform="translate(1, 1)"></path><path fill="none" d="M 3.5 0.5 L 13.5 0.5 C 16.5 0.5 16.5 0.5 16.5 3.5 L 16.5 13.5 C 16.5 16.5 16.5 16.5 13.5 16.5 L 3.5 16.5 C 0.5 16.5 0.5 16.5 0.5 13.5 L 0.5 3.5 C 0.5 0.5 0.5 0.5 3.5 0.5"  stroke="black" stroke-opacity="0.1" stroke-width="1" transform="translate(1, 1)"></path><path fill="rgb(249, 249, 249)" fill-opacity=" .85" d="M 3.5 0.5 L 13.5 0.5 C 16.5 0.5 16.5 0.5 16.5 3.5 L 16.5 13.5 C 16.5 16.5 16.5 16.5 13.5 16.5 L 3.5 16.5 C 0.5 16.5 0.5 16.5 0.5 13.5 L 0.5 3.5 C 0.5 0.5 0.5 0.5 3.5 0.5"></path><text x="8"  style="font-size:12px;color:#333333;fill:#333333;" y="20"></text></g></svg>