<svg version="1.1" style="font-family: signika, serif; font-size: 12px; background-image: url(http://www.highcharts.com/samples/graphics/sand.png); background-position: initial initial; background-repeat: initial initial;" xmlns="http://www.w3.org/2000/svg" width="584" height="400" viewBox="0 0 584 400" xmlns:xlink="http://www.w3.org/1999/xlink"><style type="text/css"><![CDATA[@import url(http://fonts.googleapis.com/css?family=Signika:700);]]></style><desc>Created with Highcharts 4.1.7</desc><defs><clipPath id="highcharts-1"><rect x="0" y="0" width="474" height="344"></rect></clipPath></defs><g class="highcharts-series-group" ><g class="highcharts-series highcharts-tracker" visibility="visible"  transform="translate(10,41) scale(1 1)" style=""><path fill="#f45b5b" d="M 23.6 0 L 450.3 0 324.1 228.8 149.8 228.8 Z" stroke="#FFFFFF" stroke-width="1"></path><path fill="#8085e9" d="M 149.8 228.8 L 324.1 228.8 308.1 258 308.1 288.3 165.9 288.3 165.9 258 Z" stroke="#FFFFFF" stroke-width="1"></path><path fill="#8d4654" d="M 165.9 288.3 L 308.1 288.3 308.1 317.3 165.9 317.3 Z" stroke="#FFFFFF" stroke-width="1"></path><path fill="#7798BF" d="M 165.9 317.3 L 308.1 317.3 308.1 331.6 165.9 331.6 Z" stroke="#FFFFFF" stroke-width="1"></path><path fill="#aaeeee" d="M 165.9 331.6 L 308.1 331.6 308.1 343.9 165.9 343.9 Z" stroke="#FFFFFF" stroke-width="1"></path></g><g class="highcharts-markers" visibility="visible"  transform="translate(10,41) scale(1 1)"></g></g><text x="242" text-anchor="middle" class="highcharts-title"  style="color:black;font-size:16px;font-weight:bold;fill:black;width:520px;" y="22"><tspan>Sales funnel</tspan></text><g class="highcharts-data-labels highcharts-tracker" visibility="visible"  transform="translate(10,41) scale(1 1)" style=""><path fill="none" d="M 422.2 114.4 C 417.2 114.4 397.2 114.4 392.2 114.4 L 387.2 114.4" stroke="#606060" stroke-width="1" visibility="inherit"></path><path fill="none" d="M 343.1 258.5 C 338.1 258.5 318.1 258.5 313.1 258.5 L 308.1 258.5" stroke="#606060" stroke-width="1" visibility="inherit"></path><path fill="none" d="M 343.1 294 C 338.1 294 318.1 302.8 313.1 302.8 L 308.1 302.8" stroke="#606060" stroke-width="1" visibility="inherit"></path><path fill="none" d="M 343.1 315 C 338.1 315 318.1 324.4 313.1 324.4 L 308.1 324.4" stroke="#606060" stroke-width="1" visibility="inherit"></path><path fill="none" d="M 343.1 337.8 C 338.1 337.8 318.1 337.8 313.1 337.8 L 308.1 337.8" stroke="#606060" stroke-width="1" visibility="inherit"></path><g  style="" transform="translate(427,104)" visibility="inherit"><text x="5"  style="font-size: 11px; font-weight: bold; color: black; fill: #000000; text-shadow: rgb(255, 255, 255) 0px 0px 6px, rgb(255, 255, 255) 0px 0px 3px; text-rendering: geometricprecision;" y="16"><tspan style="font-weight:bold">Website visits</tspan><tspan dx="0"> (15 654)</tspan></text></g><g  style="" transform="translate(348,249)" visibility="inherit"><text x="5"  style="font-size: 11px; font-weight: bold; color: black; fill: #000000; text-shadow: rgb(255, 255, 255) 0px 0px 6px, rgb(255, 255, 255) 0px 0px 3px; text-rendering: geometricprecision;" y="16"><tspan style="font-weight:bold">Downloads</tspan><tspan dx="0"> (4 064)</tspan></text></g><g  style="" transform="translate(348,284)" visibility="inherit"><text x="5"  style="font-size: 11px; font-weight: bold; color: black; fill: #000000; text-shadow: rgb(255, 255, 255) 0px 0px 6px, rgb(255, 255, 255) 0px 0px 3px; text-rendering: geometricprecision;" y="16"><tspan style="font-weight:bold">Requested price list</tspan><tspan dx="0"> (1 987)</tspan></text></g><g  style="" transform="translate(348,305)" visibility="inherit"><text x="5"  style="font-size: 11px; font-weight: bold; color: black; fill: #000000; text-shadow: rgb(255, 255, 255) 0px 0px 6px, rgb(255, 255, 255) 0px 0px 3px; text-rendering: geometricprecision;" y="16"><tspan style="font-weight:bold">Invoice sent</tspan><tspan dx="0"> (976)</tspan></text></g><g  style="" transform="translate(348,328)" visibility="inherit"><text x="5"  style="font-size: 11px; font-weight: bold; color: black; fill: #000000; text-shadow: rgb(255, 255, 255) 0px 0px 6px, rgb(255, 255, 255) 0px 0px 3px; text-rendering: geometricprecision;" y="16"><tspan style="font-weight:bold">Finalized</tspan><tspan dx="0"> (846)</tspan></text></g></g><g class="highcharts-tooltip"  style="cursor:default;padding:0;white-space:nowrap;" transform="translate(0,-9999)"><path fill="none" d="M 3 0 L 13 0 C 16 0 16 0 16 3 L 16 13 C 16 16 16 16 13 16 L 3 16 C 0 16 0 16 0 13 L 0 3 C 0 0 0 0 3 0"  stroke="black" stroke-opacity="0.0" stroke-width="5" transform="translate(1, 1)"></path><path fill="none" d="M 3 0 L 13 0 C 16 0 16 0 16 3 L 16 13 C 16 16 16 16 13 16 L 3 16 C 0 16 0 16 0 13 L 0 3 C 0 0 0 0 3 0"  stroke="black" stroke-opacity="0.0" stroke-width="3" transform="translate(1, 1)"></path><path fill="none" d="M 3 0 L 13 0 C 16 0 16 0 16 3 L 16 13 C 16 16 16 16 13 16 L 3 16 C 0 16 0 16 0 13 L 0 3 C 0 0 0 0 3 0"  stroke="black" stroke-opacity="0.1" stroke-width="1" transform="translate(1, 1)"></path><path fill="rgb(249, 249, 249)" fill-opacity=" .85" d="M 3 0 L 13 0 C 16 0 16 0 16 3 L 16 13 C 16 16 16 16 13 16 L 3 16 C 0 16 0 16 0 13 L 0 3 C 0 0 0 0 3 0"></path><text x="8"  style="font-size:12px;color:#333333;fill:#333333;" y="20"></text></g></svg>