<svg version="1.1" style="font-family:&quot;lucida grande&quot;, &quot;lucida sans unicode&quot;, arial, helvetica, sans-serif;font-size:12px;" xmlns="http://www.w3.org/2000/svg" width="400" height="300" viewBox="0 0 400 300"><desc>Created with Highcharts 4.1.7</desc><defs><clipPath id="highcharts-1"><rect x="14" y="0" width="366" height="239"></rect></clipPath><linearGradient x1="0" y1="0" x2="0" y2="1" id="highcharts-2"><stop offset="0" stop-color="#FFF" stop-opacity="1"></stop><stop offset="1" stop-color="#DDD" stop-opacity="1"></stop></linearGradient><linearGradient x1="0" y1="0" x2="0" y2="1" id="highcharts-3"><stop offset="0" stop-color="#DDD" stop-opacity="1"></stop><stop offset="1" stop-color="#FFF" stop-opacity="1"></stop></linearGradient></defs><rect x="0" y="0" width="400" height="300" strokeWidth="0" fill="#FFFFFF" class=" highcharts-background" stroke="transparent"></rect><path fill="url(#highcharts-2)" d="M 200 58.8 A 106.6 106.6 0 1 1 199.8 58.8 M 200 165.5 A 0 0 0 1 0 200 165.5 " stroke="silver" stroke-width="1"></path><g class="highcharts-grid" ></g><g class="highcharts-grid" ></g><g class="highcharts-axis" ><path fill="none" d="M 161.7 231.8 L 164.2 227.4" stroke="#339" stroke-width="1" opacity="1"></path><path fill="none" d="M 145.8 219.6 L 149.3 216.1" stroke="#339" stroke-width="1" opacity="1"></path><path fill="none" d="M 133.6 203.7 L 138.0 201.2" stroke="#339" stroke-width="1" opacity="1"></path><path fill="none" d="M 126.0 185.3 L 130.8 184.0" stroke="#339" stroke-width="1" opacity="1"></path><path fill="none" d="M 123.4 165.5 L 128.4 165.5" stroke="#339" stroke-width="1" opacity="1"></path><path fill="none" d="M 126.0 145.6 L 130.8 146.9" stroke="#339" stroke-width="1" opacity="1"></path><path fill="none" d="M 133.6 127.2 L 138.0 129.7" stroke="#339" stroke-width="1" opacity="1"></path><path fill="none" d="M 145.8 111.3 L 149.3 114.8" stroke="#339" stroke-width="1" opacity="1"></path><path fill="none" d="M 161.7 99.1 L 164.2 103.5" stroke="#339" stroke-width="1" opacity="1"></path><path fill="none" d="M 180.1 91.5 L 181.4 96.3" stroke="#339" stroke-width="1" opacity="1"></path><path fill="none" d="M 200 88.9 L 200 93.9" stroke="#339" stroke-width="1" opacity="1"></path><path fill="none" d="M 219.8 91.5 L 218.5 96.3" stroke="#339" stroke-width="1" opacity="1"></path><path fill="none" d="M 238.2 99.1 L 235.7 103.5" stroke="#339" stroke-width="1" opacity="1"></path><path fill="none" d="M 254.1 111.3 L 250.6 114.8" stroke="#339" stroke-width="1" opacity="1"></path><path fill="none" d="M 266.3 127.2 L 261.9 129.7" stroke="#339" stroke-width="1" opacity="1"></path><path fill="none" d="M 273.9 145.6 L 269.1 146.9" stroke="#339" stroke-width="1" opacity="1"></path><path fill="none" d="M 276.5 165.4 L 271.5 165.4" stroke="#339" stroke-width="1" opacity="1"></path><path fill="none" d="M 273.9 185.3 L 269.1 184.0" stroke="#339" stroke-width="1" opacity="1"></path><path fill="none" d="M 266.3 203.7 L 261.9 201.2" stroke="#339" stroke-width="1" opacity="1"></path><path fill="none" d="M 254.1 219.6 L 250.6 216.1" stroke="#339" stroke-width="1" opacity="1"></path><path fill="none" d="M 238.2 231.8 L 235.7 227.4" stroke="#339" stroke-width="1" opacity="1"></path><path fill="none" d="M 161.7 231.8 L 164.2 227.4" stroke="#339" stroke-width="2" opacity="1"></path><path fill="none" d="M 126.0 145.6 L 130.8 146.9" stroke="#339" stroke-width="2" opacity="1"></path><path fill="none" d="M 200 88.9 L 200 93.9" stroke="#339" stroke-width="2" opacity="1"></path><path fill="none" d="M 273.9 145.6 L 269.1 146.9" stroke="#339" stroke-width="2" opacity="1"></path><path fill="none" d="M 238.2 231.8 L 235.7 227.4" stroke="#339" stroke-width="2" opacity="1"></path><path fill="none" d="M 161.7 231.8 A 76.5 76.5 0 1 1 238.3 231.7 M 200 165.5 A 0 0 0 1 0 200 165.5 " stroke="#339" stroke-width="2"  visibility="visible"></path></g><g class="highcharts-axis" ><path fill="none" d="M 159.2 236.1 L 156.7 240.4" stroke="#933" stroke-width="1" opacity="1"></path><path fill="none" d="M 145.3 226.0 L 141.9 229.7" stroke="#933" stroke-width="1" opacity="1"></path><path fill="none" d="M 133.8 213.2 L 129.7 216.1" stroke="#933" stroke-width="1" opacity="1"></path><path fill="none" d="M 125.3 198.3 L 120.7 200.3" stroke="#933" stroke-width="1" opacity="1"></path><path fill="none" d="M 120.0 181.9 L 115.1 182.9" stroke="#933" stroke-width="1" opacity="1"></path><path fill="none" d="M 118.4 164.8 L 113.4 164.7" stroke="#933" stroke-width="1" opacity="1"></path><path fill="none" d="M 120.3 147.7 L 115.5 146.6" stroke="#933" stroke-width="1" opacity="1"></path><path fill="none" d="M 125.8 131.4 L 121.3 129.3" stroke="#933" stroke-width="1" opacity="1"></path><path fill="none" d="M 134.6 116.6 L 130.6 113.6" stroke="#933" stroke-width="1" opacity="1"></path><path fill="none" d="M 146.3 104.0 L 143.0 100.2" stroke="#933" stroke-width="1" opacity="1"></path><path fill="none" d="M 160.4 94.1 L 157.9 89.8" stroke="#933" stroke-width="1" opacity="1"></path><path fill="none" d="M 176.2 87.4 L 174.7 82.6" stroke="#933" stroke-width="1" opacity="1"></path><path fill="none" d="M 193.1 84.2 L 192.6 79.2" stroke="#933" stroke-width="1" opacity="1"></path><path fill="none" d="M 210.3 84.5 L 210.9 79.6" stroke="#933" stroke-width="1" opacity="1"></path><path fill="none" d="M 227.0 88.5 L 228.6 83.8" stroke="#933" stroke-width="1" opacity="1"></path><path fill="none" d="M 242.5 95.9 L 245.1 91.6" stroke="#933" stroke-width="1" opacity="1"></path><path fill="none" d="M 256.2 106.3 L 259.6 102.7" stroke="#933" stroke-width="1" opacity="1"></path><path fill="none" d="M 267.3 119.4 L 271.4 116.6" stroke="#933" stroke-width="1" opacity="1"></path><path fill="none" d="M 275.4 134.6 L 280.1 132.7" stroke="#933" stroke-width="1" opacity="1"></path><path fill="none" d="M 280.2 151.1 L 285.2 150.2" stroke="#933" stroke-width="1" opacity="1"></path><path fill="none" d="M 281.5 168.2 L 286.5 168.4" stroke="#933" stroke-width="1" opacity="1"></path><path fill="none" d="M 279.1 185.2 L 283.9 186.4" stroke="#933" stroke-width="1" opacity="1"></path><path fill="none" d="M 273.2 201.4 L 277.7 203.6" stroke="#933" stroke-width="1" opacity="1"></path><path fill="none" d="M 264.0 215.9 L 268.0 219.0" stroke="#933" stroke-width="1" opacity="1"></path><path fill="none" d="M 252.0 228.2 L 255.2 232.1" stroke="#933" stroke-width="1" opacity="1"></path><path fill="none" d="M 159.2 236.1 L 156.7 240.4" stroke="#933" stroke-width="2" opacity="1"></path><path fill="none" d="M 118.4 164.8 L 113.4 164.7" stroke="#933" stroke-width="2" opacity="1"></path><path fill="none" d="M 160.4 94.1 L 157.9 89.8" stroke="#933" stroke-width="2" opacity="1"></path><path fill="none" d="M 242.5 95.9 L 245.1 91.6" stroke="#933" stroke-width="2" opacity="1"></path><path fill="none" d="M 281.5 168.2 L 286.5 168.4" stroke="#933" stroke-width="2" opacity="1"></path><path fill="none" d="M 159.2 236.1 A 81.5 81.5 0 1 1 240.8 236.1 M 200 165.5 A 0 0 0 1 0 200 165.5 " stroke="#933" stroke-width="2"  visibility="visible"></path></g><g class="highcharts-data-labels highcharts-tracker" visibility="visible"  transform="translate(10,46) scale(1 1)" style=""><g  style="" transform="translate(160,135)"><rect x="0.5" y="0.5" width="59" height="37" strokeWidth="1" fill="url(#highcharts-3)" stroke="silver" stroke-width="1" rx="3" ry="3"></rect><text x="5"  style="font-size: 11px; font-weight: bold; color: rgb(0, 0, 0); fill: #000000; text-shadow: rgb(255, 255, 255) 0px 0px 6px, rgb(255, 255, 255) 0px 0px 3px; text-rendering: geometricprecision;" y="16"><tspan style="fill:#339">80 km/h</tspan><tspan style="fill:#933" x="5" dy="14">50 mph</tspan></text></g></g><g class="highcharts-series-group" ><g class="highcharts-series highcharts-tracker" visibility="visible"  transform="translate(10,46) scale(1 1)" style="" clip-path="url(#highcharts-1)"><path fill="black" d="M -8.1 -1.5 L 56.8 -1.5 81.2 -0.5 81.2 0.5 56.8 1.5 -8.1 1.5 z" transform="translate(190,119.5) rotate(-120.0 0 0)"></path><circle cx="0" cy="0" r="5" fill="black" transform="translate(190,119.5)"></circle></g><g class="highcharts-markers" visibility="visible"  transform="translate(10,46) scale(1 1)"></g></g><text x="200" text-anchor="middle" class="highcharts-title"  style="color:#333333;font-size:18px;fill:#333333;width:336px;" y="24"><tspan>Speedometer with dual axes</tspan></text><g class="highcharts-legend" ><g ><g></g></g></g><g class="highcharts-axis-labels highcharts-yaxis-labels" ><text x="171.7" style="color:#606060;cursor:default;font-size:11px;fill:#606060;width:122px;text-overflow:clip;" text-anchor="middle" transform="translate(0,0) rotate(-150 171.7 214.4)" y="214.4" opacity="1">0</text><text x="145.3" style="color:#606060;cursor:default;font-size:11px;fill:#606060;width:122px;text-overflow:clip;" text-anchor="middle" transform="translate(0,0) rotate(-75 145.3 150.8)" y="150.8" opacity="1">50</text><text x="200" style="color:#606060;cursor:default;font-size:11px;fill:#606060;width:122px;text-overflow:clip;" text-anchor="middle" transform="translate(0,0)" y="108.9" opacity="1">100</text><text x="254.6" style="color:#606060;cursor:default;font-size:11px;fill:#606060;width:122px;text-overflow:clip;" text-anchor="middle" transform="translate(0,0) rotate(74.9 254.6 150.8)" y="150.8" opacity="1">150</text><text x="228.2" style="color:#606060;cursor:default;font-size:11px;fill:#606060;width:122px;text-overflow:clip;" text-anchor="middle" transform="translate(0,0) rotate(150 228.2 214.4)" y="214.4" opacity="1">200</text></g><g class="highcharts-axis-labels highcharts-yaxis-labels" ><text x="153.2" style="color:#606060;cursor:default;font-size:11px;fill:#606060;width:122px;text-overflow:clip;" text-anchor="middle" transform="translate(0,0) rotate(-150 153.2 246.5)" y="246.5" opacity="1">0</text><text x="106.4" style="color:#606060;cursor:default;font-size:11px;fill:#606060;width:122px;text-overflow:clip;" text-anchor="middle" transform="translate(0,0) rotate(-89.5 106.4 164.7)" y="164.7" opacity="1">25</text><text x="154.5" style="color:#606060;cursor:default;font-size:11px;fill:#606060;width:122px;text-overflow:clip;" text-anchor="middle" transform="translate(0,0) rotate(-29.0 154.5 83.6)" y="83.6" opacity="1">50</text><text x="248.8" style="color:#606060;cursor:default;font-size:11px;fill:#606060;width:122px;text-overflow:clip;" text-anchor="middle" transform="translate(0,0) rotate(31.4 248.8 85.6)" y="85.6" opacity="1">75</text><text x="293.5" style="color:#606060;cursor:default;font-size:11px;fill:#606060;width:122px;text-overflow:clip;" text-anchor="middle" transform="translate(0,0) rotate(91.9 293.5 168.6)" y="168.6" opacity="1">100</text></g><g class="highcharts-tooltip"  style="cursor:default;padding:0;white-space:nowrap;" transform="translate(0,-9999)"><path fill="none" d="M 3.5 0.5 L 13.5 0.5 C 16.5 0.5 16.5 0.5 16.5 3.5 L 16.5 13.5 C 16.5 16.5 16.5 16.5 13.5 16.5 L 3.5 16.5 C 0.5 16.5 0.5 16.5 0.5 13.5 L 0.5 3.5 C 0.5 0.5 0.5 0.5 3.5 0.5"  stroke="black" stroke-opacity="0.0" stroke-width="5" transform="translate(1, 1)"></path><path fill="none" d="M 3.5 0.5 L 13.5 0.5 C 16.5 0.5 16.5 0.5 16.5 3.5 L 16.5 13.5 C 16.5 16.5 16.5 16.5 13.5 16.5 L 3.5 16.5 C 0.5 16.5 0.5 16.5 0.5 13.5 L 0.5 3.5 C 0.5 0.5 0.5 0.5 3.5 0.5"  stroke="black" stroke-opacity="0.0" stroke-width="3" transform="translate(1, 1)"></path><path fill="none" d="M 3.5 0.5 L 13.5 0.5 C 16.5 0.5 16.5 0.5 16.5 3.5 L 16.5 13.5 C 16.5 16.5 16.5 16.5 13.5 16.5 L 3.5 16.5 C 0.5 16.5 0.5 16.5 0.5 13.5 L 0.5 3.5 C 0.5 0.5 0.5 0.5 3.5 0.5"  stroke="black" stroke-opacity="0.1" stroke-width="1" transform="translate(1, 1)"></path><path fill="rgb(249, 249, 249)" fill-opacity=" .85" d="M 3.5 0.5 L 13.5 0.5 C 16.5 0.5 16.5 0.5 16.5 3.5 L 16.5 13.5 C 16.5 16.5 16.5 16.5 13.5 16.5 L 3.5 16.5 C 0.5 16.5 0.5 16.5 0.5 13.5 L 0.5 3.5 C 0.5 0.5 0.5 0.5 3.5 0.5"></path><text x="8"  style="font-size:12px;color:#333333;fill:#333333;" y="20"></text></g></svg>