<svg version="1.1" style="font-family: signika, serif; font-size: 12px; background-image: url(http://www.highcharts.com/samples/graphics/sand.png); background-position: initial initial; background-repeat: initial initial;" xmlns="http://www.w3.org/2000/svg" width="400" height="300" viewBox="0 0 400 300" xmlns:xlink="http://www.w3.org/1999/xlink"><style type="text/css"><![CDATA[@import url(http://fonts.googleapis.com/css?family=Signika:700);]]></style><desc>Created with Highcharts 4.1.7</desc><defs><clipPath id="highcharts-1"><rect x="0" y="0" width="380" height="244"></rect></clipPath><linearGradient x1="0" y1="0" x2="0" y2="1" id="highcharts-2"><stop offset="0" stop-color="#FFF" stop-opacity="1"></stop><stop offset="1" stop-color="#333" stop-opacity="1"></stop></linearGradient><linearGradient x1="0" y1="0" x2="0" y2="1" id="highcharts-3"><stop offset="0" stop-color="#333" stop-opacity="1"></stop><stop offset="1" stop-color="#FFF" stop-opacity="1"></stop></linearGradient><linearGradient x1="0" y1="0" x2="0" y2="1" id="highcharts-4"><stop offset="0" stop-color="#FFF" stop-opacity="1"></stop><stop offset="1" stop-color="#DDD" stop-opacity="1"></stop></linearGradient></defs><path fill="url(#highcharts-2)" d="M 200 49.9 A 113.0 113.0 0 1 1 199.8 49.9 M 200 163 A 0 0 0 1 0 200 163 "></path><path fill="url(#highcharts-2)" d="M 200 49.9 A 113.0 113.0 0 1 1 199.8 49.9 M 200 163 A 0 0 0 1 0 200 163 "></path><path fill="url(#highcharts-3)" d="M 200 52.0 A 110.9 110.9 0 1 1 199.8 52.0 M 200 163 A 0 0 0 1 0 200 163 " stroke="silver" stroke-width="1"></path><path fill="url(#highcharts-3)" d="M 200 52.0 A 110.9 110.9 0 1 1 199.8 52.0 M 200 163 A 0 0 0 1 0 200 163 " stroke="silver" stroke-width="1"></path><path fill="url(#highcharts-4)" d="M 200 54.1 A 108.8 108.8 0 1 1 199.8 54.1 M 200 163 A 0 0 0 1 0 200 163 " stroke="silver" stroke-width="1"></path><path fill="url(#highcharts-4)" d="M 200 54.1 A 108.8 108.8 0 1 1 199.8 54.1 M 200 163 A 0 0 0 1 0 200 163 " stroke="silver" stroke-width="1"></path><path fill="#DDD" d="M 200 54.1 A 108.8 108.8 0 1 1 199.8 54.1 M 199.8 56.1 A 106.8 106.8 0 1 0 200 56.1 "></path><path fill="#DDD" d="M 200 54.1 A 108.8 108.8 0 1 1 199.8 54.1 M 199.8 56.1 A 106.8 106.8 0 1 0 200 56.1 "></path><path fill="#55BF3B" d="M 148.1 252.8 A 103.7 103.7 0 0 1 251.7 73.1 L 246.7 81.8 A 93.7 93.7 0 0 0 153.1 244.1 Z"></path><path fill="#DDDF0D" d="M 251.8 73.1 A 103.7 103.7 0 0 1 303.6 162.8 L 293.6 162.9 A 93.7 93.7 0 0 0 246.8 81.8 Z"></path><path fill="#DF5353" d="M 303.7 162.9 A 103.7 103.7 0 0 1 251.9 252.7 L 246.9 244.0 A 93.7 93.7 0 0 0 293.7 162.9 Z"></path><g class="highcharts-grid" ></g><g class="highcharts-axis" ><path fill="none" d="M 148.1 252.8 L 153.1 244.1" stroke="#666" stroke-width="1" opacity="1"></path><path fill="none" d="M 143.5 249.9 L 148.9 241.5" stroke="#666" stroke-width="1" opacity="1"></path><path fill="none" d="M 139.0 246.8 L 144.9 238.8" stroke="#666" stroke-width="1" opacity="1"></path><path fill="none" d="M 134.7 243.5 L 141.0 235.8" stroke="#666" stroke-width="1" opacity="1"></path><path fill="none" d="M 130.6 240.0 L 137.3 232.6" stroke="#666" stroke-width="1" opacity="1"></path><path fill="none" d="M 126.6 236.3 L 133.7 229.2" stroke="#666" stroke-width="1" opacity="1"></path><path fill="none" d="M 122.9 232.3 L 130.3 225.6" stroke="#666" stroke-width="1" opacity="1"></path><path fill="none" d="M 119.4 228.2 L 127.1 221.9" stroke="#666" stroke-width="1" opacity="1"></path><path fill="none" d="M 116.1 223.9 L 124.1 218.0" stroke="#666" stroke-width="1" opacity="1"></path><path fill="none" d="M 113.0 219.4 L 121.4 214.0" stroke="#666" stroke-width="1" opacity="1"></path><path fill="none" d="M 110.1 214.8 L 118.8 209.8" stroke="#666" stroke-width="1" opacity="1"></path><path fill="none" d="M 107.6 210.0 L 116.5 205.5" stroke="#666" stroke-width="1" opacity="1"></path><path fill="none" d="M 105.2 205.1 L 114.4 201.1" stroke="#666" stroke-width="1" opacity="1"></path><path fill="none" d="M 103.1 200.1 L 112.5 196.5" stroke="#666" stroke-width="1" opacity="1"></path><path fill="none" d="M 101.3 195.0 L 110.8 191.9" stroke="#666" stroke-width="1" opacity="1"></path><path fill="none" d="M 99.8 189.8 L 109.4 187.2" stroke="#666" stroke-width="1" opacity="1"></path><path fill="none" d="M 98.5 184.5 L 108.3 182.4" stroke="#666" stroke-width="1" opacity="1"></path><path fill="none" d="M 97.5 179.2 L 107.4 177.6" stroke="#666" stroke-width="1" opacity="1"></path><path fill="none" d="M 96.8 173.8 L 106.8 172.7" stroke="#666" stroke-width="1" opacity="1"></path><path fill="none" d="M 96.4 168.4 L 106.4 167.9" stroke="#666" stroke-width="1" opacity="1"></path><path fill="none" d="M 96.3 163 L 106.3 163" stroke="#666" stroke-width="1" opacity="1"></path><path fill="none" d="M 96.4 157.5 L 106.4 158.0" stroke="#666" stroke-width="1" opacity="1"></path><path fill="none" d="M 96.8 152.1 L 106.8 153.2" stroke="#666" stroke-width="1" opacity="1"></path><path fill="none" d="M 97.5 146.7 L 107.4 148.3" stroke="#666" stroke-width="1" opacity="1"></path><path fill="none" d="M 98.5 141.4 L 108.3 143.5" stroke="#666" stroke-width="1" opacity="1"></path><path fill="none" d="M 99.8 136.1 L 109.4 138.7" stroke="#666" stroke-width="1" opacity="1"></path><path fill="none" d="M 101.3 130.9 L 110.8 134.0" stroke="#666" stroke-width="1" opacity="1"></path><path fill="none" d="M 103.1 125.8 L 112.5 129.4" stroke="#666" stroke-width="1" opacity="1"></path><path fill="none" d="M 105.2 120.8 L 114.4 124.8" stroke="#666" stroke-width="1" opacity="1"></path><path fill="none" d="M 107.6 115.9 L 116.5 120.4" stroke="#666" stroke-width="1" opacity="1"></path><path fill="none" d="M 110.1 111.1 L 118.8 116.1" stroke="#666" stroke-width="1" opacity="1"></path><path fill="none" d="M 113.0 106.5 L 121.4 111.9" stroke="#666" stroke-width="1" opacity="1"></path><path fill="none" d="M 116.1 102.0 L 124.1 107.9" stroke="#666" stroke-width="1" opacity="1"></path><path fill="none" d="M 119.4 97.7 L 127.1 104.0" stroke="#666" stroke-width="1" opacity="1"></path><path fill="none" d="M 122.9 93.6 L 130.3 100.3" stroke="#666" stroke-width="1" opacity="1"></path><path fill="none" d="M 126.6 89.6 L 133.7 96.7" stroke="#666" stroke-width="1" opacity="1"></path><path fill="none" d="M 130.6 85.9 L 137.3 93.3" stroke="#666" stroke-width="1" opacity="1"></path><path fill="none" d="M 134.7 82.4 L 141.0 90.1" stroke="#666" stroke-width="1" opacity="1"></path><path fill="none" d="M 139.0 79.1 L 144.9 87.1" stroke="#666" stroke-width="1" opacity="1"></path><path fill="none" d="M 143.5 76.0 L 148.9 84.4" stroke="#666" stroke-width="1" opacity="1"></path><path fill="none" d="M 148.1 73.1 L 153.1 81.8" stroke="#666" stroke-width="1" opacity="1"></path><path fill="none" d="M 152.9 70.6 L 157.4 79.5" stroke="#666" stroke-width="1" opacity="1"></path><path fill="none" d="M 157.8 68.2 L 161.8 77.4" stroke="#666" stroke-width="1" opacity="1"></path><path fill="none" d="M 162.8 66.1 L 166.4 75.5" stroke="#666" stroke-width="1" opacity="1"></path><path fill="none" d="M 167.9 64.3 L 171.0 73.8" stroke="#666" stroke-width="1" opacity="1"></path><path fill="none" d="M 173.1 62.8 L 175.7 72.4" stroke="#666" stroke-width="1" opacity="1"></path><path fill="none" d="M 178.4 61.5 L 180.5 71.3" stroke="#666" stroke-width="1" opacity="1"></path><path fill="none" d="M 183.7 60.5 L 185.3 70.4" stroke="#666" stroke-width="1" opacity="1"></path><path fill="none" d="M 189.1 59.8 L 190.2 69.8" stroke="#666" stroke-width="1" opacity="1"></path><path fill="none" d="M 194.5 59.4 L 195.0 69.4" stroke="#666" stroke-width="1" opacity="1"></path><path fill="none" d="M 200 59.3 L 200 69.3" stroke="#666" stroke-width="1" opacity="1"></path><path fill="none" d="M 205.4 59.4 L 204.9 69.4" stroke="#666" stroke-width="1" opacity="1"></path><path fill="none" d="M 210.8 59.8 L 209.7 69.8" stroke="#666" stroke-width="1" opacity="1"></path><path fill="none" d="M 216.2 60.5 L 214.6 70.4" stroke="#666" stroke-width="1" opacity="1"></path><path fill="none" d="M 221.5 61.5 L 219.4 71.3" stroke="#666" stroke-width="1" opacity="1"></path><path fill="none" d="M 226.8 62.8 L 224.2 72.4" stroke="#666" stroke-width="1" opacity="1"></path><path fill="none" d="M 232.0 64.3 L 228.9 73.8" stroke="#666" stroke-width="1" opacity="1"></path><path fill="none" d="M 237.1 66.1 L 233.5 75.5" stroke="#666" stroke-width="1" opacity="1"></path><path fill="none" d="M 242.1 68.2 L 238.1 77.4" stroke="#666" stroke-width="1" opacity="1"></path><path fill="none" d="M 247.0 70.6 L 242.5 79.5" stroke="#666" stroke-width="1" opacity="1"></path><path fill="none" d="M 251.8 73.1 L 246.8 81.8" stroke="#666" stroke-width="1" opacity="1"></path><path fill="none" d="M 256.4 76.0 L 251.0 84.4" stroke="#666" stroke-width="1" opacity="1"></path><path fill="none" d="M 260.9 79.1 L 255.0 87.1" stroke="#666" stroke-width="1" opacity="1"></path><path fill="none" d="M 265.2 82.4 L 258.9 90.1" stroke="#666" stroke-width="1" opacity="1"></path><path fill="none" d="M 269.3 85.9 L 262.6 93.3" stroke="#666" stroke-width="1" opacity="1"></path><path fill="none" d="M 273.3 89.6 L 266.2 96.7" stroke="#666" stroke-width="1" opacity="1"></path><path fill="none" d="M 277.0 93.6 L 269.6 100.3" stroke="#666" stroke-width="1" opacity="1"></path><path fill="none" d="M 280.5 97.7 L 272.8 104.0" stroke="#666" stroke-width="1" opacity="1"></path><path fill="none" d="M 283.8 102.0 L 275.8 107.9" stroke="#666" stroke-width="1" opacity="1"></path><path fill="none" d="M 286.9 106.5 L 278.5 111.9" stroke="#666" stroke-width="1" opacity="1"></path><path fill="none" d="M 289.8 111.1 L 281.1 116.1" stroke="#666" stroke-width="1" opacity="1"></path><path fill="none" d="M 292.3 115.9 L 283.4 120.4" stroke="#666" stroke-width="1" opacity="1"></path><path fill="none" d="M 294.7 120.8 L 285.5 124.8" stroke="#666" stroke-width="1" opacity="1"></path><path fill="none" d="M 296.8 125.8 L 287.4 129.4" stroke="#666" stroke-width="1" opacity="1"></path><path fill="none" d="M 298.6 130.9 L 289.1 134.0" stroke="#666" stroke-width="1" opacity="1"></path><path fill="none" d="M 300.1 136.1 L 290.5 138.7" stroke="#666" stroke-width="1" opacity="1"></path><path fill="none" d="M 301.4 141.4 L 291.6 143.5" stroke="#666" stroke-width="1" opacity="1"></path><path fill="none" d="M 302.4 146.7 L 292.5 148.3" stroke="#666" stroke-width="1" opacity="1"></path><path fill="none" d="M 303.1 152.1 L 293.1 153.2" stroke="#666" stroke-width="1" opacity="1"></path><path fill="none" d="M 303.5 157.5 L 293.5 158.0" stroke="#666" stroke-width="1" opacity="1"></path><path fill="none" d="M 303.7 162.9 L 293.7 162.9" stroke="#666" stroke-width="1" opacity="1"></path><path fill="none" d="M 303.5 168.4 L 293.5 167.9" stroke="#666" stroke-width="1" opacity="1"></path><path fill="none" d="M 303.1 173.8 L 293.1 172.7" stroke="#666" stroke-width="1" opacity="1"></path><path fill="none" d="M 302.4 179.2 L 292.5 177.6" stroke="#666" stroke-width="1" opacity="1"></path><path fill="none" d="M 301.4 184.5 L 291.6 182.4" stroke="#666" stroke-width="1" opacity="1"></path><path fill="none" d="M 300.1 189.8 L 290.5 187.2" stroke="#666" stroke-width="1" opacity="1"></path><path fill="none" d="M 298.6 195.0 L 289.1 191.9" stroke="#666" stroke-width="1" opacity="1"></path><path fill="none" d="M 296.8 200.1 L 287.4 196.5" stroke="#666" stroke-width="1" opacity="1"></path><path fill="none" d="M 294.7 205.1 L 285.5 201.1" stroke="#666" stroke-width="1" opacity="1"></path><path fill="none" d="M 292.3 210.0 L 283.4 205.5" stroke="#666" stroke-width="1" opacity="1"></path><path fill="none" d="M 289.8 214.8 L 281.1 209.8" stroke="#666" stroke-width="1" opacity="1"></path><path fill="none" d="M 286.9 219.4 L 278.5 214.0" stroke="#666" stroke-width="1" opacity="1"></path><path fill="none" d="M 283.8 223.9 L 275.8 218.0" stroke="#666" stroke-width="1" opacity="1"></path><path fill="none" d="M 280.5 228.2 L 272.8 221.9" stroke="#666" stroke-width="1" opacity="1"></path><path fill="none" d="M 277.0 232.3 L 269.6 225.6" stroke="#666" stroke-width="1" opacity="1"></path><path fill="none" d="M 273.3 236.3 L 266.2 229.2" stroke="#666" stroke-width="1" opacity="1"></path><path fill="none" d="M 269.3 240.0 L 262.6 232.6" stroke="#666" stroke-width="1" opacity="1"></path><path fill="none" d="M 265.2 243.5 L 258.9 235.8" stroke="#666" stroke-width="1" opacity="1"></path><path fill="none" d="M 260.9 246.8 L 255.0 238.8" stroke="#666" stroke-width="1" opacity="1"></path><path fill="none" d="M 256.4 249.9 L 251.0 241.5" stroke="#666" stroke-width="1" opacity="1"></path><path fill="none" d="M 251.8 252.8 L 246.8 244.1" stroke="#666" stroke-width="1" opacity="1"></path><path fill="none" d="M 148.1 252.8 L 153.1 244.1" stroke="#666" stroke-width="2" opacity="1"></path><path fill="none" d="M 126.6 236.3 L 133.7 229.2" stroke="#666" stroke-width="2" opacity="1"></path><path fill="none" d="M 110.1 214.8 L 118.8 209.8" stroke="#666" stroke-width="2" opacity="1"></path><path fill="none" d="M 99.8 189.8 L 109.4 187.2" stroke="#666" stroke-width="2" opacity="1"></path><path fill="none" d="M 96.3 163 L 106.3 163" stroke="#666" stroke-width="2" opacity="1"></path><path fill="none" d="M 99.8 136.1 L 109.4 138.7" stroke="#666" stroke-width="2" opacity="1"></path><path fill="none" d="M 110.1 111.1 L 118.8 116.1" stroke="#666" stroke-width="2" opacity="1"></path><path fill="none" d="M 126.6 89.6 L 133.7 96.7" stroke="#666" stroke-width="2" opacity="1"></path><path fill="none" d="M 148.1 73.1 L 153.1 81.8" stroke="#666" stroke-width="2" opacity="1"></path><path fill="none" d="M 173.1 62.8 L 175.7 72.4" stroke="#666" stroke-width="2" opacity="1"></path><path fill="none" d="M 200 59.3 L 200 69.3" stroke="#666" stroke-width="2" opacity="1"></path><path fill="none" d="M 226.8 62.8 L 224.2 72.4" stroke="#666" stroke-width="2" opacity="1"></path><path fill="none" d="M 251.8 73.1 L 246.8 81.8" stroke="#666" stroke-width="2" opacity="1"></path><path fill="none" d="M 273.3 89.6 L 266.2 96.7" stroke="#666" stroke-width="2" opacity="1"></path><path fill="none" d="M 289.8 111.1 L 281.1 116.1" stroke="#666" stroke-width="2" opacity="1"></path><path fill="none" d="M 300.1 136.1 L 290.5 138.7" stroke="#666" stroke-width="2" opacity="1"></path><path fill="none" d="M 303.7 162.9 L 293.7 162.9" stroke="#666" stroke-width="2" opacity="1"></path><path fill="none" d="M 300.1 189.8 L 290.5 187.2" stroke="#666" stroke-width="2" opacity="1"></path><path fill="none" d="M 289.8 214.8 L 281.1 209.8" stroke="#666" stroke-width="2" opacity="1"></path><path fill="none" d="M 273.3 236.3 L 266.2 229.2" stroke="#666" stroke-width="2" opacity="1"></path><path fill="none" d="M 251.8 252.8 L 246.8 244.1" stroke="#666" stroke-width="2" opacity="1"></path><text x="200"  text-anchor="middle" transform="translate(0,0)" class=" highcharts-yaxis-title" style="color:#707070;fill:#707070;" visibility="visible" y="111.1">km/h</text><path fill="none" d="M 148.1 252.8 A 103.7 103.7 0 1 1 251.9 252.7 M 200 163 A 0 0 0 1 0 200 163 " stroke="#C0D0E0" stroke-width="1"  visibility="visible"></path></g><g class="highcharts-data-labels highcharts-tracker" visibility="visible"  transform="translate(10,41) scale(1 1)" style=""><g  style="" transform="translate(180,137)"><rect x="0.5" y="0.5" width="21" height="21" strokeWidth="1" fill="none" stroke="silver" stroke-width="1" rx="3" ry="3"></rect><text x="5"  style="font-size: 11px; font-weight: bold; color: rgb(0, 0, 0); fill: #000000; text-shadow: rgb(255, 255, 255) 0px 0px 6px, rgb(255, 255, 255) 0px 0px 3px; text-rendering: geometricprecision;" y="16"><tspan>80</tspan></text></g></g><g class="highcharts-series-group" ><g class="highcharts-series highcharts-tracker" visibility="visible"  transform="translate(10,41) scale(1 1)" style="" clip-path="url(#highcharts-1)"><path fill="black" d="M -8.2 -1.5 L 58.0 -1.5 82.9 -0.5 82.9 0.5 58.0 1.5 -8.2 1.5 z" transform="translate(190,122) rotate(-120.0 0 0)"></path><circle cx="0" cy="0" r="5" fill="black" transform="translate(190,122)"></circle></g><g class="highcharts-markers" visibility="visible"  transform="translate(10,41) scale(1 1)"></g></g><text x="200" text-anchor="middle" class="highcharts-title"  style="color:black;font-size:16px;font-weight:bold;fill:black;width:336px;" y="22">Speedometer</text><g class="highcharts-legend" ><g ><g></g></g></g><g class="highcharts-axis-labels highcharts-yaxis-labels" ><text x="160.6" style="color:#6e6e70;cursor:default;font-size:11px;fill:#6e6e70;width:122px;text-overflow:clip;" text-anchor="middle" transform="translate(0,0) rotate(-150 160.6 231.1)" y="231.1" opacity="1">0</text><text x="0" style="color:#6e6e70;cursor:default;font-size:11px;fill:#6e6e70;width:122px;text-overflow:clip;" text-anchor="middle" transform="translate(0,0) rotate(-135 0 -9999)" y="-9999">10</text><text x="131.8" style="color:#6e6e70;cursor:default;font-size:11px;fill:#6e6e70;width:122px;text-overflow:clip;" text-anchor="middle" transform="translate(0,0) rotate(-120 131.8 202.3)" y="202.3" opacity="1">20</text><text x="0" style="color:#6e6e70;cursor:default;font-size:11px;fill:#6e6e70;width:122px;text-overflow:clip;" text-anchor="middle" transform="translate(0,0) rotate(-104.9 0 -9999)" y="-9999">30</text><text x="121.3" style="color:#6e6e70;cursor:default;font-size:11px;fill:#6e6e70;width:122px;text-overflow:clip;" text-anchor="middle" transform="translate(0,0) rotate(-90 121.3 163)" y="163" opacity="1">40</text><text x="0" style="color:#6e6e70;cursor:default;font-size:11px;fill:#6e6e70;width:122px;text-overflow:clip;" text-anchor="middle" transform="translate(0,0) rotate(-75 0 -9999)" y="-9999">50</text><text x="131.8" style="color:#6e6e70;cursor:default;font-size:11px;fill:#6e6e70;width:122px;text-overflow:clip;" text-anchor="middle" transform="translate(0,0) rotate(-59.9 131.8 123.6)" y="123.6" opacity="1">60</text><text x="0" style="color:#6e6e70;cursor:default;font-size:11px;fill:#6e6e70;width:122px;text-overflow:clip;" text-anchor="middle" transform="translate(0,0) rotate(-45 0 -9999)" y="-9999">70</text><text x="160.6" style="color:#6e6e70;cursor:default;font-size:11px;fill:#6e6e70;width:122px;text-overflow:clip;" text-anchor="middle" transform="translate(0,0) rotate(-30.0 160.6 94.8)" y="94.8" opacity="1">80</text><text x="0" style="color:#6e6e70;cursor:default;font-size:11px;fill:#6e6e70;width:122px;text-overflow:clip;" text-anchor="middle" transform="translate(0,0) rotate(-15.0 0 -9999)" y="-9999">90</text><text x="200" style="color:#6e6e70;cursor:default;font-size:11px;fill:#6e6e70;width:122px;text-overflow:clip;" text-anchor="middle" transform="translate(0,0)" y="84.3" opacity="1">100</text><text x="0" style="color:#6e6e70;cursor:default;font-size:11px;fill:#6e6e70;width:122px;text-overflow:clip;" text-anchor="middle" transform="translate(0,0) rotate(14.9 0 -9999)" y="-9999">110</text><text x="239.3" style="color:#6e6e70;cursor:default;font-size:11px;fill:#6e6e70;width:122px;text-overflow:clip;" text-anchor="middle" transform="translate(0,0) rotate(29.9 239.3 94.8)" y="94.8" opacity="1">120</text><text x="0" style="color:#6e6e70;cursor:default;font-size:11px;fill:#6e6e70;width:122px;text-overflow:clip;" text-anchor="middle" transform="translate(0,0) rotate(44.9 0 -9999)" y="-9999">130</text><text x="268.1" style="color:#6e6e70;cursor:default;font-size:11px;fill:#6e6e70;width:122px;text-overflow:clip;" text-anchor="middle" transform="translate(0,0) rotate(59.9 268.1 123.6)" y="123.6" opacity="1">140</text><text x="0" style="color:#6e6e70;cursor:default;font-size:11px;fill:#6e6e70;width:122px;text-overflow:clip;" text-anchor="middle" transform="translate(0,0) rotate(74.9 0 -9999)" y="-9999">150</text><text x="278.7" style="color:#6e6e70;cursor:default;font-size:11px;fill:#6e6e70;width:122px;text-overflow:clip;" text-anchor="middle" transform="translate(0,0) rotate(89.9 278.7 162.9)" y="162.9" opacity="1">160</text><text x="0" style="color:#6e6e70;cursor:default;font-size:11px;fill:#6e6e70;width:122px;text-overflow:clip;" text-anchor="middle" transform="translate(0,0) rotate(104.9 0 -9999)" y="-9999">170</text><text x="268.1" style="color:#6e6e70;cursor:default;font-size:11px;fill:#6e6e70;width:122px;text-overflow:clip;" text-anchor="middle" transform="translate(0,0) rotate(119.9 268.1 202.3)" y="202.3" opacity="1">180</text><text x="0" style="color:#6e6e70;cursor:default;font-size:11px;fill:#6e6e70;width:122px;text-overflow:clip;" text-anchor="middle" transform="translate(0,0) rotate(134.9 0 -9999)" y="-9999">190</text><text x="239.3" style="color:#6e6e70;cursor:default;font-size:11px;fill:#6e6e70;width:122px;text-overflow:clip;" text-anchor="middle" transform="translate(0,0) rotate(150 239.3 231.1)" y="231.1" opacity="1">200</text></g><g class="highcharts-tooltip"  style="cursor:default;padding:0;white-space:nowrap;" transform="translate(0,-9999)"><path fill="none" d="M 3 0 L 13 0 C 16 0 16 0 16 3 L 16 13 C 16 16 16 16 13 16 L 3 16 C 0 16 0 16 0 13 L 0 3 C 0 0 0 0 3 0"  stroke="black" stroke-opacity="0.0" stroke-width="5" transform="translate(1, 1)"></path><path fill="none" d="M 3 0 L 13 0 C 16 0 16 0 16 3 L 16 13 C 16 16 16 16 13 16 L 3 16 C 0 16 0 16 0 13 L 0 3 C 0 0 0 0 3 0"  stroke="black" stroke-opacity="0.0" stroke-width="3" transform="translate(1, 1)"></path><path fill="none" d="M 3 0 L 13 0 C 16 0 16 0 16 3 L 16 13 C 16 16 16 16 13 16 L 3 16 C 0 16 0 16 0 13 L 0 3 C 0 0 0 0 3 0"  stroke="black" stroke-opacity="0.1" stroke-width="1" transform="translate(1, 1)"></path><path fill="rgb(249, 249, 249)" fill-opacity=" .85" d="M 3 0 L 13 0 C 16 0 16 0 16 3 L 16 13 C 16 16 16 16 13 16 L 3 16 C 0 16 0 16 0 13 L 0 3 C 0 0 0 0 3 0"></path><text x="8"  style="font-size:12px;color:#333333;fill:#333333;" y="20"></text></g></svg>