<svg version="1.1" style="font-family: signika, serif; font-size: 12px; background-image: url(http://www.highcharts.com/samples/graphics/sand.png); background-position: initial initial; background-repeat: initial initial;" xmlns="http://www.w3.org/2000/svg" width="400" height="300" viewBox="0 0 400 300" xmlns:xlink="http://www.w3.org/1999/xlink"><style type="text/css"><![CDATA[@import url(http://fonts.googleapis.com/css?family=Signika:700);]]></style><desc>Created with Highcharts 4.1.7</desc><defs><clipPath id="highcharts-1"><rect x="14" y="0" width="366" height="244"></rect></clipPath><linearGradient x1="0" y1="0" x2="0" y2="1" id="highcharts-2"><stop offset="0" stop-color="#FFF" stop-opacity="1"></stop><stop offset="1" stop-color="#DDD" stop-opacity="1"></stop></linearGradient><linearGradient x1="0" y1="0" x2="0" y2="1" id="highcharts-3"><stop offset="0" stop-color="#DDD" stop-opacity="1"></stop><stop offset="1" stop-color="#FFF" stop-opacity="1"></stop></linearGradient></defs><path fill="url(#highcharts-2)" d="M 200 54.1 A 108.8 108.8 0 1 1 199.8 54.1 M 200 163 A 0 0 0 1 0 200 163 " stroke="silver" stroke-width="1"></path><g class="highcharts-grid" ></g><g class="highcharts-grid" ></g><g class="highcharts-axis" ><path fill="none" d="M 160.6 231.1 L 163.1 226.8" stroke="#339" stroke-width="1" opacity="1"></path><path fill="none" d="M 144.3 218.6 L 147.8 215.1" stroke="#339" stroke-width="1" opacity="1"></path><path fill="none" d="M 131.8 202.3 L 136.1 199.8" stroke="#339" stroke-width="1" opacity="1"></path><path fill="none" d="M 123.9 183.3 L 128.8 182.0" stroke="#339" stroke-width="1" opacity="1"></path><path fill="none" d="M 121.3 163 L 126.3 163" stroke="#339" stroke-width="1" opacity="1"></path><path fill="none" d="M 123.9 142.6 L 128.8 143.9" stroke="#339" stroke-width="1" opacity="1"></path><path fill="none" d="M 131.8 123.6 L 136.1 126.1" stroke="#339" stroke-width="1" opacity="1"></path><path fill="none" d="M 144.3 107.3 L 147.8 110.8" stroke="#339" stroke-width="1" opacity="1"></path><path fill="none" d="M 160.6 94.8 L 163.1 99.1" stroke="#339" stroke-width="1" opacity="1"></path><path fill="none" d="M 179.6 86.9 L 180.9 91.8" stroke="#339" stroke-width="1" opacity="1"></path><path fill="none" d="M 200 84.3 L 200 89.3" stroke="#339" stroke-width="1" opacity="1"></path><path fill="none" d="M 220.3 86.9 L 219.0 91.8" stroke="#339" stroke-width="1" opacity="1"></path><path fill="none" d="M 239.3 94.8 L 236.8 99.1" stroke="#339" stroke-width="1" opacity="1"></path><path fill="none" d="M 255.6 107.3 L 252.1 110.8" stroke="#339" stroke-width="1" opacity="1"></path><path fill="none" d="M 268.1 123.6 L 263.8 126.1" stroke="#339" stroke-width="1" opacity="1"></path><path fill="none" d="M 276.0 142.6 L 271.1 143.9" stroke="#339" stroke-width="1" opacity="1"></path><path fill="none" d="M 278.7 162.9 L 273.7 162.9" stroke="#339" stroke-width="1" opacity="1"></path><path fill="none" d="M 276.0 183.3 L 271.1 182.0" stroke="#339" stroke-width="1" opacity="1"></path><path fill="none" d="M 268.1 202.3 L 263.8 199.8" stroke="#339" stroke-width="1" opacity="1"></path><path fill="none" d="M 255.6 218.6 L 252.1 215.1" stroke="#339" stroke-width="1" opacity="1"></path><path fill="none" d="M 239.3 231.1 L 236.8 226.8" stroke="#339" stroke-width="1" opacity="1"></path><path fill="none" d="M 160.6 231.1 L 163.1 226.8" stroke="#339" stroke-width="2" opacity="1"></path><path fill="none" d="M 123.9 142.6 L 128.8 143.9" stroke="#339" stroke-width="2" opacity="1"></path><path fill="none" d="M 200 84.3 L 200 89.3" stroke="#339" stroke-width="2" opacity="1"></path><path fill="none" d="M 276.0 142.6 L 271.1 143.9" stroke="#339" stroke-width="2" opacity="1"></path><path fill="none" d="M 239.3 231.1 L 236.8 226.8" stroke="#339" stroke-width="2" opacity="1"></path><path fill="none" d="M 160.6 231.1 A 78.7 78.7 0 1 1 239.4 231.1 M 200 163 A 0 0 0 1 0 200 163 " stroke="#339" stroke-width="2"  visibility="visible"></path></g><g class="highcharts-axis" ><path fill="none" d="M 158.1 235.4 L 155.6 239.8" stroke="#933" stroke-width="1" opacity="1"></path><path fill="none" d="M 143.8 225.1 L 140.5 228.8" stroke="#933" stroke-width="1" opacity="1"></path><path fill="none" d="M 132.1 211.9 L 128.0 214.8" stroke="#933" stroke-width="1" opacity="1"></path><path fill="none" d="M 123.3 196.6 L 118.7 198.6" stroke="#933" stroke-width="1" opacity="1"></path><path fill="none" d="M 118.0 179.8 L 113.1 180.8" stroke="#933" stroke-width="1" opacity="1"></path><path fill="none" d="M 116.3 162.2 L 111.3 162.2" stroke="#933" stroke-width="1" opacity="1"></path><path fill="none" d="M 118.3 144.7 L 113.4 143.6" stroke="#933" stroke-width="1" opacity="1"></path><path fill="none" d="M 123.9 128.0 L 119.4 125.9" stroke="#933" stroke-width="1" opacity="1"></path><path fill="none" d="M 132.9 112.8 L 128.9 109.8" stroke="#933" stroke-width="1" opacity="1"></path><path fill="none" d="M 144.9 99.9 L 141.6 96.1" stroke="#933" stroke-width="1" opacity="1"></path><path fill="none" d="M 159.3 89.8 L 156.9 85.4" stroke="#933" stroke-width="1" opacity="1"></path><path fill="none" d="M 175.6 82.9 L 174.1 78.1" stroke="#933" stroke-width="1" opacity="1"></path><path fill="none" d="M 192.9 79.5 L 192.5 74.6" stroke="#933" stroke-width="1" opacity="1"></path><path fill="none" d="M 210.5 79.9 L 211.2 75.0" stroke="#933" stroke-width="1" opacity="1"></path><path fill="none" d="M 227.7 84.0 L 229.3 79.3" stroke="#933" stroke-width="1" opacity="1"></path><path fill="none" d="M 243.6 91.5 L 246.2 87.3" stroke="#933" stroke-width="1" opacity="1"></path><path fill="none" d="M 257.6 102.3 L 261.1 98.7" stroke="#933" stroke-width="1" opacity="1"></path><path fill="none" d="M 269.0 115.7 L 273.2 112.9" stroke="#933" stroke-width="1" opacity="1"></path><path fill="none" d="M 277.4 131.2 L 282.0 129.4" stroke="#933" stroke-width="1" opacity="1"></path><path fill="none" d="M 282.3 148.2 L 287.3 147.3" stroke="#933" stroke-width="1" opacity="1"></path><path fill="none" d="M 283.6 165.8 L 288.6 165.9" stroke="#933" stroke-width="1" opacity="1"></path><path fill="none" d="M 281.2 183.2 L 286.0 184.5" stroke="#933" stroke-width="1" opacity="1"></path><path fill="none" d="M 275.1 199.8 L 279.6 202.0" stroke="#933" stroke-width="1" opacity="1"></path><path fill="none" d="M 265.7 214.7 L 269.6 217.8" stroke="#933" stroke-width="1" opacity="1"></path><path fill="none" d="M 253.4 227.4 L 256.6 231.2" stroke="#933" stroke-width="1" opacity="1"></path><path fill="none" d="M 158.1 235.4 L 155.6 239.8" stroke="#933" stroke-width="2" opacity="1"></path><path fill="none" d="M 116.3 162.2 L 111.3 162.2" stroke="#933" stroke-width="2" opacity="1"></path><path fill="none" d="M 159.3 89.8 L 156.9 85.4" stroke="#933" stroke-width="2" opacity="1"></path><path fill="none" d="M 243.6 91.5 L 246.2 87.3" stroke="#933" stroke-width="2" opacity="1"></path><path fill="none" d="M 283.6 165.8 L 288.6 165.9" stroke="#933" stroke-width="2" opacity="1"></path><path fill="none" d="M 158.1 235.4 A 83.7 83.7 0 1 1 241.9 235.4 M 200 163 A 0 0 0 1 0 200 163 " stroke="#933" stroke-width="2"  visibility="visible"></path></g><g class="highcharts-data-labels highcharts-tracker" visibility="visible"  transform="translate(10,41) scale(1 1)" style=""><g  style="" transform="translate(166,137)"><rect x="0.5" y="0.5" width="48" height="35" strokeWidth="1" fill="url(#highcharts-3)" stroke="silver" stroke-width="1" rx="3" ry="3"></rect><text x="5"  style="font-size: 11px; font-weight: bold; color: rgb(0, 0, 0); fill: #000000; text-shadow: rgb(255, 255, 255) 0px 0px 6px, rgb(255, 255, 255) 0px 0px 3px; text-rendering: geometricprecision;" y="16"><tspan style="fill:#339">80 km/h</tspan><tspan style="fill:#933" x="5" dy="14">50 mph</tspan></text></g></g><g class="highcharts-series-group" ><g class="highcharts-series highcharts-tracker" visibility="visible"  transform="translate(10,41) scale(1 1)" style="" clip-path="url(#highcharts-1)"><path fill="black" d="M -8.2 -1.5 L 58.0 -1.5 82.9 -0.5 82.9 0.5 58.0 1.5 -8.2 1.5 z" transform="translate(190,122) rotate(-120.0 0 0)"></path><circle cx="0" cy="0" r="5" fill="black" transform="translate(190,122)"></circle></g><g class="highcharts-markers" visibility="visible"  transform="translate(10,41) scale(1 1)"></g></g><text x="200" text-anchor="middle" class="highcharts-title"  style="color:black;font-size:16px;font-weight:bold;fill:black;width:336px;" y="22"><tspan>Speedometer with dual axes</tspan></text><g class="highcharts-legend" ><g ><g></g></g></g><g class="highcharts-axis-labels highcharts-yaxis-labels" ><text x="170.6" style="color:#606060;cursor:default;font-size:11px;fill:#606060;width:122px;text-overflow:clip;" text-anchor="middle" transform="translate(0,0) rotate(-150 170.6 213.8)" y="213.8" opacity="1">0</text><text x="143.3" style="color:#606060;cursor:default;font-size:11px;fill:#606060;width:122px;text-overflow:clip;" text-anchor="middle" transform="translate(0,0) rotate(-75 143.3 147.8)" y="147.8" opacity="1">50</text><text x="200" style="color:#606060;cursor:default;font-size:11px;fill:#606060;width:122px;text-overflow:clip;" text-anchor="middle" transform="translate(0,0)" y="104.3" opacity="1">100</text><text x="256.6" style="color:#606060;cursor:default;font-size:11px;fill:#606060;width:122px;text-overflow:clip;" text-anchor="middle" transform="translate(0,0) rotate(74.9 256.6 147.8)" y="147.8" opacity="1">150</text><text x="229.3" style="color:#606060;cursor:default;font-size:11px;fill:#606060;width:122px;text-overflow:clip;" text-anchor="middle" transform="translate(0,0) rotate(150 229.3 213.8)" y="213.8" opacity="1">200</text></g><g class="highcharts-axis-labels highcharts-yaxis-labels" ><text x="152.1" style="color:#606060;cursor:default;font-size:11px;fill:#606060;width:122px;text-overflow:clip;" text-anchor="middle" transform="translate(0,0) rotate(-150 152.1 245.8)" y="245.8" opacity="1">0</text><text x="104.3" style="color:#606060;cursor:default;font-size:11px;fill:#606060;width:122px;text-overflow:clip;" text-anchor="middle" transform="translate(0,0) rotate(-89.5 104.3 162.1)" y="162.1" opacity="1">25</text><text x="153.5" style="color:#606060;cursor:default;font-size:11px;fill:#606060;width:122px;text-overflow:clip;" text-anchor="middle" transform="translate(0,0) rotate(-29.0 153.5 79.3)" y="79.3" opacity="1">50</text><text x="249.9" style="color:#606060;cursor:default;font-size:11px;fill:#606060;width:122px;text-overflow:clip;" text-anchor="middle" transform="translate(0,0) rotate(31.4 249.9 81.3)" y="81.3" opacity="1">75</text><text x="295.6" style="color:#606060;cursor:default;font-size:11px;fill:#606060;width:122px;text-overflow:clip;" text-anchor="middle" transform="translate(0,0) rotate(91.9 295.6 166.2)" y="166.2" opacity="1">100</text></g><g class="highcharts-tooltip"  style="cursor:default;padding:0;white-space:nowrap;" transform="translate(0,-9999)"><path fill="none" d="M 3 0 L 13 0 C 16 0 16 0 16 3 L 16 13 C 16 16 16 16 13 16 L 3 16 C 0 16 0 16 0 13 L 0 3 C 0 0 0 0 3 0"  stroke="black" stroke-opacity="0.0" stroke-width="5" transform="translate(1, 1)"></path><path fill="none" d="M 3 0 L 13 0 C 16 0 16 0 16 3 L 16 13 C 16 16 16 16 13 16 L 3 16 C 0 16 0 16 0 13 L 0 3 C 0 0 0 0 3 0"  stroke="black" stroke-opacity="0.0" stroke-width="3" transform="translate(1, 1)"></path><path fill="none" d="M 3 0 L 13 0 C 16 0 16 0 16 3 L 16 13 C 16 16 16 16 13 16 L 3 16 C 0 16 0 16 0 13 L 0 3 C 0 0 0 0 3 0"  stroke="black" stroke-opacity="0.1" stroke-width="1" transform="translate(1, 1)"></path><path fill="rgb(249, 249, 249)" fill-opacity=" .85" d="M 3 0 L 13 0 C 16 0 16 0 16 3 L 16 13 C 16 16 16 16 13 16 L 3 16 C 0 16 0 16 0 13 L 0 3 C 0 0 0 0 3 0"></path><text x="8"  style="font-size:12px;color:#333333;fill:#333333;" y="20"></text></g></svg>