<svg version="1.1" style="font-family:&quot;lucida grande&quot;, &quot;lucida sans unicode&quot;, arial, helvetica, sans-serif;font-size:12px;" xmlns="http://www.w3.org/2000/svg" width="300" height="300" viewBox="0 0 300 300"><desc>Created with Highcharts 4.1.7</desc><defs><clipPath id="highcharts-1"><rect x="0" y="0" width="280" height="239"></rect></clipPath><linearGradient x1="0" y1="0" x2="0" y2="1" id="highcharts-2"><stop offset="0" stop-color="#FFF" stop-opacity="1"></stop><stop offset="1" stop-color="#DDD" stop-opacity="1"></stop></linearGradient><radialGradient cx="0.5" cy="-0.4" r="1.9" id="highcharts-3"><stop offset="0.5" stop-color="rgb(255,255,255)" stop-opacity="0.2"></stop><stop offset="0.5" stop-color="rgb(200,200,200)" stop-opacity="0.2"></stop></radialGradient></defs><rect x="0" y="0" width="300" height="300" strokeWidth="0" fill="#FFFFFF" class=" highcharts-background" stroke="transparent"></rect><path fill="url(#highcharts-2)" d="M 150 58.8 A 106.6 106.6 0 1 1 149.8 58.8 M 150 165.5 A 0 0 0 1 0 150 165.5 " stroke="silver" stroke-width="1"></path><path fill="url(#highcharts-3)" d="M 150 58.8 A 106.6 106.6 0 1 1 149.8 58.8 M 150 165.5 A 0 0 0 1 0 150 165.5 " stroke="silver" stroke-width="1"></path><g class="highcharts-grid" ></g><g class="highcharts-axis" ><path fill="none" d="M 150 63.9 L 150 68.9" stroke="#666" stroke-width="1" opacity="1"></path><path fill="none" d="M 160.6 64.4 L 160.0 69.4" stroke="#666" stroke-width="1" opacity="1"></path><path fill="none" d="M 171.1 66.1 L 170.0 71.0" stroke="#666" stroke-width="1" opacity="1"></path><path fill="none" d="M 181.3 68.8 L 179.8 73.6" stroke="#666" stroke-width="1" opacity="1"></path><path fill="none" d="M 191.3 72.7 L 189.2 77.2" stroke="#666" stroke-width="1" opacity="1"></path><path fill="none" d="M 200.7 77.5 L 198.2 81.8" stroke="#666" stroke-width="1" opacity="1"></path><path fill="none" d="M 209.7 83.3 L 206.7 87.3" stroke="#666" stroke-width="1" opacity="1"></path><path fill="none" d="M 217.9 90.0 L 214.6 93.7" stroke="#666" stroke-width="1" opacity="1"></path><path fill="none" d="M 225.4 97.5 L 221.7 100.8" stroke="#666" stroke-width="1" opacity="1"></path><path fill="none" d="M 232.1 105.7 L 228.1 108.7" stroke="#666" stroke-width="1" opacity="1"></path><path fill="none" d="M 237.9 114.7 L 233.6 117.2" stroke="#666" stroke-width="1" opacity="1"></path><path fill="none" d="M 242.7 124.1 L 238.2 126.2" stroke="#666" stroke-width="1" opacity="1"></path><path fill="none" d="M 246.6 134.1 L 241.8 135.6" stroke="#666" stroke-width="1" opacity="1"></path><path fill="none" d="M 249.3 144.3 L 244.4 145.4" stroke="#666" stroke-width="1" opacity="1"></path><path fill="none" d="M 251.0 154.8 L 246.0 155.4" stroke="#666" stroke-width="1" opacity="1"></path><path fill="none" d="M 251.5 165.5 L 246.5 165.5" stroke="#666" stroke-width="1" opacity="1"></path><path fill="none" d="M 251.0 176.1 L 246.0 175.5" stroke="#666" stroke-width="1" opacity="1"></path><path fill="none" d="M 249.3 186.6 L 244.4 185.5" stroke="#666" stroke-width="1" opacity="1"></path><path fill="none" d="M 246.6 196.8 L 241.8 195.3" stroke="#666" stroke-width="1" opacity="1"></path><path fill="none" d="M 242.7 206.8 L 238.2 204.7" stroke="#666" stroke-width="1" opacity="1"></path><path fill="none" d="M 237.9 216.2 L 233.6 213.7" stroke="#666" stroke-width="1" opacity="1"></path><path fill="none" d="M 232.1 225.2 L 228.1 222.2" stroke="#666" stroke-width="1" opacity="1"></path><path fill="none" d="M 225.4 233.4 L 221.7 230.1" stroke="#666" stroke-width="1" opacity="1"></path><path fill="none" d="M 217.9 240.9 L 214.6 237.2" stroke="#666" stroke-width="1" opacity="1"></path><path fill="none" d="M 209.7 247.6 L 206.7 243.6" stroke="#666" stroke-width="1" opacity="1"></path><path fill="none" d="M 200.7 253.4 L 198.2 249.1" stroke="#666" stroke-width="1" opacity="1"></path><path fill="none" d="M 191.3 258.2 L 189.2 253.7" stroke="#666" stroke-width="1" opacity="1"></path><path fill="none" d="M 181.3 262.1 L 179.8 257.3" stroke="#666" stroke-width="1" opacity="1"></path><path fill="none" d="M 171.1 264.8 L 170.0 259.9" stroke="#666" stroke-width="1" opacity="1"></path><path fill="none" d="M 160.6 266.5 L 160.0 261.5" stroke="#666" stroke-width="1" opacity="1"></path><path fill="none" d="M 149.9 267.0 L 149.9 262.0" stroke="#666" stroke-width="1" opacity="1"></path><path fill="none" d="M 139.3 266.5 L 139.9 261.5" stroke="#666" stroke-width="1" opacity="1"></path><path fill="none" d="M 128.8 264.8 L 129.9 259.9" stroke="#666" stroke-width="1" opacity="1"></path><path fill="none" d="M 118.6 262.1 L 120.1 257.3" stroke="#666" stroke-width="1" opacity="1"></path><path fill="none" d="M 108.6 258.2 L 110.7 253.7" stroke="#666" stroke-width="1" opacity="1"></path><path fill="none" d="M 99.2 253.4 L 101.7 249.1" stroke="#666" stroke-width="1" opacity="1"></path><path fill="none" d="M 90.2 247.6 L 93.2 243.6" stroke="#666" stroke-width="1" opacity="1"></path><path fill="none" d="M 82.0 240.9 L 85.3 237.2" stroke="#666" stroke-width="1" opacity="1"></path><path fill="none" d="M 74.5 233.4 L 78.2 230.1" stroke="#666" stroke-width="1" opacity="1"></path><path fill="none" d="M 67.8 225.2 L 71.8 222.2" stroke="#666" stroke-width="1" opacity="1"></path><path fill="none" d="M 62.0 216.2 L 66.3 213.7" stroke="#666" stroke-width="1" opacity="1"></path><path fill="none" d="M 57.2 206.8 L 61.7 204.7" stroke="#666" stroke-width="1" opacity="1"></path><path fill="none" d="M 53.3 196.8 L 58.1 195.3" stroke="#666" stroke-width="1" opacity="1"></path><path fill="none" d="M 50.6 186.6 L 55.5 185.5" stroke="#666" stroke-width="1" opacity="1"></path><path fill="none" d="M 48.9 176.1 L 53.9 175.5" stroke="#666" stroke-width="1" opacity="1"></path><path fill="none" d="M 48.4 165.5 L 53.4 165.5" stroke="#666" stroke-width="1" opacity="1"></path><path fill="none" d="M 48.9 154.8 L 53.9 155.4" stroke="#666" stroke-width="1" opacity="1"></path><path fill="none" d="M 50.6 144.3 L 55.5 145.4" stroke="#666" stroke-width="1" opacity="1"></path><path fill="none" d="M 53.3 134.1 L 58.1 135.6" stroke="#666" stroke-width="1" opacity="1"></path><path fill="none" d="M 57.2 124.1 L 61.7 126.2" stroke="#666" stroke-width="1" opacity="1"></path><path fill="none" d="M 62.0 114.7 L 66.3 117.2" stroke="#666" stroke-width="1" opacity="1"></path><path fill="none" d="M 67.8 105.7 L 71.8 108.7" stroke="#666" stroke-width="1" opacity="1"></path><path fill="none" d="M 74.5 97.5 L 78.2 100.8" stroke="#666" stroke-width="1" opacity="1"></path><path fill="none" d="M 82.0 90.0 L 85.3 93.7" stroke="#666" stroke-width="1" opacity="1"></path><path fill="none" d="M 90.2 83.3 L 93.2 87.3" stroke="#666" stroke-width="1" opacity="1"></path><path fill="none" d="M 99.2 77.5 L 101.7 81.8" stroke="#666" stroke-width="1" opacity="1"></path><path fill="none" d="M 108.6 72.7 L 110.7 77.2" stroke="#666" stroke-width="1" opacity="1"></path><path fill="none" d="M 118.6 68.8 L 120.1 73.6" stroke="#666" stroke-width="1" opacity="1"></path><path fill="none" d="M 128.8 66.1 L 129.9 71.0" stroke="#666" stroke-width="1" opacity="1"></path><path fill="none" d="M 139.3 64.4 L 139.9 69.4" stroke="#666" stroke-width="1" opacity="1"></path><path fill="none" d="M 149.9 63.9 L 149.9 68.9" stroke="#666" stroke-width="1" opacity="1"></path><path fill="none" d="M 150 63.9 L 150 73.9" stroke="#666" stroke-width="2" opacity="1"></path><path fill="none" d="M 200.7 77.5 L 195.7 86.1" stroke="#666" stroke-width="2" opacity="1"></path><path fill="none" d="M 237.9 114.7 L 229.3 119.7" stroke="#666" stroke-width="2" opacity="1"></path><path fill="none" d="M 251.5 165.5 L 241.5 165.5" stroke="#666" stroke-width="2" opacity="1"></path><path fill="none" d="M 237.9 216.2 L 229.3 211.2" stroke="#666" stroke-width="2" opacity="1"></path><path fill="none" d="M 200.7 253.4 L 195.7 244.8" stroke="#666" stroke-width="2" opacity="1"></path><path fill="none" d="M 150 267.0 L 150 257.0" stroke="#666" stroke-width="2" opacity="1"></path><path fill="none" d="M 99.2 253.4 L 104.2 244.8" stroke="#666" stroke-width="2" opacity="1"></path><path fill="none" d="M 62.0 216.2 L 70.6 211.2" stroke="#666" stroke-width="2" opacity="1"></path><path fill="none" d="M 48.4 165.5 L 58.4 165.5" stroke="#666" stroke-width="2" opacity="1"></path><path fill="none" d="M 62.0 114.7 L 70.6 119.7" stroke="#666" stroke-width="2" opacity="1"></path><path fill="none" d="M 99.2 77.5 L 104.2 86.1" stroke="#666" stroke-width="2" opacity="1"></path><path fill="none" d="M 149.9 63.9 L 149.9 73.9" stroke="#666" stroke-width="2" opacity="1"></path><text x="150"  text-anchor="middle" transform="translate(0,0)" class=" highcharts-yaxis-title" style="color:#bbb;font-weight:normal;font-size:8px;line-height:10px;fill:#bbb;" visibility="visible" y="124.7"><tspan>Powered by</tspan><tspan x="150" dy="10">Highcharts</tspan></text></g><g class="highcharts-series-group" ><g class="highcharts-series highcharts-tracker" visibility="visible"  transform="translate(10,46) scale(1 1)" style="" clip-path="url(#highcharts-1)"><path fill="black" d="M 0 -2 L 57.8 -2 60.9 -0.5 60.9 0.5 57.8 2 0 2 z" transform="translate(140,119.5) rotate(267.4 0 0)"></path><path fill="black" d="M 0 -1.5 L 77.1 -1.5 81.2 -0.5 81.2 0.5 77.1 1.5 0 1.5 z" transform="translate(140,119.5) rotate(243.2 0 0)"></path><path fill="black" d="M -20.3 -0.5 L 71.1 -0.5 101.5 -0.5 101.5 0.5 71.1 0.5 -20.3 0.5 z" transform="translate(140,119.5) rotate(102 0 0)"></path><circle cx="0" cy="0" r="5" fill="black" transform="translate(140,119.5)"></circle></g><g class="highcharts-markers" visibility="visible"  transform="translate(10,46) scale(1 1)" clip-path="none"></g></g><text x="150" text-anchor="middle" class="highcharts-title"  style="color:#333333;font-size:18px;fill:#333333;width:236px;" y="24"><tspan>The Highcharts clock</tspan></text><g class="highcharts-legend" ><g ><g></g></g></g><g class="highcharts-axis-labels highcharts-yaxis-labels" ><text x="0" style="color:#606060;cursor:default;font-size:11px;fill:#606060;width:89px;text-overflow:clip;" text-anchor="middle" transform="translate(0,0)" y="-9999">0</text><text x="190.7" style="color:#606060;cursor:default;font-size:11px;fill:#606060;width:89px;text-overflow:clip;" text-anchor="middle" transform="translate(0,0)" y="99.3" opacity="1">1</text><text x="220.6" style="color:#606060;cursor:default;font-size:11px;fill:#606060;width:89px;text-overflow:clip;" text-anchor="middle" transform="translate(0,0)" y="129.2" opacity="1">2</text><text x="231.5" style="color:#606060;cursor:default;font-size:11px;fill:#606060;width:89px;text-overflow:clip;" text-anchor="middle" transform="translate(0,0)" y="170.0" opacity="1">3</text><text x="220.6" style="color:#606060;cursor:default;font-size:11px;fill:#606060;width:89px;text-overflow:clip;" text-anchor="middle" transform="translate(0,0)" y="210.8" opacity="1">4</text><text x="190.7" style="color:#606060;cursor:default;font-size:11px;fill:#606060;width:89px;text-overflow:clip;" text-anchor="middle" transform="translate(0,0)" y="240.6" opacity="1">5</text><text x="150" style="color:#606060;cursor:default;font-size:11px;fill:#606060;width:89px;text-overflow:clip;" text-anchor="middle" transform="translate(0,0)" y="251.6" opacity="1">6</text><text x="109.2" style="color:#606060;cursor:default;font-size:11px;fill:#606060;width:89px;text-overflow:clip;" text-anchor="middle" transform="translate(0,0)" y="240.6" opacity="1">7</text><text x="79.3" style="color:#606060;cursor:default;font-size:11px;fill:#606060;width:89px;text-overflow:clip;" text-anchor="middle" transform="translate(0,0)" y="210.8" opacity="1">8</text><text x="68.4" style="color:#606060;cursor:default;font-size:11px;fill:#606060;width:89px;text-overflow:clip;" text-anchor="middle" transform="translate(0,0)" y="170.0" opacity="1">9</text><text x="79.3" style="color:#606060;cursor:default;font-size:11px;fill:#606060;width:89px;text-overflow:clip;" text-anchor="middle" transform="translate(0,0)" y="129.2" opacity="1">10</text><text x="109.2" style="color:#606060;cursor:default;font-size:11px;fill:#606060;width:89px;text-overflow:clip;" text-anchor="middle" transform="translate(0,0)" y="99.3" opacity="1">11</text><text x="149.9" style="color:#606060;cursor:default;font-size:11px;fill:#606060;width:89px;text-overflow:clip;" text-anchor="middle" transform="translate(0,0)" y="88.4" opacity="1">12</text></g><g class="highcharts-tooltip"  style="cursor:default;padding:0;white-space:nowrap;" transform="translate(0,-9999)"><path fill="none" d="M 3.5 0.5 L 13.5 0.5 C 16.5 0.5 16.5 0.5 16.5 3.5 L 16.5 13.5 C 16.5 16.5 16.5 16.5 13.5 16.5 L 3.5 16.5 C 0.5 16.5 0.5 16.5 0.5 13.5 L 0.5 3.5 C 0.5 0.5 0.5 0.5 3.5 0.5"  stroke="black" stroke-opacity="0.0" stroke-width="5" transform="translate(1, 1)"></path><path fill="none" d="M 3.5 0.5 L 13.5 0.5 C 16.5 0.5 16.5 0.5 16.5 3.5 L 16.5 13.5 C 16.5 16.5 16.5 16.5 13.5 16.5 L 3.5 16.5 C 0.5 16.5 0.5 16.5 0.5 13.5 L 0.5 3.5 C 0.5 0.5 0.5 0.5 3.5 0.5"  stroke="black" stroke-opacity="0.0" stroke-width="3" transform="translate(1, 1)"></path><path fill="none" d="M 3.5 0.5 L 13.5 0.5 C 16.5 0.5 16.5 0.5 16.5 3.5 L 16.5 13.5 C 16.5 16.5 16.5 16.5 13.5 16.5 L 3.5 16.5 C 0.5 16.5 0.5 16.5 0.5 13.5 L 0.5 3.5 C 0.5 0.5 0.5 0.5 3.5 0.5"  stroke="black" stroke-opacity="0.1" stroke-width="1" transform="translate(1, 1)"></path><path fill="rgb(249, 249, 249)" fill-opacity=" .85" d="M 3.5 0.5 L 13.5 0.5 C 16.5 0.5 16.5 0.5 16.5 3.5 L 16.5 13.5 C 16.5 16.5 16.5 16.5 13.5 16.5 L 3.5 16.5 C 0.5 16.5 0.5 16.5 0.5 13.5 L 0.5 3.5 C 0.5 0.5 0.5 0.5 3.5 0.5"></path><text x="8"  style="font-size:12px;color:#333333;fill:#333333;" y="20"></text></g></svg>