<svg version="1.1" style="font-family:&quot;lucida grande&quot;, &quot;lucida sans unicode&quot;, arial, helvetica, sans-serif;font-size:12px;" xmlns="http://www.w3.org/2000/svg" width="400" height="300" viewBox="0 0 400 300"><desc>Created with Highcharts 4.1.6</desc><defs><clipPath id="highcharts-1"><rect x="0" y="0" width="380" height="239"></rect></clipPath><linearGradient x1="0" y1="0" x2="0" y2="1" id="highcharts-2"><stop offset="0" stop-color="#FFF" stop-opacity="1"></stop><stop offset="1" stop-color="#333" stop-opacity="1"></stop></linearGradient><linearGradient x1="0" y1="0" x2="0" y2="1" id="highcharts-3"><stop offset="0" stop-color="#333" stop-opacity="1"></stop><stop offset="1" stop-color="#FFF" stop-opacity="1"></stop></linearGradient><linearGradient x1="0" y1="0" x2="0" y2="1" id="highcharts-4"><stop offset="0" stop-color="#FFF" stop-opacity="1"></stop><stop offset="1" stop-color="#DDD" stop-opacity="1"></stop></linearGradient></defs><rect x="0" y="0" width="400" height="300" strokeWidth="0" fill="#FFFFFF" class=" highcharts-background" stroke="transparent"></rect><path fill="url(#highcharts-2)" d="M 200 54.7 A 110.7 110.7 0 1 1 199.8 54.7 M 200 165.5 A 0 0 0 1 0 200 165.5 "></path><path fill="url(#highcharts-2)" d="M 200 54.7 A 110.7 110.7 0 1 1 199.8 54.7 M 200 165.5 A 0 0 0 1 0 200 165.5 "></path><path fill="url(#highcharts-3)" d="M 200 56.8 A 108.6 108.6 0 1 1 199.8 56.8 M 200 165.5 A 0 0 0 1 0 200 165.5 " stroke="silver" stroke-width="1"></path><path fill="url(#highcharts-3)" d="M 200 56.8 A 108.6 108.6 0 1 1 199.8 56.8 M 200 165.5 A 0 0 0 1 0 200 165.5 " stroke="silver" stroke-width="1"></path><path fill="url(#highcharts-4)" d="M 200 58.8 A 106.6 106.6 0 1 1 199.8 58.8 M 200 165.5 A 0 0 0 1 0 200 165.5 " stroke="silver" stroke-width="1"></path><path fill="url(#highcharts-4)" d="M 200 58.8 A 106.6 106.6 0 1 1 199.8 58.8 M 200 165.5 A 0 0 0 1 0 200 165.5 " stroke="silver" stroke-width="1"></path><path fill="#DDD" d="M 200 58.8 A 106.6 106.6 0 1 1 199.8 58.8 M 199.8 60.8 A 104.6 104.6 0 1 0 200 60.8 "></path><path fill="#DDD" d="M 200 58.8 A 106.6 106.6 0 1 1 199.8 58.8 M 199.8 60.8 A 104.6 104.6 0 1 0 200 60.8 "></path><path fill="#55BF3B" d="M 149.2 253.4 A 101.5 101.5 0 0 1 250.6 77.4 L 245.7 86.1 A 91.5 91.5 0 0 0 154.2 244.8 Z"></path><path fill="#DDDF0D" d="M 250.7 77.5 A 101.5 101.5 0 0 1 301.5 165.3 L 291.5 165.4 A 91.5 91.5 0 0 0 245.7 86.1 Z"></path><path fill="#DF5353" d="M 301.5 165.4 A 101.5 101.5 0 0 1 250.8 253.4 L 245.8 244.7 A 91.5 91.5 0 0 0 291.5 165.4 Z"></path><g class="highcharts-grid" ></g><g class="highcharts-axis" ><path fill="none" d="M 149.2 253.4 L 154.2 244.8" stroke="#666" stroke-width="1" opacity="1"></path><path fill="none" d="M 144.6 250.6 L 150.1 242.3" stroke="#666" stroke-width="1" opacity="1"></path><path fill="none" d="M 140.2 247.6 L 146.1 239.5" stroke="#666" stroke-width="1" opacity="1"></path><path fill="none" d="M 136.0 244.4 L 142.3 236.6" stroke="#666" stroke-width="1" opacity="1"></path><path fill="none" d="M 132.0 240.9 L 138.7 233.5" stroke="#666" stroke-width="1" opacity="1"></path><path fill="none" d="M 128.1 237.3 L 135.2 230.2" stroke="#666" stroke-width="1" opacity="1"></path><path fill="none" d="M 124.5 233.4 L 131.9 226.7" stroke="#666" stroke-width="1" opacity="1"></path><path fill="none" d="M 121.0 229.4 L 128.8 223.1" stroke="#666" stroke-width="1" opacity="1"></path><path fill="none" d="M 117.8 225.2 L 125.9 219.3" stroke="#666" stroke-width="1" opacity="1"></path><path fill="none" d="M 114.8 220.8 L 123.1 215.3" stroke="#666" stroke-width="1" opacity="1"></path><path fill="none" d="M 112.0 216.2 L 120.6 211.2" stroke="#666" stroke-width="1" opacity="1"></path><path fill="none" d="M 109.4 211.6 L 118.4 207.0" stroke="#666" stroke-width="1" opacity="1"></path><path fill="none" d="M 107.2 206.8 L 116.3 202.7" stroke="#666" stroke-width="1" opacity="1"></path><path fill="none" d="M 105.1 201.9 L 114.5 198.3" stroke="#666" stroke-width="1" opacity="1"></path><path fill="none" d="M 103.3 196.8 L 112.9 193.7" stroke="#666" stroke-width="1" opacity="1"></path><path fill="none" d="M 101.8 191.7 L 111.5 189.2" stroke="#666" stroke-width="1" opacity="1"></path><path fill="none" d="M 100.6 186.6 L 110.4 184.5" stroke="#666" stroke-width="1" opacity="1"></path><path fill="none" d="M 99.6 181.3 L 109.5 179.8" stroke="#666" stroke-width="1" opacity="1"></path><path fill="none" d="M 98.9 176.1 L 108.9 175.0" stroke="#666" stroke-width="1" opacity="1"></path><path fill="none" d="M 98.5 170.8 L 108.5 170.2" stroke="#666" stroke-width="1" opacity="1"></path><path fill="none" d="M 98.4 165.5 L 108.4 165.5" stroke="#666" stroke-width="1" opacity="1"></path><path fill="none" d="M 98.5 160.1 L 108.5 160.7" stroke="#666" stroke-width="1" opacity="1"></path><path fill="none" d="M 98.9 154.8 L 108.9 155.9" stroke="#666" stroke-width="1" opacity="1"></path><path fill="none" d="M 99.6 149.6 L 109.5 151.1" stroke="#666" stroke-width="1" opacity="1"></path><path fill="none" d="M 100.6 144.3 L 110.4 146.4" stroke="#666" stroke-width="1" opacity="1"></path><path fill="none" d="M 101.8 139.2 L 111.5 141.7" stroke="#666" stroke-width="1" opacity="1"></path><path fill="none" d="M 103.3 134.1 L 112.9 137.2" stroke="#666" stroke-width="1" opacity="1"></path><path fill="none" d="M 105.1 129.0 L 114.5 132.6" stroke="#666" stroke-width="1" opacity="1"></path><path fill="none" d="M 107.2 124.1 L 116.3 128.2" stroke="#666" stroke-width="1" opacity="1"></path><path fill="none" d="M 109.4 119.3 L 118.4 123.9" stroke="#666" stroke-width="1" opacity="1"></path><path fill="none" d="M 112.0 114.7 L 120.6 119.7" stroke="#666" stroke-width="1" opacity="1"></path><path fill="none" d="M 114.8 110.1 L 123.1 115.6" stroke="#666" stroke-width="1" opacity="1"></path><path fill="none" d="M 117.8 105.7 L 125.9 111.6" stroke="#666" stroke-width="1" opacity="1"></path><path fill="none" d="M 121.0 101.5 L 128.8 107.8" stroke="#666" stroke-width="1" opacity="1"></path><path fill="none" d="M 124.5 97.5 L 131.9 104.2" stroke="#666" stroke-width="1" opacity="1"></path><path fill="none" d="M 128.1 93.6 L 135.2 100.7" stroke="#666" stroke-width="1" opacity="1"></path><path fill="none" d="M 132.0 90.0 L 138.7 97.4" stroke="#666" stroke-width="1" opacity="1"></path><path fill="none" d="M 136.0 86.5 L 142.3 94.3" stroke="#666" stroke-width="1" opacity="1"></path><path fill="none" d="M 140.2 83.3 L 146.1 91.4" stroke="#666" stroke-width="1" opacity="1"></path><path fill="none" d="M 144.6 80.3 L 150.1 88.6" stroke="#666" stroke-width="1" opacity="1"></path><path fill="none" d="M 149.2 77.5 L 154.2 86.1" stroke="#666" stroke-width="1" opacity="1"></path><path fill="none" d="M 153.8 74.9 L 158.4 83.9" stroke="#666" stroke-width="1" opacity="1"></path><path fill="none" d="M 158.6 72.7 L 162.7 81.8" stroke="#666" stroke-width="1" opacity="1"></path><path fill="none" d="M 163.5 70.6 L 167.1 80.0" stroke="#666" stroke-width="1" opacity="1"></path><path fill="none" d="M 168.6 68.8 L 171.7 78.4" stroke="#666" stroke-width="1" opacity="1"></path><path fill="none" d="M 173.7 67.3 L 176.2 77.0" stroke="#666" stroke-width="1" opacity="1"></path><path fill="none" d="M 178.8 66.1 L 180.9 75.9" stroke="#666" stroke-width="1" opacity="1"></path><path fill="none" d="M 184.1 65.1 L 185.6 75.0" stroke="#666" stroke-width="1" opacity="1"></path><path fill="none" d="M 189.3 64.4 L 190.4 74.4" stroke="#666" stroke-width="1" opacity="1"></path><path fill="none" d="M 194.6 64.0 L 195.2 74.0" stroke="#666" stroke-width="1" opacity="1"></path><path fill="none" d="M 200 63.9 L 200 73.9" stroke="#666" stroke-width="1" opacity="1"></path><path fill="none" d="M 205.3 64.0 L 204.7 74.0" stroke="#666" stroke-width="1" opacity="1"></path><path fill="none" d="M 210.6 64.4 L 209.5 74.4" stroke="#666" stroke-width="1" opacity="1"></path><path fill="none" d="M 215.8 65.1 L 214.3 75.0" stroke="#666" stroke-width="1" opacity="1"></path><path fill="none" d="M 221.1 66.1 L 219.0 75.9" stroke="#666" stroke-width="1" opacity="1"></path><path fill="none" d="M 226.2 67.3 L 223.7 77.0" stroke="#666" stroke-width="1" opacity="1"></path><path fill="none" d="M 231.3 68.8 L 228.2 78.4" stroke="#666" stroke-width="1" opacity="1"></path><path fill="none" d="M 236.4 70.6 L 232.8 80.0" stroke="#666" stroke-width="1" opacity="1"></path><path fill="none" d="M 241.3 72.7 L 237.2 81.8" stroke="#666" stroke-width="1" opacity="1"></path><path fill="none" d="M 246.1 74.9 L 241.5 83.9" stroke="#666" stroke-width="1" opacity="1"></path><path fill="none" d="M 250.7 77.5 L 245.7 86.1" stroke="#666" stroke-width="1" opacity="1"></path><path fill="none" d="M 255.3 80.3 L 249.8 88.6" stroke="#666" stroke-width="1" opacity="1"></path><path fill="none" d="M 259.7 83.3 L 253.8 91.4" stroke="#666" stroke-width="1" opacity="1"></path><path fill="none" d="M 263.9 86.5 L 257.6 94.3" stroke="#666" stroke-width="1" opacity="1"></path><path fill="none" d="M 267.9 90.0 L 261.2 97.4" stroke="#666" stroke-width="1" opacity="1"></path><path fill="none" d="M 271.8 93.6 L 264.7 100.7" stroke="#666" stroke-width="1" opacity="1"></path><path fill="none" d="M 275.4 97.5 L 268.0 104.2" stroke="#666" stroke-width="1" opacity="1"></path><path fill="none" d="M 278.9 101.5 L 271.1 107.8" stroke="#666" stroke-width="1" opacity="1"></path><path fill="none" d="M 282.1 105.7 L 274.0 111.6" stroke="#666" stroke-width="1" opacity="1"></path><path fill="none" d="M 285.1 110.1 L 276.8 115.6" stroke="#666" stroke-width="1" opacity="1"></path><path fill="none" d="M 287.9 114.7 L 279.3 119.7" stroke="#666" stroke-width="1" opacity="1"></path><path fill="none" d="M 290.5 119.3 L 281.5 123.9" stroke="#666" stroke-width="1" opacity="1"></path><path fill="none" d="M 292.7 124.1 L 283.6 128.2" stroke="#666" stroke-width="1" opacity="1"></path><path fill="none" d="M 294.8 129.0 L 285.4 132.6" stroke="#666" stroke-width="1" opacity="1"></path><path fill="none" d="M 296.6 134.1 L 287.0 137.2" stroke="#666" stroke-width="1" opacity="1"></path><path fill="none" d="M 298.1 139.2 L 288.4 141.7" stroke="#666" stroke-width="1" opacity="1"></path><path fill="none" d="M 299.3 144.3 L 289.5 146.4" stroke="#666" stroke-width="1" opacity="1"></path><path fill="none" d="M 300.3 149.6 L 290.4 151.1" stroke="#666" stroke-width="1" opacity="1"></path><path fill="none" d="M 301.0 154.8 L 291.0 155.9" stroke="#666" stroke-width="1" opacity="1"></path><path fill="none" d="M 301.4 160.1 L 291.4 160.7" stroke="#666" stroke-width="1" opacity="1"></path><path fill="none" d="M 301.5 165.4 L 291.5 165.4" stroke="#666" stroke-width="1" opacity="1"></path><path fill="none" d="M 301.4 170.8 L 291.4 170.2" stroke="#666" stroke-width="1" opacity="1"></path><path fill="none" d="M 301.0 176.1 L 291.0 175.0" stroke="#666" stroke-width="1" opacity="1"></path><path fill="none" d="M 300.3 181.3 L 290.4 179.8" stroke="#666" stroke-width="1" opacity="1"></path><path fill="none" d="M 299.3 186.6 L 289.5 184.5" stroke="#666" stroke-width="1" opacity="1"></path><path fill="none" d="M 298.1 191.7 L 288.4 189.2" stroke="#666" stroke-width="1" opacity="1"></path><path fill="none" d="M 296.6 196.8 L 287.0 193.7" stroke="#666" stroke-width="1" opacity="1"></path><path fill="none" d="M 294.8 201.9 L 285.4 198.3" stroke="#666" stroke-width="1" opacity="1"></path><path fill="none" d="M 292.7 206.8 L 283.6 202.7" stroke="#666" stroke-width="1" opacity="1"></path><path fill="none" d="M 290.5 211.6 L 281.5 207.0" stroke="#666" stroke-width="1" opacity="1"></path><path fill="none" d="M 287.9 216.2 L 279.3 211.2" stroke="#666" stroke-width="1" opacity="1"></path><path fill="none" d="M 285.1 220.8 L 276.8 215.3" stroke="#666" stroke-width="1" opacity="1"></path><path fill="none" d="M 282.1 225.2 L 274.0 219.3" stroke="#666" stroke-width="1" opacity="1"></path><path fill="none" d="M 278.9 229.4 L 271.1 223.1" stroke="#666" stroke-width="1" opacity="1"></path><path fill="none" d="M 275.4 233.4 L 268.0 226.7" stroke="#666" stroke-width="1" opacity="1"></path><path fill="none" d="M 271.8 237.3 L 264.7 230.2" stroke="#666" stroke-width="1" opacity="1"></path><path fill="none" d="M 267.9 240.9 L 261.2 233.5" stroke="#666" stroke-width="1" opacity="1"></path><path fill="none" d="M 263.9 244.4 L 257.6 236.6" stroke="#666" stroke-width="1" opacity="1"></path><path fill="none" d="M 259.7 247.6 L 253.8 239.5" stroke="#666" stroke-width="1" opacity="1"></path><path fill="none" d="M 255.3 250.6 L 249.8 242.3" stroke="#666" stroke-width="1" opacity="1"></path><path fill="none" d="M 250.7 253.4 L 245.7 244.8" stroke="#666" stroke-width="1" opacity="1"></path><path fill="none" d="M 149.2 253.4 L 154.2 244.8" stroke="#666" stroke-width="2" opacity="1"></path><path fill="none" d="M 128.1 237.3 L 135.2 230.2" stroke="#666" stroke-width="2" opacity="1"></path><path fill="none" d="M 112.0 216.2 L 120.6 211.2" stroke="#666" stroke-width="2" opacity="1"></path><path fill="none" d="M 101.8 191.7 L 111.5 189.2" stroke="#666" stroke-width="2" opacity="1"></path><path fill="none" d="M 98.4 165.5 L 108.4 165.5" stroke="#666" stroke-width="2" opacity="1"></path><path fill="none" d="M 101.8 139.2 L 111.5 141.7" stroke="#666" stroke-width="2" opacity="1"></path><path fill="none" d="M 112.0 114.7 L 120.6 119.7" stroke="#666" stroke-width="2" opacity="1"></path><path fill="none" d="M 128.1 93.6 L 135.2 100.7" stroke="#666" stroke-width="2" opacity="1"></path><path fill="none" d="M 149.2 77.5 L 154.2 86.1" stroke="#666" stroke-width="2" opacity="1"></path><path fill="none" d="M 173.7 67.3 L 176.2 77.0" stroke="#666" stroke-width="2" opacity="1"></path><path fill="none" d="M 200 63.9 L 200 73.9" stroke="#666" stroke-width="2" opacity="1"></path><path fill="none" d="M 226.2 67.3 L 223.7 77.0" stroke="#666" stroke-width="2" opacity="1"></path><path fill="none" d="M 250.7 77.5 L 245.7 86.1" stroke="#666" stroke-width="2" opacity="1"></path><path fill="none" d="M 271.8 93.6 L 264.7 100.7" stroke="#666" stroke-width="2" opacity="1"></path><path fill="none" d="M 287.9 114.7 L 279.3 119.7" stroke="#666" stroke-width="2" opacity="1"></path><path fill="none" d="M 298.1 139.2 L 288.4 141.7" stroke="#666" stroke-width="2" opacity="1"></path><path fill="none" d="M 301.5 165.4 L 291.5 165.4" stroke="#666" stroke-width="2" opacity="1"></path><path fill="none" d="M 298.1 191.7 L 288.4 189.2" stroke="#666" stroke-width="2" opacity="1"></path><path fill="none" d="M 287.9 216.2 L 279.3 211.2" stroke="#666" stroke-width="2" opacity="1"></path><path fill="none" d="M 271.8 237.3 L 264.7 230.2" stroke="#666" stroke-width="2" opacity="1"></path><path fill="none" d="M 250.7 253.4 L 245.7 244.8" stroke="#666" stroke-width="2" opacity="1"></path><text x="200"  text-anchor="middle" transform="translate(0,0)" class=" highcharts-yaxis-title" style="color:#707070;fill:#707070;" visibility="visible" y="114.7">km/h</text><path fill="none" d="M 149.2 253.4 A 101.5 101.5 0 1 1 250.8 253.4 M 200 165.5 A 0 0 0 1 0 200 165.5 " stroke="#C0D0E0" stroke-width="1"  visibility="visible"></path></g><g class="highcharts-data-labels highcharts-tracker" visibility="visible"  transform="translate(10,46) scale(1 1)" style=""><g  style="" transform="translate(178,135)"><rect x="0.5" y="0.5" width="24" height="23" strokeWidth="1" fill="none" stroke="silver" stroke-width="1" rx="3" ry="3"></rect><text x="5"  style="font-size: 11px; font-weight: bold; color: rgb(0, 0, 0); fill: #000000; text-shadow: rgb(255, 255, 255) 0px 0px 6px, rgb(255, 255, 255) 0px 0px 3px; text-rendering: geometricprecision; " y="16"><tspan>80</tspan></text></g></g><g class="highcharts-series-group" ><g class="highcharts-series highcharts-tracker" visibility="visible"  transform="translate(10,46) scale(1 1)" style="" clip-path="url(#highcharts-1)"><path fill="black" d="M -8.1 -1.5 L 56.8 -1.5 81.2 -0.5 81.2 0.5 56.8 1.5 -8.1 1.5 z" transform="translate(190,119.5) rotate(-120.0 0 0)"></path><circle cx="0" cy="0" r="5" fill="black" transform="translate(190,119.5)"></circle></g><g class="highcharts-markers" visibility="visible"  transform="translate(10,46) scale(1 1)"></g></g><text x="200" text-anchor="middle" class="highcharts-title"  style="color:#333333;font-size:18px;fill:#333333;width:336px;" y="24">Speedometer</text><g class="highcharts-legend" ><g ><g></g></g></g><g class="highcharts-axis-labels highcharts-yaxis-labels" ><text x="161.7" style="color:#606060;cursor:default;font-size:11px;fill:#606060;width:122px;text-overflow:clip;" text-anchor="middle" transform="translate(0,0) rotate(-150 161.7 231.8)" y="231.8" opacity="1">0</text><text x="0" style="color:#606060;cursor:default;font-size:11px;fill:#606060;width:122px;text-overflow:clip;" text-anchor="middle" transform="translate(0,0) rotate(-135 0 -9999)" y="-9999">10</text><text x="133.6" style="color:#606060;cursor:default;font-size:11px;fill:#606060;width:122px;text-overflow:clip;" text-anchor="middle" transform="translate(0,0) rotate(-120 133.6 203.7)" y="203.7" opacity="1">20</text><text x="0" style="color:#606060;cursor:default;font-size:11px;fill:#606060;width:122px;text-overflow:clip;" text-anchor="middle" transform="translate(0,0) rotate(-104.9 0 -9999)" y="-9999">30</text><text x="123.4" style="color:#606060;cursor:default;font-size:11px;fill:#606060;width:122px;text-overflow:clip;" text-anchor="middle" transform="translate(0,0) rotate(-90 123.4 165.5)" y="165.5" opacity="1">40</text><text x="0" style="color:#606060;cursor:default;font-size:11px;fill:#606060;width:122px;text-overflow:clip;" text-anchor="middle" transform="translate(0,0) rotate(-75 0 -9999)" y="-9999">50</text><text x="133.6" style="color:#606060;cursor:default;font-size:11px;fill:#606060;width:122px;text-overflow:clip;" text-anchor="middle" transform="translate(0,0) rotate(-59.9 133.6 127.2)" y="127.2" opacity="1">60</text><text x="0" style="color:#606060;cursor:default;font-size:11px;fill:#606060;width:122px;text-overflow:clip;" text-anchor="middle" transform="translate(0,0) rotate(-45 0 -9999)" y="-9999">70</text><text x="161.7" style="color:#606060;cursor:default;font-size:11px;fill:#606060;width:122px;text-overflow:clip;" text-anchor="middle" transform="translate(0,0) rotate(-30.0 161.7 99.1)" y="99.1" opacity="1">80</text><text x="0" style="color:#606060;cursor:default;font-size:11px;fill:#606060;width:122px;text-overflow:clip;" text-anchor="middle" transform="translate(0,0) rotate(-15.0 0 -9999)" y="-9999">90</text><text x="200" style="color:#606060;cursor:default;font-size:11px;fill:#606060;width:122px;text-overflow:clip;" text-anchor="middle" transform="translate(0,0)" y="88.9" opacity="1">100</text><text x="0" style="color:#606060;cursor:default;font-size:11px;fill:#606060;width:122px;text-overflow:clip;" text-anchor="middle" transform="translate(0,0) rotate(14.9 0 -9999)" y="-9999">110</text><text x="238.2" style="color:#606060;cursor:default;font-size:11px;fill:#606060;width:122px;text-overflow:clip;" text-anchor="middle" transform="translate(0,0) rotate(29.9 238.2 99.1)" y="99.1" opacity="1">120</text><text x="0" style="color:#606060;cursor:default;font-size:11px;fill:#606060;width:122px;text-overflow:clip;" text-anchor="middle" transform="translate(0,0) rotate(44.9 0 -9999)" y="-9999">130</text><text x="266.3" style="color:#606060;cursor:default;font-size:11px;fill:#606060;width:122px;text-overflow:clip;" text-anchor="middle" transform="translate(0,0) rotate(59.9 266.3 127.2)" y="127.2" opacity="1">140</text><text x="0" style="color:#606060;cursor:default;font-size:11px;fill:#606060;width:122px;text-overflow:clip;" text-anchor="middle" transform="translate(0,0) rotate(74.9 0 -9999)" y="-9999">150</text><text x="276.5" style="color:#606060;cursor:default;font-size:11px;fill:#606060;width:122px;text-overflow:clip;" text-anchor="middle" transform="translate(0,0) rotate(89.9 276.5 165.4)" y="165.4" opacity="1">160</text><text x="0" style="color:#606060;cursor:default;font-size:11px;fill:#606060;width:122px;text-overflow:clip;" text-anchor="middle" transform="translate(0,0) rotate(104.9 0 -9999)" y="-9999">170</text><text x="266.3" style="color:#606060;cursor:default;font-size:11px;fill:#606060;width:122px;text-overflow:clip;" text-anchor="middle" transform="translate(0,0) rotate(119.9 266.3 203.7)" y="203.7" opacity="1">180</text><text x="0" style="color:#606060;cursor:default;font-size:11px;fill:#606060;width:122px;text-overflow:clip;" text-anchor="middle" transform="translate(0,0) rotate(134.9 0 -9999)" y="-9999">190</text><text x="238.2" style="color:#606060;cursor:default;font-size:11px;fill:#606060;width:122px;text-overflow:clip;" text-anchor="middle" transform="translate(0,0) rotate(150 238.2 231.8)" y="231.8" opacity="1">200</text></g><g class="highcharts-tooltip"  style="cursor:default;padding:0;white-space:nowrap;" transform="translate(0,-9999)"><path fill="none" d="M 3.5 0.5 L 13.5 0.5 C 16.5 0.5 16.5 0.5 16.5 3.5 L 16.5 13.5 C 16.5 16.5 16.5 16.5 13.5 16.5 L 3.5 16.5 C 0.5 16.5 0.5 16.5 0.5 13.5 L 0.5 3.5 C 0.5 0.5 0.5 0.5 3.5 0.5"  stroke="black" stroke-opacity="0.0" stroke-width="5" transform="translate(1, 1)"></path><path fill="none" d="M 3.5 0.5 L 13.5 0.5 C 16.5 0.5 16.5 0.5 16.5 3.5 L 16.5 13.5 C 16.5 16.5 16.5 16.5 13.5 16.5 L 3.5 16.5 C 0.5 16.5 0.5 16.5 0.5 13.5 L 0.5 3.5 C 0.5 0.5 0.5 0.5 3.5 0.5"  stroke="black" stroke-opacity="0.0" stroke-width="3" transform="translate(1, 1)"></path><path fill="none" d="M 3.5 0.5 L 13.5 0.5 C 16.5 0.5 16.5 0.5 16.5 3.5 L 16.5 13.5 C 16.5 16.5 16.5 16.5 13.5 16.5 L 3.5 16.5 C 0.5 16.5 0.5 16.5 0.5 13.5 L 0.5 3.5 C 0.5 0.5 0.5 0.5 3.5 0.5"  stroke="black" stroke-opacity="0.1" stroke-width="1" transform="translate(1, 1)"></path><path fill="rgb(249, 249, 249)" fill-opacity=" .85" d="M 3.5 0.5 L 13.5 0.5 C 16.5 0.5 16.5 0.5 16.5 3.5 L 16.5 13.5 C 16.5 16.5 16.5 16.5 13.5 16.5 L 3.5 16.5 C 0.5 16.5 0.5 16.5 0.5 13.5 L 0.5 3.5 C 0.5 0.5 0.5 0.5 3.5 0.5"></path><text x="8"  style="font-size:12px;color:#333333;fill:#333333;" y="20"></text></g></svg>