<svg version="1.1" style="font-family: signika, serif; font-size: 12px; background-image: url(http://www.highcharts.com/samples/graphics/sand.png); background-position: initial initial; background-repeat: initial initial;" xmlns="http://www.w3.org/2000/svg" width="300" height="300" viewBox="0 0 300 300" xmlns:xlink="http://www.w3.org/1999/xlink"><style type="text/css"><![CDATA[@import url(http://fonts.googleapis.com/css?family=Signika:700);]]></style><desc>Created with Highcharts 4.1.7</desc><defs><clipPath id="highcharts-1"><rect x="0" y="0" width="280" height="244"></rect></clipPath><linearGradient x1="0" y1="0" x2="0" y2="1" id="highcharts-2"><stop offset="0" stop-color="#FFF" stop-opacity="1"></stop><stop offset="1" stop-color="#DDD" stop-opacity="1"></stop></linearGradient><radialGradient cx="0.5" cy="-0.4" r="1.9" id="highcharts-3"><stop offset="0.5" stop-color="rgb(255,255,255)" stop-opacity="0.2"></stop><stop offset="0.5" stop-color="rgb(200,200,200)" stop-opacity="0.2"></stop></radialGradient></defs><path fill="url(#highcharts-2)" d="M 150 54.1 A 108.8 108.8 0 1 1 149.8 54.1 M 150 163 A 0 0 0 1 0 150 163 " stroke="silver" stroke-width="1"></path><path fill="url(#highcharts-3)" d="M 150 54.1 A 108.8 108.8 0 1 1 149.8 54.1 M 150 163 A 0 0 0 1 0 150 163 " stroke="silver" stroke-width="1"></path><g class="highcharts-grid" ></g><g class="highcharts-axis" ><path fill="none" d="M 150 59.3 L 150 64.3" stroke="#666" stroke-width="1" opacity="1"></path><path fill="none" d="M 160.8 59.8 L 160.3 64.8" stroke="#666" stroke-width="1" opacity="1"></path><path fill="none" d="M 171.5 61.5 L 170.5 66.4" stroke="#666" stroke-width="1" opacity="1"></path><path fill="none" d="M 182.0 64.3 L 180.4 69.1" stroke="#666" stroke-width="1" opacity="1"></path><path fill="none" d="M 192.1 68.2 L 190.1 72.8" stroke="#666" stroke-width="1" opacity="1"></path><path fill="none" d="M 201.8 73.1 L 199.3 77.5" stroke="#666" stroke-width="1" opacity="1"></path><path fill="none" d="M 210.9 79.1 L 208.0 83.1" stroke="#666" stroke-width="1" opacity="1"></path><path fill="none" d="M 219.3 85.9 L 216.0 89.6" stroke="#666" stroke-width="1" opacity="1"></path><path fill="none" d="M 227.0 93.6 L 223.3 96.9" stroke="#666" stroke-width="1" opacity="1"></path><path fill="none" d="M 233.8 102.0 L 229.8 104.9" stroke="#666" stroke-width="1" opacity="1"></path><path fill="none" d="M 239.8 111.1 L 235.4 113.6" stroke="#666" stroke-width="1" opacity="1"></path><path fill="none" d="M 244.7 120.8 L 240.1 122.8" stroke="#666" stroke-width="1" opacity="1"></path><path fill="none" d="M 248.6 130.9 L 243.8 132.5" stroke="#666" stroke-width="1" opacity="1"></path><path fill="none" d="M 251.4 141.4 L 246.5 142.4" stroke="#666" stroke-width="1" opacity="1"></path><path fill="none" d="M 253.1 152.1 L 248.1 152.6" stroke="#666" stroke-width="1" opacity="1"></path><path fill="none" d="M 253.7 163.0 L 248.7 163.0" stroke="#666" stroke-width="1" opacity="1"></path><path fill="none" d="M 253.1 173.8 L 248.1 173.3" stroke="#666" stroke-width="1" opacity="1"></path><path fill="none" d="M 251.4 184.5 L 246.5 183.5" stroke="#666" stroke-width="1" opacity="1"></path><path fill="none" d="M 248.6 195.0 L 243.8 193.4" stroke="#666" stroke-width="1" opacity="1"></path><path fill="none" d="M 244.7 205.1 L 240.1 203.1" stroke="#666" stroke-width="1" opacity="1"></path><path fill="none" d="M 239.8 214.8 L 235.4 212.3" stroke="#666" stroke-width="1" opacity="1"></path><path fill="none" d="M 233.8 223.9 L 229.8 221.0" stroke="#666" stroke-width="1" opacity="1"></path><path fill="none" d="M 227.0 232.3 L 223.3 229.0" stroke="#666" stroke-width="1" opacity="1"></path><path fill="none" d="M 219.3 240.0 L 216.0 236.3" stroke="#666" stroke-width="1" opacity="1"></path><path fill="none" d="M 210.9 246.8 L 208.0 242.8" stroke="#666" stroke-width="1" opacity="1"></path><path fill="none" d="M 201.8 252.8 L 199.3 248.4" stroke="#666" stroke-width="1" opacity="1"></path><path fill="none" d="M 192.1 257.7 L 190.1 253.1" stroke="#666" stroke-width="1" opacity="1"></path><path fill="none" d="M 182.0 261.6 L 180.4 256.8" stroke="#666" stroke-width="1" opacity="1"></path><path fill="none" d="M 171.5 264.4 L 170.5 259.5" stroke="#666" stroke-width="1" opacity="1"></path><path fill="none" d="M 160.8 266.1 L 160.3 261.1" stroke="#666" stroke-width="1" opacity="1"></path><path fill="none" d="M 149.9 266.7 L 149.9 261.7" stroke="#666" stroke-width="1" opacity="1"></path><path fill="none" d="M 139.1 266.1 L 139.6 261.1" stroke="#666" stroke-width="1" opacity="1"></path><path fill="none" d="M 128.4 264.4 L 129.4 259.5" stroke="#666" stroke-width="1" opacity="1"></path><path fill="none" d="M 117.9 261.6 L 119.5 256.8" stroke="#666" stroke-width="1" opacity="1"></path><path fill="none" d="M 107.8 257.7 L 109.8 253.1" stroke="#666" stroke-width="1" opacity="1"></path><path fill="none" d="M 98.1 252.8 L 100.6 248.4" stroke="#666" stroke-width="1" opacity="1"></path><path fill="none" d="M 89.0 246.8 L 91.9 242.8" stroke="#666" stroke-width="1" opacity="1"></path><path fill="none" d="M 80.6 240.0 L 83.9 236.3" stroke="#666" stroke-width="1" opacity="1"></path><path fill="none" d="M 72.9 232.3 L 76.6 229.0" stroke="#666" stroke-width="1" opacity="1"></path><path fill="none" d="M 66.1 223.9 L 70.1 221.0" stroke="#666" stroke-width="1" opacity="1"></path><path fill="none" d="M 60.1 214.8 L 64.5 212.3" stroke="#666" stroke-width="1" opacity="1"></path><path fill="none" d="M 55.2 205.1 L 59.8 203.1" stroke="#666" stroke-width="1" opacity="1"></path><path fill="none" d="M 51.3 195.0 L 56.1 193.4" stroke="#666" stroke-width="1" opacity="1"></path><path fill="none" d="M 48.5 184.5 L 53.4 183.5" stroke="#666" stroke-width="1" opacity="1"></path><path fill="none" d="M 46.8 173.8 L 51.8 173.3" stroke="#666" stroke-width="1" opacity="1"></path><path fill="none" d="M 46.3 163 L 51.3 163" stroke="#666" stroke-width="1" opacity="1"></path><path fill="none" d="M 46.8 152.1 L 51.8 152.6" stroke="#666" stroke-width="1" opacity="1"></path><path fill="none" d="M 48.5 141.4 L 53.4 142.4" stroke="#666" stroke-width="1" opacity="1"></path><path fill="none" d="M 51.3 130.9 L 56.1 132.5" stroke="#666" stroke-width="1" opacity="1"></path><path fill="none" d="M 55.2 120.8 L 59.8 122.8" stroke="#666" stroke-width="1" opacity="1"></path><path fill="none" d="M 60.1 111.1 L 64.5 113.6" stroke="#666" stroke-width="1" opacity="1"></path><path fill="none" d="M 66.1 102.0 L 70.1 104.9" stroke="#666" stroke-width="1" opacity="1"></path><path fill="none" d="M 72.9 93.6 L 76.6 96.9" stroke="#666" stroke-width="1" opacity="1"></path><path fill="none" d="M 80.6 85.9 L 83.9 89.6" stroke="#666" stroke-width="1" opacity="1"></path><path fill="none" d="M 89.0 79.1 L 91.9 83.1" stroke="#666" stroke-width="1" opacity="1"></path><path fill="none" d="M 98.1 73.1 L 100.6 77.5" stroke="#666" stroke-width="1" opacity="1"></path><path fill="none" d="M 107.8 68.2 L 109.8 72.8" stroke="#666" stroke-width="1" opacity="1"></path><path fill="none" d="M 117.9 64.3 L 119.5 69.1" stroke="#666" stroke-width="1" opacity="1"></path><path fill="none" d="M 128.4 61.5 L 129.4 66.4" stroke="#666" stroke-width="1" opacity="1"></path><path fill="none" d="M 139.1 59.8 L 139.6 64.8" stroke="#666" stroke-width="1" opacity="1"></path><path fill="none" d="M 149.9 59.3 L 149.9 64.3" stroke="#666" stroke-width="1" opacity="1"></path><path fill="none" d="M 150 59.3 L 150 69.3" stroke="#666" stroke-width="2" opacity="1"></path><path fill="none" d="M 201.8 73.1 L 196.8 81.8" stroke="#666" stroke-width="2" opacity="1"></path><path fill="none" d="M 239.8 111.1 L 231.1 116.1" stroke="#666" stroke-width="2" opacity="1"></path><path fill="none" d="M 253.7 163 L 243.7 163" stroke="#666" stroke-width="2" opacity="1"></path><path fill="none" d="M 239.8 214.8 L 231.1 209.8" stroke="#666" stroke-width="2" opacity="1"></path><path fill="none" d="M 201.8 252.8 L 196.8 244.1" stroke="#666" stroke-width="2" opacity="1"></path><path fill="none" d="M 150 266.7 L 150 256.7" stroke="#666" stroke-width="2" opacity="1"></path><path fill="none" d="M 98.1 252.8 L 103.1 244.1" stroke="#666" stroke-width="2" opacity="1"></path><path fill="none" d="M 60.1 214.8 L 68.8 209.8" stroke="#666" stroke-width="2" opacity="1"></path><path fill="none" d="M 46.3 163 L 56.3 163" stroke="#666" stroke-width="2" opacity="1"></path><path fill="none" d="M 60.1 111.1 L 68.8 116.1" stroke="#666" stroke-width="2" opacity="1"></path><path fill="none" d="M 98.1 73.1 L 103.1 81.8" stroke="#666" stroke-width="2" opacity="1"></path><path fill="none" d="M 149.9 59.3 L 149.9 69.3" stroke="#666" stroke-width="2" opacity="1"></path><text x="150"  text-anchor="middle" transform="translate(0,0)" class=" highcharts-yaxis-title" style="color:#bbb;font-weight:normal;font-size:8px;line-height:10px;fill:#bbb;" visibility="visible" y="121.1"><tspan>Powered by</tspan><tspan x="150" dy="10">Highcharts</tspan></text></g><g class="highcharts-series-group" ><g class="highcharts-series highcharts-tracker" visibility="visible"  transform="translate(10,41) scale(1 1)" style="" clip-path="url(#highcharts-1)"><path fill="black" d="M 0 -2 L 59.1 -2 62.2 -0.5 62.2 0.5 59.1 2 0 2 z" transform="translate(140,122) rotate(267.4 0 0)"></path><path fill="black" d="M 0 -1.5 L 78.8 -1.5 82.9 -0.5 82.9 0.5 78.8 1.5 0 1.5 z" transform="translate(140,122) rotate(243.4 0 0)"></path><path fill="black" d="M -20.7 -0.5 L 72.5 -0.5 103.7 -0.5 103.7 0.5 72.5 0.5 -20.7 0.5 z" transform="translate(140,122) rotate(119.9 0 0)"></path><circle cx="0" cy="0" r="5" fill="black" transform="translate(140,122)"></circle></g><g class="highcharts-markers" visibility="visible"  transform="translate(10,41) scale(1 1)" clip-path="none"></g></g><text x="150" text-anchor="middle" class="highcharts-title"  style="color:black;font-size:16px;font-weight:bold;fill:black;width:236px;" y="22"><tspan>The Highcharts clock</tspan></text><g class="highcharts-legend" ><g ><g></g></g></g><g class="highcharts-axis-labels highcharts-yaxis-labels" ><text x="0" style="color:#6e6e70;cursor:default;font-size:11px;fill:#6e6e70;width:89px;text-overflow:clip;" text-anchor="middle" transform="translate(0,0)" y="-9999">0</text><text x="191.8" style="color:#6e6e70;cursor:default;font-size:11px;fill:#6e6e70;width:89px;text-overflow:clip;" text-anchor="middle" transform="translate(0,0)" y="96.0" opacity="1">1</text><text x="222.4" style="color:#6e6e70;cursor:default;font-size:11px;fill:#6e6e70;width:89px;text-overflow:clip;" text-anchor="middle" transform="translate(0,0)" y="126.6" opacity="1">2</text><text x="233.7" style="color:#6e6e70;cursor:default;font-size:11px;fill:#6e6e70;width:89px;text-overflow:clip;" text-anchor="middle" transform="translate(0,0)" y="168.5" opacity="1">3</text><text x="222.4" style="color:#6e6e70;cursor:default;font-size:11px;fill:#6e6e70;width:89px;text-overflow:clip;" text-anchor="middle" transform="translate(0,0)" y="210.3" opacity="1">4</text><text x="191.8" style="color:#6e6e70;cursor:default;font-size:11px;fill:#6e6e70;width:89px;text-overflow:clip;" text-anchor="middle" transform="translate(0,0)" y="240.9" opacity="1">5</text><text x="150" style="color:#6e6e70;cursor:default;font-size:11px;fill:#6e6e70;width:89px;text-overflow:clip;" text-anchor="middle" transform="translate(0,0)" y="252.2" opacity="1">6</text><text x="108.1" style="color:#6e6e70;cursor:default;font-size:11px;fill:#6e6e70;width:89px;text-overflow:clip;" text-anchor="middle" transform="translate(0,0)" y="240.9" opacity="1">7</text><text x="77.5" style="color:#6e6e70;cursor:default;font-size:11px;fill:#6e6e70;width:89px;text-overflow:clip;" text-anchor="middle" transform="translate(0,0)" y="210.3" opacity="1">8</text><text x="66.3" style="color:#6e6e70;cursor:default;font-size:11px;fill:#6e6e70;width:89px;text-overflow:clip;" text-anchor="middle" transform="translate(0,0)" y="168.5" opacity="1">9</text><text x="77.5" style="color:#6e6e70;cursor:default;font-size:11px;fill:#6e6e70;width:89px;text-overflow:clip;" text-anchor="middle" transform="translate(0,0)" y="126.6" opacity="1">10</text><text x="108.1" style="color:#6e6e70;cursor:default;font-size:11px;fill:#6e6e70;width:89px;text-overflow:clip;" text-anchor="middle" transform="translate(0,0)" y="96.0" opacity="1">11</text><text x="149.9" style="color:#6e6e70;cursor:default;font-size:11px;fill:#6e6e70;width:89px;text-overflow:clip;" text-anchor="middle" transform="translate(0,0)" y="84.7" opacity="1">12</text></g><g class="highcharts-tooltip"  style="cursor:default;padding:0;white-space:nowrap;" transform="translate(0,-9999)"><path fill="none" d="M 3 0 L 13 0 C 16 0 16 0 16 3 L 16 13 C 16 16 16 16 13 16 L 3 16 C 0 16 0 16 0 13 L 0 3 C 0 0 0 0 3 0"  stroke="black" stroke-opacity="0.0" stroke-width="5" transform="translate(1, 1)"></path><path fill="none" d="M 3 0 L 13 0 C 16 0 16 0 16 3 L 16 13 C 16 16 16 16 13 16 L 3 16 C 0 16 0 16 0 13 L 0 3 C 0 0 0 0 3 0"  stroke="black" stroke-opacity="0.0" stroke-width="3" transform="translate(1, 1)"></path><path fill="none" d="M 3 0 L 13 0 C 16 0 16 0 16 3 L 16 13 C 16 16 16 16 13 16 L 3 16 C 0 16 0 16 0 13 L 0 3 C 0 0 0 0 3 0"  stroke="black" stroke-opacity="0.1" stroke-width="1" transform="translate(1, 1)"></path><path fill="rgb(249, 249, 249)" fill-opacity=" .85" d="M 3 0 L 13 0 C 16 0 16 0 16 3 L 16 13 C 16 16 16 16 13 16 L 3 16 C 0 16 0 16 0 13 L 0 3 C 0 0 0 0 3 0"></path><text x="8"  style="font-size:12px;color:#333333;fill:#333333;" y="20"></text></g></svg>