<svg version="1.1" style="font-family:&quot;lucida grande&quot;, &quot;lucida sans unicode&quot;, arial, helvetica, sans-serif;font-size:12px;" xmlns="http://www.w3.org/2000/svg" width="600" height="200" viewBox="0 0 600 200"><desc>Created with Highcharts 4.1.7</desc><defs><linearGradient x1="0" y1="0" x2="0" y2="1" id="highcharts-1"><stop offset="0" stop-color="#FFF4C6" stop-opacity="1"></stop><stop offset="0.3" stop-color="#FFFFFF" stop-opacity="1"></stop><stop offset="1" stop-color="#FFF4C6" stop-opacity="1"></stop></linearGradient><clipPath id="highcharts-2"><rect x="0" y="0" width="580" height="139"></rect></clipPath></defs><rect x="0" y="0" width="600" height="200" strokeWidth="0" fill="#FFFFFF" class=" highcharts-background" stroke="transparent"></rect><rect x="10" y="46" width="580" height="139" fill="url(#highcharts-1)"></rect><path fill="#C02316" d="M 219.6 103.9 A 157.5 157.5 0 0 1 266.2 136.0 L 260.9 141.3 A 150 150 0 0 0 216.5 110.7 Z"></path><path fill="#C02316" d="M 509.6 103.9 A 157.5 157.5 0 0 1 556.2 136.0 L 550.9 141.3 A 150 150 0 0 0 506.5 110.7 Z"></path><g class="highcharts-grid" ></g><g class="highcharts-grid" ></g><rect x="9.5" y="45.5" width="581" height="140" strokeWidth="-1" stroke="#C0C0C0" stroke-width="1" fill="none" ></rect><g class="highcharts-axis" ><path fill="none" d="M 48.9 141.4 L 41.8 134.4" stroke="#A0A0A0" stroke-width="1" opacity="1"></path><path fill="none" d="M 62.4 129.4 L 56.3 121.6" stroke="#A0A0A0" stroke-width="1" opacity="1"></path><path fill="none" d="M 77.3 119.1 L 72.2 110.6" stroke="#A0A0A0" stroke-width="1" opacity="1"></path><path fill="none" d="M 93.4 110.7 L 89.3 101.6" stroke="#A0A0A0" stroke-width="1" opacity="1"></path><path fill="none" d="M 110.3 104.3 L 107.3 94.7" stroke="#A0A0A0" stroke-width="1" opacity="1"></path><path fill="none" d="M 127.9 100.0 L 126.1 90.1" stroke="#A0A0A0" stroke-width="1" opacity="1"></path><path fill="none" d="M 145.9 97.8 L 145.3 87.8" stroke="#A0A0A0" stroke-width="1" opacity="1"></path><path fill="none" d="M 164.0 97.8 L 164.6 87.8" stroke="#A0A0A0" stroke-width="1" opacity="1"></path><path fill="none" d="M 182.0 100.0 L 183.8 90.1" stroke="#A0A0A0" stroke-width="1" opacity="1"></path><path fill="none" d="M 199.6 104.3 L 202.6 94.7" stroke="#A0A0A0" stroke-width="1" opacity="1"></path><path fill="none" d="M 216.5 110.7 L 220.6 101.6" stroke="#A0A0A0" stroke-width="1" opacity="1"></path><path fill="none" d="M 232.6 119.1 L 237.7 110.6" stroke="#A0A0A0" stroke-width="1" opacity="1"></path><path fill="none" d="M 247.5 129.4 L 253.6 121.6" stroke="#A0A0A0" stroke-width="1" opacity="1"></path><path fill="none" d="M 261.0 141.4 L 268.1 134.4" stroke="#A0A0A0" stroke-width="1" opacity="1"></path><path fill="none" d="M 48.9 141.4 L 41.8 134.4" stroke="#C0D0E0" stroke-width="2" opacity="1"></path><path fill="none" d="M 127.9 100.0 L 126.1 90.1" stroke="#C0D0E0" stroke-width="2" opacity="1"></path><path fill="none" d="M 216.5 110.7 L 220.6 101.6" stroke="#C0D0E0" stroke-width="2" opacity="1"></path><text x="155"  text-anchor="middle" transform="translate(0,0)" class=" highcharts-yaxis-title" style="color:#707070;fill:#707070;" visibility="visible" y="132.5"><tspan>VU</tspan><tspan style="font-size:8px" x="155" dy="15">Channel A</tspan></text><path fill="none" d="M 48.9 141.4 A 150 150 0 0 1 260.9 141.3 M 155 247.5 A 0 0 0 0 0 155 247.5 " stroke="#C0D0E0" stroke-width="1"  visibility="visible"></path></g><g class="highcharts-axis" ><path fill="none" d="M 338.9 141.4 L 331.8 134.4" stroke="#A0A0A0" stroke-width="1" opacity="1"></path><path fill="none" d="M 352.4 129.4 L 346.3 121.6" stroke="#A0A0A0" stroke-width="1" opacity="1"></path><path fill="none" d="M 367.3 119.1 L 362.2 110.6" stroke="#A0A0A0" stroke-width="1" opacity="1"></path><path fill="none" d="M 383.4 110.7 L 379.3 101.6" stroke="#A0A0A0" stroke-width="1" opacity="1"></path><path fill="none" d="M 400.3 104.3 L 397.3 94.7" stroke="#A0A0A0" stroke-width="1" opacity="1"></path><path fill="none" d="M 417.9 100.0 L 416.1 90.1" stroke="#A0A0A0" stroke-width="1" opacity="1"></path><path fill="none" d="M 435.9 97.8 L 435.3 87.8" stroke="#A0A0A0" stroke-width="1" opacity="1"></path><path fill="none" d="M 454.0 97.8 L 454.6 87.8" stroke="#A0A0A0" stroke-width="1" opacity="1"></path><path fill="none" d="M 472.0 100.0 L 473.8 90.1" stroke="#A0A0A0" stroke-width="1" opacity="1"></path><path fill="none" d="M 489.6 104.3 L 492.6 94.7" stroke="#A0A0A0" stroke-width="1" opacity="1"></path><path fill="none" d="M 506.5 110.7 L 510.6 101.6" stroke="#A0A0A0" stroke-width="1" opacity="1"></path><path fill="none" d="M 522.6 119.1 L 527.7 110.6" stroke="#A0A0A0" stroke-width="1" opacity="1"></path><path fill="none" d="M 537.5 129.4 L 543.6 121.6" stroke="#A0A0A0" stroke-width="1" opacity="1"></path><path fill="none" d="M 551.0 141.4 L 558.1 134.4" stroke="#A0A0A0" stroke-width="1" opacity="1"></path><path fill="none" d="M 338.9 141.4 L 331.8 134.4" stroke="#C0D0E0" stroke-width="2" opacity="1"></path><path fill="none" d="M 417.9 100.0 L 416.1 90.1" stroke="#C0D0E0" stroke-width="2" opacity="1"></path><path fill="none" d="M 506.5 110.7 L 510.6 101.6" stroke="#C0D0E0" stroke-width="2" opacity="1"></path><text x="445"  text-anchor="middle" transform="translate(0,0)" class=" highcharts-yaxis-title" style="color:#707070;fill:#707070;" visibility="visible" y="132.5"><tspan>VU</tspan><tspan style="font-size:8px" x="445" dy="15">Channel B</tspan></text><path fill="none" d="M 338.9 141.4 A 150 150 0 0 1 550.9 141.3 M 445 247.5 A 0 0 0 0 0 445 247.5 " stroke="#C0D0E0" stroke-width="1"  visibility="visible"></path></g><g class="highcharts-series-group" ><g class="highcharts-series highcharts-tracker" visibility="visible"  transform="translate(10,46) scale(1 1)" style="" clip-path="url(#highcharts-2)"><path fill="black" d="M -15 -1.5 L 105 -1.5 150 -0.5 150 0.5 105 1.5 -15 1.5 z" transform="translate(145,201.5) rotate(-135 0 0)"></path><circle cx="0" cy="0" r="5" fill="black" transform="translate(145,201.5)"></circle></g><g class="highcharts-markers" visibility="visible"  transform="translate(10,46) scale(1 1)"></g><g class="highcharts-series highcharts-tracker" visibility="visible"  transform="translate(10,46) scale(1 1)" style="" clip-path="url(#highcharts-2)"><path fill="black" d="M -15 -1.5 L 105 -1.5 150 -0.5 150 0.5 105 1.5 -15 1.5 z" transform="translate(435,201.5) rotate(-135 0 0)"></path><circle cx="0" cy="0" r="5" fill="black" transform="translate(435,201.5)"></circle></g><g class="highcharts-markers" visibility="visible"  transform="translate(10,46) scale(1 1)"></g></g><text x="300" text-anchor="middle" class="highcharts-title"  style="color:#333333;font-size:18px;fill:#333333;width:536px;" y="24"><tspan>VU meter</tspan></text><g class="highcharts-legend" ><g ><g></g></g></g><g class="highcharts-axis-labels highcharts-yaxis-labels" ><text x="34.7" style="color:#606060;cursor:default;font-size:11px;fill:#606060;width:188px;text-overflow:clip;" text-anchor="middle" transform="translate(0,0) rotate(-45 34.7 127.3)" y="127.3" opacity="1">-20</text><text x="124.3" style="color:#606060;cursor:default;font-size:11px;fill:#606060;width:188px;text-overflow:clip;" text-anchor="middle" transform="translate(0,0) rotate(-10.3 124.3 80.3)" y="80.3" opacity="1">-10</text><text x="224.7" style="color:#606060;cursor:default;font-size:11px;fill:#606060;width:188px;text-overflow:clip;" text-anchor="middle" transform="translate(0,0) rotate(24.2 224.7 92.5)" y="92.5" opacity="1">0</text></g><g class="highcharts-axis-labels highcharts-yaxis-labels" ><text x="324.7" style="color:#606060;cursor:default;font-size:11px;fill:#606060;width:188px;text-overflow:clip;" text-anchor="middle" transform="translate(0,0) rotate(-45 324.7 127.3)" y="127.3" opacity="1">-20</text><text x="414.3" style="color:#606060;cursor:default;font-size:11px;fill:#606060;width:188px;text-overflow:clip;" text-anchor="middle" transform="translate(0,0) rotate(-10.3 414.3 80.3)" y="80.3" opacity="1">-10</text><text x="514.7" style="color:#606060;cursor:default;font-size:11px;fill:#606060;width:188px;text-overflow:clip;" text-anchor="middle" transform="translate(0,0) rotate(24.2 514.7 92.5)" y="92.5" opacity="1">0</text></g><g class="highcharts-tooltip"  style="cursor:default;padding:0;white-space:nowrap;" transform="translate(0,-9999)"><path fill="none" d="M 3.5 0.5 L 13.5 0.5 C 16.5 0.5 16.5 0.5 16.5 3.5 L 16.5 13.5 C 16.5 16.5 16.5 16.5 13.5 16.5 L 3.5 16.5 C 0.5 16.5 0.5 16.5 0.5 13.5 L 0.5 3.5 C 0.5 0.5 0.5 0.5 3.5 0.5"  stroke="black" stroke-opacity="0.0" stroke-width="5" transform="translate(1, 1)"></path><path fill="none" d="M 3.5 0.5 L 13.5 0.5 C 16.5 0.5 16.5 0.5 16.5 3.5 L 16.5 13.5 C 16.5 16.5 16.5 16.5 13.5 16.5 L 3.5 16.5 C 0.5 16.5 0.5 16.5 0.5 13.5 L 0.5 3.5 C 0.5 0.5 0.5 0.5 3.5 0.5"  stroke="black" stroke-opacity="0.0" stroke-width="3" transform="translate(1, 1)"></path><path fill="none" d="M 3.5 0.5 L 13.5 0.5 C 16.5 0.5 16.5 0.5 16.5 3.5 L 16.5 13.5 C 16.5 16.5 16.5 16.5 13.5 16.5 L 3.5 16.5 C 0.5 16.5 0.5 16.5 0.5 13.5 L 0.5 3.5 C 0.5 0.5 0.5 0.5 3.5 0.5"  stroke="black" stroke-opacity="0.1" stroke-width="1" transform="translate(1, 1)"></path><path fill="rgb(249, 249, 249)" fill-opacity=" .85" d="M 3.5 0.5 L 13.5 0.5 C 16.5 0.5 16.5 0.5 16.5 3.5 L 16.5 13.5 C 16.5 16.5 16.5 16.5 13.5 16.5 L 3.5 16.5 C 0.5 16.5 0.5 16.5 0.5 13.5 L 0.5 3.5 C 0.5 0.5 0.5 0.5 3.5 0.5"></path><text x="8"  style="font-size:12px;color:#333333;fill:#333333;" y="20"></text></g></svg>