<svg version="1.1" style="font-family:&quot;lucida grande&quot;, &quot;lucida sans unicode&quot;, arial, helvetica, sans-serif;font-size:12px;" xmlns="http://www.w3.org/2000/svg" width="584" height="400" viewBox="0 0 584 400"><desc>Created with Highcharts 4.1.6</desc><defs><linearGradient x1="0" y1="0" x2="0" y2="1" id="highcharts-1"><stop offset="0" stop-color="#FFFFFF" stop-opacity="1"></stop><stop offset="1" stop-color="#7cb5ec" stop-opacity="1"></stop></linearGradient><clipPath id="highcharts-2"><rect x="0" y="0" width="423" height="280"></rect></clipPath></defs><rect x="0" y="0" width="584" height="400" strokeWidth="0" fill="#FFFFFF" class=" highcharts-background" stroke="transparent"></rect><g class="highcharts-grid" ></g><g class="highcharts-grid" ><path fill="none" d="M 85 264.5 L 508 264.5" stroke="#D8D8D8" stroke-width="1"  opacity="1"></path><path fill="none" d="M 85 208.5 L 508 208.5" stroke="#D8D8D8" stroke-width="1"  opacity="1"></path><path fill="none" d="M 85 152.5 L 508 152.5" stroke="#D8D8D8" stroke-width="1"  opacity="1"></path><path fill="none" d="M 85 96.5 L 508 96.5" stroke="#D8D8D8" stroke-width="1"  opacity="1"></path><path fill="none" d="M 85 39.5 L 508 39.5" stroke="#D8D8D8" stroke-width="1"  opacity="1"></path><path fill="none" d="M 85 320.5 L 508 320.5" stroke="#D8D8D8" stroke-width="1"  opacity="1"></path></g><g class="highcharts-axis" ><path fill="none" d="M 126.5 320 L 126.5 330" stroke="#C0D0E0" stroke-width="1" opacity="1"></path><path fill="none" d="M 169.5 320 L 169.5 330" stroke="#C0D0E0" stroke-width="1" opacity="1"></path><path fill="none" d="M 211.5 320 L 211.5 330" stroke="#C0D0E0" stroke-width="1" opacity="1"></path><path fill="none" d="M 253.5 320 L 253.5 330" stroke="#C0D0E0" stroke-width="1" opacity="1"></path><path fill="none" d="M 296.5 320 L 296.5 330" stroke="#C0D0E0" stroke-width="1" opacity="1"></path><path fill="none" d="M 338.5 320 L 338.5 330" stroke="#C0D0E0" stroke-width="1" opacity="1"></path><path fill="none" d="M 380.5 320 L 380.5 330" stroke="#C0D0E0" stroke-width="1" opacity="1"></path><path fill="none" d="M 422.5 320 L 422.5 330" stroke="#C0D0E0" stroke-width="1" opacity="1"></path><path fill="none" d="M 465.5 320 L 465.5 330" stroke="#C0D0E0" stroke-width="1" opacity="1"></path><path fill="none" d="M 507.5 320 L 507.5 330" stroke="#C0D0E0" stroke-width="1" opacity="1"></path><path fill="none" d="M 84.5 320 L 84.5 330" stroke="#C0D0E0" stroke-width="1" opacity="1"></path><path fill="none" d="M 85 320.5 L 508 320.5" stroke="#C0D0E0" stroke-width="1"  visibility="visible"></path></g><g class="highcharts-axis" ></g><g class="highcharts-series-group" ><g class="highcharts-series highcharts-tracker" visibility="visible"  transform="translate(85,40) scale(1 1)" style="" clip-path="url(#highcharts-2)"><rect x="0" y="224" width="42" height="56" stroke="#7cb5ec" stroke-width="1" fill="rgb(246,250,254)"></rect><rect x="0" y="168" width="42" height="56" stroke="#7cb5ec" stroke-width="1" fill="rgb(238,246,253)"></rect><rect x="0" y="112" width="42" height="56" stroke="#7cb5ec" stroke-width="1" fill="rgb(248,251,254)"></rect><rect x="0" y="56" width="42" height="56" stroke="#7cb5ec" stroke-width="1" fill="rgb(234,243,252)"></rect><rect x="0" y="0" width="42" height="56" stroke="#7cb5ec" stroke-width="1" fill="rgb(196,222,247)"></rect><rect x="42" y="224" width="43" height="56" stroke="#7cb5ec" stroke-width="1" fill="rgb(175,210,243)"></rect><rect x="42" y="168" width="43" height="56" stroke="#7cb5ec" stroke-width="1" fill="rgb(204,226,248)"></rect><rect x="42" y="112" width="43" height="56" stroke="#7cb5ec" stroke-width="1" fill="rgb(187,217,245)"></rect><rect x="42" y="56" width="43" height="56" stroke="#7cb5ec" stroke-width="1" fill="rgb(153,197,240)"></rect><rect x="42" y="0" width="43" height="56" stroke="#7cb5ec" stroke-width="1" fill="rgb(213,231,249)"></rect><rect x="85" y="224" width="42" height="56" stroke="#7cb5ec" stroke-width="1" fill="rgb(224,238,251)"></rect><rect x="85" y="168" width="42" height="56" stroke="#7cb5ec" stroke-width="1" fill="rgb(242,248,253)"></rect><rect x="85" y="112" width="42" height="56" stroke="#7cb5ec" stroke-width="1" fill="rgb(148,194,239)"></rect><rect x="85" y="56" width="42" height="56" stroke="#7cb5ec" stroke-width="1" fill="rgb(199,223,247)"></rect><rect x="85" y="0" width="42" height="56" stroke="#7cb5ec" stroke-width="1" fill="rgb(210,229,248)"></rect><rect x="127" y="224" width="42" height="56" stroke="#7cb5ec" stroke-width="1" fill="rgb(192,219,246)"></rect><rect x="127" y="168" width="42" height="56" stroke="#7cb5ec" stroke-width="1" fill="rgb(140,190,238)"></rect><rect x="127" y="112" width="42" height="56" stroke="#7cb5ec" stroke-width="1" fill="rgb(155,199,241)"></rect><rect x="127" y="56" width="42" height="56" stroke="#7cb5ec" stroke-width="1" fill="rgb(238,246,253)"></rect><rect x="127" y="0" width="42" height="56" stroke="#7cb5ec" stroke-width="1" fill="rgb(241,247,253)"></rect><rect x="169" y="224" width="43" height="56" stroke="#7cb5ec" stroke-width="1" fill="rgb(222,236,250)"></rect><rect x="169" y="168" width="43" height="56" stroke="#7cb5ec" stroke-width="1" fill="rgb(251,253,254)"></rect><rect x="169" y="112" width="43" height="56" stroke="#7cb5ec" stroke-width="1" fill="rgb(248,251,254)"></rect><rect x="169" y="56" width="43" height="56" stroke="#7cb5ec" stroke-width="1" fill="rgb(153,197,240)"></rect><rect x="169" y="0" width="43" height="56" stroke="#7cb5ec" stroke-width="1" fill="rgb(155,198,240)"></rect><rect x="212" y="224" width="42" height="56" stroke="#7cb5ec" stroke-width="1" fill="rgb(178,212,244)"></rect><rect x="212" y="168" width="42" height="56" stroke="#7cb5ec" stroke-width="1" fill="rgb(227,239,251)"></rect><rect x="212" y="112" width="42" height="56" stroke="#7cb5ec" stroke-width="1" fill="rgb(245,249,253)"></rect><rect x="212" y="56" width="42" height="56" stroke="#7cb5ec" stroke-width="1" fill="rgb(250,252,254)"></rect><rect x="212" y="0" width="42" height="56" stroke="#7cb5ec" stroke-width="1" fill="rgb(150,196,240)"></rect><rect x="254" y="224" width="42" height="56" stroke="#7cb5ec" stroke-width="1" fill="rgb(244,249,253)"></rect><rect x="254" y="168" width="42" height="56" stroke="#7cb5ec" stroke-width="1" fill="rgb(217,233,249)"></rect><rect x="254" y="112" width="42" height="56" stroke="#7cb5ec" stroke-width="1" fill="rgb(178,212,244)"></rect><rect x="254" y="56" width="42" height="56" stroke="#7cb5ec" stroke-width="1" fill="rgb(169,207,243)"></rect><rect x="254" y="0" width="42" height="56" stroke="#7cb5ec" stroke-width="1" fill="rgb(171,208,243)"></rect><rect x="296" y="224" width="42" height="56" stroke="#7cb5ec" stroke-width="1" fill="rgb(228,240,251)"></rect><rect x="296" y="168" width="42" height="56" stroke="#7cb5ec" stroke-width="1" fill="rgb(254,255,255)"></rect><rect x="296" y="112" width="42" height="56" stroke="#7cb5ec" stroke-width="1" fill="rgb(183,215,245)"></rect><rect x="296" y="56" width="42" height="56" stroke="#7cb5ec" stroke-width="1" fill="rgb(227,239,251)"></rect><rect x="296" y="0" width="42" height="56" stroke="#7cb5ec" stroke-width="1" fill="rgb(229,240,251)"></rect><rect x="338" y="224" width="43" height="56" stroke="#7cb5ec" stroke-width="1" fill="rgb(181,213,244)"></rect><rect x="338" y="168" width="43" height="56" stroke="#7cb5ec" stroke-width="1" fill="rgb(170,207,243)"></rect><rect x="338" y="112" width="43" height="56" stroke="#7cb5ec" stroke-width="1" fill="rgb(148,194,239)"></rect><rect x="338" y="56" width="43" height="56" stroke="#7cb5ec" stroke-width="1" fill="rgb(199,223,247)"></rect><rect x="338" y="0" width="43" height="56" stroke="#7cb5ec" stroke-width="1" fill="rgb(182,214,244)"></rect><rect x="381" y="224" width="42" height="56" stroke="#7cb5ec" stroke-width="1" fill="rgb(214,232,249)"></rect><rect x="381" y="168" width="42" height="56" stroke="#7cb5ec" stroke-width="1" fill="rgb(155,199,241)"></rect><rect x="381" y="112" width="42" height="56" stroke="#7cb5ec" stroke-width="1" fill="rgb(228,240,251)"></rect><rect x="381" y="56" width="42" height="56" stroke="#7cb5ec" stroke-width="1" fill="rgb(213,231,249)"></rect><rect x="381" y="0" width="42" height="56" stroke="#7cb5ec" stroke-width="1" fill="rgb(176,210,243)"></rect></g><g class="highcharts-markers highcharts-tracker" visibility="visible"  transform="translate(85,40) scale(1 1)" style="" clip-path="none"></g></g><text x="292" text-anchor="middle" class="highcharts-title"  style="color:#333333;font-size:18px;fill:#333333;width:520px;" y="24"><tspan>Sales per employee per weekday</tspan></text><g class="highcharts-data-labels highcharts-tracker" visibility="visible"  transform="translate(85,40) scale(1 1)" style=""><g  style="" transform="translate(14,246)"><text x="0"  style="font-size: 11px; font-weight: bold; color: rgb(0, 0, 0); fill: #000000; text-shadow: rgb(255, 255, 255) 0px 0px 6px, rgb(255, 255, 255) 0px 0px 3px; text-rendering: geometricprecision; " y="11"><tspan>10</tspan></text></g><g  style="" transform="translate(14,190)"><text x="0"  style="font-size: 11px; font-weight: bold; color: rgb(0, 0, 0); fill: #000000; text-shadow: rgb(255, 255, 255) 0px 0px 6px, rgb(255, 255, 255) 0px 0px 3px; text-rendering: geometricprecision; " y="11"><tspan>19</tspan></text></g><g  style="" transform="translate(18,134)"><text x="0"  style="font-size: 11px; font-weight: bold; color: rgb(0, 0, 0); fill: #000000; text-shadow: rgb(255, 255, 255) 0px 0px 6px, rgb(255, 255, 255) 0px 0px 3px; text-rendering: geometricprecision; " y="11"><tspan>8</tspan></text></g><g  style="" transform="translate(14,78)"><text x="0"  style="font-size: 11px; font-weight: bold; color: rgb(0, 0, 0); fill: #000000; text-shadow: rgb(255, 255, 255) 0px 0px 6px, rgb(255, 255, 255) 0px 0px 3px; text-rendering: geometricprecision; " y="11"><tspan>24</tspan></text></g><g  style="" transform="translate(14,22)"><text x="0"  style="font-size: 11px; font-weight: bold; color: rgb(0, 0, 0); fill: #000000; text-shadow: rgb(255, 255, 255) 0px 0px 6px, rgb(255, 255, 255) 0px 0px 3px; text-rendering: geometricprecision; " y="11"><tspan>67</tspan></text></g><g  style="" transform="translate(57,246)"><text x="0"  style="font-size: 11px; font-weight: bold; color: rgb(0, 0, 0); fill: #000000; text-shadow: rgb(255, 255, 255) 0px 0px 6px, rgb(255, 255, 255) 0px 0px 3px; text-rendering: geometricprecision; " y="11"><tspan>92</tspan></text></g><g  style="" transform="translate(57,190)"><text x="0"  style="font-size: 11px; font-weight: bold; color: rgb(0, 0, 0); fill: #000000; text-shadow: rgb(255, 255, 255) 0px 0px 6px, rgb(255, 255, 255) 0px 0px 3px; text-rendering: geometricprecision; " y="11"><tspan>58</tspan></text></g><g  style="" transform="translate(57,134)"><text x="0"  style="font-size: 11px; font-weight: bold; color: rgb(0, 0, 0); fill: #000000; text-shadow: rgb(255, 255, 255) 0px 0px 6px, rgb(255, 255, 255) 0px 0px 3px; text-rendering: geometricprecision; " y="11"><tspan>78</tspan></text></g><g  style="" transform="translate(53,78)"><text x="0"  style="font-size: 11px; font-weight: bold; color: rgb(0, 0, 0); fill: #000000; text-shadow: rgb(255, 255, 255) 0px 0px 6px, rgb(255, 255, 255) 0px 0px 3px; text-rendering: geometricprecision; " y="11"><tspan>117</tspan></text></g><g  style="" transform="translate(57,22)"><text x="0"  style="font-size: 11px; font-weight: bold; color: rgb(0, 0, 0); fill: #000000; text-shadow: rgb(255, 255, 255) 0px 0px 6px, rgb(255, 255, 255) 0px 0px 3px; text-rendering: geometricprecision; " y="11"><tspan>48</tspan></text></g><g  style="" transform="translate(99,246)"><text x="0"  style="font-size: 11px; font-weight: bold; color: rgb(0, 0, 0); fill: #000000; text-shadow: rgb(255, 255, 255) 0px 0px 6px, rgb(255, 255, 255) 0px 0px 3px; text-rendering: geometricprecision; " y="11"><tspan>35</tspan></text></g><g  style="" transform="translate(99,190)"><text x="0"  style="font-size: 11px; font-weight: bold; color: rgb(0, 0, 0); fill: #000000; text-shadow: rgb(255, 255, 255) 0px 0px 6px, rgb(255, 255, 255) 0px 0px 3px; text-rendering: geometricprecision; " y="11"><tspan>15</tspan></text></g><g  style="" transform="translate(96,134)"><text x="0"  style="font-size: 11px; font-weight: bold; color: rgb(0, 0, 0); fill: #000000; text-shadow: rgb(255, 255, 255) 0px 0px 6px, rgb(255, 255, 255) 0px 0px 3px; text-rendering: geometricprecision; " y="11"><tspan>123</tspan></text></g><g  style="" transform="translate(99,78)"><text x="0"  style="font-size: 11px; font-weight: bold; color: rgb(0, 0, 0); fill: #000000; text-shadow: rgb(255, 255, 255) 0px 0px 6px, rgb(255, 255, 255) 0px 0px 3px; text-rendering: geometricprecision; " y="11"><tspan>64</tspan></text></g><g  style="" transform="translate(99,22)"><text x="0"  style="font-size: 11px; font-weight: bold; color: rgb(0, 0, 0); fill: #000000; text-shadow: rgb(255, 255, 255) 0px 0px 6px, rgb(255, 255, 255) 0px 0px 3px; text-rendering: geometricprecision; " y="11"><tspan>52</tspan></text></g><g  style="" transform="translate(141,246)"><text x="0"  style="font-size: 11px; font-weight: bold; color: rgb(0, 0, 0); fill: #000000; text-shadow: rgb(255, 255, 255) 0px 0px 6px, rgb(255, 255, 255) 0px 0px 3px; text-rendering: geometricprecision; " y="11"><tspan>72</tspan></text></g><g  style="" transform="translate(138,190)"><text x="0"  style="font-size: 11px; font-weight: bold; color: rgb(0, 0, 0); fill: #000000; text-shadow: rgb(255, 255, 255) 0px 0px 6px, rgb(255, 255, 255) 0px 0px 3px; text-rendering: geometricprecision; " y="11"><tspan>132</tspan></text></g><g  style="" transform="translate(138,134)"><text x="0"  style="font-size: 11px; font-weight: bold; color: rgb(0, 0, 0); fill: #000000; text-shadow: rgb(255, 255, 255) 0px 0px 6px, rgb(255, 255, 255) 0px 0px 3px; text-rendering: geometricprecision; " y="11"><tspan>114</tspan></text></g><g  style="" transform="translate(141,78)"><text x="0"  style="font-size: 11px; font-weight: bold; color: rgb(0, 0, 0); fill: #000000; text-shadow: rgb(255, 255, 255) 0px 0px 6px, rgb(255, 255, 255) 0px 0px 3px; text-rendering: geometricprecision; " y="11"><tspan>19</tspan></text></g><g  style="" transform="translate(141,22)"><text x="0"  style="font-size: 11px; font-weight: bold; color: rgb(0, 0, 0); fill: #000000; text-shadow: rgb(255, 255, 255) 0px 0px 6px, rgb(255, 255, 255) 0px 0px 3px; text-rendering: geometricprecision; " y="11"><tspan>16</tspan></text></g><g  style="" transform="translate(184,246)"><text x="0"  style="font-size: 11px; font-weight: bold; color: rgb(0, 0, 0); fill: #000000; text-shadow: rgb(255, 255, 255) 0px 0px 6px, rgb(255, 255, 255) 0px 0px 3px; text-rendering: geometricprecision; " y="11"><tspan>38</tspan></text></g><g  style="" transform="translate(187,190)"><text x="0"  style="font-size: 11px; font-weight: bold; color: rgb(0, 0, 0); fill: #000000; text-shadow: rgb(255, 255, 255) 0px 0px 6px, rgb(255, 255, 255) 0px 0px 3px; text-rendering: geometricprecision; " y="11"><tspan>5</tspan></text></g><g  style="" transform="translate(187,134)"><text x="0"  style="font-size: 11px; font-weight: bold; color: rgb(0, 0, 0); fill: #000000; text-shadow: rgb(255, 255, 255) 0px 0px 6px, rgb(255, 255, 255) 0px 0px 3px; text-rendering: geometricprecision; " y="11"><tspan>8</tspan></text></g><g  style="" transform="translate(180,78)"><text x="0"  style="font-size: 11px; font-weight: bold; color: rgb(0, 0, 0); fill: #000000; text-shadow: rgb(255, 255, 255) 0px 0px 6px, rgb(255, 255, 255) 0px 0px 3px; text-rendering: geometricprecision; " y="11"><tspan>117</tspan></text></g><g  style="" transform="translate(180,22)"><text x="0"  style="font-size: 11px; font-weight: bold; color: rgb(0, 0, 0); fill: #000000; text-shadow: rgb(255, 255, 255) 0px 0px 6px, rgb(255, 255, 255) 0px 0px 3px; text-rendering: geometricprecision; " y="11"><tspan>115</tspan></text></g><g  style="" transform="translate(226,246)"><text x="0"  style="font-size: 11px; font-weight: bold; color: rgb(0, 0, 0); fill: #000000; text-shadow: rgb(255, 255, 255) 0px 0px 6px, rgb(255, 255, 255) 0px 0px 3px; text-rendering: geometricprecision; " y="11"><tspan>88</tspan></text></g><g  style="" transform="translate(226,190)"><text x="0"  style="font-size: 11px; font-weight: bold; color: rgb(0, 0, 0); fill: #000000; text-shadow: rgb(255, 255, 255) 0px 0px 6px, rgb(255, 255, 255) 0px 0px 3px; text-rendering: geometricprecision; " y="11"><tspan>32</tspan></text></g><g  style="" transform="translate(226,134)"><text x="0"  style="font-size: 11px; font-weight: bold; color: rgb(0, 0, 0); fill: #000000; text-shadow: rgb(255, 255, 255) 0px 0px 6px, rgb(255, 255, 255) 0px 0px 3px; text-rendering: geometricprecision; " y="11"><tspan>12</tspan></text></g><g  style="" transform="translate(230,78)"><text x="0"  style="font-size: 11px; font-weight: bold; color: rgb(0, 0, 0); fill: #000000; text-shadow: rgb(255, 255, 255) 0px 0px 6px, rgb(255, 255, 255) 0px 0px 3px; text-rendering: geometricprecision; " y="11"><tspan>6</tspan></text></g><g  style="" transform="translate(223,22)"><text x="0"  style="font-size: 11px; font-weight: bold; color: rgb(0, 0, 0); fill: #000000; text-shadow: rgb(255, 255, 255) 0px 0px 6px, rgb(255, 255, 255) 0px 0px 3px; text-rendering: geometricprecision; " y="11"><tspan>120</tspan></text></g><g  style="" transform="translate(268,246)"><text x="0"  style="font-size: 11px; font-weight: bold; color: rgb(0, 0, 0); fill: #000000; text-shadow: rgb(255, 255, 255) 0px 0px 6px, rgb(255, 255, 255) 0px 0px 3px; text-rendering: geometricprecision; " y="11"><tspan>13</tspan></text></g><g  style="" transform="translate(268,190)"><text x="0"  style="font-size: 11px; font-weight: bold; color: rgb(0, 0, 0); fill: #000000; text-shadow: rgb(255, 255, 255) 0px 0px 6px, rgb(255, 255, 255) 0px 0px 3px; text-rendering: geometricprecision; " y="11"><tspan>44</tspan></text></g><g  style="" transform="translate(268,134)"><text x="0"  style="font-size: 11px; font-weight: bold; color: rgb(0, 0, 0); fill: #000000; text-shadow: rgb(255, 255, 255) 0px 0px 6px, rgb(255, 255, 255) 0px 0px 3px; text-rendering: geometricprecision; " y="11"><tspan>88</tspan></text></g><g  style="" transform="translate(268,78)"><text x="0"  style="font-size: 11px; font-weight: bold; color: rgb(0, 0, 0); fill: #000000; text-shadow: rgb(255, 255, 255) 0px 0px 6px, rgb(255, 255, 255) 0px 0px 3px; text-rendering: geometricprecision; " y="11"><tspan>98</tspan></text></g><g  style="" transform="translate(268,22)"><text x="0"  style="font-size: 11px; font-weight: bold; color: rgb(0, 0, 0); fill: #000000; text-shadow: rgb(255, 255, 255) 0px 0px 6px, rgb(255, 255, 255) 0px 0px 3px; text-rendering: geometricprecision; " y="11"><tspan>96</tspan></text></g><g  style="" transform="translate(310,246)"><text x="0"  style="font-size: 11px; font-weight: bold; color: rgb(0, 0, 0); fill: #000000; text-shadow: rgb(255, 255, 255) 0px 0px 6px, rgb(255, 255, 255) 0px 0px 3px; text-rendering: geometricprecision; " y="11"><tspan>31</tspan></text></g><g  style="" transform="translate(314,190)"><text x="0"  style="font-size: 11px; font-weight: bold; color: rgb(0, 0, 0); fill: #000000; text-shadow: rgb(255, 255, 255) 0px 0px 6px, rgb(255, 255, 255) 0px 0px 3px; text-rendering: geometricprecision; " y="11"><tspan>1</tspan></text></g><g  style="" transform="translate(310,134)"><text x="0"  style="font-size: 11px; font-weight: bold; color: rgb(0, 0, 0); fill: #000000; text-shadow: rgb(255, 255, 255) 0px 0px 6px, rgb(255, 255, 255) 0px 0px 3px; text-rendering: geometricprecision; " y="11"><tspan>82</tspan></text></g><g  style="" transform="translate(310,78)"><text x="0"  style="font-size: 11px; font-weight: bold; color: rgb(0, 0, 0); fill: #000000; text-shadow: rgb(255, 255, 255) 0px 0px 6px, rgb(255, 255, 255) 0px 0px 3px; text-rendering: geometricprecision; " y="11"><tspan>32</tspan></text></g><g  style="" transform="translate(310,22)"><text x="0"  style="font-size: 11px; font-weight: bold; color: rgb(0, 0, 0); fill: #000000; text-shadow: rgb(255, 255, 255) 0px 0px 6px, rgb(255, 255, 255) 0px 0px 3px; text-rendering: geometricprecision; " y="11"><tspan>30</tspan></text></g><g  style="" transform="translate(353,246)"><text x="0"  style="font-size: 11px; font-weight: bold; color: rgb(0, 0, 0); fill: #000000; text-shadow: rgb(255, 255, 255) 0px 0px 6px, rgb(255, 255, 255) 0px 0px 3px; text-rendering: geometricprecision; " y="11"><tspan>85</tspan></text></g><g  style="" transform="translate(353,190)"><text x="0"  style="font-size: 11px; font-weight: bold; color: rgb(0, 0, 0); fill: #000000; text-shadow: rgb(255, 255, 255) 0px 0px 6px, rgb(255, 255, 255) 0px 0px 3px; text-rendering: geometricprecision; " y="11"><tspan>97</tspan></text></g><g  style="" transform="translate(349,134)"><text x="0"  style="font-size: 11px; font-weight: bold; color: rgb(0, 0, 0); fill: #000000; text-shadow: rgb(255, 255, 255) 0px 0px 6px, rgb(255, 255, 255) 0px 0px 3px; text-rendering: geometricprecision; " y="11"><tspan>123</tspan></text></g><g  style="" transform="translate(353,78)"><text x="0"  style="font-size: 11px; font-weight: bold; color: rgb(0, 0, 0); fill: #000000; text-shadow: rgb(255, 255, 255) 0px 0px 6px, rgb(255, 255, 255) 0px 0px 3px; text-rendering: geometricprecision; " y="11"><tspan>64</tspan></text></g><g  style="" transform="translate(353,22)"><text x="0"  style="font-size: 11px; font-weight: bold; color: rgb(0, 0, 0); fill: #000000; text-shadow: rgb(255, 255, 255) 0px 0px 6px, rgb(255, 255, 255) 0px 0px 3px; text-rendering: geometricprecision; " y="11"><tspan>84</tspan></text></g><g  style="" transform="translate(395,246)"><text x="0"  style="font-size: 11px; font-weight: bold; color: rgb(0, 0, 0); fill: #000000; text-shadow: rgb(255, 255, 255) 0px 0px 6px, rgb(255, 255, 255) 0px 0px 3px; text-rendering: geometricprecision; " y="11"><tspan>47</tspan></text></g><g  style="" transform="translate(392,190)"><text x="0"  style="font-size: 11px; font-weight: bold; color: rgb(0, 0, 0); fill: #000000; text-shadow: rgb(255, 255, 255) 0px 0px 6px, rgb(255, 255, 255) 0px 0px 3px; text-rendering: geometricprecision; " y="11"><tspan>114</tspan></text></g><g  style="" transform="translate(395,134)"><text x="0"  style="font-size: 11px; font-weight: bold; color: rgb(0, 0, 0); fill: #000000; text-shadow: rgb(255, 255, 255) 0px 0px 6px, rgb(255, 255, 255) 0px 0px 3px; text-rendering: geometricprecision; " y="11"><tspan>31</tspan></text></g><g  style="" transform="translate(395,78)"><text x="0"  style="font-size: 11px; font-weight: bold; color: rgb(0, 0, 0); fill: #000000; text-shadow: rgb(255, 255, 255) 0px 0px 6px, rgb(255, 255, 255) 0px 0px 3px; text-rendering: geometricprecision; " y="11"><tspan>48</tspan></text></g><g  style="" transform="translate(395,22)"><text x="0"  style="font-size: 11px; font-weight: bold; color: rgb(0, 0, 0); fill: #000000; text-shadow: rgb(255, 255, 255) 0px 0px 6px, rgb(255, 255, 255) 0px 0px 3px; text-rendering: geometricprecision; " y="11"><tspan>91</tspan></text></g></g><g class="highcharts-legend"  transform="translate(508,35)"><g ><g><g class="highcharts-legend-item"  transform="translate(8,3)"><rect x="0" y="4" width="12" height="280"  fill="url(#highcharts-1)"></rect><g class="highcharts-grid" ><path fill="none" d="M 0 5.5 L 12 5.5" stroke="#D8D8D8" stroke-width="1"  opacity="1"></path><path fill="none" d="M 0 51.5 L 12 51.5" stroke="#D8D8D8" stroke-width="1"  opacity="1"></path><path fill="none" d="M 0 98.5 L 12 98.5" stroke="#D8D8D8" stroke-width="1"  opacity="1"></path><path fill="none" d="M 0 144.5 L 12 144.5" stroke="#D8D8D8" stroke-width="1"  opacity="1"></path><path fill="none" d="M 0 190.5 L 12 190.5" stroke="#D8D8D8" stroke-width="1"  opacity="1"></path><path fill="none" d="M 0 237.5 L 12 237.5" stroke="#D8D8D8" stroke-width="1"  opacity="1"></path><path fill="none" d="M 0 283.5 L 12 283.5" stroke="#D8D8D8" stroke-width="1"  opacity="1"></path></g><text x="21" style="color:#333333;font-size:12px;font-weight:bold;cursor:pointer;fill:#333333;" text-anchor="start"  y="15"></text><g class="highcharts-axis" ></g><g class="highcharts-axis-labels highcharts-coloraxis-labels" ><text x="27" style="color:#606060;cursor:default;font-size:11px;fill:#606060;width:183px;text-overflow:clip;" text-anchor="start" transform="translate(0,0)" y="9" opacity="1">0</text><text x="27" style="color:#606060;cursor:default;font-size:11px;fill:#606060;width:183px;text-overflow:clip;" text-anchor="start" transform="translate(0,0)" y="56" opacity="1">25</text><text x="27" style="color:#606060;cursor:default;font-size:11px;fill:#606060;width:183px;text-overflow:clip;" text-anchor="start" transform="translate(0,0)" y="102" opacity="1">50</text><text x="27" style="color:#606060;cursor:default;font-size:11px;fill:#606060;width:183px;text-overflow:clip;" text-anchor="start" transform="translate(0,0)" y="149" opacity="1">75</text><text x="27" style="color:#606060;cursor:default;font-size:11px;fill:#606060;width:183px;text-overflow:clip;" text-anchor="start" transform="translate(0,0)" y="195" opacity="1">100</text><text x="27" style="color:#606060;cursor:default;font-size:11px;fill:#606060;width:183px;text-overflow:clip;" text-anchor="start" transform="translate(0,0)" y="241" opacity="1">125</text><text x="27" style="color:#606060;cursor:default;font-size:11px;fill:#606060;width:183px;text-overflow:clip;" text-anchor="start" transform="translate(0,0)" y="288" opacity="1">150</text></g></g></g></g></g><g class="highcharts-axis-labels highcharts-xaxis-labels" ><text x="108.7" style="color:#606060;cursor:default;font-size:11px;fill:#606060;width:400px;text-overflow:ellipsis;" text-anchor="end" transform="translate(0,0) rotate(-45 108.7 336)" y="336" opacity="1"><tspan>Alexander</tspan></text><text x="151.0" style="color:#606060;cursor:default;font-size:11px;fill:#606060;width:400px;text-overflow:ellipsis;" text-anchor="end" transform="translate(0,0) rotate(-45 151.0 336)" y="336" opacity="1"><tspan>Marie</tspan></text><text x="193.3" style="color:#606060;cursor:default;font-size:11px;fill:#606060;width:400px;text-overflow:ellipsis;" text-anchor="end" transform="translate(0,0) rotate(-45 193.3 336)" y="336" opacity="1"><tspan>Maximilian</tspan></text><text x="235.6" style="color:#606060;cursor:default;font-size:11px;fill:#606060;width:400px;text-overflow:ellipsis;" text-anchor="end" transform="translate(0,0) rotate(-45 235.6 336)" y="336" opacity="1"><tspan>Sophia</tspan></text><text x="277.9" style="color:#606060;cursor:default;font-size:11px;fill:#606060;width:400px;text-overflow:ellipsis;" text-anchor="end" transform="translate(0,0) rotate(-45 277.9 336)" y="336" opacity="1"><tspan>Lukas</tspan></text><text x="320.2" style="color:#606060;cursor:default;font-size:11px;fill:#606060;width:400px;text-overflow:ellipsis;" text-anchor="end" transform="translate(0,0) rotate(-45 320.2 336)" y="336" opacity="1"><tspan>Maria</tspan></text><text x="362.5" style="color:#606060;cursor:default;font-size:11px;fill:#606060;width:400px;text-overflow:ellipsis;" text-anchor="end" transform="translate(0,0) rotate(-45 362.5 336)" y="336" opacity="1"><tspan>Leon</tspan></text><text x="404.8" style="color:#606060;cursor:default;font-size:11px;fill:#606060;width:400px;text-overflow:ellipsis;" text-anchor="end" transform="translate(0,0) rotate(-45 404.8 336)" y="336" opacity="1"><tspan>Anna</tspan></text><text x="447.1" style="color:#606060;cursor:default;font-size:11px;fill:#606060;width:400px;text-overflow:ellipsis;" text-anchor="end" transform="translate(0,0) rotate(-45 447.1 336)" y="336" opacity="1"><tspan>Tim</tspan></text><text x="489.4" style="color:#606060;cursor:default;font-size:11px;fill:#606060;width:400px;text-overflow:ellipsis;" text-anchor="end" transform="translate(0,0) rotate(-45 489.4 336)" y="336" opacity="1"><tspan>Laura</tspan></text></g><g class="highcharts-axis-labels highcharts-yaxis-labels" ><text x="70" style="color:#606060;cursor:default;font-size:11px;fill:#606060;width:183px;text-overflow:clip;" text-anchor="end" transform="translate(0,0)" y="297" opacity="1">Monday</text><text x="70" style="color:#606060;cursor:default;font-size:11px;fill:#606060;width:183px;text-overflow:clip;" text-anchor="end" transform="translate(0,0)" y="241" opacity="1">Tuesday</text><text x="70" style="color:#606060;cursor:default;font-size:11px;fill:#606060;width:183px;text-overflow:clip;" text-anchor="end" transform="translate(0,0)" y="185" opacity="1">Wednesday</text><text x="70" style="color:#606060;cursor:default;font-size:11px;fill:#606060;width:183px;text-overflow:clip;" text-anchor="end" transform="translate(0,0)" y="129" opacity="1">Thursday</text><text x="70" style="color:#606060;cursor:default;font-size:11px;fill:#606060;width:183px;text-overflow:clip;" text-anchor="end" transform="translate(0,0)" y="73" opacity="1">Friday</text></g><g class="highcharts-tooltip"  style="cursor:default;padding:0;white-space:nowrap;" transform="translate(0,-9999)"><path fill="none" d="M 3.5 0.5 L 13.5 0.5 C 16.5 0.5 16.5 0.5 16.5 3.5 L 16.5 13.5 C 16.5 16.5 16.5 16.5 13.5 16.5 L 3.5 16.5 C 0.5 16.5 0.5 16.5 0.5 13.5 L 0.5 3.5 C 0.5 0.5 0.5 0.5 3.5 0.5"  stroke="black" stroke-opacity="0.0" stroke-width="5" transform="translate(1, 1)"></path><path fill="none" d="M 3.5 0.5 L 13.5 0.5 C 16.5 0.5 16.5 0.5 16.5 3.5 L 16.5 13.5 C 16.5 16.5 16.5 16.5 13.5 16.5 L 3.5 16.5 C 0.5 16.5 0.5 16.5 0.5 13.5 L 0.5 3.5 C 0.5 0.5 0.5 0.5 3.5 0.5"  stroke="black" stroke-opacity="0.0" stroke-width="3" transform="translate(1, 1)"></path><path fill="none" d="M 3.5 0.5 L 13.5 0.5 C 16.5 0.5 16.5 0.5 16.5 3.5 L 16.5 13.5 C 16.5 16.5 16.5 16.5 13.5 16.5 L 3.5 16.5 C 0.5 16.5 0.5 16.5 0.5 13.5 L 0.5 3.5 C 0.5 0.5 0.5 0.5 3.5 0.5"  stroke="black" stroke-opacity="0.1" stroke-width="1" transform="translate(1, 1)"></path><path fill="rgb(249, 249, 249)" fill-opacity=" .85" d="M 3.5 0.5 L 13.5 0.5 C 16.5 0.5 16.5 0.5 16.5 3.5 L 16.5 13.5 C 16.5 16.5 16.5 16.5 13.5 16.5 L 3.5 16.5 C 0.5 16.5 0.5 16.5 0.5 13.5 L 0.5 3.5 C 0.5 0.5 0.5 0.5 3.5 0.5"></path><text x="8"  style="font-size:12px;color:#333333;fill:#333333;" y="20"></text></g></svg>