<svg version="1.1" style="font-family: signika, serif; font-size: 12px; background-image: url(http://www.highcharts.com/samples/graphics/sand.png); background-position: initial initial; background-repeat: initial initial;" xmlns="http://www.w3.org/2000/svg" width="584" height="400" viewBox="0 0 584 400" xmlns:xlink="http://www.w3.org/1999/xlink"><style type="text/css"><![CDATA[@import url(http://fonts.googleapis.com/css?family=Signika:700);]]></style><desc>Created with Highcharts 4.1.7</desc><defs><clipPath id="highcharts-1"><rect x="0" y="0" width="564" height="332"></rect></clipPath><clipPath id="highcharts-2"><rect x="-99" y="-53" width="663" height="400"></rect></clipPath><clipPath id="highcharts-3"><rect x="0" y="0" width="564" height="332"></rect></clipPath></defs><g class="highcharts-grid" ><path fill="none" d="M 51.5 53 L 51.5 385" stroke="#D8D8D8" stroke-width="1"  opacity="1"></path><path fill="none" d="M 180.5 53 L 180.5 385" stroke="#D8D8D8" stroke-width="1"  opacity="1"></path><path fill="none" d="M 309.5 53 L 309.5 385" stroke="#D8D8D8" stroke-width="1"  opacity="1"></path><path fill="none" d="M 438.5 53 L 438.5 385" stroke="#D8D8D8" stroke-width="1"  opacity="1"></path><path fill="none" d="M 567.5 53 L 567.5 385" stroke="#D8D8D8" stroke-width="1"  opacity="1"></path></g><g class="highcharts-grid" ><path fill="none" d="M 10 385.5 L 574 385.5" stroke="#D8D8D8" stroke-width="1"  opacity="1"></path><path fill="none" d="M 10 302.5 L 574 302.5" stroke="#D8D8D8" stroke-width="1"  opacity="1"></path><path fill="none" d="M 10 219.5 L 574 219.5" stroke="#D8D8D8" stroke-width="1"  opacity="1"></path><path fill="none" d="M 10 136.5 L 574 136.5" stroke="#D8D8D8" stroke-width="1"  opacity="1"></path><path fill="none" d="M 10 52.5 L 574 52.5" stroke="#D8D8D8" stroke-width="1"  opacity="1"></path></g><g class="highcharts-grid" ></g><g class="highcharts-axis" ><path fill="none" d="M 10 385.5 L 574 385.5" stroke="#C0D0E0" stroke-width="1"  visibility="visible"></path></g><g class="highcharts-axis" ></g><g class="highcharts-axis" ></g><g class="highcharts-series-group" ><g class="highcharts-series" visibility="visible"  transform="translate(10,53) scale(1 1)" clip-path="url(#highcharts-3)"><path fill="none" d="M 5.5 237.5 L 23.9 242.3 L 42.3 73.4 L 60.8 62.8 L 79.2 59.3 L 97.6 58.3 L 116.1 87.3 L 134.5 235.0 L 152.9 240.0 L 171.4 73.7 L 189.8 17.5 L 208.2 50.2 L 226.7 40.1 L 245.1 41.3 L 263.5 222.4 L 282 229.7 L 300.4 43.9 L 318.8 38.8 L 337.2 51.1 L 355.7 66.9 L 374.1 132.3 L 392.5 235.1 L 411.0 252.3 L 429.4 115.5 L 447.8 50.1 L 466.3 48.1 L 484.7 71.3 L 503.1 93.3 L 521.6 234.2 L 540.0 219.4 L 558.4 65.2" stroke="black" stroke-width="5"  stroke-linejoin="round" stroke-linecap="round"  stroke-opacity="0.0" transform="translate(1, 1)"></path><path fill="none" d="M 5.5 237.5 L 23.9 242.3 L 42.3 73.4 L 60.8 62.8 L 79.2 59.3 L 97.6 58.3 L 116.1 87.3 L 134.5 235.0 L 152.9 240.0 L 171.4 73.7 L 189.8 17.5 L 208.2 50.2 L 226.7 40.1 L 245.1 41.3 L 263.5 222.4 L 282 229.7 L 300.4 43.9 L 318.8 38.8 L 337.2 51.1 L 355.7 66.9 L 374.1 132.3 L 392.5 235.1 L 411.0 252.3 L 429.4 115.5 L 447.8 50.1 L 466.3 48.1 L 484.7 71.3 L 503.1 93.3 L 521.6 234.2 L 540.0 219.4 L 558.4 65.2" stroke="black" stroke-width="3"  stroke-linejoin="round" stroke-linecap="round"  stroke-opacity="0.0" transform="translate(1, 1)"></path><path fill="none" d="M 5.5 237.5 L 23.9 242.3 L 42.3 73.4 L 60.8 62.8 L 79.2 59.3 L 97.6 58.3 L 116.1 87.3 L 134.5 235.0 L 152.9 240.0 L 171.4 73.7 L 189.8 17.5 L 208.2 50.2 L 226.7 40.1 L 245.1 41.3 L 263.5 222.4 L 282 229.7 L 300.4 43.9 L 318.8 38.8 L 337.2 51.1 L 355.7 66.9 L 374.1 132.3 L 392.5 235.1 L 411.0 252.3 L 429.4 115.5 L 447.8 50.1 L 466.3 48.1 L 484.7 71.3 L 503.1 93.3 L 521.6 234.2 L 540.0 219.4 L 558.4 65.2" stroke="black" stroke-width="1"  stroke-linejoin="round" stroke-linecap="round"  stroke-opacity="0.1" transform="translate(1, 1)"></path><path fill="none" d="M 5.5 237.5 L 23.9 242.3 L 42.3 73.4 L 60.8 62.8 L 79.2 59.3 L 97.6 58.3 L 116.1 87.3 L 134.5 235.0 L 152.9 240.0 L 171.4 73.7 L 189.8 17.5 L 208.2 50.2 L 226.7 40.1 L 245.1 41.3 L 263.5 222.4 L 282 229.7 L 300.4 43.9 L 318.8 38.8 L 337.2 51.1 L 355.7 66.9 L 374.1 132.3 L 392.5 235.1 L 411.0 252.3 L 429.4 115.5 L 447.8 50.1 L 466.3 48.1 L 484.7 71.3 L 503.1 93.3 L 521.6 234.2 L 540.0 219.4 L 558.4 65.2" stroke="#f45b5b" stroke-width="4"  stroke-linejoin="round" stroke-linecap="round"></path><path fill="none" d="M -4.4 237.5 L 5.5 237.5 L 23.9 242.3 L 42.3 73.4 L 60.8 62.8 L 79.2 59.3 L 97.6 58.3 L 116.1 87.3 L 134.5 235.0 L 152.9 240.0 L 171.4 73.7 L 189.8 17.5 L 208.2 50.2 L 226.7 40.1 L 245.1 41.3 L 263.5 222.4 L 282 229.7 L 300.4 43.9 L 318.8 38.8 L 337.2 51.1 L 355.7 66.9 L 374.1 132.3 L 392.5 235.1 L 411.0 252.3 L 429.4 115.5 L 447.8 50.1 L 466.3 48.1 L 484.7 71.3 L 503.1 93.3 L 521.6 234.2 L 540.0 219.4 L 558.4 65.2 L 568.4 65.2" stroke-linejoin="round" visibility="visible" stroke="rgb(192,192,192)" stroke-opacity="0.0" stroke-width="24"  class=" highcharts-tracker" style="cursor:pointer;"></path></g><g class="highcharts-markers highcharts-tracker" visibility="visible"  transform="translate(10,53) scale(1 1)" clip-path="url(#highcharts-2)" style="cursor:pointer;"><path fill="#f45b5b" d="M 558 61.2 C 563.3 61.2 563.3 69.2 558 69.2 C 552.6 69.2 552.6 61.2 558 61.2 Z" stroke="#FFFFFF" stroke-width="1"></path><path fill="#f45b5b" d="M 540 215.4 C 545.3 215.4 545.3 223.4 540 223.4 C 534.6 223.4 534.6 215.4 540 215.4 Z" stroke="#FFFFFF" stroke-width="1"></path><path fill="#f45b5b" d="M 521 230.2 C 526.3 230.2 526.3 238.2 521 238.2 C 515.6 238.2 515.6 230.2 521 230.2 Z" stroke="#FFFFFF" stroke-width="1"></path><path fill="#f45b5b" d="M 503 89.3 C 508.3 89.3 508.3 97.3 503 97.3 C 497.6 97.3 497.6 89.3 503 89.3 Z" stroke="#FFFFFF" stroke-width="1"></path><path fill="#f45b5b" d="M 484 67.3 C 489.3 67.3 489.3 75.3 484 75.3 C 478.6 75.3 478.6 67.3 484 67.3 Z" stroke="#FFFFFF" stroke-width="1"></path><path fill="#f45b5b" d="M 466 44.1 C 471.3 44.1 471.3 52.1 466 52.1 C 460.6 52.1 460.6 44.1 466 44.1 Z" stroke="#FFFFFF" stroke-width="1"></path><path fill="#f45b5b" d="M 447 46.1 C 452.3 46.1 452.3 54.1 447 54.1 C 441.6 54.1 441.6 46.1 447 46.1 Z" stroke="#FFFFFF" stroke-width="1"></path><path fill="#f45b5b" d="M 429 111.5 C 434.3 111.5 434.3 119.5 429 119.5 C 423.6 119.5 423.6 111.5 429 111.5 Z" stroke="#FFFFFF" stroke-width="1"></path><path fill="#f45b5b" d="M 411 248.3 C 416.3 248.3 416.3 256.3 411 256.3 C 405.6 256.3 405.6 248.3 411 248.3 Z" stroke="#FFFFFF" stroke-width="1"></path><path fill="#f45b5b" d="M 392 231.1 C 397.3 231.1 397.3 239.1 392 239.1 C 386.6 239.1 386.6 231.1 392 231.1 Z" stroke="#FFFFFF" stroke-width="1"></path><path fill="#f45b5b" d="M 374 128.3 C 379.3 128.3 379.3 136.3 374 136.3 C 368.6 136.3 368.6 128.3 374 128.3 Z" stroke="#FFFFFF" stroke-width="1"></path><path fill="#f45b5b" d="M 355 62.9 C 360.3 62.9 360.3 70.9 355 70.9 C 349.6 70.9 349.6 62.9 355 62.9 Z" stroke="#FFFFFF" stroke-width="1"></path><path fill="#f45b5b" d="M 337 47.1 C 342.3 47.1 342.3 55.1 337 55.1 C 331.6 55.1 331.6 47.1 337 47.1 Z" stroke="#FFFFFF" stroke-width="1"></path><path fill="#f45b5b" d="M 318 34.8 C 323.3 34.8 323.3 42.8 318 42.8 C 312.6 42.8 312.6 34.8 318 34.8 Z" stroke="#FFFFFF" stroke-width="1"></path><path fill="#f45b5b" d="M 300 39.9 C 305.3 39.9 305.3 47.9 300 47.9 C 294.6 47.9 294.6 39.9 300 39.9 Z" stroke="#FFFFFF" stroke-width="1"></path><path fill="#f45b5b" d="M 282 225.7 C 287.3 225.7 287.3 233.7 282 233.7 C 276.6 233.7 276.6 225.7 282 225.7 Z" stroke="#FFFFFF" stroke-width="1"></path><path fill="#f45b5b" d="M 263 218.4 C 268.3 218.4 268.3 226.4 263 226.4 C 257.6 226.4 257.6 218.4 263 218.4 Z" stroke="#FFFFFF" stroke-width="1"></path><path fill="#f45b5b" d="M 245 37.3 C 250.3 37.3 250.3 45.3 245 45.3 C 239.6 45.3 239.6 37.3 245 37.3 Z" stroke="#FFFFFF" stroke-width="1"></path><path fill="#f45b5b" d="M 226 36.1 C 231.3 36.1 231.3 44.1 226 44.1 C 220.6 44.1 220.6 36.1 226 36.1 Z" stroke="#FFFFFF" stroke-width="1"></path><path fill="#f45b5b" d="M 208 46.2 C 213.3 46.2 213.3 54.2 208 54.2 C 202.6 54.2 202.6 46.2 208 46.2 Z" stroke="#FFFFFF" stroke-width="1"></path><path fill="#f45b5b" d="M 189 13.5 C 194.3 13.5 194.3 21.5 189 21.5 C 183.6 21.5 183.6 13.5 189 13.5 Z" stroke="#FFFFFF" stroke-width="1"></path><path fill="#f45b5b" d="M 171 69.7 C 176.3 69.7 176.3 77.7 171 77.7 C 165.6 77.7 165.6 69.7 171 69.7 Z" stroke="#FFFFFF" stroke-width="1"></path><path fill="#f45b5b" d="M 152 236.0 C 157.3 236.0 157.3 244.0 152 244.0 C 146.6 244.0 146.6 236.0 152 236.0 Z" stroke="#FFFFFF" stroke-width="1"></path><path fill="#f45b5b" d="M 134 231.0 C 139.3 231.0 139.3 239.0 134 239.0 C 128.6 239.0 128.6 231.0 134 231.0 Z" stroke="#FFFFFF" stroke-width="1"></path><path fill="#f45b5b" d="M 116 83.3 C 121.3 83.3 121.3 91.3 116 91.3 C 110.6 91.3 110.6 83.3 116 83.3 Z" stroke="#FFFFFF" stroke-width="1"></path><path fill="#f45b5b" d="M 97 54.3 C 102.3 54.3 102.3 62.3 97 62.3 C 91.6 62.3 91.6 54.3 97 54.3 Z" stroke="#FFFFFF" stroke-width="1"></path><path fill="#f45b5b" d="M 79 55.3 C 84.3 55.3 84.3 63.3 79 63.3 C 73.6 63.3 73.6 55.3 79 55.3 Z" stroke="#FFFFFF" stroke-width="1"></path><path fill="#f45b5b" d="M 60 58.8 C 65.3 58.8 65.3 66.8 60 66.8 C 54.6 66.8 54.6 58.8 60 58.8 Z" stroke="#FFFFFF" stroke-width="1"></path><path fill="#f45b5b" d="M 42 69.4 C 47.3 69.4 47.3 77.4 42 77.4 C 36.6 77.4 36.6 69.4 42 69.4 Z" stroke="#FFFFFF" stroke-width="1"></path><path fill="#f45b5b" d="M 23 238.3 C 28.3 238.3 28.3 246.3 23 246.3 C 17.6 246.3 17.6 238.3 23 238.3 Z" stroke="#FFFFFF" stroke-width="1"></path><path fill="#f45b5b" d="M 5 233.5 C 10.3 233.5 10.3 241.5 5 241.5 C -0.3 241.5 -0.3 233.5 5 233.5 Z" stroke="#FFFFFF" stroke-width="1"></path></g><g class="highcharts-series" visibility="visible"  transform="translate(10,53) scale(1 1)" clip-path="url(#highcharts-3)"><path fill="none" d="M 5.5 259.8 L 23.9 263.7 L 42.3 143.4 L 60.8 134.8 L 79.2 133.3 L 97.6 131.3 L 116.1 150.7 L 134.5 257.1 L 152.9 262.2 L 171.4 140.7 L 189.8 92.4 L 208.2 122.8 L 226.7 114.6 L 245.1 112.3 L 263.5 245.4 L 282 252.2 L 300.4 122.1 L 318.8 120.0 L 337.2 126.3 L 355.7 138.0 L 374.1 184.4 L 392.5 257.0 L 411.0 271.2 L 429.4 174.2 L 447.8 121.7 L 466.3 122.2 L 484.7 142.8 L 503.1 157.2 L 521.6 256.9 L 540.0 247.1 L 558.4 139.4" stroke="black" stroke-width="5"  stroke-linejoin="round" stroke-linecap="round"  stroke-opacity="0.0" transform="translate(1, 1)"></path><path fill="none" d="M 5.5 259.8 L 23.9 263.7 L 42.3 143.4 L 60.8 134.8 L 79.2 133.3 L 97.6 131.3 L 116.1 150.7 L 134.5 257.1 L 152.9 262.2 L 171.4 140.7 L 189.8 92.4 L 208.2 122.8 L 226.7 114.6 L 245.1 112.3 L 263.5 245.4 L 282 252.2 L 300.4 122.1 L 318.8 120.0 L 337.2 126.3 L 355.7 138.0 L 374.1 184.4 L 392.5 257.0 L 411.0 271.2 L 429.4 174.2 L 447.8 121.7 L 466.3 122.2 L 484.7 142.8 L 503.1 157.2 L 521.6 256.9 L 540.0 247.1 L 558.4 139.4" stroke="black" stroke-width="3"  stroke-linejoin="round" stroke-linecap="round"  stroke-opacity="0.0" transform="translate(1, 1)"></path><path fill="none" d="M 5.5 259.8 L 23.9 263.7 L 42.3 143.4 L 60.8 134.8 L 79.2 133.3 L 97.6 131.3 L 116.1 150.7 L 134.5 257.1 L 152.9 262.2 L 171.4 140.7 L 189.8 92.4 L 208.2 122.8 L 226.7 114.6 L 245.1 112.3 L 263.5 245.4 L 282 252.2 L 300.4 122.1 L 318.8 120.0 L 337.2 126.3 L 355.7 138.0 L 374.1 184.4 L 392.5 257.0 L 411.0 271.2 L 429.4 174.2 L 447.8 121.7 L 466.3 122.2 L 484.7 142.8 L 503.1 157.2 L 521.6 256.9 L 540.0 247.1 L 558.4 139.4" stroke="black" stroke-width="1"  stroke-linejoin="round" stroke-linecap="round"  stroke-opacity="0.1" transform="translate(1, 1)"></path><path fill="none" d="M 5.5 259.8 L 23.9 263.7 L 42.3 143.4 L 60.8 134.8 L 79.2 133.3 L 97.6 131.3 L 116.1 150.7 L 134.5 257.1 L 152.9 262.2 L 171.4 140.7 L 189.8 92.4 L 208.2 122.8 L 226.7 114.6 L 245.1 112.3 L 263.5 245.4 L 282 252.2 L 300.4 122.1 L 318.8 120.0 L 337.2 126.3 L 355.7 138.0 L 374.1 184.4 L 392.5 257.0 L 411.0 271.2 L 429.4 174.2 L 447.8 121.7 L 466.3 122.2 L 484.7 142.8 L 503.1 157.2 L 521.6 256.9 L 540.0 247.1 L 558.4 139.4" stroke="#8085e9" stroke-width="2"  stroke-linejoin="round" stroke-linecap="round"></path><path fill="none" d="M -4.4 259.8 L 5.5 259.8 L 23.9 263.7 L 42.3 143.4 L 60.8 134.8 L 79.2 133.3 L 97.6 131.3 L 116.1 150.7 L 134.5 257.1 L 152.9 262.2 L 171.4 140.7 L 189.8 92.4 L 208.2 122.8 L 226.7 114.6 L 245.1 112.3 L 263.5 245.4 L 282 252.2 L 300.4 122.1 L 318.8 120.0 L 337.2 126.3 L 355.7 138.0 L 374.1 184.4 L 392.5 257.0 L 411.0 271.2 L 429.4 174.2 L 447.8 121.7 L 466.3 122.2 L 484.7 142.8 L 503.1 157.2 L 521.6 256.9 L 540.0 247.1 L 558.4 139.4 L 568.4 139.4" stroke-linejoin="round" visibility="visible" stroke="rgb(192,192,192)" stroke-opacity="0.0" stroke-width="22"  class=" highcharts-tracker" style="cursor:pointer;"></path></g><g class="highcharts-markers highcharts-tracker" visibility="visible"  transform="translate(10,53) scale(1 1)" clip-path="url(#highcharts-2)" style="cursor:pointer;"><path fill="#8085e9" d="M 558 135.4 L 562 139.4 558 143.4 554 139.4 Z" stroke="#FFFFFF" stroke-width="1"></path><path fill="#8085e9" d="M 540 243.1 L 544 247.1 540 251.1 536 247.1 Z" stroke="#FFFFFF" stroke-width="1"></path><path fill="#8085e9" d="M 521 252.9 L 525 256.9 521 260.9 517 256.9 Z" stroke="#FFFFFF" stroke-width="1"></path><path fill="#8085e9" d="M 503 153.2 L 507 157.2 503 161.2 499 157.2 Z" stroke="#FFFFFF" stroke-width="1"></path><path fill="#8085e9" d="M 484 138.8 L 488 142.8 484 146.8 480 142.8 Z" stroke="#FFFFFF" stroke-width="1"></path><path fill="#8085e9" d="M 466 118.2 L 470 122.2 466 126.2 462 122.2 Z" stroke="#FFFFFF" stroke-width="1"></path><path fill="#8085e9" d="M 447 117.7 L 451 121.7 447 125.7 443 121.7 Z" stroke="#FFFFFF" stroke-width="1"></path><path fill="#8085e9" d="M 429 170.2 L 433 174.2 429 178.2 425 174.2 Z" stroke="#FFFFFF" stroke-width="1"></path><path fill="#8085e9" d="M 411 267.2 L 415 271.2 411 275.2 407 271.2 Z" stroke="#FFFFFF" stroke-width="1"></path><path fill="#8085e9" d="M 392 253.0 L 396 257.0 392 261.0 388 257.0 Z" stroke="#FFFFFF" stroke-width="1"></path><path fill="#8085e9" d="M 374 180.4 L 378 184.4 374 188.4 370 184.4 Z" stroke="#FFFFFF" stroke-width="1"></path><path fill="#8085e9" d="M 355 134.0 L 359 138.0 355 142.0 351 138.0 Z" stroke="#FFFFFF" stroke-width="1"></path><path fill="#8085e9" d="M 337 122.3 L 341 126.3 337 130.3 333 126.3 Z" stroke="#FFFFFF" stroke-width="1"></path><path fill="#8085e9" d="M 318 116.0 L 322 120.0 318 124.0 314 120.0 Z" stroke="#FFFFFF" stroke-width="1"></path><path fill="#8085e9" d="M 300 118.1 L 304 122.1 300 126.1 296 122.1 Z" stroke="#FFFFFF" stroke-width="1"></path><path fill="#8085e9" d="M 282 248.2 L 286 252.2 282 256.2 278 252.2 Z" stroke="#FFFFFF" stroke-width="1"></path><path fill="#8085e9" d="M 263 241.4 L 267 245.4 263 249.4 259 245.4 Z" stroke="#FFFFFF" stroke-width="1"></path><path fill="#8085e9" d="M 245 108.3 L 249 112.3 245 116.3 241 112.3 Z" stroke="#FFFFFF" stroke-width="1"></path><path fill="#8085e9" d="M 226 110.6 L 230 114.6 226 118.6 222 114.6 Z" stroke="#FFFFFF" stroke-width="1"></path><path fill="#8085e9" d="M 208 118.8 L 212 122.8 208 126.8 204 122.8 Z" stroke="#FFFFFF" stroke-width="1"></path><path fill="#8085e9" d="M 189 88.4 L 193 92.4 189 96.4 185 92.4 Z" stroke="#FFFFFF" stroke-width="1"></path><path fill="#8085e9" d="M 171 136.7 L 175 140.7 171 144.7 167 140.7 Z" stroke="#FFFFFF" stroke-width="1"></path><path fill="#8085e9" d="M 152 258.2 L 156 262.2 152 266.2 148 262.2 Z" stroke="#FFFFFF" stroke-width="1"></path><path fill="#8085e9" d="M 134 253.1 L 138 257.1 134 261.1 130 257.1 Z" stroke="#FFFFFF" stroke-width="1"></path><path fill="#8085e9" d="M 116 146.7 L 120 150.7 116 154.7 112 150.7 Z" stroke="#FFFFFF" stroke-width="1"></path><path fill="#8085e9" d="M 97 127.3 L 101 131.3 97 135.3 93 131.3 Z" stroke="#FFFFFF" stroke-width="1"></path><path fill="#8085e9" d="M 79 129.3 L 83 133.3 79 137.3 75 133.3 Z" stroke="#FFFFFF" stroke-width="1"></path><path fill="#8085e9" d="M 60 130.8 L 64 134.8 60 138.8 56 134.8 Z" stroke="#FFFFFF" stroke-width="1"></path><path fill="#8085e9" d="M 42 139.4 L 46 143.4 42 147.4 38 143.4 Z" stroke="#FFFFFF" stroke-width="1"></path><path fill="#8085e9" d="M 23 259.7 L 27 263.7 23 267.7 19 263.7 Z" stroke="#FFFFFF" stroke-width="1"></path><path fill="#8085e9" d="M 5 255.8 L 9 259.8 5 263.8 1 259.8 Z" stroke="#FFFFFF" stroke-width="1"></path></g></g><text x="292" text-anchor="middle" class="highcharts-title"  style="color:black;font-size:16px;font-weight:bold;fill:black;width:520px;" y="22"><tspan>Daily visits at www.highcharts.com</tspan></text><text x="292" text-anchor="middle" class="highcharts-subtitle"  style="color:black;fill:black;width:520px;" y="40"><tspan>Source: Google Analytics</tspan></text><g class="highcharts-legend"  transform="translate(10,30)"><g ><g><g class="highcharts-legend-item"  transform="translate(8,3)"><path fill="none" d="M 0 12 L 16 12" stroke="#f45b5b" stroke-width="4"></path><path fill="#f45b5b" d="M 8 8 C 13.3 8 13.3 16 8 16 C 2.6 16 2.6 8 8 8 Z" stroke="#FFFFFF" stroke-width="1"></path><text x="21" style="color:#333333;font-size:13px;font-weight:bold;cursor:pointer;fill:#333333;" text-anchor="start"  y="16">Visits</text></g><g class="highcharts-legend-item"  transform="translate(80.0,3)"><path fill="none" d="M 0 12 L 16 12" stroke="#8085e9" stroke-width="2"></path><path fill="#8085e9" d="M 8 8 L 12 12 8 16 4 12 Z" stroke="#FFFFFF" stroke-width="1"></path><text x="21" y="16" style="color:#333333;font-size:13px;font-weight:bold;cursor:pointer;fill:#333333;" text-anchor="start" ><tspan>Unique Visitors</tspan></text></g></g></g></g><g class="highcharts-axis-labels highcharts-xaxis-labels" ><text x="55.3" style="color:#6e6e70;cursor:default;font-size:11px;fill:#6e6e70;width:131px;text-overflow:clip;" text-anchor="start" transform="translate(0,0)" y="382" opacity="1"><tspan>11. Mar</tspan></text><text x="184.4" style="color:#6e6e70;cursor:default;font-size:11px;fill:#6e6e70;width:131px;text-overflow:clip;" text-anchor="start" transform="translate(0,0)" y="382" opacity="1"><tspan>18. Mar</tspan></text><text x="313.4" style="color:#6e6e70;cursor:default;font-size:11px;fill:#6e6e70;width:131px;text-overflow:clip;" text-anchor="start" transform="translate(0,0)" y="382" opacity="1"><tspan>25. Mar</tspan></text><text x="442.4" style="color:#6e6e70;cursor:default;font-size:11px;fill:#6e6e70;width:131px;text-overflow:clip;" text-anchor="start" transform="translate(0,0)" y="382" opacity="1"><tspan>1. Apr</tspan></text><text x="571.4" style="color:#6e6e70;cursor:default;font-size:11px;fill:#6e6e70;width:2.5;text-overflow:ellipsis;" text-anchor="start" transform="translate(0,0)" y="382" opacity="1"><tspan></tspan><title>8. Apr</title></text></g><g class="highcharts-axis-labels highcharts-yaxis-labels" ><text x="0" style="color:#6e6e70;cursor:default;font-size:11px;fill:#6e6e70;width:183px;text-overflow:clip;" text-anchor="start" transform="translate(0,0)" y="-9999">0</text><text x="13" style="color:#6e6e70;cursor:default;font-size:11px;fill:#6e6e70;width:183px;text-overflow:clip;" text-anchor="start" transform="translate(0,0)" y="318" opacity="1"><tspan>5 000</tspan></text><text x="13" style="color:#6e6e70;cursor:default;font-size:11px;fill:#6e6e70;width:183px;text-overflow:clip;" text-anchor="start" transform="translate(0,0)" y="235" opacity="1"><tspan>10 000</tspan></text><text x="13" style="color:#6e6e70;cursor:default;font-size:11px;fill:#6e6e70;width:183px;text-overflow:clip;" text-anchor="start" transform="translate(0,0)" y="152" opacity="1"><tspan>15 000</tspan></text><text x="13" style="color:#6e6e70;cursor:default;font-size:11px;fill:#6e6e70;width:183px;text-overflow:clip;" text-anchor="start" transform="translate(0,0)" y="69" opacity="1"><tspan>20 000</tspan></text></g><g class="highcharts-axis-labels highcharts-yaxis-labels" ><text x="0" style="color:#6e6e70;cursor:default;font-size:11px;fill:#6e6e70;width:183px;text-overflow:clip;" text-anchor="end" transform="translate(0,0)" y="-9999">0</text><text x="571" style="color:#6e6e70;cursor:default;font-size:11px;fill:#6e6e70;width:183px;text-overflow:clip;" text-anchor="end" transform="translate(0,0)" y="318" opacity="1"><tspan>5 000</tspan></text><text x="571" style="color:#6e6e70;cursor:default;font-size:11px;fill:#6e6e70;width:183px;text-overflow:clip;" text-anchor="end" transform="translate(0,0)" y="235" opacity="1"><tspan>10 000</tspan></text><text x="571" style="color:#6e6e70;cursor:default;font-size:11px;fill:#6e6e70;width:183px;text-overflow:clip;" text-anchor="end" transform="translate(0,0)" y="152" opacity="1"><tspan>15 000</tspan></text><text x="571" style="color:#6e6e70;cursor:default;font-size:11px;fill:#6e6e70;width:183px;text-overflow:clip;" text-anchor="end" transform="translate(0,0)" y="69" opacity="1"><tspan>20 000</tspan></text></g><g class="highcharts-tooltip"  style="cursor:default;padding:0;white-space:nowrap;" transform="translate(0,-9999)"><path fill="none" d="M 3 0 L 13 0 C 16 0 16 0 16 3 L 16 13 C 16 16 16 16 13 16 L 3 16 C 0 16 0 16 0 13 L 0 3 C 0 0 0 0 3 0"  stroke="black" stroke-opacity="0.0" stroke-width="5" transform="translate(1, 1)"></path><path fill="none" d="M 3 0 L 13 0 C 16 0 16 0 16 3 L 16 13 C 16 16 16 16 13 16 L 3 16 C 0 16 0 16 0 13 L 0 3 C 0 0 0 0 3 0"  stroke="black" stroke-opacity="0.0" stroke-width="3" transform="translate(1, 1)"></path><path fill="none" d="M 3 0 L 13 0 C 16 0 16 0 16 3 L 16 13 C 16 16 16 16 13 16 L 3 16 C 0 16 0 16 0 13 L 0 3 C 0 0 0 0 3 0"  stroke="black" stroke-opacity="0.1" stroke-width="1" transform="translate(1, 1)"></path><path fill="rgb(249, 249, 249)" fill-opacity=" .85" d="M 3 0 L 13 0 C 16 0 16 0 16 3 L 16 13 C 16 16 16 16 13 16 L 3 16 C 0 16 0 16 0 13 L 0 3 C 0 0 0 0 3 0"></path><text x="8"  style="font-size:12px;color:#333333;fill:#333333;" y="20"></text></g></svg>