<svg version="1.1" style="font-family: signika, serif; font-size: 12px; background-image: url(http://www.highcharts.com/samples/graphics/sand.png); background-position: initial initial; background-repeat: initial initial;" xmlns="http://www.w3.org/2000/svg" width="584" height="400" viewBox="0 0 584 400" xmlns:xlink="http://www.w3.org/1999/xlink"><style type="text/css"><![CDATA[@import url(http://fonts.googleapis.com/css?family=Signika:700);]]></style><desc>Created with Highcharts 4.1.7</desc><defs><clipPath id="highcharts-1"><rect x="0" y="0" width="410" height="313"></rect></clipPath><clipPath id="highcharts-2"><rect x="-99" y="-53" width="509" height="400"></rect></clipPath><clipPath id="highcharts-3"><rect x="0" y="0" width="410" height="313"></rect></clipPath></defs><path fill="none" d="M 58 321.5 L 468 321.5" stroke="#808080" stroke-width="1"></path><g class="highcharts-grid" ></g><g class="highcharts-grid" ><path fill="none" d="M 58 366.5 L 468 366.5" stroke="#D8D8D8" stroke-width="1"  opacity="1"></path><path fill="none" d="M 58 321.5 L 468 321.5" stroke="#D8D8D8" stroke-width="1"  opacity="1"></path><path fill="none" d="M 58 277.5 L 468 277.5" stroke="#D8D8D8" stroke-width="1"  opacity="1"></path><path fill="none" d="M 58 232.5 L 468 232.5" stroke="#D8D8D8" stroke-width="1"  opacity="1"></path><path fill="none" d="M 58 187.5 L 468 187.5" stroke="#D8D8D8" stroke-width="1"  opacity="1"></path><path fill="none" d="M 58 142.5 L 468 142.5" stroke="#D8D8D8" stroke-width="1"  opacity="1"></path><path fill="none" d="M 58 98.5 L 468 98.5" stroke="#D8D8D8" stroke-width="1"  opacity="1"></path><path fill="none" d="M 58 52.5 L 468 52.5" stroke="#D8D8D8" stroke-width="1"  opacity="1"></path></g><g class="highcharts-axis" ><path fill="none" d="M 91.5 366 L 91.5 376" stroke="#C0D0E0" stroke-width="1" opacity="1"></path><path fill="none" d="M 125.5 366 L 125.5 376" stroke="#C0D0E0" stroke-width="1" opacity="1"></path><path fill="none" d="M 160.5 366 L 160.5 376" stroke="#C0D0E0" stroke-width="1" opacity="1"></path><path fill="none" d="M 194.5 366 L 194.5 376" stroke="#C0D0E0" stroke-width="1" opacity="1"></path><path fill="none" d="M 228.5 366 L 228.5 376" stroke="#C0D0E0" stroke-width="1" opacity="1"></path><path fill="none" d="M 262.5 366 L 262.5 376" stroke="#C0D0E0" stroke-width="1" opacity="1"></path><path fill="none" d="M 296.5 366 L 296.5 376" stroke="#C0D0E0" stroke-width="1" opacity="1"></path><path fill="none" d="M 330.5 366 L 330.5 376" stroke="#C0D0E0" stroke-width="1" opacity="1"></path><path fill="none" d="M 364.5 366 L 364.5 376" stroke="#C0D0E0" stroke-width="1" opacity="1"></path><path fill="none" d="M 399.5 366 L 399.5 376" stroke="#C0D0E0" stroke-width="1" opacity="1"></path><path fill="none" d="M 433.5 366 L 433.5 376" stroke="#C0D0E0" stroke-width="1" opacity="1"></path><path fill="none" d="M 467.5 366 L 467.5 376" stroke="#C0D0E0" stroke-width="1" opacity="1"></path><path fill="none" d="M 57.5 366 L 57.5 376" stroke="#C0D0E0" stroke-width="1" opacity="1"></path><path fill="none" d="M 58 366.5 L 468 366.5" stroke="#C0D0E0" stroke-width="1"  visibility="visible"></path></g><g class="highcharts-axis" ><text x="22"  text-anchor="middle" transform="translate(0,0) rotate(270 22 209.5)" class=" highcharts-yaxis-title" style="color:#707070;fill:#707070;" visibility="visible" y="209.5"><tspan>Temperature (°C)</tspan></text></g><g class="highcharts-series-group" ><g class="highcharts-series" visibility="visible"  transform="translate(58,53) scale(1 1)" clip-path="url(#highcharts-3)"><path fill="none" d="M 17.0 205.6 L 51.2 206.5 L 85.4 183.3 L 119.5 138.6 L 153.7 105.5 L 187.9 76.0 L 222.0 42.9 L 256.2 31.3 L 290.4 59.9 L 324.5 104.6 L 358.7 143.9 L 392.9 182.4" stroke="black" stroke-width="5"  stroke-linejoin="round" stroke-linecap="round"  stroke-opacity="0.0" transform="translate(1, 1)"></path><path fill="none" d="M 17.0 205.6 L 51.2 206.5 L 85.4 183.3 L 119.5 138.6 L 153.7 105.5 L 187.9 76.0 L 222.0 42.9 L 256.2 31.3 L 290.4 59.9 L 324.5 104.6 L 358.7 143.9 L 392.9 182.4" stroke="black" stroke-width="3"  stroke-linejoin="round" stroke-linecap="round"  stroke-opacity="0.0" transform="translate(1, 1)"></path><path fill="none" d="M 17.0 205.6 L 51.2 206.5 L 85.4 183.3 L 119.5 138.6 L 153.7 105.5 L 187.9 76.0 L 222.0 42.9 L 256.2 31.3 L 290.4 59.9 L 324.5 104.6 L 358.7 143.9 L 392.9 182.4" stroke="black" stroke-width="1"  stroke-linejoin="round" stroke-linecap="round"  stroke-opacity="0.1" transform="translate(1, 1)"></path><path fill="none" d="M 17.0 205.6 L 51.2 206.5 L 85.4 183.3 L 119.5 138.6 L 153.7 105.5 L 187.9 76.0 L 222.0 42.9 L 256.2 31.3 L 290.4 59.9 L 324.5 104.6 L 358.7 143.9 L 392.9 182.4" stroke="#f45b5b" stroke-width="2"  stroke-linejoin="round" stroke-linecap="round"></path><path fill="none" d="M 7.0 205.6 L 17.0 205.6 L 51.2 206.5 L 85.4 183.3 L 119.5 138.6 L 153.7 105.5 L 187.9 76.0 L 222.0 42.9 L 256.2 31.3 L 290.4 59.9 L 324.5 104.6 L 358.7 143.9 L 392.9 182.4 L 402.9 182.4" stroke-linejoin="round" visibility="visible" stroke="rgb(192,192,192)" stroke-opacity="0.0" stroke-width="22"  class=" highcharts-tracker" style=""></path></g><g class="highcharts-markers highcharts-tracker" visibility="visible"  transform="translate(58,53) scale(1 1)" clip-path="url(#highcharts-2)" style=""><path fill="#f45b5b" d="M 392 178.4 C 397.3 178.4 397.3 186.4 392 186.4 C 386.6 186.4 386.6 178.4 392 178.4 Z"></path><path fill="#f45b5b" d="M 358 139.9 C 363.3 139.9 363.3 147.9 358 147.9 C 352.6 147.9 352.6 139.9 358 139.9 Z"></path><path fill="#f45b5b" d="M 324 100.6 C 329.3 100.6 329.3 108.6 324 108.6 C 318.6 108.6 318.6 100.6 324 100.6 Z"></path><path fill="#f45b5b" d="M 290 55.9 C 295.3 55.9 295.3 63.9 290 63.9 C 284.6 63.9 284.6 55.9 290 55.9 Z"></path><path fill="#f45b5b" d="M 256 27.3 C 261.3 27.3 261.3 35.3 256 35.3 C 250.6 35.3 250.6 27.3 256 27.3 Z"></path><path fill="#f45b5b" d="M 222 38.9 C 227.3 38.9 227.3 46.9 222 46.9 C 216.6 46.9 216.6 38.9 222 38.9 Z"></path><path fill="#f45b5b" d="M 187 72.0 C 192.3 72.0 192.3 80.0 187 80.0 C 181.6 80.0 181.6 72.0 187 72.0 Z"></path><path fill="#f45b5b" d="M 153 101.5 C 158.3 101.5 158.3 109.5 153 109.5 C 147.6 109.5 147.6 101.5 153 101.5 Z"></path><path fill="#f45b5b" d="M 119 134.6 C 124.3 134.6 124.3 142.6 119 142.6 C 113.6 142.6 113.6 134.6 119 134.6 Z"></path><path fill="#f45b5b" d="M 85 179.3 C 90.3 179.3 90.3 187.3 85 187.3 C 79.6 187.3 79.6 179.3 85 179.3 Z"></path><path fill="#f45b5b" d="M 51 202.5 C 56.3 202.5 56.3 210.5 51 210.5 C 45.6 210.5 45.6 202.5 51 202.5 Z"></path><path fill="#f45b5b" d="M 17 201.6 C 22.3 201.6 22.3 209.6 17 209.6 C 11.6 209.6 11.6 201.6 17 201.6 Z"></path></g><g class="highcharts-series" visibility="visible"  transform="translate(58,53) scale(1 1)" clip-path="url(#highcharts-3)"><path fill="none" d="M 17.0 270.0 L 51.2 261.1 L 85.4 217.3 L 119.5 167.2 L 153.7 116.2 L 187.9 71.5 L 222.0 46.5 L 256.2 52.7 L 290.4 88.5 L 324.5 142.1 L 358.7 191.3 L 392.9 245.9" stroke="black" stroke-width="5"  stroke-linejoin="round" stroke-linecap="round"  stroke-opacity="0.0" transform="translate(1, 1)"></path><path fill="none" d="M 17.0 270.0 L 51.2 261.1 L 85.4 217.3 L 119.5 167.2 L 153.7 116.2 L 187.9 71.5 L 222.0 46.5 L 256.2 52.7 L 290.4 88.5 L 324.5 142.1 L 358.7 191.3 L 392.9 245.9" stroke="black" stroke-width="3"  stroke-linejoin="round" stroke-linecap="round"  stroke-opacity="0.0" transform="translate(1, 1)"></path><path fill="none" d="M 17.0 270.0 L 51.2 261.1 L 85.4 217.3 L 119.5 167.2 L 153.7 116.2 L 187.9 71.5 L 222.0 46.5 L 256.2 52.7 L 290.4 88.5 L 324.5 142.1 L 358.7 191.3 L 392.9 245.9" stroke="black" stroke-width="1"  stroke-linejoin="round" stroke-linecap="round"  stroke-opacity="0.1" transform="translate(1, 1)"></path><path fill="none" d="M 17.0 270.0 L 51.2 261.1 L 85.4 217.3 L 119.5 167.2 L 153.7 116.2 L 187.9 71.5 L 222.0 46.5 L 256.2 52.7 L 290.4 88.5 L 324.5 142.1 L 358.7 191.3 L 392.9 245.9" stroke="#8085e9" stroke-width="2"  stroke-linejoin="round" stroke-linecap="round"></path><path fill="none" d="M 7.0 270.0 L 17.0 270.0 L 51.2 261.1 L 85.4 217.3 L 119.5 167.2 L 153.7 116.2 L 187.9 71.5 L 222.0 46.5 L 256.2 52.7 L 290.4 88.5 L 324.5 142.1 L 358.7 191.3 L 392.9 245.9 L 402.9 245.9" stroke-linejoin="round" visibility="visible" stroke="rgb(192,192,192)" stroke-opacity="0.0" stroke-width="22"  class=" highcharts-tracker" style=""></path></g><g class="highcharts-markers highcharts-tracker" visibility="visible"  transform="translate(58,53) scale(1 1)" clip-path="url(#highcharts-2)" style=""><path fill="#8085e9" d="M 392 241.9 L 396 245.9 392 249.9 388 245.9 Z"></path><path fill="#8085e9" d="M 358 187.3 L 362 191.3 358 195.3 354 191.3 Z"></path><path fill="#8085e9" d="M 324 138.1 L 328 142.1 324 146.1 320 142.1 Z"></path><path fill="#8085e9" d="M 290 84.5 L 294 88.5 290 92.5 286 88.5 Z"></path><path fill="#8085e9" d="M 256 48.7 L 260 52.7 256 56.7 252 52.7 Z"></path><path fill="#8085e9" d="M 222 42.5 L 226 46.5 222 50.5 218 46.5 Z"></path><path fill="#8085e9" d="M 187 67.5 L 191 71.5 187 75.5 183 71.5 Z"></path><path fill="#8085e9" d="M 153 112.2 L 157 116.2 153 120.2 149 116.2 Z"></path><path fill="#8085e9" d="M 119 163.2 L 123 167.2 119 171.2 115 167.2 Z"></path><path fill="#8085e9" d="M 85 213.3 L 89 217.3 85 221.3 81 217.3 Z"></path><path fill="#8085e9" d="M 51 257.1 L 55 261.1 51 265.1 47 261.1 Z"></path><path fill="#8085e9" d="M 17 266.0 L 21 270.0 17 274.0 13 270.0 Z"></path></g><g class="highcharts-series" visibility="visible"  transform="translate(58,53) scale(1 1)" clip-path="url(#highcharts-3)"><path fill="none" d="M 17.0 276.3 L 51.2 262.9 L 85.4 236.9 L 119.5 193.1 L 153.7 147.5 L 187.9 116.2 L 222.0 101.9 L 256.2 108.2 L 290.4 140.4 L 324.5 187.8 L 358.7 233.4 L 392.9 259.3" stroke="black" stroke-width="5"  stroke-linejoin="round" stroke-linecap="round"  stroke-opacity="0.0" transform="translate(1, 1)"></path><path fill="none" d="M 17.0 276.3 L 51.2 262.9 L 85.4 236.9 L 119.5 193.1 L 153.7 147.5 L 187.9 116.2 L 222.0 101.9 L 256.2 108.2 L 290.4 140.4 L 324.5 187.8 L 358.7 233.4 L 392.9 259.3" stroke="black" stroke-width="3"  stroke-linejoin="round" stroke-linecap="round"  stroke-opacity="0.0" transform="translate(1, 1)"></path><path fill="none" d="M 17.0 276.3 L 51.2 262.9 L 85.4 236.9 L 119.5 193.1 L 153.7 147.5 L 187.9 116.2 L 222.0 101.9 L 256.2 108.2 L 290.4 140.4 L 324.5 187.8 L 358.7 233.4 L 392.9 259.3" stroke="black" stroke-width="1"  stroke-linejoin="round" stroke-linecap="round"  stroke-opacity="0.1" transform="translate(1, 1)"></path><path fill="none" d="M 17.0 276.3 L 51.2 262.9 L 85.4 236.9 L 119.5 193.1 L 153.7 147.5 L 187.9 116.2 L 222.0 101.9 L 256.2 108.2 L 290.4 140.4 L 324.5 187.8 L 358.7 233.4 L 392.9 259.3" stroke="#8d4654" stroke-width="2"  stroke-linejoin="round" stroke-linecap="round"></path><path fill="none" d="M 7.0 276.3 L 17.0 276.3 L 51.2 262.9 L 85.4 236.9 L 119.5 193.1 L 153.7 147.5 L 187.9 116.2 L 222.0 101.9 L 256.2 108.2 L 290.4 140.4 L 324.5 187.8 L 358.7 233.4 L 392.9 259.3 L 402.9 259.3" stroke-linejoin="round" visibility="visible" stroke="rgb(192,192,192)" stroke-opacity="0.0" stroke-width="22"  class=" highcharts-tracker" style=""></path></g><g class="highcharts-markers highcharts-tracker" visibility="visible"  transform="translate(58,53) scale(1 1)" clip-path="url(#highcharts-2)" style=""><path fill="#8d4654" d="M 388 255.3 L 396 255.3 396 263.3 388 263.3 Z"></path><path fill="#8d4654" d="M 354 229.4 L 362 229.4 362 237.4 354 237.4 Z"></path><path fill="#8d4654" d="M 320 183.8 L 328 183.8 328 191.8 320 191.8 Z"></path><path fill="#8d4654" d="M 286 136.4 L 294 136.4 294 144.4 286 144.4 Z"></path><path fill="#8d4654" d="M 252 104.2 L 260 104.2 260 112.2 252 112.2 Z"></path><path fill="#8d4654" d="M 218 97.9 L 226 97.9 226 105.9 218 105.9 Z"></path><path fill="#8d4654" d="M 183 112.2 L 191 112.2 191 120.2 183 120.2 Z"></path><path fill="#8d4654" d="M 149 143.5 L 157 143.5 157 151.5 149 151.5 Z"></path><path fill="#8d4654" d="M 115 189.1 L 123 189.1 123 197.1 115 197.1 Z"></path><path fill="#8d4654" d="M 81 232.9 L 89 232.9 89 240.9 81 240.9 Z"></path><path fill="#8d4654" d="M 47 258.9 L 55 258.9 55 266.9 47 266.9 Z"></path><path fill="#8d4654" d="M 13 272.3 L 21 272.3 21 280.3 13 280.3 Z"></path></g><g class="highcharts-series" visibility="visible"  transform="translate(58,53) scale(1 1)" clip-path="url(#highcharts-3)"><path fill="none" d="M 17.0 233.4 L 51.2 230.7 L 85.4 217.3 L 119.5 192.2 L 153.7 161.8 L 187.9 132.3 L 222.0 116.2 L 256.2 119.8 L 290.4 141.2 L 324.5 176.1 L 358.7 209.2 L 392.9 225.3" stroke="black" stroke-width="5"  stroke-linejoin="round" stroke-linecap="round"  stroke-opacity="0.0" transform="translate(1, 1)"></path><path fill="none" d="M 17.0 233.4 L 51.2 230.7 L 85.4 217.3 L 119.5 192.2 L 153.7 161.8 L 187.9 132.3 L 222.0 116.2 L 256.2 119.8 L 290.4 141.2 L 324.5 176.1 L 358.7 209.2 L 392.9 225.3" stroke="black" stroke-width="3"  stroke-linejoin="round" stroke-linecap="round"  stroke-opacity="0.0" transform="translate(1, 1)"></path><path fill="none" d="M 17.0 233.4 L 51.2 230.7 L 85.4 217.3 L 119.5 192.2 L 153.7 161.8 L 187.9 132.3 L 222.0 116.2 L 256.2 119.8 L 290.4 141.2 L 324.5 176.1 L 358.7 209.2 L 392.9 225.3" stroke="black" stroke-width="1"  stroke-linejoin="round" stroke-linecap="round"  stroke-opacity="0.1" transform="translate(1, 1)"></path><path fill="none" d="M 17.0 233.4 L 51.2 230.7 L 85.4 217.3 L 119.5 192.2 L 153.7 161.8 L 187.9 132.3 L 222.0 116.2 L 256.2 119.8 L 290.4 141.2 L 324.5 176.1 L 358.7 209.2 L 392.9 225.3" stroke="#7798BF" stroke-width="2"  stroke-linejoin="round" stroke-linecap="round"></path><path fill="none" d="M 7.0 233.4 L 17.0 233.4 L 51.2 230.7 L 85.4 217.3 L 119.5 192.2 L 153.7 161.8 L 187.9 132.3 L 222.0 116.2 L 256.2 119.8 L 290.4 141.2 L 324.5 176.1 L 358.7 209.2 L 392.9 225.3 L 402.9 225.3" stroke-linejoin="round" visibility="visible" stroke="rgb(192,192,192)" stroke-opacity="0.0" stroke-width="22"  class=" highcharts-tracker" style=""></path></g><g class="highcharts-markers highcharts-tracker" visibility="visible"  transform="translate(58,53) scale(1 1)" clip-path="url(#highcharts-2)" style=""><path fill="#7798BF" d="M 392 221.3 L 396 229.3 388 229.3 Z"></path><path fill="#7798BF" d="M 358 205.2 L 362 213.2 354 213.2 Z"></path><path fill="#7798BF" d="M 324 172.1 L 328 180.1 320 180.1 Z"></path><path fill="#7798BF" d="M 290 137.2 L 294 145.2 286 145.2 Z"></path><path fill="#7798BF" d="M 256 115.8 L 260 123.8 252 123.8 Z"></path><path fill="#7798BF" d="M 222 112.2 L 226 120.2 218 120.2 Z"></path><path fill="#7798BF" d="M 187 128.3 L 191 136.3 183 136.3 Z"></path><path fill="#7798BF" d="M 153 157.8 L 157 165.8 149 165.8 Z"></path><path fill="#7798BF" d="M 119 188.2 L 123 196.2 115 196.2 Z"></path><path fill="#7798BF" d="M 85 213.3 L 89 221.3 81 221.3 Z"></path><path fill="#7798BF" d="M 51 226.7 L 55 234.7 47 234.7 Z"></path><path fill="#7798BF" d="M 17 229.4 L 21 237.4 13 237.4 Z"></path></g></g><text x="272" text-anchor="middle" class="highcharts-title"  style="color:black;font-size:16px;font-weight:bold;fill:black;width:520px;" y="22"><tspan>Monthly Average Temperature</tspan></text><text x="272" text-anchor="middle" class="highcharts-subtitle"  style="color:black;fill:black;width:520px;" y="40"><tspan>Source: WorldClimate.com</tspan></text><g class="highcharts-legend"  transform="translate(480,166)"><g ><g><g class="highcharts-legend-item"  transform="translate(8,3)"><path fill="none" d="M 0 12 L 16 12" stroke="#f45b5b" stroke-width="2"></path><path fill="#f45b5b" d="M 8 8 C 13.3 8 13.3 16 8 16 C 2.6 16 2.6 8 8 8 Z"></path><text x="21" style="color:#333333;font-size:13px;font-weight:bold;cursor:pointer;fill:#333333;" text-anchor="start"  y="16">Tokyo</text></g><g class="highcharts-legend-item"  transform="translate(8,16)"><path fill="none" d="M 0 12 L 16 12" stroke="#8085e9" stroke-width="2"></path><path fill="#8085e9" d="M 8 8 L 12 12 8 16 4 12 Z"></path><text x="21" y="16" style="color:#333333;font-size:13px;font-weight:bold;cursor:pointer;fill:#333333;" text-anchor="start" ><tspan>New York</tspan></text></g><g class="highcharts-legend-item"  transform="translate(8,29)"><path fill="none" d="M 0 12 L 16 12" stroke="#8d4654" stroke-width="2"></path><path fill="#8d4654" d="M 4 8 L 12 8 12 16 4 16 Z"></path><text x="21" y="16" style="color:#333333;font-size:13px;font-weight:bold;cursor:pointer;fill:#333333;" text-anchor="start" >Berlin</text></g><g class="highcharts-legend-item"  transform="translate(8,42)"><path fill="none" d="M 0 12 L 16 12" stroke="#7798BF" stroke-width="2"></path><path fill="#7798BF" d="M 8 8 L 12 16 4 16 Z"></path><text x="21" y="16" style="color:#333333;font-size:13px;font-weight:bold;cursor:pointer;fill:#333333;" text-anchor="start" >London</text></g></g></g></g><g class="highcharts-axis-labels highcharts-xaxis-labels" ><text x="75.0" style="color:#6e6e70;cursor:default;font-size:11px;fill:#6e6e70;" text-anchor="middle" transform="translate(0,0)" y="385" opacity="1">Jan</text><text x="109.2" style="color:#6e6e70;cursor:default;font-size:11px;fill:#6e6e70;" text-anchor="middle" transform="translate(0,0)" y="385" opacity="1">Feb</text><text x="143.4" style="color:#6e6e70;cursor:default;font-size:11px;fill:#6e6e70;" text-anchor="middle" transform="translate(0,0)" y="385" opacity="1">Mar</text><text x="177.5" style="color:#6e6e70;cursor:default;font-size:11px;fill:#6e6e70;" text-anchor="middle" transform="translate(0,0)" y="385" opacity="1">Apr</text><text x="211.7" style="color:#6e6e70;cursor:default;font-size:11px;fill:#6e6e70;" text-anchor="middle" transform="translate(0,0)" y="385" opacity="1">May</text><text x="245.9" style="color:#6e6e70;cursor:default;font-size:11px;fill:#6e6e70;" text-anchor="middle" transform="translate(0,0)" y="385" opacity="1">Jun</text><text x="280.0" style="color:#6e6e70;cursor:default;font-size:11px;fill:#6e6e70;" text-anchor="middle" transform="translate(0,0)" y="385" opacity="1">Jul</text><text x="314.2" style="color:#6e6e70;cursor:default;font-size:11px;fill:#6e6e70;" text-anchor="middle" transform="translate(0,0)" y="385" opacity="1">Aug</text><text x="348.4" style="color:#6e6e70;cursor:default;font-size:11px;fill:#6e6e70;" text-anchor="middle" transform="translate(0,0)" y="385" opacity="1">Sep</text><text x="382.5" style="color:#6e6e70;cursor:default;font-size:11px;fill:#6e6e70;" text-anchor="middle" transform="translate(0,0)" y="385" opacity="1">Oct</text><text x="416.7" style="color:#6e6e70;cursor:default;font-size:11px;fill:#6e6e70;" text-anchor="middle" transform="translate(0,0)" y="385" opacity="1">Nov</text><text x="450.9" style="color:#6e6e70;cursor:default;font-size:11px;fill:#6e6e70;" text-anchor="middle" transform="translate(0,0)" y="385" opacity="1">Dec</text></g><g class="highcharts-axis-labels highcharts-yaxis-labels" ><text x="43" style="color:#6e6e70;cursor:default;font-size:11px;fill:#6e6e70;width:183px;text-overflow:clip;" text-anchor="end" transform="translate(0,0)" y="372" opacity="1">-5</text><text x="43" style="color:#6e6e70;cursor:default;font-size:11px;fill:#6e6e70;width:183px;text-overflow:clip;" text-anchor="end" transform="translate(0,0)" y="327" opacity="1">0</text><text x="43" style="color:#6e6e70;cursor:default;font-size:11px;fill:#6e6e70;width:183px;text-overflow:clip;" text-anchor="end" transform="translate(0,0)" y="282" opacity="1">5</text><text x="43" style="color:#6e6e70;cursor:default;font-size:11px;fill:#6e6e70;width:183px;text-overflow:clip;" text-anchor="end" transform="translate(0,0)" y="237" opacity="1">10</text><text x="43" style="color:#6e6e70;cursor:default;font-size:11px;fill:#6e6e70;width:183px;text-overflow:clip;" text-anchor="end" transform="translate(0,0)" y="193" opacity="1">15</text><text x="43" style="color:#6e6e70;cursor:default;font-size:11px;fill:#6e6e70;width:183px;text-overflow:clip;" text-anchor="end" transform="translate(0,0)" y="148" opacity="1">20</text><text x="43" style="color:#6e6e70;cursor:default;font-size:11px;fill:#6e6e70;width:183px;text-overflow:clip;" text-anchor="end" transform="translate(0,0)" y="103" opacity="1">25</text><text x="43" style="color:#6e6e70;cursor:default;font-size:11px;fill:#6e6e70;width:183px;text-overflow:clip;" text-anchor="end" transform="translate(0,0)" y="59" opacity="1">30</text></g><g class="highcharts-tooltip"  style="cursor:default;padding:0;white-space:nowrap;" transform="translate(0,-9999)"><path fill="none" d="M 3 0 L 13 0 C 16 0 16 0 16 3 L 16 13 C 16 16 16 16 13 16 L 3 16 C 0 16 0 16 0 13 L 0 3 C 0 0 0 0 3 0"  stroke="black" stroke-opacity="0.0" stroke-width="5" transform="translate(1, 1)"></path><path fill="none" d="M 3 0 L 13 0 C 16 0 16 0 16 3 L 16 13 C 16 16 16 16 13 16 L 3 16 C 0 16 0 16 0 13 L 0 3 C 0 0 0 0 3 0"  stroke="black" stroke-opacity="0.0" stroke-width="3" transform="translate(1, 1)"></path><path fill="none" d="M 3 0 L 13 0 C 16 0 16 0 16 3 L 16 13 C 16 16 16 16 13 16 L 3 16 C 0 16 0 16 0 13 L 0 3 C 0 0 0 0 3 0"  stroke="black" stroke-opacity="0.1" stroke-width="1" transform="translate(1, 1)"></path><path fill="rgb(249, 249, 249)" fill-opacity=" .85" d="M 3 0 L 13 0 C 16 0 16 0 16 3 L 16 13 C 16 16 16 16 13 16 L 3 16 C 0 16 0 16 0 13 L 0 3 C 0 0 0 0 3 0"></path><text x="8"  style="font-size:12px;color:#333333;fill:#333333;" y="20"></text></g></svg>