<svg version="1.1" style="font-family: signika, serif; font-size: 12px; background-image: url(http://www.highcharts.com/samples/graphics/sand.png); background-position: initial initial; background-repeat: initial initial;" xmlns="http://www.w3.org/2000/svg" width="584" height="400" viewBox="0 0 584 400" xmlns:xlink="http://www.w3.org/1999/xlink"><style type="text/css"><![CDATA[@import url(http://fonts.googleapis.com/css?family=Signika:700);]]></style><desc>Created with Highcharts 4.1.7</desc><defs><clipPath id="highcharts-1"><rect x="0" y="0" width="510" height="289"></rect></clipPath><clipPath id="highcharts-2"><rect x="-99" y="-41" width="609" height="400"></rect></clipPath><clipPath id="highcharts-3"><rect x="0" y="0" width="510" height="289"></rect></clipPath></defs><g class="highcharts-grid" ></g><g class="highcharts-grid" ><path fill="none" d="M 64 330.5 L 574 330.5" stroke="#E0E0E0" stroke-width="1" opacity="1"></path><path fill="none" d="M 64 308.5 L 574 308.5" stroke="#E0E0E0" stroke-width="1" opacity="1"></path><path fill="none" d="M 64 296.5 L 574 296.5" stroke="#E0E0E0" stroke-width="1" opacity="1"></path><path fill="none" d="M 64 287.5 L 574 287.5" stroke="#E0E0E0" stroke-width="1" opacity="1"></path><path fill="none" d="M 64 279.5 L 574 279.5" stroke="#E0E0E0" stroke-width="1" opacity="1"></path><path fill="none" d="M 64 274.5 L 574 274.5" stroke="#E0E0E0" stroke-width="1" opacity="1"></path><path fill="none" d="M 64 269.5 L 574 269.5" stroke="#E0E0E0" stroke-width="1" opacity="1"></path><path fill="none" d="M 64 265.5 L 574 265.5" stroke="#E0E0E0" stroke-width="1" opacity="1"></path><path fill="none" d="M 64 261.5 L 574 261.5" stroke="#E0E0E0" stroke-width="1" opacity="1"></path><path fill="none" d="M 64 258.5 L 574 258.5" stroke="#E0E0E0" stroke-width="1" opacity="1"></path><path fill="none" d="M 64 236.5 L 574 236.5" stroke="#E0E0E0" stroke-width="1" opacity="1"></path><path fill="none" d="M 64 223.5 L 574 223.5" stroke="#E0E0E0" stroke-width="1" opacity="1"></path><path fill="none" d="M 64 214.5 L 574 214.5" stroke="#E0E0E0" stroke-width="1" opacity="1"></path><path fill="none" d="M 64 207.5 L 574 207.5" stroke="#E0E0E0" stroke-width="1" opacity="1"></path><path fill="none" d="M 64 202.5 L 574 202.5" stroke="#E0E0E0" stroke-width="1" opacity="1"></path><path fill="none" d="M 64 197.5 L 574 197.5" stroke="#E0E0E0" stroke-width="1" opacity="1"></path><path fill="none" d="M 64 193.5 L 574 193.5" stroke="#E0E0E0" stroke-width="1" opacity="1"></path><path fill="none" d="M 64 189.5 L 574 189.5" stroke="#E0E0E0" stroke-width="1" opacity="1"></path><path fill="none" d="M 64 186.5 L 574 186.5" stroke="#E0E0E0" stroke-width="1" opacity="1"></path><path fill="none" d="M 64 164.5 L 574 164.5" stroke="#E0E0E0" stroke-width="1" opacity="1"></path><path fill="none" d="M 64 151.5 L 574 151.5" stroke="#E0E0E0" stroke-width="1" opacity="1"></path><path fill="none" d="M 64 142.5 L 574 142.5" stroke="#E0E0E0" stroke-width="1" opacity="1"></path><path fill="none" d="M 64 135.5 L 574 135.5" stroke="#E0E0E0" stroke-width="1" opacity="1"></path><path fill="none" d="M 64 129.5 L 574 129.5" stroke="#E0E0E0" stroke-width="1" opacity="1"></path><path fill="none" d="M 64 124.5 L 574 124.5" stroke="#E0E0E0" stroke-width="1" opacity="1"></path><path fill="none" d="M 64 120.5 L 574 120.5" stroke="#E0E0E0" stroke-width="1" opacity="1"></path><path fill="none" d="M 64 117.5 L 574 117.5" stroke="#E0E0E0" stroke-width="1" opacity="1"></path><path fill="none" d="M 64 113.5 L 574 113.5" stroke="#E0E0E0" stroke-width="1" opacity="1"></path><path fill="none" d="M 64 92.5 L 574 92.5" stroke="#E0E0E0" stroke-width="1" opacity="1"></path><path fill="none" d="M 64 79.5 L 574 79.5" stroke="#E0E0E0" stroke-width="1" opacity="1"></path><path fill="none" d="M 64 70.5 L 574 70.5" stroke="#E0E0E0" stroke-width="1" opacity="1"></path><path fill="none" d="M 64 63.5 L 574 63.5" stroke="#E0E0E0" stroke-width="1" opacity="1"></path><path fill="none" d="M 64 57.5 L 574 57.5" stroke="#E0E0E0" stroke-width="1" opacity="1"></path><path fill="none" d="M 64 52.5 L 574 52.5" stroke="#E0E0E0" stroke-width="1" opacity="1"></path><path fill="none" d="M 64 48.5 L 574 48.5" stroke="#E0E0E0" stroke-width="1" opacity="1"></path><path fill="none" d="M 64 44.5 L 574 44.5" stroke="#E0E0E0" stroke-width="1" opacity="1"></path><path fill="none" d="M 64 41.5 L 574 41.5" stroke="#E0E0E0" stroke-width="1" opacity="1"></path><path fill="none" d="M 64 330.5 L 574 330.5" stroke="#D8D8D8" stroke-width="1"  opacity="1"></path><path fill="none" d="M 64 258.5 L 574 258.5" stroke="#D8D8D8" stroke-width="1"  opacity="1"></path><path fill="none" d="M 64 186.5 L 574 186.5" stroke="#D8D8D8" stroke-width="1"  opacity="1"></path><path fill="none" d="M 64 113.5 L 574 113.5" stroke="#D8D8D8" stroke-width="1"  opacity="1"></path><path fill="none" d="M 64 40.5 L 574 40.5" stroke="#D8D8D8" stroke-width="1"  opacity="1"></path></g><g class="highcharts-axis" ><path fill="none" d="M 68.5 330 L 68.5 340" stroke="#C0D0E0" stroke-width="1" opacity="1"></path><path fill="none" d="M 124.5 330 L 124.5 340" stroke="#C0D0E0" stroke-width="1" opacity="1"></path><path fill="none" d="M 179.5 330 L 179.5 340" stroke="#C0D0E0" stroke-width="1" opacity="1"></path><path fill="none" d="M 235.5 330 L 235.5 340" stroke="#C0D0E0" stroke-width="1" opacity="1"></path><path fill="none" d="M 290.5 330 L 290.5 340" stroke="#C0D0E0" stroke-width="1" opacity="1"></path><path fill="none" d="M 346.5 330 L 346.5 340" stroke="#C0D0E0" stroke-width="1" opacity="1"></path><path fill="none" d="M 401.5 330 L 401.5 340" stroke="#C0D0E0" stroke-width="1" opacity="1"></path><path fill="none" d="M 457.5 330 L 457.5 340" stroke="#C0D0E0" stroke-width="1" opacity="1"></path><path fill="none" d="M 512.5 330 L 512.5 340" stroke="#C0D0E0" stroke-width="1" opacity="1"></path><path fill="none" d="M 568.5 330 L 568.5 340" stroke="#C0D0E0" stroke-width="1" opacity="1"></path><path fill="none" d="M 64 330.5 L 574 330.5" stroke="#C0D0E0" stroke-width="1"  visibility="visible"></path></g><g class="highcharts-axis" ><text x="22.5"  text-anchor="middle" transform="translate(0,0) rotate(270 22.5 185.5)" class=" highcharts-yaxis-title" style="color:#707070;fill:#707070;" visibility="visible" y="185.5">Values</text></g><g class="highcharts-series-group" ><g class="highcharts-series" visibility="visible"  transform="translate(64,41) scale(1 1)" clip-path="url(#highcharts-3)"><path fill="none" d="M 4.9 216.7 L 60.5 195.0 L 116.1 173.2 L 171.6 151.5 L 227.2 129.7 L 282.7 108.0 L 338.3 86.2 L 393.8 64.5 L 449.4 42.7 L 505 21.0" stroke="black" stroke-width="5"  stroke-linejoin="round" stroke-linecap="round"  stroke-opacity="0.0" transform="translate(1, 1)"></path><path fill="none" d="M 4.9 216.7 L 60.5 195.0 L 116.1 173.2 L 171.6 151.5 L 227.2 129.7 L 282.7 108.0 L 338.3 86.2 L 393.8 64.5 L 449.4 42.7 L 505 21.0" stroke="black" stroke-width="3"  stroke-linejoin="round" stroke-linecap="round"  stroke-opacity="0.0" transform="translate(1, 1)"></path><path fill="none" d="M 4.9 216.7 L 60.5 195.0 L 116.1 173.2 L 171.6 151.5 L 227.2 129.7 L 282.7 108.0 L 338.3 86.2 L 393.8 64.5 L 449.4 42.7 L 505 21.0" stroke="black" stroke-width="1"  stroke-linejoin="round" stroke-linecap="round"  stroke-opacity="0.1" transform="translate(1, 1)"></path><path fill="none" d="M 4.9 216.7 L 60.5 195.0 L 116.1 173.2 L 171.6 151.5 L 227.2 129.7 L 282.7 108.0 L 338.3 86.2 L 393.8 64.5 L 449.4 42.7 L 505 21.0" stroke="#f45b5b" stroke-width="2"  stroke-linejoin="round" stroke-linecap="round"></path><path fill="none" d="M -5.0 216.7 L 4.9 216.7 L 60.5 195.0 L 116.1 173.2 L 171.6 151.5 L 227.2 129.7 L 282.7 108.0 L 338.3 86.2 L 393.8 64.5 L 449.4 42.7 L 505 21.0 L 515 21.0" stroke-linejoin="round" visibility="visible" stroke="rgb(192,192,192)" stroke-opacity="0.0" stroke-width="22"  class=" highcharts-tracker" style=""></path></g><g class="highcharts-markers highcharts-tracker" visibility="visible"  transform="translate(64,41) scale(1 1)" clip-path="url(#highcharts-2)" style=""><path fill="#f45b5b" d="M 505 17.0 C 510.3 17.0 510.3 25.0 505 25.0 C 499.6 25.0 499.6 17.0 505 17.0 Z"></path><path fill="#f45b5b" d="M 449 38.7 C 454.3 38.7 454.3 46.7 449 46.7 C 443.6 46.7 443.6 38.7 449 38.7 Z"></path><path fill="#f45b5b" d="M 393 60.5 C 398.3 60.5 398.3 68.5 393 68.5 C 387.6 68.5 387.6 60.5 393 60.5 Z"></path><path fill="#f45b5b" d="M 338 82.2 C 343.3 82.2 343.3 90.2 338 90.2 C 332.6 90.2 332.6 82.2 338 82.2 Z"></path><path fill="#f45b5b" d="M 282 104.0 C 287.3 104.0 287.3 112.0 282 112.0 C 276.6 112.0 276.6 104.0 282 104.0 Z"></path><path fill="#f45b5b" d="M 227 125.7 C 232.3 125.7 232.3 133.7 227 133.7 C 221.6 133.7 221.6 125.7 227 125.7 Z"></path><path fill="#f45b5b" d="M 171 147.5 C 176.3 147.5 176.3 155.5 171 155.5 C 165.6 155.5 165.6 147.5 171 147.5 Z"></path><path fill="#f45b5b" d="M 116 169.2 C 121.3 169.2 121.3 177.2 116 177.2 C 110.6 177.2 110.6 169.2 116 169.2 Z"></path><path fill="#f45b5b" d="M 60 191.0 C 65.3 191.0 65.3 199.0 60 199.0 C 54.6 199.0 54.6 191.0 60 191.0 Z"></path><path fill="#f45b5b" d="M 4 212.7 C 9.3 212.7 9.3 220.7 4 220.7 C -1.3 220.7 -1.3 212.7 4 212.7 Z"></path></g></g><text x="292" text-anchor="middle" class="highcharts-title"  style="color:black;font-size:16px;font-weight:bold;fill:black;width:520px;" y="22"><tspan>Logarithmic axis demo</tspan></text><g class="highcharts-legend"  transform="translate(252,361)"><g ><g><g class="highcharts-legend-item"  transform="translate(8,3)"><path fill="none" d="M 0 12 L 16 12" stroke="#f45b5b" stroke-width="2"></path><path fill="#f45b5b" d="M 8 8 C 13.3 8 13.3 16 8 16 C 2.6 16 2.6 8 8 8 Z"></path><text x="21" style="color:#333333;font-size:13px;font-weight:bold;cursor:pointer;fill:#333333;" text-anchor="start"  y="16"><tspan>Series 1</tspan></text></g></g></g></g><g class="highcharts-axis-labels highcharts-xaxis-labels" ><text x="69" style="color:#6e6e70;cursor:default;font-size:11px;fill:#6e6e70;" text-anchor="middle" transform="translate(0,0)" y="349" opacity="1">1</text><text x="124.5" style="color:#6e6e70;cursor:default;font-size:11px;fill:#6e6e70;" text-anchor="middle" transform="translate(0,0)" y="349" opacity="1">2</text><text x="180.1" style="color:#6e6e70;cursor:default;font-size:11px;fill:#6e6e70;" text-anchor="middle" transform="translate(0,0)" y="349" opacity="1">3</text><text x="235.6" style="color:#6e6e70;cursor:default;font-size:11px;fill:#6e6e70;" text-anchor="middle" transform="translate(0,0)" y="349" opacity="1">4</text><text x="291.2" style="color:#6e6e70;cursor:default;font-size:11px;fill:#6e6e70;" text-anchor="middle" transform="translate(0,0)" y="349" opacity="1">5</text><text x="346.7" style="color:#6e6e70;cursor:default;font-size:11px;fill:#6e6e70;" text-anchor="middle" transform="translate(0,0)" y="349" opacity="1">6</text><text x="402.3" style="color:#6e6e70;cursor:default;font-size:11px;fill:#6e6e70;" text-anchor="middle" transform="translate(0,0)" y="349" opacity="1">7</text><text x="457.8" style="color:#6e6e70;cursor:default;font-size:11px;fill:#6e6e70;" text-anchor="middle" transform="translate(0,0)" y="349" opacity="1">8</text><text x="513.4" style="color:#6e6e70;cursor:default;font-size:11px;fill:#6e6e70;" text-anchor="middle" transform="translate(0,0)" y="349" opacity="1">9</text><text x="568.5" style="color:#6e6e70;cursor:default;font-size:11px;fill:#6e6e70;" text-anchor="middle" transform="translate(0,0)" y="349" opacity="1">10</text></g><g class="highcharts-axis-labels highcharts-yaxis-labels" ><text x="49" style="color:#6e6e70;cursor:default;font-size:11px;fill:#6e6e70;width:183px;text-overflow:clip;" text-anchor="end" transform="translate(0,0)" y="336" opacity="1">0.1</text><text x="49" style="color:#6e6e70;cursor:default;font-size:11px;fill:#6e6e70;width:183px;text-overflow:clip;" text-anchor="end" transform="translate(0,0)" y="263" opacity="1">1</text><text x="49" style="color:#6e6e70;cursor:default;font-size:11px;fill:#6e6e70;width:183px;text-overflow:clip;" text-anchor="end" transform="translate(0,0)" y="191" opacity="1">10</text><text x="49" style="color:#6e6e70;cursor:default;font-size:11px;fill:#6e6e70;width:183px;text-overflow:clip;" text-anchor="end" transform="translate(0,0)" y="119" opacity="1">100</text><text x="49" style="color:#6e6e70;cursor:default;font-size:11px;fill:#6e6e70;width:183px;text-overflow:clip;" text-anchor="end" transform="translate(0,0)" y="47" opacity="1">1k</text></g><g class="highcharts-tooltip"  style="cursor:default;padding:0;white-space:nowrap;" transform="translate(0,-9999)"><path fill="none" d="M 3 0 L 13 0 C 16 0 16 0 16 3 L 16 13 C 16 16 16 16 13 16 L 3 16 C 0 16 0 16 0 13 L 0 3 C 0 0 0 0 3 0"  stroke="black" stroke-opacity="0.0" stroke-width="5" transform="translate(1, 1)"></path><path fill="none" d="M 3 0 L 13 0 C 16 0 16 0 16 3 L 16 13 C 16 16 16 16 13 16 L 3 16 C 0 16 0 16 0 13 L 0 3 C 0 0 0 0 3 0"  stroke="black" stroke-opacity="0.0" stroke-width="3" transform="translate(1, 1)"></path><path fill="none" d="M 3 0 L 13 0 C 16 0 16 0 16 3 L 16 13 C 16 16 16 16 13 16 L 3 16 C 0 16 0 16 0 13 L 0 3 C 0 0 0 0 3 0"  stroke="black" stroke-opacity="0.1" stroke-width="1" transform="translate(1, 1)"></path><path fill="rgb(249, 249, 249)" fill-opacity=" .85" d="M 3 0 L 13 0 C 16 0 16 0 16 3 L 16 13 C 16 16 16 16 13 16 L 3 16 C 0 16 0 16 0 13 L 0 3 C 0 0 0 0 3 0"></path><text x="8"  style="font-size:12px;color:#333333;fill:#333333;" y="20"></text></g></svg>