<svg version="1.1" style="font-family: signika, serif; font-size: 12px; background-image: url(http://www.highcharts.com/samples/graphics/sand.png); background-position: initial initial; background-repeat: initial initial;" xmlns="http://www.w3.org/2000/svg" width="584" height="400" viewBox="0 0 584 400" xmlns:xlink="http://www.w3.org/1999/xlink"><style type="text/css"><![CDATA[@import url(http://fonts.googleapis.com/css?family=Signika:700);]]></style><desc>Created with Highcharts 4.1.7</desc><defs><clipPath id="highcharts-1"><rect x="0" y="0" width="508" height="313"></rect></clipPath><clipPath id="highcharts-2"><rect x="-99" y="-53" width="607" height="400"></rect></clipPath><clipPath id="highcharts-3"><rect x="0" y="0" width="508" height="313"></rect></clipPath><linearGradient x1="0" y1="0" x2="0" y2="1" id="highcharts-4"><stop offset="0" stop-color="#f45b5b" stop-opacity="1"></stop><stop offset="1" stop-color="rgb(244,91,91)" stop-opacity="0"></stop></linearGradient></defs><g class="highcharts-grid" ></g><g class="highcharts-grid" ><path fill="none" d="M 66 366.5 L 574 366.5" stroke="#D8D8D8" stroke-width="1"  opacity="1"></path><path fill="none" d="M 66 314.5 L 574 314.5" stroke="#D8D8D8" stroke-width="1"  opacity="1"></path><path fill="none" d="M 66 262.5 L 574 262.5" stroke="#D8D8D8" stroke-width="1"  opacity="1"></path><path fill="none" d="M 66 210.5 L 574 210.5" stroke="#D8D8D8" stroke-width="1"  opacity="1"></path><path fill="none" d="M 66 157.5 L 574 157.5" stroke="#D8D8D8" stroke-width="1"  opacity="1"></path><path fill="none" d="M 66 105.5 L 574 105.5" stroke="#D8D8D8" stroke-width="1"  opacity="1"></path><path fill="none" d="M 66 52.5 L 574 52.5" stroke="#D8D8D8" stroke-width="1"  opacity="1"></path></g><g class="highcharts-axis" ><path fill="none" d="M 89.5 366 L 89.5 376" stroke="#C0D0E0" stroke-width="1" opacity="1"></path><path fill="none" d="M 210.5 366 L 210.5 376" stroke="#C0D0E0" stroke-width="1" opacity="1"></path><path fill="none" d="M 329.5 366 L 329.5 376" stroke="#C0D0E0" stroke-width="1" opacity="1"></path><path fill="none" d="M 450.5 366 L 450.5 376" stroke="#C0D0E0" stroke-width="1" opacity="1"></path><path fill="none" d="M 569.5 366 L 569.5 376" stroke="#C0D0E0" stroke-width="1" opacity="1"></path><path fill="none" d="M 66 366.5 L 574 366.5" stroke="#C0D0E0" stroke-width="1"  visibility="visible"></path></g><g class="highcharts-axis" ><text x="21.7"  text-anchor="middle" transform="translate(0,0) rotate(270 21.7 209.5)" class=" highcharts-yaxis-title" style="color:#707070;fill:#707070;" visibility="visible" y="209.5"><tspan>Exchange rate</tspan></text></g><g class="highcharts-series-group" ><g class="highcharts-series" visibility="visible"  transform="translate(66,53) scale(1 1)" clip-path="url(#highcharts-3)"><path fill="url(#highcharts-4)" d="M 4.9 240.4 L 5.6 245.3 L 6.2 245.7 L 6.9 246.4 L 7.6 255.7 L 8.2 254.3 L 9.5 253.1 L 10.2 256.3 L 10.8 259.7 L 11.5 261.0 L 12.2 263.2 L 12.8 261.6 L 14.1 262.1 L 14.8 262.9 L 15.4 264.3 L 16.1 258.6 L 16.8 254.1 L 17.4 248.2 L 18.7 247.2 L 19.4 248.0 L 20.0 245.8 L 20.7 241.5 L 21.4 242.9 L 22.0 241.3 L 23.3 241.3 L 24.0 244.7 L 24.6 239.4 L 25.3 241.3 L 26.0 235.3 L 26.6 230.2 L 27.9 229.1 L 28.6 232.6 L 29.2 227.0 L 29.9 239.4 L 30.6 246.7 L 31.2 244.9 L 32.5 244.5 L 33.2 244.6 L 33.8 250.6 L 34.5 248.4 L 35.2 247.4 L 35.8 249.4 L 37.1 250.5 L 37.8 252.0 L 38.4 254.3 L 39.1 253.0 L 39.8 257.5 L 40.4 257.7 L 41.7 258.1 L 42.4 256.6 L 43.0 256.6 L 43.7 258.9 L 44.4 253.4 L 45.0 257.8 L 46.3 257.4 L 47.0 256.4 L 47.6 259.2 L 48.3 261.0 L 49.0 263.6 L 49.6 261.4 L 50.9 261.1 L 51.6 258.8 L 52.2 256.6 L 52.9 256.3 L 53.6 261.6 L 54.2 260.6 L 55.5 260.5 L 56.2 260.9 L 56.8 265.7 L 57.5 262.1 L 58.2 262.1 L 58.8 263.7 L 60.1 263.8 L 60.8 262.9 L 61.4 264.2 L 62.1 261.1 L 62.8 255.4 L 63.4 254.3 L 64.7 253.3 L 65.4 252.3 L 66.0 251.1 L 66.7 253.4 L 67.3 248.1 L 68.0 251.6 L 69.3 251.3 L 70.0 256.2 L 70.6 256.9 L 71.3 259.5 L 71.9 258.8 L 72.6 258.5 L 73.9 262.2 L 74.6 260.8 L 75.2 262.2 L 75.9 271.6 L 76.5 272.2 L 77.2 271.8 L 78.5 272.4 L 79.2 270.1 L 79.8 268.9 L 80.5 271.9 L 81.1 269.9 L 81.8 271.6 L 83.1 270.2 L 83.8 271.9 L 84.4 271.9 L 85.1 274.9 L 85.7 277.2 L 86.4 273.7 L 87.7 274.3 L 88.4 275.2 L 89.0 274.6 L 89.7 271.9 L 90.3 271.5 L 91.0 272.8 L 92.3 273.6 L 93.0 273.9 L 93.6 271.7 L 94.3 272.4 L 94.9 280.4 L 95.6 280.9 L 96.9 280.7 L 97.6 280.8 L 98.2 286.2 L 98.9 286.0 L 99.5 287.2 L 100.2 287.5 L 101.5 287.5 L 102.2 286.3 L 102.8 284.3 L 103.5 283.7 L 104.1 275.3 L 104.8 269.7 L 106.1 270.1 L 106.8 271.3 L 107.4 269.0 L 108.1 271.2 L 108.7 265.8 L 109.4 263.0 L 110.7 261.6 L 111.4 265.0 L 112.0 266.8 L 112.7 269.7 L 113.3 268.2 L 114.0 270.2 L 115.3 269.4 L 116.0 270.7 L 116.6 272.7 L 117.3 266.9 L 117.9 269.3 L 118.6 273.7 L 119.9 273.4 L 120.6 271.3 L 121.2 274.5 L 121.9 274.9 L 122.5 276.4 L 123.2 275.6 L 124.5 275.2 L 125.2 272.8 L 125.8 275.5 L 126.5 275.7 L 127.1 279.9 L 127.8 282.0 L 129.1 282.1 L 129.8 283.8 L 130.4 285.1 L 131.1 286.4 L 131.7 284.8 L 132.4 284.2 L 133.7 283.9 L 134.4 285.1 L 135.0 285.5 L 135.7 280.9 L 136.3 279.7 L 137.0 280.1 L 138.3 280.5 L 139.0 281.5 L 139.6 280.8 L 140.3 280.6 L 140.9 281.2 L 141.6 284.0 L 142.9 284.6 L 143.6 287.5 L 144.2 284.3 L 144.9 284.7 L 145.5 280.2 L 146.2 275.5 L 147.5 275.9 L 148.2 277.7 L 148.8 277.0 L 149.5 274.8 L 150.1 276.5 L 150.8 280.0 L 152.1 280.1 L 152.8 280.1 L 153.4 280.6 L 154.1 276.4 L 154.7 277.4 L 155.4 272.8 L 156.7 272.1 L 157.4 273.4 L 158.0 274.0 L 158.7 273.2 L 159.3 281.5 L 160.0 280.5 L 161.3 281.0 L 162.0 280.2 L 162.6 280.0 L 163.3 279.7 L 163.9 273.6 L 164.6 269.7 L 165.9 269.8 L 166.6 271.9 L 167.2 271.5 L 167.9 272.4 L 168.5 275.6 L 169.2 278.1 L 170.5 277.2 L 171.2 278.7 L 171.8 278.3 L 172.5 275.8 L 173.1 280.7 L 173.8 281.2 L 175.1 281.7 L 175.8 282.2 L 176.4 285.0 L 177.1 283.6 L 177.7 282.8 L 178.4 283.9 L 179.7 283.7 L 180.4 283.7 L 181.0 284.3 L 181.7 281.0 L 182.3 282.2 L 183.0 287.4 L 184.3 285.9 L 185.0 283.7 L 185.6 284.2 L 186.3 283.5 L 186.9 290.5 L 187.6 291.5 L 188.9 291.5 L 189.6 291.4 L 190.2 290.4 L 190.9 292.9 L 191.5 291.0 L 192.2 293.4 L 193.5 293.3 L 194.2 293.9 L 194.8 294.5 L 195.5 289.1 L 196.1 286.0 L 196.8 287.0 L 198.1 287.2 L 198.8 289.4 L 199.4 288.7 L 200.1 286.3 L 200.7 283.9 L 201.4 284.7 L 202.7 284.6 L 203.4 285.7 L 204.0 286.9 L 204.7 285.4 L 205.3 282.8 L 206.0 281.9 L 207.3 281.9 L 208.0 283.9 L 208.6 287.1 L 209.3 290.2 L 209.9 292.1 L 210.6 291.9 L 211.9 289.8 L 212.6 288.3 L 213.2 288.0 L 213.9 288.1 L 214.5 288.1 L 215.2 288.1 L 216.5 288.0 L 217.2 286.9 L 217.8 287.5 L 218.5 288.1 L 219.1 289.1 L 219.8 289.1 L 221.1 289.4 L 221.8 290.0 L 222.4 287.9 L 223.1 290.9 L 223.7 291.0 L 224.4 291.1 L 225.7 291.1 L 226.4 291.4 L 227.0 294.2 L 227.7 293.3 L 228.3 289.5 L 229.0 285.0 L 230.3 285.1 L 231.0 284.9 L 231.6 282.0 L 232.3 282.6 L 232.9 282.3 L 233.6 281.4 L 234.9 281.9 L 235.6 282.2 L 236.2 281.9 L 236.9 280.9 L 237.5 279.3 L 238.2 278.0 L 239.5 277.7 L 240.2 278.6 L 240.8 278.0 L 241.5 275.6 L 242.1 276.3 L 242.8 277.8 L 244.1 277.7 L 244.8 275.9 L 245.4 277.7 L 246.1 276.1 L 246.7 279.5 L 247.4 278.5 L 248.7 278.8 L 249.4 275.8 L 250.0 273.2 L 250.7 272.4 L 251.3 273.4 L 252.0 272.9 L 253.3 272.5 L 254 274.7 L 254.6 273.1 L 255.3 275.8 L 255.9 276.5 L 256.6 276.1 L 257.9 275.7 L 258.5 276.4 L 259.2 276.4 L 259.9 277.8 L 260.5 276.7 L 261.2 278.8 L 262.5 278.5 L 263.1 281.2 L 263.8 280.6 L 264.5 279.6 L 265.1 276.7 L 265.8 275.8 L 267.1 275.4 L 267.7 276.4 L 268.4 276.9 L 269.1 278.6 L 269.7 276.6 L 270.4 276.5 L 271.7 276.2 L 272.3 277.3 L 273.0 274.5 L 273.7 271.9 L 274.3 272.1 L 275.0 271.8 L 276.3 272.3 L 276.9 271.7 L 277.6 268.4 L 278.3 268.4 L 278.9 268.3 L 279.6 266.4 L 280.9 266.3 L 281.5 267.0 L 282.2 265.2 L 282.9 264.5 L 283.5 264.0 L 284.2 266.4 L 285.5 266.3 L 286.1 266.0 L 286.8 263.2 L 287.5 263.7 L 288.1 262.6 L 288.8 265.3 L 290.1 265.0 L 290.7 263.9 L 291.4 262.9 L 292.1 262.7 L 292.7 262.7 L 293.4 264.6 L 294.7 264.0 L 295.3 262.6 L 296.0 259.9 L 296.7 256.5 L 297.3 257.8 L 298.0 255.5 L 299.3 252.7 L 299.9 252.4 L 300.6 251.1 L 301.3 252.4 L 301.9 251.9 L 302.6 248.9 L 303.9 248.5 L 304.5 248.5 L 305.2 248.9 L 305.9 249.9 L 306.5 237.3 L 307.2 237.6 L 308.5 237.7 L 309.1 234.4 L 309.8 236.8 L 310.5 235.5 L 311.1 236.2 L 311.8 238.6 L 313.1 238.1 L 313.7 237.1 L 314.4 238.2 L 315.1 232.4 L 315.7 235.8 L 316.4 230.1 L 317.7 230.7 L 318.3 231.4 L 319.0 231.2 L 319.7 227.0 L 320.3 225.0 L 321.0 220.7 L 322.3 220.0 L 322.9 220.8 L 323.6 217.4 L 324.3 216.8 L 324.9 219.8 L 325.6 209.8 L 326.9 209.5 L 327.5 218.7 L 328.2 219.8 L 328.9 224.0 L 329.5 221.1 L 330.2 217.1 L 331.5 217.8 L 332.1 225.1 L 332.8 219.0 L 333.5 230.5 L 334.1 228.9 L 334.8 225.8 L 336.1 224.9 L 336.7 228.1 L 337.4 222.8 L 338.1 218.5 L 338.7 218.3 L 339.4 219.8 L 340.7 220.2 L 341.3 221.7 L 342.0 224.0 L 342.7 217.4 L 343.3 216.0 L 344.0 210.3 L 345.3 208.7 L 345.9 207.4 L 346.6 211.6 L 347.3 207.7 L 347.9 200.2 L 348.6 205.5 L 349.9 206.0 L 350.5 203.3 L 351.2 206.9 L 351.8 204.4 L 352.5 207.1 L 353.2 210.2 L 354.5 209.9 L 355.1 205.3 L 355.8 211.1 L 356.4 212.3 L 357.1 211.2 L 357.8 201.2 L 359.1 200.1 L 359.7 204.8 L 360.4 206.9 L 361.0 209.0 L 361.7 206.3 L 362.4 205.4 L 363.7 204.4 L 364.3 206.5 L 365.0 200.8 L 365.6 195.8 L 366.3 200.5 L 367.0 194.1 L 368.3 194.5 L 368.9 196.2 L 369.6 200.2 L 370.2 205.1 L 370.9 202.7 L 371.6 206.1 L 372.9 206.1 L 373.5 204.4 L 374.2 209.3 L 374.8 198.0 L 375.5 194.1 L 376.2 190.1 L 377.5 189.8 L 378.1 190.3 L 378.8 186.2 L 379.4 187.8 L 380.1 189.6 L 380.8 186.4 L 382.1 185.9 L 382.7 184.7 L 383.4 185.1 L 384.0 180.9 L 384.7 181.3 L 385.4 174.1 L 386.7 169.9 L 387.3 169.0 L 388.0 165.7 L 388.6 162.0 L 389.3 158.5 L 390.0 162.2 L 391.3 164.3 L 391.9 161.6 L 392.6 157.0 L 393.2 158.3 L 393.9 146.2 L 394.6 141.5 L 395.9 141.0 L 396.5 144.2 L 397.2 140.0 L 397.8 144.7 L 398.5 125.4 L 399.2 112.4 L 400.5 105.3 L 401.1 114.9 L 401.8 126.5 L 402.4 119.0 L 403.1 121.6 L 403.8 119.0 L 405.1 120.7 L 405.7 123.4 L 406.4 134.5 L 407.0 123.8 L 407.7 134.2 L 408.4 121.3 L 409.7 121.1 L 410.3 121.9 L 411.0 121.7 L 411.6 122.8 L 412.3 128.3 L 413.0 126.9 L 414.3 127.9 L 414.9 124.4 L 415.6 129.1 L 416.2 127.9 L 416.9 125.4 L 417.6 126.5 L 418.9 126.5 L 419.5 122.6 L 420.2 123.3 L 420.8 125.0 L 421.5 111.5 L 422.2 111.4 L 423.5 108.5 L 424.1 110.4 L 424.8 109.7 L 425.4 101.6 L 426.1 97.4 L 426.8 81.1 L 428.1 81.2 L 428.7 82.0 L 429.4 68.1 L 430.0 54.0 L 430.7 62.2 L 431.4 49.2 L 432.7 47.8 L 433.3 56.1 L 434.0 58.9 L 434.6 83.1 L 435.3 64.5 L 436.0 79.1 L 437.3 79.6 L 437.9 90.2 L 438.6 88.4 L 439.2 92.4 L 439.9 84.7 L 440.6 85.1 L 441.9 84.7 L 442.5 80.2 L 443.2 71.0 L 443.8 73.9 L 444.5 84.7 L 445.1 92.9 L 446.5 94.8 L 447.1 88.2 L 447.8 78.6 L 448.4 75.5 L 449.1 64.4 L 449.7 59.3 L 451.1 59.8 L 451.7 56.0 L 452.4 64.0 L 453.0 67.0 L 453.7 73.7 L 454.3 77.8 L 455.7 78.1 L 456.3 71.7 L 457.0 71.4 L 457.6 70.6 L 458.3 79.7 L 458.9 83.8 L 460.3 83.3 L 460.9 85.1 L 461.6 93.2 L 462.2 106.1 L 462.9 113.8 L 463.5 111.8 L 464.9 110.4 L 465.5 107.2 L 466.2 110.5 L 466.8 124.3 L 467.5 117.2 L 468.1 112.1 L 469.5 111.2 L 470.1 108.0 L 470.8 112.9 L 471.4 124.6 L 472.1 128.9 L 472.7 132.2 L 474.1 131.7 L 474.7 121.2 L 475.4 107.5 L 476.0 102.8 L 476.7 104.4 L 477.3 96.4 L 478.7 94.1 L 479.3 92.8 L 480.0 83.8 L 480.6 86.5 L 481.3 90.4 L 481.9 93.7 L 483.3 91.1 L 483.9 88.5 L 484.6 107.9 L 485.2 117.7 L 485.9 114.9 L 486.5 104.4 L 487.9 103.9 L 488.5 119.2 L 489.2 118.7 L 489.8 122.1 L 490.5 116.6 L 491.1 117.5 L 492.5 113.4 L 493.1 118.7 L 493.8 115.7 L 494.4 123.0 L 495.1 124.9 L 495.7 124.3 L 497.1 125.8 L 497.7 123.3 L 498.4 109.3 L 499.0 112.2 L 499.7 112.1 L 500.3 109.0 L 501.7 92.5 L 502.3 114.7 L 503.0 109.5 L 503.0 313 L 4.9 313" ></path><path fill="none" d="M 4.9 240.4 L 5.6 245.3 L 6.2 245.7 L 6.9 246.4 L 7.6 255.7 L 8.2 254.3 L 9.5 253.1 L 10.2 256.3 L 10.8 259.7 L 11.5 261.0 L 12.2 263.2 L 12.8 261.6 L 14.1 262.1 L 14.8 262.9 L 15.4 264.3 L 16.1 258.6 L 16.8 254.1 L 17.4 248.2 L 18.7 247.2 L 19.4 248.0 L 20.0 245.8 L 20.7 241.5 L 21.4 242.9 L 22.0 241.3 L 23.3 241.3 L 24.0 244.7 L 24.6 239.4 L 25.3 241.3 L 26.0 235.3 L 26.6 230.2 L 27.9 229.1 L 28.6 232.6 L 29.2 227.0 L 29.9 239.4 L 30.6 246.7 L 31.2 244.9 L 32.5 244.5 L 33.2 244.6 L 33.8 250.6 L 34.5 248.4 L 35.2 247.4 L 35.8 249.4 L 37.1 250.5 L 37.8 252.0 L 38.4 254.3 L 39.1 253.0 L 39.8 257.5 L 40.4 257.7 L 41.7 258.1 L 42.4 256.6 L 43.0 256.6 L 43.7 258.9 L 44.4 253.4 L 45.0 257.8 L 46.3 257.4 L 47.0 256.4 L 47.6 259.2 L 48.3 261.0 L 49.0 263.6 L 49.6 261.4 L 50.9 261.1 L 51.6 258.8 L 52.2 256.6 L 52.9 256.3 L 53.6 261.6 L 54.2 260.6 L 55.5 260.5 L 56.2 260.9 L 56.8 265.7 L 57.5 262.1 L 58.2 262.1 L 58.8 263.7 L 60.1 263.8 L 60.8 262.9 L 61.4 264.2 L 62.1 261.1 L 62.8 255.4 L 63.4 254.3 L 64.7 253.3 L 65.4 252.3 L 66.0 251.1 L 66.7 253.4 L 67.3 248.1 L 68.0 251.6 L 69.3 251.3 L 70.0 256.2 L 70.6 256.9 L 71.3 259.5 L 71.9 258.8 L 72.6 258.5 L 73.9 262.2 L 74.6 260.8 L 75.2 262.2 L 75.9 271.6 L 76.5 272.2 L 77.2 271.8 L 78.5 272.4 L 79.2 270.1 L 79.8 268.9 L 80.5 271.9 L 81.1 269.9 L 81.8 271.6 L 83.1 270.2 L 83.8 271.9 L 84.4 271.9 L 85.1 274.9 L 85.7 277.2 L 86.4 273.7 L 87.7 274.3 L 88.4 275.2 L 89.0 274.6 L 89.7 271.9 L 90.3 271.5 L 91.0 272.8 L 92.3 273.6 L 93.0 273.9 L 93.6 271.7 L 94.3 272.4 L 94.9 280.4 L 95.6 280.9 L 96.9 280.7 L 97.6 280.8 L 98.2 286.2 L 98.9 286.0 L 99.5 287.2 L 100.2 287.5 L 101.5 287.5 L 102.2 286.3 L 102.8 284.3 L 103.5 283.7 L 104.1 275.3 L 104.8 269.7 L 106.1 270.1 L 106.8 271.3 L 107.4 269.0 L 108.1 271.2 L 108.7 265.8 L 109.4 263.0 L 110.7 261.6 L 111.4 265.0 L 112.0 266.8 L 112.7 269.7 L 113.3 268.2 L 114.0 270.2 L 115.3 269.4 L 116.0 270.7 L 116.6 272.7 L 117.3 266.9 L 117.9 269.3 L 118.6 273.7 L 119.9 273.4 L 120.6 271.3 L 121.2 274.5 L 121.9 274.9 L 122.5 276.4 L 123.2 275.6 L 124.5 275.2 L 125.2 272.8 L 125.8 275.5 L 126.5 275.7 L 127.1 279.9 L 127.8 282.0 L 129.1 282.1 L 129.8 283.8 L 130.4 285.1 L 131.1 286.4 L 131.7 284.8 L 132.4 284.2 L 133.7 283.9 L 134.4 285.1 L 135.0 285.5 L 135.7 280.9 L 136.3 279.7 L 137.0 280.1 L 138.3 280.5 L 139.0 281.5 L 139.6 280.8 L 140.3 280.6 L 140.9 281.2 L 141.6 284.0 L 142.9 284.6 L 143.6 287.5 L 144.2 284.3 L 144.9 284.7 L 145.5 280.2 L 146.2 275.5 L 147.5 275.9 L 148.2 277.7 L 148.8 277.0 L 149.5 274.8 L 150.1 276.5 L 150.8 280.0 L 152.1 280.1 L 152.8 280.1 L 153.4 280.6 L 154.1 276.4 L 154.7 277.4 L 155.4 272.8 L 156.7 272.1 L 157.4 273.4 L 158.0 274.0 L 158.7 273.2 L 159.3 281.5 L 160.0 280.5 L 161.3 281.0 L 162.0 280.2 L 162.6 280.0 L 163.3 279.7 L 163.9 273.6 L 164.6 269.7 L 165.9 269.8 L 166.6 271.9 L 167.2 271.5 L 167.9 272.4 L 168.5 275.6 L 169.2 278.1 L 170.5 277.2 L 171.2 278.7 L 171.8 278.3 L 172.5 275.8 L 173.1 280.7 L 173.8 281.2 L 175.1 281.7 L 175.8 282.2 L 176.4 285.0 L 177.1 283.6 L 177.7 282.8 L 178.4 283.9 L 179.7 283.7 L 180.4 283.7 L 181.0 284.3 L 181.7 281.0 L 182.3 282.2 L 183.0 287.4 L 184.3 285.9 L 185.0 283.7 L 185.6 284.2 L 186.3 283.5 L 186.9 290.5 L 187.6 291.5 L 188.9 291.5 L 189.6 291.4 L 190.2 290.4 L 190.9 292.9 L 191.5 291.0 L 192.2 293.4 L 193.5 293.3 L 194.2 293.9 L 194.8 294.5 L 195.5 289.1 L 196.1 286.0 L 196.8 287.0 L 198.1 287.2 L 198.8 289.4 L 199.4 288.7 L 200.1 286.3 L 200.7 283.9 L 201.4 284.7 L 202.7 284.6 L 203.4 285.7 L 204.0 286.9 L 204.7 285.4 L 205.3 282.8 L 206.0 281.9 L 207.3 281.9 L 208.0 283.9 L 208.6 287.1 L 209.3 290.2 L 209.9 292.1 L 210.6 291.9 L 211.9 289.8 L 212.6 288.3 L 213.2 288.0 L 213.9 288.1 L 214.5 288.1 L 215.2 288.1 L 216.5 288.0 L 217.2 286.9 L 217.8 287.5 L 218.5 288.1 L 219.1 289.1 L 219.8 289.1 L 221.1 289.4 L 221.8 290.0 L 222.4 287.9 L 223.1 290.9 L 223.7 291.0 L 224.4 291.1 L 225.7 291.1 L 226.4 291.4 L 227.0 294.2 L 227.7 293.3 L 228.3 289.5 L 229.0 285.0 L 230.3 285.1 L 231.0 284.9 L 231.6 282.0 L 232.3 282.6 L 232.9 282.3 L 233.6 281.4 L 234.9 281.9 L 235.6 282.2 L 236.2 281.9 L 236.9 280.9 L 237.5 279.3 L 238.2 278.0 L 239.5 277.7 L 240.2 278.6 L 240.8 278.0 L 241.5 275.6 L 242.1 276.3 L 242.8 277.8 L 244.1 277.7 L 244.8 275.9 L 245.4 277.7 L 246.1 276.1 L 246.7 279.5 L 247.4 278.5 L 248.7 278.8 L 249.4 275.8 L 250.0 273.2 L 250.7 272.4 L 251.3 273.4 L 252.0 272.9 L 253.3 272.5 L 254 274.7 L 254.6 273.1 L 255.3 275.8 L 255.9 276.5 L 256.6 276.1 L 257.9 275.7 L 258.5 276.4 L 259.2 276.4 L 259.9 277.8 L 260.5 276.7 L 261.2 278.8 L 262.5 278.5 L 263.1 281.2 L 263.8 280.6 L 264.5 279.6 L 265.1 276.7 L 265.8 275.8 L 267.1 275.4 L 267.7 276.4 L 268.4 276.9 L 269.1 278.6 L 269.7 276.6 L 270.4 276.5 L 271.7 276.2 L 272.3 277.3 L 273.0 274.5 L 273.7 271.9 L 274.3 272.1 L 275.0 271.8 L 276.3 272.3 L 276.9 271.7 L 277.6 268.4 L 278.3 268.4 L 278.9 268.3 L 279.6 266.4 L 280.9 266.3 L 281.5 267.0 L 282.2 265.2 L 282.9 264.5 L 283.5 264.0 L 284.2 266.4 L 285.5 266.3 L 286.1 266.0 L 286.8 263.2 L 287.5 263.7 L 288.1 262.6 L 288.8 265.3 L 290.1 265.0 L 290.7 263.9 L 291.4 262.9 L 292.1 262.7 L 292.7 262.7 L 293.4 264.6 L 294.7 264.0 L 295.3 262.6 L 296.0 259.9 L 296.7 256.5 L 297.3 257.8 L 298.0 255.5 L 299.3 252.7 L 299.9 252.4 L 300.6 251.1 L 301.3 252.4 L 301.9 251.9 L 302.6 248.9 L 303.9 248.5 L 304.5 248.5 L 305.2 248.9 L 305.9 249.9 L 306.5 237.3 L 307.2 237.6 L 308.5 237.7 L 309.1 234.4 L 309.8 236.8 L 310.5 235.5 L 311.1 236.2 L 311.8 238.6 L 313.1 238.1 L 313.7 237.1 L 314.4 238.2 L 315.1 232.4 L 315.7 235.8 L 316.4 230.1 L 317.7 230.7 L 318.3 231.4 L 319.0 231.2 L 319.7 227.0 L 320.3 225.0 L 321.0 220.7 L 322.3 220.0 L 322.9 220.8 L 323.6 217.4 L 324.3 216.8 L 324.9 219.8 L 325.6 209.8 L 326.9 209.5 L 327.5 218.7 L 328.2 219.8 L 328.9 224.0 L 329.5 221.1 L 330.2 217.1 L 331.5 217.8 L 332.1 225.1 L 332.8 219.0 L 333.5 230.5 L 334.1 228.9 L 334.8 225.8 L 336.1 224.9 L 336.7 228.1 L 337.4 222.8 L 338.1 218.5 L 338.7 218.3 L 339.4 219.8 L 340.7 220.2 L 341.3 221.7 L 342.0 224.0 L 342.7 217.4 L 343.3 216.0 L 344.0 210.3 L 345.3 208.7 L 345.9 207.4 L 346.6 211.6 L 347.3 207.7 L 347.9 200.2 L 348.6 205.5 L 349.9 206.0 L 350.5 203.3 L 351.2 206.9 L 351.8 204.4 L 352.5 207.1 L 353.2 210.2 L 354.5 209.9 L 355.1 205.3 L 355.8 211.1 L 356.4 212.3 L 357.1 211.2 L 357.8 201.2 L 359.1 200.1 L 359.7 204.8 L 360.4 206.9 L 361.0 209.0 L 361.7 206.3 L 362.4 205.4 L 363.7 204.4 L 364.3 206.5 L 365.0 200.8 L 365.6 195.8 L 366.3 200.5 L 367.0 194.1 L 368.3 194.5 L 368.9 196.2 L 369.6 200.2 L 370.2 205.1 L 370.9 202.7 L 371.6 206.1 L 372.9 206.1 L 373.5 204.4 L 374.2 209.3 L 374.8 198.0 L 375.5 194.1 L 376.2 190.1 L 377.5 189.8 L 378.1 190.3 L 378.8 186.2 L 379.4 187.8 L 380.1 189.6 L 380.8 186.4 L 382.1 185.9 L 382.7 184.7 L 383.4 185.1 L 384.0 180.9 L 384.7 181.3 L 385.4 174.1 L 386.7 169.9 L 387.3 169.0 L 388.0 165.7 L 388.6 162.0 L 389.3 158.5 L 390.0 162.2 L 391.3 164.3 L 391.9 161.6 L 392.6 157.0 L 393.2 158.3 L 393.9 146.2 L 394.6 141.5 L 395.9 141.0 L 396.5 144.2 L 397.2 140.0 L 397.8 144.7 L 398.5 125.4 L 399.2 112.4 L 400.5 105.3 L 401.1 114.9 L 401.8 126.5 L 402.4 119.0 L 403.1 121.6 L 403.8 119.0 L 405.1 120.7 L 405.7 123.4 L 406.4 134.5 L 407.0 123.8 L 407.7 134.2 L 408.4 121.3 L 409.7 121.1 L 410.3 121.9 L 411.0 121.7 L 411.6 122.8 L 412.3 128.3 L 413.0 126.9 L 414.3 127.9 L 414.9 124.4 L 415.6 129.1 L 416.2 127.9 L 416.9 125.4 L 417.6 126.5 L 418.9 126.5 L 419.5 122.6 L 420.2 123.3 L 420.8 125.0 L 421.5 111.5 L 422.2 111.4 L 423.5 108.5 L 424.1 110.4 L 424.8 109.7 L 425.4 101.6 L 426.1 97.4 L 426.8 81.1 L 428.1 81.2 L 428.7 82.0 L 429.4 68.1 L 430.0 54.0 L 430.7 62.2 L 431.4 49.2 L 432.7 47.8 L 433.3 56.1 L 434.0 58.9 L 434.6 83.1 L 435.3 64.5 L 436.0 79.1 L 437.3 79.6 L 437.9 90.2 L 438.6 88.4 L 439.2 92.4 L 439.9 84.7 L 440.6 85.1 L 441.9 84.7 L 442.5 80.2 L 443.2 71.0 L 443.8 73.9 L 444.5 84.7 L 445.1 92.9 L 446.5 94.8 L 447.1 88.2 L 447.8 78.6 L 448.4 75.5 L 449.1 64.4 L 449.7 59.3 L 451.1 59.8 L 451.7 56.0 L 452.4 64.0 L 453.0 67.0 L 453.7 73.7 L 454.3 77.8 L 455.7 78.1 L 456.3 71.7 L 457.0 71.4 L 457.6 70.6 L 458.3 79.7 L 458.9 83.8 L 460.3 83.3 L 460.9 85.1 L 461.6 93.2 L 462.2 106.1 L 462.9 113.8 L 463.5 111.8 L 464.9 110.4 L 465.5 107.2 L 466.2 110.5 L 466.8 124.3 L 467.5 117.2 L 468.1 112.1 L 469.5 111.2 L 470.1 108.0 L 470.8 112.9 L 471.4 124.6 L 472.1 128.9 L 472.7 132.2 L 474.1 131.7 L 474.7 121.2 L 475.4 107.5 L 476.0 102.8 L 476.7 104.4 L 477.3 96.4 L 478.7 94.1 L 479.3 92.8 L 480.0 83.8 L 480.6 86.5 L 481.3 90.4 L 481.9 93.7 L 483.3 91.1 L 483.9 88.5 L 484.6 107.9 L 485.2 117.7 L 485.9 114.9 L 486.5 104.4 L 487.9 103.9 L 488.5 119.2 L 489.2 118.7 L 489.8 122.1 L 490.5 116.6 L 491.1 117.5 L 492.5 113.4 L 493.1 118.7 L 493.8 115.7 L 494.4 123.0 L 495.1 124.9 L 495.7 124.3 L 497.1 125.8 L 497.7 123.3 L 498.4 109.3 L 499.0 112.2 L 499.7 112.1 L 500.3 109.0 L 501.7 92.5 L 502.3 114.7 L 503.0 109.5" stroke="black" stroke-width="5"  stroke-linejoin="round" stroke-linecap="round"  stroke-opacity="0.0" transform="translate(1, 1)"></path><path fill="none" d="M 4.9 240.4 L 5.6 245.3 L 6.2 245.7 L 6.9 246.4 L 7.6 255.7 L 8.2 254.3 L 9.5 253.1 L 10.2 256.3 L 10.8 259.7 L 11.5 261.0 L 12.2 263.2 L 12.8 261.6 L 14.1 262.1 L 14.8 262.9 L 15.4 264.3 L 16.1 258.6 L 16.8 254.1 L 17.4 248.2 L 18.7 247.2 L 19.4 248.0 L 20.0 245.8 L 20.7 241.5 L 21.4 242.9 L 22.0 241.3 L 23.3 241.3 L 24.0 244.7 L 24.6 239.4 L 25.3 241.3 L 26.0 235.3 L 26.6 230.2 L 27.9 229.1 L 28.6 232.6 L 29.2 227.0 L 29.9 239.4 L 30.6 246.7 L 31.2 244.9 L 32.5 244.5 L 33.2 244.6 L 33.8 250.6 L 34.5 248.4 L 35.2 247.4 L 35.8 249.4 L 37.1 250.5 L 37.8 252.0 L 38.4 254.3 L 39.1 253.0 L 39.8 257.5 L 40.4 257.7 L 41.7 258.1 L 42.4 256.6 L 43.0 256.6 L 43.7 258.9 L 44.4 253.4 L 45.0 257.8 L 46.3 257.4 L 47.0 256.4 L 47.6 259.2 L 48.3 261.0 L 49.0 263.6 L 49.6 261.4 L 50.9 261.1 L 51.6 258.8 L 52.2 256.6 L 52.9 256.3 L 53.6 261.6 L 54.2 260.6 L 55.5 260.5 L 56.2 260.9 L 56.8 265.7 L 57.5 262.1 L 58.2 262.1 L 58.8 263.7 L 60.1 263.8 L 60.8 262.9 L 61.4 264.2 L 62.1 261.1 L 62.8 255.4 L 63.4 254.3 L 64.7 253.3 L 65.4 252.3 L 66.0 251.1 L 66.7 253.4 L 67.3 248.1 L 68.0 251.6 L 69.3 251.3 L 70.0 256.2 L 70.6 256.9 L 71.3 259.5 L 71.9 258.8 L 72.6 258.5 L 73.9 262.2 L 74.6 260.8 L 75.2 262.2 L 75.9 271.6 L 76.5 272.2 L 77.2 271.8 L 78.5 272.4 L 79.2 270.1 L 79.8 268.9 L 80.5 271.9 L 81.1 269.9 L 81.8 271.6 L 83.1 270.2 L 83.8 271.9 L 84.4 271.9 L 85.1 274.9 L 85.7 277.2 L 86.4 273.7 L 87.7 274.3 L 88.4 275.2 L 89.0 274.6 L 89.7 271.9 L 90.3 271.5 L 91.0 272.8 L 92.3 273.6 L 93.0 273.9 L 93.6 271.7 L 94.3 272.4 L 94.9 280.4 L 95.6 280.9 L 96.9 280.7 L 97.6 280.8 L 98.2 286.2 L 98.9 286.0 L 99.5 287.2 L 100.2 287.5 L 101.5 287.5 L 102.2 286.3 L 102.8 284.3 L 103.5 283.7 L 104.1 275.3 L 104.8 269.7 L 106.1 270.1 L 106.8 271.3 L 107.4 269.0 L 108.1 271.2 L 108.7 265.8 L 109.4 263.0 L 110.7 261.6 L 111.4 265.0 L 112.0 266.8 L 112.7 269.7 L 113.3 268.2 L 114.0 270.2 L 115.3 269.4 L 116.0 270.7 L 116.6 272.7 L 117.3 266.9 L 117.9 269.3 L 118.6 273.7 L 119.9 273.4 L 120.6 271.3 L 121.2 274.5 L 121.9 274.9 L 122.5 276.4 L 123.2 275.6 L 124.5 275.2 L 125.2 272.8 L 125.8 275.5 L 126.5 275.7 L 127.1 279.9 L 127.8 282.0 L 129.1 282.1 L 129.8 283.8 L 130.4 285.1 L 131.1 286.4 L 131.7 284.8 L 132.4 284.2 L 133.7 283.9 L 134.4 285.1 L 135.0 285.5 L 135.7 280.9 L 136.3 279.7 L 137.0 280.1 L 138.3 280.5 L 139.0 281.5 L 139.6 280.8 L 140.3 280.6 L 140.9 281.2 L 141.6 284.0 L 142.9 284.6 L 143.6 287.5 L 144.2 284.3 L 144.9 284.7 L 145.5 280.2 L 146.2 275.5 L 147.5 275.9 L 148.2 277.7 L 148.8 277.0 L 149.5 274.8 L 150.1 276.5 L 150.8 280.0 L 152.1 280.1 L 152.8 280.1 L 153.4 280.6 L 154.1 276.4 L 154.7 277.4 L 155.4 272.8 L 156.7 272.1 L 157.4 273.4 L 158.0 274.0 L 158.7 273.2 L 159.3 281.5 L 160.0 280.5 L 161.3 281.0 L 162.0 280.2 L 162.6 280.0 L 163.3 279.7 L 163.9 273.6 L 164.6 269.7 L 165.9 269.8 L 166.6 271.9 L 167.2 271.5 L 167.9 272.4 L 168.5 275.6 L 169.2 278.1 L 170.5 277.2 L 171.2 278.7 L 171.8 278.3 L 172.5 275.8 L 173.1 280.7 L 173.8 281.2 L 175.1 281.7 L 175.8 282.2 L 176.4 285.0 L 177.1 283.6 L 177.7 282.8 L 178.4 283.9 L 179.7 283.7 L 180.4 283.7 L 181.0 284.3 L 181.7 281.0 L 182.3 282.2 L 183.0 287.4 L 184.3 285.9 L 185.0 283.7 L 185.6 284.2 L 186.3 283.5 L 186.9 290.5 L 187.6 291.5 L 188.9 291.5 L 189.6 291.4 L 190.2 290.4 L 190.9 292.9 L 191.5 291.0 L 192.2 293.4 L 193.5 293.3 L 194.2 293.9 L 194.8 294.5 L 195.5 289.1 L 196.1 286.0 L 196.8 287.0 L 198.1 287.2 L 198.8 289.4 L 199.4 288.7 L 200.1 286.3 L 200.7 283.9 L 201.4 284.7 L 202.7 284.6 L 203.4 285.7 L 204.0 286.9 L 204.7 285.4 L 205.3 282.8 L 206.0 281.9 L 207.3 281.9 L 208.0 283.9 L 208.6 287.1 L 209.3 290.2 L 209.9 292.1 L 210.6 291.9 L 211.9 289.8 L 212.6 288.3 L 213.2 288.0 L 213.9 288.1 L 214.5 288.1 L 215.2 288.1 L 216.5 288.0 L 217.2 286.9 L 217.8 287.5 L 218.5 288.1 L 219.1 289.1 L 219.8 289.1 L 221.1 289.4 L 221.8 290.0 L 222.4 287.9 L 223.1 290.9 L 223.7 291.0 L 224.4 291.1 L 225.7 291.1 L 226.4 291.4 L 227.0 294.2 L 227.7 293.3 L 228.3 289.5 L 229.0 285.0 L 230.3 285.1 L 231.0 284.9 L 231.6 282.0 L 232.3 282.6 L 232.9 282.3 L 233.6 281.4 L 234.9 281.9 L 235.6 282.2 L 236.2 281.9 L 236.9 280.9 L 237.5 279.3 L 238.2 278.0 L 239.5 277.7 L 240.2 278.6 L 240.8 278.0 L 241.5 275.6 L 242.1 276.3 L 242.8 277.8 L 244.1 277.7 L 244.8 275.9 L 245.4 277.7 L 246.1 276.1 L 246.7 279.5 L 247.4 278.5 L 248.7 278.8 L 249.4 275.8 L 250.0 273.2 L 250.7 272.4 L 251.3 273.4 L 252.0 272.9 L 253.3 272.5 L 254 274.7 L 254.6 273.1 L 255.3 275.8 L 255.9 276.5 L 256.6 276.1 L 257.9 275.7 L 258.5 276.4 L 259.2 276.4 L 259.9 277.8 L 260.5 276.7 L 261.2 278.8 L 262.5 278.5 L 263.1 281.2 L 263.8 280.6 L 264.5 279.6 L 265.1 276.7 L 265.8 275.8 L 267.1 275.4 L 267.7 276.4 L 268.4 276.9 L 269.1 278.6 L 269.7 276.6 L 270.4 276.5 L 271.7 276.2 L 272.3 277.3 L 273.0 274.5 L 273.7 271.9 L 274.3 272.1 L 275.0 271.8 L 276.3 272.3 L 276.9 271.7 L 277.6 268.4 L 278.3 268.4 L 278.9 268.3 L 279.6 266.4 L 280.9 266.3 L 281.5 267.0 L 282.2 265.2 L 282.9 264.5 L 283.5 264.0 L 284.2 266.4 L 285.5 266.3 L 286.1 266.0 L 286.8 263.2 L 287.5 263.7 L 288.1 262.6 L 288.8 265.3 L 290.1 265.0 L 290.7 263.9 L 291.4 262.9 L 292.1 262.7 L 292.7 262.7 L 293.4 264.6 L 294.7 264.0 L 295.3 262.6 L 296.0 259.9 L 296.7 256.5 L 297.3 257.8 L 298.0 255.5 L 299.3 252.7 L 299.9 252.4 L 300.6 251.1 L 301.3 252.4 L 301.9 251.9 L 302.6 248.9 L 303.9 248.5 L 304.5 248.5 L 305.2 248.9 L 305.9 249.9 L 306.5 237.3 L 307.2 237.6 L 308.5 237.7 L 309.1 234.4 L 309.8 236.8 L 310.5 235.5 L 311.1 236.2 L 311.8 238.6 L 313.1 238.1 L 313.7 237.1 L 314.4 238.2 L 315.1 232.4 L 315.7 235.8 L 316.4 230.1 L 317.7 230.7 L 318.3 231.4 L 319.0 231.2 L 319.7 227.0 L 320.3 225.0 L 321.0 220.7 L 322.3 220.0 L 322.9 220.8 L 323.6 217.4 L 324.3 216.8 L 324.9 219.8 L 325.6 209.8 L 326.9 209.5 L 327.5 218.7 L 328.2 219.8 L 328.9 224.0 L 329.5 221.1 L 330.2 217.1 L 331.5 217.8 L 332.1 225.1 L 332.8 219.0 L 333.5 230.5 L 334.1 228.9 L 334.8 225.8 L 336.1 224.9 L 336.7 228.1 L 337.4 222.8 L 338.1 218.5 L 338.7 218.3 L 339.4 219.8 L 340.7 220.2 L 341.3 221.7 L 342.0 224.0 L 342.7 217.4 L 343.3 216.0 L 344.0 210.3 L 345.3 208.7 L 345.9 207.4 L 346.6 211.6 L 347.3 207.7 L 347.9 200.2 L 348.6 205.5 L 349.9 206.0 L 350.5 203.3 L 351.2 206.9 L 351.8 204.4 L 352.5 207.1 L 353.2 210.2 L 354.5 209.9 L 355.1 205.3 L 355.8 211.1 L 356.4 212.3 L 357.1 211.2 L 357.8 201.2 L 359.1 200.1 L 359.7 204.8 L 360.4 206.9 L 361.0 209.0 L 361.7 206.3 L 362.4 205.4 L 363.7 204.4 L 364.3 206.5 L 365.0 200.8 L 365.6 195.8 L 366.3 200.5 L 367.0 194.1 L 368.3 194.5 L 368.9 196.2 L 369.6 200.2 L 370.2 205.1 L 370.9 202.7 L 371.6 206.1 L 372.9 206.1 L 373.5 204.4 L 374.2 209.3 L 374.8 198.0 L 375.5 194.1 L 376.2 190.1 L 377.5 189.8 L 378.1 190.3 L 378.8 186.2 L 379.4 187.8 L 380.1 189.6 L 380.8 186.4 L 382.1 185.9 L 382.7 184.7 L 383.4 185.1 L 384.0 180.9 L 384.7 181.3 L 385.4 174.1 L 386.7 169.9 L 387.3 169.0 L 388.0 165.7 L 388.6 162.0 L 389.3 158.5 L 390.0 162.2 L 391.3 164.3 L 391.9 161.6 L 392.6 157.0 L 393.2 158.3 L 393.9 146.2 L 394.6 141.5 L 395.9 141.0 L 396.5 144.2 L 397.2 140.0 L 397.8 144.7 L 398.5 125.4 L 399.2 112.4 L 400.5 105.3 L 401.1 114.9 L 401.8 126.5 L 402.4 119.0 L 403.1 121.6 L 403.8 119.0 L 405.1 120.7 L 405.7 123.4 L 406.4 134.5 L 407.0 123.8 L 407.7 134.2 L 408.4 121.3 L 409.7 121.1 L 410.3 121.9 L 411.0 121.7 L 411.6 122.8 L 412.3 128.3 L 413.0 126.9 L 414.3 127.9 L 414.9 124.4 L 415.6 129.1 L 416.2 127.9 L 416.9 125.4 L 417.6 126.5 L 418.9 126.5 L 419.5 122.6 L 420.2 123.3 L 420.8 125.0 L 421.5 111.5 L 422.2 111.4 L 423.5 108.5 L 424.1 110.4 L 424.8 109.7 L 425.4 101.6 L 426.1 97.4 L 426.8 81.1 L 428.1 81.2 L 428.7 82.0 L 429.4 68.1 L 430.0 54.0 L 430.7 62.2 L 431.4 49.2 L 432.7 47.8 L 433.3 56.1 L 434.0 58.9 L 434.6 83.1 L 435.3 64.5 L 436.0 79.1 L 437.3 79.6 L 437.9 90.2 L 438.6 88.4 L 439.2 92.4 L 439.9 84.7 L 440.6 85.1 L 441.9 84.7 L 442.5 80.2 L 443.2 71.0 L 443.8 73.9 L 444.5 84.7 L 445.1 92.9 L 446.5 94.8 L 447.1 88.2 L 447.8 78.6 L 448.4 75.5 L 449.1 64.4 L 449.7 59.3 L 451.1 59.8 L 451.7 56.0 L 452.4 64.0 L 453.0 67.0 L 453.7 73.7 L 454.3 77.8 L 455.7 78.1 L 456.3 71.7 L 457.0 71.4 L 457.6 70.6 L 458.3 79.7 L 458.9 83.8 L 460.3 83.3 L 460.9 85.1 L 461.6 93.2 L 462.2 106.1 L 462.9 113.8 L 463.5 111.8 L 464.9 110.4 L 465.5 107.2 L 466.2 110.5 L 466.8 124.3 L 467.5 117.2 L 468.1 112.1 L 469.5 111.2 L 470.1 108.0 L 470.8 112.9 L 471.4 124.6 L 472.1 128.9 L 472.7 132.2 L 474.1 131.7 L 474.7 121.2 L 475.4 107.5 L 476.0 102.8 L 476.7 104.4 L 477.3 96.4 L 478.7 94.1 L 479.3 92.8 L 480.0 83.8 L 480.6 86.5 L 481.3 90.4 L 481.9 93.7 L 483.3 91.1 L 483.9 88.5 L 484.6 107.9 L 485.2 117.7 L 485.9 114.9 L 486.5 104.4 L 487.9 103.9 L 488.5 119.2 L 489.2 118.7 L 489.8 122.1 L 490.5 116.6 L 491.1 117.5 L 492.5 113.4 L 493.1 118.7 L 493.8 115.7 L 494.4 123.0 L 495.1 124.9 L 495.7 124.3 L 497.1 125.8 L 497.7 123.3 L 498.4 109.3 L 499.0 112.2 L 499.7 112.1 L 500.3 109.0 L 501.7 92.5 L 502.3 114.7 L 503.0 109.5" stroke="black" stroke-width="3"  stroke-linejoin="round" stroke-linecap="round"  stroke-opacity="0.0" transform="translate(1, 1)"></path><path fill="none" d="M 4.9 240.4 L 5.6 245.3 L 6.2 245.7 L 6.9 246.4 L 7.6 255.7 L 8.2 254.3 L 9.5 253.1 L 10.2 256.3 L 10.8 259.7 L 11.5 261.0 L 12.2 263.2 L 12.8 261.6 L 14.1 262.1 L 14.8 262.9 L 15.4 264.3 L 16.1 258.6 L 16.8 254.1 L 17.4 248.2 L 18.7 247.2 L 19.4 248.0 L 20.0 245.8 L 20.7 241.5 L 21.4 242.9 L 22.0 241.3 L 23.3 241.3 L 24.0 244.7 L 24.6 239.4 L 25.3 241.3 L 26.0 235.3 L 26.6 230.2 L 27.9 229.1 L 28.6 232.6 L 29.2 227.0 L 29.9 239.4 L 30.6 246.7 L 31.2 244.9 L 32.5 244.5 L 33.2 244.6 L 33.8 250.6 L 34.5 248.4 L 35.2 247.4 L 35.8 249.4 L 37.1 250.5 L 37.8 252.0 L 38.4 254.3 L 39.1 253.0 L 39.8 257.5 L 40.4 257.7 L 41.7 258.1 L 42.4 256.6 L 43.0 256.6 L 43.7 258.9 L 44.4 253.4 L 45.0 257.8 L 46.3 257.4 L 47.0 256.4 L 47.6 259.2 L 48.3 261.0 L 49.0 263.6 L 49.6 261.4 L 50.9 261.1 L 51.6 258.8 L 52.2 256.6 L 52.9 256.3 L 53.6 261.6 L 54.2 260.6 L 55.5 260.5 L 56.2 260.9 L 56.8 265.7 L 57.5 262.1 L 58.2 262.1 L 58.8 263.7 L 60.1 263.8 L 60.8 262.9 L 61.4 264.2 L 62.1 261.1 L 62.8 255.4 L 63.4 254.3 L 64.7 253.3 L 65.4 252.3 L 66.0 251.1 L 66.7 253.4 L 67.3 248.1 L 68.0 251.6 L 69.3 251.3 L 70.0 256.2 L 70.6 256.9 L 71.3 259.5 L 71.9 258.8 L 72.6 258.5 L 73.9 262.2 L 74.6 260.8 L 75.2 262.2 L 75.9 271.6 L 76.5 272.2 L 77.2 271.8 L 78.5 272.4 L 79.2 270.1 L 79.8 268.9 L 80.5 271.9 L 81.1 269.9 L 81.8 271.6 L 83.1 270.2 L 83.8 271.9 L 84.4 271.9 L 85.1 274.9 L 85.7 277.2 L 86.4 273.7 L 87.7 274.3 L 88.4 275.2 L 89.0 274.6 L 89.7 271.9 L 90.3 271.5 L 91.0 272.8 L 92.3 273.6 L 93.0 273.9 L 93.6 271.7 L 94.3 272.4 L 94.9 280.4 L 95.6 280.9 L 96.9 280.7 L 97.6 280.8 L 98.2 286.2 L 98.9 286.0 L 99.5 287.2 L 100.2 287.5 L 101.5 287.5 L 102.2 286.3 L 102.8 284.3 L 103.5 283.7 L 104.1 275.3 L 104.8 269.7 L 106.1 270.1 L 106.8 271.3 L 107.4 269.0 L 108.1 271.2 L 108.7 265.8 L 109.4 263.0 L 110.7 261.6 L 111.4 265.0 L 112.0 266.8 L 112.7 269.7 L 113.3 268.2 L 114.0 270.2 L 115.3 269.4 L 116.0 270.7 L 116.6 272.7 L 117.3 266.9 L 117.9 269.3 L 118.6 273.7 L 119.9 273.4 L 120.6 271.3 L 121.2 274.5 L 121.9 274.9 L 122.5 276.4 L 123.2 275.6 L 124.5 275.2 L 125.2 272.8 L 125.8 275.5 L 126.5 275.7 L 127.1 279.9 L 127.8 282.0 L 129.1 282.1 L 129.8 283.8 L 130.4 285.1 L 131.1 286.4 L 131.7 284.8 L 132.4 284.2 L 133.7 283.9 L 134.4 285.1 L 135.0 285.5 L 135.7 280.9 L 136.3 279.7 L 137.0 280.1 L 138.3 280.5 L 139.0 281.5 L 139.6 280.8 L 140.3 280.6 L 140.9 281.2 L 141.6 284.0 L 142.9 284.6 L 143.6 287.5 L 144.2 284.3 L 144.9 284.7 L 145.5 280.2 L 146.2 275.5 L 147.5 275.9 L 148.2 277.7 L 148.8 277.0 L 149.5 274.8 L 150.1 276.5 L 150.8 280.0 L 152.1 280.1 L 152.8 280.1 L 153.4 280.6 L 154.1 276.4 L 154.7 277.4 L 155.4 272.8 L 156.7 272.1 L 157.4 273.4 L 158.0 274.0 L 158.7 273.2 L 159.3 281.5 L 160.0 280.5 L 161.3 281.0 L 162.0 280.2 L 162.6 280.0 L 163.3 279.7 L 163.9 273.6 L 164.6 269.7 L 165.9 269.8 L 166.6 271.9 L 167.2 271.5 L 167.9 272.4 L 168.5 275.6 L 169.2 278.1 L 170.5 277.2 L 171.2 278.7 L 171.8 278.3 L 172.5 275.8 L 173.1 280.7 L 173.8 281.2 L 175.1 281.7 L 175.8 282.2 L 176.4 285.0 L 177.1 283.6 L 177.7 282.8 L 178.4 283.9 L 179.7 283.7 L 180.4 283.7 L 181.0 284.3 L 181.7 281.0 L 182.3 282.2 L 183.0 287.4 L 184.3 285.9 L 185.0 283.7 L 185.6 284.2 L 186.3 283.5 L 186.9 290.5 L 187.6 291.5 L 188.9 291.5 L 189.6 291.4 L 190.2 290.4 L 190.9 292.9 L 191.5 291.0 L 192.2 293.4 L 193.5 293.3 L 194.2 293.9 L 194.8 294.5 L 195.5 289.1 L 196.1 286.0 L 196.8 287.0 L 198.1 287.2 L 198.8 289.4 L 199.4 288.7 L 200.1 286.3 L 200.7 283.9 L 201.4 284.7 L 202.7 284.6 L 203.4 285.7 L 204.0 286.9 L 204.7 285.4 L 205.3 282.8 L 206.0 281.9 L 207.3 281.9 L 208.0 283.9 L 208.6 287.1 L 209.3 290.2 L 209.9 292.1 L 210.6 291.9 L 211.9 289.8 L 212.6 288.3 L 213.2 288.0 L 213.9 288.1 L 214.5 288.1 L 215.2 288.1 L 216.5 288.0 L 217.2 286.9 L 217.8 287.5 L 218.5 288.1 L 219.1 289.1 L 219.8 289.1 L 221.1 289.4 L 221.8 290.0 L 222.4 287.9 L 223.1 290.9 L 223.7 291.0 L 224.4 291.1 L 225.7 291.1 L 226.4 291.4 L 227.0 294.2 L 227.7 293.3 L 228.3 289.5 L 229.0 285.0 L 230.3 285.1 L 231.0 284.9 L 231.6 282.0 L 232.3 282.6 L 232.9 282.3 L 233.6 281.4 L 234.9 281.9 L 235.6 282.2 L 236.2 281.9 L 236.9 280.9 L 237.5 279.3 L 238.2 278.0 L 239.5 277.7 L 240.2 278.6 L 240.8 278.0 L 241.5 275.6 L 242.1 276.3 L 242.8 277.8 L 244.1 277.7 L 244.8 275.9 L 245.4 277.7 L 246.1 276.1 L 246.7 279.5 L 247.4 278.5 L 248.7 278.8 L 249.4 275.8 L 250.0 273.2 L 250.7 272.4 L 251.3 273.4 L 252.0 272.9 L 253.3 272.5 L 254 274.7 L 254.6 273.1 L 255.3 275.8 L 255.9 276.5 L 256.6 276.1 L 257.9 275.7 L 258.5 276.4 L 259.2 276.4 L 259.9 277.8 L 260.5 276.7 L 261.2 278.8 L 262.5 278.5 L 263.1 281.2 L 263.8 280.6 L 264.5 279.6 L 265.1 276.7 L 265.8 275.8 L 267.1 275.4 L 267.7 276.4 L 268.4 276.9 L 269.1 278.6 L 269.7 276.6 L 270.4 276.5 L 271.7 276.2 L 272.3 277.3 L 273.0 274.5 L 273.7 271.9 L 274.3 272.1 L 275.0 271.8 L 276.3 272.3 L 276.9 271.7 L 277.6 268.4 L 278.3 268.4 L 278.9 268.3 L 279.6 266.4 L 280.9 266.3 L 281.5 267.0 L 282.2 265.2 L 282.9 264.5 L 283.5 264.0 L 284.2 266.4 L 285.5 266.3 L 286.1 266.0 L 286.8 263.2 L 287.5 263.7 L 288.1 262.6 L 288.8 265.3 L 290.1 265.0 L 290.7 263.9 L 291.4 262.9 L 292.1 262.7 L 292.7 262.7 L 293.4 264.6 L 294.7 264.0 L 295.3 262.6 L 296.0 259.9 L 296.7 256.5 L 297.3 257.8 L 298.0 255.5 L 299.3 252.7 L 299.9 252.4 L 300.6 251.1 L 301.3 252.4 L 301.9 251.9 L 302.6 248.9 L 303.9 248.5 L 304.5 248.5 L 305.2 248.9 L 305.9 249.9 L 306.5 237.3 L 307.2 237.6 L 308.5 237.7 L 309.1 234.4 L 309.8 236.8 L 310.5 235.5 L 311.1 236.2 L 311.8 238.6 L 313.1 238.1 L 313.7 237.1 L 314.4 238.2 L 315.1 232.4 L 315.7 235.8 L 316.4 230.1 L 317.7 230.7 L 318.3 231.4 L 319.0 231.2 L 319.7 227.0 L 320.3 225.0 L 321.0 220.7 L 322.3 220.0 L 322.9 220.8 L 323.6 217.4 L 324.3 216.8 L 324.9 219.8 L 325.6 209.8 L 326.9 209.5 L 327.5 218.7 L 328.2 219.8 L 328.9 224.0 L 329.5 221.1 L 330.2 217.1 L 331.5 217.8 L 332.1 225.1 L 332.8 219.0 L 333.5 230.5 L 334.1 228.9 L 334.8 225.8 L 336.1 224.9 L 336.7 228.1 L 337.4 222.8 L 338.1 218.5 L 338.7 218.3 L 339.4 219.8 L 340.7 220.2 L 341.3 221.7 L 342.0 224.0 L 342.7 217.4 L 343.3 216.0 L 344.0 210.3 L 345.3 208.7 L 345.9 207.4 L 346.6 211.6 L 347.3 207.7 L 347.9 200.2 L 348.6 205.5 L 349.9 206.0 L 350.5 203.3 L 351.2 206.9 L 351.8 204.4 L 352.5 207.1 L 353.2 210.2 L 354.5 209.9 L 355.1 205.3 L 355.8 211.1 L 356.4 212.3 L 357.1 211.2 L 357.8 201.2 L 359.1 200.1 L 359.7 204.8 L 360.4 206.9 L 361.0 209.0 L 361.7 206.3 L 362.4 205.4 L 363.7 204.4 L 364.3 206.5 L 365.0 200.8 L 365.6 195.8 L 366.3 200.5 L 367.0 194.1 L 368.3 194.5 L 368.9 196.2 L 369.6 200.2 L 370.2 205.1 L 370.9 202.7 L 371.6 206.1 L 372.9 206.1 L 373.5 204.4 L 374.2 209.3 L 374.8 198.0 L 375.5 194.1 L 376.2 190.1 L 377.5 189.8 L 378.1 190.3 L 378.8 186.2 L 379.4 187.8 L 380.1 189.6 L 380.8 186.4 L 382.1 185.9 L 382.7 184.7 L 383.4 185.1 L 384.0 180.9 L 384.7 181.3 L 385.4 174.1 L 386.7 169.9 L 387.3 169.0 L 388.0 165.7 L 388.6 162.0 L 389.3 158.5 L 390.0 162.2 L 391.3 164.3 L 391.9 161.6 L 392.6 157.0 L 393.2 158.3 L 393.9 146.2 L 394.6 141.5 L 395.9 141.0 L 396.5 144.2 L 397.2 140.0 L 397.8 144.7 L 398.5 125.4 L 399.2 112.4 L 400.5 105.3 L 401.1 114.9 L 401.8 126.5 L 402.4 119.0 L 403.1 121.6 L 403.8 119.0 L 405.1 120.7 L 405.7 123.4 L 406.4 134.5 L 407.0 123.8 L 407.7 134.2 L 408.4 121.3 L 409.7 121.1 L 410.3 121.9 L 411.0 121.7 L 411.6 122.8 L 412.3 128.3 L 413.0 126.9 L 414.3 127.9 L 414.9 124.4 L 415.6 129.1 L 416.2 127.9 L 416.9 125.4 L 417.6 126.5 L 418.9 126.5 L 419.5 122.6 L 420.2 123.3 L 420.8 125.0 L 421.5 111.5 L 422.2 111.4 L 423.5 108.5 L 424.1 110.4 L 424.8 109.7 L 425.4 101.6 L 426.1 97.4 L 426.8 81.1 L 428.1 81.2 L 428.7 82.0 L 429.4 68.1 L 430.0 54.0 L 430.7 62.2 L 431.4 49.2 L 432.7 47.8 L 433.3 56.1 L 434.0 58.9 L 434.6 83.1 L 435.3 64.5 L 436.0 79.1 L 437.3 79.6 L 437.9 90.2 L 438.6 88.4 L 439.2 92.4 L 439.9 84.7 L 440.6 85.1 L 441.9 84.7 L 442.5 80.2 L 443.2 71.0 L 443.8 73.9 L 444.5 84.7 L 445.1 92.9 L 446.5 94.8 L 447.1 88.2 L 447.8 78.6 L 448.4 75.5 L 449.1 64.4 L 449.7 59.3 L 451.1 59.8 L 451.7 56.0 L 452.4 64.0 L 453.0 67.0 L 453.7 73.7 L 454.3 77.8 L 455.7 78.1 L 456.3 71.7 L 457.0 71.4 L 457.6 70.6 L 458.3 79.7 L 458.9 83.8 L 460.3 83.3 L 460.9 85.1 L 461.6 93.2 L 462.2 106.1 L 462.9 113.8 L 463.5 111.8 L 464.9 110.4 L 465.5 107.2 L 466.2 110.5 L 466.8 124.3 L 467.5 117.2 L 468.1 112.1 L 469.5 111.2 L 470.1 108.0 L 470.8 112.9 L 471.4 124.6 L 472.1 128.9 L 472.7 132.2 L 474.1 131.7 L 474.7 121.2 L 475.4 107.5 L 476.0 102.8 L 476.7 104.4 L 477.3 96.4 L 478.7 94.1 L 479.3 92.8 L 480.0 83.8 L 480.6 86.5 L 481.3 90.4 L 481.9 93.7 L 483.3 91.1 L 483.9 88.5 L 484.6 107.9 L 485.2 117.7 L 485.9 114.9 L 486.5 104.4 L 487.9 103.9 L 488.5 119.2 L 489.2 118.7 L 489.8 122.1 L 490.5 116.6 L 491.1 117.5 L 492.5 113.4 L 493.1 118.7 L 493.8 115.7 L 494.4 123.0 L 495.1 124.9 L 495.7 124.3 L 497.1 125.8 L 497.7 123.3 L 498.4 109.3 L 499.0 112.2 L 499.7 112.1 L 500.3 109.0 L 501.7 92.5 L 502.3 114.7 L 503.0 109.5" stroke="black" stroke-width="1"  stroke-linejoin="round" stroke-linecap="round"  stroke-opacity="0.1" transform="translate(1, 1)"></path><path fill="none" d="M 4.9 240.4 L 5.6 245.3 L 6.2 245.7 L 6.9 246.4 L 7.6 255.7 L 8.2 254.3 L 9.5 253.1 L 10.2 256.3 L 10.8 259.7 L 11.5 261.0 L 12.2 263.2 L 12.8 261.6 L 14.1 262.1 L 14.8 262.9 L 15.4 264.3 L 16.1 258.6 L 16.8 254.1 L 17.4 248.2 L 18.7 247.2 L 19.4 248.0 L 20.0 245.8 L 20.7 241.5 L 21.4 242.9 L 22.0 241.3 L 23.3 241.3 L 24.0 244.7 L 24.6 239.4 L 25.3 241.3 L 26.0 235.3 L 26.6 230.2 L 27.9 229.1 L 28.6 232.6 L 29.2 227.0 L 29.9 239.4 L 30.6 246.7 L 31.2 244.9 L 32.5 244.5 L 33.2 244.6 L 33.8 250.6 L 34.5 248.4 L 35.2 247.4 L 35.8 249.4 L 37.1 250.5 L 37.8 252.0 L 38.4 254.3 L 39.1 253.0 L 39.8 257.5 L 40.4 257.7 L 41.7 258.1 L 42.4 256.6 L 43.0 256.6 L 43.7 258.9 L 44.4 253.4 L 45.0 257.8 L 46.3 257.4 L 47.0 256.4 L 47.6 259.2 L 48.3 261.0 L 49.0 263.6 L 49.6 261.4 L 50.9 261.1 L 51.6 258.8 L 52.2 256.6 L 52.9 256.3 L 53.6 261.6 L 54.2 260.6 L 55.5 260.5 L 56.2 260.9 L 56.8 265.7 L 57.5 262.1 L 58.2 262.1 L 58.8 263.7 L 60.1 263.8 L 60.8 262.9 L 61.4 264.2 L 62.1 261.1 L 62.8 255.4 L 63.4 254.3 L 64.7 253.3 L 65.4 252.3 L 66.0 251.1 L 66.7 253.4 L 67.3 248.1 L 68.0 251.6 L 69.3 251.3 L 70.0 256.2 L 70.6 256.9 L 71.3 259.5 L 71.9 258.8 L 72.6 258.5 L 73.9 262.2 L 74.6 260.8 L 75.2 262.2 L 75.9 271.6 L 76.5 272.2 L 77.2 271.8 L 78.5 272.4 L 79.2 270.1 L 79.8 268.9 L 80.5 271.9 L 81.1 269.9 L 81.8 271.6 L 83.1 270.2 L 83.8 271.9 L 84.4 271.9 L 85.1 274.9 L 85.7 277.2 L 86.4 273.7 L 87.7 274.3 L 88.4 275.2 L 89.0 274.6 L 89.7 271.9 L 90.3 271.5 L 91.0 272.8 L 92.3 273.6 L 93.0 273.9 L 93.6 271.7 L 94.3 272.4 L 94.9 280.4 L 95.6 280.9 L 96.9 280.7 L 97.6 280.8 L 98.2 286.2 L 98.9 286.0 L 99.5 287.2 L 100.2 287.5 L 101.5 287.5 L 102.2 286.3 L 102.8 284.3 L 103.5 283.7 L 104.1 275.3 L 104.8 269.7 L 106.1 270.1 L 106.8 271.3 L 107.4 269.0 L 108.1 271.2 L 108.7 265.8 L 109.4 263.0 L 110.7 261.6 L 111.4 265.0 L 112.0 266.8 L 112.7 269.7 L 113.3 268.2 L 114.0 270.2 L 115.3 269.4 L 116.0 270.7 L 116.6 272.7 L 117.3 266.9 L 117.9 269.3 L 118.6 273.7 L 119.9 273.4 L 120.6 271.3 L 121.2 274.5 L 121.9 274.9 L 122.5 276.4 L 123.2 275.6 L 124.5 275.2 L 125.2 272.8 L 125.8 275.5 L 126.5 275.7 L 127.1 279.9 L 127.8 282.0 L 129.1 282.1 L 129.8 283.8 L 130.4 285.1 L 131.1 286.4 L 131.7 284.8 L 132.4 284.2 L 133.7 283.9 L 134.4 285.1 L 135.0 285.5 L 135.7 280.9 L 136.3 279.7 L 137.0 280.1 L 138.3 280.5 L 139.0 281.5 L 139.6 280.8 L 140.3 280.6 L 140.9 281.2 L 141.6 284.0 L 142.9 284.6 L 143.6 287.5 L 144.2 284.3 L 144.9 284.7 L 145.5 280.2 L 146.2 275.5 L 147.5 275.9 L 148.2 277.7 L 148.8 277.0 L 149.5 274.8 L 150.1 276.5 L 150.8 280.0 L 152.1 280.1 L 152.8 280.1 L 153.4 280.6 L 154.1 276.4 L 154.7 277.4 L 155.4 272.8 L 156.7 272.1 L 157.4 273.4 L 158.0 274.0 L 158.7 273.2 L 159.3 281.5 L 160.0 280.5 L 161.3 281.0 L 162.0 280.2 L 162.6 280.0 L 163.3 279.7 L 163.9 273.6 L 164.6 269.7 L 165.9 269.8 L 166.6 271.9 L 167.2 271.5 L 167.9 272.4 L 168.5 275.6 L 169.2 278.1 L 170.5 277.2 L 171.2 278.7 L 171.8 278.3 L 172.5 275.8 L 173.1 280.7 L 173.8 281.2 L 175.1 281.7 L 175.8 282.2 L 176.4 285.0 L 177.1 283.6 L 177.7 282.8 L 178.4 283.9 L 179.7 283.7 L 180.4 283.7 L 181.0 284.3 L 181.7 281.0 L 182.3 282.2 L 183.0 287.4 L 184.3 285.9 L 185.0 283.7 L 185.6 284.2 L 186.3 283.5 L 186.9 290.5 L 187.6 291.5 L 188.9 291.5 L 189.6 291.4 L 190.2 290.4 L 190.9 292.9 L 191.5 291.0 L 192.2 293.4 L 193.5 293.3 L 194.2 293.9 L 194.8 294.5 L 195.5 289.1 L 196.1 286.0 L 196.8 287.0 L 198.1 287.2 L 198.8 289.4 L 199.4 288.7 L 200.1 286.3 L 200.7 283.9 L 201.4 284.7 L 202.7 284.6 L 203.4 285.7 L 204.0 286.9 L 204.7 285.4 L 205.3 282.8 L 206.0 281.9 L 207.3 281.9 L 208.0 283.9 L 208.6 287.1 L 209.3 290.2 L 209.9 292.1 L 210.6 291.9 L 211.9 289.8 L 212.6 288.3 L 213.2 288.0 L 213.9 288.1 L 214.5 288.1 L 215.2 288.1 L 216.5 288.0 L 217.2 286.9 L 217.8 287.5 L 218.5 288.1 L 219.1 289.1 L 219.8 289.1 L 221.1 289.4 L 221.8 290.0 L 222.4 287.9 L 223.1 290.9 L 223.7 291.0 L 224.4 291.1 L 225.7 291.1 L 226.4 291.4 L 227.0 294.2 L 227.7 293.3 L 228.3 289.5 L 229.0 285.0 L 230.3 285.1 L 231.0 284.9 L 231.6 282.0 L 232.3 282.6 L 232.9 282.3 L 233.6 281.4 L 234.9 281.9 L 235.6 282.2 L 236.2 281.9 L 236.9 280.9 L 237.5 279.3 L 238.2 278.0 L 239.5 277.7 L 240.2 278.6 L 240.8 278.0 L 241.5 275.6 L 242.1 276.3 L 242.8 277.8 L 244.1 277.7 L 244.8 275.9 L 245.4 277.7 L 246.1 276.1 L 246.7 279.5 L 247.4 278.5 L 248.7 278.8 L 249.4 275.8 L 250.0 273.2 L 250.7 272.4 L 251.3 273.4 L 252.0 272.9 L 253.3 272.5 L 254 274.7 L 254.6 273.1 L 255.3 275.8 L 255.9 276.5 L 256.6 276.1 L 257.9 275.7 L 258.5 276.4 L 259.2 276.4 L 259.9 277.8 L 260.5 276.7 L 261.2 278.8 L 262.5 278.5 L 263.1 281.2 L 263.8 280.6 L 264.5 279.6 L 265.1 276.7 L 265.8 275.8 L 267.1 275.4 L 267.7 276.4 L 268.4 276.9 L 269.1 278.6 L 269.7 276.6 L 270.4 276.5 L 271.7 276.2 L 272.3 277.3 L 273.0 274.5 L 273.7 271.9 L 274.3 272.1 L 275.0 271.8 L 276.3 272.3 L 276.9 271.7 L 277.6 268.4 L 278.3 268.4 L 278.9 268.3 L 279.6 266.4 L 280.9 266.3 L 281.5 267.0 L 282.2 265.2 L 282.9 264.5 L 283.5 264.0 L 284.2 266.4 L 285.5 266.3 L 286.1 266.0 L 286.8 263.2 L 287.5 263.7 L 288.1 262.6 L 288.8 265.3 L 290.1 265.0 L 290.7 263.9 L 291.4 262.9 L 292.1 262.7 L 292.7 262.7 L 293.4 264.6 L 294.7 264.0 L 295.3 262.6 L 296.0 259.9 L 296.7 256.5 L 297.3 257.8 L 298.0 255.5 L 299.3 252.7 L 299.9 252.4 L 300.6 251.1 L 301.3 252.4 L 301.9 251.9 L 302.6 248.9 L 303.9 248.5 L 304.5 248.5 L 305.2 248.9 L 305.9 249.9 L 306.5 237.3 L 307.2 237.6 L 308.5 237.7 L 309.1 234.4 L 309.8 236.8 L 310.5 235.5 L 311.1 236.2 L 311.8 238.6 L 313.1 238.1 L 313.7 237.1 L 314.4 238.2 L 315.1 232.4 L 315.7 235.8 L 316.4 230.1 L 317.7 230.7 L 318.3 231.4 L 319.0 231.2 L 319.7 227.0 L 320.3 225.0 L 321.0 220.7 L 322.3 220.0 L 322.9 220.8 L 323.6 217.4 L 324.3 216.8 L 324.9 219.8 L 325.6 209.8 L 326.9 209.5 L 327.5 218.7 L 328.2 219.8 L 328.9 224.0 L 329.5 221.1 L 330.2 217.1 L 331.5 217.8 L 332.1 225.1 L 332.8 219.0 L 333.5 230.5 L 334.1 228.9 L 334.8 225.8 L 336.1 224.9 L 336.7 228.1 L 337.4 222.8 L 338.1 218.5 L 338.7 218.3 L 339.4 219.8 L 340.7 220.2 L 341.3 221.7 L 342.0 224.0 L 342.7 217.4 L 343.3 216.0 L 344.0 210.3 L 345.3 208.7 L 345.9 207.4 L 346.6 211.6 L 347.3 207.7 L 347.9 200.2 L 348.6 205.5 L 349.9 206.0 L 350.5 203.3 L 351.2 206.9 L 351.8 204.4 L 352.5 207.1 L 353.2 210.2 L 354.5 209.9 L 355.1 205.3 L 355.8 211.1 L 356.4 212.3 L 357.1 211.2 L 357.8 201.2 L 359.1 200.1 L 359.7 204.8 L 360.4 206.9 L 361.0 209.0 L 361.7 206.3 L 362.4 205.4 L 363.7 204.4 L 364.3 206.5 L 365.0 200.8 L 365.6 195.8 L 366.3 200.5 L 367.0 194.1 L 368.3 194.5 L 368.9 196.2 L 369.6 200.2 L 370.2 205.1 L 370.9 202.7 L 371.6 206.1 L 372.9 206.1 L 373.5 204.4 L 374.2 209.3 L 374.8 198.0 L 375.5 194.1 L 376.2 190.1 L 377.5 189.8 L 378.1 190.3 L 378.8 186.2 L 379.4 187.8 L 380.1 189.6 L 380.8 186.4 L 382.1 185.9 L 382.7 184.7 L 383.4 185.1 L 384.0 180.9 L 384.7 181.3 L 385.4 174.1 L 386.7 169.9 L 387.3 169.0 L 388.0 165.7 L 388.6 162.0 L 389.3 158.5 L 390.0 162.2 L 391.3 164.3 L 391.9 161.6 L 392.6 157.0 L 393.2 158.3 L 393.9 146.2 L 394.6 141.5 L 395.9 141.0 L 396.5 144.2 L 397.2 140.0 L 397.8 144.7 L 398.5 125.4 L 399.2 112.4 L 400.5 105.3 L 401.1 114.9 L 401.8 126.5 L 402.4 119.0 L 403.1 121.6 L 403.8 119.0 L 405.1 120.7 L 405.7 123.4 L 406.4 134.5 L 407.0 123.8 L 407.7 134.2 L 408.4 121.3 L 409.7 121.1 L 410.3 121.9 L 411.0 121.7 L 411.6 122.8 L 412.3 128.3 L 413.0 126.9 L 414.3 127.9 L 414.9 124.4 L 415.6 129.1 L 416.2 127.9 L 416.9 125.4 L 417.6 126.5 L 418.9 126.5 L 419.5 122.6 L 420.2 123.3 L 420.8 125.0 L 421.5 111.5 L 422.2 111.4 L 423.5 108.5 L 424.1 110.4 L 424.8 109.7 L 425.4 101.6 L 426.1 97.4 L 426.8 81.1 L 428.1 81.2 L 428.7 82.0 L 429.4 68.1 L 430.0 54.0 L 430.7 62.2 L 431.4 49.2 L 432.7 47.8 L 433.3 56.1 L 434.0 58.9 L 434.6 83.1 L 435.3 64.5 L 436.0 79.1 L 437.3 79.6 L 437.9 90.2 L 438.6 88.4 L 439.2 92.4 L 439.9 84.7 L 440.6 85.1 L 441.9 84.7 L 442.5 80.2 L 443.2 71.0 L 443.8 73.9 L 444.5 84.7 L 445.1 92.9 L 446.5 94.8 L 447.1 88.2 L 447.8 78.6 L 448.4 75.5 L 449.1 64.4 L 449.7 59.3 L 451.1 59.8 L 451.7 56.0 L 452.4 64.0 L 453.0 67.0 L 453.7 73.7 L 454.3 77.8 L 455.7 78.1 L 456.3 71.7 L 457.0 71.4 L 457.6 70.6 L 458.3 79.7 L 458.9 83.8 L 460.3 83.3 L 460.9 85.1 L 461.6 93.2 L 462.2 106.1 L 462.9 113.8 L 463.5 111.8 L 464.9 110.4 L 465.5 107.2 L 466.2 110.5 L 466.8 124.3 L 467.5 117.2 L 468.1 112.1 L 469.5 111.2 L 470.1 108.0 L 470.8 112.9 L 471.4 124.6 L 472.1 128.9 L 472.7 132.2 L 474.1 131.7 L 474.7 121.2 L 475.4 107.5 L 476.0 102.8 L 476.7 104.4 L 477.3 96.4 L 478.7 94.1 L 479.3 92.8 L 480.0 83.8 L 480.6 86.5 L 481.3 90.4 L 481.9 93.7 L 483.3 91.1 L 483.9 88.5 L 484.6 107.9 L 485.2 117.7 L 485.9 114.9 L 486.5 104.4 L 487.9 103.9 L 488.5 119.2 L 489.2 118.7 L 489.8 122.1 L 490.5 116.6 L 491.1 117.5 L 492.5 113.4 L 493.1 118.7 L 493.8 115.7 L 494.4 123.0 L 495.1 124.9 L 495.7 124.3 L 497.1 125.8 L 497.7 123.3 L 498.4 109.3 L 499.0 112.2 L 499.7 112.1 L 500.3 109.0 L 501.7 92.5 L 502.3 114.7 L 503.0 109.5" stroke="#f45b5b" stroke-width="1"  stroke-linejoin="round" stroke-linecap="round"></path><path fill="none" d="M -5.0 240.4 L 4.9 240.4 L 5.6 245.3 L 6.2 245.7 L 6.9 246.4 L 7.6 255.7 L 8.2 254.3 L 9.5 253.1 L 10.2 256.3 L 10.8 259.7 L 11.5 261.0 L 12.2 263.2 L 12.8 261.6 L 14.1 262.1 L 14.8 262.9 L 15.4 264.3 L 16.1 258.6 L 16.8 254.1 L 17.4 248.2 L 18.7 247.2 L 19.4 248.0 L 20.0 245.8 L 20.7 241.5 L 21.4 242.9 L 22.0 241.3 L 23.3 241.3 L 24.0 244.7 L 24.6 239.4 L 25.3 241.3 L 26.0 235.3 L 26.6 230.2 L 27.9 229.1 L 28.6 232.6 L 29.2 227.0 L 29.9 239.4 L 30.6 246.7 L 31.2 244.9 L 32.5 244.5 L 33.2 244.6 L 33.8 250.6 L 34.5 248.4 L 35.2 247.4 L 35.8 249.4 L 37.1 250.5 L 37.8 252.0 L 38.4 254.3 L 39.1 253.0 L 39.8 257.5 L 40.4 257.7 L 41.7 258.1 L 42.4 256.6 L 43.0 256.6 L 43.7 258.9 L 44.4 253.4 L 45.0 257.8 L 46.3 257.4 L 47.0 256.4 L 47.6 259.2 L 48.3 261.0 L 49.0 263.6 L 49.6 261.4 L 50.9 261.1 L 51.6 258.8 L 52.2 256.6 L 52.9 256.3 L 53.6 261.6 L 54.2 260.6 L 55.5 260.5 L 56.2 260.9 L 56.8 265.7 L 57.5 262.1 L 58.2 262.1 L 58.8 263.7 L 60.1 263.8 L 60.8 262.9 L 61.4 264.2 L 62.1 261.1 L 62.8 255.4 L 63.4 254.3 L 64.7 253.3 L 65.4 252.3 L 66.0 251.1 L 66.7 253.4 L 67.3 248.1 L 68.0 251.6 L 69.3 251.3 L 70.0 256.2 L 70.6 256.9 L 71.3 259.5 L 71.9 258.8 L 72.6 258.5 L 73.9 262.2 L 74.6 260.8 L 75.2 262.2 L 75.9 271.6 L 76.5 272.2 L 77.2 271.8 L 78.5 272.4 L 79.2 270.1 L 79.8 268.9 L 80.5 271.9 L 81.1 269.9 L 81.8 271.6 L 83.1 270.2 L 83.8 271.9 L 84.4 271.9 L 85.1 274.9 L 85.7 277.2 L 86.4 273.7 L 87.7 274.3 L 88.4 275.2 L 89.0 274.6 L 89.7 271.9 L 90.3 271.5 L 91.0 272.8 L 92.3 273.6 L 93.0 273.9 L 93.6 271.7 L 94.3 272.4 L 94.9 280.4 L 95.6 280.9 L 96.9 280.7 L 97.6 280.8 L 98.2 286.2 L 98.9 286.0 L 99.5 287.2 L 100.2 287.5 L 101.5 287.5 L 102.2 286.3 L 102.8 284.3 L 103.5 283.7 L 104.1 275.3 L 104.8 269.7 L 106.1 270.1 L 106.8 271.3 L 107.4 269.0 L 108.1 271.2 L 108.7 265.8 L 109.4 263.0 L 110.7 261.6 L 111.4 265.0 L 112.0 266.8 L 112.7 269.7 L 113.3 268.2 L 114.0 270.2 L 115.3 269.4 L 116.0 270.7 L 116.6 272.7 L 117.3 266.9 L 117.9 269.3 L 118.6 273.7 L 119.9 273.4 L 120.6 271.3 L 121.2 274.5 L 121.9 274.9 L 122.5 276.4 L 123.2 275.6 L 124.5 275.2 L 125.2 272.8 L 125.8 275.5 L 126.5 275.7 L 127.1 279.9 L 127.8 282.0 L 129.1 282.1 L 129.8 283.8 L 130.4 285.1 L 131.1 286.4 L 131.7 284.8 L 132.4 284.2 L 133.7 283.9 L 134.4 285.1 L 135.0 285.5 L 135.7 280.9 L 136.3 279.7 L 137.0 280.1 L 138.3 280.5 L 139.0 281.5 L 139.6 280.8 L 140.3 280.6 L 140.9 281.2 L 141.6 284.0 L 142.9 284.6 L 143.6 287.5 L 144.2 284.3 L 144.9 284.7 L 145.5 280.2 L 146.2 275.5 L 147.5 275.9 L 148.2 277.7 L 148.8 277.0 L 149.5 274.8 L 150.1 276.5 L 150.8 280.0 L 152.1 280.1 L 152.8 280.1 L 153.4 280.6 L 154.1 276.4 L 154.7 277.4 L 155.4 272.8 L 156.7 272.1 L 157.4 273.4 L 158.0 274.0 L 158.7 273.2 L 159.3 281.5 L 160.0 280.5 L 161.3 281.0 L 162.0 280.2 L 162.6 280.0 L 163.3 279.7 L 163.9 273.6 L 164.6 269.7 L 165.9 269.8 L 166.6 271.9 L 167.2 271.5 L 167.9 272.4 L 168.5 275.6 L 169.2 278.1 L 170.5 277.2 L 171.2 278.7 L 171.8 278.3 L 172.5 275.8 L 173.1 280.7 L 173.8 281.2 L 175.1 281.7 L 175.8 282.2 L 176.4 285.0 L 177.1 283.6 L 177.7 282.8 L 178.4 283.9 L 179.7 283.7 L 180.4 283.7 L 181.0 284.3 L 181.7 281.0 L 182.3 282.2 L 183.0 287.4 L 184.3 285.9 L 185.0 283.7 L 185.6 284.2 L 186.3 283.5 L 186.9 290.5 L 187.6 291.5 L 188.9 291.5 L 189.6 291.4 L 190.2 290.4 L 190.9 292.9 L 191.5 291.0 L 192.2 293.4 L 193.5 293.3 L 194.2 293.9 L 194.8 294.5 L 195.5 289.1 L 196.1 286.0 L 196.8 287.0 L 198.1 287.2 L 198.8 289.4 L 199.4 288.7 L 200.1 286.3 L 200.7 283.9 L 201.4 284.7 L 202.7 284.6 L 203.4 285.7 L 204.0 286.9 L 204.7 285.4 L 205.3 282.8 L 206.0 281.9 L 207.3 281.9 L 208.0 283.9 L 208.6 287.1 L 209.3 290.2 L 209.9 292.1 L 210.6 291.9 L 211.9 289.8 L 212.6 288.3 L 213.2 288.0 L 213.9 288.1 L 214.5 288.1 L 215.2 288.1 L 216.5 288.0 L 217.2 286.9 L 217.8 287.5 L 218.5 288.1 L 219.1 289.1 L 219.8 289.1 L 221.1 289.4 L 221.8 290.0 L 222.4 287.9 L 223.1 290.9 L 223.7 291.0 L 224.4 291.1 L 225.7 291.1 L 226.4 291.4 L 227.0 294.2 L 227.7 293.3 L 228.3 289.5 L 229.0 285.0 L 230.3 285.1 L 231.0 284.9 L 231.6 282.0 L 232.3 282.6 L 232.9 282.3 L 233.6 281.4 L 234.9 281.9 L 235.6 282.2 L 236.2 281.9 L 236.9 280.9 L 237.5 279.3 L 238.2 278.0 L 239.5 277.7 L 240.2 278.6 L 240.8 278.0 L 241.5 275.6 L 242.1 276.3 L 242.8 277.8 L 244.1 277.7 L 244.8 275.9 L 245.4 277.7 L 246.1 276.1 L 246.7 279.5 L 247.4 278.5 L 248.7 278.8 L 249.4 275.8 L 250.0 273.2 L 250.7 272.4 L 251.3 273.4 L 252.0 272.9 L 253.3 272.5 L 254 274.7 L 254.6 273.1 L 255.3 275.8 L 255.9 276.5 L 256.6 276.1 L 257.9 275.7 L 258.5 276.4 L 259.2 276.4 L 259.9 277.8 L 260.5 276.7 L 261.2 278.8 L 262.5 278.5 L 263.1 281.2 L 263.8 280.6 L 264.5 279.6 L 265.1 276.7 L 265.8 275.8 L 267.1 275.4 L 267.7 276.4 L 268.4 276.9 L 269.1 278.6 L 269.7 276.6 L 270.4 276.5 L 271.7 276.2 L 272.3 277.3 L 273.0 274.5 L 273.7 271.9 L 274.3 272.1 L 275.0 271.8 L 276.3 272.3 L 276.9 271.7 L 277.6 268.4 L 278.3 268.4 L 278.9 268.3 L 279.6 266.4 L 280.9 266.3 L 281.5 267.0 L 282.2 265.2 L 282.9 264.5 L 283.5 264.0 L 284.2 266.4 L 285.5 266.3 L 286.1 266.0 L 286.8 263.2 L 287.5 263.7 L 288.1 262.6 L 288.8 265.3 L 290.1 265.0 L 290.7 263.9 L 291.4 262.9 L 292.1 262.7 L 292.7 262.7 L 293.4 264.6 L 294.7 264.0 L 295.3 262.6 L 296.0 259.9 L 296.7 256.5 L 297.3 257.8 L 298.0 255.5 L 299.3 252.7 L 299.9 252.4 L 300.6 251.1 L 301.3 252.4 L 301.9 251.9 L 302.6 248.9 L 303.9 248.5 L 304.5 248.5 L 305.2 248.9 L 305.9 249.9 L 306.5 237.3 L 307.2 237.6 L 308.5 237.7 L 309.1 234.4 L 309.8 236.8 L 310.5 235.5 L 311.1 236.2 L 311.8 238.6 L 313.1 238.1 L 313.7 237.1 L 314.4 238.2 L 315.1 232.4 L 315.7 235.8 L 316.4 230.1 L 317.7 230.7 L 318.3 231.4 L 319.0 231.2 L 319.7 227.0 L 320.3 225.0 L 321.0 220.7 L 322.3 220.0 L 322.9 220.8 L 323.6 217.4 L 324.3 216.8 L 324.9 219.8 L 325.6 209.8 L 326.9 209.5 L 327.5 218.7 L 328.2 219.8 L 328.9 224.0 L 329.5 221.1 L 330.2 217.1 L 331.5 217.8 L 332.1 225.1 L 332.8 219.0 L 333.5 230.5 L 334.1 228.9 L 334.8 225.8 L 336.1 224.9 L 336.7 228.1 L 337.4 222.8 L 338.1 218.5 L 338.7 218.3 L 339.4 219.8 L 340.7 220.2 L 341.3 221.7 L 342.0 224.0 L 342.7 217.4 L 343.3 216.0 L 344.0 210.3 L 345.3 208.7 L 345.9 207.4 L 346.6 211.6 L 347.3 207.7 L 347.9 200.2 L 348.6 205.5 L 349.9 206.0 L 350.5 203.3 L 351.2 206.9 L 351.8 204.4 L 352.5 207.1 L 353.2 210.2 L 354.5 209.9 L 355.1 205.3 L 355.8 211.1 L 356.4 212.3 L 357.1 211.2 L 357.8 201.2 L 359.1 200.1 L 359.7 204.8 L 360.4 206.9 L 361.0 209.0 L 361.7 206.3 L 362.4 205.4 L 363.7 204.4 L 364.3 206.5 L 365.0 200.8 L 365.6 195.8 L 366.3 200.5 L 367.0 194.1 L 368.3 194.5 L 368.9 196.2 L 369.6 200.2 L 370.2 205.1 L 370.9 202.7 L 371.6 206.1 L 372.9 206.1 L 373.5 204.4 L 374.2 209.3 L 374.8 198.0 L 375.5 194.1 L 376.2 190.1 L 377.5 189.8 L 378.1 190.3 L 378.8 186.2 L 379.4 187.8 L 380.1 189.6 L 380.8 186.4 L 382.1 185.9 L 382.7 184.7 L 383.4 185.1 L 384.0 180.9 L 384.7 181.3 L 385.4 174.1 L 386.7 169.9 L 387.3 169.0 L 388.0 165.7 L 388.6 162.0 L 389.3 158.5 L 390.0 162.2 L 391.3 164.3 L 391.9 161.6 L 392.6 157.0 L 393.2 158.3 L 393.9 146.2 L 394.6 141.5 L 395.9 141.0 L 396.5 144.2 L 397.2 140.0 L 397.8 144.7 L 398.5 125.4 L 399.2 112.4 L 400.5 105.3 L 401.1 114.9 L 401.8 126.5 L 402.4 119.0 L 403.1 121.6 L 403.8 119.0 L 405.1 120.7 L 405.7 123.4 L 406.4 134.5 L 407.0 123.8 L 407.7 134.2 L 408.4 121.3 L 409.7 121.1 L 410.3 121.9 L 411.0 121.7 L 411.6 122.8 L 412.3 128.3 L 413.0 126.9 L 414.3 127.9 L 414.9 124.4 L 415.6 129.1 L 416.2 127.9 L 416.9 125.4 L 417.6 126.5 L 418.9 126.5 L 419.5 122.6 L 420.2 123.3 L 420.8 125.0 L 421.5 111.5 L 422.2 111.4 L 423.5 108.5 L 424.1 110.4 L 424.8 109.7 L 425.4 101.6 L 426.1 97.4 L 426.8 81.1 L 428.1 81.2 L 428.7 82.0 L 429.4 68.1 L 430.0 54.0 L 430.7 62.2 L 431.4 49.2 L 432.7 47.8 L 433.3 56.1 L 434.0 58.9 L 434.6 83.1 L 435.3 64.5 L 436.0 79.1 L 437.3 79.6 L 437.9 90.2 L 438.6 88.4 L 439.2 92.4 L 439.9 84.7 L 440.6 85.1 L 441.9 84.7 L 442.5 80.2 L 443.2 71.0 L 443.8 73.9 L 444.5 84.7 L 445.1 92.9 L 446.5 94.8 L 447.1 88.2 L 447.8 78.6 L 448.4 75.5 L 449.1 64.4 L 449.7 59.3 L 451.1 59.8 L 451.7 56.0 L 452.4 64.0 L 453.0 67.0 L 453.7 73.7 L 454.3 77.8 L 455.7 78.1 L 456.3 71.7 L 457.0 71.4 L 457.6 70.6 L 458.3 79.7 L 458.9 83.8 L 460.3 83.3 L 460.9 85.1 L 461.6 93.2 L 462.2 106.1 L 462.9 113.8 L 463.5 111.8 L 464.9 110.4 L 465.5 107.2 L 466.2 110.5 L 466.8 124.3 L 467.5 117.2 L 468.1 112.1 L 469.5 111.2 L 470.1 108.0 L 470.8 112.9 L 471.4 124.6 L 472.1 128.9 L 472.7 132.2 L 474.1 131.7 L 474.7 121.2 L 475.4 107.5 L 476.0 102.8 L 476.7 104.4 L 477.3 96.4 L 478.7 94.1 L 479.3 92.8 L 480.0 83.8 L 480.6 86.5 L 481.3 90.4 L 481.9 93.7 L 483.3 91.1 L 483.9 88.5 L 484.6 107.9 L 485.2 117.7 L 485.9 114.9 L 486.5 104.4 L 487.9 103.9 L 488.5 119.2 L 489.2 118.7 L 489.8 122.1 L 490.5 116.6 L 491.1 117.5 L 492.5 113.4 L 493.1 118.7 L 493.8 115.7 L 494.4 123.0 L 495.1 124.9 L 495.7 124.3 L 497.1 125.8 L 497.7 123.3 L 498.4 109.3 L 499.0 112.2 L 499.7 112.1 L 500.3 109.0 L 501.7 92.5 L 502.3 114.7 L 503.0 109.5 L 513.0 109.5" stroke-linejoin="round" visibility="visible" stroke="rgb(192,192,192)" stroke-opacity="0.0" stroke-width="21"  class=" highcharts-tracker" style=""></path></g><g class="highcharts-markers highcharts-tracker" visibility="visible"  transform="translate(66,53) scale(1 1)" clip-path="url(#highcharts-2)" style=""></g></g><text x="292" text-anchor="middle" class="highcharts-title"  style="color:black;font-size:16px;font-weight:bold;fill:black;width:520px;" y="22"><tspan>USD to EUR exchange rate over time</tspan></text><text x="292" text-anchor="middle" class="highcharts-subtitle"  style="color:black;fill:black;width:520px;" y="40"><tspan>Pinch the chart to zoom in</tspan></text><g class="highcharts-axis-labels highcharts-xaxis-labels" ><text x="210.9" style="color:#6e6e70;cursor:default;font-size:11px;fill:#6e6e70;width:117px;text-overflow:clip;" text-anchor="middle" transform="translate(0,0)" y="385" opacity="1"><tspan>Jan '14</tspan></text><text x="450.7" style="color:#6e6e70;cursor:default;font-size:11px;fill:#6e6e70;width:117px;text-overflow:clip;" text-anchor="middle" transform="translate(0,0)" y="385" opacity="1"><tspan>Jan '15</tspan></text><text x="90.0" style="color:#6e6e70;cursor:default;font-size:11px;fill:#6e6e70;width:117px;text-overflow:clip;" text-anchor="middle" transform="translate(0,0)" y="385" opacity="1"><tspan>Jul '13</tspan></text><text x="329.8" style="color:#6e6e70;cursor:default;font-size:11px;fill:#6e6e70;width:117px;text-overflow:clip;" text-anchor="middle" transform="translate(0,0)" y="385" opacity="1"><tspan>Jul '14</tspan></text><text x="559.7" style="color:#6e6e70;cursor:default;font-size:11px;fill:#6e6e70;width:117px;text-overflow:clip;" text-anchor="middle" transform="translate(0,0)" y="385" opacity="1"><tspan>Jul '15</tspan></text></g><g class="highcharts-axis-labels highcharts-yaxis-labels" ><text x="51" style="color:#6e6e70;cursor:default;font-size:11px;fill:#6e6e70;width:183px;text-overflow:clip;" text-anchor="end" transform="translate(0,0)" y="372" opacity="1">0.7</text><text x="51" style="color:#6e6e70;cursor:default;font-size:11px;fill:#6e6e70;width:183px;text-overflow:clip;" text-anchor="end" transform="translate(0,0)" y="319" opacity="1">0.7</text><text x="51" style="color:#6e6e70;cursor:default;font-size:11px;fill:#6e6e70;width:183px;text-overflow:clip;" text-anchor="end" transform="translate(0,0)" y="267" opacity="1">0.8</text><text x="51" style="color:#6e6e70;cursor:default;font-size:11px;fill:#6e6e70;width:183px;text-overflow:clip;" text-anchor="end" transform="translate(0,0)" y="215" opacity="1">0.8</text><text x="51" style="color:#6e6e70;cursor:default;font-size:11px;fill:#6e6e70;width:183px;text-overflow:clip;" text-anchor="end" transform="translate(0,0)" y="163" opacity="1">0.9</text><text x="51" style="color:#6e6e70;cursor:default;font-size:11px;fill:#6e6e70;width:183px;text-overflow:clip;" text-anchor="end" transform="translate(0,0)" y="111" opacity="1">0.9</text><text x="51" style="color:#6e6e70;cursor:default;font-size:11px;fill:#6e6e70;width:183px;text-overflow:clip;" text-anchor="end" transform="translate(0,0)" y="59" opacity="1">1</text></g><g class="highcharts-tooltip"  style="cursor:default;padding:0;white-space:nowrap;" transform="translate(0,-9999)"><path fill="none" d="M 3 0 L 13 0 C 16 0 16 0 16 3 L 16 13 C 16 16 16 16 13 16 L 3 16 C 0 16 0 16 0 13 L 0 3 C 0 0 0 0 3 0"  stroke="black" stroke-opacity="0.0" stroke-width="5" transform="translate(1, 1)"></path><path fill="none" d="M 3 0 L 13 0 C 16 0 16 0 16 3 L 16 13 C 16 16 16 16 13 16 L 3 16 C 0 16 0 16 0 13 L 0 3 C 0 0 0 0 3 0"  stroke="black" stroke-opacity="0.0" stroke-width="3" transform="translate(1, 1)"></path><path fill="none" d="M 3 0 L 13 0 C 16 0 16 0 16 3 L 16 13 C 16 16 16 16 13 16 L 3 16 C 0 16 0 16 0 13 L 0 3 C 0 0 0 0 3 0"  stroke="black" stroke-opacity="0.1" stroke-width="1" transform="translate(1, 1)"></path><path fill="rgb(249, 249, 249)" fill-opacity=" .85" d="M 3 0 L 13 0 C 16 0 16 0 16 3 L 16 13 C 16 16 16 16 13 16 L 3 16 C 0 16 0 16 0 13 L 0 3 C 0 0 0 0 3 0"></path><text x="8"  style="font-size:12px;color:#333333;fill:#333333;" y="20"></text></g></svg>