<svg version="1.1" style="font-family: signika, serif; font-size: 12px; background-image: url(http://www.highcharts.com/samples/graphics/sand.png); background-position: initial initial; background-repeat: initial initial;" xmlns="http://www.w3.org/2000/svg" width="584" height="400" viewBox="0 0 584 400" xmlns:xlink="http://www.w3.org/1999/xlink"><style type="text/css"><![CDATA[@import url(http://fonts.googleapis.com/css?family=Signika:700);]]></style><desc>Created with Highcharts 4.1.7</desc><defs><clipPath id="highcharts-1"><rect x="0" y="0" width="516" height="277"></rect></clipPath><clipPath id="highcharts-2"><rect x="-99" y="-53" width="615" height="400"></rect></clipPath><clipPath id="highcharts-3"><rect x="0" y="0" width="516" height="277"></rect></clipPath></defs><g class="highcharts-grid" ></g><g class="highcharts-grid" ><path fill="none" d="M 58 330.5 L 574 330.5" stroke="#D8D8D8" stroke-width="1"  opacity="1"></path><path fill="none" d="M 58 284.5 L 574 284.5" stroke="#D8D8D8" stroke-width="1"  opacity="1"></path><path fill="none" d="M 58 238.5 L 574 238.5" stroke="#D8D8D8" stroke-width="1"  opacity="1"></path><path fill="none" d="M 58 192.5 L 574 192.5" stroke="#D8D8D8" stroke-width="1"  opacity="1"></path><path fill="none" d="M 58 145.5 L 574 145.5" stroke="#D8D8D8" stroke-width="1"  opacity="1"></path><path fill="none" d="M 58 99.5 L 574 99.5" stroke="#D8D8D8" stroke-width="1"  opacity="1"></path><path fill="none" d="M 58 52.5 L 574 52.5" stroke="#D8D8D8" stroke-width="1"  opacity="1"></path></g><g class="highcharts-axis" ><path fill="none" d="M 100.5 330 L 100.5 340" stroke="#C0D0E0" stroke-width="1" opacity="1"></path><path fill="none" d="M 143.5 330 L 143.5 340" stroke="#C0D0E0" stroke-width="1" opacity="1"></path><path fill="none" d="M 186.5 330 L 186.5 340" stroke="#C0D0E0" stroke-width="1" opacity="1"></path><path fill="none" d="M 229.5 330 L 229.5 340" stroke="#C0D0E0" stroke-width="1" opacity="1"></path><path fill="none" d="M 272.5 330 L 272.5 340" stroke="#C0D0E0" stroke-width="1" opacity="1"></path><path fill="none" d="M 315.5 330 L 315.5 340" stroke="#C0D0E0" stroke-width="1" opacity="1"></path><path fill="none" d="M 358.5 330 L 358.5 340" stroke="#C0D0E0" stroke-width="1" opacity="1"></path><path fill="none" d="M 401.5 330 L 401.5 340" stroke="#C0D0E0" stroke-width="1" opacity="1"></path><path fill="none" d="M 444.5 330 L 444.5 340" stroke="#C0D0E0" stroke-width="1" opacity="1"></path><path fill="none" d="M 487.5 330 L 487.5 340" stroke="#C0D0E0" stroke-width="1" opacity="1"></path><path fill="none" d="M 530.5 330 L 530.5 340" stroke="#C0D0E0" stroke-width="1" opacity="1"></path><path fill="none" d="M 574.5 330 L 574.5 340" stroke="#C0D0E0" stroke-width="1" opacity="1"></path><path fill="none" d="M 57.5 330 L 57.5 340" stroke="#C0D0E0" stroke-width="1" opacity="1"></path><path fill="none" d="M 58 330.5 L 574 330.5" stroke="#C0D0E0" stroke-width="1"  visibility="visible"></path></g><g class="highcharts-axis" ><text x="22"  text-anchor="middle" transform="translate(0,0) rotate(270 22 191.5)" class=" highcharts-yaxis-title" style="color:#707070;fill:#707070;" visibility="visible" y="191.5"><tspan>Temperature (°C)</tspan></text></g><g class="highcharts-series-group" ><g class="highcharts-series" visibility="visible"  transform="translate(58,53) scale(1 1)" clip-path="url(#highcharts-3)"><path fill="none" d="M 21.5 212.3 L 64.5 213.2 L 107.5 189.2 L 150.5 143.1 L 193.5 107.1 L 236.5 78.4 L 279.5 44.3 L 322.5 32.3 L 365.5 61.8 L 408.5 108.0 L 451.5 148.6 L 494.5 188.3" stroke="black" stroke-width="5"  stroke-linejoin="round" stroke-linecap="round"  stroke-opacity="0.0" transform="translate(1, 1)"></path><path fill="none" d="M 21.5 212.3 L 64.5 213.2 L 107.5 189.2 L 150.5 143.1 L 193.5 107.1 L 236.5 78.4 L 279.5 44.3 L 322.5 32.3 L 365.5 61.8 L 408.5 108.0 L 451.5 148.6 L 494.5 188.3" stroke="black" stroke-width="3"  stroke-linejoin="round" stroke-linecap="round"  stroke-opacity="0.0" transform="translate(1, 1)"></path><path fill="none" d="M 21.5 212.3 L 64.5 213.2 L 107.5 189.2 L 150.5 143.1 L 193.5 107.1 L 236.5 78.4 L 279.5 44.3 L 322.5 32.3 L 365.5 61.8 L 408.5 108.0 L 451.5 148.6 L 494.5 188.3" stroke="black" stroke-width="1"  stroke-linejoin="round" stroke-linecap="round"  stroke-opacity="0.1" transform="translate(1, 1)"></path><path fill="none" d="M 21.5 212.3 L 64.5 213.2 L 107.5 189.2 L 150.5 143.1 L 193.5 107.1 L 236.5 78.4 L 279.5 44.3 L 322.5 32.3 L 365.5 61.8 L 408.5 108.0 L 451.5 148.6 L 494.5 188.3" stroke="#f45b5b" stroke-width="2"  stroke-linejoin="round" stroke-linecap="round"></path></g><g class="highcharts-markers" visibility="visible"  transform="translate(58,53) scale(1 1)" clip-path="url(#highcharts-2)"><path fill="#f45b5b" d="M 494 184.3 C 499.3 184.3 499.3 192.3 494 192.3 C 488.6 192.3 488.6 184.3 494 184.3 Z"></path><path fill="#f45b5b" d="M 451 144.6 C 456.3 144.6 456.3 152.6 451 152.6 C 445.6 152.6 445.6 144.6 451 144.6 Z"></path><path fill="#f45b5b" d="M 408 104.0 C 413.3 104.0 413.3 112.0 408 112.0 C 402.6 112.0 402.6 104.0 408 104.0 Z"></path><path fill="#f45b5b" d="M 365 57.8 C 370.3 57.8 370.3 65.8 365 65.8 C 359.6 65.8 359.6 57.8 365 57.8 Z"></path><path fill="#f45b5b" d="M 322 28.3 C 327.3 28.3 327.3 36.3 322 36.3 C 316.6 36.3 316.6 28.3 322 28.3 Z"></path><path fill="#f45b5b" d="M 279 40.3 C 284.3 40.3 284.3 48.3 279 48.3 C 273.6 48.3 273.6 40.3 279 40.3 Z"></path><path fill="#f45b5b" d="M 236 74.4 C 241.3 74.4 241.3 82.4 236 82.4 C 230.6 82.4 230.6 74.4 236 74.4 Z"></path><path fill="#f45b5b" d="M 193 103.1 C 198.3 103.1 198.3 111.1 193 111.1 C 187.6 111.1 187.6 103.1 193 103.1 Z"></path><path fill="#f45b5b" d="M 150 139.1 C 155.3 139.1 155.3 147.1 150 147.1 C 144.6 147.1 144.6 139.1 150 139.1 Z"></path><path fill="#f45b5b" d="M 107 185.2 C 112.3 185.2 112.3 193.2 107 193.2 C 101.6 193.2 101.6 185.2 107 185.2 Z"></path><path fill="#f45b5b" d="M 64 209.2 C 69.3 209.2 69.3 217.2 64 217.2 C 58.6 217.2 58.6 209.2 64 209.2 Z"></path><path fill="#f45b5b" d="M 21 208.3 C 26.3 208.3 26.3 216.3 21 216.3 C 15.6 216.3 15.6 208.3 21 208.3 Z"></path></g><g class="highcharts-series" visibility="visible"  transform="translate(58,53) scale(1 1)" clip-path="url(#highcharts-3)"><path fill="none" d="M 21.5 240.9 L 64.5 238.2 L 107.5 224.3 L 150.5 198.5 L 193.5 167.1 L 236.5 136.6 L 279.5 120.0 L 322.5 123.7 L 365.5 145.8 L 408.5 181.8 L 451.5 216.0 L 494.5 232.6" stroke="black" stroke-width="5"  stroke-linejoin="round" stroke-linecap="round"  stroke-opacity="0.0" transform="translate(1, 1)"></path><path fill="none" d="M 21.5 240.9 L 64.5 238.2 L 107.5 224.3 L 150.5 198.5 L 193.5 167.1 L 236.5 136.6 L 279.5 120.0 L 322.5 123.7 L 365.5 145.8 L 408.5 181.8 L 451.5 216.0 L 494.5 232.6" stroke="black" stroke-width="3"  stroke-linejoin="round" stroke-linecap="round"  stroke-opacity="0.0" transform="translate(1, 1)"></path><path fill="none" d="M 21.5 240.9 L 64.5 238.2 L 107.5 224.3 L 150.5 198.5 L 193.5 167.1 L 236.5 136.6 L 279.5 120.0 L 322.5 123.7 L 365.5 145.8 L 408.5 181.8 L 451.5 216.0 L 494.5 232.6" stroke="black" stroke-width="1"  stroke-linejoin="round" stroke-linecap="round"  stroke-opacity="0.1" transform="translate(1, 1)"></path><path fill="none" d="M 21.5 240.9 L 64.5 238.2 L 107.5 224.3 L 150.5 198.5 L 193.5 167.1 L 236.5 136.6 L 279.5 120.0 L 322.5 123.7 L 365.5 145.8 L 408.5 181.8 L 451.5 216.0 L 494.5 232.6" stroke="#8085e9" stroke-width="2"  stroke-linejoin="round" stroke-linecap="round"></path></g><g class="highcharts-markers" visibility="visible"  transform="translate(58,53) scale(1 1)" clip-path="url(#highcharts-2)"><path fill="#8085e9" d="M 494 228.6 L 498 232.6 494 236.6 490 232.6 Z"></path><path fill="#8085e9" d="M 451 212.0 L 455 216.0 451 220.0 447 216.0 Z"></path><path fill="#8085e9" d="M 408 177.8 L 412 181.8 408 185.8 404 181.8 Z"></path><path fill="#8085e9" d="M 365 141.8 L 369 145.8 365 149.8 361 145.8 Z"></path><path fill="#8085e9" d="M 322 119.7 L 326 123.7 322 127.7 318 123.7 Z"></path><path fill="#8085e9" d="M 279 116.0 L 283 120.0 279 124.0 275 120.0 Z"></path><path fill="#8085e9" d="M 236 132.6 L 240 136.6 236 140.6 232 136.6 Z"></path><path fill="#8085e9" d="M 193 163.1 L 197 167.1 193 171.1 189 167.1 Z"></path><path fill="#8085e9" d="M 150 194.5 L 154 198.5 150 202.5 146 198.5 Z"></path><path fill="#8085e9" d="M 107 220.3 L 111 224.3 107 228.3 103 224.3 Z"></path><path fill="#8085e9" d="M 64 234.2 L 68 238.2 64 242.2 60 238.2 Z"></path><path fill="#8085e9" d="M 21 236.9 L 25 240.9 21 244.9 17 240.9 Z"></path></g></g><text x="292" text-anchor="middle" class="highcharts-title"  style="color:black;font-size:16px;font-weight:bold;fill:black;width:520px;" y="22"><tspan>Monthly Average Temperature</tspan></text><text x="292" text-anchor="middle" class="highcharts-subtitle"  style="color:black;fill:black;width:520px;" y="40"><tspan>Source: WorldClimate.com</tspan></text><g class="highcharts-data-labels" visibility="visible"  transform="translate(58,53) scale(1 1)"><g  style="" transform="translate(14,191)"><text x="5"  style="font-size: 11px; font-weight: bold; color: rgb(0, 0, 0); fill: #000000; text-shadow: rgb(255, 255, 255) 0px 0px 6px, rgb(255, 255, 255) 0px 0px 3px; text-rendering: geometricprecision;" y="16"><tspan>7</tspan></text></g><g  style="" transform="translate(53,192)"><text x="5"  style="font-size: 11px; font-weight: bold; color: rgb(0, 0, 0); fill: #000000; text-shadow: rgb(255, 255, 255) 0px 0px 6px, rgb(255, 255, 255) 0px 0px 3px; text-rendering: geometricprecision;" y="16"><tspan>6.9</tspan></text></g><g  style="" transform="translate(96,168)"><text x="5"  style="font-size: 11px; font-weight: bold; color: rgb(0, 0, 0); fill: #000000; text-shadow: rgb(255, 255, 255) 0px 0px 6px, rgb(255, 255, 255) 0px 0px 3px; text-rendering: geometricprecision;" y="16"><tspan>9.5</tspan></text></g><g  style="" transform="translate(136,122)"><text x="5"  style="font-size: 11px; font-weight: bold; color: rgb(0, 0, 0); fill: #000000; text-shadow: rgb(255, 255, 255) 0px 0px 6px, rgb(255, 255, 255) 0px 0px 3px; text-rendering: geometricprecision;" y="16"><tspan>14.5</tspan></text></g><g  style="" transform="translate(179,86)"><text x="5"  style="font-size: 11px; font-weight: bold; color: rgb(0, 0, 0); fill: #000000; text-shadow: rgb(255, 255, 255) 0px 0px 6px, rgb(255, 255, 255) 0px 0px 3px; text-rendering: geometricprecision;" y="16"><tspan>18.4</tspan></text></g><g  style="" transform="translate(222,57)"><text x="5"  style="font-size: 11px; font-weight: bold; color: rgb(0, 0, 0); fill: #000000; text-shadow: rgb(255, 255, 255) 0px 0px 6px, rgb(255, 255, 255) 0px 0px 3px; text-rendering: geometricprecision;" y="16"><tspan>21.5</tspan></text></g><g  style="" transform="translate(265,23)"><text x="5"  style="font-size: 11px; font-weight: bold; color: rgb(0, 0, 0); fill: #000000; text-shadow: rgb(255, 255, 255) 0px 0px 6px, rgb(255, 255, 255) 0px 0px 3px; text-rendering: geometricprecision;" y="16"><tspan>25.2</tspan></text></g><g  style="" transform="translate(308,11)"><text x="5"  style="font-size: 11px; font-weight: bold; color: rgb(0, 0, 0); fill: #000000; text-shadow: rgb(255, 255, 255) 0px 0px 6px, rgb(255, 255, 255) 0px 0px 3px; text-rendering: geometricprecision;" y="16"><tspan>26.5</tspan></text></g><g  style="" transform="translate(351,41)"><text x="5"  style="font-size: 11px; font-weight: bold; color: rgb(0, 0, 0); fill: #000000; text-shadow: rgb(255, 255, 255) 0px 0px 6px, rgb(255, 255, 255) 0px 0px 3px; text-rendering: geometricprecision;" y="16"><tspan>23.3</tspan></text></g><g  style="" transform="translate(394,87)"><text x="5"  style="font-size: 11px; font-weight: bold; color: rgb(0, 0, 0); fill: #000000; text-shadow: rgb(255, 255, 255) 0px 0px 6px, rgb(255, 255, 255) 0px 0px 3px; text-rendering: geometricprecision;" y="16"><tspan>18.3</tspan></text></g><g  style="" transform="translate(437,128)"><text x="5"  style="font-size: 11px; font-weight: bold; color: rgb(0, 0, 0); fill: #000000; text-shadow: rgb(255, 255, 255) 0px 0px 6px, rgb(255, 255, 255) 0px 0px 3px; text-rendering: geometricprecision;" y="16"><tspan>13.9</tspan></text></g><g  style="" transform="translate(483,167)"><text x="5"  style="font-size: 11px; font-weight: bold; color: rgb(0, 0, 0); fill: #000000; text-shadow: rgb(255, 255, 255) 0px 0px 6px, rgb(255, 255, 255) 0px 0px 3px; text-rendering: geometricprecision;" y="16"><tspan>9.6</tspan></text></g></g><g class="highcharts-data-labels" visibility="visible"  transform="translate(58,53) scale(1 1)"><g  style="" transform="translate(10,220)"><text x="5"  style="font-size: 11px; font-weight: bold; color: rgb(0, 0, 0); fill: #000000; text-shadow: rgb(255, 255, 255) 0px 0px 6px, rgb(255, 255, 255) 0px 0px 3px; text-rendering: geometricprecision;" y="16"><tspan>3.9</tspan></text></g><g  style="" transform="translate(53,217)"><text x="5"  style="font-size: 11px; font-weight: bold; color: rgb(0, 0, 0); fill: #000000; text-shadow: rgb(255, 255, 255) 0px 0px 6px, rgb(255, 255, 255) 0px 0px 3px; text-rendering: geometricprecision;" y="16"><tspan>4.2</tspan></text></g><g  style="" transform="translate(96,203)"><text x="5"  style="font-size: 11px; font-weight: bold; color: rgb(0, 0, 0); fill: #000000; text-shadow: rgb(255, 255, 255) 0px 0px 6px, rgb(255, 255, 255) 0px 0px 3px; text-rendering: geometricprecision;" y="16"><tspan>5.7</tspan></text></g><g  style="" transform="translate(139,178)"><text x="5"  style="font-size: 11px; font-weight: bold; color: rgb(0, 0, 0); fill: #000000; text-shadow: rgb(255, 255, 255) 0px 0px 6px, rgb(255, 255, 255) 0px 0px 3px; text-rendering: geometricprecision;" y="16"><tspan>8.5</tspan></text></g><g  style="" transform="translate(179,146)"><text x="5"  style="font-size: 11px; font-weight: bold; color: rgb(0, 0, 0); fill: #000000; text-shadow: rgb(255, 255, 255) 0px 0px 6px, rgb(255, 255, 255) 0px 0px 3px; text-rendering: geometricprecision;" y="16"><tspan>11.9</tspan></text></g><g  style="" transform="translate(222,116)"><text x="5"  style="font-size: 11px; font-weight: bold; color: rgb(0, 0, 0); fill: #000000; text-shadow: rgb(255, 255, 255) 0px 0px 6px, rgb(255, 255, 255) 0px 0px 3px; text-rendering: geometricprecision;" y="16"><tspan>15.2</tspan></text></g><g  style="" transform="translate(269,99)"><text x="5"  style="font-size: 11px; font-weight: bold; color: rgb(0, 0, 0); fill: #000000; text-shadow: rgb(255, 255, 255) 0px 0px 6px, rgb(255, 255, 255) 0px 0px 3px; text-rendering: geometricprecision;" y="16"><tspan>17</tspan></text></g><g  style="" transform="translate(308,103)"><text x="5"  style="font-size: 11px; font-weight: bold; color: rgb(0, 0, 0); fill: #000000; text-shadow: rgb(255, 255, 255) 0px 0px 6px, rgb(255, 255, 255) 0px 0px 3px; text-rendering: geometricprecision;" y="16"><tspan>16.6</tspan></text></g><g  style="" transform="translate(351,125)"><text x="5"  style="font-size: 11px; font-weight: bold; color: rgb(0, 0, 0); fill: #000000; text-shadow: rgb(255, 255, 255) 0px 0px 6px, rgb(255, 255, 255) 0px 0px 3px; text-rendering: geometricprecision;" y="16"><tspan>14.2</tspan></text></g><g  style="" transform="translate(394,161)"><text x="5"  style="font-size: 11px; font-weight: bold; color: rgb(0, 0, 0); fill: #000000; text-shadow: rgb(255, 255, 255) 0px 0px 6px, rgb(255, 255, 255) 0px 0px 3px; text-rendering: geometricprecision;" y="16"><tspan>10.3</tspan></text></g><g  style="" transform="translate(440,195)"><text x="5"  style="font-size: 11px; font-weight: bold; color: rgb(0, 0, 0); fill: #000000; text-shadow: rgb(255, 255, 255) 0px 0px 6px, rgb(255, 255, 255) 0px 0px 3px; text-rendering: geometricprecision;" y="16"><tspan>6.6</tspan></text></g><g  style="" transform="translate(483,212)"><text x="5"  style="font-size: 11px; font-weight: bold; color: rgb(0, 0, 0); fill: #000000; text-shadow: rgb(255, 255, 255) 0px 0px 6px, rgb(255, 255, 255) 0px 0px 3px; text-rendering: geometricprecision;" y="16"><tspan>4.8</tspan></text></g></g><g class="highcharts-legend"  transform="translate(214,361)"><g ><g><g class="highcharts-legend-item"  transform="translate(8,3)"><path fill="none" d="M 0 12 L 16 12" stroke="#f45b5b" stroke-width="2"></path><path fill="#f45b5b" d="M 8 8 C 13.3 8 13.3 16 8 16 C 2.6 16 2.6 8 8 8 Z"></path><text x="21" style="color:#333333;font-size:13px;font-weight:bold;cursor:pointer;fill:#333333;" text-anchor="start"  y="16">Tokyo</text></g><g class="highcharts-legend-item"  transform="translate(84.3,3)"><path fill="none" d="M 0 12 L 16 12" stroke="#8085e9" stroke-width="2"></path><path fill="#8085e9" d="M 8 8 L 12 12 8 16 4 12 Z"></path><text x="21" y="16" style="color:#333333;font-size:13px;font-weight:bold;cursor:pointer;fill:#333333;" text-anchor="start" >London</text></g></g></g></g><g class="highcharts-axis-labels highcharts-xaxis-labels" ><text x="79.5" style="color:#6e6e70;cursor:default;font-size:11px;fill:#6e6e70;" text-anchor="middle" transform="translate(0,0)" y="349" opacity="1">Jan</text><text x="122.5" style="color:#6e6e70;cursor:default;font-size:11px;fill:#6e6e70;" text-anchor="middle" transform="translate(0,0)" y="349" opacity="1">Feb</text><text x="165.5" style="color:#6e6e70;cursor:default;font-size:11px;fill:#6e6e70;" text-anchor="middle" transform="translate(0,0)" y="349" opacity="1">Mar</text><text x="208.5" style="color:#6e6e70;cursor:default;font-size:11px;fill:#6e6e70;" text-anchor="middle" transform="translate(0,0)" y="349" opacity="1">Apr</text><text x="251.5" style="color:#6e6e70;cursor:default;font-size:11px;fill:#6e6e70;" text-anchor="middle" transform="translate(0,0)" y="349" opacity="1">May</text><text x="294.5" style="color:#6e6e70;cursor:default;font-size:11px;fill:#6e6e70;" text-anchor="middle" transform="translate(0,0)" y="349" opacity="1">Jun</text><text x="337.5" style="color:#6e6e70;cursor:default;font-size:11px;fill:#6e6e70;" text-anchor="middle" transform="translate(0,0)" y="349" opacity="1">Jul</text><text x="380.5" style="color:#6e6e70;cursor:default;font-size:11px;fill:#6e6e70;" text-anchor="middle" transform="translate(0,0)" y="349" opacity="1">Aug</text><text x="423.5" style="color:#6e6e70;cursor:default;font-size:11px;fill:#6e6e70;" text-anchor="middle" transform="translate(0,0)" y="349" opacity="1">Sep</text><text x="466.5" style="color:#6e6e70;cursor:default;font-size:11px;fill:#6e6e70;" text-anchor="middle" transform="translate(0,0)" y="349" opacity="1">Oct</text><text x="509.5" style="color:#6e6e70;cursor:default;font-size:11px;fill:#6e6e70;" text-anchor="middle" transform="translate(0,0)" y="349" opacity="1">Nov</text><text x="552.5" style="color:#6e6e70;cursor:default;font-size:11px;fill:#6e6e70;" text-anchor="middle" transform="translate(0,0)" y="349" opacity="1">Dec</text></g><g class="highcharts-axis-labels highcharts-yaxis-labels" ><text x="43" style="color:#6e6e70;cursor:default;font-size:11px;fill:#6e6e70;width:183px;text-overflow:clip;" text-anchor="end" transform="translate(0,0)" y="336" opacity="1">0</text><text x="43" style="color:#6e6e70;cursor:default;font-size:11px;fill:#6e6e70;width:183px;text-overflow:clip;" text-anchor="end" transform="translate(0,0)" y="289" opacity="1">5</text><text x="43" style="color:#6e6e70;cursor:default;font-size:11px;fill:#6e6e70;width:183px;text-overflow:clip;" text-anchor="end" transform="translate(0,0)" y="243" opacity="1">10</text><text x="43" style="color:#6e6e70;cursor:default;font-size:11px;fill:#6e6e70;width:183px;text-overflow:clip;" text-anchor="end" transform="translate(0,0)" y="197" opacity="1">15</text><text x="43" style="color:#6e6e70;cursor:default;font-size:11px;fill:#6e6e70;width:183px;text-overflow:clip;" text-anchor="end" transform="translate(0,0)" y="151" opacity="1">20</text><text x="43" style="color:#6e6e70;cursor:default;font-size:11px;fill:#6e6e70;width:183px;text-overflow:clip;" text-anchor="end" transform="translate(0,0)" y="105" opacity="1">25</text><text x="43" style="color:#6e6e70;cursor:default;font-size:11px;fill:#6e6e70;width:183px;text-overflow:clip;" text-anchor="end" transform="translate(0,0)" y="59" opacity="1">30</text></g><g class="highcharts-tooltip"  style="cursor:default;padding:0;white-space:nowrap;" transform="translate(0,-9999)"><path fill="none" d="M 3 0 L 13 0 C 16 0 16 0 16 3 L 16 13 C 16 16 16 16 13 16 L 3 16 C 0 16 0 16 0 13 L 0 3 C 0 0 0 0 3 0"  stroke="black" stroke-opacity="0.0" stroke-width="5" transform="translate(1, 1)"></path><path fill="none" d="M 3 0 L 13 0 C 16 0 16 0 16 3 L 16 13 C 16 16 16 16 13 16 L 3 16 C 0 16 0 16 0 13 L 0 3 C 0 0 0 0 3 0"  stroke="black" stroke-opacity="0.0" stroke-width="3" transform="translate(1, 1)"></path><path fill="none" d="M 3 0 L 13 0 C 16 0 16 0 16 3 L 16 13 C 16 16 16 16 13 16 L 3 16 C 0 16 0 16 0 13 L 0 3 C 0 0 0 0 3 0"  stroke="black" stroke-opacity="0.1" stroke-width="1" transform="translate(1, 1)"></path><path fill="rgb(249, 249, 249)" fill-opacity=" .85" d="M 3 0 L 13 0 C 16 0 16 0 16 3 L 16 13 C 16 16 16 16 13 16 L 3 16 C 0 16 0 16 0 13 L 0 3 C 0 0 0 0 3 0"></path><text x="8"  style="font-size:12px;color:#333333;fill:#333333;" y="20"></text></g></svg>