<svg version="1.1" style="font-family: signika, serif; font-size: 12px; background-image: url(http://www.highcharts.com/samples/graphics/sand.png); background-position: initial initial; background-repeat: initial initial;" xmlns="http://www.w3.org/2000/svg" width="584" height="400" viewBox="0 0 584 400" xmlns:xlink="http://www.w3.org/1999/xlink"><style type="text/css"><![CDATA[@import url(http://fonts.googleapis.com/css?family=Signika:700);]]></style><desc>Created with Highcharts 4.1.7</desc><defs><clipPath id="highcharts-1"><rect x="0" y="0" width="564" height="344"></rect></clipPath></defs><g class="highcharts-series-group" ><g class="highcharts-series highcharts-tracker" visibility="visible"  transform="translate(10,41) scale(1 1)" style="cursor:pointer;"><g class="highcharts-shadow"><g class="highcharts-shadow" transform="translate(0,0)"><path fill="none" d="M 235.4 65.0 A 112.5 112.5 0 1 1 179.5 275.1 L 235.5 177.5 A 0 0 0 1 0 235.5 177.5 Z" stroke="black" stroke-width="5" stroke-linejoin="round" transform="translate(1, 1)"  stroke-opacity="0.0" r="112.5"></path><path fill="none" d="M 235.4 65.0 A 112.5 112.5 0 1 1 179.5 275.1 L 235.5 177.5 A 0 0 0 1 0 235.5 177.5 Z" stroke="black" stroke-width="3" stroke-linejoin="round" transform="translate(1, 1)"  stroke-opacity="0.0" r="112.5"></path><path fill="none" d="M 235.4 65.0 A 112.5 112.5 0 1 1 179.5 275.1 L 235.5 177.5 A 0 0 0 1 0 235.5 177.5 Z" stroke="black" stroke-width="1" stroke-linejoin="round" transform="translate(1, 1)"  stroke-opacity="0.1" r="112.5"></path></g><g class="highcharts-shadow" transform="translate(0,0)"><path fill="none" d="M 179.4 275.0 A 112.5 112.5 0 0 1 137.4 122.3 L 235.5 177.5 A 0 0 0 0 0 235.5 177.5 Z" stroke="black" stroke-width="5" stroke-linejoin="round" transform="translate(1, 1)"  stroke-opacity="0.0" r="112.5"></path><path fill="none" d="M 179.4 275.0 A 112.5 112.5 0 0 1 137.4 122.3 L 235.5 177.5 A 0 0 0 0 0 235.5 177.5 Z" stroke="black" stroke-width="3" stroke-linejoin="round" transform="translate(1, 1)"  stroke-opacity="0.0" r="112.5"></path><path fill="none" d="M 179.4 275.0 A 112.5 112.5 0 0 1 137.4 122.3 L 235.5 177.5 A 0 0 0 0 0 235.5 177.5 Z" stroke="black" stroke-width="1" stroke-linejoin="round" transform="translate(1, 1)"  stroke-opacity="0.1" r="112.5"></path></g><g class="highcharts-shadow" transform="translate(0,0)"><path fill="none" d="M 137.5 122.2 A 112.5 112.5 0 0 1 193.4 73.1 L 235.5 177.5 A 0 0 0 0 0 235.5 177.5 Z" stroke="black" stroke-width="5" stroke-linejoin="round" transform="translate(1, 1)"  stroke-opacity="0.0" r="112.5"></path><path fill="none" d="M 137.5 122.2 A 112.5 112.5 0 0 1 193.4 73.1 L 235.5 177.5 A 0 0 0 0 0 235.5 177.5 Z" stroke="black" stroke-width="3" stroke-linejoin="round" transform="translate(1, 1)"  stroke-opacity="0.0" r="112.5"></path><path fill="none" d="M 137.5 122.2 A 112.5 112.5 0 0 1 193.4 73.1 L 235.5 177.5 A 0 0 0 0 0 235.5 177.5 Z" stroke="black" stroke-width="1" stroke-linejoin="round" transform="translate(1, 1)"  stroke-opacity="0.1" r="112.5"></path></g><g class="highcharts-shadow" transform="translate(0,0)"><path fill="none" d="M 193.5 73.1 A 112.5 112.5 0 0 1 227.2 65.3 L 235.5 177.5 A 0 0 0 0 0 235.5 177.5 Z" stroke="black" stroke-width="5" stroke-linejoin="round" transform="translate(1, 1)"  stroke-opacity="0.0" r="112.5"></path><path fill="none" d="M 193.5 73.1 A 112.5 112.5 0 0 1 227.2 65.3 L 235.5 177.5 A 0 0 0 0 0 235.5 177.5 Z" stroke="black" stroke-width="3" stroke-linejoin="round" transform="translate(1, 1)"  stroke-opacity="0.0" r="112.5"></path><path fill="none" d="M 193.5 73.1 A 112.5 112.5 0 0 1 227.2 65.3 L 235.5 177.5 A 0 0 0 0 0 235.5 177.5 Z" stroke="black" stroke-width="1" stroke-linejoin="round" transform="translate(1, 1)"  stroke-opacity="0.1" r="112.5"></path></g><g class="highcharts-shadow" transform="translate(0,0)"><path fill="none" d="M 227.3 65.2 A 112.5 112.5 0 0 1 233.8 65.0 L 235.5 177.5 A 0 0 0 0 0 235.5 177.5 Z" stroke="black" stroke-width="5" stroke-linejoin="round" transform="translate(1, 1)"  stroke-opacity="0.0" r="112.5"></path><path fill="none" d="M 227.3 65.2 A 112.5 112.5 0 0 1 233.8 65.0 L 235.5 177.5 A 0 0 0 0 0 235.5 177.5 Z" stroke="black" stroke-width="3" stroke-linejoin="round" transform="translate(1, 1)"  stroke-opacity="0.0" r="112.5"></path><path fill="none" d="M 227.3 65.2 A 112.5 112.5 0 0 1 233.8 65.0 L 235.5 177.5 A 0 0 0 0 0 235.5 177.5 Z" stroke="black" stroke-width="1" stroke-linejoin="round" transform="translate(1, 1)"  stroke-opacity="0.1" r="112.5"></path></g><g class="highcharts-shadow" transform="translate(0,0)"><path fill="none" d="M 233.9 65.0 A 112.5 112.5 0 0 1 235.3 65.0 L 235.5 177.5 A 0 0 0 0 0 235.5 177.5 Z" stroke="black" stroke-width="5" stroke-linejoin="round" transform="translate(1, 1)"  stroke-opacity="0.0" r="112.5"></path><path fill="none" d="M 233.9 65.0 A 112.5 112.5 0 0 1 235.3 65.0 L 235.5 177.5 A 0 0 0 0 0 235.5 177.5 Z" stroke="black" stroke-width="3" stroke-linejoin="round" transform="translate(1, 1)"  stroke-opacity="0.0" r="112.5"></path><path fill="none" d="M 233.9 65.0 A 112.5 112.5 0 0 1 235.3 65.0 L 235.5 177.5 A 0 0 0 0 0 235.5 177.5 Z" stroke="black" stroke-width="1" stroke-linejoin="round" transform="translate(1, 1)"  stroke-opacity="0.1" r="112.5"></path></g></g><path fill="rgb(135,0,0)" fill-opacity="1" d="M 235.4 65.0 A 112.5 112.5 0 1 1 179.5 275.1 L 235.5 177.5 A 0 0 0 1 0 235.5 177.5 Z" stroke="#FFFFFF" stroke-width="1" stroke-linejoin="round" transform="translate(0,0)"></path><path fill="rgb(172,19,19)" fill-opacity="1" d="M 179.4 275.0 A 112.5 112.5 0 0 1 137.4 122.3 L 235.5 177.5 A 0 0 0 0 0 235.5 177.5 Z" stroke="#FFFFFF" stroke-width="1" stroke-linejoin="round" transform="translate(0,0)"></path><path fill="rgb(208,55,55)" fill-opacity="1" d="M 137.5 122.2 A 112.5 112.5 0 0 1 193.4 73.1 L 235.5 177.5 A 0 0 0 0 0 235.5 177.5 Z" stroke="#FFFFFF" stroke-width="1" stroke-linejoin="round" transform="translate(0,0)"></path><path fill="rgb(244,91,91)" fill-opacity="1" d="M 193.5 73.1 A 112.5 112.5 0 0 1 227.2 65.3 L 235.5 177.5 A 0 0 0 0 0 235.5 177.5 Z" stroke="#FFFFFF" stroke-width="1" stroke-linejoin="round" transform="translate(0,0)"></path><path fill="rgb(255,127,127)" fill-opacity="1" d="M 227.3 65.2 A 112.5 112.5 0 0 1 233.8 65.0 L 235.5 177.5 A 0 0 0 0 0 235.5 177.5 Z" stroke="#FFFFFF" stroke-width="1" stroke-linejoin="round" transform="translate(0,0)"></path><path fill="rgb(255,163,163)" fill-opacity="1" d="M 233.9 65.0 A 112.5 112.5 0 0 1 235.3 65.0 L 235.5 177.5 A 0 0 0 0 0 235.5 177.5 Z" stroke="#FFFFFF" stroke-width="1" stroke-linejoin="round" transform="translate(0,0)"></path></g><g class="highcharts-markers" visibility="visible"  transform="translate(10,41) scale(1 1)"></g></g><text x="292" text-anchor="middle" class="highcharts-title"  style="color:black;font-size:16px;font-weight:bold;fill:black;width:520px;" y="22"><tspan>Browser market shares at a specific website, 2014</tspan></text><g class="highcharts-data-labels highcharts-tracker" visibility="visible"  transform="translate(10,41) scale(1 1)" style="cursor:pointer;"><path fill="none" d="M 378.1 214.2 C 373.1 214.2 365.4 212.1 354.8 209.3 L 344.1 206.5" stroke="rgb(135,0,0)" stroke-opacity="1" stroke-width="1" visibility="inherit"></path><path fill="none" d="M 93.0 215.2 C 98.0 215.2 105.7 213.1 116.4 210.1 L 127.0 207.2" stroke="rgb(172,19,19)" stroke-opacity="1" stroke-width="1" visibility="inherit"></path><path fill="none" d="M 112.2 98 C 117.2 98 146.8 76.3 154.0 84.6 L 161.3 92.9" stroke="rgb(208,55,55)" stroke-opacity="1" stroke-width="1" visibility="inherit"></path><path fill="none" d="M 129.4 77 C 134.4 77 205.1 46.4 207.6 57.1 L 210.1 67.8" stroke="rgb(244,91,91)" stroke-opacity="1" stroke-width="1" visibility="inherit"></path><path fill="none" d="M 156.0 56 C 161.0 56 229.7 43.1 230.2 54.1 L 230.7 65.1" stroke="rgb(255,127,127)" stroke-opacity="1" stroke-width="1" visibility="inherit"></path><path fill="none" d="M 229.5 35 C 234.5 35 234.6 43.0 234.6 54.0 L 234.7 65.0" stroke="rgb(255,163,163)" stroke-opacity="1" stroke-width="1" visibility="inherit"></path><g  style="cursor:pointer;" transform="translate(383,204)" visibility="inherit"><text x="5"  style="font-size: 11px; font-weight: bold; color: black; fill: #000000; text-shadow: rgb(255, 255, 255) 0px 0px 6px, rgb(255, 255, 255) 0px 0px 3px; text-rendering: geometricprecision;" y="16"><tspan style="font-weight:bold">Microsoft Internet Explorer</tspan><tspan dx="0">: 58.3 %</tspan></text></g><g  style="cursor:pointer;" transform="translate(5,205)" visibility="inherit"><text x="5"  style="font-size: 11px; font-weight: bold; color: black; fill: #000000; text-shadow: rgb(255, 255, 255) 0px 0px 6px, rgb(255, 255, 255) 0px 0px 3px; text-rendering: geometricprecision;" y="16"><tspan style="font-weight:bold">Chrome</tspan><tspan dx="0">: 24.9 %</tspan></text></g><g  style="cursor:pointer;" transform="translate(29,88)" visibility="inherit"><text x="5"  style="font-size: 11px; font-weight: bold; color: black; fill: #000000; text-shadow: rgb(255, 255, 255) 0px 0px 6px, rgb(255, 255, 255) 0px 0px 3px; text-rendering: geometricprecision;" y="16"><tspan style="font-weight:bold">Firefox</tspan><tspan dx="0">: 10.7 %</tspan></text></g><g  style="cursor:pointer;" transform="translate(57,67)" visibility="inherit"><text x="5"  style="font-size: 11px; font-weight: bold; color: black; fill: #000000; text-shadow: rgb(255, 255, 255) 0px 0px 6px, rgb(255, 255, 255) 0px 0px 3px; text-rendering: geometricprecision;" y="16"><tspan style="font-weight:bold">Safari</tspan><tspan dx="0">: 4.9 %</tspan></text></g><g  style="cursor:pointer;" transform="translate(82,46)" visibility="inherit"><text x="5"  style="font-size: 11px; font-weight: bold; color: black; fill: #000000; text-shadow: rgb(255, 255, 255) 0px 0px 6px, rgb(255, 255, 255) 0px 0px 3px; text-rendering: geometricprecision;" y="16"><tspan style="font-weight:bold">Opera</tspan><tspan dx="0">: 0.9 %</tspan></text></g><g  style="cursor:pointer;" transform="translate(53,25)" visibility="inherit"><text x="5"  style="font-size: 11px; font-weight: bold; color: black; fill: #000000; text-shadow: rgb(255, 255, 255) 0px 0px 6px, rgb(255, 255, 255) 0px 0px 3px; text-rendering: geometricprecision;" y="16"><tspan style="font-weight:bold">Proprietary or Undetectable</tspan><tspan dx="0">: 0.2 %</tspan></text></g></g><g class="highcharts-legend" ><g ><g></g></g></g><g class="highcharts-tooltip"  style="cursor:default;padding:0;white-space:nowrap;" transform="translate(0,-9999)"><path fill="none" d="M 3 0 L 13 0 C 16 0 16 0 16 3 L 16 13 C 16 16 16 16 13 16 L 3 16 C 0 16 0 16 0 13 L 0 3 C 0 0 0 0 3 0"  stroke="black" stroke-opacity="0.0" stroke-width="5" transform="translate(1, 1)"></path><path fill="none" d="M 3 0 L 13 0 C 16 0 16 0 16 3 L 16 13 C 16 16 16 16 13 16 L 3 16 C 0 16 0 16 0 13 L 0 3 C 0 0 0 0 3 0"  stroke="black" stroke-opacity="0.0" stroke-width="3" transform="translate(1, 1)"></path><path fill="none" d="M 3 0 L 13 0 C 16 0 16 0 16 3 L 16 13 C 16 16 16 16 13 16 L 3 16 C 0 16 0 16 0 13 L 0 3 C 0 0 0 0 3 0"  stroke="black" stroke-opacity="0.1" stroke-width="1" transform="translate(1, 1)"></path><path fill="rgb(249, 249, 249)" fill-opacity=" .85" d="M 3 0 L 13 0 C 16 0 16 0 16 3 L 16 13 C 16 16 16 16 13 16 L 3 16 C 0 16 0 16 0 13 L 0 3 C 0 0 0 0 3 0"></path><text x="8"  style="font-size:12px;color:#333333;fill:#333333;" y="20"></text></g></svg>