<svg version="1.1" style="font-family: signika, serif; font-size: 12px; background-image: url(http://www.highcharts.com/samples/graphics/sand.png); background-position: initial initial; background-repeat: initial initial;" xmlns="http://www.w3.org/2000/svg" width="584" height="400" viewBox="0 0 584 400" xmlns:xlink="http://www.w3.org/1999/xlink"><style type="text/css"><![CDATA[@import url(http://fonts.googleapis.com/css?family=Signika:700);]]></style><desc>Created with Highcharts 4.1.7</desc><defs><clipPath id="highcharts-1"><rect x="0" y="0" width="564" height="375"></rect></clipPath></defs><g class="highcharts-series-group" ><g class="highcharts-series highcharts-tracker" visibility="visible"  transform="translate(10,10) scale(1 1)" style=""><g class="highcharts-shadow"><g class="highcharts-shadow" transform="translate(0,0)"><path fill="none" d="M 104.5 271.3 A 177.5 177.5 0 0 1 114.4 212.6 L 198.2 241.9 A 88.7 88.7 0 0 0 193.2 271.2 Z" stroke="black" stroke-width="5" stroke-linejoin="round" transform="translate(1, 1)"  stroke-opacity="0.0" r="177.5"></path><path fill="none" d="M 104.5 271.3 A 177.5 177.5 0 0 1 114.4 212.6 L 198.2 241.9 A 88.7 88.7 0 0 0 193.2 271.2 Z" stroke="black" stroke-width="3" stroke-linejoin="round" transform="translate(1, 1)"  stroke-opacity="0.0" r="177.5"></path><path fill="none" d="M 104.5 271.3 A 177.5 177.5 0 0 1 114.4 212.6 L 198.2 241.9 A 88.7 88.7 0 0 0 193.2 271.2 Z" stroke="black" stroke-width="1" stroke-linejoin="round" transform="translate(1, 1)"  stroke-opacity="0.1" r="177.5"></path></g><g class="highcharts-shadow" transform="translate(0,0)"><path fill="none" d="M 114.5 212.4 A 177.5 177.5 0 0 1 381.7 124.4 L 331.8 197.8 A 88.7 88.7 0 0 0 198.2 241.8 Z" stroke="black" stroke-width="5" stroke-linejoin="round" transform="translate(1, 1)"  stroke-opacity="0.0" r="177.5"></path><path fill="none" d="M 114.5 212.4 A 177.5 177.5 0 0 1 381.7 124.4 L 331.8 197.8 A 88.7 88.7 0 0 0 198.2 241.8 Z" stroke="black" stroke-width="3" stroke-linejoin="round" transform="translate(1, 1)"  stroke-opacity="0.0" r="177.5"></path><path fill="none" d="M 114.5 212.4 A 177.5 177.5 0 0 1 381.7 124.4 L 331.8 197.8 A 88.7 88.7 0 0 0 198.2 241.8 Z" stroke="black" stroke-width="1" stroke-linejoin="round" transform="translate(1, 1)"  stroke-opacity="0.1" r="177.5"></path></g><g class="highcharts-shadow" transform="translate(0,0)"><path fill="none" d="M 381.9 124.5 A 177.5 177.5 0 0 1 456.2 237.3 L 369.1 254.3 A 88.7 88.7 0 0 0 331.9 197.8 Z" stroke="black" stroke-width="5" stroke-linejoin="round" transform="translate(1, 1)"  stroke-opacity="0.0" r="177.5"></path><path fill="none" d="M 381.9 124.5 A 177.5 177.5 0 0 1 456.2 237.3 L 369.1 254.3 A 88.7 88.7 0 0 0 331.9 197.8 Z" stroke="black" stroke-width="3" stroke-linejoin="round" transform="translate(1, 1)"  stroke-opacity="0.0" r="177.5"></path><path fill="none" d="M 381.9 124.5 A 177.5 177.5 0 0 1 456.2 237.3 L 369.1 254.3 A 88.7 88.7 0 0 0 331.9 197.8 Z" stroke="black" stroke-width="1" stroke-linejoin="round" transform="translate(1, 1)"  stroke-opacity="0.1" r="177.5"></path></g><g class="highcharts-shadow" transform="translate(0,0)"><path fill="none" d="M 456.2 237.5 A 177.5 177.5 0 0 1 459.3 264.6 L 370.6 267.9 A 88.7 88.7 0 0 0 369.1 254.4 Z" stroke="black" stroke-width="5" stroke-linejoin="round" transform="translate(1, 1)"  stroke-opacity="0.0" r="177.5"></path><path fill="none" d="M 456.2 237.5 A 177.5 177.5 0 0 1 459.3 264.6 L 370.6 267.9 A 88.7 88.7 0 0 0 369.1 254.4 Z" stroke="black" stroke-width="3" stroke-linejoin="round" transform="translate(1, 1)"  stroke-opacity="0.0" r="177.5"></path><path fill="none" d="M 456.2 237.5 A 177.5 177.5 0 0 1 459.3 264.6 L 370.6 267.9 A 88.7 88.7 0 0 0 369.1 254.4 Z" stroke="black" stroke-width="1" stroke-linejoin="round" transform="translate(1, 1)"  stroke-opacity="0.1" r="177.5"></path></g><g class="highcharts-shadow" transform="translate(0,0)"><path fill="none" d="M 459.3 264.8 A 177.5 177.5 0 0 1 459.4 269.8 L 370.7 270.5 A 88.7 88.7 0 0 0 370.6 268.0 Z" stroke="black" stroke-width="5" stroke-linejoin="round" transform="translate(1, 1)"  stroke-opacity="0.0" r="177.5"></path><path fill="none" d="M 459.3 264.8 A 177.5 177.5 0 0 1 459.4 269.8 L 370.7 270.5 A 88.7 88.7 0 0 0 370.6 268.0 Z" stroke="black" stroke-width="3" stroke-linejoin="round" transform="translate(1, 1)"  stroke-opacity="0.0" r="177.5"></path><path fill="none" d="M 459.3 264.8 A 177.5 177.5 0 0 1 459.4 269.8 L 370.7 270.5 A 88.7 88.7 0 0 0 370.6 268.0 Z" stroke="black" stroke-width="1" stroke-linejoin="round" transform="translate(1, 1)"  stroke-opacity="0.1" r="177.5"></path></g><g class="highcharts-shadow" transform="translate(0,0)"><path fill="none" d="M 459.4 270.0 A 177.5 177.5 0 0 1 459.4 271.0 L 370.7 271.1 A 88.7 88.7 0 0 0 370.7 270.6 Z" stroke="black" stroke-width="5" stroke-linejoin="round" transform="translate(1, 1)"  stroke-opacity="0.0" r="177.5"></path><path fill="none" d="M 459.4 270.0 A 177.5 177.5 0 0 1 459.4 271.0 L 370.7 271.1 A 88.7 88.7 0 0 0 370.7 270.6 Z" stroke="black" stroke-width="3" stroke-linejoin="round" transform="translate(1, 1)"  stroke-opacity="0.0" r="177.5"></path><path fill="none" d="M 459.4 270.0 A 177.5 177.5 0 0 1 459.4 271.0 L 370.7 271.1 A 88.7 88.7 0 0 0 370.7 270.6 Z" stroke="black" stroke-width="1" stroke-linejoin="round" transform="translate(1, 1)"  stroke-opacity="0.1" r="177.5"></path></g></g><path fill="#f45b5b" d="M 104.5 271.3 A 177.5 177.5 0 0 1 114.4 212.6 L 198.2 241.9 A 88.7 88.7 0 0 0 193.2 271.2 Z" stroke="#FFFFFF" stroke-width="1" stroke-linejoin="round" transform="translate(0,0)"></path><path fill="#8085e9" d="M 114.5 212.4 A 177.5 177.5 0 0 1 381.7 124.4 L 331.8 197.8 A 88.7 88.7 0 0 0 198.2 241.8 Z" stroke="#FFFFFF" stroke-width="1" stroke-linejoin="round" transform="translate(0,0)"></path><path fill="#8d4654" d="M 381.9 124.5 A 177.5 177.5 0 0 1 456.2 237.3 L 369.1 254.3 A 88.7 88.7 0 0 0 331.9 197.8 Z" stroke="#FFFFFF" stroke-width="1" stroke-linejoin="round" transform="translate(0,0)"></path><path fill="#7798BF" d="M 456.2 237.5 A 177.5 177.5 0 0 1 459.3 264.6 L 370.6 267.9 A 88.7 88.7 0 0 0 369.1 254.4 Z" stroke="#FFFFFF" stroke-width="1" stroke-linejoin="round" transform="translate(0,0)"></path><path fill="#aaeeee" d="M 459.3 264.8 A 177.5 177.5 0 0 1 459.4 269.8 L 370.7 270.5 A 88.7 88.7 0 0 0 370.6 268.0 Z" stroke="#FFFFFF" stroke-width="1" stroke-linejoin="round" transform="translate(0,0)"></path><path fill="#ff0066" d="M 459.4 270.0 A 177.5 177.5 0 0 1 459.4 271.0 L 370.7 271.1 A 88.7 88.7 0 0 0 370.7 270.6 Z" stroke="#FFFFFF" stroke-width="1" stroke-linejoin="round" transform="translate(0,0)"></path></g><g class="highcharts-markers" visibility="visible"  transform="translate(10,10) scale(1 1)"></g></g><text x="292" text-anchor="middle" class="highcharts-title"  style="color:black;font-size:16px;font-weight:bold;fill:black;width:520px;" y="238"><tspan>Browser</tspan><tspan x="292" dy="19">shares</tspan><tspan x="292" dy="19">2015</tspan></text><g class="highcharts-data-labels highcharts-tracker" visibility="visible"  transform="translate(10,10) scale(1 1)" style=""><g  style="" transform="translate(137,240)" visibility="inherit"><text x="5"  style="font-size: 11px; font-weight: bold; color: white; text-shadow: black 0px 1px 2px; fill: #ffffff; text-rendering: geometricprecision;" y="16"><tspan>Firefox</tspan></text></g><g  style="" transform="translate(234,140)" visibility="inherit"><text x="5"  style="font-size: 11px; font-weight: bold; color: white; text-shadow: black 0px 1px 2px; fill: #ffffff; text-rendering: geometricprecision;" y="16"><tspan>IE</tspan></text></g><g  style="" transform="translate(367,191)" visibility="inherit"><text x="5"  style="font-size: 11px; font-weight: bold; color: white; text-shadow: black 0px 1px 2px; fill: #ffffff; text-rendering: geometricprecision;" y="16"><tspan>Chrome</tspan></text></g><g  style="" transform="translate(392,247)" visibility="inherit"><text x="5"  style="font-size: 11px; font-weight: bold; color: white; text-shadow: black 0px 1px 2px; fill: #ffffff; text-rendering: geometricprecision;" y="16"><tspan>Safari</tspan></text></g><g  style="" transform="translate(392,259)" visibility="inherit"><text x="5"  style="font-size: 11px; font-weight: bold; color: white; text-shadow: black 0px 1px 2px; fill: #ffffff; text-rendering: geometricprecision;" y="16"><tspan>Opera</tspan></text></g></g><g class="highcharts-legend" ><g ><g></g></g></g><g class="highcharts-tooltip"  style="cursor:default;padding:0;white-space:nowrap;" transform="translate(0,-9999)"><path fill="none" d="M 3 0 L 13 0 C 16 0 16 0 16 3 L 16 13 C 16 16 16 16 13 16 L 3 16 C 0 16 0 16 0 13 L 0 3 C 0 0 0 0 3 0"  stroke="black" stroke-opacity="0.0" stroke-width="5" transform="translate(1, 1)"></path><path fill="none" d="M 3 0 L 13 0 C 16 0 16 0 16 3 L 16 13 C 16 16 16 16 13 16 L 3 16 C 0 16 0 16 0 13 L 0 3 C 0 0 0 0 3 0"  stroke="black" stroke-opacity="0.0" stroke-width="3" transform="translate(1, 1)"></path><path fill="none" d="M 3 0 L 13 0 C 16 0 16 0 16 3 L 16 13 C 16 16 16 16 13 16 L 3 16 C 0 16 0 16 0 13 L 0 3 C 0 0 0 0 3 0"  stroke="black" stroke-opacity="0.1" stroke-width="1" transform="translate(1, 1)"></path><path fill="rgb(249, 249, 249)" fill-opacity=" .85" d="M 3 0 L 13 0 C 16 0 16 0 16 3 L 16 13 C 16 16 16 16 13 16 L 3 16 C 0 16 0 16 0 13 L 0 3 C 0 0 0 0 3 0"></path><text x="8"  style="font-size:12px;color:#333333;fill:#333333;" y="20"></text></g></svg>