<svg version="1.1" style="font-family:&quot;lucida grande&quot;, &quot;lucida sans unicode&quot;, arial, helvetica, sans-serif;font-size:12px;" xmlns="http://www.w3.org/2000/svg" width="584" height="400" viewBox="0 0 584 400"><desc>Created with Highcharts 4.1.7</desc><defs><clipPath id="highcharts-1"><rect x="0" y="0" width="564" height="375"></rect></clipPath></defs><rect x="0" y="0" width="584" height="400" strokeWidth="0" fill="#FFFFFF" class=" highcharts-background" stroke="transparent"></rect><g class="highcharts-series-group" ><g class="highcharts-series highcharts-tracker" visibility="visible"  transform="translate(10,10) scale(1 1)" style=""><path fill="#7cb5ec" d="M 104.5 271.3 A 177.5 177.5 0 0 1 114.4 212.6 L 198.2 241.9 A 88.7 88.7 0 0 0 193.2 271.2 Z" stroke="#FFFFFF" stroke-width="1" stroke-linejoin="round" transform="translate(0,0)"></path><path fill="#434348" d="M 114.5 212.4 A 177.5 177.5 0 0 1 381.7 124.4 L 331.8 197.8 A 88.7 88.7 0 0 0 198.2 241.8 Z" stroke="#FFFFFF" stroke-width="1" stroke-linejoin="round" transform="translate(0,0)"></path><path fill="#90ed7d" d="M 381.9 124.5 A 177.5 177.5 0 0 1 456.2 237.3 L 369.1 254.3 A 88.7 88.7 0 0 0 331.9 197.8 Z" stroke="#FFFFFF" stroke-width="1" stroke-linejoin="round" transform="translate(0,0)"></path><path fill="#f7a35c" d="M 456.2 237.5 A 177.5 177.5 0 0 1 459.3 264.6 L 370.6 267.9 A 88.7 88.7 0 0 0 369.1 254.4 Z" stroke="#FFFFFF" stroke-width="1" stroke-linejoin="round" transform="translate(0,0)"></path><path fill="#8085e9" d="M 459.3 264.8 A 177.5 177.5 0 0 1 459.4 269.8 L 370.7 270.5 A 88.7 88.7 0 0 0 370.6 268.0 Z" stroke="#FFFFFF" stroke-width="1" stroke-linejoin="round" transform="translate(0,0)"></path><path fill="#f15c80" d="M 459.4 270.0 A 177.5 177.5 0 0 1 459.4 271.0 L 370.7 271.1 A 88.7 88.7 0 0 0 370.7 270.6 Z" stroke="#FFFFFF" stroke-width="1" stroke-linejoin="round" transform="translate(0,0)"></path></g><g class="highcharts-markers" visibility="visible"  transform="translate(10,10) scale(1 1)"></g></g><text x="292" text-anchor="middle" class="highcharts-title"  style="color:#333333;font-size:18px;fill:#333333;width:520px;" y="238"><tspan>Browser</tspan><tspan x="292" dy="21">shares</tspan><tspan x="292" dy="21">2015</tspan></text><g class="highcharts-data-labels highcharts-tracker" visibility="visible"  transform="translate(10,10) scale(1 1)" style=""><g  style="" transform="translate(134,240)" visibility="inherit"><text x="5"  style="font-size: 11px; font-weight: bold; color: white; text-shadow: black 0px 1px 2px; fill: #ffffff; text-rendering: geometricprecision;" y="16"><tspan>Firefox</tspan></text></g><g  style="" transform="translate(235,140)" visibility="inherit"><text x="5"  style="font-size: 11px; font-weight: bold; color: white; text-shadow: black 0px 1px 2px; fill: #ffffff; text-rendering: geometricprecision;" y="16"><tspan>IE</tspan></text></g><g  style="" transform="translate(364,191)" visibility="inherit"><text x="5"  style="font-size: 11px; font-weight: bold; color: white; text-shadow: black 0px 1px 2px; fill: #ffffff; text-rendering: geometricprecision;" y="16"><tspan>Chrome</tspan></text></g><g  style="" transform="translate(390,247)" visibility="inherit"><text x="5"  style="font-size: 11px; font-weight: bold; color: white; text-shadow: black 0px 1px 2px; fill: #ffffff; text-rendering: geometricprecision;" y="16"><tspan>Safari</tspan></text></g><g  style="" transform="translate(390,259)" visibility="inherit"><text x="5"  style="font-size: 11px; font-weight: bold; color: white; text-shadow: black 0px 1px 2px; fill: #ffffff; text-rendering: geometricprecision;" y="16"><tspan>Opera</tspan></text></g></g><g class="highcharts-legend" ><g ><g></g></g></g><g class="highcharts-tooltip"  style="cursor:default;padding:0;white-space:nowrap;" transform="translate(0,-9999)"><path fill="none" d="M 3.5 0.5 L 13.5 0.5 C 16.5 0.5 16.5 0.5 16.5 3.5 L 16.5 13.5 C 16.5 16.5 16.5 16.5 13.5 16.5 L 3.5 16.5 C 0.5 16.5 0.5 16.5 0.5 13.5 L 0.5 3.5 C 0.5 0.5 0.5 0.5 3.5 0.5"  stroke="black" stroke-opacity="0.0" stroke-width="5" transform="translate(1, 1)"></path><path fill="none" d="M 3.5 0.5 L 13.5 0.5 C 16.5 0.5 16.5 0.5 16.5 3.5 L 16.5 13.5 C 16.5 16.5 16.5 16.5 13.5 16.5 L 3.5 16.5 C 0.5 16.5 0.5 16.5 0.5 13.5 L 0.5 3.5 C 0.5 0.5 0.5 0.5 3.5 0.5"  stroke="black" stroke-opacity="0.0" stroke-width="3" transform="translate(1, 1)"></path><path fill="none" d="M 3.5 0.5 L 13.5 0.5 C 16.5 0.5 16.5 0.5 16.5 3.5 L 16.5 13.5 C 16.5 16.5 16.5 16.5 13.5 16.5 L 3.5 16.5 C 0.5 16.5 0.5 16.5 0.5 13.5 L 0.5 3.5 C 0.5 0.5 0.5 0.5 3.5 0.5"  stroke="black" stroke-opacity="0.1" stroke-width="1" transform="translate(1, 1)"></path><path fill="rgb(249, 249, 249)" fill-opacity=" .85" d="M 3.5 0.5 L 13.5 0.5 C 16.5 0.5 16.5 0.5 16.5 3.5 L 16.5 13.5 C 16.5 16.5 16.5 16.5 13.5 16.5 L 3.5 16.5 C 0.5 16.5 0.5 16.5 0.5 13.5 L 0.5 3.5 C 0.5 0.5 0.5 0.5 3.5 0.5"></path><text x="8"  style="font-size:12px;color:#333333;fill:#333333;" y="20"></text></g></svg>