<svg version="1.1" style="font-family:&quot;lucida grande&quot;, &quot;lucida sans unicode&quot;, arial, helvetica, sans-serif;font-size:12px;" xmlns="http://www.w3.org/2000/svg" width="584" height="400" viewBox="0 0 584 400"><desc>Created with Highcharts 4.1.7</desc><defs><clipPath id="highcharts-1"><rect x="0" y="0" width="564" height="324"></rect></clipPath></defs><rect x="0" y="0" width="584" height="400" strokeWidth="0" fill="#FFFFFF" class=" highcharts-background" stroke="transparent"></rect><g class="highcharts-series-group" ><g class="highcharts-series highcharts-tracker" visibility="visible"  transform="translate(10,61) scale(1 1)" style=""><path fill="#7cb5ec" d="M 232.9 74.5 A 93 93 0 1 1 186.7 248.1 L 233 167.5 A 0 0 0 1 0 233 167.5 Z" stroke="#FFFFFF" stroke-width="1" stroke-linejoin="round" transform="translate(0,0)" class="highcharts-drilldown-point" style="cursor:pointer;"></path><path fill="#434348" d="M 186.6 248.1 A 93 93 0 0 1 151.9 121.9 L 233 167.5 A 0 0 0 0 0 233 167.5 Z" stroke="#FFFFFF" stroke-width="1" stroke-linejoin="round" transform="translate(0,0)" class="highcharts-drilldown-point" style="cursor:pointer;"></path><path fill="#90ed7d" d="M 151.9 121.8 A 93 93 0 0 1 198.2 81.2 L 233 167.5 A 0 0 0 0 0 233 167.5 Z" stroke="#FFFFFF" stroke-width="1" stroke-linejoin="round" transform="translate(0,0)" class="highcharts-drilldown-point" style="cursor:pointer;"></path><path fill="#f7a35c" d="M 198.2 81.2 A 93 93 0 0 1 226.1 74.7 L 233 167.5 A 0 0 0 0 0 233 167.5 Z" stroke="#FFFFFF" stroke-width="1" stroke-linejoin="round" transform="translate(0,0)" class="highcharts-drilldown-point" style="cursor:pointer;"></path><path fill="#8085e9" d="M 226.2 74.7 A 93 93 0 0 1 231.6 74.5 L 233 167.5 A 0 0 0 0 0 233 167.5 Z" stroke="#FFFFFF" stroke-width="1" stroke-linejoin="round" transform="translate(0,0)" class="highcharts-drilldown-point" style="cursor:pointer;"></path><path fill="#f15c80" d="M 231.7 74.5 A 93 93 0 0 1 232.8 74.5 L 233 167.5 A 0 0 0 0 0 233 167.5 Z" stroke="#FFFFFF" stroke-width="1" stroke-linejoin="round" transform="translate(0,0)"></path></g><g class="highcharts-markers" visibility="visible"  transform="translate(10,61) scale(1 1)"></g></g><text x="292" text-anchor="middle" class="highcharts-title"  style="color:#333333;font-size:18px;fill:#333333;width:520px;" y="24"><tspan>Browser market shares. January, 2015 to May, 2015</tspan></text><text x="292" text-anchor="middle" class="highcharts-subtitle"  style="color:#555555;fill:#555555;width:520px;" y="45"><tspan>Click the slices to view versions. Source: netmarketshare.com.</tspan></text><g class="highcharts-data-labels highcharts-tracker" visibility="visible"  transform="translate(10,61) scale(1 1)" style=""><path fill="none" d="M 356.8 199.2 C 351.8 199.2 344.1 197.1 333.4 194.3 L 322.8 191.4" stroke="#7cb5ec" stroke-width="1" visibility="inherit"></path><path fill="none" d="M 109.3 200.0 C 114.3 200.0 122.1 197.9 132.7 195.0 L 143.3 192.1" stroke="#434348" stroke-width="1" visibility="inherit"></path><path fill="none" d="M 117.5 113.3 C 122.5 113.3 157.1 81.0 164.4 89.3 L 171.6 97.5" stroke="#90ed7d" stroke-width="1" visibility="inherit"></path><path fill="none" d="M 132.1 90.3 C 137.1 90.3 207.0 55.4 209.5 66.1 L 212.0 76.8" stroke="#f7a35c" stroke-width="1" visibility="inherit"></path><path fill="none" d="M 156.4 67.4 C 161.4 67.4 228.1 52.6 228.5 63.5 L 229.0 74.5" stroke="#8085e9" stroke-width="1" visibility="inherit"></path><path fill="none" d="M 227.2 44.5 C 232.2 44.5 232.2 52.5 232.3 63.5 L 232.3 74.5" stroke="#f15c80" stroke-width="1" visibility="inherit"></path><g  style="cursor:pointer;" transform="translate(362,189)" class="highcharts-drilldown-data-label" visibility="inherit"><text x="5"  style="font-size:11px;font-weight:bold;color:#0d233a;text-shadow:0 0 6px contrast, 0 0 3px contrast;fill:#0d233a;text-decoration:underline;" y="16"><tspan>Microsoft Internet Explorer: 56.3%</tspan></text></g><g  style="cursor:pointer;" transform="translate(16,190)" class="highcharts-drilldown-data-label" visibility="inherit"><text x="5"  style="font-size:11px;font-weight:bold;color:#0d233a;text-shadow:0 0 6px contrast, 0 0 3px contrast;fill:#0d233a;text-decoration:underline;" y="16"><tspan>Chrome: 24.0%</tspan></text></g><g  style="cursor:pointer;" transform="translate(29,103)" class="highcharts-drilldown-data-label" visibility="inherit"><text x="5"  style="font-size:11px;font-weight:bold;color:#0d233a;text-shadow:0 0 6px contrast, 0 0 3px contrast;fill:#0d233a;text-decoration:underline;" y="16"><tspan>Firefox: 10.4%</tspan></text></g><g  style="cursor:pointer;" transform="translate(58,80)" class="highcharts-drilldown-data-label" visibility="inherit"><text x="5"  style="font-size:11px;font-weight:bold;color:#0d233a;text-shadow:0 0 6px contrast, 0 0 3px contrast;fill:#0d233a;text-decoration:underline;" y="16"><tspan>Safari: 4.8%</tspan></text></g><g  style="cursor:pointer;" transform="translate(80,57)" class="highcharts-drilldown-data-label" visibility="inherit"><text x="5"  style="font-size:11px;font-weight:bold;color:#0d233a;text-shadow:0 0 6px contrast, 0 0 3px contrast;fill:#0d233a;text-decoration:underline;" y="16"><tspan>Opera: 0.9%</tspan></text></g><g  style="" transform="translate(28,35)" visibility="inherit"><text x="5"  style="font-size: 11px; font-weight: bold; color: rgb(0, 0, 0); fill: #000000; text-shadow: rgb(255, 255, 255) 0px 0px 6px, rgb(255, 255, 255) 0px 0px 3px; text-rendering: geometricprecision;" y="16"><tspan>Proprietary or Undetectable: 0.2%</tspan></text></g></g><g class="highcharts-legend" ><g ><g></g></g></g><g class="highcharts-tooltip"  style="cursor:default;padding:0;white-space:nowrap;" transform="translate(0,-9999)"><path fill="none" d="M 3.5 0.5 L 13.5 0.5 C 16.5 0.5 16.5 0.5 16.5 3.5 L 16.5 13.5 C 16.5 16.5 16.5 16.5 13.5 16.5 L 3.5 16.5 C 0.5 16.5 0.5 16.5 0.5 13.5 L 0.5 3.5 C 0.5 0.5 0.5 0.5 3.5 0.5"  stroke="black" stroke-opacity="0.0" stroke-width="5" transform="translate(1, 1)"></path><path fill="none" d="M 3.5 0.5 L 13.5 0.5 C 16.5 0.5 16.5 0.5 16.5 3.5 L 16.5 13.5 C 16.5 16.5 16.5 16.5 13.5 16.5 L 3.5 16.5 C 0.5 16.5 0.5 16.5 0.5 13.5 L 0.5 3.5 C 0.5 0.5 0.5 0.5 3.5 0.5"  stroke="black" stroke-opacity="0.0" stroke-width="3" transform="translate(1, 1)"></path><path fill="none" d="M 3.5 0.5 L 13.5 0.5 C 16.5 0.5 16.5 0.5 16.5 3.5 L 16.5 13.5 C 16.5 16.5 16.5 16.5 13.5 16.5 L 3.5 16.5 C 0.5 16.5 0.5 16.5 0.5 13.5 L 0.5 3.5 C 0.5 0.5 0.5 0.5 3.5 0.5"  stroke="black" stroke-opacity="0.1" stroke-width="1" transform="translate(1, 1)"></path><path fill="rgb(249, 249, 249)" fill-opacity=" .85" d="M 3.5 0.5 L 13.5 0.5 C 16.5 0.5 16.5 0.5 16.5 3.5 L 16.5 13.5 C 16.5 16.5 16.5 16.5 13.5 16.5 L 3.5 16.5 C 0.5 16.5 0.5 16.5 0.5 13.5 L 0.5 3.5 C 0.5 0.5 0.5 0.5 3.5 0.5"></path><text x="8"  style="font-size:12px;color:#333333;fill:#333333;" y="20"></text></g></svg>