<svg version="1.1" style="font-family: signika, serif; font-size: 12px; background-image: url(http://www.highcharts.com/samples/graphics/sand.png); background-position: initial initial; background-repeat: initial initial;" xmlns="http://www.w3.org/2000/svg" width="584" height="400" viewBox="0 0 584 400" xmlns:xlink="http://www.w3.org/1999/xlink"><style type="text/css"><![CDATA[@import url(http://fonts.googleapis.com/css?family=Signika:700);]]></style><desc>Created with Highcharts 4.1.7</desc><defs><clipPath id="highcharts-1"><rect x="0" y="0" width="564" height="332"></rect></clipPath></defs><g class="highcharts-series-group" ><g class="highcharts-series highcharts-tracker" visibility="visible"  transform="translate(10,53) scale(1 1)" style=""><g class="highcharts-shadow"><g class="highcharts-shadow" transform="translate(0,0)"><path fill="none" d="M 238.4 59.0 A 112.5 112.5 0 1 1 182.5 269.1 L 238.5 171.5 A 0 0 0 1 0 238.5 171.5 Z" stroke="black" stroke-width="5" stroke-linejoin="round" transform="translate(1, 1)"  stroke-opacity="0.0" r="112.5"></path><path fill="none" d="M 238.4 59.0 A 112.5 112.5 0 1 1 182.5 269.1 L 238.5 171.5 A 0 0 0 1 0 238.5 171.5 Z" stroke="black" stroke-width="3" stroke-linejoin="round" transform="translate(1, 1)"  stroke-opacity="0.0" r="112.5"></path><path fill="none" d="M 238.4 59.0 A 112.5 112.5 0 1 1 182.5 269.1 L 238.5 171.5 A 0 0 0 1 0 238.5 171.5 Z" stroke="black" stroke-width="1" stroke-linejoin="round" transform="translate(1, 1)"  stroke-opacity="0.1" r="112.5"></path></g><g class="highcharts-shadow" transform="translate(0,0)"><path fill="none" d="M 182.4 269.0 A 112.5 112.5 0 0 1 140.4 116.3 L 238.5 171.5 A 0 0 0 0 0 238.5 171.5 Z" stroke="black" stroke-width="5" stroke-linejoin="round" transform="translate(1, 1)"  stroke-opacity="0.0" r="112.5"></path><path fill="none" d="M 182.4 269.0 A 112.5 112.5 0 0 1 140.4 116.3 L 238.5 171.5 A 0 0 0 0 0 238.5 171.5 Z" stroke="black" stroke-width="3" stroke-linejoin="round" transform="translate(1, 1)"  stroke-opacity="0.0" r="112.5"></path><path fill="none" d="M 182.4 269.0 A 112.5 112.5 0 0 1 140.4 116.3 L 238.5 171.5 A 0 0 0 0 0 238.5 171.5 Z" stroke="black" stroke-width="1" stroke-linejoin="round" transform="translate(1, 1)"  stroke-opacity="0.1" r="112.5"></path></g><g class="highcharts-shadow" transform="translate(0,0)"><path fill="none" d="M 140.5 116.2 A 112.5 112.5 0 0 1 196.4 67.1 L 238.5 171.5 A 0 0 0 0 0 238.5 171.5 Z" stroke="black" stroke-width="5" stroke-linejoin="round" transform="translate(1, 1)"  stroke-opacity="0.0" r="112.5"></path><path fill="none" d="M 140.5 116.2 A 112.5 112.5 0 0 1 196.4 67.1 L 238.5 171.5 A 0 0 0 0 0 238.5 171.5 Z" stroke="black" stroke-width="3" stroke-linejoin="round" transform="translate(1, 1)"  stroke-opacity="0.0" r="112.5"></path><path fill="none" d="M 140.5 116.2 A 112.5 112.5 0 0 1 196.4 67.1 L 238.5 171.5 A 0 0 0 0 0 238.5 171.5 Z" stroke="black" stroke-width="1" stroke-linejoin="round" transform="translate(1, 1)"  stroke-opacity="0.1" r="112.5"></path></g><g class="highcharts-shadow" transform="translate(0,0)"><path fill="none" d="M 196.5 67.1 A 112.5 112.5 0 0 1 230.2 59.3 L 238.5 171.5 A 0 0 0 0 0 238.5 171.5 Z" stroke="black" stroke-width="5" stroke-linejoin="round" transform="translate(1, 1)"  stroke-opacity="0.0" r="112.5"></path><path fill="none" d="M 196.5 67.1 A 112.5 112.5 0 0 1 230.2 59.3 L 238.5 171.5 A 0 0 0 0 0 238.5 171.5 Z" stroke="black" stroke-width="3" stroke-linejoin="round" transform="translate(1, 1)"  stroke-opacity="0.0" r="112.5"></path><path fill="none" d="M 196.5 67.1 A 112.5 112.5 0 0 1 230.2 59.3 L 238.5 171.5 A 0 0 0 0 0 238.5 171.5 Z" stroke="black" stroke-width="1" stroke-linejoin="round" transform="translate(1, 1)"  stroke-opacity="0.1" r="112.5"></path></g><g class="highcharts-shadow" transform="translate(0,0)"><path fill="none" d="M 230.3 59.2 A 112.5 112.5 0 0 1 236.8 59.0 L 238.5 171.5 A 0 0 0 0 0 238.5 171.5 Z" stroke="black" stroke-width="5" stroke-linejoin="round" transform="translate(1, 1)"  stroke-opacity="0.0" r="112.5"></path><path fill="none" d="M 230.3 59.2 A 112.5 112.5 0 0 1 236.8 59.0 L 238.5 171.5 A 0 0 0 0 0 238.5 171.5 Z" stroke="black" stroke-width="3" stroke-linejoin="round" transform="translate(1, 1)"  stroke-opacity="0.0" r="112.5"></path><path fill="none" d="M 230.3 59.2 A 112.5 112.5 0 0 1 236.8 59.0 L 238.5 171.5 A 0 0 0 0 0 238.5 171.5 Z" stroke="black" stroke-width="1" stroke-linejoin="round" transform="translate(1, 1)"  stroke-opacity="0.1" r="112.5"></path></g><g class="highcharts-shadow" transform="translate(0,0)"><path fill="none" d="M 236.9 59.0 A 112.5 112.5 0 0 1 238.3 59.0 L 238.5 171.5 A 0 0 0 0 0 238.5 171.5 Z" stroke="black" stroke-width="5" stroke-linejoin="round" transform="translate(1, 1)"  stroke-opacity="0.0" r="112.5"></path><path fill="none" d="M 236.9 59.0 A 112.5 112.5 0 0 1 238.3 59.0 L 238.5 171.5 A 0 0 0 0 0 238.5 171.5 Z" stroke="black" stroke-width="3" stroke-linejoin="round" transform="translate(1, 1)"  stroke-opacity="0.0" r="112.5"></path><path fill="none" d="M 236.9 59.0 A 112.5 112.5 0 0 1 238.3 59.0 L 238.5 171.5 A 0 0 0 0 0 238.5 171.5 Z" stroke="black" stroke-width="1" stroke-linejoin="round" transform="translate(1, 1)"  stroke-opacity="0.1" r="112.5"></path></g></g><path fill="#f45b5b" d="M 238.4 59.0 A 112.5 112.5 0 1 1 182.5 269.1 L 238.5 171.5 A 0 0 0 1 0 238.5 171.5 Z" stroke="#FFFFFF" stroke-width="1" stroke-linejoin="round" transform="translate(0,0)" class="highcharts-drilldown-point" style="cursor:pointer;"></path><path fill="#8085e9" d="M 182.4 269.0 A 112.5 112.5 0 0 1 140.4 116.3 L 238.5 171.5 A 0 0 0 0 0 238.5 171.5 Z" stroke="#FFFFFF" stroke-width="1" stroke-linejoin="round" transform="translate(0,0)" class="highcharts-drilldown-point" style="cursor:pointer;"></path><path fill="#8d4654" d="M 140.5 116.2 A 112.5 112.5 0 0 1 196.4 67.1 L 238.5 171.5 A 0 0 0 0 0 238.5 171.5 Z" stroke="#FFFFFF" stroke-width="1" stroke-linejoin="round" transform="translate(0,0)" class="highcharts-drilldown-point" style="cursor:pointer;"></path><path fill="#7798BF" d="M 196.5 67.1 A 112.5 112.5 0 0 1 230.2 59.3 L 238.5 171.5 A 0 0 0 0 0 238.5 171.5 Z" stroke="#FFFFFF" stroke-width="1" stroke-linejoin="round" transform="translate(0,0)" class="highcharts-drilldown-point" style="cursor:pointer;"></path><path fill="#aaeeee" d="M 230.3 59.2 A 112.5 112.5 0 0 1 236.8 59.0 L 238.5 171.5 A 0 0 0 0 0 238.5 171.5 Z" stroke="#FFFFFF" stroke-width="1" stroke-linejoin="round" transform="translate(0,0)" class="highcharts-drilldown-point" style="cursor:pointer;"></path><path fill="#ff0066" d="M 236.9 59.0 A 112.5 112.5 0 0 1 238.3 59.0 L 238.5 171.5 A 0 0 0 0 0 238.5 171.5 Z" stroke="#FFFFFF" stroke-width="1" stroke-linejoin="round" transform="translate(0,0)"></path></g><g class="highcharts-markers" visibility="visible"  transform="translate(10,53) scale(1 1)"></g></g><text x="292" text-anchor="middle" class="highcharts-title"  style="color:black;font-size:16px;font-weight:bold;fill:black;width:520px;" y="22"><tspan>Browser market shares. January, 2015 to May, 2015</tspan></text><text x="292" text-anchor="middle" class="highcharts-subtitle"  style="color:black;fill:black;width:520px;" y="40"><tspan>Click the slices to view versions. Source: netmarketshare.com.</tspan></text><g class="highcharts-data-labels highcharts-tracker" visibility="visible"  transform="translate(10,53) scale(1 1)" style=""><path fill="none" d="M 381.1 208.2 C 376.1 208.2 368.4 206.1 357.8 203.3 L 347.1 200.5" stroke="#f45b5b" stroke-width="1" visibility="inherit"></path><path fill="none" d="M 96.0 209.2 C 101.0 209.2 108.7 207.1 119.4 204.1 L 130.0 201.2" stroke="#8085e9" stroke-width="1" visibility="inherit"></path><path fill="none" d="M 115.2 92 C 120.2 92 149.8 70.3 157.0 78.6 L 164.3 86.9" stroke="#8d4654" stroke-width="1" visibility="inherit"></path><path fill="none" d="M 132.4 71 C 137.4 71 208.1 40.4 210.6 51.1 L 213.1 61.8" stroke="#7798BF" stroke-width="1" visibility="inherit"></path><path fill="none" d="M 159.0 50 C 164.0 50 232.7 37.1 233.2 48.1 L 233.7 59.1" stroke="#aaeeee" stroke-width="1" visibility="inherit"></path><path fill="none" d="M 232.5 29 C 237.5 29 237.6 37.0 237.6 48.0 L 237.7 59.0" stroke="#ff0066" stroke-width="1" visibility="inherit"></path><g  style="cursor:pointer;" transform="translate(386,198)" class="highcharts-drilldown-data-label" visibility="inherit"><text x="5"  style="font-size:11px;font-weight:bold;color:#0d233a;text-shadow:0 0 6px contrast, 0 0 3px contrast;fill:#0d233a;text-decoration:underline;" y="16"><tspan>Microsoft Internet Explorer: 56.3%</tspan></text></g><g  style="cursor:pointer;" transform="translate(11,199)" class="highcharts-drilldown-data-label" visibility="inherit"><text x="5"  style="font-size:11px;font-weight:bold;color:#0d233a;text-shadow:0 0 6px contrast, 0 0 3px contrast;fill:#0d233a;text-decoration:underline;" y="16"><tspan>Chrome: 24.0%</tspan></text></g><g  style="cursor:pointer;" transform="translate(35,82)" class="highcharts-drilldown-data-label" visibility="inherit"><text x="5"  style="font-size:11px;font-weight:bold;color:#0d233a;text-shadow:0 0 6px contrast, 0 0 3px contrast;fill:#0d233a;text-decoration:underline;" y="16"><tspan>Firefox: 10.4%</tspan></text></g><g  style="cursor:pointer;" transform="translate(63,61)" class="highcharts-drilldown-data-label" visibility="inherit"><text x="5"  style="font-size:11px;font-weight:bold;color:#0d233a;text-shadow:0 0 6px contrast, 0 0 3px contrast;fill:#0d233a;text-decoration:underline;" y="16"><tspan>Safari: 4.8%</tspan></text></g><g  style="cursor:pointer;" transform="translate(88,40)" class="highcharts-drilldown-data-label" visibility="inherit"><text x="5"  style="font-size:11px;font-weight:bold;color:#0d233a;text-shadow:0 0 6px contrast, 0 0 3px contrast;fill:#0d233a;text-decoration:underline;" y="16"><tspan>Opera: 0.9%</tspan></text></g><g  style="" transform="translate(59,19)" visibility="inherit"><text x="5"  style="font-size: 11px; font-weight: bold; color: rgb(0, 0, 0); fill: #000000; text-shadow: rgb(255, 255, 255) 0px 0px 6px, rgb(255, 255, 255) 0px 0px 3px; text-rendering: geometricprecision;" y="16"><tspan>Proprietary or Undetectable: 0.2%</tspan></text></g></g><g class="highcharts-legend" ><g ><g></g></g></g><g class="highcharts-tooltip"  style="cursor:default;padding:0;white-space:nowrap;" transform="translate(0,-9999)"><path fill="none" d="M 3 0 L 13 0 C 16 0 16 0 16 3 L 16 13 C 16 16 16 16 13 16 L 3 16 C 0 16 0 16 0 13 L 0 3 C 0 0 0 0 3 0"  stroke="black" stroke-opacity="0.0" stroke-width="5" transform="translate(1, 1)"></path><path fill="none" d="M 3 0 L 13 0 C 16 0 16 0 16 3 L 16 13 C 16 16 16 16 13 16 L 3 16 C 0 16 0 16 0 13 L 0 3 C 0 0 0 0 3 0"  stroke="black" stroke-opacity="0.0" stroke-width="3" transform="translate(1, 1)"></path><path fill="none" d="M 3 0 L 13 0 C 16 0 16 0 16 3 L 16 13 C 16 16 16 16 13 16 L 3 16 C 0 16 0 16 0 13 L 0 3 C 0 0 0 0 3 0"  stroke="black" stroke-opacity="0.1" stroke-width="1" transform="translate(1, 1)"></path><path fill="rgb(249, 249, 249)" fill-opacity=" .85" d="M 3 0 L 13 0 C 16 0 16 0 16 3 L 16 13 C 16 16 16 16 13 16 L 3 16 C 0 16 0 16 0 13 L 0 3 C 0 0 0 0 3 0"></path><text x="8"  style="font-size:12px;color:#333333;fill:#333333;" y="20"></text></g></svg>