<svg version="1.1" style="font-family:&quot;lucida grande&quot;, &quot;lucida sans unicode&quot;, arial, helvetica, sans-serif;font-size:12px;" xmlns="http://www.w3.org/2000/svg" width="584" height="400" viewBox="0 0 584 400"><desc>Created with Highcharts 4.1.7</desc><defs><clipPath id="highcharts-1"><rect x="0" y="0" width="564" height="339"></rect></clipPath><radialGradient cx="230" cy="138" r="129.5" gradientUnits="userSpaceOnUse" id="highcharts-2"><stop offset="0" stop-color="#7cb5ec" stop-opacity="1"></stop><stop offset="1" stop-color="rgb(48,105,160)" stop-opacity="1"></stop></radialGradient><radialGradient cx="230" cy="138" r="129.5" gradientUnits="userSpaceOnUse" id="highcharts-3"><stop offset="0" stop-color="#434348" stop-opacity="1"></stop><stop offset="1" stop-color="rgb(0,0,0)" stop-opacity="1"></stop></radialGradient><radialGradient cx="230" cy="138" r="129.5" gradientUnits="userSpaceOnUse" id="highcharts-4"><stop offset="0" stop-color="#90ed7d" stop-opacity="1"></stop><stop offset="1" stop-color="rgb(68,161,49)" stop-opacity="1"></stop></radialGradient><radialGradient cx="230" cy="138" r="129.5" gradientUnits="userSpaceOnUse" id="highcharts-5"><stop offset="0" stop-color="#f7a35c" stop-opacity="1"></stop><stop offset="1" stop-color="rgb(171,87,16)" stop-opacity="1"></stop></radialGradient><radialGradient cx="230" cy="138" r="129.5" gradientUnits="userSpaceOnUse" id="highcharts-6"><stop offset="0" stop-color="#8085e9" stop-opacity="1"></stop><stop offset="1" stop-color="rgb(52,57,157)" stop-opacity="1"></stop></radialGradient><radialGradient cx="230" cy="138" r="129.5" gradientUnits="userSpaceOnUse" id="highcharts-7"><stop offset="0" stop-color="#f15c80" stop-opacity="1"></stop><stop offset="1" stop-color="rgb(165,16,52)" stop-opacity="1"></stop></radialGradient></defs><rect x="0" y="0" width="584" height="400" strokeWidth="0" fill="#FFFFFF" class=" highcharts-background" stroke="transparent"></rect><g class="highcharts-series-group" ><g class="highcharts-series highcharts-tracker" visibility="visible"  transform="translate(10,46) scale(1 1)" style="cursor:pointer;"><path fill="url(#highcharts-2)" d="M 229.9 82.5 A 92.5 92.5 0 1 1 184.0 255.2 L 230 175 A 0 0 0 1 0 230 175 Z" stroke="#FFFFFF" stroke-width="1" stroke-linejoin="round" transform="translate(0,0)"></path><path fill="url(#highcharts-3)" d="M 183.9 255.2 A 92.5 92.5 0 0 1 149.3 129.6 L 230 175 A 0 0 0 0 0 230 175 Z" stroke="#FFFFFF" stroke-width="1" stroke-linejoin="round" transform="translate(-10,3)"></path><path fill="url(#highcharts-4)" d="M 149.4 129.5 A 92.5 92.5 0 0 1 195.3 89.2 L 230 175 A 0 0 0 0 0 230 175 Z" stroke="#FFFFFF" stroke-width="1" stroke-linejoin="round" transform="translate(0,0)"></path><path fill="url(#highcharts-5)" d="M 195.4 89.1 A 92.5 92.5 0 0 1 223.2 82.7 L 230 175 A 0 0 0 0 0 230 175 Z" stroke="#FFFFFF" stroke-width="1" stroke-linejoin="round" transform="translate(0,0)"></path><path fill="url(#highcharts-6)" d="M 223.3 82.7 A 92.5 92.5 0 0 1 228.6 82.5 L 230 175 A 0 0 0 0 0 230 175 Z" stroke="#FFFFFF" stroke-width="1" stroke-linejoin="round" transform="translate(0,0)"></path><path fill="url(#highcharts-7)" d="M 228.7 82.5 A 92.5 92.5 0 0 1 229.8 82.5 L 230 175 A 0 0 0 0 0 230 175 Z" stroke="#FFFFFF" stroke-width="1" stroke-linejoin="round" transform="translate(0,0)"></path></g><g class="highcharts-markers" visibility="visible"  transform="translate(10,46) scale(1 1)"></g></g><text x="292" text-anchor="middle" class="highcharts-title"  style="color:#333333;font-size:18px;fill:#333333;width:520px;" y="24"><tspan>Browser market shares. January, 2015 to May, 2015</tspan></text><g class="highcharts-data-labels highcharts-tracker" visibility="visible"  transform="translate(10,46) scale(1 1)" style="cursor:pointer;"><path fill="none" d="M 353.3 206.5 C 348.3 206.5 340.6 204.5 330.0 201.6 L 319.3 198.8" stroke="silver" stroke-width="1" visibility="inherit"></path><path fill="none" d="M 106.8 207.4 C 111.8 207.4 119.5 205.3 130.1 202.3 L 140.8 199.4" stroke="silver" stroke-width="1" visibility="inherit"></path><path fill="none" d="M 114.8 121.3 C 119.8 121.3 154.5 88.9 161.7 97.1 L 169.0 105.4" stroke="silver" stroke-width="1" visibility="inherit"></path><path fill="none" d="M 129.4 98.3 C 134.4 98.3 204.1 63.4 206.6 74.1 L 209.1 84.8" stroke="silver" stroke-width="1" visibility="inherit"></path><path fill="none" d="M 153.6 75.4 C 158.6 75.4 225.1 60.6 225.5 71.5 L 226.0 82.5" stroke="silver" stroke-width="1" visibility="inherit"></path><path fill="none" d="M 224.2 52.5 C 229.2 52.5 229.2 60.5 229.3 71.5 L 229.3 82.5" stroke="silver" stroke-width="1" visibility="inherit"></path><g  style="cursor:pointer;" transform="translate(358,197)" visibility="inherit"><text x="5"  style="font-size: 11px; font-weight: bold; color: black; fill: #000000; text-shadow: rgb(255, 255, 255) 0px 0px 6px, rgb(255, 255, 255) 0px 0px 3px; text-rendering: geometricprecision;" y="16"><tspan style="font-weight:bold">Microsoft Internet Explorer</tspan><tspan dx="0">: 58.3 %</tspan></text></g><g  style="cursor:pointer;" transform="translate(10,197)" visibility="inherit"><text x="5"  style="font-size: 11px; font-weight: bold; color: black; fill: #000000; text-shadow: rgb(255, 255, 255) 0px 0px 6px, rgb(255, 255, 255) 0px 0px 3px; text-rendering: geometricprecision;" y="16"><tspan style="font-weight:bold">Chrome</tspan><tspan dx="0">: 24.9 %</tspan></text></g><g  style="cursor:pointer;" transform="translate(23,111)" visibility="inherit"><text x="5"  style="font-size: 11px; font-weight: bold; color: black; fill: #000000; text-shadow: rgb(255, 255, 255) 0px 0px 6px, rgb(255, 255, 255) 0px 0px 3px; text-rendering: geometricprecision;" y="16"><tspan style="font-weight:bold">Firefox</tspan><tspan dx="0">: 10.7 %</tspan></text></g><g  style="cursor:pointer;" transform="translate(51,88)" visibility="inherit"><text x="5"  style="font-size: 11px; font-weight: bold; color: black; fill: #000000; text-shadow: rgb(255, 255, 255) 0px 0px 6px, rgb(255, 255, 255) 0px 0px 3px; text-rendering: geometricprecision;" y="16"><tspan style="font-weight:bold">Safari</tspan><tspan dx="0">: 4.9 %</tspan></text></g><g  style="cursor:pointer;" transform="translate(74,65)" visibility="inherit"><text x="5"  style="font-size: 11px; font-weight: bold; color: black; fill: #000000; text-shadow: rgb(255, 255, 255) 0px 0px 6px, rgb(255, 255, 255) 0px 0px 3px; text-rendering: geometricprecision;" y="16"><tspan style="font-weight:bold">Opera</tspan><tspan dx="0">: 0.9 %</tspan></text></g><g  style="cursor:pointer;" transform="translate(22,43)" visibility="inherit"><text x="5"  style="font-size: 11px; font-weight: bold; color: black; fill: #000000; text-shadow: rgb(255, 255, 255) 0px 0px 6px, rgb(255, 255, 255) 0px 0px 3px; text-rendering: geometricprecision;" y="16"><tspan style="font-weight:bold">Proprietary or Undetectable</tspan><tspan dx="0">: 0.2 %</tspan></text></g></g><g class="highcharts-legend" ><g ><g></g></g></g><g class="highcharts-tooltip"  style="cursor:default;padding:0;white-space:nowrap;" transform="translate(0,-9999)"><path fill="none" d="M 3.5 0.5 L 13.5 0.5 C 16.5 0.5 16.5 0.5 16.5 3.5 L 16.5 13.5 C 16.5 16.5 16.5 16.5 13.5 16.5 L 3.5 16.5 C 0.5 16.5 0.5 16.5 0.5 13.5 L 0.5 3.5 C 0.5 0.5 0.5 0.5 3.5 0.5"  stroke="black" stroke-opacity="0.0" stroke-width="5" transform="translate(1, 1)"></path><path fill="none" d="M 3.5 0.5 L 13.5 0.5 C 16.5 0.5 16.5 0.5 16.5 3.5 L 16.5 13.5 C 16.5 16.5 16.5 16.5 13.5 16.5 L 3.5 16.5 C 0.5 16.5 0.5 16.5 0.5 13.5 L 0.5 3.5 C 0.5 0.5 0.5 0.5 3.5 0.5"  stroke="black" stroke-opacity="0.0" stroke-width="3" transform="translate(1, 1)"></path><path fill="none" d="M 3.5 0.5 L 13.5 0.5 C 16.5 0.5 16.5 0.5 16.5 3.5 L 16.5 13.5 C 16.5 16.5 16.5 16.5 13.5 16.5 L 3.5 16.5 C 0.5 16.5 0.5 16.5 0.5 13.5 L 0.5 3.5 C 0.5 0.5 0.5 0.5 3.5 0.5"  stroke="black" stroke-opacity="0.1" stroke-width="1" transform="translate(1, 1)"></path><path fill="rgb(249, 249, 249)" fill-opacity=" .85" d="M 3.5 0.5 L 13.5 0.5 C 16.5 0.5 16.5 0.5 16.5 3.5 L 16.5 13.5 C 16.5 16.5 16.5 16.5 13.5 16.5 L 3.5 16.5 C 0.5 16.5 0.5 16.5 0.5 13.5 L 0.5 3.5 C 0.5 0.5 0.5 0.5 3.5 0.5"></path><text x="8"  style="font-size:12px;color:#333333;fill:#333333;" y="20"></text></g></svg>