<svg version="1.1" style="font-family:&quot;lucida grande&quot;, &quot;lucida sans unicode&quot;, arial, helvetica, sans-serif;font-size:12px;" xmlns="http://www.w3.org/2000/svg" width="584" height="400" viewBox="0 0 584 400"><desc>Created with Highcharts 4.1.6</desc><defs><clipPath id="highcharts-1"><rect x="0" y="0" width="450" height="324"></rect></clipPath></defs><rect x="0" y="0" width="584" height="400" strokeWidth="0" fill="#FFFFFF" class=" highcharts-background" stroke="transparent"></rect><g class="highcharts-grid" ><path fill="none" d="M 235 223 L 235 85.3" stroke="#D8D8D8" stroke-width="1"  opacity="1"></path><path fill="none" d="M 235 223 L 287.6 95.7" stroke="#D8D8D8" stroke-width="1"  opacity="1"></path><path fill="none" d="M 235 223 L 332.3 125.6" stroke="#D8D8D8" stroke-width="1"  opacity="1"></path><path fill="none" d="M 235 223 L 362.2 170.3" stroke="#D8D8D8" stroke-width="1"  opacity="1"></path><path fill="none" d="M 235 223 L 372.7 223" stroke="#D8D8D8" stroke-width="1"  opacity="1"></path><path fill="none" d="M 235 223 L 362.2 275.6" stroke="#D8D8D8" stroke-width="1"  opacity="1"></path><path fill="none" d="M 235 223 L 332.3 320.3" stroke="#D8D8D8" stroke-width="1"  opacity="1"></path><path fill="none" d="M 235 223 L 287.6 350.2" stroke="#D8D8D8" stroke-width="1"  opacity="1"></path><path fill="none" d="M 235 223 L 235 360.7" stroke="#D8D8D8" stroke-width="1"  opacity="1"></path><path fill="none" d="M 235 223 L 182.3 350.2" stroke="#D8D8D8" stroke-width="1"  opacity="1"></path><path fill="none" d="M 235 223 L 137.6 320.3" stroke="#D8D8D8" stroke-width="1"  opacity="1"></path><path fill="none" d="M 235 223 L 107.7 275.6" stroke="#D8D8D8" stroke-width="1"  opacity="1"></path><path fill="none" d="M 235 223 L 97.3 223.0" stroke="#D8D8D8" stroke-width="1"  opacity="1"></path><path fill="none" d="M 235 223 L 107.7 170.3" stroke="#D8D8D8" stroke-width="1"  opacity="1"></path><path fill="none" d="M 235 223 L 137.6 125.6" stroke="#D8D8D8" stroke-width="1"  opacity="1"></path><path fill="none" d="M 235 223 L 182.3 95.7" stroke="#D8D8D8" stroke-width="1"  opacity="1"></path><path fill="none" d="M 235 223 L 234.9 85.3" stroke="#D8D8D8" stroke-width="1"  opacity="1"></path></g><g class="highcharts-grid" ><path fill="none" stroke="#D8D8D8" stroke-width="1" ></path><path fill="none" d="M 235 165.6 A 57.3 57.3 0 1 1 234.9 165.6 M 235 223 A 0 0 0 1 0 235 223 " stroke="#D8D8D8" stroke-width="1"  opacity="1"></path><path fill="none" d="M 235 108.3 A 114.6 114.6 0 1 1 234.8 108.3 M 235 223 A 0 0 0 1 0 235 223 " stroke="#D8D8D8" stroke-width="1"  opacity="1"></path></g><g class="highcharts-axis" ><path fill="none" d="M 235 85.3 A 137.7 137.7 0 1 1 234.8 85.3 M 235 223 A 0 0 0 1 0 235 223 " stroke="#C0D0E0" stroke-width="1"  visibility="visible"></path></g><g class="highcharts-axis" ><text x="239"  text-anchor="middle" transform="translate(0,0) rotate(90 239 154.1)" class=" highcharts-yaxis-title" style="color:#707070;fill:#707070;" visibility="visible" y="154.1"><tspan>Frequency (%)</tspan></text></g><g class="highcharts-series-group" ><g class="highcharts-series highcharts-tracker" visibility="visible"  transform="translate(10,61) scale(1 1)" style="" clip-path="url(#highcharts-1)"><path fill="#7cb5ec" d="M 221.7 141.5 A 20.7 20.7 0 0 1 228.2 141.5 L 225 162 A 0 0 0 0 0 225 162 Z" r="0"></path><path fill="#7cb5ec" d="M 226.6 155.0 A 7.1 7.1 0 0 1 228.7 155.9 L 225 162 A 0 0 0 0 0 225 162 Z" r="0"></path><path fill="#7cb5ec" d="M 230.5 154.3 A 9.4 9.4 0 0 1 232.5 156.4 L 225 162 A 0 0 0 0 0 225 162 Z" r="0"></path><path fill="#7cb5ec" d="M 230.7 158.4 A 6.7 6.7 0 0 1 231.5 160.4 L 225 162 A 0 0 0 0 0 225 162 Z" r="0"></path><path fill="#7cb5ec" d="M 232.0 160.8 A 7.1 7.1 0 0 1 232.0 163.1 L 225 162 A 0 0 0 0 0 225 162 Z" r="0"></path><path fill="#7cb5ec" d="M 238.5 165.2 A 13.9 13.9 0 0 1 236.9 169.2 L 225 162 A 0 0 0 0 0 225 162 Z" r="0"></path><path fill="#7cb5ec" d="M 239.9 172.8 A 18.4 18.4 0 0 1 235.8 176.9 L 225 162 A 0 0 0 0 0 225 162 Z" r="0"></path><path fill="#7cb5ec" d="M 237.2 181.9 A 23.3 23.3 0 0 1 230.4 184.7 L 225 162 A 0 0 0 0 0 225 162 Z" r="0"></path><path fill="#7cb5ec" d="M 229.7 192.1 A 30.4 30.4 0 0 1 220.2 192.1 L 225 162 A 0 0 0 0 0 225 162 Z" r="0"></path><path fill="#7cb5ec" d="M 217.0 194.9 A 33.9 33.9 0 0 1 207.2 190.9 L 225 162 A 0 0 0 0 0 225 162 Z" r="0"></path><path fill="#7cb5ec" d="M 207.9 185.4 A 29.0 29.0 0 0 1 201.5 179.0 L 225 162 A 0 0 0 0 0 225 162 Z" r="0"></path><path fill="#7cb5ec" d="M 205.7 173.7 A 22.5 22.5 0 0 1 203.0 167.2 L 225 162 A 0 0 0 0 0 225 162 Z" r="0"></path><path fill="#7cb5ec" d="M 206.4 164.9 A 18.8 18.8 0 0 1 206.4 159.0 L 225 162 A 0 0 0 0 0 225 162 Z" r="0"></path><path fill="#7cb5ec" d="M 210.2 158.4 A 15.1 15.1 0 0 1 212.0 154.1 L 225 162 A 0 0 0 0 0 225 162 Z" r="0"></path><path fill="#7cb5ec" d="M 210.3 151.3 A 18.1 18.1 0 0 1 214.3 147.3 L 225 162 A 0 0 0 0 0 225 162 Z" r="0"></path><path fill="#7cb5ec" d="M 215.9 147.2 A 17.3 17.3 0 0 1 220.9 145.1 L 225 162 A 0 0 0 0 0 225 162 Z" r="0"></path></g><g class="highcharts-markers" visibility="visible"  transform="translate(10,61) scale(1 1)"></g><g class="highcharts-series highcharts-tracker" visibility="visible"  transform="translate(10,61) scale(1 1)" style="" clip-path="url(#highcharts-1)"><path fill="#434348" d="M 218.5 121.3 A 41.1 41.1 0 0 1 231.3 121.3 L 228.2 141.5 A 20.7 20.7 0 0 0 221.7 141.5 Z" r="0"></path><path fill="#434348" d="M 229.5 142.9 A 19.6 19.6 0 0 1 235.2 145.2 L 228.7 155.9 A 7.1 7.1 0 0 0 226.6 155.0 Z" r="0"></path><path fill="#434348" d="M 236.0 146.7 A 18.8 18.8 0 0 1 240.1 150.9 L 232.5 156.4 A 9.4 9.4 0 0 0 230.5 154.3 Z" r="0"></path><path fill="#434348" d="M 242.6 151.1 A 20.7 20.7 0 0 1 245.1 157.1 L 231.5 160.4 A 6.7 6.7 0 0 0 230.7 158.4 Z" r="0"></path><path fill="#434348" d="M 256.9 156.9 A 32.3 32.3 0 0 1 256.9 167.0 L 232.0 163.1 A 7.1 7.1 0 0 0 232.0 160.8 Z" r="0"></path><path fill="#434348" d="M 261.0 170.6 A 37.0 37.0 0 0 1 256.5 181.3 L 236.9 169.2 A 13.9 13.9 0 0 0 238.5 165.2 Z" r="0"></path><path fill="#434348" d="M 268.3 193.4 A 53.5 53.5 0 0 1 256.5 205.2 L 235.8 176.9 A 18.4 18.4 0 0 0 239.9 172.8 Z" r="0"></path><path fill="#434348" d="M 257.7 215.3 A 62.5 62.5 0 0 1 239.6 222.8 L 230.4 184.7 A 23.3 23.3 0 0 0 237.2 181.9 Z" r="0"></path><path fill="#434348" d="M 238.2 245.7 A 84.8 84.8 0 0 1 211.8 245.7 L 220.2 192.1 A 30.4 30.4 0 0 0 229.7 192.1 Z" r="0"></path><path fill="#434348" d="M 205.9 241.1 A 81.3 81.3 0 0 1 182.5 231.4 L 207.2 190.9 A 33.9 33.9 0 0 0 217.0 194.9 Z" r="0"></path><path fill="#434348" d="M 180.9 222.6 A 74.9 74.9 0 0 1 164.3 206.1 L 201.5 179.0 A 29.0 29.0 0 0 0 207.9 185.4 Z" r="0"></path><path fill="#434348" d="M 179.7 189.7 A 53.0 53.0 0 0 1 173.4 174.4 L 203.0 167.2 A 22.5 22.5 0 0 0 205.7 173.7 Z" r="0"></path><path fill="#434348" d="M 187.0 168.0 A 38.4 38.4 0 0 1 187.0 156.0 L 206.4 159.0 A 18.8 18.8 0 0 0 206.4 164.9 Z" r="0"></path><path fill="#434348" d="M 183.5 152.0 A 42.6 42.6 0 0 1 188.6 139.7 L 212.0 154.1 A 15.1 15.1 0 0 0 210.2 158.4 Z" r="0"></path><path fill="#434348" d="M 170.6 122.5 A 67.1 67.1 0 0 1 185.4 107.6 L 214.3 147.3 A 18.1 18.1 0 0 0 210.3 151.3 Z" r="0"></path><path fill="#434348" d="M 186.0 98.3 A 74.6 74.6 0 0 1 207.5 89.4 L 220.9 145.1 A 17.3 17.3 0 0 0 215.9 147.2 Z" r="0"></path></g><g class="highcharts-markers" visibility="visible"  transform="translate(10,61) scale(1 1)"></g><g class="highcharts-series highcharts-tracker" visibility="visible"  transform="translate(10,61) scale(1 1)" style="" clip-path="url(#highcharts-1)"><path fill="#90ed7d" d="M 218.2 119.5 A 42.9 42.9 0 0 1 231.6 119.5 L 231.3 121.3 A 41.1 41.1 0 0 0 218.5 121.3 Z" r="0"></path><path fill="#90ed7d" d="M 229.5 142.9 A 19.6 19.6 0 0 1 235.2 145.2 L 235.2 145.2 A 19.6 19.6 0 0 0 229.5 142.9 Z" r="0"></path><path fill="#90ed7d" d="M 236.5 146.1 A 19.6 19.6 0 0 1 240.8 150.4 L 240.1 150.9 A 18.8 18.8 0 0 0 236.0 146.7 Z" r="0"></path><path fill="#90ed7d" d="M 243.3 150.7 A 21.5 21.5 0 0 1 245.9 156.9 L 245.1 157.1 A 20.7 20.7 0 0 0 242.6 151.1 Z" r="0"></path><path fill="#90ed7d" d="M 262.4 156.0 A 37.9 37.9 0 0 1 262.4 167.8 L 256.9 167.0 A 32.3 32.3 0 0 0 256.9 156.9 Z" r="0"></path><path fill="#90ed7d" d="M 278.2 174.7 A 54.7 54.7 0 0 1 271.7 190.5 L 256.5 181.3 A 37.0 37.0 0 0 0 261.0 170.6 Z" r="0"></path><path fill="#90ed7d" d="M 290.2 209.4 A 80.7 80.7 0 0 1 272.5 227.2 L 256.5 205.2 A 53.5 53.5 0 0 0 268.3 193.4 Z" r="0"></path><path fill="#90ed7d" d="M 269.5 234.6 A 85.1 85.1 0 0 1 244.9 244.8 L 239.6 222.8 A 62.5 62.5 0 0 0 257.7 215.3 Z" r="0"></path><path fill="#90ed7d" d="M 239.0 250.6 A 89.7 89.7 0 0 1 211.0 250.6 L 211.8 245.7 A 84.8 84.8 0 0 0 238.2 245.7 Z" r="0"></path><path fill="#90ed7d" d="M 205.3 244.0 A 84.3 84.3 0 0 1 180.9 233.9 L 182.5 231.4 A 81.3 81.3 0 0 0 205.9 241.1 Z" r="0"></path><path fill="#90ed7d" d="M 172.7 233.9 A 88.9 88.9 0 0 1 153.0 214.3 L 164.3 206.1 A 74.9 74.9 0 0 0 180.9 222.6 Z" r="0"></path><path fill="#90ed7d" d="M 160.4 201.5 A 75.6 75.6 0 0 1 151.4 179.7 L 173.4 174.4 A 53.0 53.0 0 0 0 179.7 189.7 Z" r="0"></path><path fill="#90ed7d" d="M 176.6 169.6 A 48.9 48.9 0 0 1 176.6 154.3 L 187.0 156.0 A 38.4 38.4 0 0 0 187.0 168.0 Z" r="0"></path><path fill="#90ed7d" d="M 172.4 149.3 A 53.9 53.9 0 0 1 178.9 133.8 L 188.6 139.7 A 42.6 42.6 0 0 0 183.5 152.0 Z" r="0"></path><path fill="#90ed7d" d="M 158.7 113.8 A 81.8 81.8 0 0 1 176.8 95.8 L 185.4 107.6 A 67.1 67.1 0 0 0 170.6 122.5 Z" r="0"></path><path fill="#90ed7d" d="M 178.1 85.4 A 89.7 89.7 0 0 1 203.9 74.7 L 207.5 89.4 A 74.6 74.6 0 0 0 186.0 98.3 Z" r="0"></path></g><g class="highcharts-markers" visibility="visible"  transform="translate(10,61) scale(1 1)"></g><g class="highcharts-series highcharts-tracker" visibility="visible"  transform="translate(10,61) scale(1 1)" style="" clip-path="url(#highcharts-1)"><path fill="#f7a35c" d="M 218.2 119.5 A 42.9 42.9 0 0 1 231.6 119.5 L 231.6 119.5 A 42.9 42.9 0 0 0 218.2 119.5 Z" r="0"></path><path fill="#f7a35c" d="M 229.5 142.9 A 19.6 19.6 0 0 1 235.2 145.2 L 235.2 145.2 A 19.6 19.6 0 0 0 229.5 142.9 Z" r="0"></path><path fill="#f7a35c" d="M 236.5 146.1 A 19.6 19.6 0 0 1 240.8 150.4 L 240.8 150.4 A 19.6 19.6 0 0 0 236.5 146.1 Z" r="0"></path><path fill="#f7a35c" d="M 243.3 150.7 A 21.5 21.5 0 0 1 245.9 156.9 L 245.9 156.9 A 21.5 21.5 0 0 0 243.3 150.7 Z" r="0"></path><path fill="#f7a35c" d="M 262.4 156.0 A 37.9 37.9 0 0 1 262.4 167.8 L 262.4 167.8 A 37.9 37.9 0 0 0 262.4 156.0 Z" r="0"></path><path fill="#f7a35c" d="M 281.6 175.5 A 58.2 58.2 0 0 1 274.6 192.3 L 271.7 190.5 A 54.7 54.7 0 0 0 278.2 174.7 Z" r="0"></path><path fill="#f7a35c" d="M 310.1 223.8 A 105.2 105.2 0 0 1 286.9 247.0 L 272.5 227.2 A 80.7 80.7 0 0 0 290.2 209.4 Z" r="0"></path><path fill="#f7a35c" d="M 274.6 243.0 A 95.0 95.0 0 0 1 247.2 254.3 L 244.9 244.8 A 85.1 85.1 0 0 0 269.5 234.6 Z" r="0"></path><path fill="#f7a35c" d="M 239.0 250.6 A 89.7 89.7 0 0 1 211.0 250.6 L 211.0 250.6 A 89.7 89.7 0 0 0 239.0 250.6 Z" r="0"></path><path fill="#f7a35c" d="M 205.3 244.0 A 84.3 84.3 0 0 1 180.9 233.9 L 180.9 233.9 A 84.3 84.3 0 0 0 205.3 244.0 Z" r="0"></path><path fill="#f7a35c" d="M 169.4 238.5 A 94.5 94.5 0 0 1 148.5 217.6 L 153.0 214.3 A 88.9 88.9 0 0 0 172.7 233.9 Z" r="0"></path><path fill="#f7a35c" d="M 152.7 206.2 A 84.7 84.7 0 0 1 142.6 181.8 L 151.4 179.7 A 75.6 75.6 0 0 0 160.4 201.5 Z" r="0"></path><path fill="#f7a35c" d="M 160.2 172.2 A 65.5 65.5 0 0 1 160.2 151.8 L 176.6 154.3 A 48.9 48.9 0 0 0 176.6 169.6 Z" r="0"></path><path fill="#f7a35c" d="M 154.5 145.0 A 72.4 72.4 0 0 1 163.1 124.2 L 178.9 133.8 A 53.9 53.9 0 0 0 172.4 149.3 Z" r="0"></path><path fill="#f7a35c" d="M 151.7 108.7 A 90.5 90.5 0 0 1 171.6 88.7 L 176.8 95.8 A 81.8 81.8 0 0 0 158.7 113.8 Z" r="0"></path><path fill="#f7a35c" d="M 177.3 84.1 A 91.2 91.2 0 0 1 203.6 73.2 L 203.9 74.7 A 89.7 89.7 0 0 0 178.1 85.4 Z" r="0"></path></g><g class="highcharts-markers" visibility="visible"  transform="translate(10,61) scale(1 1)"></g><g class="highcharts-series highcharts-tracker" visibility="visible"  transform="translate(10,61) scale(1 1)" style="" clip-path="url(#highcharts-1)"><path fill="#8085e9" d="M 218.2 119.5 A 42.9 42.9 0 0 1 231.6 119.5 L 231.6 119.5 A 42.9 42.9 0 0 0 218.2 119.5 Z" r="0"></path><path fill="#8085e9" d="M 229.5 142.9 A 19.6 19.6 0 0 1 235.2 145.2 L 235.2 145.2 A 19.6 19.6 0 0 0 229.5 142.9 Z" r="0"></path><path fill="#8085e9" d="M 236.5 146.1 A 19.6 19.6 0 0 1 240.8 150.4 L 240.8 150.4 A 19.6 19.6 0 0 0 236.5 146.1 Z" r="0"></path><path fill="#8085e9" d="M 243.3 150.7 A 21.5 21.5 0 0 1 245.9 156.9 L 245.9 156.9 A 21.5 21.5 0 0 0 243.3 150.7 Z" r="0"></path><path fill="#8085e9" d="M 262.4 156.0 A 37.9 37.9 0 0 1 262.4 167.8 L 262.4 167.8 A 37.9 37.9 0 0 0 262.4 156.0 Z" r="0"></path><path fill="#8085e9" d="M 283.0 175.9 A 59.7 59.7 0 0 1 275.9 193.1 L 274.6 192.3 A 58.2 58.2 0 0 0 281.6 175.5 Z" r="0"></path><path fill="#8085e9" d="M 326.2 235.5 A 125.1 125.1 0 0 1 298.6 263.2 L 286.9 247.0 A 105.2 105.2 0 0 0 310.1 223.8 Z" r="0"></path><path fill="#8085e9" d="M 277.8 248.2 A 101.1 101.1 0 0 1 248.7 260.2 L 247.2 254.3 A 95.0 95.0 0 0 0 274.6 243.0 Z" r="0"></path><path fill="#8085e9" d="M 239.0 250.6 A 89.7 89.7 0 0 1 211.0 250.6 L 211.0 250.6 A 89.7 89.7 0 0 0 239.0 250.6 Z" r="0"></path><path fill="#8085e9" d="M 205.3 244.0 A 84.3 84.3 0 0 1 180.9 233.9 L 180.9 233.9 A 84.3 84.3 0 0 0 205.3 244.0 Z" r="0"></path><path fill="#8085e9" d="M 168.5 239.7 A 96.0 96.0 0 0 1 147.3 218.5 L 148.5 217.6 A 94.5 94.5 0 0 0 169.4 238.5 Z" r="0"></path><path fill="#8085e9" d="M 149.8 208.0 A 88.1 88.1 0 0 1 139.3 182.6 L 142.6 181.8 A 84.7 84.7 0 0 0 152.7 206.2 Z" r="0"></path><path fill="#8085e9" d="M 157.2 172.7 A 68.5 68.5 0 0 1 157.2 151.3 L 160.2 151.8 A 65.5 65.5 0 0 0 160.2 172.2 Z" r="0"></path><path fill="#8085e9" d="M 150.8 144.2 A 76.2 76.2 0 0 1 159.9 122.2 L 163.1 124.2 A 72.4 72.4 0 0 0 154.5 145.0 Z" r="0"></path><path fill="#8085e9" d="M 145.6 104.3 A 98.1 98.1 0 0 1 167.2 82.6 L 171.6 88.7 A 90.5 90.5 0 0 0 151.7 108.7 Z" r="0"></path><path fill="#8085e9" d="M 175.9 81.9 A 93.8 93.8 0 0 1 202.9 70.7 L 203.6 73.2 A 91.2 91.2 0 0 0 177.3 84.1 Z" r="0"></path></g><g class="highcharts-markers" visibility="visible"  transform="translate(10,61) scale(1 1)"></g><g class="highcharts-series highcharts-tracker" visibility="visible"  transform="translate(10,61) scale(1 1)" style="" clip-path="url(#highcharts-1)"><path fill="#f15c80" d="M 218.2 119.5 A 42.9 42.9 0 0 1 231.6 119.5 L 231.6 119.5 A 42.9 42.9 0 0 0 218.2 119.5 Z" r="0"></path><path fill="#f15c80" d="M 229.5 142.9 A 19.6 19.6 0 0 1 235.2 145.2 L 235.2 145.2 A 19.6 19.6 0 0 0 229.5 142.9 Z" r="0"></path><path fill="#f15c80" d="M 236.5 146.1 A 19.6 19.6 0 0 1 240.8 150.4 L 240.8 150.4 A 19.6 19.6 0 0 0 236.5 146.1 Z" r="0"></path><path fill="#f15c80" d="M 243.3 150.7 A 21.5 21.5 0 0 1 245.9 156.9 L 245.9 156.9 A 21.5 21.5 0 0 0 243.3 150.7 Z" r="0"></path><path fill="#f15c80" d="M 262.4 156.0 A 37.9 37.9 0 0 1 262.4 167.8 L 262.4 167.8 A 37.9 37.9 0 0 0 262.4 156.0 Z" r="0"></path><path fill="#f15c80" d="M 283.0 175.9 A 59.7 59.7 0 0 1 275.9 193.1 L 275.9 193.1 A 59.7 59.7 0 0 0 283.0 175.9 Z" r="0"></path><path fill="#f15c80" d="M 329.8 238.2 A 129.6 129.6 0 0 1 301.3 266.8 L 298.6 263.2 A 125.1 125.1 0 0 0 326.2 235.5 Z" r="0"></path><path fill="#f15c80" d="M 280.7 252.9 A 106.7 106.7 0 0 1 250.0 265.7 L 248.7 260.2 A 101.1 101.1 0 0 0 277.8 248.2 Z" r="0"></path><path fill="#f15c80" d="M 239.0 250.6 A 89.7 89.7 0 0 1 211.0 250.6 L 211.0 250.6 A 89.7 89.7 0 0 0 239.0 250.6 Z" r="0"></path><path fill="#f15c80" d="M 205.3 244.0 A 84.3 84.3 0 0 1 180.9 233.9 L 180.9 233.9 A 84.3 84.3 0 0 0 205.3 244.0 Z" r="0"></path><path fill="#f15c80" d="M 168.5 239.7 A 96.0 96.0 0 0 1 147.3 218.5 L 147.3 218.5 A 96.0 96.0 0 0 0 168.5 239.7 Z" r="0"></path><path fill="#f15c80" d="M 149.8 208.0 A 88.1 88.1 0 0 1 139.3 182.6 L 139.3 182.6 A 88.1 88.1 0 0 0 149.8 208.0 Z" r="0"></path><path fill="#f15c80" d="M 156.1 172.9 A 69.6 69.6 0 0 1 156.1 151.1 L 157.2 151.3 A 68.5 68.5 0 0 0 157.2 172.7 Z" r="0"></path><path fill="#f15c80" d="M 150.8 144.2 A 76.2 76.2 0 0 1 159.9 122.2 L 159.9 122.2 A 76.2 76.2 0 0 0 150.8 144.2 Z" r="0"></path><path fill="#f15c80" d="M 139.2 99.6 A 106.0 106.0 0 0 1 162.5 76.2 L 167.2 82.6 A 98.1 98.1 0 0 0 145.6 104.3 Z" r="0"></path><path fill="#f15c80" d="M 175.1 80.6 A 95.3 95.3 0 0 1 202.6 69.2 L 202.9 70.7 A 93.8 93.8 0 0 0 175.9 81.9 Z" r="0"></path></g><g class="highcharts-markers" visibility="visible"  transform="translate(10,61) scale(1 1)"></g><g class="highcharts-series highcharts-tracker" visibility="visible"  transform="translate(10,61) scale(1 1)" style="" clip-path="url(#highcharts-1)"><path fill="#e4d354" d="M 218.2 119.5 A 42.9 42.9 0 0 1 231.6 119.5 L 231.6 119.5 A 42.9 42.9 0 0 0 218.2 119.5 Z" r="0"></path><path fill="#e4d354" d="M 229.5 142.9 A 19.6 19.6 0 0 1 235.2 145.2 L 235.2 145.2 A 19.6 19.6 0 0 0 229.5 142.9 Z" r="0"></path><path fill="#e4d354" d="M 236.5 146.1 A 19.6 19.6 0 0 1 240.8 150.4 L 240.8 150.4 A 19.6 19.6 0 0 0 236.5 146.1 Z" r="0"></path><path fill="#e4d354" d="M 243.3 150.7 A 21.5 21.5 0 0 1 245.9 156.9 L 245.9 156.9 A 21.5 21.5 0 0 0 243.3 150.7 Z" r="0"></path><path fill="#e4d354" d="M 262.4 156.0 A 37.9 37.9 0 0 1 262.4 167.8 L 262.4 167.8 A 37.9 37.9 0 0 0 262.4 156.0 Z" r="0"></path><path fill="#e4d354" d="M 283.0 175.9 A 59.7 59.7 0 0 1 275.9 193.1 L 275.9 193.1 A 59.7 59.7 0 0 0 283.0 175.9 Z" r="0"></path><path fill="#e4d354" d="M 331.0 239.0 A 131.1 131.1 0 0 1 302.1 268.0 L 301.3 266.8 A 129.6 129.6 0 0 0 329.8 238.2 Z" r="0"></path><path fill="#e4d354" d="M 280.7 252.9 A 106.7 106.7 0 0 1 250.0 265.7 L 250.0 265.7 A 106.7 106.7 0 0 0 280.7 252.9 Z" r="0"></path><path fill="#e4d354" d="M 239.0 250.6 A 89.7 89.7 0 0 1 211.0 250.6 L 211.0 250.6 A 89.7 89.7 0 0 0 239.0 250.6 Z" r="0"></path><path fill="#e4d354" d="M 205.3 244.0 A 84.3 84.3 0 0 1 180.9 233.9 L 180.9 233.9 A 84.3 84.3 0 0 0 205.3 244.0 Z" r="0"></path><path fill="#e4d354" d="M 168.5 239.7 A 96.0 96.0 0 0 1 147.3 218.5 L 147.3 218.5 A 96.0 96.0 0 0 0 168.5 239.7 Z" r="0"></path><path fill="#e4d354" d="M 149.8 208.0 A 88.1 88.1 0 0 1 139.3 182.6 L 139.3 182.6 A 88.1 88.1 0 0 0 149.8 208.0 Z" r="0"></path><path fill="#e4d354" d="M 156.1 172.9 A 69.6 69.6 0 0 1 156.1 151.1 L 156.1 151.1 A 69.6 69.6 0 0 0 156.1 172.9 Z" r="0"></path><path fill="#e4d354" d="M 150.8 144.2 A 76.2 76.2 0 0 1 159.9 122.2 L 159.9 122.2 A 76.2 76.2 0 0 0 150.8 144.2 Z" r="0"></path><path fill="#e4d354" d="M 138.9 99.4 A 106.3 106.3 0 0 1 162.3 75.9 L 162.5 76.2 A 106.0 106.0 0 0 0 139.2 99.6 Z" r="0"></path><path fill="#e4d354" d="M 174.7 79.9 A 96.1 96.1 0 0 1 202.4 68.5 L 202.6 69.2 A 95.3 95.3 0 0 0 175.1 80.6 Z" r="0"></path></g><g class="highcharts-markers" visibility="visible"  transform="translate(10,61) scale(1 1)"></g></g><text x="292" text-anchor="middle" class="highcharts-title"  style="color:#333333;font-size:18px;fill:#333333;width:520px;" y="24"><tspan>Wind rose for South Shore Met Station, Oregon</tspan></text><text x="292" text-anchor="middle" class="highcharts-subtitle"  style="color:#555555;fill:#555555;width:520px;" y="45"><tspan>Source: or.water.usgs.gov</tspan></text><g class="highcharts-legend"  transform="translate(472,110)"><g ><g><g class="highcharts-legend-item"  transform="translate(8,3)"><text x="21" style="color:#333333;font-size:12px;font-weight:bold;cursor:pointer;fill:#333333;" text-anchor="start"  y="15"><tspan>&lt; 0.5 m/s</tspan></text><rect x="0" y="4" width="16" height="12"  fill="#7cb5ec"></rect></g><g class="highcharts-legend-item"  transform="translate(8,18)"><text x="21" y="15" style="color:#333333;font-size:12px;font-weight:bold;cursor:pointer;fill:#333333;" text-anchor="start" ><tspan>0.5-2 m/s</tspan></text><rect x="0" y="4" width="16" height="12"  fill="#434348"></rect></g><g class="highcharts-legend-item"  transform="translate(8,33)"><text x="21" y="15" style="color:#333333;font-size:12px;font-weight:bold;cursor:pointer;fill:#333333;" text-anchor="start" ><tspan>2-4 m/s</tspan></text><rect x="0" y="4" width="16" height="12"  fill="#90ed7d"></rect></g><g class="highcharts-legend-item"  transform="translate(8,48)"><text x="21" y="15" style="color:#333333;font-size:12px;font-weight:bold;cursor:pointer;fill:#333333;" text-anchor="start" ><tspan>4-6 m/s</tspan></text><rect x="0" y="4" width="16" height="12"  fill="#f7a35c"></rect></g><g class="highcharts-legend-item"  transform="translate(8,63)"><text x="21" y="15" style="color:#333333;font-size:12px;font-weight:bold;cursor:pointer;fill:#333333;" text-anchor="start" ><tspan>6-8 m/s</tspan></text><rect x="0" y="4" width="16" height="12"  fill="#8085e9"></rect></g><g class="highcharts-legend-item"  transform="translate(8,78)"><text x="21" y="15" style="color:#333333;font-size:12px;font-weight:bold;cursor:pointer;fill:#333333;" text-anchor="start" ><tspan>8-10 m/s</tspan></text><rect x="0" y="4" width="16" height="12"  fill="#f15c80"></rect></g><g class="highcharts-legend-item"  transform="translate(8,93)"><text x="21" y="15" style="color:#333333;font-size:12px;font-weight:bold;cursor:pointer;fill:#333333;" text-anchor="start" ><tspan>&gt; 10 m/s</tspan></text><rect x="0" y="4" width="16" height="12"  fill="#e4d354"></rect></g></g></g></g><g class="highcharts-axis-labels highcharts-xaxis-labels" ><text x="235" style="color:#606060;cursor:default;font-size:11px;fill:#606060;width:16px;text-overflow:clip;" text-anchor="middle" transform="translate(0,0)" y="74.8" opacity="1">N</text><text x="293.4" style="color:#606060;cursor:default;font-size:11px;fill:#606060;width:16px;text-overflow:clip;" text-anchor="start" transform="translate(0,0)" y="86.4" opacity="1">NNE</text><text x="342.9" style="color:#606060;cursor:default;font-size:11px;fill:#606060;width:16px;text-overflow:clip;" text-anchor="start" transform="translate(0,0)" y="119.5" opacity="1">NE</text><text x="376.0" style="color:#606060;cursor:default;font-size:11px;fill:#606060;width:16px;text-overflow:clip;" text-anchor="start" transform="translate(0,0)" y="169.0" opacity="1">ENE</text><text x="387.7" style="color:#606060;cursor:default;font-size:11px;fill:#606060;width:16px;text-overflow:clip;" text-anchor="start" transform="translate(0,0)" y="227.5" opacity="1">E</text><text x="376.0" style="color:#606060;cursor:default;font-size:11px;fill:#606060;width:16px;text-overflow:clip;" text-anchor="start" transform="translate(0,0)" y="285.9" opacity="1">ESE</text><text x="342.9" style="color:#606060;cursor:default;font-size:11px;fill:#606060;width:16px;text-overflow:clip;" text-anchor="start" transform="translate(0,0)" y="335.4" opacity="1">SE</text><text x="293.4" style="color:#606060;cursor:default;font-size:11px;fill:#606060;width:16px;text-overflow:clip;" text-anchor="start" transform="translate(0,0)" y="368.5" opacity="1">SSE</text><text x="235" style="color:#606060;cursor:default;font-size:11px;fill:#606060;width:16px;text-overflow:clip;" text-anchor="middle" transform="translate(0,0)" y="380.2" opacity="1">S</text><text x="176.5" style="color:#606060;cursor:default;font-size:11px;fill:#606060;width:16px;text-overflow:clip;" text-anchor="end" transform="translate(0,0)" y="368.5" opacity="1">SSW</text><text x="127.0" style="color:#606060;cursor:default;font-size:11px;fill:#606060;width:16px;text-overflow:clip;" text-anchor="end" transform="translate(0,0)" y="335.4" opacity="1">SW</text><text x="93.9" style="color:#606060;cursor:default;font-size:11px;fill:#606060;width:16px;text-overflow:clip;" text-anchor="end" transform="translate(0,0)" y="285.9" opacity="1">WSW</text><text x="82.3" style="color:#606060;cursor:default;font-size:11px;fill:#606060;width:16px;text-overflow:clip;" text-anchor="end" transform="translate(0,0)" y="227.5" opacity="1">W</text><text x="93.9" style="color:#606060;cursor:default;font-size:11px;fill:#606060;width:16px;text-overflow:clip;" text-anchor="end" transform="translate(0,0)" y="169.0" opacity="1">WNW</text><text x="127.0" style="color:#606060;cursor:default;font-size:11px;fill:#606060;width:16px;text-overflow:clip;" text-anchor="end" transform="translate(0,0)" y="119.5" opacity="1">NW</text><text x="176.5" style="color:#606060;cursor:default;font-size:11px;fill:#606060;width:16px;text-overflow:clip;" text-anchor="end" transform="translate(0,0)" y="86.4" opacity="1">NNW</text><text x="0" style="color:#606060;cursor:default;font-size:11px;fill:#606060;width:16px;text-overflow:clip;" text-anchor="middle" transform="translate(0,0)" y="-9999">16</text></g><g class="highcharts-axis-labels highcharts-yaxis-labels" ><text x="232" style="color:#606060;cursor:default;font-size:11px;fill:#606060;width:183px;text-overflow:clip;" text-anchor="end" transform="translate(0,0)" y="221" opacity="1">0%</text><text x="232" style="color:#606060;cursor:default;font-size:11px;fill:#606060;width:183px;text-overflow:clip;" text-anchor="end" transform="translate(0,0)" y="163.6" opacity="1">5%</text><text x="232" style="color:#606060;cursor:default;font-size:11px;fill:#606060;width:183px;text-overflow:clip;" text-anchor="end" transform="translate(0,0)" y="106.3" opacity="1">10%</text></g><g class="highcharts-tooltip"  style="cursor:default;padding:0;white-space:nowrap;" transform="translate(0,-9999)"><path fill="none" d="M 3.5 0.5 L 13.5 0.5 C 16.5 0.5 16.5 0.5 16.5 3.5 L 16.5 13.5 C 16.5 16.5 16.5 16.5 13.5 16.5 L 3.5 16.5 C 0.5 16.5 0.5 16.5 0.5 13.5 L 0.5 3.5 C 0.5 0.5 0.5 0.5 3.5 0.5"  stroke="black" stroke-opacity="0.0" stroke-width="5" transform="translate(1, 1)"></path><path fill="none" d="M 3.5 0.5 L 13.5 0.5 C 16.5 0.5 16.5 0.5 16.5 3.5 L 16.5 13.5 C 16.5 16.5 16.5 16.5 13.5 16.5 L 3.5 16.5 C 0.5 16.5 0.5 16.5 0.5 13.5 L 0.5 3.5 C 0.5 0.5 0.5 0.5 3.5 0.5"  stroke="black" stroke-opacity="0.0" stroke-width="3" transform="translate(1, 1)"></path><path fill="none" d="M 3.5 0.5 L 13.5 0.5 C 16.5 0.5 16.5 0.5 16.5 3.5 L 16.5 13.5 C 16.5 16.5 16.5 16.5 13.5 16.5 L 3.5 16.5 C 0.5 16.5 0.5 16.5 0.5 13.5 L 0.5 3.5 C 0.5 0.5 0.5 0.5 3.5 0.5"  stroke="black" stroke-opacity="0.1" stroke-width="1" transform="translate(1, 1)"></path><path fill="rgb(249, 249, 249)" fill-opacity=" .85" d="M 3.5 0.5 L 13.5 0.5 C 16.5 0.5 16.5 0.5 16.5 3.5 L 16.5 13.5 C 16.5 16.5 16.5 16.5 13.5 16.5 L 3.5 16.5 C 0.5 16.5 0.5 16.5 0.5 13.5 L 0.5 3.5 C 0.5 0.5 0.5 0.5 3.5 0.5"></path><text x="8"  style="font-size:12px;color:#333333;fill:#333333;" y="20"></text></g></svg>