<svg version="1.1" style="font-family: signika, serif; font-size: 12px; background-image: url(http://www.highcharts.com/samples/graphics/sand.png); background-position: initial initial; background-repeat: initial initial;" xmlns="http://www.w3.org/2000/svg" width="584" height="400" viewBox="0 0 584 400" xmlns:xlink="http://www.w3.org/1999/xlink"><style type="text/css"><![CDATA[@import url(http://fonts.googleapis.com/css?family=Signika:700);]]></style><desc>Created with Highcharts 4.1.7</desc><defs><clipPath id="highcharts-1"><rect x="0" y="0" width="465" height="332"></rect></clipPath></defs><g class="highcharts-grid" ><path fill="none" d="M 242.5 219 L 242.5 77.9" stroke="#D8D8D8" stroke-width="1"  opacity="1"></path><path fill="none" d="M 242.5 219 L 296.4 88.6" stroke="#D8D8D8" stroke-width="1"  opacity="1"></path><path fill="none" d="M 242.5 219 L 342.2 119.2" stroke="#D8D8D8" stroke-width="1"  opacity="1"></path><path fill="none" d="M 242.5 219 L 372.8 165.0" stroke="#D8D8D8" stroke-width="1"  opacity="1"></path><path fill="none" d="M 242.5 219 L 383.6 219" stroke="#D8D8D8" stroke-width="1"  opacity="1"></path><path fill="none" d="M 242.5 219 L 372.8 272.9" stroke="#D8D8D8" stroke-width="1"  opacity="1"></path><path fill="none" d="M 242.5 219 L 342.2 318.7" stroke="#D8D8D8" stroke-width="1"  opacity="1"></path><path fill="none" d="M 242.5 219 L 296.4 349.3" stroke="#D8D8D8" stroke-width="1"  opacity="1"></path><path fill="none" d="M 242.5 219 L 242.5 360.1" stroke="#D8D8D8" stroke-width="1"  opacity="1"></path><path fill="none" d="M 242.5 219 L 188.5 349.3" stroke="#D8D8D8" stroke-width="1"  opacity="1"></path><path fill="none" d="M 242.5 219 L 142.7 318.7" stroke="#D8D8D8" stroke-width="1"  opacity="1"></path><path fill="none" d="M 242.5 219 L 112.1 272.9" stroke="#D8D8D8" stroke-width="1"  opacity="1"></path><path fill="none" d="M 242.5 219 L 101.4 219.0" stroke="#D8D8D8" stroke-width="1"  opacity="1"></path><path fill="none" d="M 242.5 219 L 112.1 165.0" stroke="#D8D8D8" stroke-width="1"  opacity="1"></path><path fill="none" d="M 242.5 219 L 142.7 119.2" stroke="#D8D8D8" stroke-width="1"  opacity="1"></path><path fill="none" d="M 242.5 219 L 188.5 88.6" stroke="#D8D8D8" stroke-width="1"  opacity="1"></path><path fill="none" d="M 242.5 219 L 242.4 77.9" stroke="#D8D8D8" stroke-width="1"  opacity="1"></path></g><g class="highcharts-grid" ><path fill="none" stroke="#D8D8D8" stroke-width="1" ></path><path fill="none" d="M 242.5 160.2 A 58.7 58.7 0 1 1 242.4 160.2 M 242.5 219 A 0 0 0 1 0 242.5 219 " stroke="#D8D8D8" stroke-width="1"  opacity="1"></path><path fill="none" d="M 242.5 101.5 A 117.4 117.4 0 1 1 242.3 101.5 M 242.5 219 A 0 0 0 1 0 242.5 219 " stroke="#D8D8D8" stroke-width="1"  opacity="1"></path></g><g class="highcharts-axis" ><path fill="none" d="M 242.5 77.9 A 141.1 141.1 0 1 1 242.3 77.9 M 242.5 219 A 0 0 0 1 0 242.5 219 " stroke="#C0D0E0" stroke-width="1"  visibility="visible"></path></g><g class="highcharts-axis" ><text x="246.5"  text-anchor="middle" transform="translate(0,0) rotate(90 246.5 148.4)" class=" highcharts-yaxis-title" style="color:#707070;fill:#707070;" visibility="visible" y="148.4"><tspan>Frequency (%)</tspan></text></g><g class="highcharts-series-group" ><g class="highcharts-series highcharts-tracker" visibility="visible"  transform="translate(10,53) scale(1 1)" style="" clip-path="url(#highcharts-1)"><path fill="#f45b5b" d="M 229.1 145.0 A 21.2 21.2 0 0 1 235.8 144.9 L 232.5 166 A 0 0 0 0 0 232.5 166 Z" r="0"></path><path fill="#f45b5b" d="M 234.2 158.9 A 7.2 7.2 0 0 1 236.2 159.7 L 232.5 166 A 0 0 0 0 0 232.5 166 Z" r="0"></path><path fill="#f45b5b" d="M 238.1 158.2 A 9.6 9.6 0 0 1 240.2 160.3 L 232.5 166 A 0 0 0 0 0 232.5 166 Z" r="0"></path><path fill="#f45b5b" d="M 238.4 162.3 A 6.9 6.9 0 0 1 239.2 164.3 L 232.5 166 A 0 0 0 0 0 232.5 166 Z" r="0"></path><path fill="#f45b5b" d="M 239.6 164.8 A 7.2 7.2 0 0 1 239.6 167.1 L 232.5 166 A 0 0 0 0 0 232.5 166 Z" r="0"></path><path fill="#f45b5b" d="M 246.4 169.3 A 14.3 14.3 0 0 1 244.7 173.4 L 232.5 166 A 0 0 0 0 0 232.5 166 Z" r="0"></path><path fill="#f45b5b" d="M 247.8 177.1 A 18.9 18.9 0 0 1 243.6 181.2 L 232.5 166 A 0 0 0 0 0 232.5 166 Z" r="0"></path><path fill="#f45b5b" d="M 245.0 186.4 A 23.9 23.9 0 0 1 238.1 189.2 L 232.5 166 A 0 0 0 0 0 232.5 166 Z" r="0"></path><path fill="#f45b5b" d="M 237.3 196.8 A 31.2 31.2 0 0 1 227.6 196.8 L 232.5 166 A 0 0 0 0 0 232.5 166 Z" r="0"></path><path fill="#f45b5b" d="M 224.3 199.8 A 34.7 34.7 0 0 1 214.3 195.6 L 232.5 166 A 0 0 0 0 0 232.5 166 Z" r="0"></path><path fill="#f45b5b" d="M 215.0 190.0 A 29.7 29.7 0 0 1 208.4 183.4 L 232.5 166 A 0 0 0 0 0 232.5 166 Z" r="0"></path><path fill="#f45b5b" d="M 212.7 178.0 A 23.1 23.1 0 0 1 210.0 171.4 L 232.5 166 A 0 0 0 0 0 232.5 166 Z" r="0"></path><path fill="#f45b5b" d="M 213.4 169.0 A 19.2 19.2 0 0 1 213.4 163.0 L 232.5 166 A 0 0 0 0 0 232.5 166 Z" r="0"></path><path fill="#f45b5b" d="M 217.4 162.3 A 15.5 15.5 0 0 1 219.2 157.9 L 232.5 166 A 0 0 0 0 0 232.5 166 Z" r="0"></path><path fill="#f45b5b" d="M 217.4 155.0 A 18.5 18.5 0 0 1 221.5 150.9 L 232.5 166 A 0 0 0 0 0 232.5 166 Z" r="0"></path><path fill="#f45b5b" d="M 223.2 150.8 A 17.7 17.7 0 0 1 228.3 148.7 L 232.5 166 A 0 0 0 0 0 232.5 166 Z" r="0"></path></g><g class="highcharts-markers" visibility="visible"  transform="translate(10,53) scale(1 1)"></g><g class="highcharts-series highcharts-tracker" visibility="visible"  transform="translate(10,53) scale(1 1)" style="" clip-path="url(#highcharts-1)"><path fill="#8085e9" d="M 225.9 124.3 A 42.1 42.1 0 0 1 239.0 124.3 L 235.8 144.9 A 21.2 21.2 0 0 0 229.1 145.0 Z" r="0"></path><path fill="#8085e9" d="M 237.1 146.4 A 20.0 20.0 0 0 1 242.9 148.8 L 236.2 159.7 A 7.2 7.2 0 0 0 234.2 158.9 Z" r="0"></path><path fill="#8085e9" d="M 243.8 150.4 A 19.2 19.2 0 0 1 248.0 154.6 L 240.2 160.3 A 9.6 9.6 0 0 0 238.1 158.2 Z" r="0"></path><path fill="#8085e9" d="M 250.6 154.8 A 21.2 21.2 0 0 1 253.1 161.0 L 239.2 164.3 A 6.9 6.9 0 0 0 238.4 162.3 Z" r="0"></path><path fill="#8085e9" d="M 265.2 160.8 A 33.1 33.1 0 0 1 265.2 171.1 L 239.6 167.1 A 7.2 7.2 0 0 0 239.6 164.8 Z" r="0"></path><path fill="#8085e9" d="M 269.3 174.8 A 37.9 37.9 0 0 1 264.8 185.7 L 244.7 173.4 A 14.3 14.3 0 0 0 246.4 169.3 Z" r="0"></path><path fill="#8085e9" d="M 276.8 198.2 A 54.8 54.8 0 0 1 264.7 210.3 L 243.6 181.2 A 18.9 18.9 0 0 0 247.8 177.1 Z" r="0"></path><path fill="#8085e9" d="M 266.0 220.6 A 64.1 64.1 0 0 1 247.5 228.3 L 238.1 189.2 A 23.9 23.9 0 0 0 245.0 186.4 Z" r="0"></path><path fill="#8085e9" d="M 246.0 251.8 A 86.9 86.9 0 0 1 218.9 251.8 L 227.6 196.8 A 31.2 31.2 0 0 0 237.3 196.8 Z" r="0"></path><path fill="#8085e9" d="M 213.0 247.0 A 83.4 83.4 0 0 1 188.9 237.1 L 214.3 195.6 A 34.7 34.7 0 0 0 224.3 199.8 Z" r="0"></path><path fill="#8085e9" d="M 187.3 228.1 A 76.8 76.8 0 0 1 170.3 211.2 L 208.4 183.4 A 29.7 29.7 0 0 0 215.0 190.0 Z" r="0"></path><path fill="#8085e9" d="M 186.1 194.4 A 54.3 54.3 0 0 1 179.6 178.7 L 210.0 171.4 A 23.1 23.1 0 0 0 212.7 178.0 Z" r="0"></path><path fill="#8085e9" d="M 193.6 172.1 A 39.3 39.3 0 0 1 193.6 159.8 L 213.4 163.0 A 19.2 19.2 0 0 0 213.4 169.0 Z" r="0"></path><path fill="#8085e9" d="M 190.0 155.7 A 43.6 43.6 0 0 1 195.2 143.2 L 219.2 157.9 A 15.5 15.5 0 0 0 217.4 162.3 Z" r="0"></path><path fill="#8085e9" d="M 176.8 125.5 A 68.8 68.8 0 0 1 191.9 110.3 L 221.5 150.9 A 18.5 18.5 0 0 0 217.4 155.0 Z" r="0"></path><path fill="#8085e9" d="M 192.5 100.7 A 76.4 76.4 0 0 1 214.5 91.6 L 228.3 148.7 A 17.7 17.7 0 0 0 223.2 150.8 Z" r="0"></path></g><g class="highcharts-markers" visibility="visible"  transform="translate(10,53) scale(1 1)"></g><g class="highcharts-series highcharts-tracker" visibility="visible"  transform="translate(10,53) scale(1 1)" style="" clip-path="url(#highcharts-1)"><path fill="#8d4654" d="M 225.6 122.4 A 44.0 44.0 0 0 1 239.3 122.4 L 239.0 124.3 A 42.1 42.1 0 0 0 225.9 124.3 Z" r="0"></path><path fill="#8d4654" d="M 237.1 146.4 A 20.0 20.0 0 0 1 242.9 148.8 L 242.9 148.8 A 20.0 20.0 0 0 0 237.1 146.4 Z" r="0"></path><path fill="#8d4654" d="M 244.3 149.7 A 20.0 20.0 0 0 1 248.7 154.1 L 248.0 154.6 A 19.2 19.2 0 0 0 243.8 150.4 Z" r="0"></path><path fill="#8d4654" d="M 251.3 154.4 A 22.0 22.0 0 0 1 253.9 160.8 L 253.1 161.0 A 21.2 21.2 0 0 0 250.6 154.8 Z" r="0"></path><path fill="#8d4654" d="M 270.9 159.9 A 38.8 38.8 0 0 1 270.9 172.0 L 265.2 171.1 A 33.1 33.1 0 0 0 265.2 160.8 Z" r="0"></path><path fill="#8d4654" d="M 287.0 179.1 A 56.1 56.1 0 0 1 280.4 195.2 L 264.8 185.7 A 37.9 37.9 0 0 0 269.3 174.8 Z" r="0"></path><path fill="#8d4654" d="M 299.4 214.6 A 82.6 82.6 0 0 1 281.1 232.8 L 264.7 210.3 A 54.8 54.8 0 0 0 276.8 198.2 Z" r="0"></path><path fill="#8d4654" d="M 278.1 240.4 A 87.2 87.2 0 0 1 252.9 250.8 L 247.5 228.3 A 64.1 64.1 0 0 0 266.0 220.6 Z" r="0"></path><path fill="#8d4654" d="M 246.8 256.8 A 91.9 91.9 0 0 1 218.2 256.8 L 218.9 251.8 A 86.9 86.9 0 0 0 246.0 251.8 Z" r="0"></path><path fill="#8d4654" d="M 212.3 250.0 A 86.4 86.4 0 0 1 187.4 239.7 L 188.9 237.1 A 83.4 83.4 0 0 0 213.0 247.0 Z" r="0"></path><path fill="#8d4654" d="M 178.9 239.7 A 91.1 91.1 0 0 1 158.8 219.6 L 170.3 211.2 A 76.8 76.8 0 0 0 187.3 228.1 Z" r="0"></path><path fill="#8d4654" d="M 166.3 206.5 A 77.5 77.5 0 0 1 157.1 184.1 L 179.6 178.7 A 54.3 54.3 0 0 0 186.1 194.4 Z" r="0"></path><path fill="#8d4654" d="M 182.9 173.8 A 50.1 50.1 0 0 1 182.9 158.2 L 193.6 159.8 A 39.3 39.3 0 0 0 193.6 172.1 Z" r="0"></path><path fill="#8d4654" d="M 178.7 153.0 A 55.3 55.3 0 0 1 185.2 137.1 L 195.2 143.2 A 43.6 43.6 0 0 0 190.0 155.7 Z" r="0"></path><path fill="#8d4654" d="M 164.6 116.7 A 83.8 83.8 0 0 1 183.1 98.1 L 191.9 110.3 A 68.8 68.8 0 0 0 176.8 125.5 Z" r="0"></path><path fill="#8d4654" d="M 184.4 87.5 A 91.9 91.9 0 0 1 210.9 76.5 L 214.5 91.6 A 76.4 76.4 0 0 0 192.5 100.7 Z" r="0"></path></g><g class="highcharts-markers" visibility="visible"  transform="translate(10,53) scale(1 1)"></g><g class="highcharts-series highcharts-tracker" visibility="visible"  transform="translate(10,53) scale(1 1)" style="" clip-path="url(#highcharts-1)"><path fill="#7798BF" d="M 225.6 122.4 A 44.0 44.0 0 0 1 239.3 122.4 L 239.3 122.4 A 44.0 44.0 0 0 0 225.6 122.4 Z" r="0"></path><path fill="#7798BF" d="M 237.1 146.4 A 20.0 20.0 0 0 1 242.9 148.8 L 242.9 148.8 A 20.0 20.0 0 0 0 237.1 146.4 Z" r="0"></path><path fill="#7798BF" d="M 244.3 149.7 A 20.0 20.0 0 0 1 248.7 154.1 L 248.7 154.1 A 20.0 20.0 0 0 0 244.3 149.7 Z" r="0"></path><path fill="#7798BF" d="M 251.3 154.4 A 22.0 22.0 0 0 1 253.9 160.8 L 253.9 160.8 A 22.0 22.0 0 0 0 251.3 154.4 Z" r="0"></path><path fill="#7798BF" d="M 270.9 159.9 A 38.8 38.8 0 0 1 270.9 172.0 L 270.9 172.0 A 38.8 38.8 0 0 0 270.9 159.9 Z" r="0"></path><path fill="#7798BF" d="M 290.5 179.9 A 59.6 59.6 0 0 1 283.4 197.1 L 280.4 195.2 A 56.1 56.1 0 0 0 287.0 179.1 Z" r="0"></path><path fill="#7798BF" d="M 319.7 229.3 A 107.8 107.8 0 0 1 295.9 253.1 L 281.1 232.8 A 82.6 82.6 0 0 0 299.4 214.6 Z" r="0"></path><path fill="#7798BF" d="M 283.3 249.0 A 97.3 97.3 0 0 1 255.3 260.6 L 252.9 250.8 A 87.2 87.2 0 0 0 278.1 240.4 Z" r="0"></path><path fill="#7798BF" d="M 246.8 256.8 A 91.9 91.9 0 0 1 218.2 256.8 L 218.2 256.8 A 91.9 91.9 0 0 0 246.8 256.8 Z" r="0"></path><path fill="#7798BF" d="M 212.3 250.0 A 86.4 86.4 0 0 1 187.4 239.7 L 187.4 239.7 A 86.4 86.4 0 0 0 212.3 250.0 Z" r="0"></path><path fill="#7798BF" d="M 175.5 244.4 A 96.9 96.9 0 0 1 154.1 223.0 L 158.8 219.6 A 91.1 91.1 0 0 0 178.9 239.7 Z" r="0"></path><path fill="#7798BF" d="M 158.4 211.3 A 86.8 86.8 0 0 1 148.1 186.3 L 157.1 184.1 A 77.5 77.5 0 0 0 166.3 206.5 Z" r="0"></path><path fill="#7798BF" d="M 166.1 176.5 A 67.1 67.1 0 0 1 166.1 155.5 L 182.9 158.2 A 50.1 50.1 0 0 0 182.9 173.8 Z" r="0"></path><path fill="#7798BF" d="M 160.3 148.6 A 74.2 74.2 0 0 1 169.1 127.2 L 185.2 137.1 A 55.3 55.3 0 0 0 178.7 153.0 Z" r="0"></path><path fill="#7798BF" d="M 157.4 111.4 A 92.7 92.7 0 0 1 177.8 90.9 L 183.1 98.1 A 83.8 83.8 0 0 0 164.6 116.7 Z" r="0"></path><path fill="#7798BF" d="M 183.6 86.2 A 93.5 93.5 0 0 1 210.5 75.1 L 210.9 76.5 A 91.9 91.9 0 0 0 184.4 87.5 Z" r="0"></path></g><g class="highcharts-markers" visibility="visible"  transform="translate(10,53) scale(1 1)"></g><g class="highcharts-series highcharts-tracker" visibility="visible"  transform="translate(10,53) scale(1 1)" style="" clip-path="url(#highcharts-1)"><path fill="#aaeeee" d="M 225.6 122.4 A 44.0 44.0 0 0 1 239.3 122.4 L 239.3 122.4 A 44.0 44.0 0 0 0 225.6 122.4 Z" r="0"></path><path fill="#aaeeee" d="M 237.1 146.4 A 20.0 20.0 0 0 1 242.9 148.8 L 242.9 148.8 A 20.0 20.0 0 0 0 237.1 146.4 Z" r="0"></path><path fill="#aaeeee" d="M 244.3 149.7 A 20.0 20.0 0 0 1 248.7 154.1 L 248.7 154.1 A 20.0 20.0 0 0 0 244.3 149.7 Z" r="0"></path><path fill="#aaeeee" d="M 251.3 154.4 A 22.0 22.0 0 0 1 253.9 160.8 L 253.9 160.8 A 22.0 22.0 0 0 0 251.3 154.4 Z" r="0"></path><path fill="#aaeeee" d="M 270.9 159.9 A 38.8 38.8 0 0 1 270.9 172.0 L 270.9 172.0 A 38.8 38.8 0 0 0 270.9 159.9 Z" r="0"></path><path fill="#aaeeee" d="M 292.0 180.2 A 61.1 61.1 0 0 1 284.7 197.9 L 283.4 197.1 A 59.6 59.6 0 0 0 290.5 179.9 Z" r="0"></path><path fill="#aaeeee" d="M 336.2 241.3 A 128.2 128.2 0 0 1 308.0 269.6 L 295.9 253.1 A 107.8 107.8 0 0 0 319.7 229.3 Z" r="0"></path><path fill="#aaeeee" d="M 286.6 254.3 A 103.6 103.6 0 0 1 256.7 266.7 L 255.3 260.6 A 97.3 97.3 0 0 0 283.3 249.0 Z" r="0"></path><path fill="#aaeeee" d="M 246.8 256.8 A 91.9 91.9 0 0 1 218.2 256.8 L 218.2 256.8 A 91.9 91.9 0 0 0 246.8 256.8 Z" r="0"></path><path fill="#aaeeee" d="M 212.3 250.0 A 86.4 86.4 0 0 1 187.4 239.7 L 187.4 239.7 A 86.4 86.4 0 0 0 212.3 250.0 Z" r="0"></path><path fill="#aaeeee" d="M 174.6 245.6 A 98.4 98.4 0 0 1 152.9 223.9 L 154.1 223.0 A 96.9 96.9 0 0 0 175.5 244.4 Z" r="0"></path><path fill="#aaeeee" d="M 155.4 213.1 A 90.3 90.3 0 0 1 144.6 187.1 L 148.1 186.3 A 86.8 86.8 0 0 0 158.4 211.3 Z" r="0"></path><path fill="#aaeeee" d="M 163.1 176.9 A 70.2 70.2 0 0 1 163.1 155.0 L 166.1 155.5 A 67.1 67.1 0 0 0 166.1 176.5 Z" r="0"></path><path fill="#aaeeee" d="M 156.5 147.7 A 78.1 78.1 0 0 1 165.8 125.2 L 169.1 127.2 A 74.2 74.2 0 0 0 160.3 148.6 Z" r="0"></path><path fill="#aaeeee" d="M 151.1 106.8 A 100.5 100.5 0 0 1 173.3 84.7 L 177.8 90.9 A 92.7 92.7 0 0 0 157.4 111.4 Z" r="0"></path><path fill="#aaeeee" d="M 182.2 83.9 A 96.2 96.2 0 0 1 209.9 72.4 L 210.5 75.1 A 93.5 93.5 0 0 0 183.6 86.2 Z" r="0"></path></g><g class="highcharts-markers" visibility="visible"  transform="translate(10,53) scale(1 1)"></g><g class="highcharts-series highcharts-tracker" visibility="visible"  transform="translate(10,53) scale(1 1)" style="" clip-path="url(#highcharts-1)"><path fill="#ff0066" d="M 225.6 122.4 A 44.0 44.0 0 0 1 239.3 122.4 L 239.3 122.4 A 44.0 44.0 0 0 0 225.6 122.4 Z" r="0"></path><path fill="#ff0066" d="M 237.1 146.4 A 20.0 20.0 0 0 1 242.9 148.8 L 242.9 148.8 A 20.0 20.0 0 0 0 237.1 146.4 Z" r="0"></path><path fill="#ff0066" d="M 244.3 149.7 A 20.0 20.0 0 0 1 248.7 154.1 L 248.7 154.1 A 20.0 20.0 0 0 0 244.3 149.7 Z" r="0"></path><path fill="#ff0066" d="M 251.3 154.4 A 22.0 22.0 0 0 1 253.9 160.8 L 253.9 160.8 A 22.0 22.0 0 0 0 251.3 154.4 Z" r="0"></path><path fill="#ff0066" d="M 270.9 159.9 A 38.8 38.8 0 0 1 270.9 172.0 L 270.9 172.0 A 38.8 38.8 0 0 0 270.9 159.9 Z" r="0"></path><path fill="#ff0066" d="M 292.0 180.2 A 61.1 61.1 0 0 1 284.7 197.9 L 284.7 197.9 A 61.1 61.1 0 0 0 292.0 180.2 Z" r="0"></path><path fill="#ff0066" d="M 339.9 244.0 A 132.8 132.8 0 0 1 310.6 273.4 L 308.0 269.6 A 128.2 128.2 0 0 0 336.2 241.3 Z" r="0"></path><path fill="#ff0066" d="M 289.6 259.2 A 109.3 109.3 0 0 1 258.1 272.3 L 256.7 266.7 A 103.6 103.6 0 0 0 286.6 254.3 Z" r="0"></path><path fill="#ff0066" d="M 246.8 256.8 A 91.9 91.9 0 0 1 218.2 256.8 L 218.2 256.8 A 91.9 91.9 0 0 0 246.8 256.8 Z" r="0"></path><path fill="#ff0066" d="M 212.3 250.0 A 86.4 86.4 0 0 1 187.4 239.7 L 187.4 239.7 A 86.4 86.4 0 0 0 212.3 250.0 Z" r="0"></path><path fill="#ff0066" d="M 174.6 245.6 A 98.4 98.4 0 0 1 152.9 223.9 L 152.9 223.9 A 98.4 98.4 0 0 0 174.6 245.6 Z" r="0"></path><path fill="#ff0066" d="M 155.4 213.1 A 90.3 90.3 0 0 1 144.6 187.1 L 144.6 187.1 A 90.3 90.3 0 0 0 155.4 213.1 Z" r="0"></path><path fill="#ff0066" d="M 161.9 177.1 A 71.4 71.4 0 0 1 161.9 154.8 L 163.1 155.0 A 70.2 70.2 0 0 0 163.1 176.9 Z" r="0"></path><path fill="#ff0066" d="M 156.5 147.7 A 78.1 78.1 0 0 1 165.8 125.2 L 165.8 125.2 A 78.1 78.1 0 0 0 156.5 147.7 Z" r="0"></path><path fill="#ff0066" d="M 144.5 102.1 A 108.6 108.6 0 0 1 168.5 78.1 L 173.3 84.7 A 100.5 100.5 0 0 0 151.1 106.8 Z" r="0"></path><path fill="#ff0066" d="M 181.4 82.6 A 97.7 97.7 0 0 1 209.5 70.9 L 209.9 72.4 A 96.2 96.2 0 0 0 182.2 83.9 Z" r="0"></path></g><g class="highcharts-markers" visibility="visible"  transform="translate(10,53) scale(1 1)"></g><g class="highcharts-series highcharts-tracker" visibility="visible"  transform="translate(10,53) scale(1 1)" style="" clip-path="url(#highcharts-1)"><path fill="#eeaaee" d="M 225.6 122.4 A 44.0 44.0 0 0 1 239.3 122.4 L 239.3 122.4 A 44.0 44.0 0 0 0 225.6 122.4 Z" r="0"></path><path fill="#eeaaee" d="M 237.1 146.4 A 20.0 20.0 0 0 1 242.9 148.8 L 242.9 148.8 A 20.0 20.0 0 0 0 237.1 146.4 Z" r="0"></path><path fill="#eeaaee" d="M 244.3 149.7 A 20.0 20.0 0 0 1 248.7 154.1 L 248.7 154.1 A 20.0 20.0 0 0 0 244.3 149.7 Z" r="0"></path><path fill="#eeaaee" d="M 251.3 154.4 A 22.0 22.0 0 0 1 253.9 160.8 L 253.9 160.8 A 22.0 22.0 0 0 0 251.3 154.4 Z" r="0"></path><path fill="#eeaaee" d="M 270.9 159.9 A 38.8 38.8 0 0 1 270.9 172.0 L 270.9 172.0 A 38.8 38.8 0 0 0 270.9 159.9 Z" r="0"></path><path fill="#eeaaee" d="M 292.0 180.2 A 61.1 61.1 0 0 1 284.7 197.9 L 284.7 197.9 A 61.1 61.1 0 0 0 292.0 180.2 Z" r="0"></path><path fill="#eeaaee" d="M 341.2 244.9 A 134.3 134.3 0 0 1 311.5 274.6 L 310.6 273.4 A 132.8 132.8 0 0 0 339.9 244.0 Z" r="0"></path><path fill="#eeaaee" d="M 289.6 259.2 A 109.3 109.3 0 0 1 258.1 272.3 L 258.1 272.3 A 109.3 109.3 0 0 0 289.6 259.2 Z" r="0"></path><path fill="#eeaaee" d="M 246.8 256.8 A 91.9 91.9 0 0 1 218.2 256.8 L 218.2 256.8 A 91.9 91.9 0 0 0 246.8 256.8 Z" r="0"></path><path fill="#eeaaee" d="M 212.3 250.0 A 86.4 86.4 0 0 1 187.4 239.7 L 187.4 239.7 A 86.4 86.4 0 0 0 212.3 250.0 Z" r="0"></path><path fill="#eeaaee" d="M 174.6 245.6 A 98.4 98.4 0 0 1 152.9 223.9 L 152.9 223.9 A 98.4 98.4 0 0 0 174.6 245.6 Z" r="0"></path><path fill="#eeaaee" d="M 155.4 213.1 A 90.3 90.3 0 0 1 144.6 187.1 L 144.6 187.1 A 90.3 90.3 0 0 0 155.4 213.1 Z" r="0"></path><path fill="#eeaaee" d="M 161.9 177.1 A 71.4 71.4 0 0 1 161.9 154.8 L 161.9 154.8 A 71.4 71.4 0 0 0 161.9 177.1 Z" r="0"></path><path fill="#eeaaee" d="M 156.5 147.7 A 78.1 78.1 0 0 1 165.8 125.2 L 165.8 125.2 A 78.1 78.1 0 0 0 156.5 147.7 Z" r="0"></path><path fill="#eeaaee" d="M 144.3 101.9 A 109.0 109.0 0 0 1 168.3 77.8 L 168.5 78.1 A 108.6 108.6 0 0 0 144.5 102.1 Z" r="0"></path><path fill="#eeaaee" d="M 181.0 81.9 A 98.5 98.5 0 0 1 209.3 70.1 L 209.5 70.9 A 97.7 97.7 0 0 0 181.4 82.6 Z" r="0"></path></g><g class="highcharts-markers" visibility="visible"  transform="translate(10,53) scale(1 1)"></g></g><text x="292" text-anchor="middle" class="highcharts-title"  style="color:black;font-size:16px;font-weight:bold;fill:black;width:520px;" y="22"><tspan>Wind rose for South Shore Met Station, Oregon</tspan></text><text x="292" text-anchor="middle" class="highcharts-subtitle"  style="color:black;fill:black;width:520px;" y="40"><tspan>Source: or.water.usgs.gov</tspan></text><g class="highcharts-legend"  transform="translate(487,110)"><g ><g><g class="highcharts-legend-item"  transform="translate(8,3)"><text x="21" style="color:#333333;font-size:13px;font-weight:bold;cursor:pointer;fill:#333333;" text-anchor="start"  y="16"><tspan>&lt; 0.5 m/s</tspan></text><rect x="0" y="4" width="16" height="13"  fill="#f45b5b"></rect></g><g class="highcharts-legend-item"  transform="translate(8,16)"><text x="21" y="16" style="color:#333333;font-size:13px;font-weight:bold;cursor:pointer;fill:#333333;" text-anchor="start" ><tspan>0.5-2 m/s</tspan></text><rect x="0" y="4" width="16" height="13"  fill="#8085e9"></rect></g><g class="highcharts-legend-item"  transform="translate(8,29)"><text x="21" y="16" style="color:#333333;font-size:13px;font-weight:bold;cursor:pointer;fill:#333333;" text-anchor="start" ><tspan>2-4 m/s</tspan></text><rect x="0" y="4" width="16" height="13"  fill="#8d4654"></rect></g><g class="highcharts-legend-item"  transform="translate(8,42)"><text x="21" y="16" style="color:#333333;font-size:13px;font-weight:bold;cursor:pointer;fill:#333333;" text-anchor="start" ><tspan>4-6 m/s</tspan></text><rect x="0" y="4" width="16" height="13"  fill="#7798BF"></rect></g><g class="highcharts-legend-item"  transform="translate(8,55)"><text x="21" y="16" style="color:#333333;font-size:13px;font-weight:bold;cursor:pointer;fill:#333333;" text-anchor="start" ><tspan>6-8 m/s</tspan></text><rect x="0" y="4" width="16" height="13"  fill="#aaeeee"></rect></g><g class="highcharts-legend-item"  transform="translate(8,68)"><text x="21" y="16" style="color:#333333;font-size:13px;font-weight:bold;cursor:pointer;fill:#333333;" text-anchor="start" ><tspan>8-10 m/s</tspan></text><rect x="0" y="4" width="16" height="13"  fill="#ff0066"></rect></g><g class="highcharts-legend-item"  transform="translate(8,81)"><text x="21" y="16" style="color:#333333;font-size:13px;font-weight:bold;cursor:pointer;fill:#333333;" text-anchor="start" ><tspan>&gt; 10 m/s</tspan></text><rect x="0" y="4" width="16" height="13"  fill="#eeaaee"></rect></g></g></g></g><g class="highcharts-axis-labels highcharts-xaxis-labels" ><text x="242.5" style="color:#6e6e70;cursor:default;font-size:11px;fill:#6e6e70;width:17px;text-overflow:clip;" text-anchor="middle" transform="translate(0,0)" y="68.4" opacity="1">N</text><text x="302.2" style="color:#6e6e70;cursor:default;font-size:11px;fill:#6e6e70;width:17px;text-overflow:clip;" text-anchor="start" transform="translate(0,0)" y="80.2" opacity="1">NNE</text><text x="352.8" style="color:#6e6e70;cursor:default;font-size:11px;fill:#6e6e70;width:17px;text-overflow:clip;" text-anchor="start" transform="translate(0,0)" y="114.1" opacity="1">NE</text><text x="386.7" style="color:#6e6e70;cursor:default;font-size:11px;fill:#6e6e70;width:17px;text-overflow:clip;" text-anchor="start" transform="translate(0,0)" y="164.7" opacity="1">ENE</text><text x="398.6" style="color:#6e6e70;cursor:default;font-size:11px;fill:#6e6e70;width:17px;text-overflow:clip;" text-anchor="start" transform="translate(0,0)" y="224.5" opacity="1">E</text><text x="386.7" style="color:#6e6e70;cursor:default;font-size:11px;fill:#6e6e70;width:17px;text-overflow:clip;" text-anchor="start" transform="translate(0,0)" y="284.2" opacity="1">ESE</text><text x="352.8" style="color:#6e6e70;cursor:default;font-size:11px;fill:#6e6e70;width:17px;text-overflow:clip;" text-anchor="start" transform="translate(0,0)" y="334.8" opacity="1">SE</text><text x="302.2" style="color:#6e6e70;cursor:default;font-size:11px;fill:#6e6e70;width:17px;text-overflow:clip;" text-anchor="start" transform="translate(0,0)" y="368.7" opacity="1">SSE</text><text x="242.5" style="color:#6e6e70;cursor:default;font-size:11px;fill:#6e6e70;width:17px;text-overflow:clip;" text-anchor="middle" transform="translate(0,0)" y="380.6" opacity="1">S</text><text x="182.7" style="color:#6e6e70;cursor:default;font-size:11px;fill:#6e6e70;width:17px;text-overflow:clip;" text-anchor="end" transform="translate(0,0)" y="368.7" opacity="1">SSW</text><text x="132.1" style="color:#6e6e70;cursor:default;font-size:11px;fill:#6e6e70;width:17px;text-overflow:clip;" text-anchor="end" transform="translate(0,0)" y="334.8" opacity="1">SW</text><text x="98.2" style="color:#6e6e70;cursor:default;font-size:11px;fill:#6e6e70;width:17px;text-overflow:clip;" text-anchor="end" transform="translate(0,0)" y="284.2" opacity="1">WSW</text><text x="86.4" style="color:#6e6e70;cursor:default;font-size:11px;fill:#6e6e70;width:17px;text-overflow:clip;" text-anchor="end" transform="translate(0,0)" y="224.5" opacity="1">W</text><text x="98.2" style="color:#6e6e70;cursor:default;font-size:11px;fill:#6e6e70;width:17px;text-overflow:clip;" text-anchor="end" transform="translate(0,0)" y="164.7" opacity="1">WNW</text><text x="132.1" style="color:#6e6e70;cursor:default;font-size:11px;fill:#6e6e70;width:17px;text-overflow:clip;" text-anchor="end" transform="translate(0,0)" y="114.1" opacity="1">NW</text><text x="182.7" style="color:#6e6e70;cursor:default;font-size:11px;fill:#6e6e70;width:17px;text-overflow:clip;" text-anchor="end" transform="translate(0,0)" y="80.2" opacity="1">NNW</text><text x="0" style="color:#6e6e70;cursor:default;font-size:11px;fill:#6e6e70;width:17px;text-overflow:clip;" text-anchor="middle" transform="translate(0,0)" y="-9999">16</text></g><g class="highcharts-axis-labels highcharts-yaxis-labels" ><text x="239.5" style="color:#6e6e70;cursor:default;font-size:11px;fill:#6e6e70;width:183px;text-overflow:clip;" text-anchor="end" transform="translate(0,0)" y="217" opacity="1">0%</text><text x="239.5" style="color:#6e6e70;cursor:default;font-size:11px;fill:#6e6e70;width:183px;text-overflow:clip;" text-anchor="end" transform="translate(0,0)" y="158.2" opacity="1">5%</text><text x="239.5" style="color:#6e6e70;cursor:default;font-size:11px;fill:#6e6e70;width:183px;text-overflow:clip;" text-anchor="end" transform="translate(0,0)" y="99.5" opacity="1">10%</text></g><g class="highcharts-tooltip"  style="cursor:default;padding:0;white-space:nowrap;" transform="translate(0,-9999)"><path fill="none" d="M 3 0 L 13 0 C 16 0 16 0 16 3 L 16 13 C 16 16 16 16 13 16 L 3 16 C 0 16 0 16 0 13 L 0 3 C 0 0 0 0 3 0"  stroke="black" stroke-opacity="0.0" stroke-width="5" transform="translate(1, 1)"></path><path fill="none" d="M 3 0 L 13 0 C 16 0 16 0 16 3 L 16 13 C 16 16 16 16 13 16 L 3 16 C 0 16 0 16 0 13 L 0 3 C 0 0 0 0 3 0"  stroke="black" stroke-opacity="0.0" stroke-width="3" transform="translate(1, 1)"></path><path fill="none" d="M 3 0 L 13 0 C 16 0 16 0 16 3 L 16 13 C 16 16 16 16 13 16 L 3 16 C 0 16 0 16 0 13 L 0 3 C 0 0 0 0 3 0"  stroke="black" stroke-opacity="0.1" stroke-width="1" transform="translate(1, 1)"></path><path fill="rgb(249, 249, 249)" fill-opacity=" .85" d="M 3 0 L 13 0 C 16 0 16 0 16 3 L 16 13 C 16 16 16 16 13 16 L 3 16 C 0 16 0 16 0 13 L 0 3 C 0 0 0 0 3 0"></path><text x="8"  style="font-size:12px;color:#333333;fill:#333333;" y="20"></text></g></svg>