<svg version="1.1" style="font-family:&quot;lucida grande&quot;, &quot;lucida sans unicode&quot;, arial, helvetica, sans-serif;font-size:12px;" xmlns="http://www.w3.org/2000/svg" width="584" height="400" viewBox="0 0 584 400"><desc>Created with Highcharts 4.1.6</desc><defs><clipPath id="highcharts-1"><rect x="0" y="0" width="409" height="339"></rect></clipPath></defs><rect x="0" y="0" width="584" height="400" strokeWidth="0" fill="#FFFFFF" class=" highcharts-background" stroke="transparent"></rect><g class="highcharts-grid" ><path fill="none" d="M 214.5 215.5 L 214.5 79.9" stroke="#D8D8D8" stroke-width="1"  opacity="1"></path><path fill="none" d="M 214.5 215.5 L 331.9 147.7" stroke="#D8D8D8" stroke-width="1"  opacity="1"></path><path fill="none" d="M 214.5 215.5 L 331.9 283.2" stroke="#D8D8D8" stroke-width="1"  opacity="1"></path><path fill="none" d="M 214.5 215.5 L 214.5 351.1" stroke="#D8D8D8" stroke-width="1"  opacity="1"></path><path fill="none" d="M 214.5 215.5 L 97.0 283.3" stroke="#D8D8D8" stroke-width="1"  opacity="1"></path><path fill="none" d="M 214.5 215.5 L 97.0 147.7" stroke="#D8D8D8" stroke-width="1"  opacity="1"></path><path fill="none" d="M 214.5 215.5 L 214.4 79.9" stroke="#D8D8D8" stroke-width="1"  opacity="1"></path></g><g class="highcharts-grid" ><path fill="none" d="M 214.5 215.5 L 214.5 215.5 L 214.5 215.5 L 214.5 215.5 L 214.5 215.5 L 214.5 215.5 L 214.5 215.5 L 214.5 215.5" stroke="#D8D8D8" stroke-width="1"  opacity="1"></path><path fill="none" d="M 214.5 170.3 L 214.5 170.3 L 175.3 192.9 L 175.3 238.1 L 214.5 260.7 L 253.6 238.1 L 253.6 192.9 L 214.5 170.3" stroke="#D8D8D8" stroke-width="1"  opacity="1"></path><path fill="none" d="M 214.5 125.1 L 214.4 125.1 L 136.2 170.3 L 136.2 260.7 L 214.5 305.9 L 292.7 260.7 L 292.7 170.3 L 214.5 125.1" stroke="#D8D8D8" stroke-width="1"  opacity="1"></path><path fill="none" d="M 214.5 79.9 L 214.4 79.9 L 97.0 147.7 L 97.0 283.3 L 214.5 351.1 L 331.9 283.2 L 331.9 147.7 L 214.5 79.9" stroke="#D8D8D8" stroke-width="1"  opacity="1"></path></g><g class="highcharts-axis" ></g><g class="highcharts-axis" ></g><g class="highcharts-series-group" ><g class="highcharts-series" visibility="visible"  transform="translate(10,46) scale(1 1)" clip-path="url(#highcharts-1)"><path fill="none" d="M 204.5 91.7 L 234.2 152.3 L 298.4 223.7 L 204.5 232.7 L 177.8 184.8 L 188.8 160.4 L 204.5 91.7" stroke="#7cb5ec" stroke-width="2"  stroke-linejoin="round" stroke-linecap="round"></path><path fill="none" d="M 194.5 91.7 L 204.5 91.7 L 234.2 152.3 L 298.4 223.7 L 204.5 232.7 L 177.8 184.8 L 188.8 160.4 L 204.5 91.7 L 214.5 91.7" stroke-linejoin="round" visibility="visible" stroke="rgb(192,192,192)" stroke-opacity="0.0" stroke-width="22"  class=" highcharts-tracker" style=""></path></g><g class="highcharts-markers highcharts-tracker" visibility="visible"  transform="translate(10,46) scale(1 1)" style=""><path fill="#7cb5ec" d="M 188 156.4 C 193.3 156.4 193.3 164.4 188 164.4 C 182.6 164.4 182.6 156.4 188 156.4 Z"></path><path fill="#7cb5ec" d="M 177 180.8 C 182.3 180.8 182.3 188.8 177 188.8 C 171.6 188.8 171.6 180.8 177 180.8 Z"></path><path fill="#7cb5ec" d="M 204 228.7 C 209.3 228.7 209.3 236.7 204 236.7 C 198.6 236.7 198.6 228.7 204 228.7 Z"></path><path fill="#7cb5ec" d="M 298 219.7 C 303.3 219.7 303.3 227.7 298 227.7 C 292.6 227.7 292.6 219.7 298 219.7 Z"></path><path fill="#7cb5ec" d="M 234 148.3 C 239.3 148.3 239.3 156.3 234 156.3 C 228.6 156.3 228.6 148.3 234 148.3 Z"></path><path fill="#7cb5ec" d="M 204 87.7 C 209.3 87.7 209.3 95.7 204 95.7 C 198.6 95.7 198.6 87.7 204 87.7 Z"></path></g><g class="highcharts-series" visibility="visible"  transform="translate(10,46) scale(1 1)" clip-path="url(#highcharts-1)"><path fill="none" d="M 204.5 79.1 L 265.5 134.2 L 270.2 207.4 L 204.5 225.5 L 163.7 193.0 L 182.5 156.8 L 204.5 79.1" stroke="#434348" stroke-width="2"  stroke-linejoin="round" stroke-linecap="round"></path><path fill="none" d="M 194.5 79.1 L 204.5 79.1 L 265.5 134.2 L 270.2 207.4 L 204.5 225.5 L 163.7 193.0 L 182.5 156.8 L 204.5 79.1 L 214.5 79.1" stroke-linejoin="round" visibility="visible" stroke="rgb(192,192,192)" stroke-opacity="0.0" stroke-width="22"  class=" highcharts-tracker" style=""></path></g><g class="highcharts-markers highcharts-tracker" visibility="visible"  transform="translate(10,46) scale(1 1)" style=""><path fill="#434348" d="M 182 152.8 L 186 156.8 182 160.8 178 156.8 Z"></path><path fill="#434348" d="M 163 189.0 L 167 193.0 163 197.0 159 193.0 Z"></path><path fill="#434348" d="M 204 221.5 L 208 225.5 204 229.5 200 225.5 Z"></path><path fill="#434348" d="M 270 203.4 L 274 207.4 270 211.4 266 207.4 Z"></path><path fill="#434348" d="M 265 130.2 L 269 134.2 265 138.2 261 134.2 Z"></path><path fill="#434348" d="M 204 75.1 L 208 79.1 204 83.1 200 79.1 Z"></path></g></g><text x="212" text-anchor="middle" class="highcharts-title"  style="color:#333333;font-size:18px;fill:#333333;width:520px;" y="24"><tspan>Budget vs spending</tspan></text><g class="highcharts-legend"  transform="translate(431,80)"><g ><g><g class="highcharts-legend-item"  transform="translate(8,3)"><path fill="none" d="M 0 11 L 16 11" stroke="#7cb5ec" stroke-width="2"></path><path fill="#7cb5ec" d="M 8 7 C 13.3 7 13.3 15 8 15 C 2.6 15 2.6 7 8 7 Z"></path><text x="21" style="color:#333333;font-size:12px;font-weight:bold;cursor:pointer;fill:#333333;" text-anchor="start"  y="15"><tspan>Allocated Budget</tspan></text></g><g class="highcharts-legend-item"  transform="translate(8,18)"><path fill="none" d="M 0 11 L 16 11" stroke="#434348" stroke-width="2"></path><path fill="#434348" d="M 8 7 L 12 11 8 15 4 11 Z"></path><text x="21" y="15" style="color:#333333;font-size:12px;font-weight:bold;cursor:pointer;fill:#333333;" text-anchor="start" ><tspan>Actual Spending</tspan></text></g></g></g></g><g class="highcharts-axis-labels highcharts-xaxis-labels" ><text x="214.5" style="color:#606060;cursor:default;font-size:11px;fill:#606060;width:48px;text-overflow:clip;" text-anchor="middle" transform="translate(0,0)" y="69.4" opacity="1">Sales</text><text x="344.9" style="color:#606060;cursor:default;font-size:11px;fill:#606060;width:48px;text-overflow:clip;" text-anchor="start" transform="translate(0,0)" y="144.7" opacity="1">Marketing</text><text x="344.9" style="color:#606060;cursor:default;font-size:11px;fill:#606060;width:48px;text-overflow:clip;" text-anchor="start" transform="translate(0,0)" y="295.2" opacity="1">Development</text><text x="214.5" style="color:#606060;cursor:default;font-size:11px;fill:#606060;width:48px;text-overflow:clip;" text-anchor="middle" transform="translate(0,0)" y="363.6" opacity="1"><tspan>Customer</tspan><tspan dy="14" x="214.5">Support</tspan><title>Customer Support</title></text><text x="84.0" style="color:#606060;cursor:default;font-size:11px;fill:#606060;width:48px;text-overflow:clip;" text-anchor="end" transform="translate(0,0)" y="288.3" opacity="1"><tspan>Information</tspan><tspan dy="14" x="84.0">Technology</tspan><title>Information Technology</title></text><text x="84.0" style="color:#606060;cursor:default;font-size:11px;fill:#606060;width:48px;text-overflow:clip;" text-anchor="end" transform="translate(0,0)" y="144.7" opacity="1">Administration</text><text x="0" style="color:#606060;cursor:default;font-size:11px;fill:#606060;width:48px;text-overflow:clip;" text-anchor="middle" transform="translate(0,0)" y="-9999">6</text></g><g class="highcharts-axis-labels highcharts-yaxis-labels" ><text x="211.5" style="color:#606060;cursor:default;font-size:11px;fill:#606060;width:183px;text-overflow:clip;" text-anchor="end" transform="translate(0,0)" y="213.5" opacity="1">0k</text><text x="211.5" style="color:#606060;cursor:default;font-size:11px;fill:#606060;width:183px;text-overflow:clip;" text-anchor="end" transform="translate(0,0)" y="168.3" opacity="1">25k</text><text x="211.5" style="color:#606060;cursor:default;font-size:11px;fill:#606060;width:183px;text-overflow:clip;" text-anchor="end" transform="translate(0,0)" y="123.1" opacity="1">50k</text><text x="0" style="color:#606060;cursor:default;font-size:11px;fill:#606060;width:183px;text-overflow:clip;" text-anchor="end" transform="translate(0,0)" y="-9999">75k</text></g><g class="highcharts-tooltip"  style="cursor:default;padding:0;white-space:nowrap;" transform="translate(0,-9999)"><path fill="none" d="M 3.5 0.5 L 13.5 0.5 C 16.5 0.5 16.5 0.5 16.5 3.5 L 16.5 13.5 C 16.5 16.5 16.5 16.5 13.5 16.5 L 3.5 16.5 C 0.5 16.5 0.5 16.5 0.5 13.5 L 0.5 3.5 C 0.5 0.5 0.5 0.5 3.5 0.5"  stroke="black" stroke-opacity="0.0" stroke-width="5" transform="translate(1, 1)"></path><path fill="none" d="M 3.5 0.5 L 13.5 0.5 C 16.5 0.5 16.5 0.5 16.5 3.5 L 16.5 13.5 C 16.5 16.5 16.5 16.5 13.5 16.5 L 3.5 16.5 C 0.5 16.5 0.5 16.5 0.5 13.5 L 0.5 3.5 C 0.5 0.5 0.5 0.5 3.5 0.5"  stroke="black" stroke-opacity="0.0" stroke-width="3" transform="translate(1, 1)"></path><path fill="none" d="M 3.5 0.5 L 13.5 0.5 C 16.5 0.5 16.5 0.5 16.5 3.5 L 16.5 13.5 C 16.5 16.5 16.5 16.5 13.5 16.5 L 3.5 16.5 C 0.5 16.5 0.5 16.5 0.5 13.5 L 0.5 3.5 C 0.5 0.5 0.5 0.5 3.5 0.5"  stroke="black" stroke-opacity="0.1" stroke-width="1" transform="translate(1, 1)"></path><path fill="rgb(249, 249, 249)" fill-opacity=" .85" d="M 3.5 0.5 L 13.5 0.5 C 16.5 0.5 16.5 0.5 16.5 3.5 L 16.5 13.5 C 16.5 16.5 16.5 16.5 13.5 16.5 L 3.5 16.5 C 0.5 16.5 0.5 16.5 0.5 13.5 L 0.5 3.5 C 0.5 0.5 0.5 0.5 3.5 0.5"></path><text x="8"  style="font-size:12px;color:#333333;fill:#333333;" y="20"></text></g></svg>