<svg version="1.1" style="font-family: signika, serif; font-size: 12px; background-image: url(http://www.highcharts.com/samples/graphics/sand.png); background-position: initial initial; background-repeat: initial initial;" xmlns="http://www.w3.org/2000/svg" width="584" height="400" viewBox="0 0 584 400" xmlns:xlink="http://www.w3.org/1999/xlink"><style type="text/css"><![CDATA[@import url(http://fonts.googleapis.com/css?family=Signika:700);]]></style><desc>Created with Highcharts 4.1.7</desc><defs><clipPath id="highcharts-1"><rect x="0" y="0" width="419" height="344"></rect></clipPath></defs><g class="highcharts-grid" ><path fill="none" d="M 219.5 213 L 219.5 75.4" stroke="#D8D8D8" stroke-width="1"  opacity="1"></path><path fill="none" d="M 219.5 213 L 338.6 144.2" stroke="#D8D8D8" stroke-width="1"  opacity="1"></path><path fill="none" d="M 219.5 213 L 338.6 281.7" stroke="#D8D8D8" stroke-width="1"  opacity="1"></path><path fill="none" d="M 219.5 213 L 219.5 350.6" stroke="#D8D8D8" stroke-width="1"  opacity="1"></path><path fill="none" d="M 219.5 213 L 100.3 281.8" stroke="#D8D8D8" stroke-width="1"  opacity="1"></path><path fill="none" d="M 219.5 213 L 100.3 144.2" stroke="#D8D8D8" stroke-width="1"  opacity="1"></path><path fill="none" d="M 219.5 213 L 219.4 75.4" stroke="#D8D8D8" stroke-width="1"  opacity="1"></path></g><g class="highcharts-grid" ><path fill="none" d="M 219.5 213 L 219.5 213 L 219.5 213 L 219.5 213 L 219.5 213 L 219.5 213 L 219.5 213 L 219.5 213" stroke="#D8D8D8" stroke-width="1"  opacity="1"></path><path fill="none" d="M 219.5 167.1 L 219.5 167.1 L 179.7 190.0 L 179.7 235.9 L 219.5 258.8 L 259.2 235.9 L 259.2 190.0 L 219.5 167.1" stroke="#D8D8D8" stroke-width="1"  opacity="1"></path><path fill="none" d="M 219.5 121.2 L 219.4 121.2 L 140.0 167.1 L 140.0 258.8 L 219.5 304.7 L 298.9 258.8 L 298.9 167.1 L 219.5 121.2" stroke="#D8D8D8" stroke-width="1"  opacity="1"></path><path fill="none" d="M 219.5 75.4 L 219.4 75.4 L 100.3 144.2 L 100.3 281.8 L 219.5 350.6 L 338.6 281.7 L 338.6 144.2 L 219.5 75.4" stroke="#D8D8D8" stroke-width="1"  opacity="1"></path></g><g class="highcharts-axis" ></g><g class="highcharts-axis" ></g><g class="highcharts-series-group" ><g class="highcharts-series" visibility="visible"  transform="translate(10,41) scale(1 1)" clip-path="url(#highcharts-1)"><path fill="none" d="M 209.5 93.1 L 239.6 154.5 L 304.8 227.0 L 209.5 236.2 L 182.4 187.5 L 193.6 162.8 L 209.5 93.1" stroke="black" stroke-width="5"  stroke-linejoin="round" stroke-linecap="round"  stroke-opacity="0.0" transform="translate(1, 1)"></path><path fill="none" d="M 209.5 93.1 L 239.6 154.5 L 304.8 227.0 L 209.5 236.2 L 182.4 187.5 L 193.6 162.8 L 209.5 93.1" stroke="black" stroke-width="3"  stroke-linejoin="round" stroke-linecap="round"  stroke-opacity="0.0" transform="translate(1, 1)"></path><path fill="none" d="M 209.5 93.1 L 239.6 154.5 L 304.8 227.0 L 209.5 236.2 L 182.4 187.5 L 193.6 162.8 L 209.5 93.1" stroke="black" stroke-width="1"  stroke-linejoin="round" stroke-linecap="round"  stroke-opacity="0.1" transform="translate(1, 1)"></path><path fill="none" d="M 209.5 93.1 L 239.6 154.5 L 304.8 227.0 L 209.5 236.2 L 182.4 187.5 L 193.6 162.8 L 209.5 93.1" stroke="#f45b5b" stroke-width="2"  stroke-linejoin="round" stroke-linecap="round"></path><path fill="none" d="M 199.5 93.1 L 209.5 93.1 L 239.6 154.5 L 304.8 227.0 L 209.5 236.2 L 182.4 187.5 L 193.6 162.8 L 209.5 93.1 L 219.5 93.1" stroke-linejoin="round" visibility="visible" stroke="rgb(192,192,192)" stroke-opacity="0.0" stroke-width="22"  class=" highcharts-tracker" style=""></path></g><g class="highcharts-markers highcharts-tracker" visibility="visible"  transform="translate(10,41) scale(1 1)" style=""><path fill="#f45b5b" d="M 193 158.8 C 198.3 158.8 198.3 166.8 193 166.8 C 187.6 166.8 187.6 158.8 193 158.8 Z"></path><path fill="#f45b5b" d="M 182 183.5 C 187.3 183.5 187.3 191.5 182 191.5 C 176.6 191.5 176.6 183.5 182 183.5 Z"></path><path fill="#f45b5b" d="M 209 232.2 C 214.3 232.2 214.3 240.2 209 240.2 C 203.6 240.2 203.6 232.2 209 232.2 Z"></path><path fill="#f45b5b" d="M 304 223.0 C 309.3 223.0 309.3 231.0 304 231.0 C 298.6 231.0 298.6 223.0 304 223.0 Z"></path><path fill="#f45b5b" d="M 239 150.5 C 244.3 150.5 244.3 158.5 239 158.5 C 233.6 158.5 233.6 150.5 239 150.5 Z"></path><path fill="#f45b5b" d="M 209 89.1 C 214.3 89.1 214.3 97.1 209 97.1 C 203.6 97.1 203.6 89.1 209 89.1 Z"></path></g><g class="highcharts-series" visibility="visible"  transform="translate(10,41) scale(1 1)" clip-path="url(#highcharts-1)"><path fill="none" d="M 209.5 80.2 L 271.4 136.2 L 276.2 210.5 L 209.5 228.8 L 168.1 195.8 L 187.2 159.1 L 209.5 80.2" stroke="black" stroke-width="5"  stroke-linejoin="round" stroke-linecap="round"  stroke-opacity="0.0" transform="translate(1, 1)"></path><path fill="none" d="M 209.5 80.2 L 271.4 136.2 L 276.2 210.5 L 209.5 228.8 L 168.1 195.8 L 187.2 159.1 L 209.5 80.2" stroke="black" stroke-width="3"  stroke-linejoin="round" stroke-linecap="round"  stroke-opacity="0.0" transform="translate(1, 1)"></path><path fill="none" d="M 209.5 80.2 L 271.4 136.2 L 276.2 210.5 L 209.5 228.8 L 168.1 195.8 L 187.2 159.1 L 209.5 80.2" stroke="black" stroke-width="1"  stroke-linejoin="round" stroke-linecap="round"  stroke-opacity="0.1" transform="translate(1, 1)"></path><path fill="none" d="M 209.5 80.2 L 271.4 136.2 L 276.2 210.5 L 209.5 228.8 L 168.1 195.8 L 187.2 159.1 L 209.5 80.2" stroke="#8085e9" stroke-width="2"  stroke-linejoin="round" stroke-linecap="round"></path><path fill="none" d="M 199.5 80.2 L 209.5 80.2 L 271.4 136.2 L 276.2 210.5 L 209.5 228.8 L 168.1 195.8 L 187.2 159.1 L 209.5 80.2 L 219.5 80.2" stroke-linejoin="round" visibility="visible" stroke="rgb(192,192,192)" stroke-opacity="0.0" stroke-width="22"  class=" highcharts-tracker" style=""></path></g><g class="highcharts-markers highcharts-tracker" visibility="visible"  transform="translate(10,41) scale(1 1)" style=""><path fill="#8085e9" d="M 187 155.1 L 191 159.1 187 163.1 183 159.1 Z"></path><path fill="#8085e9" d="M 168 191.8 L 172 195.8 168 199.8 164 195.8 Z"></path><path fill="#8085e9" d="M 209 224.8 L 213 228.8 209 232.8 205 228.8 Z"></path><path fill="#8085e9" d="M 276 206.5 L 280 210.5 276 214.5 272 210.5 Z"></path><path fill="#8085e9" d="M 271 132.2 L 275 136.2 271 140.2 267 136.2 Z"></path><path fill="#8085e9" d="M 209 76.2 L 213 80.2 209 84.2 205 80.2 Z"></path></g></g><text x="212" text-anchor="middle" class="highcharts-title"  style="color:black;font-size:16px;font-weight:bold;fill:black;width:520px;" y="22"><tspan>Budget vs spending</tspan></text><g class="highcharts-legend"  transform="translate(441,80)"><g ><g><g class="highcharts-legend-item"  transform="translate(8,3)"><path fill="none" d="M 0 12 L 16 12" stroke="#f45b5b" stroke-width="2"></path><path fill="#f45b5b" d="M 8 8 C 13.3 8 13.3 16 8 16 C 2.6 16 2.6 8 8 8 Z"></path><text x="21" style="color:#333333;font-size:13px;font-weight:bold;cursor:pointer;fill:#333333;" text-anchor="start"  y="16"><tspan>Allocated Budget</tspan></text></g><g class="highcharts-legend-item"  transform="translate(8,16)"><path fill="none" d="M 0 12 L 16 12" stroke="#8085e9" stroke-width="2"></path><path fill="#8085e9" d="M 8 8 L 12 12 8 16 4 12 Z"></path><text x="21" y="16" style="color:#333333;font-size:13px;font-weight:bold;cursor:pointer;fill:#333333;" text-anchor="start" ><tspan>Actual Spending</tspan></text></g></g></g></g><g class="highcharts-axis-labels highcharts-xaxis-labels" ><text x="219.5" style="color:#6e6e70;cursor:default;font-size:11px;fill:#6e6e70;width:50px;text-overflow:clip;" text-anchor="middle" transform="translate(0,0)" y="65.9" opacity="1">Sales</text><text x="351.6" style="color:#6e6e70;cursor:default;font-size:11px;fill:#6e6e70;width:50px;text-overflow:clip;" text-anchor="start" transform="translate(0,0)" y="142.2" opacity="1">Marketing</text><text x="351.6" style="color:#6e6e70;cursor:default;font-size:11px;fill:#6e6e70;width:50px;text-overflow:clip;" text-anchor="start" transform="translate(0,0)" y="294.7" opacity="1">Development</text><text x="219.5" style="color:#6e6e70;cursor:default;font-size:11px;fill:#6e6e70;width:50px;text-overflow:clip;" text-anchor="middle" transform="translate(0,0)" y="364.1" opacity="1"><tspan>Customer</tspan><tspan dy="14" x="219.5">Support</tspan><title>Customer Support</title></text><text x="87.3" style="color:#6e6e70;cursor:default;font-size:11px;fill:#6e6e70;width:50px;text-overflow:clip;" text-anchor="end" transform="translate(0,0)" y="287.8" opacity="1"><tspan>Information</tspan><tspan dy="14" x="87.3">Technology</tspan><title>Information Technology</title></text><text x="87.3" style="color:#6e6e70;cursor:default;font-size:11px;fill:#6e6e70;width:50px;text-overflow:clip;" text-anchor="end" transform="translate(0,0)" y="142.2" opacity="1">Administration</text><text x="0" style="color:#6e6e70;cursor:default;font-size:11px;fill:#6e6e70;width:50px;text-overflow:clip;" text-anchor="middle" transform="translate(0,0)" y="-9999">6</text></g><g class="highcharts-axis-labels highcharts-yaxis-labels" ><text x="216.5" style="color:#6e6e70;cursor:default;font-size:11px;fill:#6e6e70;width:183px;text-overflow:clip;" text-anchor="end" transform="translate(0,0)" y="211" opacity="1">0k</text><text x="216.5" style="color:#6e6e70;cursor:default;font-size:11px;fill:#6e6e70;width:183px;text-overflow:clip;" text-anchor="end" transform="translate(0,0)" y="165.1" opacity="1">25k</text><text x="216.5" style="color:#6e6e70;cursor:default;font-size:11px;fill:#6e6e70;width:183px;text-overflow:clip;" text-anchor="end" transform="translate(0,0)" y="119.2" opacity="1">50k</text><text x="0" style="color:#6e6e70;cursor:default;font-size:11px;fill:#6e6e70;width:183px;text-overflow:clip;" text-anchor="end" transform="translate(0,0)" y="-9999">75k</text></g><g class="highcharts-tooltip"  style="cursor:default;padding:0;white-space:nowrap;" transform="translate(0,-9999)"><path fill="none" d="M 3 0 L 13 0 C 16 0 16 0 16 3 L 16 13 C 16 16 16 16 13 16 L 3 16 C 0 16 0 16 0 13 L 0 3 C 0 0 0 0 3 0"  stroke="black" stroke-opacity="0.0" stroke-width="5" transform="translate(1, 1)"></path><path fill="none" d="M 3 0 L 13 0 C 16 0 16 0 16 3 L 16 13 C 16 16 16 16 13 16 L 3 16 C 0 16 0 16 0 13 L 0 3 C 0 0 0 0 3 0"  stroke="black" stroke-opacity="0.0" stroke-width="3" transform="translate(1, 1)"></path><path fill="none" d="M 3 0 L 13 0 C 16 0 16 0 16 3 L 16 13 C 16 16 16 16 13 16 L 3 16 C 0 16 0 16 0 13 L 0 3 C 0 0 0 0 3 0"  stroke="black" stroke-opacity="0.1" stroke-width="1" transform="translate(1, 1)"></path><path fill="rgb(249, 249, 249)" fill-opacity=" .85" d="M 3 0 L 13 0 C 16 0 16 0 16 3 L 16 13 C 16 16 16 16 13 16 L 3 16 C 0 16 0 16 0 13 L 0 3 C 0 0 0 0 3 0"></path><text x="8"  style="font-size:12px;color:#333333;fill:#333333;" y="20"></text></g></svg>