<svg version="1.1" style="font-family: signika, serif; font-size: 12px; background-image: url(http://www.highcharts.com/samples/graphics/sand.png); background-position: initial initial; background-repeat: initial initial;" xmlns="http://www.w3.org/2000/svg" width="400" height="400" viewBox="0 0 400 400" xmlns:xlink="http://www.w3.org/1999/xlink"><style type="text/css"><![CDATA[@import url(http://fonts.googleapis.com/css?family=Signika:700);]]></style><desc>Created with Highcharts 4.1.7</desc><defs><clipPath id="highcharts-1"><rect x="0" y="0" width="380" height="308"></rect></clipPath></defs><g class="highcharts-grid" ><path fill="none" d="M 200 195 L 200 64.1" stroke="#D8D8D8" stroke-width="1"  opacity="1"></path><path fill="none" d="M 200 195 L 292.5 102.4" stroke="#D8D8D8" stroke-width="1"  opacity="1"></path><path fill="none" d="M 200 195 L 330.9 195" stroke="#D8D8D8" stroke-width="1"  opacity="1"></path><path fill="none" d="M 200 195 L 292.5 287.5" stroke="#D8D8D8" stroke-width="1"  opacity="1"></path><path fill="none" d="M 200 195 L 200 325.9" stroke="#D8D8D8" stroke-width="1"  opacity="1"></path><path fill="none" d="M 200 195 L 107.4 287.5" stroke="#D8D8D8" stroke-width="1"  opacity="1"></path><path fill="none" d="M 200 195 L 69.1 195.0" stroke="#D8D8D8" stroke-width="1"  opacity="1"></path><path fill="none" d="M 200 195 L 107.4 102.4" stroke="#D8D8D8" stroke-width="1"  opacity="1"></path><path fill="none" d="M 200 195 L 199.9 64.1" stroke="#D8D8D8" stroke-width="1"  opacity="1"></path></g><g class="highcharts-grid" ><path fill="none" stroke="#D8D8D8" stroke-width="1" ></path><path fill="none" d="M 200 129.5 A 65.4 65.4 0 1 1 199.9 129.5 M 200 195 A 0 0 0 1 0 200 195 " stroke="#D8D8D8" stroke-width="1"  opacity="1"></path><path fill="none" d="M 200 64.1 A 130.9 130.9 0 1 1 199.8 64.1 M 200 195 A 0 0 0 1 0 200 195 " stroke="#D8D8D8" stroke-width="1"  opacity="1"></path></g><g class="highcharts-axis" ><path fill="none" d="M 200 64.1 A 130.9 130.9 0 1 1 199.8 64.1 M 200 195 A 0 0 0 1 0 200 195 " stroke="#C0D0E0" stroke-width="1"  visibility="visible"></path></g><g class="highcharts-axis" ></g><g class="highcharts-series-group" ><g class="highcharts-series highcharts-tracker" visibility="visible"  transform="translate(10,41) scale(1 1)" style="" clip-path="url(#highcharts-1)"><path fill="none" d="M 190 49.2 A 104.7 104.7 0 0 1 263.9 79.8 L 190 154 A 0 0 0 0 0 190 154 Z" r="0"  stroke="black" stroke-opacity="0.0" stroke-width="5" transform="translate(1, 1)"></path><path fill="none" d="M 190 49.2 A 104.7 104.7 0 0 1 263.9 79.8 L 190 154 A 0 0 0 0 0 190 154 Z" r="0"  stroke="black" stroke-opacity="0.0" stroke-width="3" transform="translate(1, 1)"></path><path fill="none" d="M 190 49.2 A 104.7 104.7 0 0 1 263.9 79.8 L 190 154 A 0 0 0 0 0 190 154 Z" r="0"  stroke="black" stroke-opacity="0.1" stroke-width="1" transform="translate(1, 1)"></path><path fill="#f45b5b" d="M 190 49.2 A 104.7 104.7 0 0 1 263.9 79.8 L 190 154 A 0 0 0 0 0 190 154 Z" r="0"></path><path fill="none" d="M 254.7 89.2 A 91.6 91.6 0 0 1 281.6 153.9 L 190 154 A 0 0 0 0 0 190 154 Z" r="0"  stroke="black" stroke-opacity="0.0" stroke-width="5" transform="translate(1, 1)"></path><path fill="none" d="M 254.7 89.2 A 91.6 91.6 0 0 1 281.6 153.9 L 190 154 A 0 0 0 0 0 190 154 Z" r="0"  stroke="black" stroke-opacity="0.0" stroke-width="3" transform="translate(1, 1)"></path><path fill="none" d="M 254.7 89.2 A 91.6 91.6 0 0 1 281.6 153.9 L 190 154 A 0 0 0 0 0 190 154 Z" r="0"  stroke="black" stroke-opacity="0.1" stroke-width="1" transform="translate(1, 1)"></path><path fill="#f45b5b" d="M 254.7 89.2 A 91.6 91.6 0 0 1 281.6 153.9 L 190 154 A 0 0 0 0 0 190 154 Z" r="0"></path><path fill="none" d="M 268.5 154 A 78.5 78.5 0 0 1 245.5 209.4 L 190 154 A 0 0 0 0 0 190 154 Z" r="0"  stroke="black" stroke-opacity="0.0" stroke-width="5" transform="translate(1, 1)"></path><path fill="none" d="M 268.5 154 A 78.5 78.5 0 0 1 245.5 209.4 L 190 154 A 0 0 0 0 0 190 154 Z" r="0"  stroke="black" stroke-opacity="0.0" stroke-width="3" transform="translate(1, 1)"></path><path fill="none" d="M 268.5 154 A 78.5 78.5 0 0 1 245.5 209.4 L 190 154 A 0 0 0 0 0 190 154 Z" r="0"  stroke="black" stroke-opacity="0.1" stroke-width="1" transform="translate(1, 1)"></path><path fill="#f45b5b" d="M 268.5 154 A 78.5 78.5 0 0 1 245.5 209.4 L 190 154 A 0 0 0 0 0 190 154 Z" r="0"></path><path fill="none" d="M 236.2 200.2 A 65.4 65.4 0 0 1 190.0 219.4 L 190 154 A 0 0 0 0 0 190 154 Z" r="0"  stroke="black" stroke-opacity="0.0" stroke-width="5" transform="translate(1, 1)"></path><path fill="none" d="M 236.2 200.2 A 65.4 65.4 0 0 1 190.0 219.4 L 190 154 A 0 0 0 0 0 190 154 Z" r="0"  stroke="black" stroke-opacity="0.0" stroke-width="3" transform="translate(1, 1)"></path><path fill="none" d="M 236.2 200.2 A 65.4 65.4 0 0 1 190.0 219.4 L 190 154 A 0 0 0 0 0 190 154 Z" r="0"  stroke="black" stroke-opacity="0.1" stroke-width="1" transform="translate(1, 1)"></path><path fill="#f45b5b" d="M 236.2 200.2 A 65.4 65.4 0 0 1 190.0 219.4 L 190 154 A 0 0 0 0 0 190 154 Z" r="0"></path><path fill="none" d="M 190 206.3 A 52.3 52.3 0 0 1 153.0 191.0 L 190 154 A 0 0 0 0 0 190 154 Z" r="0"  stroke="black" stroke-opacity="0.0" stroke-width="5" transform="translate(1, 1)"></path><path fill="none" d="M 190 206.3 A 52.3 52.3 0 0 1 153.0 191.0 L 190 154 A 0 0 0 0 0 190 154 Z" r="0"  stroke="black" stroke-opacity="0.0" stroke-width="3" transform="translate(1, 1)"></path><path fill="none" d="M 190 206.3 A 52.3 52.3 0 0 1 153.0 191.0 L 190 154 A 0 0 0 0 0 190 154 Z" r="0"  stroke="black" stroke-opacity="0.1" stroke-width="1" transform="translate(1, 1)"></path><path fill="#f45b5b" d="M 190 206.3 A 52.3 52.3 0 0 1 153.0 191.0 L 190 154 A 0 0 0 0 0 190 154 Z" r="0"></path><path fill="none" d="M 162.2 181.7 A 39.2 39.2 0 0 1 150.7 154.0 L 190 154 A 0 0 0 0 0 190 154 Z" r="0"  stroke="black" stroke-opacity="0.0" stroke-width="5" transform="translate(1, 1)"></path><path fill="none" d="M 162.2 181.7 A 39.2 39.2 0 0 1 150.7 154.0 L 190 154 A 0 0 0 0 0 190 154 Z" r="0"  stroke="black" stroke-opacity="0.0" stroke-width="3" transform="translate(1, 1)"></path><path fill="none" d="M 162.2 181.7 A 39.2 39.2 0 0 1 150.7 154.0 L 190 154 A 0 0 0 0 0 190 154 Z" r="0"  stroke="black" stroke-opacity="0.1" stroke-width="1" transform="translate(1, 1)"></path><path fill="#f45b5b" d="M 162.2 181.7 A 39.2 39.2 0 0 1 150.7 154.0 L 190 154 A 0 0 0 0 0 190 154 Z" r="0"></path><path fill="none" d="M 163.8 154 A 26.1 26.1 0 0 1 171.4 135.5 L 190 154 A 0 0 0 0 0 190 154 Z" r="0"  stroke="black" stroke-opacity="0.0" stroke-width="5" transform="translate(1, 1)"></path><path fill="none" d="M 163.8 154 A 26.1 26.1 0 0 1 171.4 135.5 L 190 154 A 0 0 0 0 0 190 154 Z" r="0"  stroke="black" stroke-opacity="0.0" stroke-width="3" transform="translate(1, 1)"></path><path fill="none" d="M 163.8 154 A 26.1 26.1 0 0 1 171.4 135.5 L 190 154 A 0 0 0 0 0 190 154 Z" r="0"  stroke="black" stroke-opacity="0.1" stroke-width="1" transform="translate(1, 1)"></path><path fill="#f45b5b" d="M 163.8 154 A 26.1 26.1 0 0 1 171.4 135.5 L 190 154 A 0 0 0 0 0 190 154 Z" r="0"></path><path fill="none" d="M 180.7 144.7 A 13.0 13.0 0 0 1 189.9 140.9 L 190 154 A 0 0 0 0 0 190 154 Z" r="0"  stroke="black" stroke-opacity="0.0" stroke-width="5" transform="translate(1, 1)"></path><path fill="none" d="M 180.7 144.7 A 13.0 13.0 0 0 1 189.9 140.9 L 190 154 A 0 0 0 0 0 190 154 Z" r="0"  stroke="black" stroke-opacity="0.0" stroke-width="3" transform="translate(1, 1)"></path><path fill="none" d="M 180.7 144.7 A 13.0 13.0 0 0 1 189.9 140.9 L 190 154 A 0 0 0 0 0 190 154 Z" r="0"  stroke="black" stroke-opacity="0.1" stroke-width="1" transform="translate(1, 1)"></path><path fill="#f45b5b" d="M 180.7 144.7 A 13.0 13.0 0 0 1 189.9 140.9 L 190 154 A 0 0 0 0 0 190 154 Z" r="0"></path></g><g class="highcharts-markers" visibility="visible"  transform="translate(10,41) scale(1 1)"></g><g class="highcharts-series" visibility="visible"  transform="translate(10,41) scale(1 1)" clip-path="url(#highcharts-1)"><path fill="none" d="M 190 140.9 L 208.5 135.4 L 229.2 154 L 227.0 191.0 L 190 219.4 L 134.4 209.5 L 98.3 154 L 115.9 79.9 L 190 140.9" stroke="black" stroke-width="5"  stroke-linejoin="round" stroke-linecap="round"  stroke-opacity="0.0" transform="translate(1, 1)"></path><path fill="none" d="M 190 140.9 L 208.5 135.4 L 229.2 154 L 227.0 191.0 L 190 219.4 L 134.4 209.5 L 98.3 154 L 115.9 79.9 L 190 140.9" stroke="black" stroke-width="3"  stroke-linejoin="round" stroke-linecap="round"  stroke-opacity="0.0" transform="translate(1, 1)"></path><path fill="none" d="M 190 140.9 L 208.5 135.4 L 229.2 154 L 227.0 191.0 L 190 219.4 L 134.4 209.5 L 98.3 154 L 115.9 79.9 L 190 140.9" stroke="black" stroke-width="1"  stroke-linejoin="round" stroke-linecap="round"  stroke-opacity="0.1" transform="translate(1, 1)"></path><path fill="none" d="M 190 140.9 L 208.5 135.4 L 229.2 154 L 227.0 191.0 L 190 219.4 L 134.4 209.5 L 98.3 154 L 115.9 79.9 L 190 140.9" stroke="#8085e9" stroke-width="2"  stroke-linejoin="round" stroke-linecap="round"></path><path fill="none" d="M 180 140.9 L 190 140.9 L 208.5 135.4 L 229.2 154 L 227.0 191.0 L 190 219.4 L 134.4 209.5 L 98.3 154 L 115.9 79.9 L 190 140.9 L 200 140.9" stroke-linejoin="round" visibility="visible" stroke="rgb(192,192,192)" stroke-opacity="0.0" stroke-width="22"  class=" highcharts-tracker" style=""></path></g><g class="highcharts-markers highcharts-tracker" visibility="visible"  transform="translate(10,41) scale(1 1)" style=""><path fill="#8085e9" d="M 115 75.9 C 120.3 75.9 120.3 83.9 115 83.9 C 109.6 83.9 109.6 75.9 115 75.9 Z"></path><path fill="#8085e9" d="M 98 150 C 103.3 150 103.3 158 98 158 C 92.6 158 92.6 150 98 150 Z"></path><path fill="#8085e9" d="M 134 205.5 C 139.3 205.5 139.3 213.5 134 213.5 C 128.6 213.5 128.6 205.5 134 205.5 Z"></path><path fill="#8085e9" d="M 190 215.4 C 195.3 215.4 195.3 223.4 190 223.4 C 184.6 223.4 184.6 215.4 190 215.4 Z"></path><path fill="#8085e9" d="M 227 187.0 C 232.3 187.0 232.3 195.0 227 195.0 C 221.6 195.0 221.6 187.0 227 187.0 Z"></path><path fill="#8085e9" d="M 229 150 C 234.3 150 234.3 158 229 158 C 223.6 158 223.6 150 229 150 Z"></path><path fill="#8085e9" d="M 208 131.4 C 213.3 131.4 213.3 139.4 208 139.4 C 202.6 139.4 202.6 131.4 208 131.4 Z"></path><path fill="#8085e9" d="M 190 136.9 C 195.3 136.9 195.3 144.9 190 144.9 C 184.6 144.9 184.6 136.9 190 136.9 Z"></path></g><g class="highcharts-series" visibility="visible"  transform="translate(10,41) scale(1 1)" clip-path="url(#highcharts-1)"><path fill="rgb(141,70,84)" fill-opacity="0.7" d="M 190 140.9 L 264.0 79.9 L 216.1 154 L 254.7 218.7 L 190 193.2 L 134.4 209.5 L 137.6 154 L 143.7 107.7 L 190 140.9 L 190 154" ></path><path fill="none" d="M 190 140.9 L 264.0 79.9 L 216.1 154 L 254.7 218.7 L 190 193.2 L 134.4 209.5 L 137.6 154 L 143.7 107.7 L 190 140.9" stroke="black" stroke-width="5"  stroke-linejoin="round" stroke-linecap="round"  stroke-opacity="0.0" transform="translate(1, 1)"></path><path fill="none" d="M 190 140.9 L 264.0 79.9 L 216.1 154 L 254.7 218.7 L 190 193.2 L 134.4 209.5 L 137.6 154 L 143.7 107.7 L 190 140.9" stroke="black" stroke-width="3"  stroke-linejoin="round" stroke-linecap="round"  stroke-opacity="0.0" transform="translate(1, 1)"></path><path fill="none" d="M 190 140.9 L 264.0 79.9 L 216.1 154 L 254.7 218.7 L 190 193.2 L 134.4 209.5 L 137.6 154 L 143.7 107.7 L 190 140.9" stroke="black" stroke-width="1"  stroke-linejoin="round" stroke-linecap="round"  stroke-opacity="0.1" transform="translate(1, 1)"></path><path fill="none" d="M 190 140.9 L 264.0 79.9 L 216.1 154 L 254.7 218.7 L 190 193.2 L 134.4 209.5 L 137.6 154 L 143.7 107.7 L 190 140.9" stroke="#8d4654" stroke-width="2"  stroke-linejoin="round" stroke-linecap="round"></path><path fill="none" d="M 180 140.9 L 190 140.9 L 264.0 79.9 L 216.1 154 L 254.7 218.7 L 190 193.2 L 134.4 209.5 L 137.6 154 L 143.7 107.7 L 190 140.9 L 200 140.9" stroke-linejoin="round" visibility="visible" stroke="rgb(192,192,192)" stroke-opacity="0.0" stroke-width="22"  class=" highcharts-tracker" style=""></path></g><g class="highcharts-markers highcharts-tracker" visibility="visible"  transform="translate(10,41) scale(1 1)" style=""><path fill="#8d4654" d="M 143 103.7 L 147 107.7 143 111.7 139 107.7 Z"></path><path fill="#8d4654" d="M 137 150 L 141 154 137 158 133 154 Z"></path><path fill="#8d4654" d="M 134 205.5 L 138 209.5 134 213.5 130 209.5 Z"></path><path fill="#8d4654" d="M 190 189.2 L 194 193.2 190 197.2 186 193.2 Z"></path><path fill="#8d4654" d="M 254 214.7 L 258 218.7 254 222.7 250 218.7 Z"></path><path fill="#8d4654" d="M 216 150 L 220 154 216 158 212 154 Z"></path><path fill="#8d4654" d="M 264 75.9 L 268 79.9 264 83.9 260 79.9 Z"></path><path fill="#8d4654" d="M 190 136.9 L 194 140.9 190 144.9 186 140.9 Z"></path></g></g><text x="200" text-anchor="middle" class="highcharts-title"  style="color:black;font-size:16px;font-weight:bold;fill:black;width:336px;" y="22"><tspan>Highcharts Polar Chart</tspan></text><g class="highcharts-legend"  transform="translate(92,361)"><g ><g><g class="highcharts-legend-item"  transform="translate(8,3)"><text x="21" style="color:#333333;font-size:13px;font-weight:bold;cursor:pointer;fill:#333333;" text-anchor="start"  y="16">Column</text><rect x="0" y="4" width="16" height="13"  fill="#f45b5b"></rect></g><g class="highcharts-legend-item"  transform="translate(93.7,3)"><path fill="none" d="M 0 12 L 16 12" stroke="#8085e9" stroke-width="2"></path><path fill="#8085e9" d="M 8 8 C 13.3 8 13.3 16 8 16 C 2.6 16 2.6 8 8 8 Z"></path><text x="21" y="16" style="color:#333333;font-size:13px;font-weight:bold;cursor:pointer;fill:#333333;" text-anchor="start" >Line</text></g><g class="highcharts-legend-item"  transform="translate(160,3)"><text x="21" y="16" style="color:#333333;font-size:13px;font-weight:bold;cursor:pointer;fill:#333333;" text-anchor="start" >Area</text><rect x="0" y="4" width="16" height="13"  fill="#8d4654"></rect></g></g></g></g><g class="highcharts-axis-labels highcharts-xaxis-labels" ><text x="200" style="color:#6e6e70;cursor:default;font-size:11px;fill:#6e6e70;width:38px;text-overflow:clip;" text-anchor="middle" transform="translate(0,0)" y="54.5" opacity="1">0°</text><text x="303.1" style="color:#6e6e70;cursor:default;font-size:11px;fill:#6e6e70;width:38px;text-overflow:clip;" text-anchor="start" transform="translate(0,0)" y="97.3" opacity="1">45°</text><text x="345.9" style="color:#6e6e70;cursor:default;font-size:11px;fill:#6e6e70;width:38px;text-overflow:clip;" text-anchor="start" transform="translate(0,0)" y="200.5" opacity="1">90°</text><text x="303.1" style="color:#6e6e70;cursor:default;font-size:11px;fill:#6e6e70;width:38px;text-overflow:clip;" text-anchor="start" transform="translate(0,0)" y="303.6" opacity="1">135°</text><text x="200" style="color:#6e6e70;cursor:default;font-size:11px;fill:#6e6e70;width:38px;text-overflow:clip;" text-anchor="middle" transform="translate(0,0)" y="346.4" opacity="1">180°</text><text x="96.8" style="color:#6e6e70;cursor:default;font-size:11px;fill:#6e6e70;width:38px;text-overflow:clip;" text-anchor="end" transform="translate(0,0)" y="303.6" opacity="1">225°</text><text x="54.0" style="color:#6e6e70;cursor:default;font-size:11px;fill:#6e6e70;width:38px;text-overflow:clip;" text-anchor="end" transform="translate(0,0)" y="200.5" opacity="1">270°</text><text x="96.8" style="color:#6e6e70;cursor:default;font-size:11px;fill:#6e6e70;width:38px;text-overflow:clip;" text-anchor="end" transform="translate(0,0)" y="97.3" opacity="1">315°</text><text x="0" style="color:#6e6e70;cursor:default;font-size:11px;fill:#6e6e70;width:38px;text-overflow:clip;" text-anchor="middle" transform="translate(0,0)" y="-9999">360°</text></g><g class="highcharts-axis-labels highcharts-yaxis-labels" ><text x="197" style="color:#6e6e70;cursor:default;font-size:11px;fill:#6e6e70;width:122px;text-overflow:clip;" text-anchor="end" transform="translate(0,0)" y="193" opacity="1">0</text><text x="197" style="color:#6e6e70;cursor:default;font-size:11px;fill:#6e6e70;width:122px;text-overflow:clip;" text-anchor="end" transform="translate(0,0)" y="127.5" opacity="1">5</text><text x="0" style="color:#6e6e70;cursor:default;font-size:11px;fill:#6e6e70;width:122px;text-overflow:clip;" text-anchor="end" transform="translate(0,0)" y="-9999">10</text></g><g class="highcharts-tooltip"  style="cursor:default;padding:0;white-space:nowrap;" transform="translate(0,-9999)"><path fill="none" d="M 3 0 L 13 0 C 16 0 16 0 16 3 L 16 13 C 16 16 16 16 13 16 L 3 16 C 0 16 0 16 0 13 L 0 3 C 0 0 0 0 3 0"  stroke="black" stroke-opacity="0.0" stroke-width="5" transform="translate(1, 1)"></path><path fill="none" d="M 3 0 L 13 0 C 16 0 16 0 16 3 L 16 13 C 16 16 16 16 13 16 L 3 16 C 0 16 0 16 0 13 L 0 3 C 0 0 0 0 3 0"  stroke="black" stroke-opacity="0.0" stroke-width="3" transform="translate(1, 1)"></path><path fill="none" d="M 3 0 L 13 0 C 16 0 16 0 16 3 L 16 13 C 16 16 16 16 13 16 L 3 16 C 0 16 0 16 0 13 L 0 3 C 0 0 0 0 3 0"  stroke="black" stroke-opacity="0.1" stroke-width="1" transform="translate(1, 1)"></path><path fill="rgb(249, 249, 249)" fill-opacity=" .85" d="M 3 0 L 13 0 C 16 0 16 0 16 3 L 16 13 C 16 16 16 16 13 16 L 3 16 C 0 16 0 16 0 13 L 0 3 C 0 0 0 0 3 0"></path><text x="8"  style="font-size:12px;color:#333333;fill:#333333;" y="20"></text></g></svg>