<svg version="1.1" style="font-family: signika, serif; font-size: 12px; background-image: url(http://www.highcharts.com/samples/graphics/sand.png); background-position: initial initial; background-repeat: initial initial;" xmlns="http://www.w3.org/2000/svg" width="584" height="400" viewBox="0 0 584 400" xmlns:xlink="http://www.w3.org/1999/xlink"><style type="text/css"><![CDATA[@import url(http://fonts.googleapis.com/css?family=Signika:700);]]></style><desc>Created with Highcharts 4.1.7</desc><defs><clipPath id="highcharts-1"><rect x="0" y="0" width="387" height="296"></rect></clipPath><clipPath id="highcharts-2"><rect x="-99" y="-53" width="486" height="400"></rect></clipPath><clipPath id="highcharts-3"><rect x="0" y="0" width="387" height="296"></rect></clipPath></defs><g class="highcharts-grid" ><path fill="none" d="M 63.5 53 L 63.5 349" stroke="#D8D8D8" stroke-width="1"  opacity="1"></path><path fill="none" d="M 140.5 53 L 140.5 349" stroke="#D8D8D8" stroke-width="1"  opacity="1"></path><path fill="none" d="M 218.5 53 L 218.5 349" stroke="#D8D8D8" stroke-width="1"  opacity="1"></path><path fill="none" d="M 295.5 53 L 295.5 349" stroke="#D8D8D8" stroke-width="1"  opacity="1"></path><path fill="none" d="M 373.5 53 L 373.5 349" stroke="#D8D8D8" stroke-width="1"  opacity="1"></path><path fill="none" d="M 451.5 53 L 451.5 349" stroke="#D8D8D8" stroke-width="1"  opacity="1"></path></g><g class="highcharts-grid" ><path fill="none" d="M 64 349.5 L 451 349.5" stroke="#D8D8D8" stroke-width="1"  opacity="1"></path><path fill="none" d="M 64 290.5 L 451 290.5" stroke="#D8D8D8" stroke-width="1"  opacity="1"></path><path fill="none" d="M 64 231.5 L 451 231.5" stroke="#D8D8D8" stroke-width="1"  opacity="1"></path><path fill="none" d="M 64 171.5 L 451 171.5" stroke="#D8D8D8" stroke-width="1"  opacity="1"></path><path fill="none" d="M 64 112.5 L 451 112.5" stroke="#D8D8D8" stroke-width="1"  opacity="1"></path><path fill="none" d="M 64 52.5 L 451 52.5" stroke="#D8D8D8" stroke-width="1"  opacity="1"></path></g><g class="highcharts-axis" ><path fill="none" d="M 63.5 349 L 63.5 359" stroke="#C0D0E0" stroke-width="1" opacity="1"></path><path fill="none" d="M 140.5 349 L 140.5 359" stroke="#C0D0E0" stroke-width="1" opacity="1"></path><path fill="none" d="M 218.5 349 L 218.5 359" stroke="#C0D0E0" stroke-width="1" opacity="1"></path><path fill="none" d="M 295.5 349 L 295.5 359" stroke="#C0D0E0" stroke-width="1" opacity="1"></path><path fill="none" d="M 373.5 349 L 373.5 359" stroke="#C0D0E0" stroke-width="1" opacity="1"></path><path fill="none" d="M 451.5 349 L 451.5 359" stroke="#C0D0E0" stroke-width="1" opacity="1"></path><text x="257.5"  text-anchor="middle" transform="translate(0,0)" class=" highcharts-xaxis-title" style="color:#707070;fill:#707070;" visibility="visible" y="385"><tspan>Height (cm)</tspan></text><path fill="none" d="M 64 349.5 L 451 349.5" stroke="#C0D0E0" stroke-width="1"  visibility="visible"></path></g><g class="highcharts-axis" ><text x="22.5"  text-anchor="middle" transform="translate(0,0) rotate(270 22.5 201)" class=" highcharts-yaxis-title" style="color:#707070;fill:#707070;" visibility="visible" y="201"><tspan>Weight (kg)</tspan></text></g><g class="highcharts-series-group" ><g class="highcharts-series" visibility="visible"  transform="translate(64,53) scale(1 1)" clip-path="url(#highcharts-3)"><path fill="none" d="M 100.6 230.8 L 69.6 219.0 L 69.6 192.4 L 92.8 177.6 L 147.0 148 L 232.2 127.2 L 309.6 148 L 309.6 177.6 L 255.4 201.2 L 201.2 222 z"  stroke-linejoin="round" stroke-linecap="round"  stroke="black" stroke-opacity="0.0" stroke-width="5" transform="translate(1, 1)"></path><path fill="none" d="M 100.6 230.8 L 69.6 219.0 L 69.6 192.4 L 92.8 177.6 L 147.0 148 L 232.2 127.2 L 309.6 148 L 309.6 177.6 L 255.4 201.2 L 201.2 222 z"  stroke-linejoin="round" stroke-linecap="round"  stroke="black" stroke-opacity="0.0" stroke-width="3" transform="translate(1, 1)"></path><path fill="none" d="M 100.6 230.8 L 69.6 219.0 L 69.6 192.4 L 92.8 177.6 L 147.0 148 L 232.2 127.2 L 309.6 148 L 309.6 177.6 L 255.4 201.2 L 201.2 222 z"  stroke-linejoin="round" stroke-linecap="round"  stroke="black" stroke-opacity="0.1" stroke-width="1" transform="translate(1, 1)"></path><path fill="rgb(244,91,91)" fill-opacity="0.5" d="M 100.6 230.8 L 69.6 219.0 L 69.6 192.4 L 92.8 177.6 L 147.0 148 L 232.2 127.2 L 309.6 148 L 309.6 177.6 L 255.4 201.2 L 201.2 222 z"  stroke-linejoin="round" stroke-linecap="round"></path></g><g class="highcharts-markers" visibility="visible"  transform="translate(64,53) scale(1 1)" clip-path="url(#highcharts-2)"></g><g class="highcharts-series highcharts-tracker" visibility="visible"  transform="translate(64,53) scale(1 1)" clip-path="url(#highcharts-3)" style=""></g><g class="highcharts-markers highcharts-tracker" visibility="visible"  transform="translate(64,53) scale(1 1)" clip-path="url(#highcharts-2)" style=""><path fill="#8085e9" d="M 184 151.9 L 188 155.9 184 159.9 180 155.9 Z"></path><path fill="#8085e9" d="M 263 154.6 L 267 158.6 263 162.6 259 158.6 Z"></path><path fill="#8085e9" d="M 160 207.3 L 164 211.3 160 215.3 156 211.3 Z"></path><path fill="#8085e9" d="M 188 186.9 L 192 190.9 188 194.9 184 190.9 Z"></path><path fill="#8085e9" d="M 282 138.6 L 286 142.6 282 146.6 278 142.6 Z"></path><path fill="#8085e9" d="M 135 123.8 L 139 127.8 135 131.8 131 127.8 Z"></path><path fill="#8085e9" d="M 174 169.4 L 178 173.4 174 177.4 170 173.4 Z"></path><path fill="#8085e9" d="M 253 149.3 L 257 153.3 253 157.3 249 153.3 Z"></path><path fill="#8085e9" d="M 154 127.7 L 158 131.7 154 135.7 150 131.7 Z"></path><path fill="#8085e9" d="M 228 151.9 L 232 155.9 228 159.9 224 155.9 Z"></path><path fill="#8085e9" d="M 273 162.9 L 277 166.9 273 170.9 269 166.9 Z"></path><path fill="#8085e9" d="M 154 161.4 L 158 165.4 154 169.4 150 165.4 Z"></path><path fill="#8085e9" d="M 228 181.5 L 232 185.5 228 189.5 224 185.5 Z"></path><path fill="#8085e9" d="M 76 212.6 L 80 216.6 76 220.6 72 216.6 Z"></path><path fill="#8085e9" d="M 125 173.6 L 129 177.6 125 181.6 121 177.6 Z"></path><path fill="#8085e9" d="M 164 170.9 L 168 174.9 164 178.9 160 174.9 Z"></path><path fill="#8085e9" d="M 174 162.9 L 178 166.9 174 170.9 170 166.9 Z"></path><path fill="#8085e9" d="M 263 186.9 L 267 190.9 263 194.9 259 190.9 Z"></path><path fill="#8085e9" d="M 174 169.4 L 178 173.4 174 177.4 170 173.4 Z"></path><path fill="#8085e9" d="M 263 133.3 L 267 137.3 263 141.3 259 137.3 Z"></path><path fill="#8085e9" d="M 154 173.6 L 158 177.6 154 181.6 150 177.6 Z"></path><path fill="#8085e9" d="M 194 192.5 L 198 196.5 194 200.5 190 196.5 Z"></path><path fill="#8085e9" d="M 135 189.8 L 139 193.8 135 197.8 131 193.8 Z"></path><path fill="#8085e9" d="M 243 193.1 L 247 197.1 243 201.1 239 197.1 Z"></path><path fill="#8085e9" d="M 273 162.9 L 277 166.9 273 170.9 269 166.9 Z"></path><path fill="#8085e9" d="M 174 109.0 L 178 113.0 174 117.0 170 113.0 Z"></path><path fill="#8085e9" d="M 115 178.9 L 119 182.9 115 186.9 111 182.9 Z"></path><path fill="#8085e9" d="M 213 169.4 L 217 173.4 213 177.4 209 173.4 Z"></path><path fill="#8085e9" d="M 213 137.1 L 217 141.1 213 145.1 209 141.1 Z"></path><path fill="#8085e9" d="M 213 160.2 L 217 164.2 213 168.2 209 164.2 Z"></path><path fill="#8085e9" d="M 154 112.9 L 158 116.9 154 120.9 150 116.9 Z"></path><path fill="#8085e9" d="M 233 122.3 L 237 126.3 233 130.3 229 126.3 Z"></path><path fill="#8085e9" d="M 263 186.9 L 267 190.9 263 194.9 259 190.9 Z"></path><path fill="#8085e9" d="M 194 43.0 L 198 47.0 194 51.0 190 47.0 Z"></path><path fill="#8085e9" d="M 154 187.2 L 158 191.2 154 195.2 150 191.2 Z"></path><path fill="#8085e9" d="M 272 180.4 L 276 184.4 272 188.4 268 184.4 Z"></path><path fill="#8085e9" d="M 272 166.7 L 276 170.7 272 174.7 268 170.7 Z"></path><path fill="#8085e9" d="M 233 133.3 L 237 137.3 233 141.3 229 137.3 Z"></path><path fill="#8085e9" d="M 223 164.7 L 227 168.7 223 172.7 219 168.7 Z"></path><path fill="#8085e9" d="M 95 151.9 L 99 155.9 95 159.9 91 155.9 Z"></path><path fill="#8085e9" d="M 174 154.6 L 178 158.6 174 162.6 170 158.6 Z"></path><path fill="#8085e9" d="M 194 95.7 L 198 99.7 194 103.7 190 99.7 Z"></path><path fill="#8085e9" d="M 213 165.6 L 217 169.6 213 173.6 209 169.6 Z"></path><path fill="#8085e9" d="M 213 195.2 L 217 199.2 213 203.2 209 199.2 Z"></path><path fill="#8085e9" d="M 164 142.5 L 168 146.5 164 150.5 160 146.5 Z"></path><path fill="#8085e9" d="M 233 176.2 L 237 180.2 233 184.2 229 180.2 Z"></path><path fill="#8085e9" d="M 233 189.8 L 237 193.8 233 197.8 229 193.8 Z"></path><path fill="#8085e9" d="M 233 162.9 L 237 166.9 233 170.9 229 166.9 Z"></path><path fill="#8085e9" d="M 194 170.9 L 198 174.9 194 178.9 190 174.9 Z"></path><path fill="#8085e9" d="M 253 142.5 L 257 146.5 253 150.5 249 146.5 Z"></path><path fill="#8085e9" d="M 194 111.7 L 198 115.7 194 119.7 190 115.7 Z"></path><path fill="#8085e9" d="M 233 150.8 L 237 154.8 233 158.8 229 154.8 Z"></path><path fill="#8085e9" d="M 95 211.1 L 99 215.1 95 219.1 91 215.1 Z"></path><path fill="#8085e9" d="M 174 189.8 L 178 193.8 174 197.8 170 193.8 Z"></path><path fill="#8085e9" d="M 135 162.9 L 139 166.9 135 170.9 131 166.9 Z"></path><path fill="#8085e9" d="M 154 176.5 L 158 180.5 154 184.5 150 180.5 Z"></path><path fill="#8085e9" d="M 160 185.7 L 164 189.7 160 193.7 156 189.7 Z"></path><path fill="#8085e9" d="M 174 189.8 L 178 193.8 174 197.8 170 193.8 Z"></path><path fill="#8085e9" d="M 213 189.8 L 217 193.8 213 197.8 209 193.8 Z"></path><path fill="#8085e9" d="M 174 142.5 L 178 146.5 174 150.5 170 146.5 Z"></path><path fill="#8085e9" d="M 233 188.4 L 237 192.4 233 196.4 229 192.4 Z"></path><path fill="#8085e9" d="M 154 193.1 L 158 197.1 154 201.1 150 197.1 Z"></path><path fill="#8085e9" d="M 150 193.7 L 154 197.7 150 201.7 146 197.7 Z"></path><path fill="#8085e9" d="M 273 162.9 L 277 166.9 273 170.9 269 166.9 Z"></path><path fill="#8085e9" d="M 223 167.6 L 227 171.6 223 175.6 219 171.6 Z"></path><path fill="#8085e9" d="M 282 133.3 L 286 137.3 282 141.3 278 137.3 Z"></path><path fill="#8085e9" d="M 189 164.1 L 193 168.1 189 172.1 185 168.1 Z"></path><path fill="#8085e9" d="M 174 191.6 L 178 195.6 174 199.6 170 195.6 Z"></path><path fill="#8085e9" d="M 223 183.6 L 227 187.6 223 191.6 219 187.6 Z"></path><path fill="#8085e9" d="M 194 165.6 L 198 169.6 194 173.6 190 169.6 Z"></path><path fill="#8085e9" d="M 194 187.8 L 198 191.8 194 195.8 190 191.8 Z"></path><path fill="#8085e9" d="M 213 162.9 L 217 166.9 213 170.9 209 166.9 Z"></path><path fill="#8085e9" d="M 184 177.7 L 188 181.7 184 185.7 180 181.7 Z"></path><path fill="#8085e9" d="M 135 207.3 L 139 211.3 135 215.3 131 211.3 Z"></path><path fill="#8085e9" d="M 273 157.3 L 277 161.3 273 165.3 269 161.3 Z"></path><path fill="#8085e9" d="M 194 157.3 L 198 161.3 194 165.3 190 161.3 Z"></path><path fill="#8085e9" d="M 213 188.4 L 217 192.4 213 196.4 209 192.4 Z"></path><path fill="#8085e9" d="M 164 181.5 L 168 185.5 164 189.5 160 185.5 Z"></path><path fill="#8085e9" d="M 223 188.4 L 227 192.4 223 196.4 219 192.4 Z"></path><path fill="#8085e9" d="M 253 126.5 L 257 130.5 253 134.5 249 130.5 Z"></path><path fill="#8085e9" d="M 145 205.8 L 149 209.8 145 213.8 141 209.8 Z"></path><path fill="#8085e9" d="M 115 191.0 L 119 195.0 115 199.0 111 195.0 Z"></path><path fill="#8085e9" d="M 273 136.0 L 277 140.0 273 144.0 269 140.0 Z"></path><path fill="#8085e9" d="M 194 178.9 L 198 182.9 194 186.9 190 182.9 Z"></path><path fill="#8085e9" d="M 292 173.6 L 296 177.6 292 181.6 288 177.6 Z"></path><path fill="#8085e9" d="M 194 183.0 L 198 187.0 194 191.0 190 187.0 Z"></path><path fill="#8085e9" d="M 204 141.9 L 208 145.9 204 149.9 200 145.9 Z"></path><path fill="#8085e9" d="M 332 109.0 L 336 113.0 332 117.0 328 113.0 Z"></path><path fill="#8085e9" d="M 194 176.2 L 198 180.2 194 184.2 190 180.2 Z"></path><path fill="#8085e9" d="M 154 185.7 L 158 189.7 154 193.7 150 189.7 Z"></path><path fill="#8085e9" d="M 174 177.7 L 178 181.7 174 185.7 170 181.7 Z"></path><path fill="#8085e9" d="M 248 183.6 L 252 187.6 248 191.6 244 187.6 Z"></path><path fill="#8085e9" d="M 272 153.4 L 276 157.4 272 161.4 268 157.4 Z"></path><path fill="#8085e9" d="M 125 177.7 L 129 181.7 125 185.7 121 181.7 Z"></path><path fill="#8085e9" d="M 213 156.1 L 217 160.1 213 164.1 209 160.1 Z"></path><path fill="#8085e9" d="M 174 169.4 L 178 173.4 174 177.4 170 173.4 Z"></path><path fill="#8085e9" d="M 213 125.0 L 217 129.0 213 133.0 209 129.0 Z"></path><path fill="#8085e9" d="M 253 145.4 L 257 149.4 253 153.4 249 149.4 Z"></path><path fill="#8085e9" d="M 145 186.9 L 149 190.9 145 194.9 141 190.9 Z"></path><path fill="#8085e9" d="M 233 185.7 L 237 189.7 233 193.7 229 189.7 Z"></path><path fill="#8085e9" d="M 174 101.0 L 178 105.0 174 109.0 170 105.0 Z"></path><path fill="#8085e9" d="M 233 146.6 L 237 150.6 233 154.6 229 150.6 Z"></path><path fill="#8085e9" d="M 95 172.4 L 99 176.4 95 180.4 91 176.4 Z"></path><path fill="#8085e9" d="M 154 185.7 L 158 189.7 154 193.7 150 189.7 Z"></path><path fill="#8085e9" d="M 204 188.4 L 208 192.4 204 196.4 200 192.4 Z"></path><path fill="#8085e9" d="M 194 137.1 L 198 141.1 194 145.1 190 141.1 Z"></path><path fill="#8085e9" d="M 174 203.2 L 178 207.2 174 211.2 170 207.2 Z"></path><path fill="#8085e9" d="M 194 161.4 L 198 165.4 194 169.4 190 165.4 Z"></path><path fill="#8085e9" d="M 223 183.0 L 227 187.0 223 191.0 219 187.0 Z"></path><path fill="#8085e9" d="M 154 175.0 L 158 179.0 154 183.0 150 179.0 Z"></path><path fill="#8085e9" d="M 174 164.1 L 178 168.1 174 172.1 170 168.1 Z"></path><path fill="#8085e9" d="M 164 162.9 L 168 166.9 164 170.9 160 166.9 Z"></path><path fill="#8085e9" d="M 135 185.4 L 139 189.4 135 193.4 131 189.4 Z"></path><path fill="#8085e9" d="M 148 197.8 L 152 201.8 148 205.8 144 201.8 Z"></path><path fill="#8085e9" d="M 236 160.2 L 240 164.2 236 168.2 232 164.2 Z"></path><path fill="#8085e9" d="M 153 193.7 L 157 197.7 153 201.7 149 197.7 Z"></path><path fill="#8085e9" d="M 258 195.2 L 262 199.2 258 203.2 254 199.2 Z"></path><path fill="#8085e9" d="M 171 175.9 L 175 179.9 171 183.9 167 179.9 Z"></path><path fill="#8085e9" d="M 123 189.5 L 127 193.5 123 197.5 119 193.5 Z"></path><path fill="#8085e9" d="M 213 180.1 L 217 184.1 213 188.1 209 184.1 Z"></path><path fill="#8085e9" d="M 139 186.9 L 143 190.9 139 194.9 135 190.9 Z"></path><path fill="#8085e9" d="M 209 167.0 L 213 171.0 209 175.0 205 171.0 Z"></path><path fill="#8085e9" d="M 154 206.7 L 158 210.7 154 214.7 150 210.7 Z"></path><path fill="#8085e9" d="M 123 160.5 L 127 164.5 123 168.5 119 164.5 Z"></path><path fill="#8085e9" d="M 140 213.8 L 144 217.8 140 221.8 136 217.8 Z"></path><path fill="#8085e9" d="M 223 172.1 L 227 176.1 223 180.1 219 176.1 Z"></path><path fill="#8085e9" d="M 154 223.3 L 158 227.3 154 231.3 150 227.3 Z"></path><path fill="#8085e9" d="M 154 188.9 L 158 192.9 154 196.9 150 192.9 Z"></path><path fill="#8085e9" d="M 208 174.1 L 212 178.1 208 182.1 204 178.1 Z"></path><path fill="#8085e9" d="M 176 179.5 L 180 183.5 176 187.5 172 183.5 Z"></path><path fill="#8085e9" d="M 161 190.1 L 165 194.1 161 198.1 157 194.1 Z"></path><path fill="#8085e9" d="M 185 191.9 L 189 195.9 185 199.9 181 195.9 Z"></path><path fill="#8085e9" d="M 127 152.2 L 131 156.2 127 160.2 123 156.2 Z"></path><path fill="#8085e9" d="M 116 205.5 L 120 209.5 116 213.5 112 209.5 Z"></path><path fill="#8085e9" d="M 253 167.6 L 257 171.6 253 175.6 249 171.6 Z"></path><path fill="#8085e9" d="M 179 184.2 L 183 188.2 179 192.2 175 188.2 Z"></path><path fill="#8085e9" d="M 135 177.1 L 139 181.1 135 185.1 131 181.1 Z"></path><path fill="#8085e9" d="M 73 218.5 L 77 222.5 73 226.5 69 222.5 Z"></path><path fill="#8085e9" d="M 164 173.0 L 168 177.0 164 181.0 160 177.0 Z"></path><path fill="#8085e9" d="M 171 202.6 L 175 206.6 171 210.6 167 206.6 Z"></path><path fill="#8085e9" d="M 179 191.3 L 183 195.3 179 199.3 175 195.3 Z"></path><path fill="#8085e9" d="M 154 218 L 158 222 154 226 150 222 Z"></path><path fill="#8085e9" d="M 164 187.8 L 168 191.8 164 195.8 160 191.8 Z"></path><path fill="#8085e9" d="M 213 164.7 L 217 168.7 213 172.7 209 168.7 Z"></path><path fill="#8085e9" d="M 150 210.3 L 154 214.3 150 218.3 146 214.3 Z"></path><path fill="#8085e9" d="M 215 176.5 L 219 180.5 215 184.5 211 180.5 Z"></path><path fill="#8085e9" d="M 227 163.5 L 231 167.5 227 171.5 223 167.5 Z"></path><path fill="#8085e9" d="M 181 197.8 L 185 201.8 181 205.8 177 201.8 Z"></path><path fill="#8085e9" d="M 253 39.8 L 257 43.8 253 47.8 249 43.8 Z"></path><path fill="#8085e9" d="M 207 183.6 L 211 187.6 207 191.6 203 187.6 Z"></path><path fill="#8085e9" d="M 220 158.2 L 224 162.2 220 166.2 216 162.2 Z"></path><path fill="#8085e9" d="M 178 138.0 L 182 142.0 178 146.0 174 142.0 Z"></path><path fill="#8085e9" d="M 188 174.1 L 192 178.1 188 182.1 184 178.1 Z"></path><path fill="#8085e9" d="M 294 142.2 L 298 146.2 294 150.2 290 146.2 Z"></path><path fill="#8085e9" d="M 246 184.8 L 250 188.8 246 192.8 242 188.8 Z"></path><path fill="#8085e9" d="M 256 178.3 L 260 182.3 256 186.3 252 182.3 Z"></path><path fill="#8085e9" d="M 223 146.9 L 227 150.9 223 154.9 219 150.9 Z"></path><path fill="#8085e9" d="M 218 193.1 L 222 197.1 218 201.1 214 197.1 Z"></path><path fill="#8085e9" d="M 85 134.5 L 89 138.5 85 142.5 81 138.5 Z"></path><path fill="#8085e9" d="M 162 192.5 L 166 196.5 162 200.5 158 196.5 Z"></path><path fill="#8085e9" d="M 177 175.3 L 181 179.3 177 183.3 173 179.3 Z"></path><path fill="#8085e9" d="M 308 153.4 L 312 157.4 308 161.4 304 157.4 Z"></path><path fill="#8085e9" d="M 147 186.6 L 151 190.6 147 194.6 143 190.6 Z"></path><path fill="#8085e9" d="M 176 180.1 L 180 184.1 176 188.1 172 184.1 Z"></path><path fill="#8085e9" d="M 147 207.3 L 151 211.3 147 215.3 143 211.3 Z"></path><path fill="#8085e9" d="M 174 196.6 L 178 200.6 174 204.6 170 200.6 Z"></path><path fill="#8085e9" d="M 150 215.9 L 154 219.9 150 223.9 146 219.9 Z"></path><path fill="#8085e9" d="M 202 177.7 L 206 181.7 202 185.7 198 181.7 Z"></path><path fill="#8085e9" d="M 224 178.9 L 228 182.9 224 186.9 220 182.9 Z"></path><path fill="#8085e9" d="M 165 163.5 L 169 167.5 165 171.5 161 167.5 Z"></path><path fill="#8085e9" d="M 232 185.7 L 236 189.7 232 193.7 228 189.7 Z"></path><path fill="#8085e9" d="M 256 146.3 L 260 150.3 256 154.3 252 150.3 Z"></path><path fill="#8085e9" d="M 153 203.2 L 157 207.2 153 211.2 149 207.2 Z"></path><path fill="#8085e9" d="M 112 206.1 L 116 210.1 112 214.1 108 210.1 Z"></path><path fill="#8085e9" d="M 179 174.1 L 183 178.1 179 182.1 175 178.1 Z"></path><path fill="#8085e9" d="M 228 194.9 L 232 198.9 228 202.9 224 198.9 Z"></path><path fill="#8085e9" d="M 186 139.2 L 190 143.2 186 147.2 182 143.2 Z"></path><path fill="#8085e9" d="M 234 159.3 L 238 163.3 234 167.3 230 163.3 Z"></path><path fill="#8085e9" d="M 174 178.9 L 178 182.9 174 186.9 170 182.9 Z"></path><path fill="#8085e9" d="M 232 145.7 L 236 149.7 232 153.7 228 149.7 Z"></path><path fill="#8085e9" d="M 280 152.2 L 284 156.2 280 160.2 276 156.2 Z"></path><path fill="#8085e9" d="M 232 142.2 L 236 146.2 232 150.2 228 146.2 Z"></path><path fill="#8085e9" d="M 116 215.3 L 120 219.3 116 223.3 112 219.3 Z"></path><path fill="#8085e9" d="M 164 188.9 L 168 192.9 164 196.9 160 192.9 Z"></path><path fill="#8085e9" d="M 185 186.3 L 189 190.3 185 194.3 181 190.3 Z"></path><path fill="#8085e9" d="M 224 166.2 L 228 170.2 224 174.2 220 170.2 Z"></path><path fill="#8085e9" d="M 92 175.6 L 96 179.6 92 183.6 88 179.6 Z"></path><path fill="#8085e9" d="M 181 203.2 L 185 207.2 181 211.2 177 207.2 Z"></path><path fill="#8085e9" d="M 189 196.3 L 193 200.3 189 204.3 185 200.3 Z"></path><path fill="#8085e9" d="M 85 207.0 L 89 211.0 85 215.0 81 211.0 Z"></path><path fill="#8085e9" d="M 213 186.3 L 217 190.3 213 194.3 209 190.3 Z"></path><path fill="#8085e9" d="M 253 170.3 L 257 174.3 253 178.3 249 174.3 Z"></path><path fill="#8085e9" d="M 263 127.1 L 267 131.1 263 135.1 259 131.1 Z"></path><path fill="#8085e9" d="M 201 193.7 L 205 197.7 201 201.7 197 197.7 Z"></path><path fill="#8085e9" d="M 170 189.2 L 174 193.2 170 197.2 166 193.2 Z"></path><path fill="#8085e9" d="M 162 114.4 L 166 118.4 162 122.4 158 118.4 Z"></path><path fill="#8085e9" d="M 198 134.8 L 202 138.8 198 142.8 194 138.8 Z"></path><path fill="#8085e9" d="M 178 167.6 L 182 171.6 178 175.6 174 171.6 Z"></path><path fill="#8085e9" d="M 154 131.2 L 158 135.2 154 139.2 150 135.2 Z"></path><path fill="#8085e9" d="M 123 195.2 L 127 199.2 123 203.2 119 199.2 Z"></path><path fill="#8085e9" d="M 189 172.7 L 193 176.7 189 180.7 185 176.7 Z"></path><path fill="#8085e9" d="M 193 167.6 L 197 171.6 193 175.6 189 171.6 Z"></path><path fill="#8085e9" d="M 197 173.6 L 201 177.6 197 181.6 193 177.6 Z"></path><path fill="#8085e9" d="M 311 171.5 L 315 175.5 311 179.5 307 175.5 Z"></path><path fill="#8085e9" d="M 219 188.9 L 223 192.9 219 196.9 215 192.9 Z"></path><path fill="#8085e9" d="M 135 190.4 L 139 194.4 135 198.4 131 194.4 Z"></path><path fill="#8085e9" d="M 95 213.5 L 99 217.5 95 221.5 91 217.5 Z"></path><path fill="#8085e9" d="M 179 185.7 L 183 189.7 179 193.7 175 189.7 Z"></path><path fill="#8085e9" d="M 160 146.6 L 164 150.6 160 154.6 156 150.6 Z"></path><path fill="#8085e9" d="M 213 170.6 L 217 174.6 213 178.6 209 174.6 Z"></path><path fill="#8085e9" d="M 135 174.1 L 139 178.1 135 182.1 131 178.1 Z"></path><path fill="#8085e9" d="M 232 135.4 L 236 139.4 232 143.4 228 139.4 Z"></path><path fill="#8085e9" d="M 154 202.6 L 158 206.6 154 210.6 150 206.6 Z"></path><path fill="#8085e9" d="M 194 184.8 L 198 188.8 194 192.8 190 188.8 Z"></path><path fill="#8085e9" d="M 213 178.6 L 217 182.6 213 186.6 209 182.6 Z"></path><path fill="#8085e9" d="M 164 172.7 L 168 176.7 164 180.7 160 176.7 Z"></path><path fill="#8085e9" d="M 154 202.6 L 158 206.6 154 210.6 150 206.6 Z"></path><path fill="#8085e9" d="M 213 189.8 L 217 193.8 213 197.8 209 193.8 Z"></path><path fill="#8085e9" d="M 184 178.0 L 188 182.0 184 186.0 180 182.0 Z"></path><path fill="#8085e9" d="M 223 166.7 L 227 170.7 223 174.7 219 170.7 Z"></path><path fill="#8085e9" d="M 204 183.6 L 208 187.6 204 191.6 200 187.6 Z"></path><path fill="#8085e9" d="M 164 150.2 L 168 154.2 164 158.2 160 154.2 Z"></path><path fill="#8085e9" d="M 156 196.9 L 160 200.9 156 204.9 152 200.9 Z"></path><path fill="#8085e9" d="M 232 134.5 L 236 138.5 232 142.5 228 138.5 Z"></path><path fill="#8085e9" d="M 171 192.5 L 175 196.5 171 200.5 167 196.5 Z"></path><path fill="#8085e9" d="M 92 215.6 L 96 219.6 92 223.6 88 219.6 Z"></path><path fill="#8085e9" d="M 154 190.1 L 158 194.1 154 198.1 150 194.1 Z"></path><path fill="#8085e9" d="M 282 105.5 L 286 109.5 282 113.5 278 109.5 Z"></path><path fill="#8085e9" d="M 170 188.4 L 174 192.4 170 196.4 166 192.4 Z"></path><path fill="#8085e9" d="M 111 214.4 L 115 218.4 111 222.4 107 218.4 Z"></path><path fill="#8085e9" d="M 154 212.0 L 158 216.0 154 220.0 150 216.0 Z"></path><path fill="#8085e9" d="M 236 150.5 L 240 154.5 236 158.5 232 154.5 Z"></path><path fill="#8085e9" d="M 308 151.9 L 312 155.9 308 159.9 304 155.9 Z"></path><path fill="#8085e9" d="M 255 174.1 L 259 178.1 255 182.1 251 178.1 Z"></path><path fill="#8085e9" d="M 263 189.8 L 267 193.8 263 197.8 259 193.8 Z"></path><path fill="#8085e9" d="M 233 135.7 L 237 139.7 233 143.7 229 139.7 Z"></path><path fill="#8085e9" d="M 282 91.3 L 286 95.3 282 99.3 278 95.3 Z"></path><path fill="#8085e9" d="M 207 181.8 L 211 185.8 207 189.8 203 185.8 Z"></path><path fill="#8085e9" d="M 270 107 L 274 111 270 115 266 111 Z"></path><path fill="#8085e9" d="M 150 201.4 L 154 205.4 150 209.4 146 205.4 Z"></path><path fill="#8085e9" d="M 213 147.5 L 217 151.5 213 155.5 209 151.5 Z"></path><path fill="#8085e9" d="M 131 209.7 L 135 213.7 131 217.7 127 213.7 Z"></path><path fill="#8085e9" d="M 270 134.5 L 274 138.5 270 142.5 266 138.5 Z"></path><path fill="#8085e9" d="M 218 205.5 L 222 209.5 218 213.5 214 209.5 Z"></path><path fill="#8085e9" d="M 55 203.7 L 59 207.7 55 211.7 51 207.7 Z"></path><path fill="#8085e9" d="M 154 203.2 L 158 207.2 154 211.2 150 207.2 Z"></path><path fill="#8085e9" d="M 103 226.8 L 107 230.8 103 234.8 99 230.8 Z"></path><path fill="#8085e9" d="M 254 166.2 L 258 170.2 254 174.2 250 170.2 Z"></path><path fill="#8085e9" d="M 239 190.7 L 243 194.7 239 198.7 235 194.7 Z"></path><path fill="#8085e9" d="M 251 187.8 L 255 191.8 251 195.8 247 191.8 Z"></path><path fill="#8085e9" d="M 156 128.6 L 160 132.6 156 136.6 152 132.6 Z"></path><path fill="#8085e9" d="M 280 153.4 L 284 157.4 280 161.4 276 157.4 Z"></path><path fill="#8085e9" d="M 201 144.5 L 205 148.5 201 152.5 197 148.5 Z"></path><path fill="#8085e9" d="M 147 210.3 L 151 214.3 147 218.3 143 214.3 Z"></path><path fill="#8085e9" d="M 232 176.5 L 236 180.5 232 184.5 228 180.5 Z"></path><path fill="#8085e9" d="M 122 192.5 L 126 196.5 122 200.5 118 196.5 Z"></path><path fill="#8085e9" d="M 131 164.7 L 135 168.7 131 172.7 127 168.7 Z"></path><path fill="#8085e9" d="M 150 205.5 L 154 209.5 150 213.5 146 209.5 Z"></path><path fill="#8085e9" d="M 212 176.5 L 216 180.5 212 184.5 208 180.5 Z"></path><path fill="#8085e9" d="M 164 198.4 L 168 202.4 164 206.4 160 202.4 Z"></path></g></g><text x="292" text-anchor="middle" class="highcharts-title"  style="color:black;font-size:16px;font-weight:bold;fill:black;width:520px;" y="22"><tspan>Height vs Weight</tspan></text><text x="292" text-anchor="middle" class="highcharts-subtitle"  style="color:black;fill:black;width:520px;" y="40"><tspan>Polygon series in Highcharts</tspan></text><g class="highcharts-legend"  transform="translate(463,179)"><g ><g><g class="highcharts-legend-item"  transform="translate(8,3)"><text x="21" style="color:#333333;font-size:13px;font-weight:bold;cursor:pointer;fill:#333333;" text-anchor="start"  y="16">Target</text><rect x="0" y="4" width="16" height="13"  fill="rgb(244,91,91)" fill-opacity="0.5"></rect></g><g class="highcharts-legend-item"  transform="translate(8,16)"><path fill="#8085e9" d="M 8 8 L 12 12 8 16 4 12 Z"></path><text x="21" y="16" style="color:#333333;font-size:13px;font-weight:bold;cursor:pointer;fill:#333333;" text-anchor="start" >Observations</text></g></g></g></g><g class="highcharts-axis-labels highcharts-xaxis-labels" ><text x="64" style="color:#6e6e70;cursor:default;font-size:11px;fill:#6e6e70;width:67px;text-overflow:clip;" text-anchor="middle" transform="translate(0,0)" y="368" opacity="1">140</text><text x="141.4" style="color:#6e6e70;cursor:default;font-size:11px;fill:#6e6e70;width:67px;text-overflow:clip;" text-anchor="middle" transform="translate(0,0)" y="368" opacity="1">150</text><text x="218.8" style="color:#6e6e70;cursor:default;font-size:11px;fill:#6e6e70;width:67px;text-overflow:clip;" text-anchor="middle" transform="translate(0,0)" y="368" opacity="1">160</text><text x="296.2" style="color:#6e6e70;cursor:default;font-size:11px;fill:#6e6e70;width:67px;text-overflow:clip;" text-anchor="middle" transform="translate(0,0)" y="368" opacity="1">170</text><text x="373.6" style="color:#6e6e70;cursor:default;font-size:11px;fill:#6e6e70;width:67px;text-overflow:clip;" text-anchor="middle" transform="translate(0,0)" y="368" opacity="1">180</text><text x="451" style="color:#6e6e70;cursor:default;font-size:11px;fill:#6e6e70;width:67px;text-overflow:clip;" text-anchor="middle" transform="translate(0,0)" y="368" opacity="1">190</text></g><g class="highcharts-axis-labels highcharts-yaxis-labels" ><text x="49" style="color:#6e6e70;cursor:default;font-size:11px;fill:#6e6e70;width:183px;text-overflow:clip;" text-anchor="end" transform="translate(0,0)" y="355" opacity="1">20</text><text x="49" style="color:#6e6e70;cursor:default;font-size:11px;fill:#6e6e70;width:183px;text-overflow:clip;" text-anchor="end" transform="translate(0,0)" y="295" opacity="1">40</text><text x="49" style="color:#6e6e70;cursor:default;font-size:11px;fill:#6e6e70;width:183px;text-overflow:clip;" text-anchor="end" transform="translate(0,0)" y="236" opacity="1">60</text><text x="49" style="color:#6e6e70;cursor:default;font-size:11px;fill:#6e6e70;width:183px;text-overflow:clip;" text-anchor="end" transform="translate(0,0)" y="177" opacity="1">80</text><text x="49" style="color:#6e6e70;cursor:default;font-size:11px;fill:#6e6e70;width:183px;text-overflow:clip;" text-anchor="end" transform="translate(0,0)" y="118" opacity="1">100</text><text x="49" style="color:#6e6e70;cursor:default;font-size:11px;fill:#6e6e70;width:183px;text-overflow:clip;" text-anchor="end" transform="translate(0,0)" y="59" opacity="1">120</text></g><g class="highcharts-tooltip"  style="cursor:default;padding:0;white-space:nowrap;" transform="translate(0,-9999)"><path fill="none" d="M 3 0 L 13 0 C 16 0 16 0 16 3 L 16 13 C 16 16 16 16 13 16 L 3 16 C 0 16 0 16 0 13 L 0 3 C 0 0 0 0 3 0"  stroke="black" stroke-opacity="0.0" stroke-width="5" transform="translate(1, 1)"></path><path fill="none" d="M 3 0 L 13 0 C 16 0 16 0 16 3 L 16 13 C 16 16 16 16 13 16 L 3 16 C 0 16 0 16 0 13 L 0 3 C 0 0 0 0 3 0"  stroke="black" stroke-opacity="0.0" stroke-width="3" transform="translate(1, 1)"></path><path fill="none" d="M 3 0 L 13 0 C 16 0 16 0 16 3 L 16 13 C 16 16 16 16 13 16 L 3 16 C 0 16 0 16 0 13 L 0 3 C 0 0 0 0 3 0"  stroke="black" stroke-opacity="0.1" stroke-width="1" transform="translate(1, 1)"></path><path fill="rgb(249, 249, 249)" fill-opacity=" .85" d="M 3 0 L 13 0 C 16 0 16 0 16 3 L 16 13 C 16 16 16 16 13 16 L 3 16 C 0 16 0 16 0 13 L 0 3 C 0 0 0 0 3 0"></path><text x="8"  style="font-size:12px;color:#333333;fill:#333333;" y="20"></text></g></svg>