<svg version="1.1" style="font-family:&quot;lucida grande&quot;, &quot;lucida sans unicode&quot;, arial, helvetica, sans-serif;font-size:12px;" xmlns="http://www.w3.org/2000/svg" width="584" height="400" viewBox="0 0 584 400"><desc>Created with Highcharts 4.1.7</desc><defs><clipPath id="highcharts-1"><rect x="0" y="0" width="373" height="284"></rect></clipPath><clipPath id="highcharts-2"><rect x="-99" y="-61" width="472" height="400"></rect></clipPath><clipPath id="highcharts-3"><rect x="0" y="0" width="373" height="284"></rect></clipPath></defs><rect x="0" y="0" width="584" height="400" strokeWidth="0" fill="#FFFFFF" class=" highcharts-background" stroke="transparent"></rect><g class="highcharts-grid" ><path fill="none" d="M 69.5 61 L 69.5 345" stroke="#D8D8D8" stroke-width="1"  opacity="1"></path><path fill="none" d="M 144.5 61 L 144.5 345" stroke="#D8D8D8" stroke-width="1"  opacity="1"></path><path fill="none" d="M 218.5 61 L 218.5 345" stroke="#D8D8D8" stroke-width="1"  opacity="1"></path><path fill="none" d="M 293.5 61 L 293.5 345" stroke="#D8D8D8" stroke-width="1"  opacity="1"></path><path fill="none" d="M 367.5 61 L 367.5 345" stroke="#D8D8D8" stroke-width="1"  opacity="1"></path><path fill="none" d="M 443.5 61 L 443.5 345" stroke="#D8D8D8" stroke-width="1"  opacity="1"></path></g><g class="highcharts-grid" ><path fill="none" d="M 70 345.5 L 443 345.5" stroke="#D8D8D8" stroke-width="1"  opacity="1"></path><path fill="none" d="M 70 288.5 L 443 288.5" stroke="#D8D8D8" stroke-width="1"  opacity="1"></path><path fill="none" d="M 70 231.5 L 443 231.5" stroke="#D8D8D8" stroke-width="1"  opacity="1"></path><path fill="none" d="M 70 175.5 L 443 175.5" stroke="#D8D8D8" stroke-width="1"  opacity="1"></path><path fill="none" d="M 70 118.5 L 443 118.5" stroke="#D8D8D8" stroke-width="1"  opacity="1"></path><path fill="none" d="M 70 60.5 L 443 60.5" stroke="#D8D8D8" stroke-width="1"  opacity="1"></path></g><g class="highcharts-axis" ><path fill="none" d="M 69.5 345 L 69.5 355" stroke="#C0D0E0" stroke-width="1" opacity="1"></path><path fill="none" d="M 144.5 345 L 144.5 355" stroke="#C0D0E0" stroke-width="1" opacity="1"></path><path fill="none" d="M 218.5 345 L 218.5 355" stroke="#C0D0E0" stroke-width="1" opacity="1"></path><path fill="none" d="M 293.5 345 L 293.5 355" stroke="#C0D0E0" stroke-width="1" opacity="1"></path><path fill="none" d="M 367.5 345 L 367.5 355" stroke="#C0D0E0" stroke-width="1" opacity="1"></path><path fill="none" d="M 443.5 345 L 443.5 355" stroke="#C0D0E0" stroke-width="1" opacity="1"></path><text x="256.5"  text-anchor="middle" transform="translate(0,0)" class=" highcharts-xaxis-title" style="color:#707070;fill:#707070;" visibility="visible" y="382.9"><tspan>Height (cm)</tspan></text><path fill="none" d="M 70 345.5 L 443 345.5" stroke="#C0D0E0" stroke-width="1"  visibility="visible"></path></g><g class="highcharts-axis" ><text x="24.1"  text-anchor="middle" transform="translate(0,0) rotate(270 24.1 203)" class=" highcharts-yaxis-title" style="color:#707070;fill:#707070;" visibility="visible" y="203"><tspan>Weight (kg)</tspan></text></g><g class="highcharts-series-group" ><g class="highcharts-series" visibility="visible"  transform="translate(70,61) scale(1 1)" clip-path="url(#highcharts-3)"><path fill="rgb(124,181,236)" fill-opacity="0.5" d="M 96.9 221.5 L 67.1 210.1 L 67.1 184.6 L 89.5 170.4 L 141.7 142 L 223.8 122.1 L 298.4 142 L 298.4 170.4 L 246.1 193.1 L 193.9 213 z"  stroke-linejoin="round" stroke-linecap="round"></path></g><g class="highcharts-markers" visibility="visible"  transform="translate(70,61) scale(1 1)" clip-path="url(#highcharts-2)"></g><g class="highcharts-series highcharts-tracker" visibility="visible"  transform="translate(70,61) scale(1 1)" clip-path="url(#highcharts-3)" style=""></g><g class="highcharts-markers highcharts-tracker" visibility="visible"  transform="translate(70,61) scale(1 1)" clip-path="url(#highcharts-2)" style=""><path fill="#434348" d="M 177 145.6 L 181 149.6 177 153.6 173 149.6 Z"></path><path fill="#434348" d="M 253 148.2 L 257 152.2 253 156.2 249 152.2 Z"></path><path fill="#434348" d="M 154 198.7 L 158 202.7 154 206.7 150 202.7 Z"></path><path fill="#434348" d="M 182 179.1 L 186 183.1 182 187.1 178 183.1 Z"></path><path fill="#434348" d="M 272 132.8 L 276 136.8 272 140.8 268 136.8 Z"></path><path fill="#434348" d="M 130 118.6 L 134 122.6 130 126.6 126 122.6 Z"></path><path fill="#434348" d="M 168 162.4 L 172 166.4 168 170.4 164 166.4 Z"></path><path fill="#434348" d="M 243 143.1 L 247 147.1 243 151.1 239 147.1 Z"></path><path fill="#434348" d="M 149 122.3 L 153 126.3 149 130.3 145 126.3 Z"></path><path fill="#434348" d="M 220 145.6 L 224 149.6 220 153.6 216 149.6 Z"></path><path fill="#434348" d="M 263 156.1 L 267 160.1 263 164.1 259 160.1 Z"></path><path fill="#434348" d="M 149 154.7 L 153 158.7 149 162.7 145 158.7 Z"></path><path fill="#434348" d="M 220 174.0 L 224 178.0 220 182.0 216 178.0 Z"></path><path fill="#434348" d="M 73 203.8 L 77 207.8 73 211.8 69 207.8 Z"></path><path fill="#434348" d="M 120 166.4 L 124 170.4 120 174.4 116 170.4 Z"></path><path fill="#434348" d="M 158 163.8 L 162 167.8 158 171.8 154 167.8 Z"></path><path fill="#434348" d="M 168 156.1 L 172 160.1 168 164.1 164 160.1 Z"></path><path fill="#434348" d="M 253 179.1 L 257 183.1 253 187.1 249 183.1 Z"></path><path fill="#434348" d="M 168 162.4 L 172 166.4 168 170.4 164 166.4 Z"></path><path fill="#434348" d="M 253 127.7 L 257 131.7 253 135.7 249 131.7 Z"></path><path fill="#434348" d="M 149 166.4 L 153 170.4 149 174.4 145 170.4 Z"></path><path fill="#434348" d="M 187 184.5 L 191 188.5 187 192.5 183 188.5 Z"></path><path fill="#434348" d="M 130 182.0 L 134 186.0 130 190.0 126 186.0 Z"></path><path fill="#434348" d="M 234 185.1 L 238 189.1 234 193.1 230 189.1 Z"></path><path fill="#434348" d="M 263 156.1 L 267 160.1 263 164.1 259 160.1 Z"></path><path fill="#434348" d="M 168 104.4 L 172 108.4 168 112.4 164 108.4 Z"></path><path fill="#434348" d="M 111 171.5 L 115 175.5 111 179.5 107 175.5 Z"></path><path fill="#434348" d="M 205 162.4 L 209 166.4 205 170.4 201 166.4 Z"></path><path fill="#434348" d="M 205 131.4 L 209 135.4 205 139.4 201 135.4 Z"></path><path fill="#434348" d="M 205 153.6 L 209 157.6 205 161.6 201 157.6 Z"></path><path fill="#434348" d="M 149 108.1 L 153 112.1 149 116.1 145 112.1 Z"></path><path fill="#434348" d="M 225 117.2 L 229 121.2 225 125.2 221 121.2 Z"></path><path fill="#434348" d="M 253 179.1 L 257 183.1 253 187.1 249 183.1 Z"></path><path fill="#434348" d="M 187 41.1 L 191 45.1 187 49.1 183 45.1 Z"></path><path fill="#434348" d="M 149 179.4 L 153 183.4 149 187.4 145 183.4 Z"></path><path fill="#434348" d="M 262 172.9 L 266 176.9 262 180.9 258 176.9 Z"></path><path fill="#434348" d="M 262 159.8 L 266 163.8 262 167.8 258 163.8 Z"></path><path fill="#434348" d="M 225 127.7 L 229 131.7 225 135.7 221 131.7 Z"></path><path fill="#434348" d="M 215 157.8 L 219 161.8 215 165.8 211 161.8 Z"></path><path fill="#434348" d="M 92 145.6 L 96 149.6 92 153.6 88 149.6 Z"></path><path fill="#434348" d="M 168 148.2 L 172 152.2 168 156.2 164 152.2 Z"></path><path fill="#434348" d="M 187 91.7 L 191 95.7 187 99.7 183 95.7 Z"></path><path fill="#434348" d="M 205 158.7 L 209 162.7 205 166.7 201 162.7 Z"></path><path fill="#434348" d="M 205 187.1 L 209 191.1 205 195.1 201 191.1 Z"></path><path fill="#434348" d="M 158 136.5 L 162 140.5 158 144.5 154 140.5 Z"></path><path fill="#434348" d="M 225 168.9 L 229 172.9 225 176.9 221 172.9 Z"></path><path fill="#434348" d="M 225 182.0 L 229 186.0 225 190.0 221 186.0 Z"></path><path fill="#434348" d="M 225 156.1 L 229 160.1 225 164.1 221 160.1 Z"></path><path fill="#434348" d="M 187 163.8 L 191 167.8 187 171.8 183 167.8 Z"></path><path fill="#434348" d="M 243 136.5 L 247 140.5 243 144.5 239 140.5 Z"></path><path fill="#434348" d="M 187 107.0 L 191 111.0 187 115.0 183 111.0 Z"></path><path fill="#434348" d="M 225 144.5 L 229 148.5 225 152.5 221 148.5 Z"></path><path fill="#434348" d="M 92 202.4 L 96 206.4 92 210.4 88 206.4 Z"></path><path fill="#434348" d="M 168 182.0 L 172 186.0 168 190.0 164 186.0 Z"></path><path fill="#434348" d="M 130 156.1 L 134 160.1 130 164.1 126 160.1 Z"></path><path fill="#434348" d="M 149 169.2 L 153 173.2 149 177.2 145 173.2 Z"></path><path fill="#434348" d="M 154 178.0 L 158 182.0 154 186.0 150 182.0 Z"></path><path fill="#434348" d="M 168 182.0 L 172 186.0 168 190.0 164 186.0 Z"></path><path fill="#434348" d="M 205 182.0 L 209 186.0 205 190.0 201 186.0 Z"></path><path fill="#434348" d="M 168 136.5 L 172 140.5 168 144.5 164 140.5 Z"></path><path fill="#434348" d="M 225 180.6 L 229 184.6 225 188.6 221 184.6 Z"></path><path fill="#434348" d="M 149 185.1 L 153 189.1 149 193.1 145 189.1 Z"></path><path fill="#434348" d="M 144 185.7 L 148 189.7 144 193.7 140 189.7 Z"></path><path fill="#434348" d="M 263 156.1 L 267 160.1 263 164.1 259 160.1 Z"></path><path fill="#434348" d="M 215 160.7 L 219 164.7 215 168.7 211 164.7 Z"></path><path fill="#434348" d="M 272 127.7 L 276 131.7 272 135.7 268 131.7 Z"></path><path fill="#434348" d="M 182 157.3 L 186 161.3 182 165.3 178 161.3 Z"></path><path fill="#434348" d="M 168 183.7 L 172 187.7 168 191.7 164 187.7 Z"></path><path fill="#434348" d="M 215 176.0 L 219 180.0 215 184.0 211 180.0 Z"></path><path fill="#434348" d="M 187 158.7 L 191 162.7 187 166.7 183 162.7 Z"></path><path fill="#434348" d="M 187 180.0 L 191 184.0 187 188.0 183 184.0 Z"></path><path fill="#434348" d="M 205 156.1 L 209 160.1 205 164.1 201 160.1 Z"></path><path fill="#434348" d="M 177 170.3 L 181 174.3 177 178.3 173 174.3 Z"></path><path fill="#434348" d="M 130 198.7 L 134 202.7 130 206.7 126 202.7 Z"></path><path fill="#434348" d="M 263 150.7 L 267 154.7 263 158.7 259 154.7 Z"></path><path fill="#434348" d="M 187 150.7 L 191 154.7 187 158.7 183 154.7 Z"></path><path fill="#434348" d="M 205 180.6 L 209 184.6 205 188.6 201 184.6 Z"></path><path fill="#434348" d="M 158 174.0 L 162 178.0 158 182.0 154 178.0 Z"></path><path fill="#434348" d="M 215 180.6 L 219 184.6 215 188.6 211 184.6 Z"></path><path fill="#434348" d="M 243 121.2 L 247 125.2 243 129.2 239 125.2 Z"></path><path fill="#434348" d="M 140 197.3 L 144 201.3 140 205.3 136 201.3 Z"></path><path fill="#434348" d="M 111 183.1 L 115 187.1 111 191.1 107 187.1 Z"></path><path fill="#434348" d="M 263 130.3 L 267 134.3 263 138.3 259 134.3 Z"></path><path fill="#434348" d="M 187 171.5 L 191 175.5 187 179.5 183 175.5 Z"></path><path fill="#434348" d="M 281 166.4 L 285 170.4 281 174.4 277 170.4 Z"></path><path fill="#434348" d="M 187 175.4 L 191 179.4 187 183.4 183 179.4 Z"></path><path fill="#434348" d="M 196 136.0 L 200 140.0 196 144.0 192 140.0 Z"></path><path fill="#434348" d="M 320 104.4 L 324 108.4 320 112.4 316 108.4 Z"></path><path fill="#434348" d="M 187 168.9 L 191 172.9 187 176.9 183 172.9 Z"></path><path fill="#434348" d="M 149 178.0 L 153 182.0 149 186.0 145 182.0 Z"></path><path fill="#434348" d="M 168 170.3 L 172 174.3 168 178.3 164 174.3 Z"></path><path fill="#434348" d="M 239 176.0 L 243 180.0 239 184.0 235 180.0 Z"></path><path fill="#434348" d="M 262 147.0 L 266 151.0 262 155.0 258 151.0 Z"></path><path fill="#434348" d="M 120 170.3 L 124 174.3 120 178.3 116 174.3 Z"></path><path fill="#434348" d="M 205 149.6 L 209 153.6 205 157.6 201 153.6 Z"></path><path fill="#434348" d="M 168 162.4 L 172 166.4 168 170.4 164 166.4 Z"></path><path fill="#434348" d="M 205 119.8 L 209 123.8 205 127.8 201 123.8 Z"></path><path fill="#434348" d="M 243 139.4 L 247 143.4 243 147.4 239 143.4 Z"></path><path fill="#434348" d="M 140 179.1 L 144 183.1 140 187.1 136 183.1 Z"></path><path fill="#434348" d="M 225 178.0 L 229 182.0 225 186.0 221 182.0 Z"></path><path fill="#434348" d="M 168 96.8 L 172 100.8 168 104.8 164 100.8 Z"></path><path fill="#434348" d="M 225 140.5 L 229 144.5 225 148.5 221 144.5 Z"></path><path fill="#434348" d="M 92 165.2 L 96 169.2 92 173.2 88 169.2 Z"></path><path fill="#434348" d="M 149 178.0 L 153 182.0 149 186.0 145 182.0 Z"></path><path fill="#434348" d="M 196 180.6 L 200 184.6 196 188.6 192 184.6 Z"></path><path fill="#434348" d="M 187 131.4 L 191 135.4 187 139.4 183 135.4 Z"></path><path fill="#434348" d="M 168 194.8 L 172 198.8 168 202.8 164 198.8 Z"></path><path fill="#434348" d="M 187 154.7 L 191 158.7 187 162.7 183 158.7 Z"></path><path fill="#434348" d="M 215 175.4 L 219 179.4 215 183.4 211 179.4 Z"></path><path fill="#434348" d="M 149 167.8 L 153 171.8 149 175.8 145 171.8 Z"></path><path fill="#434348" d="M 168 157.3 L 172 161.3 168 165.3 164 161.3 Z"></path><path fill="#434348" d="M 158 156.1 L 162 160.1 158 164.1 154 160.1 Z"></path><path fill="#434348" d="M 130 177.7 L 134 181.7 130 185.7 126 181.7 Z"></path><path fill="#434348" d="M 143 189.6 L 147 193.6 143 197.6 139 193.6 Z"></path><path fill="#434348" d="M 227 153.6 L 231 157.6 227 161.6 223 157.6 Z"></path><path fill="#434348" d="M 147 185.7 L 151 189.7 147 193.7 143 189.7 Z"></path><path fill="#434348" d="M 249 187.1 L 253 191.1 249 195.1 245 191.1 Z"></path><path fill="#434348" d="M 164 168.6 L 168 172.6 164 176.6 160 172.6 Z"></path><path fill="#434348" d="M 119 181.7 L 123 185.7 119 189.7 115 185.7 Z"></path><path fill="#434348" d="M 205 172.6 L 209 176.6 205 180.6 201 176.6 Z"></path><path fill="#434348" d="M 134 179.1 L 138 183.1 134 187.1 130 183.1 Z"></path><path fill="#434348" d="M 202 160.1 L 206 164.1 202 168.1 198 164.1 Z"></path><path fill="#434348" d="M 149 198.2 L 153 202.2 149 206.2 145 202.2 Z"></path><path fill="#434348" d="M 119 153.9 L 123 157.9 119 161.9 115 157.9 Z"></path><path fill="#434348" d="M 135 205.0 L 139 209.0 135 213.0 131 209.0 Z"></path><path fill="#434348" d="M 215 164.9 L 219 168.9 215 172.9 211 168.9 Z"></path><path fill="#434348" d="M 149 214.1 L 153 218.1 149 222.1 145 218.1 Z"></path><path fill="#434348" d="M 149 181.1 L 153 185.1 149 189.1 145 185.1 Z"></path><path fill="#434348" d="M 201 166.9 L 205 170.9 201 174.9 197 170.9 Z"></path><path fill="#434348" d="M 170 172.0 L 174 176.0 170 180.0 166 176.0 Z"></path><path fill="#434348" d="M 155 182.3 L 159 186.3 155 190.3 151 186.3 Z"></path><path fill="#434348" d="M 179 184.0 L 183 188.0 179 192.0 175 188.0 Z"></path><path fill="#434348" d="M 123 145.9 L 127 149.9 123 153.9 119 149.9 Z"></path><path fill="#434348" d="M 111 197.0 L 115 201.0 111 205.0 107 201.0 Z"></path><path fill="#434348" d="M 243 160.7 L 247 164.7 243 168.7 239 164.7 Z"></path><path fill="#434348" d="M 173 176.6 L 177 180.6 173 184.6 169 180.6 Z"></path><path fill="#434348" d="M 130 169.8 L 134 173.8 130 177.8 126 173.8 Z"></path><path fill="#434348" d="M 70 209.5 L 74 213.5 70 217.5 66 213.5 Z"></path><path fill="#434348" d="M 158 165.8 L 162 169.8 158 173.8 154 169.8 Z"></path><path fill="#434348" d="M 165 194.2 L 169 198.2 165 202.2 161 198.2 Z"></path><path fill="#434348" d="M 173 183.4 L 177 187.4 173 191.4 169 187.4 Z"></path><path fill="#434348" d="M 149 209 L 153 213 149 217 145 213 Z"></path><path fill="#434348" d="M 158 180.0 L 162 184.0 158 188.0 154 184.0 Z"></path><path fill="#434348" d="M 205 157.8 L 209 161.8 205 165.8 201 161.8 Z"></path><path fill="#434348" d="M 145 201.6 L 149 205.6 145 209.6 141 205.6 Z"></path><path fill="#434348" d="M 207 169.2 L 211 173.2 207 177.2 203 173.2 Z"></path><path fill="#434348" d="M 219 156.7 L 223 160.7 219 164.7 215 160.7 Z"></path><path fill="#434348" d="M 175 189.6 L 179 193.6 175 197.6 171 193.6 Z"></path><path fill="#434348" d="M 243 38.0 L 247 42.0 243 46.0 239 42.0 Z"></path><path fill="#434348" d="M 199 176.0 L 203 180.0 199 184.0 195 180.0 Z"></path><path fill="#434348" d="M 212 151.6 L 216 155.6 212 159.6 208 155.6 Z"></path><path fill="#434348" d="M 171 132.3 L 175 136.3 171 140.3 167 136.3 Z"></path><path fill="#434348" d="M 181 166.9 L 185 170.9 181 174.9 177 170.9 Z"></path><path fill="#434348" d="M 283 136.2 L 287 140.2 283 144.2 279 140.2 Z"></path><path fill="#434348" d="M 237 177.1 L 241 181.1 237 185.1 233 181.1 Z"></path><path fill="#434348" d="M 247 170.9 L 251 174.9 247 178.9 243 174.9 Z"></path><path fill="#434348" d="M 215 140.8 L 219 144.8 215 148.8 211 144.8 Z"></path><path fill="#434348" d="M 210 185.1 L 214 189.1 210 193.1 206 189.1 Z"></path><path fill="#434348" d="M 82 128.9 L 86 132.9 82 136.9 78 132.9 Z"></path><path fill="#434348" d="M 156 184.5 L 160 188.5 156 192.5 152 188.5 Z"></path><path fill="#434348" d="M 170 168.1 L 174 172.1 170 176.1 166 172.1 Z"></path><path fill="#434348" d="M 296 147.0 L 300 151.0 296 155.0 292 151.0 Z"></path><path fill="#434348" d="M 141 178.8 L 145 182.8 141 186.8 137 182.8 Z"></path><path fill="#434348" d="M 170 172.6 L 174 176.6 170 180.6 166 176.6 Z"></path><path fill="#434348" d="M 141 198.7 L 145 202.7 141 206.7 137 202.7 Z"></path><path fill="#434348" d="M 167 188.5 L 171 192.5 167 196.5 163 192.5 Z"></path><path fill="#434348" d="M 144 207.0 L 148 211.0 144 215.0 140 211.0 Z"></path><path fill="#434348" d="M 195 170.3 L 199 174.3 195 178.3 191 174.3 Z"></path><path fill="#434348" d="M 216 171.5 L 220 175.5 216 179.5 212 175.5 Z"></path><path fill="#434348" d="M 159 156.7 L 163 160.7 159 164.7 155 160.7 Z"></path><path fill="#434348" d="M 223 178.0 L 227 182.0 223 186.0 219 182.0 Z"></path><path fill="#434348" d="M 247 140.2 L 251 144.2 247 148.2 243 144.2 Z"></path><path fill="#434348" d="M 147 194.8 L 151 198.8 147 202.8 143 198.8 Z"></path><path fill="#434348" d="M 108 197.6 L 112 201.6 108 205.6 104 201.6 Z"></path><path fill="#434348" d="M 173 166.9 L 177 170.9 173 174.9 169 170.9 Z"></path><path fill="#434348" d="M 220 186.8 L 224 190.8 220 194.8 216 190.8 Z"></path><path fill="#434348" d="M 179 133.4 L 183 137.4 179 141.4 175 137.4 Z"></path><path fill="#434348" d="M 226 152.7 L 230 156.7 226 160.7 222 156.7 Z"></path><path fill="#434348" d="M 167 171.5 L 171 175.5 167 179.5 163 175.5 Z"></path><path fill="#434348" d="M 223 139.7 L 227 143.7 223 147.7 219 143.7 Z"></path><path fill="#434348" d="M 270 145.9 L 274 149.9 270 153.9 266 149.9 Z"></path><path fill="#434348" d="M 223 136.2 L 227 140.2 223 144.2 219 140.2 Z"></path><path fill="#434348" d="M 111 206.4 L 115 210.4 111 214.4 107 210.4 Z"></path><path fill="#434348" d="M 158 181.1 L 162 185.1 158 189.1 154 185.1 Z"></path><path fill="#434348" d="M 179 178.6 L 183 182.6 179 186.6 175 182.6 Z"></path><path fill="#434348" d="M 216 159.3 L 220 163.3 216 167.3 212 163.3 Z"></path><path fill="#434348" d="M 89 168.3 L 93 172.3 89 176.3 85 172.3 Z"></path><path fill="#434348" d="M 175 194.8 L 179 198.8 175 202.8 171 198.8 Z"></path><path fill="#434348" d="M 182 188.2 L 186 192.2 182 196.2 178 192.2 Z"></path><path fill="#434348" d="M 82 198.4 L 86 202.4 82 206.4 78 202.4 Z"></path><path fill="#434348" d="M 205 178.6 L 209 182.6 205 186.6 201 182.6 Z"></path><path fill="#434348" d="M 243 163.2 L 247 167.2 243 171.2 239 167.2 Z"></path><path fill="#434348" d="M 253 121.8 L 257 125.8 253 129.8 249 125.8 Z"></path><path fill="#434348" d="M 193 185.7 L 197 189.7 193 193.7 189 189.7 Z"></path><path fill="#434348" d="M 164 181.4 L 168 185.4 164 189.4 160 185.4 Z"></path><path fill="#434348" d="M 156 109.6 L 160 113.6 156 117.6 152 113.6 Z"></path><path fill="#434348" d="M 191 129.1 L 195 133.1 191 137.1 187 133.1 Z"></path><path fill="#434348" d="M 171 160.7 L 175 164.7 171 168.7 167 164.7 Z"></path><path fill="#434348" d="M 149 125.7 L 153 129.7 149 133.7 145 129.7 Z"></path><path fill="#434348" d="M 119 187.1 L 123 191.1 119 195.1 115 191.1 Z"></path><path fill="#434348" d="M 182 165.5 L 186 169.5 182 173.5 178 169.5 Z"></path><path fill="#434348" d="M 186 160.7 L 190 164.7 186 168.7 182 164.7 Z"></path><path fill="#434348" d="M 190 166.4 L 194 170.4 190 174.4 186 170.4 Z"></path><path fill="#434348" d="M 300 164.4 L 304 168.4 300 172.4 296 168.4 Z"></path><path fill="#434348" d="M 211 181.1 L 215 185.1 211 189.1 207 185.1 Z"></path><path fill="#434348" d="M 130 182.5 L 134 186.5 130 190.5 126 186.5 Z"></path><path fill="#434348" d="M 92 204.7 L 96 208.7 92 212.7 88 208.7 Z"></path><path fill="#434348" d="M 173 178.0 L 177 182.0 173 186.0 169 182.0 Z"></path><path fill="#434348" d="M 154 140.5 L 158 144.5 154 148.5 150 144.5 Z"></path><path fill="#434348" d="M 205 163.5 L 209 167.5 205 171.5 201 167.5 Z"></path><path fill="#434348" d="M 130 166.9 L 134 170.9 130 174.9 126 170.9 Z"></path><path fill="#434348" d="M 223 129.7 L 227 133.7 223 137.7 219 133.7 Z"></path><path fill="#434348" d="M 149 194.2 L 153 198.2 149 202.2 145 198.2 Z"></path><path fill="#434348" d="M 187 177.1 L 191 181.1 187 185.1 183 181.1 Z"></path><path fill="#434348" d="M 205 171.2 L 209 175.2 205 179.2 201 175.2 Z"></path><path fill="#434348" d="M 158 165.5 L 162 169.5 158 173.5 154 169.5 Z"></path><path fill="#434348" d="M 149 194.2 L 153 198.2 149 202.2 145 198.2 Z"></path><path fill="#434348" d="M 205 182.0 L 209 186.0 205 190.0 201 186.0 Z"></path><path fill="#434348" d="M 177 170.6 L 181 174.6 177 178.6 173 174.6 Z"></path><path fill="#434348" d="M 215 159.8 L 219 163.8 215 167.8 211 163.8 Z"></path><path fill="#434348" d="M 196 176.0 L 200 180.0 196 184.0 192 180.0 Z"></path><path fill="#434348" d="M 158 143.9 L 162 147.9 158 151.9 154 147.9 Z"></path><path fill="#434348" d="M 150 188.8 L 154 192.8 150 196.8 146 192.8 Z"></path><path fill="#434348" d="M 223 128.9 L 227 132.9 223 136.9 219 132.9 Z"></path><path fill="#434348" d="M 164 184.5 L 168 188.5 164 192.5 160 188.5 Z"></path><path fill="#434348" d="M 89 206.7 L 93 210.7 89 214.7 85 210.7 Z"></path><path fill="#434348" d="M 149 182.3 L 153 186.3 149 190.3 145 186.3 Z"></path><path fill="#434348" d="M 272 101.0 L 276 105.0 272 109.0 268 105.0 Z"></path><path fill="#434348" d="M 164 180.6 L 168 184.6 164 188.6 160 184.6 Z"></path><path fill="#434348" d="M 107 205.5 L 111 209.5 107 213.5 103 209.5 Z"></path><path fill="#434348" d="M 149 203.3 L 153 207.3 149 211.3 145 207.3 Z"></path><path fill="#434348" d="M 227 144.2 L 231 148.2 227 152.2 223 148.2 Z"></path><path fill="#434348" d="M 297 145.6 L 301 149.6 297 153.6 293 149.6 Z"></path><path fill="#434348" d="M 246 166.9 L 250 170.9 246 174.9 242 170.9 Z"></path><path fill="#434348" d="M 253 182.0 L 257 186.0 253 190.0 249 186.0 Z"></path><path fill="#434348" d="M 225 130.0 L 229 134.0 225 138.0 221 134.0 Z"></path><path fill="#434348" d="M 272 87.4 L 276 91.4 272 95.4 268 91.4 Z"></path><path fill="#434348" d="M 199 174.3 L 203 178.3 199 182.3 195 178.3 Z"></path><path fill="#434348" d="M 261 102.5 L 265 106.5 261 110.5 257 106.5 Z"></path><path fill="#434348" d="M 145 193.0 L 149 197.0 145 201.0 141 197.0 Z"></path><path fill="#434348" d="M 205 141.4 L 209 145.4 205 149.4 201 145.4 Z"></path><path fill="#434348" d="M 126 201.0 L 130 205.0 126 209.0 122 205.0 Z"></path><path fill="#434348" d="M 261 128.9 L 265 132.9 261 136.9 257 132.9 Z"></path><path fill="#434348" d="M 210 197.0 L 214 201.0 210 205.0 206 201.0 Z"></path><path fill="#434348" d="M 53 195.3 L 57 199.3 53 203.3 49 199.3 Z"></path><path fill="#434348" d="M 149 194.8 L 153 198.8 149 202.8 145 198.8 Z"></path><path fill="#434348" d="M 99 217.5 L 103 221.5 99 225.5 95 221.5 Z"></path><path fill="#434348" d="M 245 159.3 L 249 163.3 245 167.3 241 163.3 Z"></path><path fill="#434348" d="M 230 182.8 L 234 186.8 230 190.8 226 186.8 Z"></path><path fill="#434348" d="M 242 180.0 L 246 184.0 242 188.0 238 184.0 Z"></path><path fill="#434348" d="M 150 123.2 L 154 127.2 150 131.2 146 127.2 Z"></path><path fill="#434348" d="M 270 147.0 L 274 151.0 270 155.0 266 151.0 Z"></path><path fill="#434348" d="M 193 138.5 L 197 142.5 193 146.5 189 142.5 Z"></path><path fill="#434348" d="M 142 201.6 L 146 205.6 142 209.6 138 205.6 Z"></path><path fill="#434348" d="M 223 169.2 L 227 173.2 223 177.2 219 173.2 Z"></path><path fill="#434348" d="M 117 184.5 L 121 188.5 117 192.5 113 188.5 Z"></path><path fill="#434348" d="M 126 157.8 L 130 161.8 126 165.8 122 161.8 Z"></path><path fill="#434348" d="M 145 197.0 L 149 201.0 145 205.0 141 201.0 Z"></path><path fill="#434348" d="M 205 169.2 L 209 173.2 205 177.2 201 173.2 Z"></path><path fill="#434348" d="M 158 190.2 L 162 194.2 158 198.2 154 194.2 Z"></path></g></g><text x="292" text-anchor="middle" class="highcharts-title"  style="color:#333333;font-size:18px;fill:#333333;width:520px;" y="24"><tspan>Height vs Weight</tspan></text><text x="292" text-anchor="middle" class="highcharts-subtitle"  style="color:#555555;fill:#555555;width:520px;" y="45"><tspan>Polygon series in Highcharts</tspan></text><g class="highcharts-legend"  transform="translate(455,178)"><g ><g><g class="highcharts-legend-item"  transform="translate(8,3)"><text x="21" style="color:#333333;font-size:12px;font-weight:bold;cursor:pointer;fill:#333333;" text-anchor="start"  y="15">Target</text><rect x="0" y="4" width="16" height="12"  fill="rgb(124,181,236)" fill-opacity="0.5"></rect></g><g class="highcharts-legend-item"  transform="translate(8,17)"><path fill="#434348" d="M 8 7 L 12 11 8 15 4 11 Z"></path><text x="21" y="15" style="color:#333333;font-size:12px;font-weight:bold;cursor:pointer;fill:#333333;" text-anchor="start" >Observations</text></g></g></g></g><g class="highcharts-axis-labels highcharts-xaxis-labels" ><text x="70" style="color:#606060;cursor:default;font-size:11px;fill:#606060;width:65px;text-overflow:clip;" text-anchor="middle" transform="translate(0,0)" y="364" opacity="1">140</text><text x="144.6" style="color:#606060;cursor:default;font-size:11px;fill:#606060;width:65px;text-overflow:clip;" text-anchor="middle" transform="translate(0,0)" y="364" opacity="1">150</text><text x="219.2" style="color:#606060;cursor:default;font-size:11px;fill:#606060;width:65px;text-overflow:clip;" text-anchor="middle" transform="translate(0,0)" y="364" opacity="1">160</text><text x="293.8" style="color:#606060;cursor:default;font-size:11px;fill:#606060;width:65px;text-overflow:clip;" text-anchor="middle" transform="translate(0,0)" y="364" opacity="1">170</text><text x="368.4" style="color:#606060;cursor:default;font-size:11px;fill:#606060;width:65px;text-overflow:clip;" text-anchor="middle" transform="translate(0,0)" y="364" opacity="1">180</text><text x="443" style="color:#606060;cursor:default;font-size:11px;fill:#606060;width:65px;text-overflow:clip;" text-anchor="middle" transform="translate(0,0)" y="364" opacity="1">190</text></g><g class="highcharts-axis-labels highcharts-yaxis-labels" ><text x="55" style="color:#606060;cursor:default;font-size:11px;fill:#606060;width:183px;text-overflow:clip;" text-anchor="end" transform="translate(0,0)" y="350" opacity="1">20</text><text x="55" style="color:#606060;cursor:default;font-size:11px;fill:#606060;width:183px;text-overflow:clip;" text-anchor="end" transform="translate(0,0)" y="293" opacity="1">40</text><text x="55" style="color:#606060;cursor:default;font-size:11px;fill:#606060;width:183px;text-overflow:clip;" text-anchor="end" transform="translate(0,0)" y="236" opacity="1">60</text><text x="55" style="color:#606060;cursor:default;font-size:11px;fill:#606060;width:183px;text-overflow:clip;" text-anchor="end" transform="translate(0,0)" y="179" opacity="1">80</text><text x="55" style="color:#606060;cursor:default;font-size:11px;fill:#606060;width:183px;text-overflow:clip;" text-anchor="end" transform="translate(0,0)" y="122" opacity="1">100</text><text x="55" style="color:#606060;cursor:default;font-size:11px;fill:#606060;width:183px;text-overflow:clip;" text-anchor="end" transform="translate(0,0)" y="66" opacity="1">120</text></g><g class="highcharts-tooltip"  style="cursor:default;padding:0;white-space:nowrap;" transform="translate(0,-9999)"><path fill="none" d="M 3.5 0.5 L 13.5 0.5 C 16.5 0.5 16.5 0.5 16.5 3.5 L 16.5 13.5 C 16.5 16.5 16.5 16.5 13.5 16.5 L 3.5 16.5 C 0.5 16.5 0.5 16.5 0.5 13.5 L 0.5 3.5 C 0.5 0.5 0.5 0.5 3.5 0.5"  stroke="black" stroke-opacity="0.0" stroke-width="5" transform="translate(1, 1)"></path><path fill="none" d="M 3.5 0.5 L 13.5 0.5 C 16.5 0.5 16.5 0.5 16.5 3.5 L 16.5 13.5 C 16.5 16.5 16.5 16.5 13.5 16.5 L 3.5 16.5 C 0.5 16.5 0.5 16.5 0.5 13.5 L 0.5 3.5 C 0.5 0.5 0.5 0.5 3.5 0.5"  stroke="black" stroke-opacity="0.0" stroke-width="3" transform="translate(1, 1)"></path><path fill="none" d="M 3.5 0.5 L 13.5 0.5 C 16.5 0.5 16.5 0.5 16.5 3.5 L 16.5 13.5 C 16.5 16.5 16.5 16.5 13.5 16.5 L 3.5 16.5 C 0.5 16.5 0.5 16.5 0.5 13.5 L 0.5 3.5 C 0.5 0.5 0.5 0.5 3.5 0.5"  stroke="black" stroke-opacity="0.1" stroke-width="1" transform="translate(1, 1)"></path><path fill="rgb(249, 249, 249)" fill-opacity=" .85" d="M 3.5 0.5 L 13.5 0.5 C 16.5 0.5 16.5 0.5 16.5 3.5 L 16.5 13.5 C 16.5 16.5 16.5 16.5 13.5 16.5 L 3.5 16.5 C 0.5 16.5 0.5 16.5 0.5 13.5 L 0.5 3.5 C 0.5 0.5 0.5 0.5 3.5 0.5"></path><text x="8"  style="font-size:12px;color:#333333;fill:#333333;" y="20"></text></g></svg>