<svg version="1.1" style="font-family: signika, serif; font-size: 12px; background-image: url(http://www.highcharts.com/samples/graphics/sand.png); background-position: initial initial; background-repeat: initial initial;" xmlns="http://www.w3.org/2000/svg" width="584" height="400" viewBox="0 0 584 400" xmlns:xlink="http://www.w3.org/1999/xlink"><style type="text/css"><![CDATA[@import url(http://fonts.googleapis.com/css?family=Signika:700);]]></style><desc>Created with Highcharts 4.1.7</desc><defs><clipPath id="highcharts-1"><rect x="0" y="0" width="474" height="344"></rect></clipPath></defs><g class="highcharts-series-group" ><g class="highcharts-series highcharts-tracker" visibility="visible"  transform="translate(10,41) scale(1 1)" style=""><path fill="#f45b5b" d="M 23.6 344 L 450.3 344 308.3 115.1 165.6 115.1 Z" stroke="#FFFFFF" stroke-width="1"></path><path fill="#8085e9" d="M 165.6 115.1 L 308.3 115.1 271.5 55.6 202.4 55.6 Z" stroke="#FFFFFF" stroke-width="1"></path><path fill="#8d4654" d="M 202.4 55.6 L 271.5 55.6 253.5 26.6 220.4 26.6 Z" stroke="#FFFFFF" stroke-width="1"></path><path fill="#7798BF" d="M 220.4 26.6 L 253.5 26.6 244.6 12.3 229.3 12.3 Z" stroke="#FFFFFF" stroke-width="1"></path><path fill="#aaeeee" d="M 229.3 12.3 L 244.6 12.3 237.0 5.6e-14 236.9 5.6e-14 Z" stroke="#FFFFFF" stroke-width="1"></path></g><g class="highcharts-markers" visibility="visible"  transform="translate(10,41) scale(1 1)"></g></g><text x="242" text-anchor="middle" class="highcharts-title"  style="color:black;font-size:16px;font-weight:bold;fill:black;width:520px;" y="22"><tspan>Sales pyramid</tspan></text><g class="highcharts-data-labels highcharts-tracker" visibility="visible"  transform="translate(10,41) scale(1 1)" style=""><path fill="none" d="M 414.3 229.5 C 409.3 229.5 389.3 229.5 384.3 229.5 L 379.3 229.5" stroke="#606060" stroke-width="1" visibility="inherit"></path><path fill="none" d="M 324.9 85.4 C 319.9 85.4 299.9 85.4 294.9 85.4 L 289.9 85.4" stroke="#606060" stroke-width="1" visibility="inherit"></path><path fill="none" d="M 298.0 42 C 293.0 42 272.5 41.1 267.5 41.1 L 262.5 41.1" stroke="#606060" stroke-width="1" visibility="inherit"></path><path fill="none" d="M 285.0 21 C 280.0 21 259.0 19.5 254.0 19.5 L 249.0 19.5" stroke="#606060" stroke-width="1" visibility="inherit"></path><path fill="none" d="M 275.8 0 C 270.8 0 250.8 6.1 245.8 6.1 L 240.8 6.1" stroke="#606060" stroke-width="1" visibility="inherit"></path><g  style="" transform="translate(419,220)" visibility="inherit"><text x="5"  style="font-size: 11px; font-weight: bold; color: black; fill: #000000; text-shadow: rgb(255, 255, 255) 0px 0px 6px, rgb(255, 255, 255) 0px 0px 3px; text-rendering: geometricprecision;" y="16"><tspan style="font-weight:bold">Website visits</tspan><tspan dx="0"> (15 654)</tspan></text></g><g  style="" transform="translate(330,75)" visibility="inherit"><text x="5"  style="font-size: 11px; font-weight: bold; color: black; fill: #000000; text-shadow: rgb(255, 255, 255) 0px 0px 6px, rgb(255, 255, 255) 0px 0px 3px; text-rendering: geometricprecision;" y="16"><tspan style="font-weight:bold">Downloads</tspan><tspan dx="0"> (4 064)</tspan></text></g><g  style="" transform="translate(303,32)" visibility="inherit"><text x="5"  style="font-size: 11px; font-weight: bold; color: black; fill: #000000; text-shadow: rgb(255, 255, 255) 0px 0px 6px, rgb(255, 255, 255) 0px 0px 3px; text-rendering: geometricprecision;" y="16"><tspan style="font-weight:bold">Requested price list</tspan><tspan dx="0"> (1 987)</tspan></text></g><g  style="" transform="translate(290,11)" visibility="inherit"><text x="5"  style="font-size: 11px; font-weight: bold; color: black; fill: #000000; text-shadow: rgb(255, 255, 255) 0px 0px 6px, rgb(255, 255, 255) 0px 0px 3px; text-rendering: geometricprecision;" y="16"><tspan style="font-weight:bold">Invoice sent</tspan><tspan dx="0"> (976)</tspan></text></g><g  style="" transform="translate(281,-10)" visibility="inherit"><text x="5"  style="font-size: 11px; font-weight: bold; color: black; fill: #000000; text-shadow: rgb(255, 255, 255) 0px 0px 6px, rgb(255, 255, 255) 0px 0px 3px; text-rendering: geometricprecision;" y="16"><tspan style="font-weight:bold">Finalized</tspan><tspan dx="0"> (846)</tspan></text></g></g><g class="highcharts-tooltip"  style="cursor:default;padding:0;white-space:nowrap;" transform="translate(0,-9999)"><path fill="none" d="M 3 0 L 13 0 C 16 0 16 0 16 3 L 16 13 C 16 16 16 16 13 16 L 3 16 C 0 16 0 16 0 13 L 0 3 C 0 0 0 0 3 0"  stroke="black" stroke-opacity="0.0" stroke-width="5" transform="translate(1, 1)"></path><path fill="none" d="M 3 0 L 13 0 C 16 0 16 0 16 3 L 16 13 C 16 16 16 16 13 16 L 3 16 C 0 16 0 16 0 13 L 0 3 C 0 0 0 0 3 0"  stroke="black" stroke-opacity="0.0" stroke-width="3" transform="translate(1, 1)"></path><path fill="none" d="M 3 0 L 13 0 C 16 0 16 0 16 3 L 16 13 C 16 16 16 16 13 16 L 3 16 C 0 16 0 16 0 13 L 0 3 C 0 0 0 0 3 0"  stroke="black" stroke-opacity="0.1" stroke-width="1" transform="translate(1, 1)"></path><path fill="rgb(249, 249, 249)" fill-opacity=" .85" d="M 3 0 L 13 0 C 16 0 16 0 16 3 L 16 13 C 16 16 16 16 13 16 L 3 16 C 0 16 0 16 0 13 L 0 3 C 0 0 0 0 3 0"></path><text x="8"  style="font-size:12px;color:#333333;fill:#333333;" y="20"></text></g></svg>