<svg version="1.1" style="font-family:&quot;lucida grande&quot;, &quot;lucida sans unicode&quot;, arial, helvetica, sans-serif;font-size:12px;" xmlns="http://www.w3.org/2000/svg" width="584" height="400" viewBox="0 0 584 400"><desc>Created with Highcharts 4.1.6</desc><defs><clipPath id="highcharts-1"><rect x="0" y="0" width="503" height="283"></rect></clipPath><clipPath id="highcharts-2"><rect x="-99" y="-61" width="602" height="400"></rect></clipPath><clipPath id="highcharts-3"><rect x="0" y="0" width="503" height="283"></rect></clipPath></defs><rect x="0" y="0" width="584" height="400" strokeWidth="0" fill="#FFFFFF" class=" highcharts-background" stroke="transparent"></rect><g class="highcharts-grid" ></g><g class="highcharts-grid" ><path fill="none" d="M 71 344.5 L 574 344.5" stroke="#D8D8D8" stroke-width="1"  opacity="1"></path><path fill="none" d="M 71 297.5 L 574 297.5" stroke="#D8D8D8" stroke-width="1"  opacity="1"></path><path fill="none" d="M 71 250.5 L 574 250.5" stroke="#D8D8D8" stroke-width="1"  opacity="1"></path><path fill="none" d="M 71 203.5 L 574 203.5" stroke="#D8D8D8" stroke-width="1"  opacity="1"></path><path fill="none" d="M 71 155.5 L 574 155.5" stroke="#D8D8D8" stroke-width="1"  opacity="1"></path><path fill="none" d="M 71 108.5 L 574 108.5" stroke="#D8D8D8" stroke-width="1"  opacity="1"></path><path fill="none" d="M 71 60.5 L 574 60.5" stroke="#D8D8D8" stroke-width="1"  opacity="1"></path></g><g class="highcharts-axis" ><path fill="none" d="M 70.5 344 L 70.5 354" stroke="#C0D0E0" stroke-width="1" opacity="1"></path><path fill="none" d="M 154.5 344 L 154.5 354" stroke="#C0D0E0" stroke-width="1" opacity="1"></path><path fill="none" d="M 238.5 344 L 238.5 354" stroke="#C0D0E0" stroke-width="1" opacity="1"></path><path fill="none" d="M 322.5 344 L 322.5 354" stroke="#C0D0E0" stroke-width="1" opacity="1"></path><path fill="none" d="M 405.5 344 L 405.5 354" stroke="#C0D0E0" stroke-width="1" opacity="1"></path><path fill="none" d="M 489.5 344 L 489.5 354" stroke="#C0D0E0" stroke-width="1" opacity="1"></path><path fill="none" d="M 574.5 344 L 574.5 354" stroke="#C0D0E0" stroke-width="1" opacity="1"></path><text x="322.5"  text-anchor="middle" transform="translate(0,0)" class=" highcharts-xaxis-title" style="color:#707070;fill:#707070;" visibility="visible" y="382"><tspan>Height (cm)</tspan></text><path fill="none" d="M 71 344.5 L 574 344.5" stroke="#C0D0E0" stroke-width="1"  visibility="visible"></path></g><g class="highcharts-axis" ><text x="25"  text-anchor="middle" transform="translate(0,0) rotate(270 25 202.5)" class=" highcharts-yaxis-title" style="color:#707070;fill:#707070;" visibility="visible" y="202.5"><tspan>Weight (kg)</tspan></text></g><g class="highcharts-series-group" ><g class="highcharts-series highcharts-tracker" visibility="visible"  transform="translate(71,61) scale(1 1)" clip-path="url(#highcharts-3)" style=""></g><g class="highcharts-markers highcharts-tracker" visibility="visible"  transform="translate(71,61) scale(1 1)" clip-path="url(#highcharts-2)" style=""><path fill="rgb(223, 83, 83)" fill-opacity=" .5" d="M 199 166.4 C 205.6 166.4 205.6 176.4 199 176.4 C 192.3 176.4 192.3 166.4 199 166.4 Z"></path><path fill="rgb(223, 83, 83)" fill-opacity=" .5" d="M 285 168.5 C 291.6 168.5 291.6 178.5 285 178.5 C 278.3 178.5 278.3 168.5 285 168.5 Z"></path><path fill="rgb(223, 83, 83)" fill-opacity=" .5" d="M 173 210.5 C 179.6 210.5 179.6 220.5 173 220.5 C 166.3 220.5 166.3 210.5 173 210.5 Z"></path><path fill="rgb(223, 83, 83)" fill-opacity=" .5" d="M 204 194.2 C 210.6 194.2 210.6 204.2 204 204.2 C 197.3 204.2 197.3 194.2 204 194.2 Z"></path><path fill="rgb(223, 83, 83)" fill-opacity=" .5" d="M 305 155.8 C 311.6 155.8 311.6 165.8 305 165.8 C 298.3 165.8 298.3 155.8 305 155.8 Z"></path><path fill="rgb(223, 83, 83)" fill-opacity=" .5" d="M 146 144.0 C 152.6 144.0 152.6 154.0 146 154.0 C 139.3 154.0 139.3 144.0 146 144.0 Z"></path><path fill="rgb(223, 83, 83)" fill-opacity=" .5" d="M 189 180.3 C 195.6 180.3 195.6 190.3 189 190.3 C 182.3 190.3 182.3 180.3 189 180.3 Z"></path><path fill="rgb(223, 83, 83)" fill-opacity=" .5" d="M 274 164.3 C 280.6 164.3 280.6 174.3 274 174.3 C 267.3 174.3 267.3 164.3 274 164.3 Z"></path><path fill="rgb(223, 83, 83)" fill-opacity=" .5" d="M 167 147.1 C 173.6 147.1 173.6 157.1 167 157.1 C 160.3 157.1 160.3 147.1 167 147.1 Z"></path><path fill="rgb(223, 83, 83)" fill-opacity=" .5" d="M 247 166.4 C 253.6 166.4 253.6 176.4 247 176.4 C 240.3 176.4 240.3 166.4 247 166.4 Z"></path><path fill="rgb(223, 83, 83)" fill-opacity=" .5" d="M 295 175.1 C 301.6 175.1 301.6 185.1 295 185.1 C 288.3 185.1 288.3 175.1 295 175.1 Z"></path><path fill="rgb(223, 83, 83)" fill-opacity=" .5" d="M 167 173.9 C 173.6 173.9 173.6 183.9 167 183.9 C 160.3 183.9 160.3 173.9 167 173.9 Z"></path><path fill="rgb(223, 83, 83)" fill-opacity=" .5" d="M 247 190.0 C 253.6 190.0 253.6 200.0 247 200.0 C 240.3 200.0 240.3 190.0 247 190.0 Z"></path><path fill="rgb(223, 83, 83)" fill-opacity=" .5" d="M 82 214.7 C 88.6 214.7 88.6 224.7 82 224.7 C 75.3 224.7 75.3 214.7 82 214.7 Z"></path><path fill="rgb(223, 83, 83)" fill-opacity=" .5" d="M 135 183.6 C 141.6 183.6 141.6 193.6 135 193.6 C 128.3 193.6 128.3 183.6 135 183.6 Z"></path><path fill="rgb(223, 83, 83)" fill-opacity=" .5" d="M 178 181.5 C 184.6 181.5 184.6 191.5 178 191.5 C 171.3 191.5 171.3 181.5 178 181.5 Z"></path><path fill="rgb(223, 83, 83)" fill-opacity=" .5" d="M 189 175.1 C 195.6 175.1 195.6 185.1 189 185.1 C 182.3 185.1 182.3 175.1 189 175.1 Z"></path><path fill="rgb(223, 83, 83)" fill-opacity=" .5" d="M 285 194.2 C 291.6 194.2 291.6 204.2 285 204.2 C 278.3 204.2 278.3 194.2 285 194.2 Z"></path><path fill="rgb(223, 83, 83)" fill-opacity=" .5" d="M 189 180.3 C 195.6 180.3 195.6 190.3 189 190.3 C 182.3 190.3 182.3 180.3 189 180.3 Z"></path><path fill="rgb(223, 83, 83)" fill-opacity=" .5" d="M 285 151.5 C 291.6 151.5 291.6 161.5 285 161.5 C 278.3 161.5 278.3 151.5 285 151.5 Z"></path><path fill="rgb(223, 83, 83)" fill-opacity=" .5" d="M 167 183.6 C 173.6 183.6 173.6 193.6 167 193.6 C 160.3 193.6 160.3 183.6 167 183.6 Z"></path><path fill="rgb(223, 83, 83)" fill-opacity=" .5" d="M 210 198.7 C 216.6 198.7 216.6 208.7 210 208.7 C 203.3 208.7 203.3 198.7 210 198.7 Z"></path><path fill="rgb(223, 83, 83)" fill-opacity=" .5" d="M 146 196.6 C 152.6 196.6 152.6 206.6 146 206.6 C 139.3 206.6 139.3 196.6 146 196.6 Z"></path><path fill="rgb(223, 83, 83)" fill-opacity=" .5" d="M 263 199.2 C 269.6 199.2 269.6 209.2 263 209.2 C 256.3 209.2 256.3 199.2 263 199.2 Z"></path><path fill="rgb(223, 83, 83)" fill-opacity=" .5" d="M 295 175.1 C 301.6 175.1 301.6 185.1 295 185.1 C 288.3 185.1 288.3 175.1 295 175.1 Z"></path><path fill="rgb(223, 83, 83)" fill-opacity=" .5" d="M 189 132.2 C 195.6 132.2 195.6 142.2 189 142.2 C 182.3 142.2 182.3 132.2 189 132.2 Z"></path><path fill="rgb(223, 83, 83)" fill-opacity=" .5" d="M 124 187.9 C 130.6 187.9 130.6 197.9 124 197.9 C 117.3 197.9 117.3 187.9 124 187.9 Z"></path><path fill="rgb(223, 83, 83)" fill-opacity=" .5" d="M 231 180.3 C 237.6 180.3 237.6 190.3 231 190.3 C 224.3 190.3 224.3 180.3 231 180.3 Z"></path><path fill="rgb(223, 83, 83)" fill-opacity=" .5" d="M 231 154.6 C 237.6 154.6 237.6 164.6 231 164.6 C 224.3 164.6 224.3 154.6 231 154.6 Z"></path><path fill="rgb(223, 83, 83)" fill-opacity=" .5" d="M 231 173.0 C 237.6 173.0 237.6 183.0 231 183.0 C 224.3 183.0 224.3 173.0 231 173.0 Z"></path><path fill="rgb(223, 83, 83)" fill-opacity=" .5" d="M 167 135.3 C 173.6 135.3 173.6 145.3 167 145.3 C 160.3 145.3 160.3 135.3 167 135.3 Z"></path><path fill="rgb(223, 83, 83)" fill-opacity=" .5" d="M 253 142.8 C 259.6 142.8 259.6 152.8 253 152.8 C 246.3 152.8 246.3 142.8 253 142.8 Z"></path><path fill="rgb(223, 83, 83)" fill-opacity=" .5" d="M 285 194.2 C 291.6 194.2 291.6 204.2 285 204.2 C 278.3 204.2 278.3 194.2 285 194.2 Z"></path><path fill="rgb(223, 83, 83)" fill-opacity=" .5" d="M 210 79.6 C 216.6 79.6 216.6 89.6 210 89.6 C 203.3 89.6 203.3 79.6 210 79.6 Z"></path><path fill="rgb(223, 83, 83)" fill-opacity=" .5" d="M 167 194.5 C 173.6 194.5 173.6 204.5 167 204.5 C 160.3 204.5 160.3 194.5 167 194.5 Z"></path><path fill="rgb(223, 83, 83)" fill-opacity=" .5" d="M 295 189.0 C 301.6 189.0 301.6 199.0 295 199.0 C 288.3 199.0 288.3 189.0 295 189.0 Z"></path><path fill="rgb(223, 83, 83)" fill-opacity=" .5" d="M 295 178.2 C 301.6 178.2 301.6 188.2 295 188.2 C 288.3 188.2 288.3 178.2 295 178.2 Z"></path><path fill="rgb(223, 83, 83)" fill-opacity=" .5" d="M 253 151.5 C 259.6 151.5 259.6 161.5 253 161.5 C 246.3 161.5 246.3 151.5 253 151.5 Z"></path><path fill="rgb(223, 83, 83)" fill-opacity=" .5" d="M 242 176.5 C 248.6 176.5 248.6 186.5 242 186.5 C 235.3 186.5 235.3 176.5 242 176.5 Z"></path><path fill="rgb(223, 83, 83)" fill-opacity=" .5" d="M 103 166.4 C 109.6 166.4 109.6 176.4 103 176.4 C 96.3 176.4 96.3 166.4 103 166.4 Z"></path><path fill="rgb(223, 83, 83)" fill-opacity=" .5" d="M 189 168.5 C 195.6 168.5 195.6 178.5 189 178.5 C 182.3 178.5 182.3 168.5 189 168.5 Z"></path><path fill="rgb(223, 83, 83)" fill-opacity=" .5" d="M 210 121.6 C 216.6 121.6 216.6 131.6 210 131.6 C 203.3 131.6 203.3 121.6 210 121.6 Z"></path><path fill="rgb(223, 83, 83)" fill-opacity=" .5" d="M 231 177.2 C 237.6 177.2 237.6 187.2 231 187.2 C 224.3 187.2 224.3 177.2 231 177.2 Z"></path><path fill="rgb(223, 83, 83)" fill-opacity=" .5" d="M 231 200.8 C 237.6 200.8 237.6 210.8 231 210.8 C 224.3 210.8 224.3 200.8 231 200.8 Z"></path><path fill="rgb(223, 83, 83)" fill-opacity=" .5" d="M 178 158.9 C 184.6 158.9 184.6 168.9 178 168.9 C 171.3 168.9 171.3 158.9 178 158.9 Z"></path><path fill="rgb(223, 83, 83)" fill-opacity=" .5" d="M 253 185.7 C 259.6 185.7 259.6 195.7 253 195.7 C 246.3 195.7 246.3 185.7 253 185.7 Z"></path><path fill="rgb(223, 83, 83)" fill-opacity=" .5" d="M 253 196.6 C 259.6 196.6 259.6 206.6 253 206.6 C 246.3 206.6 246.3 196.6 253 196.6 Z"></path><path fill="rgb(223, 83, 83)" fill-opacity=" .5" d="M 253 175.1 C 259.6 175.1 259.6 185.1 253 185.1 C 246.3 185.1 246.3 175.1 253 175.1 Z"></path><path fill="rgb(223, 83, 83)" fill-opacity=" .5" d="M 210 181.5 C 216.6 181.5 216.6 191.5 210 191.5 C 203.3 191.5 203.3 181.5 210 181.5 Z"></path><path fill="rgb(223, 83, 83)" fill-opacity=" .5" d="M 274 158.9 C 280.6 158.9 280.6 168.9 274 168.9 C 267.3 168.9 267.3 158.9 274 158.9 Z"></path><path fill="rgb(223, 83, 83)" fill-opacity=" .5" d="M 210 134.3 C 216.6 134.3 216.6 144.3 210 144.3 C 203.3 144.3 203.3 134.3 210 134.3 Z"></path><path fill="rgb(223, 83, 83)" fill-opacity=" .5" d="M 253 165.5 C 259.6 165.5 259.6 175.5 253 175.5 C 246.3 175.5 246.3 165.5 253 165.5 Z"></path><path fill="rgb(223, 83, 83)" fill-opacity=" .5" d="M 103 213.6 C 109.6 213.6 109.6 223.6 103 223.6 C 96.3 223.6 96.3 213.6 103 213.6 Z"></path><path fill="rgb(223, 83, 83)" fill-opacity=" .5" d="M 189 196.6 C 195.6 196.6 195.6 206.6 189 206.6 C 182.3 206.6 182.3 196.6 189 196.6 Z"></path><path fill="rgb(223, 83, 83)" fill-opacity=" .5" d="M 146 175.1 C 152.6 175.1 152.6 185.1 146 185.1 C 139.3 185.1 139.3 175.1 146 175.1 Z"></path><path fill="rgb(223, 83, 83)" fill-opacity=" .5" d="M 167 186.0 C 173.6 186.0 173.6 196.0 167 196.0 C 160.3 196.0 160.3 186.0 167 186.0 Z"></path><path fill="rgb(223, 83, 83)" fill-opacity=" .5" d="M 173 193.3 C 179.6 193.3 179.6 203.3 173 203.3 C 166.3 203.3 166.3 193.3 173 193.3 Z"></path><path fill="rgb(223, 83, 83)" fill-opacity=" .5" d="M 189 196.6 C 195.6 196.6 195.6 206.6 189 206.6 C 182.3 206.6 182.3 196.6 189 196.6 Z"></path><path fill="rgb(223, 83, 83)" fill-opacity=" .5" d="M 231 196.6 C 237.6 196.6 237.6 206.6 231 206.6 C 224.3 206.6 224.3 196.6 231 196.6 Z"></path><path fill="rgb(223, 83, 83)" fill-opacity=" .5" d="M 189 158.9 C 195.6 158.9 195.6 168.9 189 168.9 C 182.3 168.9 182.3 158.9 189 158.9 Z"></path><path fill="rgb(223, 83, 83)" fill-opacity=" .5" d="M 253 195.4 C 259.6 195.4 259.6 205.4 253 205.4 C 246.3 205.4 246.3 195.4 253 195.4 Z"></path><path fill="rgb(223, 83, 83)" fill-opacity=" .5" d="M 167 199.2 C 173.6 199.2 173.6 209.2 167 209.2 C 160.3 209.2 160.3 199.2 167 199.2 Z"></path><path fill="rgb(223, 83, 83)" fill-opacity=" .5" d="M 162 199.7 C 168.6 199.7 168.6 209.7 162 209.7 C 155.3 209.7 155.3 199.7 162 199.7 Z"></path><path fill="rgb(223, 83, 83)" fill-opacity=" .5" d="M 295 175.1 C 301.6 175.1 301.6 185.1 295 185.1 C 288.3 185.1 288.3 175.1 295 175.1 Z"></path><path fill="rgb(223, 83, 83)" fill-opacity=" .5" d="M 242 178.9 C 248.6 178.9 248.6 188.9 242 188.9 C 235.3 188.9 235.3 178.9 242 178.9 Z"></path><path fill="rgb(223, 83, 83)" fill-opacity=" .5" d="M 305 151.5 C 311.6 151.5 311.6 161.5 305 161.5 C 298.3 161.5 298.3 151.5 305 151.5 Z"></path><path fill="rgb(223, 83, 83)" fill-opacity=" .5" d="M 205 176.1 C 211.6 176.1 211.6 186.1 205 186.1 C 198.3 186.1 198.3 176.1 205 176.1 Z"></path><path fill="rgb(223, 83, 83)" fill-opacity=" .5" d="M 189 198.0 C 195.6 198.0 195.6 208.0 189 208.0 C 182.3 208.0 182.3 198.0 189 198.0 Z"></path><path fill="rgb(223, 83, 83)" fill-opacity=" .5" d="M 242 191.6 C 248.6 191.6 248.6 201.6 242 201.6 C 235.3 201.6 235.3 191.6 242 191.6 Z"></path><path fill="rgb(223, 83, 83)" fill-opacity=" .5" d="M 210 177.2 C 216.6 177.2 216.6 187.2 210 187.2 C 203.3 187.2 203.3 177.2 210 177.2 Z"></path><path fill="rgb(223, 83, 83)" fill-opacity=" .5" d="M 210 194.9 C 216.6 194.9 216.6 204.9 210 204.9 C 203.3 204.9 203.3 194.9 210 194.9 Z"></path><path fill="rgb(223, 83, 83)" fill-opacity=" .5" d="M 231 175.1 C 237.6 175.1 237.6 185.1 231 185.1 C 224.3 185.1 224.3 175.1 231 175.1 Z"></path><path fill="rgb(223, 83, 83)" fill-opacity=" .5" d="M 199 186.9 C 205.6 186.9 205.6 196.9 199 196.9 C 192.3 196.9 192.3 186.9 199 186.9 Z"></path><path fill="rgb(223, 83, 83)" fill-opacity=" .5" d="M 146 210.5 C 152.6 210.5 152.6 220.5 146 220.5 C 139.3 220.5 139.3 210.5 146 210.5 Z"></path><path fill="rgb(223, 83, 83)" fill-opacity=" .5" d="M 295 170.6 C 301.6 170.6 301.6 180.6 295 180.6 C 288.3 180.6 288.3 170.6 295 170.6 Z"></path><path fill="rgb(223, 83, 83)" fill-opacity=" .5" d="M 210 170.6 C 216.6 170.6 216.6 180.6 210 180.6 C 203.3 180.6 203.3 170.6 210 170.6 Z"></path><path fill="rgb(223, 83, 83)" fill-opacity=" .5" d="M 231 195.4 C 237.6 195.4 237.6 205.4 231 205.4 C 224.3 205.4 224.3 195.4 231 195.4 Z"></path><path fill="rgb(223, 83, 83)" fill-opacity=" .5" d="M 178 190.0 C 184.6 190.0 184.6 200.0 178 200.0 C 171.3 200.0 171.3 190.0 178 190.0 Z"></path><path fill="rgb(223, 83, 83)" fill-opacity=" .5" d="M 242 195.4 C 248.6 195.4 248.6 205.4 242 205.4 C 235.3 205.4 235.3 195.4 242 195.4 Z"></path><path fill="rgb(223, 83, 83)" fill-opacity=" .5" d="M 274 146.1 C 280.6 146.1 280.6 156.1 274 156.1 C 267.3 156.1 267.3 146.1 274 146.1 Z"></path><path fill="rgb(223, 83, 83)" fill-opacity=" .5" d="M 157 209.3 C 163.6 209.3 163.6 219.3 157 219.3 C 150.3 219.3 150.3 209.3 157 209.3 Z"></path><path fill="rgb(223, 83, 83)" fill-opacity=" .5" d="M 124 197.5 C 130.6 197.5 130.6 207.5 124 207.5 C 117.3 207.5 117.3 197.5 124 197.5 Z"></path><path fill="rgb(223, 83, 83)" fill-opacity=" .5" d="M 295 153.7 C 301.6 153.7 301.6 163.7 295 163.7 C 288.3 163.7 288.3 153.7 295 153.7 Z"></path><path fill="rgb(223, 83, 83)" fill-opacity=" .5" d="M 210 187.9 C 216.6 187.9 216.6 197.9 210 197.9 C 203.3 197.9 203.3 187.9 210 187.9 Z"></path><path fill="rgb(223, 83, 83)" fill-opacity=" .5" d="M 316 183.6 C 322.6 183.6 322.6 193.6 316 193.6 C 309.3 193.6 309.3 183.6 316 183.6 Z"></path><path fill="rgb(223, 83, 83)" fill-opacity=" .5" d="M 210 191.2 C 216.6 191.2 216.6 201.2 210 201.2 C 203.3 201.2 203.3 191.2 210 191.2 Z"></path><path fill="rgb(223, 83, 83)" fill-opacity=" .5" d="M 221 158.4 C 227.6 158.4 227.6 168.4 221 168.4 C 214.3 168.4 214.3 158.4 221 158.4 Z"></path><path fill="rgb(223, 83, 83)" fill-opacity=" .5" d="M 359 132.2 C 365.6 132.2 365.6 142.2 359 142.2 C 352.3 142.2 352.3 132.2 359 132.2 Z"></path><path fill="rgb(223, 83, 83)" fill-opacity=" .5" d="M 210 185.7 C 216.6 185.7 216.6 195.7 210 195.7 C 203.3 195.7 203.3 185.7 210 185.7 Z"></path><path fill="rgb(223, 83, 83)" fill-opacity=" .5" d="M 167 193.3 C 173.6 193.3 173.6 203.3 167 203.3 C 160.3 203.3 160.3 193.3 167 193.3 Z"></path><path fill="rgb(223, 83, 83)" fill-opacity=" .5" d="M 189 186.9 C 195.6 186.9 195.6 196.9 189 196.9 C 182.3 196.9 182.3 186.9 189 186.9 Z"></path><path fill="rgb(223, 83, 83)" fill-opacity=" .5" d="M 269 191.6 C 275.6 191.6 275.6 201.6 269 201.6 C 262.3 201.6 262.3 191.6 269 191.6 Z"></path><path fill="rgb(223, 83, 83)" fill-opacity=" .5" d="M 295 167.6 C 301.6 167.6 301.6 177.6 295 177.6 C 288.3 177.6 288.3 167.6 295 167.6 Z"></path><path fill="rgb(223, 83, 83)" fill-opacity=" .5" d="M 135 186.9 C 141.6 186.9 141.6 196.9 135 196.9 C 128.3 196.9 128.3 186.9 135 186.9 Z"></path><path fill="rgb(223, 83, 83)" fill-opacity=" .5" d="M 231 169.7 C 237.6 169.7 237.6 179.7 231 179.7 C 224.3 179.7 224.3 169.7 231 169.7 Z"></path><path fill="rgb(223, 83, 83)" fill-opacity=" .5" d="M 189 180.3 C 195.6 180.3 195.6 190.3 189 190.3 C 182.3 190.3 182.3 180.3 189 180.3 Z"></path><path fill="rgb(223, 83, 83)" fill-opacity=" .5" d="M 231 144.9 C 237.6 144.9 237.6 154.9 231 154.9 C 224.3 154.9 224.3 144.9 231 144.9 Z"></path><path fill="rgb(223, 83, 83)" fill-opacity=" .5" d="M 274 161.2 C 280.6 161.2 280.6 171.2 274 171.2 C 267.3 171.2 267.3 161.2 274 161.2 Z"></path><path fill="rgb(223, 83, 83)" fill-opacity=" .5" d="M 157 194.2 C 163.6 194.2 163.6 204.2 157 204.2 C 150.3 204.2 150.3 194.2 157 194.2 Z"></path><path fill="rgb(223, 83, 83)" fill-opacity=" .5" d="M 253 193.3 C 259.6 193.3 259.6 203.3 253 203.3 C 246.3 203.3 246.3 193.3 253 193.3 Z"></path><path fill="rgb(223, 83, 83)" fill-opacity=" .5" d="M 189 125.8 C 195.6 125.8 195.6 135.8 189 135.8 C 182.3 135.8 182.3 125.8 189 125.8 Z"></path><path fill="rgb(223, 83, 83)" fill-opacity=" .5" d="M 253 162.2 C 259.6 162.2 259.6 172.2 253 172.2 C 246.3 172.2 246.3 162.2 253 162.2 Z"></path><path fill="rgb(223, 83, 83)" fill-opacity=" .5" d="M 103 182.7 C 109.6 182.7 109.6 192.7 103 192.7 C 96.3 192.7 96.3 182.7 103 182.7 Z"></path><path fill="rgb(223, 83, 83)" fill-opacity=" .5" d="M 167 193.3 C 173.6 193.3 173.6 203.3 167 203.3 C 160.3 203.3 160.3 193.3 167 193.3 Z"></path><path fill="rgb(223, 83, 83)" fill-opacity=" .5" d="M 221 195.4 C 227.6 195.4 227.6 205.4 221 205.4 C 214.3 205.4 214.3 195.4 221 195.4 Z"></path><path fill="rgb(223, 83, 83)" fill-opacity=" .5" d="M 210 154.6 C 216.6 154.6 216.6 164.6 210 164.6 C 203.3 164.6 203.3 154.6 210 154.6 Z"></path><path fill="rgb(223, 83, 83)" fill-opacity=" .5" d="M 189 207.2 C 195.6 207.2 195.6 217.2 189 217.2 C 182.3 217.2 182.3 207.2 189 207.2 Z"></path><path fill="rgb(223, 83, 83)" fill-opacity=" .5" d="M 210 173.9 C 216.6 173.9 216.6 183.9 210 183.9 C 203.3 183.9 203.3 173.9 210 173.9 Z"></path><path fill="rgb(223, 83, 83)" fill-opacity=" .5" d="M 242 191.2 C 248.6 191.2 248.6 201.2 242 201.2 C 235.3 201.2 235.3 191.2 242 191.2 Z"></path><path fill="rgb(223, 83, 83)" fill-opacity=" .5" d="M 167 184.8 C 173.6 184.8 173.6 194.8 167 194.8 C 160.3 194.8 160.3 184.8 167 184.8 Z"></path><path fill="rgb(223, 83, 83)" fill-opacity=" .5" d="M 189 176.1 C 195.6 176.1 195.6 186.1 189 186.1 C 182.3 186.1 182.3 176.1 189 176.1 Z"></path><path fill="rgb(223, 83, 83)" fill-opacity=" .5" d="M 178 175.1 C 184.6 175.1 184.6 185.1 178 185.1 C 171.3 185.1 171.3 175.1 178 175.1 Z"></path><path fill="rgb(223, 83, 83)" fill-opacity=" .5" d="M 146 193.1 C 152.6 193.1 152.6 203.1 146 203.1 C 139.3 203.1 139.3 193.1 146 193.1 Z"></path><path fill="rgb(223, 83, 83)" fill-opacity=" .5" d="M 160 203.0 C 166.6 203.0 166.6 213.0 160 213.0 C 153.3 213.0 153.3 203.0 160 203.0 Z"></path><path fill="rgb(223, 83, 83)" fill-opacity=" .5" d="M 255 173.0 C 261.6 173.0 261.6 183.0 255 183.0 C 248.3 183.0 248.3 173.0 255 173.0 Z"></path><path fill="rgb(223, 83, 83)" fill-opacity=" .5" d="M 165 199.7 C 171.6 199.7 171.6 209.7 165 209.7 C 158.3 209.7 158.3 199.7 165 199.7 Z"></path><path fill="rgb(223, 83, 83)" fill-opacity=" .5" d="M 280 200.8 C 286.6 200.8 286.6 210.8 280 210.8 C 273.3 210.8 273.3 200.8 280 200.8 Z"></path><path fill="rgb(223, 83, 83)" fill-opacity=" .5" d="M 185 185.5 C 191.6 185.5 191.6 195.5 185 195.5 C 178.3 195.5 178.3 185.5 185 185.5 Z"></path><path fill="rgb(223, 83, 83)" fill-opacity=" .5" d="M 134 196.4 C 140.6 196.4 140.6 206.4 134 206.4 C 127.3 206.4 127.3 196.4 134 196.4 Z"></path><path fill="rgb(223, 83, 83)" fill-opacity=" .5" d="M 231 188.8 C 237.6 188.8 237.6 198.8 231 198.8 C 224.3 198.8 224.3 188.8 231 188.8 Z"></path><path fill="rgb(223, 83, 83)" fill-opacity=" .5" d="M 150 194.2 C 156.6 194.2 156.6 204.2 150 204.2 C 143.3 204.2 143.3 194.2 150 194.2 Z"></path><path fill="rgb(223, 83, 83)" fill-opacity=" .5" d="M 227 178.4 C 233.6 178.4 233.6 188.4 227 188.4 C 220.3 188.4 220.3 178.4 227 178.4 Z"></path><path fill="rgb(223, 83, 83)" fill-opacity=" .5" d="M 167 210.0 C 173.6 210.0 173.6 220.0 167 220.0 C 160.3 220.0 160.3 210.0 167 210.0 Z"></path><path fill="rgb(223, 83, 83)" fill-opacity=" .5" d="M 134 173.2 C 140.6 173.2 140.6 183.2 134 183.2 C 127.3 183.2 127.3 173.2 134 173.2 Z"></path><path fill="rgb(223, 83, 83)" fill-opacity=" .5" d="M 152 215.7 C 158.6 215.7 158.6 225.7 152 225.7 C 145.3 225.7 145.3 215.7 152 215.7 Z"></path><path fill="rgb(223, 83, 83)" fill-opacity=" .5" d="M 242 182.4 C 248.6 182.4 248.6 192.4 242 192.4 C 235.3 192.4 235.3 182.4 242 182.4 Z"></path><path fill="rgb(223, 83, 83)" fill-opacity=" .5" d="M 167 223.2 C 173.6 223.2 173.6 233.2 167 233.2 C 160.3 233.2 160.3 223.2 167 223.2 Z"></path><path fill="rgb(223, 83, 83)" fill-opacity=" .5" d="M 167 195.9 C 173.6 195.9 173.6 205.9 167 205.9 C 160.3 205.9 160.3 195.9 167 195.9 Z"></path><path fill="rgb(223, 83, 83)" fill-opacity=" .5" d="M 226 184.1 C 232.6 184.1 232.6 194.1 226 194.1 C 219.3 194.1 219.3 184.1 226 184.1 Z"></path><path fill="rgb(223, 83, 83)" fill-opacity=" .5" d="M 191 188.3 C 197.6 188.3 197.6 198.3 191 198.3 C 184.3 198.3 184.3 188.3 191 188.3 Z"></path><path fill="rgb(223, 83, 83)" fill-opacity=" .5" d="M 175 196.8 C 181.6 196.8 181.6 206.8 175 206.8 C 168.3 206.8 168.3 196.8 175 196.8 Z"></path><path fill="rgb(223, 83, 83)" fill-opacity=" .5" d="M 201 198.2 C 207.6 198.2 207.6 208.2 201 208.2 C 194.3 208.2 194.3 198.2 201 198.2 Z"></path><path fill="rgb(223, 83, 83)" fill-opacity=" .5" d="M 138 166.6 C 144.6 166.6 144.6 176.6 138 176.6 C 131.3 176.6 131.3 166.6 138 166.6 Z"></path><path fill="rgb(223, 83, 83)" fill-opacity=" .5" d="M 125 209.1 C 131.6 209.1 131.6 219.1 125 219.1 C 118.3 219.1 118.3 209.1 125 209.1 Z"></path><path fill="rgb(223, 83, 83)" fill-opacity=" .5" d="M 274 178.9 C 280.6 178.9 280.6 188.9 274 188.9 C 267.3 188.9 267.3 178.9 274 178.9 Z"></path><path fill="rgb(223, 83, 83)" fill-opacity=" .5" d="M 194 192.1 C 200.6 192.1 200.6 202.1 194 202.1 C 187.3 202.1 187.3 192.1 194 192.1 Z"></path><path fill="rgb(223, 83, 83)" fill-opacity=" .5" d="M 146 186.4 C 152.6 186.4 152.6 196.4 146 196.4 C 139.3 196.4 139.3 186.4 146 186.4 Z"></path><path fill="rgb(223, 83, 83)" fill-opacity=" .5" d="M 79 219.5 C 85.6 219.5 85.6 229.5 79 229.5 C 72.3 229.5 72.3 219.5 79 219.5 Z"></path><path fill="rgb(223, 83, 83)" fill-opacity=" .5" d="M 178 183.1 C 184.6 183.1 184.6 193.1 178 193.1 C 171.3 193.1 171.3 183.1 178 183.1 Z"></path><path fill="rgb(223, 83, 83)" fill-opacity=" .5" d="M 186 206.7 C 192.6 206.7 192.6 216.7 186 216.7 C 179.3 216.7 179.3 206.7 186 206.7 Z"></path><path fill="rgb(223, 83, 83)" fill-opacity=" .5" d="M 194 197.8 C 200.6 197.8 200.6 207.8 194 207.8 C 187.3 207.8 187.3 197.8 194 197.8 Z"></path><path fill="rgb(223, 83, 83)" fill-opacity=" .5" d="M 167 219.0 C 173.6 219.0 173.6 229.0 167 229.0 C 160.3 229.0 160.3 219.0 167 219.0 Z"></path><path fill="rgb(223, 83, 83)" fill-opacity=" .5" d="M 177 194.9 C 183.6 194.9 183.6 204.9 177 204.9 C 170.3 204.9 170.3 194.9 177 194.9 Z"></path><path fill="rgb(223, 83, 83)" fill-opacity=" .5" d="M 231 176.5 C 237.6 176.5 237.6 186.5 231 186.5 C 224.3 186.5 224.3 176.5 231 176.5 Z"></path><path fill="rgb(223, 83, 83)" fill-opacity=" .5" d="M 163 212.9 C 169.6 212.9 169.6 222.9 163 222.9 C 156.3 222.9 156.3 212.9 163 212.9 Z"></path><path fill="rgb(223, 83, 83)" fill-opacity=" .5" d="M 233 186.0 C 239.6 186.0 239.6 196.0 233 196.0 C 226.3 196.0 226.3 186.0 233 186.0 Z"></path><path fill="rgb(223, 83, 83)" fill-opacity=" .5" d="M 246 175.6 C 252.6 175.6 252.6 185.6 246 185.6 C 239.3 185.6 239.3 175.6 246 175.6 Z"></path><path fill="rgb(223, 83, 83)" fill-opacity=" .5" d="M 197 203.0 C 203.6 203.0 203.6 213.0 197 213.0 C 190.3 213.0 190.3 203.0 197 203.0 Z"></path><path fill="rgb(223, 83, 83)" fill-opacity=" .5" d="M 274 77.0 C 280.6 77.0 280.6 87.0 274 87.0 C 267.3 87.0 267.3 77.0 274 77.0 Z"></path><path fill="rgb(223, 83, 83)" fill-opacity=" .5" d="M 224 191.6 C 230.6 191.6 230.6 201.6 224 201.6 C 217.3 201.6 217.3 191.6 224 191.6 Z"></path><path fill="rgb(223, 83, 83)" fill-opacity=" .5" d="M 238 171.4 C 244.6 171.4 244.6 181.4 238 181.4 C 231.3 181.4 231.3 171.4 238 171.4 Z"></path><path fill="rgb(223, 83, 83)" fill-opacity=" .5" d="M 192 155.3 C 198.6 155.3 198.6 165.3 192 165.3 C 185.3 165.3 185.3 155.3 192 155.3 Z"></path><path fill="rgb(223, 83, 83)" fill-opacity=" .5" d="M 203 184.1 C 209.6 184.1 209.6 194.1 203 194.1 C 196.3 194.1 196.3 184.1 203 184.1 Z"></path><path fill="rgb(223, 83, 83)" fill-opacity=" .5" d="M 318 158.6 C 324.6 158.6 324.6 168.6 318 168.6 C 311.3 168.6 311.3 158.6 318 158.6 Z"></path><path fill="rgb(223, 83, 83)" fill-opacity=" .5" d="M 266 192.6 C 272.6 192.6 272.6 202.6 266 202.6 C 259.3 202.6 259.3 192.6 266 192.6 Z"></path><path fill="rgb(223, 83, 83)" fill-opacity=" .5" d="M 278 187.4 C 284.6 187.4 284.6 197.4 278 197.4 C 271.3 197.4 271.3 187.4 278 187.4 Z"></path><path fill="rgb(223, 83, 83)" fill-opacity=" .5" d="M 242 162.4 C 248.6 162.4 248.6 172.4 242 172.4 C 235.3 172.4 235.3 162.4 242 162.4 Z"></path><path fill="rgb(223, 83, 83)" fill-opacity=" .5" d="M 236 199.2 C 242.6 199.2 242.6 209.2 236 209.2 C 229.3 209.2 229.3 199.2 236 199.2 Z"></path><path fill="rgb(223, 83, 83)" fill-opacity=" .5" d="M 93 152.5 C 99.6 152.5 99.6 162.5 93 162.5 C 86.3 162.5 86.3 152.5 93 152.5 Z"></path><path fill="rgb(223, 83, 83)" fill-opacity=" .5" d="M 176 198.7 C 182.6 198.7 182.6 208.7 176 208.7 C 169.3 208.7 169.3 198.7 176 198.7 Z"></path><path fill="rgb(223, 83, 83)" fill-opacity=" .5" d="M 191 185.0 C 197.6 185.0 197.6 195.0 191 195.0 C 184.3 195.0 184.3 185.0 191 185.0 Z"></path><path fill="rgb(223, 83, 83)" fill-opacity=" .5" d="M 333 167.6 C 339.6 167.6 339.6 177.6 333 177.6 C 326.3 177.6 326.3 167.6 333 167.6 Z"></path><path fill="rgb(223, 83, 83)" fill-opacity=" .5" d="M 159 194.0 C 165.6 194.0 165.6 204.0 159 204.0 C 152.3 204.0 152.3 194.0 159 194.0 Z"></path><path fill="rgb(223, 83, 83)" fill-opacity=" .5" d="M 191 188.8 C 197.6 188.8 197.6 198.8 191 198.8 C 184.3 198.8 184.3 188.8 191 188.8 Z"></path><path fill="rgb(223, 83, 83)" fill-opacity=" .5" d="M 159 210.5 C 165.6 210.5 165.6 220.5 159 220.5 C 152.3 220.5 152.3 210.5 159 210.5 Z"></path><path fill="rgb(223, 83, 83)" fill-opacity=" .5" d="M 188 202.0 C 194.6 202.0 194.6 212.0 188 212.0 C 181.3 212.0 181.3 202.0 188 202.0 Z"></path><path fill="rgb(223, 83, 83)" fill-opacity=" .5" d="M 162 217.3 C 168.6 217.3 168.6 227.3 162 227.3 C 155.3 227.3 155.3 217.3 162 217.3 Z"></path><path fill="rgb(223, 83, 83)" fill-opacity=" .5" d="M 219 186.9 C 225.6 186.9 225.6 196.9 219 196.9 C 212.3 196.9 212.3 186.9 219 186.9 Z"></path><path fill="rgb(223, 83, 83)" fill-opacity=" .5" d="M 243 187.9 C 249.6 187.9 249.6 197.9 243 197.9 C 236.3 197.9 236.3 187.9 243 187.9 Z"></path><path fill="rgb(223, 83, 83)" fill-opacity=" .5" d="M 179 175.6 C 185.6 175.6 185.6 185.6 179 185.6 C 172.3 185.6 172.3 175.6 179 175.6 Z"></path><path fill="rgb(223, 83, 83)" fill-opacity=" .5" d="M 251 193.3 C 257.6 193.3 257.6 203.3 251 203.3 C 244.3 203.3 244.3 193.3 251 193.3 Z"></path><path fill="rgb(223, 83, 83)" fill-opacity=" .5" d="M 278 161.9 C 284.6 161.9 284.6 171.9 278 171.9 C 271.3 171.9 271.3 161.9 278 161.9 Z"></path><path fill="rgb(223, 83, 83)" fill-opacity=" .5" d="M 165 207.2 C 171.6 207.2 171.6 217.2 165 217.2 C 158.3 217.2 158.3 207.2 165 207.2 Z"></path><path fill="rgb(223, 83, 83)" fill-opacity=" .5" d="M 121 209.6 C 127.6 209.6 127.6 219.6 121 219.6 C 114.3 219.6 114.3 209.6 121 209.6 Z"></path><path fill="rgb(223, 83, 83)" fill-opacity=" .5" d="M 194 184.1 C 200.6 184.1 200.6 194.1 194 194.1 C 187.3 194.1 187.3 184.1 194 184.1 Z"></path><path fill="rgb(223, 83, 83)" fill-opacity=" .5" d="M 247 200.6 C 253.6 200.6 253.6 210.6 247 210.6 C 240.3 210.6 240.3 200.6 247 200.6 Z"></path><path fill="rgb(223, 83, 83)" fill-opacity=" .5" d="M 202 156.3 C 208.6 156.3 208.6 166.3 202 166.3 C 195.3 166.3 195.3 156.3 202 156.3 Z"></path><path fill="rgb(223, 83, 83)" fill-opacity=" .5" d="M 254 172.3 C 260.6 172.3 260.6 182.3 254 182.3 C 247.3 182.3 247.3 172.3 254 172.3 Z"></path><path fill="rgb(223, 83, 83)" fill-opacity=" .5" d="M 188 187.9 C 194.6 187.9 194.6 197.9 188 197.9 C 181.3 197.9 181.3 187.9 188 187.9 Z"></path><path fill="rgb(223, 83, 83)" fill-opacity=" .5" d="M 251 161.4 C 257.6 161.4 257.6 171.4 251 171.4 C 244.3 171.4 244.3 161.4 251 161.4 Z"></path><path fill="rgb(223, 83, 83)" fill-opacity=" .5" d="M 303 166.6 C 309.6 166.6 309.6 176.6 303 176.6 C 296.3 176.6 296.3 166.6 303 166.6 Z"></path><path fill="rgb(223, 83, 83)" fill-opacity=" .5" d="M 251 158.6 C 257.6 158.6 257.6 168.6 251 168.6 C 244.3 168.6 244.3 158.6 251 158.6 Z"></path><path fill="rgb(223, 83, 83)" fill-opacity=" .5" d="M 125 216.9 C 131.6 216.9 131.6 226.9 125 226.9 C 118.3 226.9 118.3 216.9 125 216.9 Z"></path><path fill="rgb(223, 83, 83)" fill-opacity=" .5" d="M 177 195.9 C 183.6 195.9 183.6 205.9 177 205.9 C 170.3 205.9 170.3 195.9 177 195.9 Z"></path><path fill="rgb(223, 83, 83)" fill-opacity=" .5" d="M 201 193.8 C 207.6 193.8 207.6 203.8 201 203.8 C 194.3 203.8 194.3 193.8 201 193.8 Z"></path><path fill="rgb(223, 83, 83)" fill-opacity=" .5" d="M 243 177.7 C 249.6 177.7 249.6 187.7 243 187.7 C 236.3 187.7 236.3 177.7 243 177.7 Z"></path><path fill="rgb(223, 83, 83)" fill-opacity=" .5" d="M 100 185.3 C 106.6 185.3 106.6 195.3 100 195.3 C 93.3 195.3 93.3 185.3 100 185.3 Z"></path><path fill="rgb(223, 83, 83)" fill-opacity=" .5" d="M 197 207.2 C 203.6 207.2 203.6 217.2 197 217.2 C 190.3 217.2 190.3 207.2 197 207.2 Z"></path><path fill="rgb(223, 83, 83)" fill-opacity=" .5" d="M 205 201.8 C 211.6 201.8 211.6 211.8 205 211.8 C 198.3 211.8 198.3 201.8 205 201.8 Z"></path><path fill="rgb(223, 83, 83)" fill-opacity=" .5" d="M 93 210.3 C 99.6 210.3 99.6 220.3 93 220.3 C 86.3 220.3 86.3 210.3 93 210.3 Z"></path><path fill="rgb(223, 83, 83)" fill-opacity=" .5" d="M 231 193.8 C 237.6 193.8 237.6 203.8 231 203.8 C 224.3 203.8 224.3 193.8 231 193.8 Z"></path><path fill="rgb(223, 83, 83)" fill-opacity=" .5" d="M 274 181.0 C 280.6 181.0 280.6 191.0 274 191.0 C 267.3 191.0 267.3 181.0 274 181.0 Z"></path><path fill="rgb(223, 83, 83)" fill-opacity=" .5" d="M 285 146.6 C 291.6 146.6 291.6 156.6 285 156.6 C 278.3 156.6 278.3 146.6 285 146.6 Z"></path><path fill="rgb(223, 83, 83)" fill-opacity=" .5" d="M 217 199.7 C 223.6 199.7 223.6 209.7 217 209.7 C 210.3 209.7 210.3 199.7 217 199.7 Z"></path><path fill="rgb(223, 83, 83)" fill-opacity=" .5" d="M 184 196.1 C 190.6 196.1 190.6 206.1 184 206.1 C 177.3 206.1 177.3 196.1 184 196.1 Z"></path><path fill="rgb(223, 83, 83)" fill-opacity=" .5" d="M 176 136.5 C 182.6 136.5 182.6 146.5 176 146.5 C 169.3 146.5 169.3 136.5 176 136.5 Z"></path><path fill="rgb(223, 83, 83)" fill-opacity=" .5" d="M 215 152.7 C 221.6 152.7 221.6 162.7 215 162.7 C 208.3 162.7 208.3 152.7 215 152.7 Z"></path><path fill="rgb(223, 83, 83)" fill-opacity=" .5" d="M 192 178.9 C 198.6 178.9 198.6 188.9 192 188.9 C 185.3 188.9 185.3 178.9 192 178.9 Z"></path><path fill="rgb(223, 83, 83)" fill-opacity=" .5" d="M 167 149.9 C 173.6 149.9 173.6 159.9 167 159.9 C 160.3 159.9 160.3 149.9 167 149.9 Z"></path><path fill="rgb(223, 83, 83)" fill-opacity=" .5" d="M 134 200.8 C 140.6 200.8 140.6 210.8 134 210.8 C 127.3 210.8 127.3 200.8 134 200.8 Z"></path><path fill="rgb(223, 83, 83)" fill-opacity=" .5" d="M 205 182.9 C 211.6 182.9 211.6 192.9 205 192.9 C 198.3 192.9 198.3 182.9 205 182.9 Z"></path><path fill="rgb(223, 83, 83)" fill-opacity=" .5" d="M 209 178.9 C 215.6 178.9 215.6 188.9 209 188.9 C 202.3 188.9 202.3 178.9 209 178.9 Z"></path><path fill="rgb(223, 83, 83)" fill-opacity=" .5" d="M 213 183.6 C 219.6 183.6 219.6 193.6 213 193.6 C 206.3 193.6 206.3 183.6 213 183.6 Z"></path><path fill="rgb(223, 83, 83)" fill-opacity=" .5" d="M 337 182.0 C 343.6 182.0 343.6 192.0 337 192.0 C 330.3 192.0 330.3 182.0 337 182.0 Z"></path><path fill="rgb(223, 83, 83)" fill-opacity=" .5" d="M 237 195.9 C 243.6 195.9 243.6 205.9 237 205.9 C 230.3 205.9 230.3 195.9 237 195.9 Z"></path><path fill="rgb(223, 83, 83)" fill-opacity=" .5" d="M 146 197.1 C 152.6 197.1 152.6 207.1 146 207.1 C 139.3 207.1 139.3 197.1 146 197.1 Z"></path><path fill="rgb(223, 83, 83)" fill-opacity=" .5" d="M 103 215.5 C 109.6 215.5 109.6 225.5 103 225.5 C 96.3 225.5 96.3 215.5 103 215.5 Z"></path><path fill="rgb(223, 83, 83)" fill-opacity=" .5" d="M 194 193.3 C 200.6 193.3 200.6 203.3 194 203.3 C 187.3 203.3 187.3 193.3 194 193.3 Z"></path><path fill="rgb(223, 83, 83)" fill-opacity=" .5" d="M 173 162.2 C 179.6 162.2 179.6 172.2 173 172.2 C 166.3 172.2 166.3 162.2 173 162.2 Z"></path><path fill="rgb(223, 83, 83)" fill-opacity=" .5" d="M 231 181.3 C 237.6 181.3 237.6 191.3 231 191.3 C 224.3 191.3 224.3 181.3 231 181.3 Z"></path><path fill="rgb(223, 83, 83)" fill-opacity=" .5" d="M 146 184.1 C 152.6 184.1 152.6 194.1 146 194.1 C 139.3 194.1 139.3 184.1 146 184.1 Z"></path><path fill="rgb(223, 83, 83)" fill-opacity=" .5" d="M 251 153.2 C 257.6 153.2 257.6 163.2 251 163.2 C 244.3 163.2 244.3 153.2 251 153.2 Z"></path><path fill="rgb(223, 83, 83)" fill-opacity=" .5" d="M 167 206.7 C 173.6 206.7 173.6 216.7 167 216.7 C 160.3 216.7 160.3 206.7 167 206.7 Z"></path><path fill="rgb(223, 83, 83)" fill-opacity=" .5" d="M 210 192.6 C 216.6 192.6 216.6 202.6 210 202.6 C 203.3 202.6 203.3 192.6 210 192.6 Z"></path><path fill="rgb(223, 83, 83)" fill-opacity=" .5" d="M 231 187.6 C 237.6 187.6 237.6 197.6 231 197.6 C 224.3 197.6 224.3 187.6 231 187.6 Z"></path><path fill="rgb(223, 83, 83)" fill-opacity=" .5" d="M 178 182.9 C 184.6 182.9 184.6 192.9 178 192.9 C 171.3 192.9 171.3 182.9 178 182.9 Z"></path><path fill="rgb(223, 83, 83)" fill-opacity=" .5" d="M 167 206.7 C 173.6 206.7 173.6 216.7 167 216.7 C 160.3 216.7 160.3 206.7 167 206.7 Z"></path><path fill="rgb(223, 83, 83)" fill-opacity=" .5" d="M 231 196.6 C 237.6 196.6 237.6 206.6 231 206.6 C 224.3 206.6 224.3 196.6 231 196.6 Z"></path><path fill="rgb(223, 83, 83)" fill-opacity=" .5" d="M 199 187.2 C 205.6 187.2 205.6 197.2 199 197.2 C 192.3 197.2 192.3 187.2 199 187.2 Z"></path><path fill="rgb(223, 83, 83)" fill-opacity=" .5" d="M 242 178.2 C 248.6 178.2 248.6 188.2 242 188.2 C 235.3 188.2 235.3 178.2 242 178.2 Z"></path><path fill="rgb(223, 83, 83)" fill-opacity=" .5" d="M 221 191.6 C 227.6 191.6 227.6 201.6 221 201.6 C 214.3 201.6 214.3 191.6 221 191.6 Z"></path><path fill="rgb(223, 83, 83)" fill-opacity=" .5" d="M 178 165.0 C 184.6 165.0 184.6 175.0 178 175.0 C 171.3 175.0 171.3 165.0 178 165.0 Z"></path><path fill="rgb(223, 83, 83)" fill-opacity=" .5" d="M 169 202.2 C 175.6 202.2 175.6 212.2 169 212.2 C 162.3 212.2 162.3 202.2 169 202.2 Z"></path><path fill="rgb(223, 83, 83)" fill-opacity=" .5" d="M 251 152.5 C 257.6 152.5 257.6 162.5 251 162.5 C 244.3 162.5 244.3 152.5 251 152.5 Z"></path><path fill="rgb(223, 83, 83)" fill-opacity=" .5" d="M 185 198.7 C 191.6 198.7 191.6 208.7 185 208.7 C 178.3 208.7 178.3 198.7 185 198.7 Z"></path><path fill="rgb(223, 83, 83)" fill-opacity=" .5" d="M 100 217.1 C 106.6 217.1 106.6 227.1 100 227.1 C 93.3 227.1 93.3 217.1 100 217.1 Z"></path><path fill="rgb(223, 83, 83)" fill-opacity=" .5" d="M 167 196.8 C 173.6 196.8 173.6 206.8 167 206.8 C 160.3 206.8 160.3 196.8 167 196.8 Z"></path><path fill="rgb(223, 83, 83)" fill-opacity=" .5" d="M 305 129.4 C 311.6 129.4 311.6 139.4 305 139.4 C 298.3 139.4 298.3 129.4 305 129.4 Z"></path><path fill="rgb(223, 83, 83)" fill-opacity=" .5" d="M 184 195.4 C 190.6 195.4 190.6 205.4 184 205.4 C 177.3 205.4 177.3 195.4 184 195.4 Z"></path><path fill="rgb(223, 83, 83)" fill-opacity=" .5" d="M 120 216.2 C 126.6 216.2 126.6 226.2 120 226.2 C 113.3 226.2 113.3 216.2 120 216.2 Z"></path><path fill="rgb(223, 83, 83)" fill-opacity=" .5" d="M 167 214.3 C 173.6 214.3 173.6 224.3 167 224.3 C 160.3 224.3 160.3 214.3 167 214.3 Z"></path><path fill="rgb(223, 83, 83)" fill-opacity=" .5" d="M 255 165.2 C 261.6 165.2 261.6 175.2 255 175.2 C 248.3 175.2 248.3 165.2 255 165.2 Z"></path><path fill="rgb(223, 83, 83)" fill-opacity=" .5" d="M 334 166.4 C 340.6 166.4 340.6 176.4 334 176.4 C 327.3 176.4 327.3 166.4 334 166.4 Z"></path><path fill="rgb(223, 83, 83)" fill-opacity=" .5" d="M 276 184.1 C 282.6 184.1 282.6 194.1 276 194.1 C 269.3 194.1 269.3 184.1 276 184.1 Z"></path><path fill="rgb(223, 83, 83)" fill-opacity=" .5" d="M 285 196.6 C 291.6 196.6 291.6 206.6 285 206.6 C 278.3 206.6 278.3 196.6 285 196.6 Z"></path><path fill="rgb(223, 83, 83)" fill-opacity=" .5" d="M 253 153.4 C 259.6 153.4 259.6 163.4 253 163.4 C 246.3 163.4 246.3 153.4 253 153.4 Z"></path><path fill="rgb(223, 83, 83)" fill-opacity=" .5" d="M 305 118.1 C 311.6 118.1 311.6 128.1 305 128.1 C 298.3 128.1 298.3 118.1 305 118.1 Z"></path><path fill="rgb(223, 83, 83)" fill-opacity=" .5" d="M 224 190.2 C 230.6 190.2 230.6 200.2 224 200.2 C 217.3 200.2 217.3 190.2 224 190.2 Z"></path><path fill="rgb(223, 83, 83)" fill-opacity=" .5" d="M 293 130.6 C 299.6 130.6 299.6 140.6 293 140.6 C 286.3 140.6 286.3 130.6 293 130.6 Z"></path><path fill="rgb(223, 83, 83)" fill-opacity=" .5" d="M 163 205.8 C 169.6 205.8 169.6 215.8 163 215.8 C 156.3 215.8 156.3 205.8 163 205.8 Z"></path><path fill="rgb(223, 83, 83)" fill-opacity=" .5" d="M 231 162.9 C 237.6 162.9 237.6 172.9 231 172.9 C 224.3 172.9 224.3 162.9 231 162.9 Z"></path><path fill="rgb(223, 83, 83)" fill-opacity=" .5" d="M 142 212.4 C 148.6 212.4 148.6 222.4 142 222.4 C 135.3 222.4 135.3 212.4 142 212.4 Z"></path><path fill="rgb(223, 83, 83)" fill-opacity=" .5" d="M 293 152.5 C 299.6 152.5 299.6 162.5 293 162.5 C 286.3 162.5 286.3 152.5 293 152.5 Z"></path><path fill="rgb(223, 83, 83)" fill-opacity=" .5" d="M 236 209.1 C 242.6 209.1 242.6 219.1 236 219.1 C 229.3 219.1 229.3 209.1 236 209.1 Z"></path><path fill="rgb(223, 83, 83)" fill-opacity=" .5" d="M 60 207.7 C 66.6 207.7 66.6 217.7 60 217.7 C 53.3 217.7 53.3 207.7 60 207.7 Z"></path><path fill="rgb(223, 83, 83)" fill-opacity=" .5" d="M 167 207.2 C 173.6 207.2 173.6 217.2 167 217.2 C 160.3 217.2 160.3 207.2 167 207.2 Z"></path><path fill="rgb(223, 83, 83)" fill-opacity=" .5" d="M 112 226.1 C 118.6 226.1 118.6 236.1 112 236.1 C 105.3 236.1 105.3 226.1 112 226.1 Z"></path><path fill="rgb(223, 83, 83)" fill-opacity=" .5" d="M 275 177.7 C 281.6 177.7 281.6 187.7 275 187.7 C 268.3 187.7 268.3 177.7 275 177.7 Z"></path><path fill="rgb(223, 83, 83)" fill-opacity=" .5" d="M 259 197.3 C 265.6 197.3 265.6 207.3 259 207.3 C 252.3 207.3 252.3 197.3 259 197.3 Z"></path><path fill="rgb(223, 83, 83)" fill-opacity=" .5" d="M 272 194.9 C 278.6 194.9 278.6 204.9 272 204.9 C 265.3 204.9 265.3 194.9 272 194.9 Z"></path><path fill="rgb(223, 83, 83)" fill-opacity=" .5" d="M 169 147.8 C 175.6 147.8 175.6 157.8 169 157.8 C 162.3 157.8 162.3 147.8 169 147.8 Z"></path><path fill="rgb(223, 83, 83)" fill-opacity=" .5" d="M 303 167.6 C 309.6 167.6 309.6 177.6 303 177.6 C 296.3 177.6 296.3 167.6 303 167.6 Z"></path><path fill="rgb(223, 83, 83)" fill-opacity=" .5" d="M 217 160.5 C 223.6 160.5 223.6 170.5 217 170.5 C 210.3 170.5 210.3 160.5 217 160.5 Z"></path><path fill="rgb(223, 83, 83)" fill-opacity=" .5" d="M 160 212.9 C 166.6 212.9 166.6 222.9 160 222.9 C 153.3 222.9 153.3 212.9 160 212.9 Z"></path><path fill="rgb(223, 83, 83)" fill-opacity=" .5" d="M 251 186.0 C 257.6 186.0 257.6 196.0 251 196.0 C 244.3 196.0 244.3 186.0 251 186.0 Z"></path><path fill="rgb(223, 83, 83)" fill-opacity=" .5" d="M 132 198.7 C 138.6 198.7 138.6 208.7 132 208.7 C 125.3 208.7 125.3 198.7 132 198.7 Z"></path><path fill="rgb(223, 83, 83)" fill-opacity=" .5" d="M 142 176.5 C 148.6 176.5 148.6 186.5 142 186.5 C 135.3 186.5 135.3 176.5 142 176.5 Z"></path><path fill="rgb(223, 83, 83)" fill-opacity=" .5" d="M 163 209.1 C 169.6 209.1 169.6 219.1 163 219.1 C 156.3 219.1 156.3 209.1 163 209.1 Z"></path><path fill="rgb(223, 83, 83)" fill-opacity=" .5" d="M 230 186.0 C 236.6 186.0 236.6 196.0 230 196.0 C 223.3 196.0 223.3 186.0 230 186.0 Z"></path><path fill="rgb(223, 83, 83)" fill-opacity=" .5" d="M 177 203.4 C 183.6 203.4 183.6 213.4 177 213.4 C 170.3 213.4 170.3 203.4 177 203.4 Z"></path></g><g class="highcharts-series highcharts-tracker" visibility="visible"  transform="translate(71,61) scale(1 1)" clip-path="url(#highcharts-3)" style=""></g><g class="highcharts-markers highcharts-tracker" visibility="visible"  transform="translate(71,61) scale(1 1)" clip-path="url(#highcharts-2)" style=""><path fill="rgb(119, 152, 191)" fill-opacity=" .5" d="M 337 128.9 L 342 133.9 337 138.9 332 133.9 Z"></path><path fill="rgb(119, 152, 191)" fill-opacity=" .5" d="M 337 128.9 L 342 133.9 337 138.9 332 133.9 Z"></path><path fill="rgb(119, 152, 191)" fill-opacity=" .5" d="M 316 126.8 L 321 131.8 316 136.8 311 131.8 Z"></path><path fill="rgb(119, 152, 191)" fill-opacity=" .5" d="M 423 93.5 L 428 98.5 423 103.5 418 98.5 Z"></path><path fill="rgb(119, 152, 191)" fill-opacity=" .5" d="M 327 138.6 L 332 143.6 327 148.6 322 143.6 Z"></path><path fill="rgb(119, 152, 191)" fill-opacity=" .5" d="M 316 130.1 L 321 135.1 316 140.1 311 135.1 Z"></path><path fill="rgb(119, 152, 191)" fill-opacity=" .5" d="M 253 178.2 L 258 183.2 253 188.2 248 183.2 Z"></path><path fill="rgb(119, 152, 191)" fill-opacity=" .5" d="M 327 115.0 L 332 120.0 327 125.0 322 120.0 Z"></path><path fill="rgb(119, 152, 191)" fill-opacity=" .5" d="M 360 110.7 L 365 115.7 360 120.7 355 115.7 Z"></path><path fill="rgb(119, 152, 191)" fill-opacity=" .5" d="M 360 169.7 L 365 174.7 360 179.7 355 174.7 Z"></path><path fill="rgb(119, 152, 191)" fill-opacity=" .5" d="M 231 145.2 L 236 150.2 231 155.2 226 150.2 Z"></path><path fill="rgb(119, 152, 191)" fill-opacity=" .5" d="M 337 152.5 L 342 157.5 337 162.5 332 157.5 Z"></path><path fill="rgb(119, 152, 191)" fill-opacity=" .5" d="M 402 122.5 L 407 127.5 402 132.5 397 127.5 Z"></path><path fill="rgb(119, 152, 191)" fill-opacity=" .5" d="M 231 150.4 L 236 155.4 231 160.4 226 155.4 Z"></path><path fill="rgb(119, 152, 191)" fill-opacity=" .5" d="M 337 151.5 L 342 156.5 337 161.5 332 156.5 Z"></path><path fill="rgb(119, 152, 191)" fill-opacity=" .5" d="M 305 131.0 L 310 136.0 305 141.0 300 136.0 Z"></path><path fill="rgb(119, 152, 191)" fill-opacity=" .5" d="M 285 136.5 L 290 141.5 285 146.5 280 141.5 Z"></path><path fill="rgb(119, 152, 191)" fill-opacity=" .5" d="M 402 119.2 L 407 124.2 402 129.2 397 124.2 Z"></path><path fill="rgb(119, 152, 191)" fill-opacity=" .5" d="M 231 154.6 L 236 159.6 231 164.6 226 159.6 Z"></path><path fill="rgb(119, 152, 191)" fill-opacity=" .5" d="M 253 142.8 L 258 147.8 253 152.8 248 147.8 Z"></path><path fill="rgb(119, 152, 191)" fill-opacity=" .5" d="M 231 173.0 L 236 178.0 231 183.0 226 178.0 Z"></path><path fill="rgb(119, 152, 191)" fill-opacity=" .5" d="M 285 157.9 L 290 162.9 285 167.9 280 162.9 Z"></path><path fill="rgb(119, 152, 191)" fill-opacity=" .5" d="M 402 102.7 L 407 107.7 402 112.7 397 107.7 Z"></path><path fill="rgb(119, 152, 191)" fill-opacity=" .5" d="M 305 117.8 L 310 122.8 305 127.8 300 122.8 Z"></path><path fill="rgb(119, 152, 191)" fill-opacity=" .5" d="M 327 155.8 L 332 160.8 327 165.8 322 160.8 Z"></path><path fill="rgb(119, 152, 191)" fill-opacity=" .5" d="M 370 142.8 L 375 147.8 370 152.8 365 147.8 Z"></path><path fill="rgb(119, 152, 191)" fill-opacity=" .5" d="M 316 83.4 L 321 88.4 316 93.4 311 88.4 Z"></path><path fill="rgb(119, 152, 191)" fill-opacity=" .5" d="M 359 124.7 L 364 129.7 359 134.7 354 129.7 Z"></path><path fill="rgb(119, 152, 191)" fill-opacity=" .5" d="M 316 144.5 L 321 149.5 316 154.5 311 149.5 Z"></path><path fill="rgb(119, 152, 191)" fill-opacity=" .5" d="M 348 125.8 L 353 130.8 348 135.8 343 130.8 Z"></path><path fill="rgb(119, 152, 191)" fill-opacity=" .5" d="M 327 147.1 L 332 152.1 327 157.1 322 152.1 Z"></path><path fill="rgb(119, 152, 191)" fill-opacity=" .5" d="M 295 132.2 L 300 137.2 295 142.2 290 137.2 Z"></path><path fill="rgb(119, 152, 191)" fill-opacity=" .5" d="M 300 141.9 L 305 146.9 300 151.9 295 146.9 Z"></path><path fill="rgb(119, 152, 191)" fill-opacity=" .5" d="M 295 166.4 L 300 171.4 295 176.4 290 171.4 Z"></path><path fill="rgb(119, 152, 191)" fill-opacity=" .5" d="M 295 110.3 L 300 115.3 295 120.3 290 115.3 Z"></path><path fill="rgb(119, 152, 191)" fill-opacity=" .5" d="M 391 86.0 L 396 91.0 391 96.0 386 91.0 Z"></path><path fill="rgb(119, 152, 191)" fill-opacity=" .5" d="M 231 147.1 L 236 152.1 231 157.1 226 152.1 Z"></path><path fill="rgb(119, 152, 191)" fill-opacity=" .5" d="M 337 116.2 L 342 121.2 337 126.2 332 121.2 Z"></path><path fill="rgb(119, 152, 191)" fill-opacity=" .5" d="M 167 154.6 L 172 159.6 167 164.6 162 159.6 Z"></path><path fill="rgb(119, 152, 191)" fill-opacity=" .5" d="M 359 119.2 L 364 124.2 359 129.2 354 124.2 Z"></path><path fill="rgb(119, 152, 191)" fill-opacity=" .5" d="M 231 167.6 L 236 172.6 231 177.6 226 172.6 Z"></path><path fill="rgb(119, 152, 191)" fill-opacity=" .5" d="M 285 150.8 L 290 155.8 285 160.8 280 155.8 Z"></path><path fill="rgb(119, 152, 191)" fill-opacity=" .5" d="M 337 123.5 L 342 128.5 337 133.5 332 128.5 Z"></path><path fill="rgb(119, 152, 191)" fill-opacity=" .5" d="M 380 128.0 L 385 133.0 380 138.0 375 133.0 Z"></path><path fill="rgb(119, 152, 191)" fill-opacity=" .5" d="M 242 148.2 L 247 153.2 242 158.2 237 153.2 Z"></path><path fill="rgb(119, 152, 191)" fill-opacity=" .5" d="M 380 103.2 L 385 108.2 380 113.2 375 108.2 Z"></path><path fill="rgb(119, 152, 191)" fill-opacity=" .5" d="M 316 180.3 L 321 185.3 316 190.3 311 185.3 Z"></path><path fill="rgb(119, 152, 191)" fill-opacity=" .5" d="M 337 141.9 L 342 146.9 337 151.9 332 146.9 Z"></path><path fill="rgb(119, 152, 191)" fill-opacity=" .5" d="M 402 105.3 L 407 110.3 402 115.3 397 110.3 Z"></path><path fill="rgb(119, 152, 191)" fill-opacity=" .5" d="M 258 105.3 L 263 110.3 258 115.3 253 110.3 Z"></path><path fill="rgb(119, 152, 191)" fill-opacity=" .5" d="M 359 148.2 L 364 153.2 359 158.2 354 153.2 Z"></path><path fill="rgb(119, 152, 191)" fill-opacity=" .5" d="M 295 157.9 L 300 162.9 295 167.9 290 162.9 Z"></path><path fill="rgb(119, 152, 191)" fill-opacity=" .5" d="M 316 104.4 L 321 109.4 316 114.4 311 109.4 Z"></path><path fill="rgb(119, 152, 191)" fill-opacity=" .5" d="M 327 106.5 L 332 111.5 327 116.5 322 111.5 Z"></path><path fill="rgb(119, 152, 191)" fill-opacity=" .5" d="M 255 165.5 L 260 170.5 255 175.5 250 170.5 Z"></path><path fill="rgb(119, 152, 191)" fill-opacity=" .5" d="M 295 121.4 L 300 126.4 295 131.4 290 126.4 Z"></path><path fill="rgb(119, 152, 191)" fill-opacity=" .5" d="M 402 130.1 L 407 135.1 402 140.1 397 135.1 Z"></path><path fill="rgb(119, 152, 191)" fill-opacity=" .5" d="M 402 135.3 L 407 140.3 402 145.3 397 140.3 Z"></path><path fill="rgb(119, 152, 191)" fill-opacity=" .5" d="M 295 151.5 L 300 156.5 295 161.5 290 156.5 Z"></path><path fill="rgb(119, 152, 191)" fill-opacity=" .5" d="M 295 162.2 L 300 167.2 295 172.2 290 167.2 Z"></path><path fill="rgb(119, 152, 191)" fill-opacity=" .5" d="M 305 124.7 L 310 129.7 305 134.7 300 129.7 Z"></path><path fill="rgb(119, 152, 191)" fill-opacity=" .5" d="M 359 115.0 L 364 120.0 359 125.0 354 120.0 Z"></path><path fill="rgb(119, 152, 191)" fill-opacity=" .5" d="M 402 109.6 L 407 114.6 402 119.6 397 114.6 Z"></path><path fill="rgb(119, 152, 191)" fill-opacity=" .5" d="M 402 111.7 L 407 116.7 402 121.7 397 116.7 Z"></path><path fill="rgb(119, 152, 191)" fill-opacity=" .5" d="M 380 126.8 L 385 131.8 380 136.8 375 131.8 Z"></path><path fill="rgb(119, 152, 191)" fill-opacity=" .5" d="M 380 132.2 L 385 137.2 380 142.2 375 137.2 Z"></path><path fill="rgb(119, 152, 191)" fill-opacity=" .5" d="M 263 160.0 L 268 165.0 263 170.0 258 165.0 Z"></path><path fill="rgb(119, 152, 191)" fill-opacity=" .5" d="M 316 135.3 L 321 140.3 316 145.3 311 140.3 Z"></path><path fill="rgb(119, 152, 191)" fill-opacity=" .5" d="M 285 130.6 L 290 135.6 285 140.6 280 135.6 Z"></path><path fill="rgb(119, 152, 191)" fill-opacity=" .5" d="M 316 132.2 L 321 137.2 316 142.2 311 137.2 Z"></path><path fill="rgb(119, 152, 191)" fill-opacity=" .5" d="M 402 122.5 L 407 127.5 402 132.5 397 127.5 Z"></path><path fill="rgb(119, 152, 191)" fill-opacity=" .5" d="M 402 126.8 L 407 131.8 402 136.8 397 131.8 Z"></path><path fill="rgb(119, 152, 191)" fill-opacity=" .5" d="M 391 108.6 L 396 113.6 391 118.6 386 113.6 Z"></path><path fill="rgb(119, 152, 191)" fill-opacity=" .5" d="M 305 151.5 L 310 156.5 305 161.5 300 156.5 Z"></path><path fill="rgb(119, 152, 191)" fill-opacity=" .5" d="M 359 137.6 L 364 142.6 359 147.6 354 142.6 Z"></path><path fill="rgb(119, 152, 191)" fill-opacity=" .5" d="M 337 147.1 L 342 152.1 337 157.1 332 152.1 Z"></path><path fill="rgb(119, 152, 191)" fill-opacity=" .5" d="M 231 130.1 L 236 135.1 231 140.1 226 135.1 Z"></path><path fill="rgb(119, 152, 191)" fill-opacity=" .5" d="M 231 162.2 L 236 167.2 231 172.2 226 167.2 Z"></path><path fill="rgb(119, 152, 191)" fill-opacity=" .5" d="M 316 96.8 L 321 101.8 316 106.8 311 101.8 Z"></path><path fill="rgb(119, 152, 191)" fill-opacity=" .5" d="M 316 132.2 L 321 137.2 316 142.2 311 137.2 Z"></path><path fill="rgb(119, 152, 191)" fill-opacity=" .5" d="M 263 109.6 L 268 114.6 263 119.6 258 114.6 Z"></path><path fill="rgb(119, 152, 191)" fill-opacity=" .5" d="M 444 99.0 L 449 104.0 444 109.0 439 104.0 Z"></path><path fill="rgb(119, 152, 191)" fill-opacity=" .5" d="M 253 169.7 L 258 174.7 253 179.7 248 174.7 Z"></path><path fill="rgb(119, 152, 191)" fill-opacity=" .5" d="M 295 155.8 L 300 160.8 295 165.8 290 160.8 Z"></path><path fill="rgb(119, 152, 191)" fill-opacity=" .5" d="M 327 119.2 L 332 124.2 327 129.2 322 124.2 Z"></path><path fill="rgb(119, 152, 191)" fill-opacity=" .5" d="M 423 126.8 L 428 131.8 423 136.8 418 131.8 Z"></path><path fill="rgb(119, 152, 191)" fill-opacity=" .5" d="M 274 99.0 L 279 104.0 274 109.0 269 104.0 Z"></path><path fill="rgb(119, 152, 191)" fill-opacity=" .5" d="M 348 158.9 L 353 163.9 348 168.9 343 163.9 Z"></path><path fill="rgb(119, 152, 191)" fill-opacity=" .5" d="M 380 83.9 L 385 88.9 380 93.9 375 88.9 Z"></path><path fill="rgb(119, 152, 191)" fill-opacity=" .5" d="M 210 168.5 L 215 173.5 210 178.5 205 173.5 Z"></path><path fill="rgb(119, 152, 191)" fill-opacity=" .5" d="M 295 165.5 L 300 170.5 295 175.5 290 170.5 Z"></path><path fill="rgb(119, 152, 191)" fill-opacity=" .5" d="M 231 163.3 L 236 168.3 231 173.3 226 168.3 Z"></path><path fill="rgb(119, 152, 191)" fill-opacity=" .5" d="M 253 123.5 L 258 128.5 253 133.5 248 128.5 Z"></path><path fill="rgb(119, 152, 191)" fill-opacity=" .5" d="M 359 134.3 L 364 139.3 359 144.3 354 139.3 Z"></path><path fill="rgb(119, 152, 191)" fill-opacity=" .5" d="M 316 134.3 L 321 139.3 316 144.3 311 139.3 Z"></path><path fill="rgb(119, 152, 191)" fill-opacity=" .5" d="M 316 175.1 L 321 180.1 316 185.1 311 180.1 Z"></path><path fill="rgb(119, 152, 191)" fill-opacity=" .5" d="M 274 144.0 L 279 149.0 274 154.0 269 149.0 Z"></path><path fill="rgb(119, 152, 191)" fill-opacity=" .5" d="M 274 126.8 L 279 131.8 274 136.8 269 131.8 Z"></path><path fill="rgb(119, 152, 191)" fill-opacity=" .5" d="M 263 153.7 L 268 158.7 263 163.7 258 158.7 Z"></path><path fill="rgb(119, 152, 191)" fill-opacity=" .5" d="M 337 156.7 L 342 161.7 337 166.7 332 161.7 Z"></path><path fill="rgb(119, 152, 191)" fill-opacity=" .5" d="M 316 155.3 L 321 160.3 316 165.3 311 160.3 Z"></path><path fill="rgb(119, 152, 191)" fill-opacity=" .5" d="M 305 136.0 L 310 141.0 305 146.0 300 141.0 Z"></path><path fill="rgb(119, 152, 191)" fill-opacity=" .5" d="M 370 102.3 L 375 107.3 370 112.3 365 107.3 Z"></path><path fill="rgb(119, 152, 191)" fill-opacity=" .5" d="M 316 118.3 L 321 123.3 316 128.3 311 123.3 Z"></path><path fill="rgb(119, 152, 191)" fill-opacity=" .5" d="M 423 134.3 L 428 139.3 423 144.3 418 139.3 Z"></path><path fill="rgb(119, 152, 191)" fill-opacity=" .5" d="M 316 121.4 L 321 126.4 316 131.4 311 126.4 Z"></path><path fill="rgb(119, 152, 191)" fill-opacity=" .5" d="M 423 69.0 L 428 74.0 423 79.0 418 74.0 Z"></path><path fill="rgb(119, 152, 191)" fill-opacity=" .5" d="M 253 162.2 L 258 167.2 253 172.2 248 167.2 Z"></path><path fill="rgb(119, 152, 191)" fill-opacity=" .5" d="M 295 173.0 L 300 178.0 295 183.0 290 178.0 Z"></path><path fill="rgb(119, 152, 191)" fill-opacity=" .5" d="M 231 125.8 L 236 130.8 231 135.8 226 130.8 Z"></path><path fill="rgb(119, 152, 191)" fill-opacity=" .5" d="M 242 162.2 L 247 167.2 242 172.2 237 167.2 Z"></path><path fill="rgb(119, 152, 191)" fill-opacity=" .5" d="M 380 144.9 L 385 149.9 380 154.9 375 149.9 Z"></path><path fill="rgb(119, 152, 191)" fill-opacity=" .5" d="M 423 151.5 L 428 156.5 423 161.5 418 156.5 Z"></path><path fill="rgb(119, 152, 191)" fill-opacity=" .5" d="M 274 110.7 L 279 115.7 274 120.7 269 115.7 Z"></path><path fill="rgb(119, 152, 191)" fill-opacity=" .5" d="M 332 121.4 L 337 126.4 332 131.4 327 126.4 Z"></path><path fill="rgb(119, 152, 191)" fill-opacity=" .5" d="M 316 141.9 L 321 146.9 316 151.9 311 146.9 Z"></path><path fill="rgb(119, 152, 191)" fill-opacity=" .5" d="M 221 148.2 L 226 153.2 221 158.2 216 153.2 Z"></path><path fill="rgb(119, 152, 191)" fill-opacity=" .5" d="M 423 115.0 L 428 120.0 423 125.0 418 120.0 Z"></path><path fill="rgb(119, 152, 191)" fill-opacity=" .5" d="M 221 122.5 L 226 127.5 221 132.5 216 127.5 Z"></path><path fill="rgb(119, 152, 191)" fill-opacity=" .5" d="M 295 110.7 L 300 115.7 295 120.7 290 115.7 Z"></path><path fill="rgb(119, 152, 191)" fill-opacity=" .5" d="M 487 123.5 L 492 128.5 487 133.5 482 128.5 Z"></path><path fill="rgb(119, 152, 191)" fill-opacity=" .5" d="M 402 128.0 L 407 133.0 402 138.0 397 133.0 Z"></path><path fill="rgb(119, 152, 191)" fill-opacity=" .5" d="M 199 154.8 L 204 159.8 199 164.8 194 159.8 Z"></path><path fill="rgb(119, 152, 191)" fill-opacity=" .5" d="M 316 50.6 L 321 55.6 316 60.6 311 55.6 Z"></path><path fill="rgb(119, 152, 191)" fill-opacity=" .5" d="M 316 155.8 L 321 160.8 316 165.8 311 160.8 Z"></path><path fill="rgb(119, 152, 191)" fill-opacity=" .5" d="M 316 139.8 L 321 144.8 316 149.8 311 144.8 Z"></path><path fill="rgb(119, 152, 191)" fill-opacity=" .5" d="M 316 137.6 L 321 142.6 316 147.6 311 142.6 Z"></path><path fill="rgb(119, 152, 191)" fill-opacity=" .5" d="M 316 188.3 L 321 193.3 316 198.3 311 193.3 Z"></path><path fill="rgb(119, 152, 191)" fill-opacity=" .5" d="M 337 130.1 L 342 135.1 337 140.1 332 135.1 Z"></path><path fill="rgb(119, 152, 191)" fill-opacity=" .5" d="M 337 105.3 L 342 110.3 337 115.3 332 110.3 Z"></path><path fill="rgb(119, 152, 191)" fill-opacity=" .5" d="M 316 147.1 L 321 152.1 316 157.1 311 152.1 Z"></path><path fill="rgb(119, 152, 191)" fill-opacity=" .5" d="M 380 167.6 L 385 172.6 380 177.6 375 172.6 Z"></path><path fill="rgb(119, 152, 191)" fill-opacity=" .5" d="M 295 126.8 L 300 131.8 295 136.8 290 131.8 Z"></path><path fill="rgb(119, 152, 191)" fill-opacity=" .5" d="M 285 116.2 L 290 121.2 285 126.2 280 121.2 Z"></path><path fill="rgb(119, 152, 191)" fill-opacity=" .5" d="M 210 171.8 L 215 176.8 210 181.8 205 176.8 Z"></path><path fill="rgb(119, 152, 191)" fill-opacity=" .5" d="M 391 121.4 L 396 126.4 391 131.4 386 126.4 Z"></path><path fill="rgb(119, 152, 191)" fill-opacity=" .5" d="M 210 171.8 L 215 176.8 210 181.8 205 176.8 Z"></path><path fill="rgb(119, 152, 191)" fill-opacity=" .5" d="M 274 154.6 L 279 159.6 274 164.6 269 159.6 Z"></path><path fill="rgb(119, 152, 191)" fill-opacity=" .5" d="M 316 173.9 L 321 178.9 316 183.9 311 178.9 Z"></path><path fill="rgb(119, 152, 191)" fill-opacity=" .5" d="M 253 153.7 L 258 158.7 253 163.7 248 158.7 Z"></path><path fill="rgb(119, 152, 191)" fill-opacity=" .5" d="M 337 128.9 L 342 133.9 337 138.9 332 133.9 Z"></path><path fill="rgb(119, 152, 191)" fill-opacity=" .5" d="M 144 187.4 L 149 192.4 144 197.4 139 192.4 Z"></path><path fill="rgb(119, 152, 191)" fill-opacity=" .5" d="M 242 194.2 L 247 199.2 242 204.2 237 199.2 Z"></path><path fill="rgb(119, 152, 191)" fill-opacity=" .5" d="M 319 155.3 L 324 160.3 319 165.3 314 160.3 Z"></path><path fill="rgb(119, 152, 191)" fill-opacity=" .5" d="M 229 198.0 L 234 203.0 229 208.0 224 203.0 Z"></path><path fill="rgb(119, 152, 191)" fill-opacity=" .5" d="M 312 152.5 L 317 157.5 312 162.5 307 157.5 Z"></path><path fill="rgb(119, 152, 191)" fill-opacity=" .5" d="M 376 121.4 L 381 126.4 376 131.4 371 126.4 Z"></path><path fill="rgb(119, 152, 191)" fill-opacity=" .5" d="M 295 118.3 L 300 123.3 295 128.3 290 123.3 Z"></path><path fill="rgb(119, 152, 191)" fill-opacity=" .5" d="M 333 125.8 L 338 130.8 333 135.8 328 130.8 Z"></path><path fill="rgb(119, 152, 191)" fill-opacity=" .5" d="M 352 146.6 L 357 151.6 352 156.6 347 151.6 Z"></path><path fill="rgb(119, 152, 191)" fill-opacity=" .5" d="M 246 169.7 L 251 174.7 246 179.7 241 174.7 Z"></path><path fill="rgb(119, 152, 191)" fill-opacity=" .5" d="M 305 163.8 L 310 168.8 305 173.8 300 168.8 Z"></path><path fill="rgb(119, 152, 191)" fill-opacity=" .5" d="M 435 83.9 L 440 88.9 435 93.9 430 88.9 Z"></path><path fill="rgb(119, 152, 191)" fill-opacity=" .5" d="M 310 162.6 L 315 167.6 310 172.6 305 167.6 Z"></path><path fill="rgb(119, 152, 191)" fill-opacity=" .5" d="M 210 158.9 L 215 163.9 210 168.9 205 163.9 Z"></path><path fill="rgb(119, 152, 191)" fill-opacity=" .5" d="M 285 152.0 L 290 157.0 285 162.0 280 157.0 Z"></path><path fill="rgb(119, 152, 191)" fill-opacity=" .5" d="M 293 159.6 L 298 164.6 293 169.6 288 164.6 Z"></path><path fill="rgb(119, 152, 191)" fill-opacity=" .5" d="M 305 153.0 L 310 158.0 305 163.0 300 158.0 Z"></path><path fill="rgb(119, 152, 191)" fill-opacity=" .5" d="M 348 147.1 L 353 152.1 348 157.1 343 152.1 Z"></path><path fill="rgb(119, 152, 191)" fill-opacity=" .5" d="M 311 128.4 L 316 133.4 311 138.4 306 133.4 Z"></path><path fill="rgb(119, 152, 191)" fill-opacity=" .5" d="M 310 154.1 L 315 159.1 310 164.1 305 159.1 Z"></path><path fill="rgb(119, 152, 191)" fill-opacity=" .5" d="M 340 154.1 L 345 159.1 340 164.1 335 159.1 Z"></path><path fill="rgb(119, 152, 191)" fill-opacity=" .5" d="M 297 157.9 L 302 162.9 297 167.9 292 162.9 Z"></path><path fill="rgb(119, 152, 191)" fill-opacity=" .5" d="M 372 164.8 L 377 169.8 372 174.8 367 169.8 Z"></path><path fill="rgb(119, 152, 191)" fill-opacity=" .5" d="M 340 153.7 L 345 158.7 340 163.7 335 158.7 Z"></path><path fill="rgb(119, 152, 191)" fill-opacity=" .5" d="M 297 134.3 L 302 139.3 297 144.3 292 139.3 Z"></path><path fill="rgb(119, 152, 191)" fill-opacity=" .5" d="M 336 105.8 L 341 110.8 336 115.8 331 110.8 Z"></path><path fill="rgb(119, 152, 191)" fill-opacity=" .5" d="M 478 110.7 L 483 115.7 478 120.7 473 115.7 Z"></path><path fill="rgb(119, 152, 191)" fill-opacity=" .5" d="M 355 149.4 L 360 154.4 355 159.4 350 154.4 Z"></path><path fill="rgb(119, 152, 191)" fill-opacity=" .5" d="M 255 191.2 L 260 196.2 255 201.2 250 196.2 Z"></path><path fill="rgb(119, 152, 191)" fill-opacity=" .5" d="M 314 155.3 L 319 160.3 314 165.3 309 160.3 Z"></path><path fill="rgb(119, 152, 191)" fill-opacity=" .5" d="M 289 174.4 L 294 179.4 289 184.4 284 179.4 Z"></path><path fill="rgb(119, 152, 191)" fill-opacity=" .5" d="M 310 164.3 L 315 169.3 310 174.3 305 169.3 Z"></path><path fill="rgb(119, 152, 191)" fill-opacity=" .5" d="M 344 169.5 L 349 174.5 344 179.5 339 174.5 Z"></path><path fill="rgb(119, 152, 191)" fill-opacity=" .5" d="M 229 165.5 L 234 170.5 229 175.5 224 170.5 Z"></path><path fill="rgb(119, 152, 191)" fill-opacity=" .5" d="M 348 139.0 L 353 144.0 348 149.0 343 144.0 Z"></path><path fill="rgb(119, 152, 191)" fill-opacity=" .5" d="M 261 138.6 L 266 143.6 261 148.6 256 143.6 Z"></path><path fill="rgb(119, 152, 191)" fill-opacity=" .5" d="M 297 176.1 L 302 181.1 297 186.1 292 181.1 Z"></path><path fill="rgb(119, 152, 191)" fill-opacity=" .5" d="M 435 85.5 L 440 90.5 435 95.5 430 90.5 Z"></path><path fill="rgb(119, 152, 191)" fill-opacity=" .5" d="M 205 160.0 L 210 165.0 205 170.0 200 165.0 Z"></path><path fill="rgb(119, 152, 191)" fill-opacity=" .5" d="M 316 148.7 L 321 153.7 316 158.7 311 153.7 Z"></path><path fill="rgb(119, 152, 191)" fill-opacity=" .5" d="M 226 172.8 L 231 177.8 226 182.8 221 177.8 Z"></path><path fill="rgb(119, 152, 191)" fill-opacity=" .5" d="M 352 155.3 L 357 160.3 352 165.3 347 160.3 Z"></path><path fill="rgb(119, 152, 191)" fill-opacity=" .5" d="M 266 169.2 L 271 174.2 266 179.2 261 174.2 Z"></path><path fill="rgb(119, 152, 191)" fill-opacity=" .5" d="M 226 164.3 L 231 169.3 226 174.3 221 169.3 Z"></path><path fill="rgb(119, 152, 191)" fill-opacity=" .5" d="M 385 125.1 L 390 130.1 385 135.1 380 130.1 Z"></path><path fill="rgb(119, 152, 191)" fill-opacity=" .5" d="M 310 156.3 L 315 161.3 310 166.3 305 161.3 Z"></path><path fill="rgb(119, 152, 191)" fill-opacity=" .5" d="M 285 154.8 L 290 159.8 285 164.8 280 159.8 Z"></path><path fill="rgb(119, 152, 191)" fill-opacity=" .5" d="M 285 120.4 L 290 125.4 285 130.4 280 125.4 Z"></path><path fill="rgb(119, 152, 191)" fill-opacity=" .5" d="M 370 144.0 L 375 149.0 370 154.0 365 149.0 Z"></path><path fill="rgb(119, 152, 191)" fill-opacity=" .5" d="M 264 180.3 L 269 185.3 264 190.3 259 185.3 Z"></path><path fill="rgb(119, 152, 191)" fill-opacity=" .5" d="M 192 190.7 L 197 195.7 192 200.7 187 195.7 Z"></path><path fill="rgb(119, 152, 191)" fill-opacity=" .5" d="M 202 194.9 L 207 199.9 202 204.9 197 199.9 Z"></path><path fill="rgb(119, 152, 191)" fill-opacity=" .5" d="M 353 119.7 L 358 124.7 353 129.7 348 124.7 Z"></path><path fill="rgb(119, 152, 191)" fill-opacity=" .5" d="M 274 147.5 L 279 152.5 274 157.5 269 152.5 Z"></path><path fill="rgb(119, 152, 191)" fill-opacity=" .5" d="M 285 121.8 L 290 126.8 285 131.8 280 126.8 Z"></path><path fill="rgb(119, 152, 191)" fill-opacity=" .5" d="M 247 146.8 L 252 151.8 247 156.8 242 151.8 Z"></path><path fill="rgb(119, 152, 191)" fill-opacity=" .5" d="M 226 185.7 L 231 190.7 226 195.7 221 190.7 Z"></path><path fill="rgb(119, 152, 191)" fill-opacity=" .5" d="M 269 148.5 L 274 153.5 269 158.5 264 153.5 Z"></path><path fill="rgb(119, 152, 191)" fill-opacity=" .5" d="M 311 103.2 L 316 108.2 311 113.2 306 108.2 Z"></path><path fill="rgb(119, 152, 191)" fill-opacity=" .5" d="M 402 126.8 L 407 131.8 402 136.8 397 131.8 Z"></path><path fill="rgb(119, 152, 191)" fill-opacity=" .5" d="M 359 115.9 L 364 120.9 359 125.9 354 120.9 Z"></path><path fill="rgb(119, 152, 191)" fill-opacity=" .5" d="M 337 130.3 L 342 135.3 337 140.3 332 135.3 Z"></path><path fill="rgb(119, 152, 191)" fill-opacity=" .5" d="M 295 155.1 L 300 160.1 295 165.1 290 160.1 Z"></path><path fill="rgb(119, 152, 191)" fill-opacity=" .5" d="M 274 152.0 L 279 157.0 274 162.0 269 157.0 Z"></path><path fill="rgb(119, 152, 191)" fill-opacity=" .5" d="M 263 125.4 L 268 130.4 263 135.4 258 130.4 Z"></path><path fill="rgb(119, 152, 191)" fill-opacity=" .5" d="M 391 118.1 L 396 123.1 391 128.1 386 123.1 Z"></path><path fill="rgb(119, 152, 191)" fill-opacity=" .5" d="M 370 136.2 L 375 141.2 370 146.2 365 141.2 Z"></path><path fill="rgb(119, 152, 191)" fill-opacity=" .5" d="M 316 163.3 L 321 168.3 316 173.3 311 168.3 Z"></path><path fill="rgb(119, 152, 191)" fill-opacity=" .5" d="M 251 180.6 L 256 185.6 251 190.6 246 185.6 Z"></path><path fill="rgb(119, 152, 191)" fill-opacity=" .5" d="M 352 166.6 L 357 171.6 352 176.6 347 171.6 Z"></path><path fill="rgb(119, 152, 191)" fill-opacity=" .5" d="M 251 184.8 L 256 189.8 251 194.8 246 189.8 Z"></path><path fill="rgb(119, 152, 191)" fill-opacity=" .5" d="M 274 162.2 L 279 167.2 274 172.2 269 167.2 Z"></path><path fill="rgb(119, 152, 191)" fill-opacity=" .5" d="M 412 126.8 L 417 131.8 412 136.8 407 131.8 Z"></path><path fill="rgb(119, 152, 191)" fill-opacity=" .5" d="M 402 154.4 L 407 159.4 402 164.4 397 159.4 Z"></path><path fill="rgb(119, 152, 191)" fill-opacity=" .5" d="M 297 160.0 L 302 165.0 297 170.0 292 165.0 Z"></path><path fill="rgb(119, 152, 191)" fill-opacity=" .5" d="M 364 148.7 L 369 153.7 364 158.7 359 153.7 Z"></path><path fill="rgb(119, 152, 191)" fill-opacity=" .5" d="M 276 181.5 L 281 186.5 276 191.5 271 186.5 Z"></path><path fill="rgb(119, 152, 191)" fill-opacity=" .5" d="M 205 176.1 L 210 181.1 205 186.1 200 181.1 Z"></path><path fill="rgb(119, 152, 191)" fill-opacity=" .5" d="M 337 144.9 L 342 149.9 337 154.9 332 149.9 Z"></path><path fill="rgb(119, 152, 191)" fill-opacity=" .5" d="M 337 129.8 L 342 134.8 337 139.8 332 134.8 Z"></path><path fill="rgb(119, 152, 191)" fill-opacity=" .5" d="M 318 113.8 L 323 118.8 318 123.8 313 118.8 Z"></path><path fill="rgb(119, 152, 191)" fill-opacity=" .5" d="M 280 132.2 L 285 137.2 280 142.2 275 137.2 Z"></path><path fill="rgb(119, 152, 191)" fill-opacity=" .5" d="M 301 121.4 L 306 126.4 301 131.4 296 126.4 Z"></path><path fill="rgb(119, 152, 191)" fill-opacity=" .5" d="M 274 169.0 L 279 174.0 274 179.0 269 174.0 Z"></path><path fill="rgb(119, 152, 191)" fill-opacity=" .5" d="M 339 141.6 L 344 146.6 339 151.6 334 146.6 Z"></path><path fill="rgb(119, 152, 191)" fill-opacity=" .5" d="M 301 139.3 L 306 144.3 301 149.3 296 144.3 Z"></path><path fill="rgb(119, 152, 191)" fill-opacity=" .5" d="M 301 122.5 L 306 127.5 301 132.5 296 127.5 Z"></path><path fill="rgb(119, 152, 191)" fill-opacity=" .5" d="M 276 154.4 L 281 159.4 276 164.4 271 159.4 Z"></path><path fill="rgb(119, 152, 191)" fill-opacity=" .5" d="M 264 160.0 L 269 165.0 264 170.0 259 165.0 Z"></path><path fill="rgb(119, 152, 191)" fill-opacity=" .5" d="M 441 103.9 L 446 108.9 441 113.9 436 108.9 Z"></path><path fill="rgb(119, 152, 191)" fill-opacity=" .5" d="M 368 137.4 L 373 142.4 368 147.4 363 142.4 Z"></path><path fill="rgb(119, 152, 191)" fill-opacity=" .5" d="M 285 157.7 L 290 162.7 285 167.7 280 162.7 Z"></path><path fill="rgb(119, 152, 191)" fill-opacity=" .5" d="M 301 149.2 L 306 154.2 301 159.2 296 154.2 Z"></path><path fill="rgb(119, 152, 191)" fill-opacity=" .5" d="M 435 112.9 L 440 117.9 435 122.9 430 117.9 Z"></path><path fill="rgb(119, 152, 191)" fill-opacity=" .5" d="M 316 128.0 L 321 133.0 316 138.0 311 133.0 Z"></path><path fill="rgb(119, 152, 191)" fill-opacity=" .5" d="M 335 144.5 L 340 149.5 335 154.5 330 149.5 Z"></path><path fill="rgb(119, 152, 191)" fill-opacity=" .5" d="M 368 132.7 L 373 137.7 368 142.7 363 137.7 Z"></path><path fill="rgb(119, 152, 191)" fill-opacity=" .5" d="M 293 178.9 L 298 183.9 293 188.9 288 183.9 Z"></path><path fill="rgb(119, 152, 191)" fill-opacity=" .5" d="M 373 140.2 L 378 145.2 373 150.2 368 145.2 Z"></path><path fill="rgb(119, 152, 191)" fill-opacity=" .5" d="M 368 121.4 L 373 126.4 368 131.4 363 126.4 Z"></path><path fill="rgb(119, 152, 191)" fill-opacity=" .5" d="M 347 148.7 L 352 153.7 347 158.7 342 153.7 Z"></path><path fill="rgb(119, 152, 191)" fill-opacity=" .5" d="M 395 139.3 L 400 144.3 395 149.3 390 144.3 Z"></path><path fill="rgb(119, 152, 191)" fill-opacity=" .5" d="M 389 153.9 L 394 158.9 389 163.9 384 158.9 Z"></path><path fill="rgb(119, 152, 191)" fill-opacity=" .5" d="M 448 134.8 L 453 139.8 448 144.8 443 139.8 Z"></path><path fill="rgb(119, 152, 191)" fill-opacity=" .5" d="M 295 155.8 L 300 160.8 295 165.8 290 160.8 Z"></path><path fill="rgb(119, 152, 191)" fill-opacity=" .5" d="M 285 170.4 L 290 175.4 285 180.4 280 175.4 Z"></path></g></g><text x="292" text-anchor="middle" class="highcharts-title"  style="color:#333333;font-size:18px;fill:#333333;width:520px;" y="24"><tspan>Height Versus Weight of 507 Individuals by Gender</tspan></text><text x="292" text-anchor="middle" class="highcharts-subtitle"  style="color:#555555;fill:#555555;width:520px;" y="45"><tspan>Source: Heinz  2003</tspan></text><g class="highcharts-legend"  transform="translate(110,80)"><rect x="0.5" y="0.5" width="80" height="40" strokeWidth="1" stroke="#909090" stroke-width="1" fill="#FFFFFF" visibility="visible"></rect><g ><g><g class="highcharts-legend-item"  transform="translate(8,3)"><path fill="rgb(223, 83, 83)" fill-opacity=" .5" d="M 8 6 C 14.6 6 14.6 16 8 16 C 1.3 16 1.3 6 8 6 Z"></path><text x="21" style="color:#333333;font-size:12px;font-weight:bold;cursor:pointer;fill:#333333;" text-anchor="start"  y="15">Female</text></g><g class="highcharts-legend-item"  transform="translate(8,18)"><path fill="rgb(119, 152, 191)" fill-opacity=" .5" d="M 8 6 L 13 11 8 16 3 11 Z"></path><text x="21" y="15" style="color:#333333;font-size:12px;font-weight:bold;cursor:pointer;fill:#333333;" text-anchor="start" >Male</text></g></g></g></g><g class="highcharts-axis-labels highcharts-xaxis-labels" ><text x="71" style="color:#606060;cursor:default;font-size:11px;fill:#606060;width:74px;text-overflow:clip;" text-anchor="middle" transform="translate(0,0)" y="363" opacity="1">140</text><text x="154.8" style="color:#606060;cursor:default;font-size:11px;fill:#606060;width:74px;text-overflow:clip;" text-anchor="middle" transform="translate(0,0)" y="363" opacity="1">150</text><text x="238.6" style="color:#606060;cursor:default;font-size:11px;fill:#606060;width:74px;text-overflow:clip;" text-anchor="middle" transform="translate(0,0)" y="363" opacity="1">160</text><text x="322.5" style="color:#606060;cursor:default;font-size:11px;fill:#606060;width:74px;text-overflow:clip;" text-anchor="middle" transform="translate(0,0)" y="363" opacity="1">170</text><text x="406.3" style="color:#606060;cursor:default;font-size:11px;fill:#606060;width:74px;text-overflow:clip;" text-anchor="middle" transform="translate(0,0)" y="363" opacity="1">180</text><text x="490.1" style="color:#606060;cursor:default;font-size:11px;fill:#606060;width:74px;text-overflow:clip;" text-anchor="middle" transform="translate(0,0)" y="363" opacity="1">190</text><text x="563" style="color:#606060;cursor:default;font-size:11px;fill:#606060;width:74px;text-overflow:clip;" text-anchor="middle" transform="translate(0,0)" y="363" opacity="1">200</text></g><g class="highcharts-axis-labels highcharts-yaxis-labels" ><text x="56" style="color:#606060;cursor:default;font-size:11px;fill:#606060;width:183px;text-overflow:clip;" text-anchor="end" transform="translate(0,0)" y="349" opacity="1">20</text><text x="56" style="color:#606060;cursor:default;font-size:11px;fill:#606060;width:183px;text-overflow:clip;" text-anchor="end" transform="translate(0,0)" y="301" opacity="1">40</text><text x="56" style="color:#606060;cursor:default;font-size:11px;fill:#606060;width:183px;text-overflow:clip;" text-anchor="end" transform="translate(0,0)" y="254" opacity="1">60</text><text x="56" style="color:#606060;cursor:default;font-size:11px;fill:#606060;width:183px;text-overflow:clip;" text-anchor="end" transform="translate(0,0)" y="207" opacity="1">80</text><text x="56" style="color:#606060;cursor:default;font-size:11px;fill:#606060;width:183px;text-overflow:clip;" text-anchor="end" transform="translate(0,0)" y="160" opacity="1">100</text><text x="56" style="color:#606060;cursor:default;font-size:11px;fill:#606060;width:183px;text-overflow:clip;" text-anchor="end" transform="translate(0,0)" y="113" opacity="1">120</text><text x="56" style="color:#606060;cursor:default;font-size:11px;fill:#606060;width:183px;text-overflow:clip;" text-anchor="end" transform="translate(0,0)" y="66" opacity="1">140</text></g><g class="highcharts-tooltip"  style="cursor:default;padding:0;white-space:nowrap;" transform="translate(0,-9999)"><path fill="none" d="M 3.5 0.5 L 13.5 0.5 C 16.5 0.5 16.5 0.5 16.5 3.5 L 16.5 13.5 C 16.5 16.5 16.5 16.5 13.5 16.5 L 3.5 16.5 C 0.5 16.5 0.5 16.5 0.5 13.5 L 0.5 3.5 C 0.5 0.5 0.5 0.5 3.5 0.5"  stroke="black" stroke-opacity="0.0" stroke-width="5" transform="translate(1, 1)"></path><path fill="none" d="M 3.5 0.5 L 13.5 0.5 C 16.5 0.5 16.5 0.5 16.5 3.5 L 16.5 13.5 C 16.5 16.5 16.5 16.5 13.5 16.5 L 3.5 16.5 C 0.5 16.5 0.5 16.5 0.5 13.5 L 0.5 3.5 C 0.5 0.5 0.5 0.5 3.5 0.5"  stroke="black" stroke-opacity="0.0" stroke-width="3" transform="translate(1, 1)"></path><path fill="none" d="M 3.5 0.5 L 13.5 0.5 C 16.5 0.5 16.5 0.5 16.5 3.5 L 16.5 13.5 C 16.5 16.5 16.5 16.5 13.5 16.5 L 3.5 16.5 C 0.5 16.5 0.5 16.5 0.5 13.5 L 0.5 3.5 C 0.5 0.5 0.5 0.5 3.5 0.5"  stroke="black" stroke-opacity="0.1" stroke-width="1" transform="translate(1, 1)"></path><path fill="rgb(249, 249, 249)" fill-opacity=" .85" d="M 3.5 0.5 L 13.5 0.5 C 16.5 0.5 16.5 0.5 16.5 3.5 L 16.5 13.5 C 16.5 16.5 16.5 16.5 13.5 16.5 L 3.5 16.5 C 0.5 16.5 0.5 16.5 0.5 13.5 L 0.5 3.5 C 0.5 0.5 0.5 0.5 3.5 0.5"></path><text x="8"  style="font-size:12px;color:#333333;fill:#333333;" y="20"></text></g></svg>