<svg version="1.1" style="font-family: signika, serif; font-size: 12px; background-image: url(http://www.highcharts.com/samples/graphics/sand.png); background-position: initial initial; background-repeat: initial initial;" xmlns="http://www.w3.org/2000/svg" width="584" height="400" viewBox="0 0 584 400" xmlns:xlink="http://www.w3.org/1999/xlink"><style type="text/css"><![CDATA[@import url(http://fonts.googleapis.com/css?family=Signika:700);]]></style><desc>Created with Highcharts 4.1.7</desc><defs><clipPath id="highcharts-1"><rect x="0" y="0" width="510" height="296"></rect></clipPath><clipPath id="highcharts-2"><rect x="-99" y="-53" width="609" height="400"></rect></clipPath><clipPath id="highcharts-3"><rect x="0" y="0" width="510" height="296"></rect></clipPath></defs><g class="highcharts-grid" ></g><g class="highcharts-grid" ><path fill="none" d="M 64 349.5 L 574 349.5" stroke="#D8D8D8" stroke-width="1"  opacity="1"></path><path fill="none" d="M 64 300.5 L 574 300.5" stroke="#D8D8D8" stroke-width="1"  opacity="1"></path><path fill="none" d="M 64 250.5 L 574 250.5" stroke="#D8D8D8" stroke-width="1"  opacity="1"></path><path fill="none" d="M 64 201.5 L 574 201.5" stroke="#D8D8D8" stroke-width="1"  opacity="1"></path><path fill="none" d="M 64 152.5 L 574 152.5" stroke="#D8D8D8" stroke-width="1"  opacity="1"></path><path fill="none" d="M 64 102.5 L 574 102.5" stroke="#D8D8D8" stroke-width="1"  opacity="1"></path><path fill="none" d="M 64 52.5 L 574 52.5" stroke="#D8D8D8" stroke-width="1"  opacity="1"></path></g><g class="highcharts-axis" ><path fill="none" d="M 63.5 349 L 63.5 359" stroke="#C0D0E0" stroke-width="1" opacity="1"></path><path fill="none" d="M 148.5 349 L 148.5 359" stroke="#C0D0E0" stroke-width="1" opacity="1"></path><path fill="none" d="M 233.5 349 L 233.5 359" stroke="#C0D0E0" stroke-width="1" opacity="1"></path><path fill="none" d="M 318.5 349 L 318.5 359" stroke="#C0D0E0" stroke-width="1" opacity="1"></path><path fill="none" d="M 403.5 349 L 403.5 359" stroke="#C0D0E0" stroke-width="1" opacity="1"></path><path fill="none" d="M 488.5 349 L 488.5 359" stroke="#C0D0E0" stroke-width="1" opacity="1"></path><path fill="none" d="M 574.5 349 L 574.5 359" stroke="#C0D0E0" stroke-width="1" opacity="1"></path><text x="319"  text-anchor="middle" transform="translate(0,0)" class=" highcharts-xaxis-title" style="color:#707070;fill:#707070;" visibility="visible" y="385"><tspan>Height (cm)</tspan></text><path fill="none" d="M 64 349.5 L 574 349.5" stroke="#C0D0E0" stroke-width="1"  visibility="visible"></path></g><g class="highcharts-axis" ><text x="22.5"  text-anchor="middle" transform="translate(0,0) rotate(270 22.5 201)" class=" highcharts-yaxis-title" style="color:#707070;fill:#707070;" visibility="visible" y="201"><tspan>Weight (kg)</tspan></text></g><g class="highcharts-series-group" ><g class="highcharts-series highcharts-tracker" visibility="visible"  transform="translate(64,53) scale(1 1)" clip-path="url(#highcharts-3)" style=""></g><g class="highcharts-markers highcharts-tracker" visibility="visible"  transform="translate(64,53) scale(1 1)" clip-path="url(#highcharts-2)" style=""><path fill="rgb(223, 83, 83)" fill-opacity=" .5" d="M 202 174.3 C 208.6 174.3 208.6 184.3 202 184.3 C 195.3 184.3 195.3 174.3 202 174.3 Z"></path><path fill="rgb(223, 83, 83)" fill-opacity=" .5" d="M 289 176.5 C 295.6 176.5 295.6 186.5 289 186.5 C 282.3 186.5 282.3 176.5 289 176.5 Z"></path><path fill="rgb(223, 83, 83)" fill-opacity=" .5" d="M 175 220.4 C 181.6 220.4 181.6 230.4 175 230.4 C 168.3 230.4 168.3 220.4 175 220.4 Z"></path><path fill="rgb(223, 83, 83)" fill-opacity=" .5" d="M 207 203.4 C 213.6 203.4 213.6 213.4 207 213.4 C 200.3 213.4 200.3 203.4 207 203.4 Z"></path><path fill="rgb(223, 83, 83)" fill-opacity=" .5" d="M 310 163.2 C 316.6 163.2 316.6 173.2 310 173.2 C 303.3 173.2 303.3 163.2 310 163.2 Z"></path><path fill="rgb(223, 83, 83)" fill-opacity=" .5" d="M 148 150.8 C 154.6 150.8 154.6 160.8 148 160.8 C 141.3 160.8 141.3 150.8 148 150.8 Z"></path><path fill="rgb(223, 83, 83)" fill-opacity=" .5" d="M 192 188.8 C 198.6 188.8 198.6 198.8 192 198.8 C 185.3 198.8 185.3 188.8 192 188.8 Z"></path><path fill="rgb(223, 83, 83)" fill-opacity=" .5" d="M 277 172.1 C 283.6 172.1 283.6 182.1 277 182.1 C 270.3 182.1 270.3 172.1 277 172.1 Z"></path><path fill="rgb(223, 83, 83)" fill-opacity=" .5" d="M 170 154.1 C 176.6 154.1 176.6 164.1 170 164.1 C 163.3 164.1 163.3 154.1 170 154.1 Z"></path><path fill="rgb(223, 83, 83)" fill-opacity=" .5" d="M 250 174.3 C 256.6 174.3 256.6 184.3 250 184.3 C 243.3 184.3 243.3 174.3 250 174.3 Z"></path><path fill="rgb(223, 83, 83)" fill-opacity=" .5" d="M 300 183.4 C 306.6 183.4 306.6 193.4 300 193.4 C 293.3 193.4 293.3 183.4 300 183.4 Z"></path><path fill="rgb(223, 83, 83)" fill-opacity=" .5" d="M 170 182.2 C 176.6 182.2 176.6 192.2 170 192.2 C 163.3 192.2 163.3 182.2 170 182.2 Z"></path><path fill="rgb(223, 83, 83)" fill-opacity=" .5" d="M 250 198.9 C 256.6 198.9 256.6 208.9 250 208.9 C 243.3 208.9 243.3 198.9 250 198.9 Z"></path><path fill="rgb(223, 83, 83)" fill-opacity=" .5" d="M 84 224.8 C 90.6 224.8 90.6 234.8 84 234.8 C 77.3 234.8 77.3 224.8 84 224.8 Z"></path><path fill="rgb(223, 83, 83)" fill-opacity=" .5" d="M 137 192.3 C 143.6 192.3 143.6 202.3 137 202.3 C 130.3 202.3 130.3 192.3 137 192.3 Z"></path><path fill="rgb(223, 83, 83)" fill-opacity=" .5" d="M 181 190.1 C 187.6 190.1 187.6 200.1 181 200.1 C 174.3 200.1 174.3 190.1 181 190.1 Z"></path><path fill="rgb(223, 83, 83)" fill-opacity=" .5" d="M 192 183.4 C 198.6 183.4 198.6 193.4 192 193.4 C 185.3 193.4 185.3 183.4 192 183.4 Z"></path><path fill="rgb(223, 83, 83)" fill-opacity=" .5" d="M 289 203.4 C 295.6 203.4 295.6 213.4 289 213.4 C 282.3 213.4 282.3 203.4 289 203.4 Z"></path><path fill="rgb(223, 83, 83)" fill-opacity=" .5" d="M 192 188.8 C 198.6 188.8 198.6 198.8 192 198.8 C 185.3 198.8 185.3 188.8 192 188.8 Z"></path><path fill="rgb(223, 83, 83)" fill-opacity=" .5" d="M 289 158.7 C 295.6 158.7 295.6 168.7 289 168.7 C 282.3 168.7 282.3 158.7 289 158.7 Z"></path><path fill="rgb(223, 83, 83)" fill-opacity=" .5" d="M 170 192.3 C 176.6 192.3 176.6 202.3 170 202.3 C 163.3 202.3 163.3 192.3 170 192.3 Z"></path><path fill="rgb(223, 83, 83)" fill-opacity=" .5" d="M 213 208.1 C 219.6 208.1 219.6 218.1 213 218.1 C 206.3 218.1 206.3 208.1 213 208.1 Z"></path><path fill="rgb(223, 83, 83)" fill-opacity=" .5" d="M 148 205.8 C 154.6 205.8 154.6 215.8 148 215.8 C 141.3 215.8 141.3 205.8 148 205.8 Z"></path><path fill="rgb(223, 83, 83)" fill-opacity=" .5" d="M 266 208.6 C 272.6 208.6 272.6 218.6 266 218.6 C 259.3 218.6 259.3 208.6 266 208.6 Z"></path><path fill="rgb(223, 83, 83)" fill-opacity=" .5" d="M 300 183.4 C 306.6 183.4 306.6 193.4 300 193.4 C 293.3 193.4 293.3 183.4 300 183.4 Z"></path><path fill="rgb(223, 83, 83)" fill-opacity=" .5" d="M 192 138.5 C 198.6 138.5 198.6 148.5 192 148.5 C 185.3 148.5 185.3 138.5 192 138.5 Z"></path><path fill="rgb(223, 83, 83)" fill-opacity=" .5" d="M 126 196.7 C 132.6 196.7 132.6 206.7 126 206.7 C 119.3 206.7 119.3 196.7 126 196.7 Z"></path><path fill="rgb(223, 83, 83)" fill-opacity=" .5" d="M 234 188.8 C 240.6 188.8 240.6 198.8 234 198.8 C 227.3 198.8 227.3 188.8 234 188.8 Z"></path><path fill="rgb(223, 83, 83)" fill-opacity=" .5" d="M 234 161.9 C 240.6 161.9 240.6 171.9 234 171.9 C 227.3 171.9 227.3 161.9 234 161.9 Z"></path><path fill="rgb(223, 83, 83)" fill-opacity=" .5" d="M 234 181.2 C 240.6 181.2 240.6 191.2 234 191.2 C 227.3 191.2 227.3 181.2 234 181.2 Z"></path><path fill="rgb(223, 83, 83)" fill-opacity=" .5" d="M 170 141.7 C 176.6 141.7 176.6 151.7 170 151.7 C 163.3 151.7 163.3 141.7 170 141.7 Z"></path><path fill="rgb(223, 83, 83)" fill-opacity=" .5" d="M 256 149.6 C 262.6 149.6 262.6 159.6 256 159.6 C 249.3 159.6 249.3 149.6 256 149.6 Z"></path><path fill="rgb(223, 83, 83)" fill-opacity=" .5" d="M 289 203.4 C 295.6 203.4 295.6 213.4 289 213.4 C 282.3 213.4 282.3 203.4 289 203.4 Z"></path><path fill="rgb(223, 83, 83)" fill-opacity=" .5" d="M 213 83.5 C 219.6 83.5 219.6 93.5 213 93.5 C 206.3 93.5 206.3 83.5 213 83.5 Z"></path><path fill="rgb(223, 83, 83)" fill-opacity=" .5" d="M 170 203.6 C 176.6 203.6 176.6 213.6 170 213.6 C 163.3 213.6 163.3 203.6 170 203.6 Z"></path><path fill="rgb(223, 83, 83)" fill-opacity=" .5" d="M 299 198.0 C 305.6 198.0 305.6 208.0 299 208.0 C 292.3 208.0 292.3 198.0 299 198.0 Z"></path><path fill="rgb(223, 83, 83)" fill-opacity=" .5" d="M 299 186.6 C 305.6 186.6 305.6 196.6 299 196.6 C 292.3 196.6 292.3 186.6 299 186.6 Z"></path><path fill="rgb(223, 83, 83)" fill-opacity=" .5" d="M 256 158.7 C 262.6 158.7 262.6 168.7 256 168.7 C 249.3 168.7 249.3 158.7 256 158.7 Z"></path><path fill="rgb(223, 83, 83)" fill-opacity=" .5" d="M 245 184.9 C 251.6 184.9 251.6 194.9 245 194.9 C 238.3 194.9 238.3 184.9 245 184.9 Z"></path><path fill="rgb(223, 83, 83)" fill-opacity=" .5" d="M 105 174.3 C 111.6 174.3 111.6 184.3 105 184.3 C 98.3 184.3 98.3 174.3 105 174.3 Z"></path><path fill="rgb(223, 83, 83)" fill-opacity=" .5" d="M 192 176.5 C 198.6 176.5 198.6 186.5 192 186.5 C 185.3 186.5 185.3 176.5 192 176.5 Z"></path><path fill="rgb(223, 83, 83)" fill-opacity=" .5" d="M 213 127.4 C 219.6 127.4 219.6 137.4 213 137.4 C 206.3 137.4 206.3 127.4 213 127.4 Z"></path><path fill="rgb(223, 83, 83)" fill-opacity=" .5" d="M 234 185.6 C 240.6 185.6 240.6 195.6 234 195.6 C 227.3 195.6 227.3 185.6 234 185.6 Z"></path><path fill="rgb(223, 83, 83)" fill-opacity=" .5" d="M 234 210.3 C 240.6 210.3 240.6 220.3 234 220.3 C 227.3 220.3 227.3 210.3 234 210.3 Z"></path><path fill="rgb(223, 83, 83)" fill-opacity=" .5" d="M 181 166.4 C 187.6 166.4 187.6 176.4 181 176.4 C 174.3 176.4 174.3 166.4 181 166.4 Z"></path><path fill="rgb(223, 83, 83)" fill-opacity=" .5" d="M 256 194.5 C 262.6 194.5 262.6 204.5 256 204.5 C 249.3 204.5 249.3 194.5 256 194.5 Z"></path><path fill="rgb(223, 83, 83)" fill-opacity=" .5" d="M 256 205.8 C 262.6 205.8 262.6 215.8 256 215.8 C 249.3 215.8 249.3 205.8 256 205.8 Z"></path><path fill="rgb(223, 83, 83)" fill-opacity=" .5" d="M 256 183.4 C 262.6 183.4 262.6 193.4 256 193.4 C 249.3 193.4 249.3 183.4 256 183.4 Z"></path><path fill="rgb(223, 83, 83)" fill-opacity=" .5" d="M 213 190.1 C 219.6 190.1 219.6 200.1 213 200.1 C 206.3 200.1 206.3 190.1 213 190.1 Z"></path><path fill="rgb(223, 83, 83)" fill-opacity=" .5" d="M 277 166.4 C 283.6 166.4 283.6 176.4 277 176.4 C 270.3 176.4 270.3 166.4 277 166.4 Z"></path><path fill="rgb(223, 83, 83)" fill-opacity=" .5" d="M 213 140.7 C 219.6 140.7 219.6 150.7 213 150.7 C 206.3 150.7 206.3 140.7 213 140.7 Z"></path><path fill="rgb(223, 83, 83)" fill-opacity=" .5" d="M 256 173.3 C 262.6 173.3 262.6 183.3 256 183.3 C 249.3 183.3 249.3 173.3 256 173.3 Z"></path><path fill="rgb(223, 83, 83)" fill-opacity=" .5" d="M 105 223.6 C 111.6 223.6 111.6 233.6 105 233.6 C 98.3 233.6 98.3 223.6 105 223.6 Z"></path><path fill="rgb(223, 83, 83)" fill-opacity=" .5" d="M 192 205.8 C 198.6 205.8 198.6 215.8 192 215.8 C 185.3 215.8 185.3 205.8 192 205.8 Z"></path><path fill="rgb(223, 83, 83)" fill-opacity=" .5" d="M 148 183.4 C 154.6 183.4 154.6 193.4 148 193.4 C 141.3 193.4 141.3 183.4 148 183.4 Z"></path><path fill="rgb(223, 83, 83)" fill-opacity=" .5" d="M 170 194.8 C 176.6 194.8 176.6 204.8 170 204.8 C 163.3 204.8 163.3 194.8 170 194.8 Z"></path><path fill="rgb(223, 83, 83)" fill-opacity=" .5" d="M 175 202.4 C 181.6 202.4 181.6 212.4 175 212.4 C 168.3 212.4 168.3 202.4 175 202.4 Z"></path><path fill="rgb(223, 83, 83)" fill-opacity=" .5" d="M 192 205.8 C 198.6 205.8 198.6 215.8 192 215.8 C 185.3 215.8 185.3 205.8 192 205.8 Z"></path><path fill="rgb(223, 83, 83)" fill-opacity=" .5" d="M 234 205.8 C 240.6 205.8 240.6 215.8 234 215.8 C 227.3 215.8 227.3 205.8 234 205.8 Z"></path><path fill="rgb(223, 83, 83)" fill-opacity=" .5" d="M 192 166.4 C 198.6 166.4 198.6 176.4 192 176.4 C 185.3 176.4 185.3 166.4 192 166.4 Z"></path><path fill="rgb(223, 83, 83)" fill-opacity=" .5" d="M 256 204.6 C 262.6 204.6 262.6 214.6 256 214.6 C 249.3 214.6 249.3 204.6 256 204.6 Z"></path><path fill="rgb(223, 83, 83)" fill-opacity=" .5" d="M 170 208.6 C 176.6 208.6 176.6 218.6 170 218.6 C 163.3 218.6 163.3 208.6 170 208.6 Z"></path><path fill="rgb(223, 83, 83)" fill-opacity=" .5" d="M 164 209.1 C 170.6 209.1 170.6 219.1 164 219.1 C 157.3 219.1 157.3 209.1 164 209.1 Z"></path><path fill="rgb(223, 83, 83)" fill-opacity=" .5" d="M 300 183.4 C 306.6 183.4 306.6 193.4 300 193.4 C 293.3 193.4 293.3 183.4 300 183.4 Z"></path><path fill="rgb(223, 83, 83)" fill-opacity=" .5" d="M 245 187.3 C 251.6 187.3 251.6 197.3 245 197.3 C 238.3 197.3 238.3 187.3 245 187.3 Z"></path><path fill="rgb(223, 83, 83)" fill-opacity=" .5" d="M 310 158.7 C 316.6 158.7 316.6 168.7 310 168.7 C 303.3 168.7 303.3 158.7 310 158.7 Z"></path><path fill="rgb(223, 83, 83)" fill-opacity=" .5" d="M 208 184.4 C 214.6 184.4 214.6 194.4 208 194.4 C 201.3 194.4 201.3 184.4 208 184.4 Z"></path><path fill="rgb(223, 83, 83)" fill-opacity=" .5" d="M 192 207.3 C 198.6 207.3 198.6 217.3 192 217.3 C 185.3 217.3 185.3 207.3 192 207.3 Z"></path><path fill="rgb(223, 83, 83)" fill-opacity=" .5" d="M 245 200.7 C 251.6 200.7 251.6 210.7 245 210.7 C 238.3 210.7 238.3 200.7 245 200.7 Z"></path><path fill="rgb(223, 83, 83)" fill-opacity=" .5" d="M 213 185.6 C 219.6 185.6 219.6 195.6 213 195.6 C 206.3 195.6 206.3 185.6 213 185.6 Z"></path><path fill="rgb(223, 83, 83)" fill-opacity=" .5" d="M 213 204.1 C 219.6 204.1 219.6 214.1 213 214.1 C 206.3 214.1 206.3 204.1 213 204.1 Z"></path><path fill="rgb(223, 83, 83)" fill-opacity=" .5" d="M 234 183.4 C 240.6 183.4 240.6 193.4 234 193.4 C 227.3 193.4 227.3 183.4 234 183.4 Z"></path><path fill="rgb(223, 83, 83)" fill-opacity=" .5" d="M 202 195.7 C 208.6 195.7 208.6 205.7 202 205.7 C 195.3 205.7 195.3 195.7 202 195.7 Z"></path><path fill="rgb(223, 83, 83)" fill-opacity=" .5" d="M 148 220.4 C 154.6 220.4 154.6 230.4 148 230.4 C 141.3 230.4 141.3 220.4 148 220.4 Z"></path><path fill="rgb(223, 83, 83)" fill-opacity=" .5" d="M 300 178.7 C 306.6 178.7 306.6 188.7 300 188.7 C 293.3 188.7 293.3 178.7 300 178.7 Z"></path><path fill="rgb(223, 83, 83)" fill-opacity=" .5" d="M 213 178.7 C 219.6 178.7 219.6 188.7 213 188.7 C 206.3 188.7 206.3 178.7 213 178.7 Z"></path><path fill="rgb(223, 83, 83)" fill-opacity=" .5" d="M 234 204.6 C 240.6 204.6 240.6 214.6 234 214.6 C 227.3 214.6 227.3 204.6 234 204.6 Z"></path><path fill="rgb(223, 83, 83)" fill-opacity=" .5" d="M 181 198.9 C 187.6 198.9 187.6 208.9 181 208.9 C 174.3 208.9 174.3 198.9 181 198.9 Z"></path><path fill="rgb(223, 83, 83)" fill-opacity=" .5" d="M 245 204.6 C 251.6 204.6 251.6 214.6 245 214.6 C 238.3 214.6 238.3 204.6 245 204.6 Z"></path><path fill="rgb(223, 83, 83)" fill-opacity=" .5" d="M 277 153.1 C 283.6 153.1 283.6 163.1 277 163.1 C 270.3 163.1 270.3 153.1 277 153.1 Z"></path><path fill="rgb(223, 83, 83)" fill-opacity=" .5" d="M 159 219.2 C 165.6 219.2 165.6 229.2 159 229.2 C 152.3 229.2 152.3 219.2 159 219.2 Z"></path><path fill="rgb(223, 83, 83)" fill-opacity=" .5" d="M 126 206.8 C 132.6 206.8 132.6 216.8 126 216.8 C 119.3 216.8 119.3 206.8 126 206.8 Z"></path><path fill="rgb(223, 83, 83)" fill-opacity=" .5" d="M 300 161.0 C 306.6 161.0 306.6 171.0 300 171.0 C 293.3 171.0 293.3 161.0 300 161.0 Z"></path><path fill="rgb(223, 83, 83)" fill-opacity=" .5" d="M 213 196.7 C 219.6 196.7 219.6 206.7 213 206.7 C 206.3 206.7 206.3 196.7 213 196.7 Z"></path><path fill="rgb(223, 83, 83)" fill-opacity=" .5" d="M 321 192.3 C 327.6 192.3 327.6 202.3 321 202.3 C 314.3 202.3 314.3 192.3 321 192.3 Z"></path><path fill="rgb(223, 83, 83)" fill-opacity=" .5" d="M 213 200.2 C 219.6 200.2 219.6 210.2 213 210.2 C 206.3 210.2 206.3 200.2 213 200.2 Z"></path><path fill="rgb(223, 83, 83)" fill-opacity=" .5" d="M 224 165.9 C 230.6 165.9 230.6 175.9 224 175.9 C 217.3 175.9 217.3 165.9 224 165.9 Z"></path><path fill="rgb(223, 83, 83)" fill-opacity=" .5" d="M 364 138.5 C 370.6 138.5 370.6 148.5 364 148.5 C 357.3 148.5 357.3 138.5 364 138.5 Z"></path><path fill="rgb(223, 83, 83)" fill-opacity=" .5" d="M 213 194.5 C 219.6 194.5 219.6 204.5 213 204.5 C 206.3 204.5 206.3 194.5 213 194.5 Z"></path><path fill="rgb(223, 83, 83)" fill-opacity=" .5" d="M 170 202.4 C 176.6 202.4 176.6 212.4 170 212.4 C 163.3 212.4 163.3 202.4 170 202.4 Z"></path><path fill="rgb(223, 83, 83)" fill-opacity=" .5" d="M 192 195.7 C 198.6 195.7 198.6 205.7 192 205.7 C 185.3 205.7 185.3 195.7 192 195.7 Z"></path><path fill="rgb(223, 83, 83)" fill-opacity=" .5" d="M 272 200.7 C 278.6 200.7 278.6 210.7 272 210.7 C 265.3 210.7 265.3 200.7 272 200.7 Z"></path><path fill="rgb(223, 83, 83)" fill-opacity=" .5" d="M 299 175.5 C 305.6 175.5 305.6 185.5 299 185.5 C 292.3 185.5 292.3 175.5 299 175.5 Z"></path><path fill="rgb(223, 83, 83)" fill-opacity=" .5" d="M 137 195.7 C 143.6 195.7 143.6 205.7 137 205.7 C 130.3 205.7 130.3 195.7 137 195.7 Z"></path><path fill="rgb(223, 83, 83)" fill-opacity=" .5" d="M 234 177.7 C 240.6 177.7 240.6 187.7 234 187.7 C 227.3 187.7 227.3 177.7 234 177.7 Z"></path><path fill="rgb(223, 83, 83)" fill-opacity=" .5" d="M 192 188.8 C 198.6 188.8 198.6 198.8 192 198.8 C 185.3 198.8 185.3 188.8 192 188.8 Z"></path><path fill="rgb(223, 83, 83)" fill-opacity=" .5" d="M 234 151.8 C 240.6 151.8 240.6 161.8 234 161.8 C 227.3 161.8 227.3 151.8 234 151.8 Z"></path><path fill="rgb(223, 83, 83)" fill-opacity=" .5" d="M 277 168.8 C 283.6 168.8 283.6 178.8 277 178.8 C 270.3 178.8 270.3 168.8 277 168.8 Z"></path><path fill="rgb(223, 83, 83)" fill-opacity=" .5" d="M 159 203.4 C 165.6 203.4 165.6 213.4 159 213.4 C 152.3 213.4 152.3 203.4 159 203.4 Z"></path><path fill="rgb(223, 83, 83)" fill-opacity=" .5" d="M 256 202.4 C 262.6 202.4 262.6 212.4 256 212.4 C 249.3 212.4 249.3 202.4 256 202.4 Z"></path><path fill="rgb(223, 83, 83)" fill-opacity=" .5" d="M 192 131.9 C 198.6 131.9 198.6 141.9 192 141.9 C 185.3 141.9 185.3 131.9 192 131.9 Z"></path><path fill="rgb(223, 83, 83)" fill-opacity=" .5" d="M 256 169.8 C 262.6 169.8 262.6 179.8 256 179.8 C 249.3 179.8 249.3 169.8 256 169.8 Z"></path><path fill="rgb(223, 83, 83)" fill-opacity=" .5" d="M 105 191.3 C 111.6 191.3 111.6 201.3 105 201.3 C 98.3 201.3 98.3 191.3 105 191.3 Z"></path><path fill="rgb(223, 83, 83)" fill-opacity=" .5" d="M 170 202.4 C 176.6 202.4 176.6 212.4 170 212.4 C 163.3 212.4 163.3 202.4 170 202.4 Z"></path><path fill="rgb(223, 83, 83)" fill-opacity=" .5" d="M 224 204.6 C 230.6 204.6 230.6 214.6 224 214.6 C 217.3 214.6 217.3 204.6 224 204.6 Z"></path><path fill="rgb(223, 83, 83)" fill-opacity=" .5" d="M 213 161.9 C 219.6 161.9 219.6 171.9 213 171.9 C 206.3 171.9 206.3 161.9 213 161.9 Z"></path><path fill="rgb(223, 83, 83)" fill-opacity=" .5" d="M 192 217 C 198.6 217 198.6 227 192 227 C 185.3 227 185.3 217 192 217 Z"></path><path fill="rgb(223, 83, 83)" fill-opacity=" .5" d="M 213 182.2 C 219.6 182.2 219.6 192.2 213 192.2 C 206.3 192.2 206.3 182.2 213 182.2 Z"></path><path fill="rgb(223, 83, 83)" fill-opacity=" .5" d="M 245 200.2 C 251.6 200.2 251.6 210.2 245 210.2 C 238.3 210.2 238.3 200.2 245 200.2 Z"></path><path fill="rgb(223, 83, 83)" fill-opacity=" .5" d="M 170 193.5 C 176.6 193.5 176.6 203.5 170 203.5 C 163.3 203.5 163.3 193.5 170 193.5 Z"></path><path fill="rgb(223, 83, 83)" fill-opacity=" .5" d="M 192 184.4 C 198.6 184.4 198.6 194.4 192 194.4 C 185.3 194.4 185.3 184.4 192 184.4 Z"></path><path fill="rgb(223, 83, 83)" fill-opacity=" .5" d="M 181 183.4 C 187.6 183.4 187.6 193.4 181 193.4 C 174.3 193.4 174.3 183.4 181 183.4 Z"></path><path fill="rgb(223, 83, 83)" fill-opacity=" .5" d="M 148 202.2 C 154.6 202.2 154.6 212.2 148 212.2 C 141.3 212.2 141.3 202.2 148 202.2 Z"></path><path fill="rgb(223, 83, 83)" fill-opacity=" .5" d="M 163 212.5 C 169.6 212.5 169.6 222.5 163 222.5 C 156.3 222.5 156.3 212.5 163 212.5 Z"></path><path fill="rgb(223, 83, 83)" fill-opacity=" .5" d="M 259 181.2 C 265.6 181.2 265.6 191.2 259 191.2 C 252.3 191.2 252.3 181.2 259 181.2 Z"></path><path fill="rgb(223, 83, 83)" fill-opacity=" .5" d="M 168 209.1 C 174.6 209.1 174.6 219.1 168 219.1 C 161.3 219.1 161.3 209.1 168 209.1 Z"></path><path fill="rgb(223, 83, 83)" fill-opacity=" .5" d="M 283 210.3 C 289.6 210.3 289.6 220.3 283 220.3 C 276.3 220.3 276.3 210.3 283 210.3 Z"></path><path fill="rgb(223, 83, 83)" fill-opacity=" .5" d="M 187 194.3 C 193.6 194.3 193.6 204.3 187 204.3 C 180.3 204.3 180.3 194.3 187 194.3 Z"></path><path fill="rgb(223, 83, 83)" fill-opacity=" .5" d="M 136 205.6 C 142.6 205.6 142.6 215.6 136 215.6 C 129.3 215.6 129.3 205.6 136 205.6 Z"></path><path fill="rgb(223, 83, 83)" fill-opacity=" .5" d="M 234 197.7 C 240.6 197.7 240.6 207.7 234 207.7 C 227.3 207.7 227.3 197.7 234 197.7 Z"></path><path fill="rgb(223, 83, 83)" fill-opacity=" .5" d="M 153 203.4 C 159.6 203.4 159.6 213.4 153 213.4 C 146.3 213.4 146.3 203.4 153 203.4 Z"></path><path fill="rgb(223, 83, 83)" fill-opacity=" .5" d="M 230 186.9 C 236.6 186.9 236.6 196.9 230 196.9 C 223.3 196.9 223.3 186.9 230 186.9 Z"></path><path fill="rgb(223, 83, 83)" fill-opacity=" .5" d="M 170 219.9 C 176.6 219.9 176.6 229.9 170 229.9 C 163.3 229.9 163.3 219.9 170 219.9 Z"></path><path fill="rgb(223, 83, 83)" fill-opacity=" .5" d="M 136 181.4 C 142.6 181.4 142.6 191.4 136 191.4 C 129.3 191.4 129.3 181.4 136 181.4 Z"></path><path fill="rgb(223, 83, 83)" fill-opacity=" .5" d="M 154 225.8 C 160.6 225.8 160.6 235.8 154 235.8 C 147.3 235.8 147.3 225.8 154 225.8 Z"></path><path fill="rgb(223, 83, 83)" fill-opacity=" .5" d="M 245 191.1 C 251.6 191.1 251.6 201.1 245 201.1 C 238.3 201.1 238.3 191.1 245 191.1 Z"></path><path fill="rgb(223, 83, 83)" fill-opacity=" .5" d="M 170 233.7 C 176.6 233.7 176.6 243.7 170 243.7 C 163.3 243.7 163.3 233.7 170 233.7 Z"></path><path fill="rgb(223, 83, 83)" fill-opacity=" .5" d="M 170 205.1 C 176.6 205.1 176.6 215.1 170 215.1 C 163.3 215.1 163.3 205.1 170 205.1 Z"></path><path fill="rgb(223, 83, 83)" fill-opacity=" .5" d="M 229 192.8 C 235.6 192.8 235.6 202.8 229 202.8 C 222.3 202.8 222.3 192.8 229 192.8 Z"></path><path fill="rgb(223, 83, 83)" fill-opacity=" .5" d="M 193 197.2 C 199.6 197.2 199.6 207.2 193 207.2 C 186.3 207.2 186.3 197.2 193 197.2 Z"></path><path fill="rgb(223, 83, 83)" fill-opacity=" .5" d="M 177 206.1 C 183.6 206.1 183.6 216.1 177 216.1 C 170.3 216.1 170.3 206.1 177 206.1 Z"></path><path fill="rgb(223, 83, 83)" fill-opacity=" .5" d="M 204 207.6 C 210.6 207.6 210.6 217.6 204 217.6 C 197.3 217.6 197.3 207.6 204 207.6 Z"></path><path fill="rgb(223, 83, 83)" fill-opacity=" .5" d="M 140 174.5 C 146.6 174.5 146.6 184.5 140 184.5 C 133.3 184.5 133.3 174.5 140 174.5 Z"></path><path fill="rgb(223, 83, 83)" fill-opacity=" .5" d="M 127 218.9 C 133.6 218.9 133.6 228.9 127 228.9 C 120.3 228.9 120.3 218.9 127 218.9 Z"></path><path fill="rgb(223, 83, 83)" fill-opacity=" .5" d="M 277 187.3 C 283.6 187.3 283.6 197.3 277 197.3 C 270.3 197.3 270.3 187.3 277 187.3 Z"></path><path fill="rgb(223, 83, 83)" fill-opacity=" .5" d="M 197 201.2 C 203.6 201.2 203.6 211.2 197 211.2 C 190.3 211.2 190.3 201.2 197 201.2 Z"></path><path fill="rgb(223, 83, 83)" fill-opacity=" .5" d="M 148 195.2 C 154.6 195.2 154.6 205.2 148 205.2 C 141.3 205.2 141.3 195.2 148 195.2 Z"></path><path fill="rgb(223, 83, 83)" fill-opacity=" .5" d="M 80 229.8 C 86.6 229.8 86.6 239.8 80 239.8 C 73.3 239.8 73.3 229.8 80 229.8 Z"></path><path fill="rgb(223, 83, 83)" fill-opacity=" .5" d="M 181 191.8 C 187.6 191.8 187.6 201.8 181 201.8 C 174.3 201.8 174.3 191.8 181 191.8 Z"></path><path fill="rgb(223, 83, 83)" fill-opacity=" .5" d="M 188 216.5 C 194.6 216.5 194.6 226.5 188 226.5 C 181.3 226.5 181.3 216.5 188 216.5 Z"></path><path fill="rgb(223, 83, 83)" fill-opacity=" .5" d="M 197 207.1 C 203.6 207.1 203.6 217.1 197 217.1 C 190.3 217.1 190.3 207.1 197 207.1 Z"></path><path fill="rgb(223, 83, 83)" fill-opacity=" .5" d="M 170 229.3 C 176.6 229.3 176.6 239.3 170 239.3 C 163.3 239.3 163.3 229.3 170 229.3 Z"></path><path fill="rgb(223, 83, 83)" fill-opacity=" .5" d="M 180 204.1 C 186.6 204.1 186.6 214.1 180 214.1 C 173.3 214.1 173.3 204.1 180 204.1 Z"></path><path fill="rgb(223, 83, 83)" fill-opacity=" .5" d="M 234 184.9 C 240.6 184.9 240.6 194.9 234 194.9 C 227.3 194.9 227.3 184.9 234 184.9 Z"></path><path fill="rgb(223, 83, 83)" fill-opacity=" .5" d="M 165 222.9 C 171.6 222.9 171.6 232.9 165 232.9 C 158.3 232.9 158.3 222.9 165 222.9 Z"></path><path fill="rgb(223, 83, 83)" fill-opacity=" .5" d="M 236 194.8 C 242.6 194.8 242.6 204.8 236 204.8 C 229.3 204.8 229.3 194.8 236 194.8 Z"></path><path fill="rgb(223, 83, 83)" fill-opacity=" .5" d="M 249 183.9 C 255.6 183.9 255.6 193.9 249 193.9 C 242.3 193.9 242.3 183.9 249 183.9 Z"></path><path fill="rgb(223, 83, 83)" fill-opacity=" .5" d="M 199 212.5 C 205.6 212.5 205.6 222.5 199 222.5 C 192.3 222.5 192.3 212.5 199 212.5 Z"></path><path fill="rgb(223, 83, 83)" fill-opacity=" .5" d="M 277 80.8 C 283.6 80.8 283.6 90.8 277 90.8 C 270.3 90.8 270.3 80.8 277 80.8 Z"></path><path fill="rgb(223, 83, 83)" fill-opacity=" .5" d="M 227 200.7 C 233.6 200.7 233.6 210.7 227 210.7 C 220.3 210.7 220.3 200.7 227 200.7 Z"></path><path fill="rgb(223, 83, 83)" fill-opacity=" .5" d="M 242 179.5 C 248.6 179.5 248.6 189.5 242 189.5 C 235.3 189.5 235.3 179.5 242 179.5 Z"></path><path fill="rgb(223, 83, 83)" fill-opacity=" .5" d="M 195 162.7 C 201.6 162.7 201.6 172.7 195 172.7 C 188.3 172.7 188.3 162.7 195 162.7 Z"></path><path fill="rgb(223, 83, 83)" fill-opacity=" .5" d="M 206 192.8 C 212.6 192.8 212.6 202.8 206 202.8 C 199.3 202.8 199.3 192.8 206 192.8 Z"></path><path fill="rgb(223, 83, 83)" fill-opacity=" .5" d="M 323 166.1 C 329.6 166.1 329.6 176.1 323 176.1 C 316.3 176.1 316.3 166.1 323 166.1 Z"></path><path fill="rgb(223, 83, 83)" fill-opacity=" .5" d="M 270 201.7 C 276.6 201.7 276.6 211.7 270 211.7 C 263.3 211.7 263.3 201.7 270 201.7 Z"></path><path fill="rgb(223, 83, 83)" fill-opacity=" .5" d="M 282 196.2 C 288.6 196.2 288.6 206.2 282 206.2 C 275.3 206.2 275.3 196.2 282 196.2 Z"></path><path fill="rgb(223, 83, 83)" fill-opacity=" .5" d="M 245 170.1 C 251.6 170.1 251.6 180.1 245 180.1 C 238.3 180.1 238.3 170.1 245 170.1 Z"></path><path fill="rgb(223, 83, 83)" fill-opacity=" .5" d="M 239 208.6 C 245.6 208.6 245.6 218.6 239 218.6 C 232.3 218.6 232.3 208.6 239 208.6 Z"></path><path fill="rgb(223, 83, 83)" fill-opacity=" .5" d="M 94 159.7 C 100.6 159.7 100.6 169.7 94 169.7 C 87.3 169.7 87.3 159.7 94 159.7 Z"></path><path fill="rgb(223, 83, 83)" fill-opacity=" .5" d="M 178 208.1 C 184.6 208.1 184.6 218.1 178 218.1 C 171.3 218.1 171.3 208.1 178 208.1 Z"></path><path fill="rgb(223, 83, 83)" fill-opacity=" .5" d="M 194 193.8 C 200.6 193.8 200.6 203.8 194 203.8 C 187.3 203.8 187.3 193.8 194 193.8 Z"></path><path fill="rgb(223, 83, 83)" fill-opacity=" .5" d="M 338 175.5 C 344.6 175.5 344.6 185.5 338 185.5 C 331.3 185.5 331.3 175.5 338 175.5 Z"></path><path fill="rgb(223, 83, 83)" fill-opacity=" .5" d="M 161 203.1 C 167.6 203.1 167.6 213.1 161 213.1 C 154.3 213.1 154.3 203.1 161 203.1 Z"></path><path fill="rgb(223, 83, 83)" fill-opacity=" .5" d="M 193 197.7 C 199.6 197.7 199.6 207.7 193 207.7 C 186.3 207.7 186.3 197.7 193 197.7 Z"></path><path fill="rgb(223, 83, 83)" fill-opacity=" .5" d="M 161 220.4 C 167.6 220.4 167.6 230.4 161 230.4 C 154.3 230.4 154.3 220.4 161 220.4 Z"></path><path fill="rgb(223, 83, 83)" fill-opacity=" .5" d="M 191 211.5 C 197.6 211.5 197.6 221.5 191 221.5 C 184.3 221.5 184.3 211.5 191 211.5 Z"></path><path fill="rgb(223, 83, 83)" fill-opacity=" .5" d="M 164 227.6 C 170.6 227.6 170.6 237.6 164 237.6 C 157.3 237.6 157.3 227.6 164 227.6 Z"></path><path fill="rgb(223, 83, 83)" fill-opacity=" .5" d="M 222 195.7 C 228.6 195.7 228.6 205.7 222 205.7 C 215.3 205.7 215.3 195.7 222 195.7 Z"></path><path fill="rgb(223, 83, 83)" fill-opacity=" .5" d="M 246 196.7 C 252.6 196.7 252.6 206.7 246 206.7 C 239.3 206.7 239.3 196.7 246 196.7 Z"></path><path fill="rgb(223, 83, 83)" fill-opacity=" .5" d="M 181 183.9 C 187.6 183.9 187.6 193.9 181 193.9 C 174.3 193.9 174.3 183.9 181 183.9 Z"></path><path fill="rgb(223, 83, 83)" fill-opacity=" .5" d="M 255 202.4 C 261.6 202.4 261.6 212.4 255 212.4 C 248.3 212.4 248.3 202.4 255 202.4 Z"></path><path fill="rgb(223, 83, 83)" fill-opacity=" .5" d="M 282 169.6 C 288.6 169.6 288.6 179.6 282 179.6 C 275.3 179.6 275.3 169.6 282 169.6 Z"></path><path fill="rgb(223, 83, 83)" fill-opacity=" .5" d="M 168 217 C 174.6 217 174.6 227 168 227 C 161.3 227 161.3 217 168 217 Z"></path><path fill="rgb(223, 83, 83)" fill-opacity=" .5" d="M 123 219.4 C 129.6 219.4 129.6 229.4 123 229.4 C 116.3 229.4 116.3 219.4 123 219.4 Z"></path><path fill="rgb(223, 83, 83)" fill-opacity=" .5" d="M 197 192.8 C 203.6 192.8 203.6 202.8 197 202.8 C 190.3 202.8 190.3 192.8 197 192.8 Z"></path><path fill="rgb(223, 83, 83)" fill-opacity=" .5" d="M 250 210.0 C 256.6 210.0 256.6 220.0 250 220.0 C 243.3 220.0 243.3 210.0 250 210.0 Z"></path><path fill="rgb(223, 83, 83)" fill-opacity=" .5" d="M 204 163.7 C 210.6 163.7 210.6 173.7 204 173.7 C 197.3 173.7 197.3 163.7 204 163.7 Z"></path><path fill="rgb(223, 83, 83)" fill-opacity=" .5" d="M 257 180.4 C 263.6 180.4 263.6 190.4 257 190.4 C 250.3 190.4 250.3 180.4 257 180.4 Z"></path><path fill="rgb(223, 83, 83)" fill-opacity=" .5" d="M 191 196.7 C 197.6 196.7 197.6 206.7 191 206.7 C 184.3 206.7 184.3 196.7 191 196.7 Z"></path><path fill="rgb(223, 83, 83)" fill-opacity=" .5" d="M 255 169.1 C 261.6 169.1 261.6 179.1 255 179.1 C 248.3 179.1 248.3 169.1 255 169.1 Z"></path><path fill="rgb(223, 83, 83)" fill-opacity=" .5" d="M 307 174.5 C 313.6 174.5 313.6 184.5 307 184.5 C 300.3 184.5 300.3 174.5 307 174.5 Z"></path><path fill="rgb(223, 83, 83)" fill-opacity=" .5" d="M 255 166.1 C 261.6 166.1 261.6 176.1 255 176.1 C 248.3 176.1 248.3 166.1 255 166.1 Z"></path><path fill="rgb(223, 83, 83)" fill-opacity=" .5" d="M 127 227.1 C 133.6 227.1 133.6 237.1 127 237.1 C 120.3 237.1 120.3 227.1 127 227.1 Z"></path><path fill="rgb(223, 83, 83)" fill-opacity=" .5" d="M 180 205.1 C 186.6 205.1 186.6 215.1 180 215.1 C 173.3 215.1 173.3 205.1 180 205.1 Z"></path><path fill="rgb(223, 83, 83)" fill-opacity=" .5" d="M 204 202.9 C 210.6 202.9 210.6 212.9 204 212.9 C 197.3 212.9 197.3 202.9 204 202.9 Z"></path><path fill="rgb(223, 83, 83)" fill-opacity=" .5" d="M 246 186.1 C 252.6 186.1 252.6 196.1 246 196.1 C 239.3 196.1 239.3 186.1 246 186.1 Z"></path><path fill="rgb(223, 83, 83)" fill-opacity=" .5" d="M 102 194.0 C 108.6 194.0 108.6 204.0 102 204.0 C 95.3 204.0 95.3 194.0 102 194.0 Z"></path><path fill="rgb(223, 83, 83)" fill-opacity=" .5" d="M 199 217 C 205.6 217 205.6 227 199 227 C 192.3 227 192.3 217 199 217 Z"></path><path fill="rgb(223, 83, 83)" fill-opacity=" .5" d="M 208 211.3 C 214.6 211.3 214.6 221.3 208 221.3 C 201.3 221.3 201.3 211.3 208 211.3 Z"></path><path fill="rgb(223, 83, 83)" fill-opacity=" .5" d="M 94 220.2 C 100.6 220.2 100.6 230.2 94 230.2 C 87.3 230.2 87.3 220.2 94 220.2 Z"></path><path fill="rgb(223, 83, 83)" fill-opacity=" .5" d="M 234 202.9 C 240.6 202.9 240.6 212.9 234 212.9 C 227.3 212.9 227.3 202.9 234 202.9 Z"></path><path fill="rgb(223, 83, 83)" fill-opacity=" .5" d="M 277 189.6 C 283.6 189.6 283.6 199.6 277 199.6 C 270.3 199.6 270.3 189.6 277 189.6 Z"></path><path fill="rgb(223, 83, 83)" fill-opacity=" .5" d="M 289 153.6 C 295.6 153.6 295.6 163.6 289 163.6 C 282.3 163.6 282.3 153.6 289 153.6 Z"></path><path fill="rgb(223, 83, 83)" fill-opacity=" .5" d="M 221 209.1 C 227.6 209.1 227.6 219.1 221 219.1 C 214.3 219.1 214.3 209.1 221 209.1 Z"></path><path fill="rgb(223, 83, 83)" fill-opacity=" .5" d="M 187 205.4 C 193.6 205.4 193.6 215.4 187 215.4 C 180.3 215.4 180.3 205.4 187 205.4 Z"></path><path fill="rgb(223, 83, 83)" fill-opacity=" .5" d="M 178 143 C 184.6 143 184.6 153 178 153 C 171.3 153 171.3 143 178 143 Z"></path><path fill="rgb(223, 83, 83)" fill-opacity=" .5" d="M 218 160.0 C 224.6 160.0 224.6 170.0 218 170.0 C 211.3 170.0 211.3 160.0 218 160.0 Z"></path><path fill="rgb(223, 83, 83)" fill-opacity=" .5" d="M 195 187.3 C 201.6 187.3 201.6 197.3 195 197.3 C 188.3 197.3 188.3 187.3 195 187.3 Z"></path><path fill="rgb(223, 83, 83)" fill-opacity=" .5" d="M 170 157.0 C 176.6 157.0 176.6 167.0 170 167.0 C 163.3 167.0 163.3 157.0 170 157.0 Z"></path><path fill="rgb(223, 83, 83)" fill-opacity=" .5" d="M 136 210.3 C 142.6 210.3 142.6 220.3 136 220.3 C 129.3 220.3 129.3 210.3 136 210.3 Z"></path><path fill="rgb(223, 83, 83)" fill-opacity=" .5" d="M 208 191.5 C 214.6 191.5 214.6 201.5 208 201.5 C 201.3 201.5 201.3 191.5 208 191.5 Z"></path><path fill="rgb(223, 83, 83)" fill-opacity=" .5" d="M 212 187.3 C 218.6 187.3 218.6 197.3 212 197.3 C 205.3 197.3 205.3 187.3 212 187.3 Z"></path><path fill="rgb(223, 83, 83)" fill-opacity=" .5" d="M 216 192.3 C 222.6 192.3 222.6 202.3 216 202.3 C 209.3 202.3 209.3 192.3 216 192.3 Z"></path><path fill="rgb(223, 83, 83)" fill-opacity=" .5" d="M 342 190.6 C 348.6 190.6 348.6 200.6 342 200.6 C 335.3 200.6 335.3 190.6 342 190.6 Z"></path><path fill="rgb(223, 83, 83)" fill-opacity=" .5" d="M 240 205.1 C 246.6 205.1 246.6 215.1 240 215.1 C 233.3 215.1 233.3 205.1 240 205.1 Z"></path><path fill="rgb(223, 83, 83)" fill-opacity=" .5" d="M 148 206.3 C 154.6 206.3 154.6 216.3 148 216.3 C 141.3 216.3 141.3 206.3 148 206.3 Z"></path><path fill="rgb(223, 83, 83)" fill-opacity=" .5" d="M 105 225.6 C 111.6 225.6 111.6 235.6 105 235.6 C 98.3 235.6 98.3 225.6 105 225.6 Z"></path><path fill="rgb(223, 83, 83)" fill-opacity=" .5" d="M 197 202.4 C 203.6 202.4 203.6 212.4 197 212.4 C 190.3 212.4 190.3 202.4 197 202.4 Z"></path><path fill="rgb(223, 83, 83)" fill-opacity=" .5" d="M 175 169.8 C 181.6 169.8 181.6 179.8 175 179.8 C 168.3 179.8 168.3 169.8 175 169.8 Z"></path><path fill="rgb(223, 83, 83)" fill-opacity=" .5" d="M 234 189.8 C 240.6 189.8 240.6 199.8 234 199.8 C 227.3 199.8 227.3 189.8 234 189.8 Z"></path><path fill="rgb(223, 83, 83)" fill-opacity=" .5" d="M 148 192.8 C 154.6 192.8 154.6 202.8 148 202.8 C 141.3 202.8 141.3 192.8 148 192.8 Z"></path><path fill="rgb(223, 83, 83)" fill-opacity=" .5" d="M 255 160.5 C 261.6 160.5 261.6 170.5 255 170.5 C 248.3 170.5 248.3 160.5 255 160.5 Z"></path><path fill="rgb(223, 83, 83)" fill-opacity=" .5" d="M 170 216.5 C 176.6 216.5 176.6 226.5 170 226.5 C 163.3 226.5 163.3 216.5 170 216.5 Z"></path><path fill="rgb(223, 83, 83)" fill-opacity=" .5" d="M 213 201.7 C 219.6 201.7 219.6 211.7 213 211.7 C 206.3 211.7 206.3 201.7 213 201.7 Z"></path><path fill="rgb(223, 83, 83)" fill-opacity=" .5" d="M 234 196.5 C 240.6 196.5 240.6 206.5 234 206.5 C 227.3 206.5 227.3 196.5 234 196.5 Z"></path><path fill="rgb(223, 83, 83)" fill-opacity=" .5" d="M 181 191.5 C 187.6 191.5 187.6 201.5 181 201.5 C 174.3 201.5 174.3 191.5 181 191.5 Z"></path><path fill="rgb(223, 83, 83)" fill-opacity=" .5" d="M 170 216.5 C 176.6 216.5 176.6 226.5 170 226.5 C 163.3 226.5 163.3 216.5 170 216.5 Z"></path><path fill="rgb(223, 83, 83)" fill-opacity=" .5" d="M 234 205.8 C 240.6 205.8 240.6 215.8 234 215.8 C 227.3 215.8 227.3 205.8 234 205.8 Z"></path><path fill="rgb(223, 83, 83)" fill-opacity=" .5" d="M 202 196.0 C 208.6 196.0 208.6 206.0 202 206.0 C 195.3 206.0 195.3 196.0 202 196.0 Z"></path><path fill="rgb(223, 83, 83)" fill-opacity=" .5" d="M 245 186.6 C 251.6 186.6 251.6 196.6 245 196.6 C 238.3 196.6 238.3 186.6 245 186.6 Z"></path><path fill="rgb(223, 83, 83)" fill-opacity=" .5" d="M 224 200.7 C 230.6 200.7 230.6 210.7 224 210.7 C 217.3 210.7 217.3 200.7 224 200.7 Z"></path><path fill="rgb(223, 83, 83)" fill-opacity=" .5" d="M 181 172.8 C 187.6 172.8 187.6 182.8 181 182.8 C 174.3 182.8 174.3 172.8 181 172.8 Z"></path><path fill="rgb(223, 83, 83)" fill-opacity=" .5" d="M 171 211.8 C 177.6 211.8 177.6 221.8 171 221.8 C 164.3 221.8 164.3 211.8 171 211.8 Z"></path><path fill="rgb(223, 83, 83)" fill-opacity=" .5" d="M 255 159.7 C 261.6 159.7 261.6 169.7 255 169.7 C 248.3 169.7 248.3 159.7 255 159.7 Z"></path><path fill="rgb(223, 83, 83)" fill-opacity=" .5" d="M 187 208.1 C 193.6 208.1 193.6 218.1 187 218.1 C 180.3 218.1 180.3 208.1 187 208.1 Z"></path><path fill="rgb(223, 83, 83)" fill-opacity=" .5" d="M 102 227.3 C 108.6 227.3 108.6 237.3 102 237.3 C 95.3 237.3 95.3 227.3 102 227.3 Z"></path><path fill="rgb(223, 83, 83)" fill-opacity=" .5" d="M 170 206.1 C 176.6 206.1 176.6 216.1 170 216.1 C 163.3 216.1 163.3 206.1 170 206.1 Z"></path><path fill="rgb(223, 83, 83)" fill-opacity=" .5" d="M 310 135.6 C 316.6 135.6 316.6 145.6 310 145.6 C 303.3 145.6 303.3 135.6 310 135.6 Z"></path><path fill="rgb(223, 83, 83)" fill-opacity=" .5" d="M 187 204.6 C 193.6 204.6 193.6 214.6 187 214.6 C 180.3 214.6 180.3 204.6 187 204.6 Z"></path><path fill="rgb(223, 83, 83)" fill-opacity=" .5" d="M 122 226.3 C 128.6 226.3 128.6 236.3 122 236.3 C 115.3 236.3 115.3 226.3 122 226.3 Z"></path><path fill="rgb(223, 83, 83)" fill-opacity=" .5" d="M 170 224.3 C 176.6 224.3 176.6 234.3 170 234.3 C 163.3 234.3 163.3 224.3 170 224.3 Z"></path><path fill="rgb(223, 83, 83)" fill-opacity=" .5" d="M 259 173.0 C 265.6 173.0 265.6 183.0 259 183.0 C 252.3 183.0 252.3 173.0 259 173.0 Z"></path><path fill="rgb(223, 83, 83)" fill-opacity=" .5" d="M 339 174.3 C 345.6 174.3 345.6 184.3 339 184.3 C 332.3 184.3 332.3 174.3 339 174.3 Z"></path><path fill="rgb(223, 83, 83)" fill-opacity=" .5" d="M 280 192.8 C 286.6 192.8 286.6 202.8 280 202.8 C 273.3 202.8 273.3 192.8 280 192.8 Z"></path><path fill="rgb(223, 83, 83)" fill-opacity=" .5" d="M 289 205.8 C 295.6 205.8 295.6 215.8 289 215.8 C 282.3 215.8 282.3 205.8 289 205.8 Z"></path><path fill="rgb(223, 83, 83)" fill-opacity=" .5" d="M 256 160.7 C 262.6 160.7 262.6 170.7 256 170.7 C 249.3 170.7 249.3 160.7 256 160.7 Z"></path><path fill="rgb(223, 83, 83)" fill-opacity=" .5" d="M 310 123.7 C 316.6 123.7 316.6 133.7 310 133.7 C 303.3 133.7 303.3 123.7 310 123.7 Z"></path><path fill="rgb(223, 83, 83)" fill-opacity=" .5" d="M 227 199.2 C 233.6 199.2 233.6 209.2 227 209.2 C 220.3 209.2 220.3 199.2 227 199.2 Z"></path><path fill="rgb(223, 83, 83)" fill-opacity=" .5" d="M 297 136.8 C 303.6 136.8 303.6 146.8 297 146.8 C 290.3 146.8 290.3 136.8 297 136.8 Z"></path><path fill="rgb(223, 83, 83)" fill-opacity=" .5" d="M 165 215.5 C 171.6 215.5 171.6 225.5 165 225.5 C 158.3 225.5 158.3 215.5 165 215.5 Z"></path><path fill="rgb(223, 83, 83)" fill-opacity=" .5" d="M 234 170.6 C 240.6 170.6 240.6 180.6 234 180.6 C 227.3 180.6 227.3 170.6 234 170.6 Z"></path><path fill="rgb(223, 83, 83)" fill-opacity=" .5" d="M 144 222.4 C 150.6 222.4 150.6 232.4 144 232.4 C 137.3 232.4 137.3 222.4 144 222.4 Z"></path><path fill="rgb(223, 83, 83)" fill-opacity=" .5" d="M 297 159.7 C 303.6 159.7 303.6 169.7 297 169.7 C 290.3 169.7 290.3 159.7 297 159.7 Z"></path><path fill="rgb(223, 83, 83)" fill-opacity=" .5" d="M 239 218.9 C 245.6 218.9 245.6 228.9 239 228.9 C 232.3 228.9 232.3 218.9 239 218.9 Z"></path><path fill="rgb(223, 83, 83)" fill-opacity=" .5" d="M 61 217.4 C 67.6 217.4 67.6 227.4 61 227.4 C 54.3 227.4 54.3 217.4 61 217.4 Z"></path><path fill="rgb(223, 83, 83)" fill-opacity=" .5" d="M 170 217 C 176.6 217 176.6 227 170 227 C 163.3 227 163.3 217 170 217 Z"></path><path fill="rgb(223, 83, 83)" fill-opacity=" .5" d="M 113 236.7 C 119.6 236.7 119.6 246.7 113 246.7 C 106.3 246.7 106.3 236.7 113 236.7 Z"></path><path fill="rgb(223, 83, 83)" fill-opacity=" .5" d="M 279 186.1 C 285.6 186.1 285.6 196.1 279 196.1 C 272.3 196.1 272.3 186.1 279 186.1 Z"></path><path fill="rgb(223, 83, 83)" fill-opacity=" .5" d="M 262 206.6 C 268.6 206.6 268.6 216.6 262 216.6 C 255.3 216.6 255.3 206.6 262 206.6 Z"></path><path fill="rgb(223, 83, 83)" fill-opacity=" .5" d="M 276 204.1 C 282.6 204.1 282.6 214.1 276 214.1 C 269.3 214.1 269.3 204.1 276 204.1 Z"></path><path fill="rgb(223, 83, 83)" fill-opacity=" .5" d="M 171 154.8 C 177.6 154.8 177.6 164.8 171 164.8 C 164.3 164.8 164.3 154.8 171 154.8 Z"></path><path fill="rgb(223, 83, 83)" fill-opacity=" .5" d="M 307 175.5 C 313.6 175.5 313.6 185.5 307 185.5 C 300.3 185.5 300.3 175.5 307 175.5 Z"></path><path fill="rgb(223, 83, 83)" fill-opacity=" .5" d="M 221 168.1 C 227.6 168.1 227.6 178.1 221 178.1 C 214.3 178.1 214.3 168.1 221 168.1 Z"></path><path fill="rgb(223, 83, 83)" fill-opacity=" .5" d="M 162 222.9 C 168.6 222.9 168.6 232.9 162 232.9 C 155.3 232.9 155.3 222.9 162 222.9 Z"></path><path fill="rgb(223, 83, 83)" fill-opacity=" .5" d="M 255 194.8 C 261.6 194.8 261.6 204.8 255 204.8 C 248.3 204.8 248.3 194.8 255 194.8 Z"></path><path fill="rgb(223, 83, 83)" fill-opacity=" .5" d="M 134 208.1 C 140.6 208.1 140.6 218.1 134 218.1 C 127.3 218.1 127.3 208.1 134 208.1 Z"></path><path fill="rgb(223, 83, 83)" fill-opacity=" .5" d="M 144 184.9 C 150.6 184.9 150.6 194.9 144 194.9 C 137.3 194.9 137.3 184.9 144 184.9 Z"></path><path fill="rgb(223, 83, 83)" fill-opacity=" .5" d="M 165 218.9 C 171.6 218.9 171.6 228.9 165 228.9 C 158.3 228.9 158.3 218.9 165 218.9 Z"></path><path fill="rgb(223, 83, 83)" fill-opacity=" .5" d="M 233 194.8 C 239.6 194.8 239.6 204.8 233 204.8 C 226.3 204.8 226.3 194.8 233 194.8 Z"></path><path fill="rgb(223, 83, 83)" fill-opacity=" .5" d="M 180 213.0 C 186.6 213.0 186.6 223.0 180 223.0 C 173.3 223.0 173.3 213.0 180 213.0 Z"></path></g><g class="highcharts-series highcharts-tracker" visibility="visible"  transform="translate(64,53) scale(1 1)" clip-path="url(#highcharts-3)" style=""></g><g class="highcharts-markers highcharts-tracker" visibility="visible"  transform="translate(64,53) scale(1 1)" clip-path="url(#highcharts-2)" style=""><path fill="rgb(119, 152, 191)" fill-opacity=" .5" d="M 342 135.1 L 347 140.1 342 145.1 337 140.1 Z"></path><path fill="rgb(119, 152, 191)" fill-opacity=" .5" d="M 342 135.1 L 347 140.1 342 145.1 337 140.1 Z"></path><path fill="rgb(119, 152, 191)" fill-opacity=" .5" d="M 321 132.8 L 326 137.8 321 142.8 316 137.8 Z"></path><path fill="rgb(119, 152, 191)" fill-opacity=" .5" d="M 429 98.1 L 434 103.1 429 108.1 424 103.1 Z"></path><path fill="rgb(119, 152, 191)" fill-opacity=" .5" d="M 332 145.2 L 337 150.2 332 155.2 327 150.2 Z"></path><path fill="rgb(119, 152, 191)" fill-opacity=" .5" d="M 321 136.3 L 326 141.3 321 146.3 316 141.3 Z"></path><path fill="rgb(119, 152, 191)" fill-opacity=" .5" d="M 256 186.6 L 261 191.6 256 196.6 251 191.6 Z"></path><path fill="rgb(119, 152, 191)" fill-opacity=" .5" d="M 332 120.5 L 337 125.5 332 130.5 327 125.5 Z"></path><path fill="rgb(119, 152, 191)" fill-opacity=" .5" d="M 365 116.1 L 370 121.1 365 126.1 360 121.1 Z"></path><path fill="rgb(119, 152, 191)" fill-opacity=" .5" d="M 365 177.7 L 370 182.7 365 187.7 360 182.7 Z"></path><path fill="rgb(119, 152, 191)" fill-opacity=" .5" d="M 234 152.1 L 239 157.1 234 162.1 229 157.1 Z"></path><path fill="rgb(119, 152, 191)" fill-opacity=" .5" d="M 342 159.7 L 347 164.7 342 169.7 337 164.7 Z"></path><path fill="rgb(119, 152, 191)" fill-opacity=" .5" d="M 408 128.4 L 413 133.4 408 138.4 403 133.4 Z"></path><path fill="rgb(119, 152, 191)" fill-opacity=" .5" d="M 234 157.5 L 239 162.5 234 167.5 229 162.5 Z"></path><path fill="rgb(119, 152, 191)" fill-opacity=" .5" d="M 342 158.7 L 347 163.7 342 168.7 337 163.7 Z"></path><path fill="rgb(119, 152, 191)" fill-opacity=" .5" d="M 310 137.3 L 315 142.3 310 147.3 305 142.3 Z"></path><path fill="rgb(119, 152, 191)" fill-opacity=" .5" d="M 289 143 L 294 148 289 153 284 148 Z"></path><path fill="rgb(119, 152, 191)" fill-opacity=" .5" d="M 408 124.9 L 413 129.9 408 134.9 403 129.9 Z"></path><path fill="rgb(119, 152, 191)" fill-opacity=" .5" d="M 234 161.9 L 239 166.9 234 171.9 229 166.9 Z"></path><path fill="rgb(119, 152, 191)" fill-opacity=" .5" d="M 256 149.6 L 261 154.6 256 159.6 251 154.6 Z"></path><path fill="rgb(119, 152, 191)" fill-opacity=" .5" d="M 234 181.2 L 239 186.2 234 191.2 229 186.2 Z"></path><path fill="rgb(119, 152, 191)" fill-opacity=" .5" d="M 289 165.4 L 294 170.4 289 175.4 284 170.4 Z"></path><path fill="rgb(119, 152, 191)" fill-opacity=" .5" d="M 408 107.7 L 413 112.7 408 117.7 403 112.7 Z"></path><path fill="rgb(119, 152, 191)" fill-opacity=" .5" d="M 310 123.5 L 315 128.5 310 133.5 305 128.5 Z"></path><path fill="rgb(119, 152, 191)" fill-opacity=" .5" d="M 332 163.2 L 337 168.2 332 173.2 327 168.2 Z"></path><path fill="rgb(119, 152, 191)" fill-opacity=" .5" d="M 375 149.6 L 380 154.6 375 159.6 370 154.6 Z"></path><path fill="rgb(119, 152, 191)" fill-opacity=" .5" d="M 321 87.5 L 326 92.5 321 97.5 316 92.5 Z"></path><path fill="rgb(119, 152, 191)" fill-opacity=" .5" d="M 364 130.6 L 369 135.6 364 140.6 359 135.6 Z"></path><path fill="rgb(119, 152, 191)" fill-opacity=" .5" d="M 321 151.3 L 326 156.3 321 161.3 316 156.3 Z"></path><path fill="rgb(119, 152, 191)" fill-opacity=" .5" d="M 353 131.9 L 358 136.9 353 141.9 348 136.9 Z"></path><path fill="rgb(119, 152, 191)" fill-opacity=" .5" d="M 332 154.1 L 337 159.1 332 164.1 327 159.1 Z"></path><path fill="rgb(119, 152, 191)" fill-opacity=" .5" d="M 300 138.5 L 305 143.5 300 148.5 295 143.5 Z"></path><path fill="rgb(119, 152, 191)" fill-opacity=" .5" d="M 305 148.6 L 310 153.6 305 158.6 300 153.6 Z"></path><path fill="rgb(119, 152, 191)" fill-opacity=" .5" d="M 300 174.3 L 305 179.3 300 184.3 295 179.3 Z"></path><path fill="rgb(119, 152, 191)" fill-opacity=" .5" d="M 300 115.6 L 305 120.6 300 125.6 295 120.6 Z"></path><path fill="rgb(119, 152, 191)" fill-opacity=" .5" d="M 396 90.2 L 401 95.2 396 100.2 391 95.2 Z"></path><path fill="rgb(119, 152, 191)" fill-opacity=" .5" d="M 234 154.1 L 239 159.1 234 164.1 229 159.1 Z"></path><path fill="rgb(119, 152, 191)" fill-opacity=" .5" d="M 342 121.7 L 347 126.7 342 131.7 337 126.7 Z"></path><path fill="rgb(119, 152, 191)" fill-opacity=" .5" d="M 170 161.9 L 175 166.9 170 171.9 165 166.9 Z"></path><path fill="rgb(119, 152, 191)" fill-opacity=" .5" d="M 364 124.9 L 369 129.9 364 134.9 359 129.9 Z"></path><path fill="rgb(119, 152, 191)" fill-opacity=" .5" d="M 234 175.5 L 239 180.5 234 185.5 229 180.5 Z"></path><path fill="rgb(119, 152, 191)" fill-opacity=" .5" d="M 289 158.0 L 294 163.0 289 168.0 284 163.0 Z"></path><path fill="rgb(119, 152, 191)" fill-opacity=" .5" d="M 342 129.4 L 347 134.4 342 139.4 337 134.4 Z"></path><path fill="rgb(119, 152, 191)" fill-opacity=" .5" d="M 385 134.1 L 390 139.1 385 144.1 380 139.1 Z"></path><path fill="rgb(119, 152, 191)" fill-opacity=" .5" d="M 245 155.3 L 250 160.3 245 165.3 240 160.3 Z"></path><path fill="rgb(119, 152, 191)" fill-opacity=" .5" d="M 385 108.2 L 390 113.2 385 118.2 380 113.2 Z"></path><path fill="rgb(119, 152, 191)" fill-opacity=" .5" d="M 321 188.8 L 326 193.8 321 198.8 316 193.8 Z"></path><path fill="rgb(119, 152, 191)" fill-opacity=" .5" d="M 342 148.6 L 347 153.6 342 158.6 337 153.6 Z"></path><path fill="rgb(119, 152, 191)" fill-opacity=" .5" d="M 408 110.4 L 413 115.4 408 120.4 403 115.4 Z"></path><path fill="rgb(119, 152, 191)" fill-opacity=" .5" d="M 261 110.4 L 266 115.4 261 120.4 256 115.4 Z"></path><path fill="rgb(119, 152, 191)" fill-opacity=" .5" d="M 364 155.3 L 369 160.3 364 165.3 359 160.3 Z"></path><path fill="rgb(119, 152, 191)" fill-opacity=" .5" d="M 300 165.4 L 305 170.4 300 175.4 295 170.4 Z"></path><path fill="rgb(119, 152, 191)" fill-opacity=" .5" d="M 321 109.4 L 326 114.4 321 119.4 316 114.4 Z"></path><path fill="rgb(119, 152, 191)" fill-opacity=" .5" d="M 332 111.6 L 337 116.6 332 121.6 327 116.6 Z"></path><path fill="rgb(119, 152, 191)" fill-opacity=" .5" d="M 259 173.3 L 264 178.3 259 183.3 254 178.3 Z"></path><path fill="rgb(119, 152, 191)" fill-opacity=" .5" d="M 300 127.2 L 305 132.2 300 137.2 295 132.2 Z"></path><path fill="rgb(119, 152, 191)" fill-opacity=" .5" d="M 408 136.3 L 413 141.3 408 146.3 403 141.3 Z"></path><path fill="rgb(119, 152, 191)" fill-opacity=" .5" d="M 408 141.7 L 413 146.7 408 151.7 403 146.7 Z"></path><path fill="rgb(119, 152, 191)" fill-opacity=" .5" d="M 300 158.7 L 305 163.7 300 168.7 295 163.7 Z"></path><path fill="rgb(119, 152, 191)" fill-opacity=" .5" d="M 300 169.8 L 305 174.8 300 179.8 295 174.8 Z"></path><path fill="rgb(119, 152, 191)" fill-opacity=" .5" d="M 310 130.6 L 315 135.6 310 140.6 305 135.6 Z"></path><path fill="rgb(119, 152, 191)" fill-opacity=" .5" d="M 364 120.5 L 369 125.5 364 130.5 359 125.5 Z"></path><path fill="rgb(119, 152, 191)" fill-opacity=" .5" d="M 408 114.8 L 413 119.8 408 124.8 403 119.8 Z"></path><path fill="rgb(119, 152, 191)" fill-opacity=" .5" d="M 408 117.1 L 413 122.1 408 127.1 403 122.1 Z"></path><path fill="rgb(119, 152, 191)" fill-opacity=" .5" d="M 385 132.8 L 390 137.8 385 142.8 380 137.8 Z"></path><path fill="rgb(119, 152, 191)" fill-opacity=" .5" d="M 385 138.5 L 390 143.5 385 148.5 380 143.5 Z"></path><path fill="rgb(119, 152, 191)" fill-opacity=" .5" d="M 266 167.6 L 271 172.6 266 177.6 261 172.6 Z"></path><path fill="rgb(119, 152, 191)" fill-opacity=" .5" d="M 321 141.7 L 326 146.7 321 151.7 316 146.7 Z"></path><path fill="rgb(119, 152, 191)" fill-opacity=" .5" d="M 289 136.8 L 294 141.8 289 146.8 284 141.8 Z"></path><path fill="rgb(119, 152, 191)" fill-opacity=" .5" d="M 321 138.5 L 326 143.5 321 148.5 316 143.5 Z"></path><path fill="rgb(119, 152, 191)" fill-opacity=" .5" d="M 408 128.4 L 413 133.4 408 138.4 403 133.4 Z"></path><path fill="rgb(119, 152, 191)" fill-opacity=" .5" d="M 408 132.8 L 413 137.8 408 142.8 403 137.8 Z"></path><path fill="rgb(119, 152, 191)" fill-opacity=" .5" d="M 396 113.8 L 401 118.8 396 123.8 391 118.8 Z"></path><path fill="rgb(119, 152, 191)" fill-opacity=" .5" d="M 310 158.7 L 315 163.7 310 168.7 305 163.7 Z"></path><path fill="rgb(119, 152, 191)" fill-opacity=" .5" d="M 364 144.2 L 369 149.2 364 154.2 359 149.2 Z"></path><path fill="rgb(119, 152, 191)" fill-opacity=" .5" d="M 342 154.1 L 347 159.1 342 164.1 337 159.1 Z"></path><path fill="rgb(119, 152, 191)" fill-opacity=" .5" d="M 234 136.3 L 239 141.3 234 146.3 229 141.3 Z"></path><path fill="rgb(119, 152, 191)" fill-opacity=" .5" d="M 234 169.8 L 239 174.8 234 179.8 229 174.8 Z"></path><path fill="rgb(119, 152, 191)" fill-opacity=" .5" d="M 321 101.5 L 326 106.5 321 111.5 316 106.5 Z"></path><path fill="rgb(119, 152, 191)" fill-opacity=" .5" d="M 321 138.5 L 326 143.5 321 148.5 316 143.5 Z"></path><path fill="rgb(119, 152, 191)" fill-opacity=" .5" d="M 266 114.8 L 271 119.8 266 124.8 261 119.8 Z"></path><path fill="rgb(119, 152, 191)" fill-opacity=" .5" d="M 450 103.7 L 455 108.7 450 113.7 445 108.7 Z"></path><path fill="rgb(119, 152, 191)" fill-opacity=" .5" d="M 256 177.7 L 261 182.7 256 187.7 251 182.7 Z"></path><path fill="rgb(119, 152, 191)" fill-opacity=" .5" d="M 300 163.2 L 305 168.2 300 173.2 295 168.2 Z"></path><path fill="rgb(119, 152, 191)" fill-opacity=" .5" d="M 332 124.9 L 337 129.9 332 134.9 327 129.9 Z"></path><path fill="rgb(119, 152, 191)" fill-opacity=" .5" d="M 429 132.8 L 434 137.8 429 142.8 424 137.8 Z"></path><path fill="rgb(119, 152, 191)" fill-opacity=" .5" d="M 277 103.7 L 282 108.7 277 113.7 272 108.7 Z"></path><path fill="rgb(119, 152, 191)" fill-opacity=" .5" d="M 353 166.4 L 358 171.4 353 176.4 348 171.4 Z"></path><path fill="rgb(119, 152, 191)" fill-opacity=" .5" d="M 385 87.9 L 390 92.9 385 97.9 380 92.9 Z"></path><path fill="rgb(119, 152, 191)" fill-opacity=" .5" d="M 213 176.5 L 218 181.5 213 186.5 208 181.5 Z"></path><path fill="rgb(119, 152, 191)" fill-opacity=" .5" d="M 300 173.3 L 305 178.3 300 183.3 295 178.3 Z"></path><path fill="rgb(119, 152, 191)" fill-opacity=" .5" d="M 234 171.1 L 239 176.1 234 181.1 229 176.1 Z"></path><path fill="rgb(119, 152, 191)" fill-opacity=" .5" d="M 256 129.4 L 261 134.4 256 139.4 251 134.4 Z"></path><path fill="rgb(119, 152, 191)" fill-opacity=" .5" d="M 364 140.7 L 369 145.7 364 150.7 359 145.7 Z"></path><path fill="rgb(119, 152, 191)" fill-opacity=" .5" d="M 321 140.7 L 326 145.7 321 150.7 316 145.7 Z"></path><path fill="rgb(119, 152, 191)" fill-opacity=" .5" d="M 321 183.4 L 326 188.4 321 193.4 316 188.4 Z"></path><path fill="rgb(119, 152, 191)" fill-opacity=" .5" d="M 277 150.8 L 282 155.8 277 160.8 272 155.8 Z"></path><path fill="rgb(119, 152, 191)" fill-opacity=" .5" d="M 277 132.8 L 282 137.8 277 142.8 272 137.8 Z"></path><path fill="rgb(119, 152, 191)" fill-opacity=" .5" d="M 266 161.0 L 271 166.0 266 171.0 261 166.0 Z"></path><path fill="rgb(119, 152, 191)" fill-opacity=" .5" d="M 342 164.2 L 347 169.2 342 174.2 337 169.2 Z"></path><path fill="rgb(119, 152, 191)" fill-opacity=" .5" d="M 321 162.7 L 326 167.7 321 172.7 316 167.7 Z"></path><path fill="rgb(119, 152, 191)" fill-opacity=" .5" d="M 310 142.5 L 315 147.5 310 152.5 305 147.5 Z"></path><path fill="rgb(119, 152, 191)" fill-opacity=" .5" d="M 375 107.2 L 380 112.2 375 117.2 370 112.2 Z"></path><path fill="rgb(119, 152, 191)" fill-opacity=" .5" d="M 321 124.0 L 326 129.0 321 134.0 316 129.0 Z"></path><path fill="rgb(119, 152, 191)" fill-opacity=" .5" d="M 429 140.7 L 434 145.7 429 150.7 424 145.7 Z"></path><path fill="rgb(119, 152, 191)" fill-opacity=" .5" d="M 321 127.2 L 326 132.2 321 137.2 316 132.2 Z"></path><path fill="rgb(119, 152, 191)" fill-opacity=" .5" d="M 429 72.4 L 434 77.4 429 82.4 424 77.4 Z"></path><path fill="rgb(119, 152, 191)" fill-opacity=" .5" d="M 256 169.8 L 261 174.8 256 179.8 251 174.8 Z"></path><path fill="rgb(119, 152, 191)" fill-opacity=" .5" d="M 300 181.2 L 305 186.2 300 191.2 295 186.2 Z"></path><path fill="rgb(119, 152, 191)" fill-opacity=" .5" d="M 234 131.9 L 239 136.9 234 141.9 229 136.9 Z"></path><path fill="rgb(119, 152, 191)" fill-opacity=" .5" d="M 245 169.8 L 250 174.8 245 179.8 240 174.8 Z"></path><path fill="rgb(119, 152, 191)" fill-opacity=" .5" d="M 385 151.8 L 390 156.8 385 161.8 380 156.8 Z"></path><path fill="rgb(119, 152, 191)" fill-opacity=" .5" d="M 429 158.7 L 434 163.7 429 168.7 424 163.7 Z"></path><path fill="rgb(119, 152, 191)" fill-opacity=" .5" d="M 277 116.1 L 282 121.1 277 126.1 272 121.1 Z"></path><path fill="rgb(119, 152, 191)" fill-opacity=" .5" d="M 337 127.2 L 342 132.2 337 137.2 332 132.2 Z"></path><path fill="rgb(119, 152, 191)" fill-opacity=" .5" d="M 321 148.6 L 326 153.6 321 158.6 316 153.6 Z"></path><path fill="rgb(119, 152, 191)" fill-opacity=" .5" d="M 224 155.3 L 229 160.3 224 165.3 219 160.3 Z"></path><path fill="rgb(119, 152, 191)" fill-opacity=" .5" d="M 429 120.5 L 434 125.5 429 130.5 424 125.5 Z"></path><path fill="rgb(119, 152, 191)" fill-opacity=" .5" d="M 224 128.4 L 229 133.4 224 138.4 219 133.4 Z"></path><path fill="rgb(119, 152, 191)" fill-opacity=" .5" d="M 300 116.1 L 305 121.1 300 126.1 295 121.1 Z"></path><path fill="rgb(119, 152, 191)" fill-opacity=" .5" d="M 493 129.4 L 498 134.4 493 139.4 488 134.4 Z"></path><path fill="rgb(119, 152, 191)" fill-opacity=" .5" d="M 408 134.1 L 413 139.1 408 144.1 403 139.1 Z"></path><path fill="rgb(119, 152, 191)" fill-opacity=" .5" d="M 202 162.2 L 207 167.2 202 172.2 197 167.2 Z"></path><path fill="rgb(119, 152, 191)" fill-opacity=" .5" d="M 321 53.2 L 326 58.2 321 63.2 316 58.2 Z"></path><path fill="rgb(119, 152, 191)" fill-opacity=" .5" d="M 321 163.2 L 326 168.2 321 173.2 316 168.2 Z"></path><path fill="rgb(119, 152, 191)" fill-opacity=" .5" d="M 321 146.4 L 326 151.4 321 156.4 316 151.4 Z"></path><path fill="rgb(119, 152, 191)" fill-opacity=" .5" d="M 321 144.2 L 326 149.2 321 154.2 316 149.2 Z"></path><path fill="rgb(119, 152, 191)" fill-opacity=" .5" d="M 321 197.2 L 326 202.2 321 207.2 316 202.2 Z"></path><path fill="rgb(119, 152, 191)" fill-opacity=" .5" d="M 342 136.3 L 347 141.3 342 146.3 337 141.3 Z"></path><path fill="rgb(119, 152, 191)" fill-opacity=" .5" d="M 342 110.4 L 347 115.4 342 120.4 337 115.4 Z"></path><path fill="rgb(119, 152, 191)" fill-opacity=" .5" d="M 321 154.1 L 326 159.1 321 164.1 316 159.1 Z"></path><path fill="rgb(119, 152, 191)" fill-opacity=" .5" d="M 385 175.5 L 390 180.5 385 185.5 380 180.5 Z"></path><path fill="rgb(119, 152, 191)" fill-opacity=" .5" d="M 300 132.8 L 305 137.8 300 142.8 295 137.8 Z"></path><path fill="rgb(119, 152, 191)" fill-opacity=" .5" d="M 289 121.7 L 294 126.7 289 131.7 284 126.7 Z"></path><path fill="rgb(119, 152, 191)" fill-opacity=" .5" d="M 213 180 L 218 185 213 190 208 185 Z"></path><path fill="rgb(119, 152, 191)" fill-opacity=" .5" d="M 396 127.2 L 401 132.2 396 137.2 391 132.2 Z"></path><path fill="rgb(119, 152, 191)" fill-opacity=" .5" d="M 213 180 L 218 185 213 190 208 185 Z"></path><path fill="rgb(119, 152, 191)" fill-opacity=" .5" d="M 277 161.9 L 282 166.9 277 171.9 272 166.9 Z"></path><path fill="rgb(119, 152, 191)" fill-opacity=" .5" d="M 321 182.2 L 326 187.2 321 192.2 316 187.2 Z"></path><path fill="rgb(119, 152, 191)" fill-opacity=" .5" d="M 256 161.0 L 261 166.0 256 171.0 251 166.0 Z"></path><path fill="rgb(119, 152, 191)" fill-opacity=" .5" d="M 342 135.1 L 347 140.1 342 145.1 337 140.1 Z"></path><path fill="rgb(119, 152, 191)" fill-opacity=" .5" d="M 146 196.2 L 151 201.2 146 206.2 141 201.2 Z"></path><path fill="rgb(119, 152, 191)" fill-opacity=" .5" d="M 245 203.4 L 250 208.4 245 213.4 240 208.4 Z"></path><path fill="rgb(119, 152, 191)" fill-opacity=" .5" d="M 323 162.7 L 328 167.7 323 172.7 318 167.7 Z"></path><path fill="rgb(119, 152, 191)" fill-opacity=" .5" d="M 232 207.3 L 237 212.3 232 217.3 227 212.3 Z"></path><path fill="rgb(119, 152, 191)" fill-opacity=" .5" d="M 317 159.7 L 322 164.7 317 169.7 312 164.7 Z"></path><path fill="rgb(119, 152, 191)" fill-opacity=" .5" d="M 381 127.2 L 386 132.2 381 137.2 376 132.2 Z"></path><path fill="rgb(119, 152, 191)" fill-opacity=" .5" d="M 300 124.0 L 305 129.0 300 134.0 295 129.0 Z"></path><path fill="rgb(119, 152, 191)" fill-opacity=" .5" d="M 338 131.9 L 343 136.9 338 141.9 333 136.9 Z"></path><path fill="rgb(119, 152, 191)" fill-opacity=" .5" d="M 357 153.6 L 362 158.6 357 163.6 352 158.6 Z"></path><path fill="rgb(119, 152, 191)" fill-opacity=" .5" d="M 249 177.7 L 254 182.7 249 187.7 244 182.7 Z"></path><path fill="rgb(119, 152, 191)" fill-opacity=" .5" d="M 310 171.6 L 315 176.6 310 181.6 305 176.6 Z"></path><path fill="rgb(119, 152, 191)" fill-opacity=" .5" d="M 442 87.9 L 447 92.9 442 97.9 437 92.9 Z"></path><path fill="rgb(119, 152, 191)" fill-opacity=" .5" d="M 314 170.3 L 319 175.3 314 180.3 309 175.3 Z"></path><path fill="rgb(119, 152, 191)" fill-opacity=" .5" d="M 213 166.4 L 218 171.4 213 176.4 208 171.4 Z"></path><path fill="rgb(119, 152, 191)" fill-opacity=" .5" d="M 289 159.2 L 294 164.2 289 169.2 284 164.2 Z"></path><path fill="rgb(119, 152, 191)" fill-opacity=" .5" d="M 297 167.1 L 302 172.1 297 177.1 292 172.1 Z"></path><path fill="rgb(119, 152, 191)" fill-opacity=" .5" d="M 310 160.2 L 315 165.2 310 170.2 305 165.2 Z"></path><path fill="rgb(119, 152, 191)" fill-opacity=" .5" d="M 353 154.1 L 358 159.1 353 164.1 348 159.1 Z"></path><path fill="rgb(119, 152, 191)" fill-opacity=" .5" d="M 315 134.6 L 320 139.6 315 144.6 310 139.6 Z"></path><path fill="rgb(119, 152, 191)" fill-opacity=" .5" d="M 314 161.5 L 319 166.5 314 171.5 309 166.5 Z"></path><path fill="rgb(119, 152, 191)" fill-opacity=" .5" d="M 345 161.5 L 350 166.5 345 171.5 340 166.5 Z"></path><path fill="rgb(119, 152, 191)" fill-opacity=" .5" d="M 301 165.4 L 306 170.4 301 175.4 296 170.4 Z"></path><path fill="rgb(119, 152, 191)" fill-opacity=" .5" d="M 377 172.6 L 382 177.6 377 182.6 372 177.6 Z"></path><path fill="rgb(119, 152, 191)" fill-opacity=" .5" d="M 345 161.0 L 350 166.0 345 171.0 340 166.0 Z"></path><path fill="rgb(119, 152, 191)" fill-opacity=" .5" d="M 301 140.7 L 306 145.7 301 150.7 296 145.7 Z"></path><path fill="rgb(119, 152, 191)" fill-opacity=" .5" d="M 340 110.9 L 345 115.9 340 120.9 335 115.9 Z"></path><path fill="rgb(119, 152, 191)" fill-opacity=" .5" d="M 485 116.1 L 490 121.1 485 126.1 480 121.1 Z"></path><path fill="rgb(119, 152, 191)" fill-opacity=" .5" d="M 360 156.5 L 365 161.5 360 166.5 355 161.5 Z"></path><path fill="rgb(119, 152, 191)" fill-opacity=" .5" d="M 259 200.2 L 264 205.2 259 210.2 254 205.2 Z"></path><path fill="rgb(119, 152, 191)" fill-opacity=" .5" d="M 318 162.7 L 323 167.7 318 172.7 313 167.7 Z"></path><path fill="rgb(119, 152, 191)" fill-opacity=" .5" d="M 293 182.7 L 298 187.7 293 192.7 288 187.7 Z"></path><path fill="rgb(119, 152, 191)" fill-opacity=" .5" d="M 314 172.1 L 319 177.1 314 182.1 309 177.1 Z"></path><path fill="rgb(119, 152, 191)" fill-opacity=" .5" d="M 349 177.5 L 354 182.5 349 187.5 344 182.5 Z"></path><path fill="rgb(119, 152, 191)" fill-opacity=" .5" d="M 232 173.3 L 237 178.3 232 183.3 227 178.3 Z"></path><path fill="rgb(119, 152, 191)" fill-opacity=" .5" d="M 353 145.7 L 358 150.7 353 155.7 348 150.7 Z"></path><path fill="rgb(119, 152, 191)" fill-opacity=" .5" d="M 265 145.2 L 270 150.2 265 155.2 260 150.2 Z"></path><path fill="rgb(119, 152, 191)" fill-opacity=" .5" d="M 301 184.4 L 306 189.4 301 194.4 296 189.4 Z"></path><path fill="rgb(119, 152, 191)" fill-opacity=" .5" d="M 442 89.7 L 447 94.7 442 99.7 437 94.7 Z"></path><path fill="rgb(119, 152, 191)" fill-opacity=" .5" d="M 208 167.6 L 213 172.6 208 177.6 203 172.6 Z"></path><path fill="rgb(119, 152, 191)" fill-opacity=" .5" d="M 321 155.8 L 326 160.8 321 165.8 316 160.8 Z"></path><path fill="rgb(119, 152, 191)" fill-opacity=" .5" d="M 229 180.9 L 234 185.9 229 190.9 224 185.9 Z"></path><path fill="rgb(119, 152, 191)" fill-opacity=" .5" d="M 357 162.7 L 362 167.7 357 172.7 352 167.7 Z"></path><path fill="rgb(119, 152, 191)" fill-opacity=" .5" d="M 270 177.2 L 275 182.2 270 187.2 265 182.2 Z"></path><path fill="rgb(119, 152, 191)" fill-opacity=" .5" d="M 229 172.1 L 234 177.1 229 182.1 224 177.1 Z"></path><path fill="rgb(119, 152, 191)" fill-opacity=" .5" d="M 391 131.1 L 396 136.1 391 141.1 386 136.1 Z"></path><path fill="rgb(119, 152, 191)" fill-opacity=" .5" d="M 314 163.7 L 319 168.7 314 173.7 309 168.7 Z"></path><path fill="rgb(119, 152, 191)" fill-opacity=" .5" d="M 289 162.2 L 294 167.2 289 172.2 284 167.2 Z"></path><path fill="rgb(119, 152, 191)" fill-opacity=" .5" d="M 289 126.2 L 294 131.2 289 136.2 284 131.2 Z"></path><path fill="rgb(119, 152, 191)" fill-opacity=" .5" d="M 375 150.8 L 380 155.8 375 160.8 370 155.8 Z"></path><path fill="rgb(119, 152, 191)" fill-opacity=" .5" d="M 267 188.8 L 272 193.8 267 198.8 262 193.8 Z"></path><path fill="rgb(119, 152, 191)" fill-opacity=" .5" d="M 195 199.7 L 200 204.7 195 209.7 190 204.7 Z"></path><path fill="rgb(119, 152, 191)" fill-opacity=" .5" d="M 204 204.1 L 209 209.1 204 214.1 199 209.1 Z"></path><path fill="rgb(119, 152, 191)" fill-opacity=" .5" d="M 358 125.4 L 363 130.4 358 135.4 353 130.4 Z"></path><path fill="rgb(119, 152, 191)" fill-opacity=" .5" d="M 277 154.5 L 282 159.5 277 164.5 272 159.5 Z"></path><path fill="rgb(119, 152, 191)" fill-opacity=" .5" d="M 289 127.7 L 294 132.7 289 137.7 284 132.7 Z"></path><path fill="rgb(119, 152, 191)" fill-opacity=" .5" d="M 250 153.8 L 255 158.8 250 163.8 245 158.8 Z"></path><path fill="rgb(119, 152, 191)" fill-opacity=" .5" d="M 229 194.5 L 234 199.5 229 204.5 224 199.5 Z"></path><path fill="rgb(119, 152, 191)" fill-opacity=" .5" d="M 272 155.5 L 277 160.5 272 165.5 267 160.5 Z"></path><path fill="rgb(119, 152, 191)" fill-opacity=" .5" d="M 316 108.2 L 321 113.2 316 118.2 311 113.2 Z"></path><path fill="rgb(119, 152, 191)" fill-opacity=" .5" d="M 408 132.8 L 413 137.8 408 142.8 403 137.8 Z"></path><path fill="rgb(119, 152, 191)" fill-opacity=" .5" d="M 364 121.5 L 369 126.5 364 131.5 359 126.5 Z"></path><path fill="rgb(119, 152, 191)" fill-opacity=" .5" d="M 342 136.5 L 347 141.5 342 146.5 337 141.5 Z"></path><path fill="rgb(119, 152, 191)" fill-opacity=" .5" d="M 300 162.4 L 305 167.4 300 172.4 295 167.4 Z"></path><path fill="rgb(119, 152, 191)" fill-opacity=" .5" d="M 277 159.2 L 282 164.2 277 169.2 272 164.2 Z"></path><path fill="rgb(119, 152, 191)" fill-opacity=" .5" d="M 266 131.4 L 271 136.4 266 141.4 261 136.4 Z"></path><path fill="rgb(119, 152, 191)" fill-opacity=" .5" d="M 396 123.7 L 401 128.7 396 133.7 391 128.7 Z"></path><path fill="rgb(119, 152, 191)" fill-opacity=" .5" d="M 375 142.7 L 380 147.7 375 152.7 370 147.7 Z"></path><path fill="rgb(119, 152, 191)" fill-opacity=" .5" d="M 321 171.1 L 326 176.1 321 181.1 316 176.1 Z"></path><path fill="rgb(119, 152, 191)" fill-opacity=" .5" d="M 255 189.1 L 260 194.1 255 199.1 250 194.1 Z"></path><path fill="rgb(119, 152, 191)" fill-opacity=" .5" d="M 357 174.5 L 362 179.5 357 184.5 352 179.5 Z"></path><path fill="rgb(119, 152, 191)" fill-opacity=" .5" d="M 255 193.5 L 260 198.5 255 203.5 250 198.5 Z"></path><path fill="rgb(119, 152, 191)" fill-opacity=" .5" d="M 278 169.8 L 283 174.8 278 179.8 273 174.8 Z"></path><path fill="rgb(119, 152, 191)" fill-opacity=" .5" d="M 418 132.8 L 423 137.8 418 142.8 413 137.8 Z"></path><path fill="rgb(119, 152, 191)" fill-opacity=" .5" d="M 408 161.7 L 413 166.7 408 171.7 403 166.7 Z"></path><path fill="rgb(119, 152, 191)" fill-opacity=" .5" d="M 301 167.6 L 306 172.6 301 177.6 296 172.6 Z"></path><path fill="rgb(119, 152, 191)" fill-opacity=" .5" d="M 369 155.8 L 374 160.8 369 165.8 364 160.8 Z"></path><path fill="rgb(119, 152, 191)" fill-opacity=" .5" d="M 280 190.1 L 285 195.1 280 200.1 275 195.1 Z"></path><path fill="rgb(119, 152, 191)" fill-opacity=" .5" d="M 208 184.4 L 213 189.4 208 194.4 203 189.4 Z"></path><path fill="rgb(119, 152, 191)" fill-opacity=" .5" d="M 342 151.8 L 347 156.8 342 161.8 337 156.8 Z"></path><path fill="rgb(119, 152, 191)" fill-opacity=" .5" d="M 342 136.0 L 347 141.0 342 146.0 337 141.0 Z"></path><path fill="rgb(119, 152, 191)" fill-opacity=" .5" d="M 323 119.3 L 328 124.3 323 129.3 318 124.3 Z"></path><path fill="rgb(119, 152, 191)" fill-opacity=" .5" d="M 284 138.5 L 289 143.5 284 148.5 279 143.5 Z"></path><path fill="rgb(119, 152, 191)" fill-opacity=" .5" d="M 306 127.2 L 311 132.2 306 137.2 301 132.2 Z"></path><path fill="rgb(119, 152, 191)" fill-opacity=" .5" d="M 277 177.0 L 282 182.0 277 187.0 272 182.0 Z"></path><path fill="rgb(119, 152, 191)" fill-opacity=" .5" d="M 344 148.4 L 349 153.4 344 158.4 339 153.4 Z"></path><path fill="rgb(119, 152, 191)" fill-opacity=" .5" d="M 306 145.9 L 311 150.9 306 155.9 301 150.9 Z"></path><path fill="rgb(119, 152, 191)" fill-opacity=" .5" d="M 306 128.4 L 311 133.4 306 138.4 301 133.4 Z"></path><path fill="rgb(119, 152, 191)" fill-opacity=" .5" d="M 280 161.7 L 285 166.7 280 171.7 275 166.7 Z"></path><path fill="rgb(119, 152, 191)" fill-opacity=" .5" d="M 267 167.6 L 272 172.6 267 177.6 262 172.6 Z"></path><path fill="rgb(119, 152, 191)" fill-opacity=" .5" d="M 447 108.9 L 452 113.9 447 118.9 442 113.9 Z"></path><path fill="rgb(119, 152, 191)" fill-opacity=" .5" d="M 374 143.9 L 379 148.9 374 153.9 369 148.9 Z"></path><path fill="rgb(119, 152, 191)" fill-opacity=" .5" d="M 289 165.2 L 294 170.2 289 175.2 284 170.2 Z"></path><path fill="rgb(119, 152, 191)" fill-opacity=" .5" d="M 306 156.3 L 311 161.3 306 166.3 301 161.3 Z"></path><path fill="rgb(119, 152, 191)" fill-opacity=" .5" d="M 442 118.3 L 447 123.3 442 128.3 437 123.3 Z"></path><path fill="rgb(119, 152, 191)" fill-opacity=" .5" d="M 321 134.1 L 326 139.1 321 144.1 316 139.1 Z"></path><path fill="rgb(119, 152, 191)" fill-opacity=" .5" d="M 340 151.3 L 345 156.3 340 161.3 335 156.3 Z"></path><path fill="rgb(119, 152, 191)" fill-opacity=" .5" d="M 374 139.0 L 379 144.0 374 149.0 369 144.0 Z"></path><path fill="rgb(119, 152, 191)" fill-opacity=" .5" d="M 297 187.3 L 302 192.3 297 197.3 292 192.3 Z"></path><path fill="rgb(119, 152, 191)" fill-opacity=" .5" d="M 378 146.9 L 383 151.9 378 156.9 373 151.9 Z"></path><path fill="rgb(119, 152, 191)" fill-opacity=" .5" d="M 374 127.2 L 379 132.2 374 137.2 369 132.2 Z"></path><path fill="rgb(119, 152, 191)" fill-opacity=" .5" d="M 352 155.8 L 357 160.8 352 165.8 347 160.8 Z"></path><path fill="rgb(119, 152, 191)" fill-opacity=" .5" d="M 401 145.9 L 406 150.9 401 155.9 396 150.9 Z"></path><path fill="rgb(119, 152, 191)" fill-opacity=" .5" d="M 395 161.2 L 400 166.2 395 171.2 390 166.2 Z"></path><path fill="rgb(119, 152, 191)" fill-opacity=" .5" d="M 454 141.2 L 459 146.2 454 151.2 449 146.2 Z"></path><path fill="rgb(119, 152, 191)" fill-opacity=" .5" d="M 300 163.2 L 305 168.2 300 173.2 295 168.2 Z"></path><path fill="rgb(119, 152, 191)" fill-opacity=" .5" d="M 289 178.5 L 294 183.5 289 188.5 284 183.5 Z"></path></g></g><text x="292" text-anchor="middle" class="highcharts-title"  style="color:black;font-size:16px;font-weight:bold;fill:black;width:520px;" y="22"><tspan>Height Versus Weight of 507 Individuals by Gender</tspan></text><text x="292" text-anchor="middle" class="highcharts-subtitle"  style="color:black;fill:black;width:520px;" y="40"><tspan>Source: Heinz  2003</tspan></text><g class="highcharts-legend"  transform="translate(110,80)"><rect x="0.5" y="0.5" width="76" height="36" strokeWidth="1" stroke="#909090" stroke-width="1" fill="#FFFFFF" visibility="visible"></rect><g ><g><g class="highcharts-legend-item"  transform="translate(8,3)"><path fill="rgb(223, 83, 83)" fill-opacity=" .5" d="M 8 7 C 14.6 7 14.6 17 8 17 C 1.3 17 1.3 7 8 7 Z"></path><text x="21" style="color:#333333;font-size:13px;font-weight:bold;cursor:pointer;fill:#333333;" text-anchor="start"  y="16">Female</text></g><g class="highcharts-legend-item"  transform="translate(8,16)"><path fill="rgb(119, 152, 191)" fill-opacity=" .5" d="M 8 7 L 13 12 8 17 3 12 Z"></path><text x="21" y="16" style="color:#333333;font-size:13px;font-weight:bold;cursor:pointer;fill:#333333;" text-anchor="start" >Male</text></g></g></g></g><g class="highcharts-axis-labels highcharts-xaxis-labels" ><text x="64" style="color:#6e6e70;cursor:default;font-size:11px;fill:#6e6e70;width:75px;text-overflow:clip;" text-anchor="middle" transform="translate(0,0)" y="368" opacity="1">140</text><text x="149" style="color:#6e6e70;cursor:default;font-size:11px;fill:#6e6e70;width:75px;text-overflow:clip;" text-anchor="middle" transform="translate(0,0)" y="368" opacity="1">150</text><text x="234" style="color:#6e6e70;cursor:default;font-size:11px;fill:#6e6e70;width:75px;text-overflow:clip;" text-anchor="middle" transform="translate(0,0)" y="368" opacity="1">160</text><text x="319" style="color:#6e6e70;cursor:default;font-size:11px;fill:#6e6e70;width:75px;text-overflow:clip;" text-anchor="middle" transform="translate(0,0)" y="368" opacity="1">170</text><text x="404" style="color:#6e6e70;cursor:default;font-size:11px;fill:#6e6e70;width:75px;text-overflow:clip;" text-anchor="middle" transform="translate(0,0)" y="368" opacity="1">180</text><text x="489" style="color:#6e6e70;cursor:default;font-size:11px;fill:#6e6e70;width:75px;text-overflow:clip;" text-anchor="middle" transform="translate(0,0)" y="368" opacity="1">190</text><text x="565.7" style="color:#6e6e70;cursor:default;font-size:11px;fill:#6e6e70;width:75px;text-overflow:clip;" text-anchor="middle" transform="translate(0,0)" y="368" opacity="1">200</text></g><g class="highcharts-axis-labels highcharts-yaxis-labels" ><text x="49" style="color:#6e6e70;cursor:default;font-size:11px;fill:#6e6e70;width:183px;text-overflow:clip;" text-anchor="end" transform="translate(0,0)" y="355" opacity="1">20</text><text x="49" style="color:#6e6e70;cursor:default;font-size:11px;fill:#6e6e70;width:183px;text-overflow:clip;" text-anchor="end" transform="translate(0,0)" y="305" opacity="1">40</text><text x="49" style="color:#6e6e70;cursor:default;font-size:11px;fill:#6e6e70;width:183px;text-overflow:clip;" text-anchor="end" transform="translate(0,0)" y="256" opacity="1">60</text><text x="49" style="color:#6e6e70;cursor:default;font-size:11px;fill:#6e6e70;width:183px;text-overflow:clip;" text-anchor="end" transform="translate(0,0)" y="207" opacity="1">80</text><text x="49" style="color:#6e6e70;cursor:default;font-size:11px;fill:#6e6e70;width:183px;text-overflow:clip;" text-anchor="end" transform="translate(0,0)" y="157" opacity="1">100</text><text x="49" style="color:#6e6e70;cursor:default;font-size:11px;fill:#6e6e70;width:183px;text-overflow:clip;" text-anchor="end" transform="translate(0,0)" y="108" opacity="1">120</text><text x="49" style="color:#6e6e70;cursor:default;font-size:11px;fill:#6e6e70;width:183px;text-overflow:clip;" text-anchor="end" transform="translate(0,0)" y="59" opacity="1">140</text></g><g class="highcharts-tooltip"  style="cursor:default;padding:0;white-space:nowrap;" transform="translate(0,-9999)"><path fill="none" d="M 3 0 L 13 0 C 16 0 16 0 16 3 L 16 13 C 16 16 16 16 13 16 L 3 16 C 0 16 0 16 0 13 L 0 3 C 0 0 0 0 3 0"  stroke="black" stroke-opacity="0.0" stroke-width="5" transform="translate(1, 1)"></path><path fill="none" d="M 3 0 L 13 0 C 16 0 16 0 16 3 L 16 13 C 16 16 16 16 13 16 L 3 16 C 0 16 0 16 0 13 L 0 3 C 0 0 0 0 3 0"  stroke="black" stroke-opacity="0.0" stroke-width="3" transform="translate(1, 1)"></path><path fill="none" d="M 3 0 L 13 0 C 16 0 16 0 16 3 L 16 13 C 16 16 16 16 13 16 L 3 16 C 0 16 0 16 0 13 L 0 3 C 0 0 0 0 3 0"  stroke="black" stroke-opacity="0.1" stroke-width="1" transform="translate(1, 1)"></path><path fill="rgb(249, 249, 249)" fill-opacity=" .85" d="M 3 0 L 13 0 C 16 0 16 0 16 3 L 16 13 C 16 16 16 16 13 16 L 3 16 C 0 16 0 16 0 13 L 0 3 C 0 0 0 0 3 0"></path><text x="8"  style="font-size:12px;color:#333333;fill:#333333;" y="20"></text></g></svg>