<svg version="1.1" style="font-family: signika, serif; font-size: 12px; background-image: url(http://www.highcharts.com/samples/graphics/sand.png); background-position: initial initial; background-repeat: initial initial;" xmlns="http://www.w3.org/2000/svg" width="584" height="400" viewBox="0 0 584 400" xmlns:xlink="http://www.w3.org/1999/xlink"><style type="text/css"><![CDATA[@import url(http://fonts.googleapis.com/css?family=Signika:700);]]></style><desc>Created with Highcharts 4.1.7</desc><defs><clipPath id="highcharts-1"><rect x="0" y="0" width="508" height="277"></rect></clipPath><clipPath id="highcharts-2"><rect x="-99" y="-53" width="607" height="400"></rect></clipPath><clipPath id="highcharts-3"><rect x="0" y="0" width="508" height="277"></rect></clipPath></defs><path fill="rgb(68, 170, 213)" fill-opacity=" 0.1" d="M 66 324.5 L 574 324.5 574 302.5 66 302.5"></path><text x="76" text-anchor="undefined" transform="translate(0,0)" style="color:#606060;fill:#606060;" y="320" visibility="visible"><tspan>Light air</tspan></text><path fill="rgb(0, 0, 0)" fill-opacity=" 0" d="M 66 302.5 L 574 302.5 574 269.5 66 269.5"></path><text x="76" text-anchor="undefined" transform="translate(0,0)" style="color:#606060;fill:#606060;" y="292" visibility="visible"><tspan>Light breeze</tspan></text><path fill="rgb(68, 170, 213)" fill-opacity=" 0.1" d="M 66 269.5 L 574 269.5 574 228.5 66 228.5"></path><text x="76" text-anchor="undefined" transform="translate(0,0)" style="color:#606060;fill:#606060;" y="255" visibility="visible"><tspan>Gentle breeze</tspan></text><path fill="rgb(0, 0, 0)" fill-opacity=" 0" d="M 66 228.5 L 574 228.5 574 182.5 66 182.5"></path><text x="76" text-anchor="undefined" transform="translate(0,0)" style="color:#606060;fill:#606060;" y="212" visibility="visible"><tspan>Moderate breeze</tspan></text><path fill="rgb(68, 170, 213)" fill-opacity=" 0.1" d="M 66 182.5 L 574 182.5 574 127.5 66 127.5"></path><text x="76" text-anchor="undefined" transform="translate(0,0)" style="color:#606060;fill:#606060;" y="161" visibility="visible"><tspan>Fresh breeze</tspan></text><path fill="rgb(0, 0, 0)" fill-opacity=" 0" d="M 66 127.5 L 574 127.5 574 71.5 66 71.5"></path><text x="76" text-anchor="undefined" transform="translate(0,0)" style="color:#606060;fill:#606060;" y="106" visibility="visible"><tspan>Strong breeze</tspan></text><path fill="rgb(68, 170, 213)" fill-opacity=" 0.1" d="M 66 71.5 L 574 71.5 574 53.5 66 53.5"></path><text x="76" text-anchor="undefined" transform="translate(0,0)" style="color:#606060;fill:#606060;" y="69" visibility="visible"><tspan>High wind</tspan></text><g class="highcharts-grid" ></g><g class="highcharts-grid" ></g><g class="highcharts-axis" ><path fill="none" d="M 70.5 330 L 70.5 340" stroke="#C0D0E0" stroke-width="1" opacity="1"></path><path fill="none" d="M 153.5 330 L 153.5 340" stroke="#C0D0E0" stroke-width="1" opacity="1"></path><path fill="none" d="M 236.5 330 L 236.5 340" stroke="#C0D0E0" stroke-width="1" opacity="1"></path><path fill="none" d="M 319.5 330 L 319.5 340" stroke="#C0D0E0" stroke-width="1" opacity="1"></path><path fill="none" d="M 402.5 330 L 402.5 340" stroke="#C0D0E0" stroke-width="1" opacity="1"></path><path fill="none" d="M 485.5 330 L 485.5 340" stroke="#C0D0E0" stroke-width="1" opacity="1"></path><path fill="none" d="M 568.5 330 L 568.5 340" stroke="#C0D0E0" stroke-width="1" opacity="1"></path><path fill="none" d="M 66 330.5 L 574 330.5" stroke="#C0D0E0" stroke-width="1"  visibility="visible"></path></g><g class="highcharts-axis" ><text x="21.7"  text-anchor="middle" transform="translate(0,0) rotate(270 21.7 191.5)" class=" highcharts-yaxis-title" style="color:#707070;fill:#707070;" visibility="visible" y="191.5"><tspan>Wind speed (m/s)</tspan></text></g><g class="highcharts-series-group" ><g class="highcharts-series" visibility="visible"  transform="translate(66,53) scale(1 1)" clip-path="url(#highcharts-3)"><path fill="none" d="M 4.9 273.3 C 4.9 273.3 11.2 262.2 15.3 262.2 C 19.5 262.2 21.5 262.2 25.7 262.2 C 29.8 262.2 31.9 262.2 36.1 262.2 C 40.2 262.2 42.3 260.3 46.4 258.5 C 50.6 256.6 52.7 254.8 56.8 252.9 C 61.0 251.1 63.0 252.9 67.2 249.3 C 71.3 245.6 73.4 223.4 77.6 223.4 C 81.7 223.4 83.8 241.9 87.9 241.9 C 92.1 241.9 94.2 228.9 98.3 228.9 C 102.5 228.9 104.5 247.4 108.7 247.4 C 112.8 247.4 114.9 230.4 119.1 221.6 C 123.2 212.7 125.3 203.1 129.4 203.1 C 133.6 203.1 135.7 210.5 139.8 210.5 C 144.0 210.5 146.0 193.9 150.2 193.9 C 154.3 193.9 156.4 199.4 160.6 199.4 C 164.7 199.4 166.8 193.9 170.9 193.9 C 175.1 193.9 177.2 193.9 181.3 193.9 C 185.5 193.9 187.5 197.9 191.7 203.1 C 195.8 208.3 197.9 214.9 202.1 219.7 C 206.2 224.5 208.3 227.1 212.4 227.1 C 216.6 227.1 218.7 203.1 222.8 203.1 C 227.0 203.1 229.0 220.8 233.2 227.1 C 237.3 233.4 239.4 234.5 243.6 234.5 C 247.7 234.5 249.8 234.5 254 234.5 C 258.1 234.5 260.2 221.2 264.3 201.2 C 268.5 181.3 270.6 134.8 274.7 134.8 C 278.9 134.8 280.9 138.1 285.1 145.8 C 289.2 153.6 291.3 173.5 295.5 173.5 C 299.6 173.5 301.7 164.3 305.8 164.3 C 310.0 164.3 312.1 169.8 316.2 169.8 C 320.4 169.8 322.4 118.1 326.6 118.1 C 330.7 118.1 332.8 144.0 337.0 144.0 C 341.1 144.0 343.2 124.4 347.3 110.8 C 351.5 97.1 353.6 84.9 357.7 75.7 C 361.9 66.4 363.9 66.4 368.1 64.6 C 372.2 62.7 374.3 62.7 378.5 62.7 C 382.6 62.7 384.7 72.0 388.8 72.0 C 393.0 72.0 395.1 59.8 399.2 55.4 C 403.4 50.9 405.4 49.8 409.6 49.8 C 413.7 49.8 415.8 68.6 420.0 79.4 C 424.1 90.1 426.2 103.4 430.3 103.4 C 434.5 103.4 436.6 96.0 440.7 96.0 C 444.9 96.0 446.9 99.7 451.1 99.7 C 455.2 99.7 457.3 96.0 461.5 96.0 C 465.6 96.0 467.7 96.7 471.8 101.5 C 476.0 106.3 478.1 112.2 482.2 120.0 C 486.4 127.7 488.4 140.3 492.6 140.3 C 496.7 140.3 503.0 136.6 503.0 136.6" stroke="black" stroke-width="5"  stroke-linejoin="round" stroke-linecap="round"  stroke-opacity="0.0" transform="translate(1, 1)"></path><path fill="none" d="M 4.9 273.3 C 4.9 273.3 11.2 262.2 15.3 262.2 C 19.5 262.2 21.5 262.2 25.7 262.2 C 29.8 262.2 31.9 262.2 36.1 262.2 C 40.2 262.2 42.3 260.3 46.4 258.5 C 50.6 256.6 52.7 254.8 56.8 252.9 C 61.0 251.1 63.0 252.9 67.2 249.3 C 71.3 245.6 73.4 223.4 77.6 223.4 C 81.7 223.4 83.8 241.9 87.9 241.9 C 92.1 241.9 94.2 228.9 98.3 228.9 C 102.5 228.9 104.5 247.4 108.7 247.4 C 112.8 247.4 114.9 230.4 119.1 221.6 C 123.2 212.7 125.3 203.1 129.4 203.1 C 133.6 203.1 135.7 210.5 139.8 210.5 C 144.0 210.5 146.0 193.9 150.2 193.9 C 154.3 193.9 156.4 199.4 160.6 199.4 C 164.7 199.4 166.8 193.9 170.9 193.9 C 175.1 193.9 177.2 193.9 181.3 193.9 C 185.5 193.9 187.5 197.9 191.7 203.1 C 195.8 208.3 197.9 214.9 202.1 219.7 C 206.2 224.5 208.3 227.1 212.4 227.1 C 216.6 227.1 218.7 203.1 222.8 203.1 C 227.0 203.1 229.0 220.8 233.2 227.1 C 237.3 233.4 239.4 234.5 243.6 234.5 C 247.7 234.5 249.8 234.5 254 234.5 C 258.1 234.5 260.2 221.2 264.3 201.2 C 268.5 181.3 270.6 134.8 274.7 134.8 C 278.9 134.8 280.9 138.1 285.1 145.8 C 289.2 153.6 291.3 173.5 295.5 173.5 C 299.6 173.5 301.7 164.3 305.8 164.3 C 310.0 164.3 312.1 169.8 316.2 169.8 C 320.4 169.8 322.4 118.1 326.6 118.1 C 330.7 118.1 332.8 144.0 337.0 144.0 C 341.1 144.0 343.2 124.4 347.3 110.8 C 351.5 97.1 353.6 84.9 357.7 75.7 C 361.9 66.4 363.9 66.4 368.1 64.6 C 372.2 62.7 374.3 62.7 378.5 62.7 C 382.6 62.7 384.7 72.0 388.8 72.0 C 393.0 72.0 395.1 59.8 399.2 55.4 C 403.4 50.9 405.4 49.8 409.6 49.8 C 413.7 49.8 415.8 68.6 420.0 79.4 C 424.1 90.1 426.2 103.4 430.3 103.4 C 434.5 103.4 436.6 96.0 440.7 96.0 C 444.9 96.0 446.9 99.7 451.1 99.7 C 455.2 99.7 457.3 96.0 461.5 96.0 C 465.6 96.0 467.7 96.7 471.8 101.5 C 476.0 106.3 478.1 112.2 482.2 120.0 C 486.4 127.7 488.4 140.3 492.6 140.3 C 496.7 140.3 503.0 136.6 503.0 136.6" stroke="black" stroke-width="3"  stroke-linejoin="round" stroke-linecap="round"  stroke-opacity="0.0" transform="translate(1, 1)"></path><path fill="none" d="M 4.9 273.3 C 4.9 273.3 11.2 262.2 15.3 262.2 C 19.5 262.2 21.5 262.2 25.7 262.2 C 29.8 262.2 31.9 262.2 36.1 262.2 C 40.2 262.2 42.3 260.3 46.4 258.5 C 50.6 256.6 52.7 254.8 56.8 252.9 C 61.0 251.1 63.0 252.9 67.2 249.3 C 71.3 245.6 73.4 223.4 77.6 223.4 C 81.7 223.4 83.8 241.9 87.9 241.9 C 92.1 241.9 94.2 228.9 98.3 228.9 C 102.5 228.9 104.5 247.4 108.7 247.4 C 112.8 247.4 114.9 230.4 119.1 221.6 C 123.2 212.7 125.3 203.1 129.4 203.1 C 133.6 203.1 135.7 210.5 139.8 210.5 C 144.0 210.5 146.0 193.9 150.2 193.9 C 154.3 193.9 156.4 199.4 160.6 199.4 C 164.7 199.4 166.8 193.9 170.9 193.9 C 175.1 193.9 177.2 193.9 181.3 193.9 C 185.5 193.9 187.5 197.9 191.7 203.1 C 195.8 208.3 197.9 214.9 202.1 219.7 C 206.2 224.5 208.3 227.1 212.4 227.1 C 216.6 227.1 218.7 203.1 222.8 203.1 C 227.0 203.1 229.0 220.8 233.2 227.1 C 237.3 233.4 239.4 234.5 243.6 234.5 C 247.7 234.5 249.8 234.5 254 234.5 C 258.1 234.5 260.2 221.2 264.3 201.2 C 268.5 181.3 270.6 134.8 274.7 134.8 C 278.9 134.8 280.9 138.1 285.1 145.8 C 289.2 153.6 291.3 173.5 295.5 173.5 C 299.6 173.5 301.7 164.3 305.8 164.3 C 310.0 164.3 312.1 169.8 316.2 169.8 C 320.4 169.8 322.4 118.1 326.6 118.1 C 330.7 118.1 332.8 144.0 337.0 144.0 C 341.1 144.0 343.2 124.4 347.3 110.8 C 351.5 97.1 353.6 84.9 357.7 75.7 C 361.9 66.4 363.9 66.4 368.1 64.6 C 372.2 62.7 374.3 62.7 378.5 62.7 C 382.6 62.7 384.7 72.0 388.8 72.0 C 393.0 72.0 395.1 59.8 399.2 55.4 C 403.4 50.9 405.4 49.8 409.6 49.8 C 413.7 49.8 415.8 68.6 420.0 79.4 C 424.1 90.1 426.2 103.4 430.3 103.4 C 434.5 103.4 436.6 96.0 440.7 96.0 C 444.9 96.0 446.9 99.7 451.1 99.7 C 455.2 99.7 457.3 96.0 461.5 96.0 C 465.6 96.0 467.7 96.7 471.8 101.5 C 476.0 106.3 478.1 112.2 482.2 120.0 C 486.4 127.7 488.4 140.3 492.6 140.3 C 496.7 140.3 503.0 136.6 503.0 136.6" stroke="black" stroke-width="1"  stroke-linejoin="round" stroke-linecap="round"  stroke-opacity="0.1" transform="translate(1, 1)"></path><path fill="none" d="M 4.9 273.3 C 4.9 273.3 11.2 262.2 15.3 262.2 C 19.5 262.2 21.5 262.2 25.7 262.2 C 29.8 262.2 31.9 262.2 36.1 262.2 C 40.2 262.2 42.3 260.3 46.4 258.5 C 50.6 256.6 52.7 254.8 56.8 252.9 C 61.0 251.1 63.0 252.9 67.2 249.3 C 71.3 245.6 73.4 223.4 77.6 223.4 C 81.7 223.4 83.8 241.9 87.9 241.9 C 92.1 241.9 94.2 228.9 98.3 228.9 C 102.5 228.9 104.5 247.4 108.7 247.4 C 112.8 247.4 114.9 230.4 119.1 221.6 C 123.2 212.7 125.3 203.1 129.4 203.1 C 133.6 203.1 135.7 210.5 139.8 210.5 C 144.0 210.5 146.0 193.9 150.2 193.9 C 154.3 193.9 156.4 199.4 160.6 199.4 C 164.7 199.4 166.8 193.9 170.9 193.9 C 175.1 193.9 177.2 193.9 181.3 193.9 C 185.5 193.9 187.5 197.9 191.7 203.1 C 195.8 208.3 197.9 214.9 202.1 219.7 C 206.2 224.5 208.3 227.1 212.4 227.1 C 216.6 227.1 218.7 203.1 222.8 203.1 C 227.0 203.1 229.0 220.8 233.2 227.1 C 237.3 233.4 239.4 234.5 243.6 234.5 C 247.7 234.5 249.8 234.5 254 234.5 C 258.1 234.5 260.2 221.2 264.3 201.2 C 268.5 181.3 270.6 134.8 274.7 134.8 C 278.9 134.8 280.9 138.1 285.1 145.8 C 289.2 153.6 291.3 173.5 295.5 173.5 C 299.6 173.5 301.7 164.3 305.8 164.3 C 310.0 164.3 312.1 169.8 316.2 169.8 C 320.4 169.8 322.4 118.1 326.6 118.1 C 330.7 118.1 332.8 144.0 337.0 144.0 C 341.1 144.0 343.2 124.4 347.3 110.8 C 351.5 97.1 353.6 84.9 357.7 75.7 C 361.9 66.4 363.9 66.4 368.1 64.6 C 372.2 62.7 374.3 62.7 378.5 62.7 C 382.6 62.7 384.7 72.0 388.8 72.0 C 393.0 72.0 395.1 59.8 399.2 55.4 C 403.4 50.9 405.4 49.8 409.6 49.8 C 413.7 49.8 415.8 68.6 420.0 79.4 C 424.1 90.1 426.2 103.4 430.3 103.4 C 434.5 103.4 436.6 96.0 440.7 96.0 C 444.9 96.0 446.9 99.7 451.1 99.7 C 455.2 99.7 457.3 96.0 461.5 96.0 C 465.6 96.0 467.7 96.7 471.8 101.5 C 476.0 106.3 478.1 112.2 482.2 120.0 C 486.4 127.7 488.4 140.3 492.6 140.3 C 496.7 140.3 503.0 136.6 503.0 136.6" stroke="#f45b5b" stroke-width="4"  stroke-linejoin="round" stroke-linecap="round"></path><path fill="none" d="M -5.0 273.3 L 4.9 273.3 C 4.9 273.3 11.2 262.2 15.3 262.2 C 19.5 262.2 21.5 262.2 25.7 262.2 C 29.8 262.2 31.9 262.2 36.1 262.2 C 40.2 262.2 42.3 260.3 46.4 258.5 C 50.6 256.6 52.7 254.8 56.8 252.9 C 61.0 251.1 63.0 252.9 67.2 249.3 C 71.3 245.6 73.4 223.4 77.6 223.4 C 81.7 223.4 83.8 241.9 87.9 241.9 C 92.1 241.9 94.2 228.9 98.3 228.9 C 102.5 228.9 104.5 247.4 108.7 247.4 C 112.8 247.4 114.9 230.4 119.1 221.6 C 123.2 212.7 125.3 203.1 129.4 203.1 C 133.6 203.1 135.7 210.5 139.8 210.5 C 144.0 210.5 146.0 193.9 150.2 193.9 C 154.3 193.9 156.4 199.4 160.6 199.4 C 164.7 199.4 166.8 193.9 170.9 193.9 C 175.1 193.9 177.2 193.9 181.3 193.9 C 185.5 193.9 187.5 197.9 191.7 203.1 C 195.8 208.3 197.9 214.9 202.1 219.7 C 206.2 224.5 208.3 227.1 212.4 227.1 C 216.6 227.1 218.7 203.1 222.8 203.1 C 227.0 203.1 229.0 220.8 233.2 227.1 C 237.3 233.4 239.4 234.5 243.6 234.5 C 247.7 234.5 249.8 234.5 254 234.5 C 258.1 234.5 260.2 221.2 264.3 201.2 C 268.5 181.3 270.6 134.8 274.7 134.8 C 278.9 134.8 280.9 138.1 285.1 145.8 C 289.2 153.6 291.3 173.5 295.5 173.5 C 299.6 173.5 301.7 164.3 305.8 164.3 C 310.0 164.3 312.1 169.8 316.2 169.8 C 320.4 169.8 322.4 118.1 326.6 118.1 C 330.7 118.1 332.8 144.0 337.0 144.0 C 341.1 144.0 343.2 124.4 347.3 110.8 C 351.5 97.1 353.6 84.9 357.7 75.7 C 361.9 66.4 363.9 66.4 368.1 64.6 C 372.2 62.7 374.3 62.7 378.5 62.7 C 382.6 62.7 384.7 72.0 388.8 72.0 C 393.0 72.0 395.1 59.8 399.2 55.4 C 403.4 50.9 405.4 49.8 409.6 49.8 C 413.7 49.8 415.8 68.6 420.0 79.4 C 424.1 90.1 426.2 103.4 430.3 103.4 C 434.5 103.4 436.6 96.0 440.7 96.0 C 444.9 96.0 446.9 99.7 451.1 99.7 C 455.2 99.7 457.3 96.0 461.5 96.0 C 465.6 96.0 467.7 96.7 471.8 101.5 C 476.0 106.3 478.1 112.2 482.2 120.0 C 486.4 127.7 488.4 140.3 492.6 140.3 C 496.7 140.3 503.0 136.6 503.0 136.6 L 513.0 136.6" stroke-linejoin="round" visibility="visible" stroke="rgb(192,192,192)" stroke-opacity="0.0" stroke-width="24"  class=" highcharts-tracker" style=""></path></g><g class="highcharts-markers highcharts-tracker" visibility="visible"  transform="translate(66,53) scale(1 1)" clip-path="url(#highcharts-2)" style=""></g><g class="highcharts-series" visibility="visible"  transform="translate(66,53) scale(1 1)" clip-path="url(#highcharts-3)"><path fill="none" d="M 4.9 277 C 4.9 277 11.2 277 15.3 277 C 19.5 277 21.5 269.2 25.7 265.9 C 29.8 262.5 31.9 260.3 36.1 260.3 C 40.2 260.3 42.3 260.3 46.4 262.2 C 50.6 264.0 52.7 270.3 56.8 273.3 C 61.0 276.2 63.0 277 67.2 277 C 71.3 277 73.4 277 77.6 277 C 81.7 277 83.8 277 87.9 277 C 92.1 277 94.2 277 98.3 275.1 C 102.5 273.3 104.5 267.7 108.7 265.9 C 112.8 264.0 114.9 264.8 119.1 264.0 C 123.2 263.3 125.3 262.2 129.4 262.2 C 133.6 262.2 135.7 263.7 139.8 265.9 C 144.0 268.1 146.0 271.0 150.2 273.3 C 154.3 275.5 156.4 277 160.6 277 C 164.7 277 166.8 276.2 170.9 275.1 C 175.1 274.0 177.2 271.4 181.3 271.4 C 185.5 271.4 187.5 271.4 191.7 271.4 C 195.8 271.4 197.9 277 202.1 277 C 206.2 277 208.3 275.1 212.4 275.1 C 216.6 275.1 218.7 277 222.8 277 C 227.0 277 229.0 277 233.2 277 C 237.3 277 239.4 277 243.6 277 C 247.7 277 249.8 273.3 254 273.3 C 258.1 273.3 260.2 274.4 264.3 275.1 C 268.5 275.8 270.6 277 274.7 277 C 278.9 277 280.9 271.4 285.1 271.4 C 289.2 271.4 291.3 277 295.5 277 C 299.6 277 301.7 275.8 305.8 275.1 C 310.0 274.4 312.1 273.3 316.2 273.3 C 320.4 273.3 322.4 275.1 326.6 275.1 C 330.7 275.1 332.8 271.4 337.0 271.4 C 341.1 271.4 343.2 271.4 347.3 271.4 C 351.5 271.4 353.6 277 357.7 277 C 361.9 277 363.9 219.7 368.1 219.7 C 372.2 219.7 374.3 219.7 378.5 219.7 C 382.6 219.7 384.7 224.9 388.8 230.8 C 393.0 236.7 395.1 249.3 399.2 249.3 C 403.4 249.3 405.4 244.1 409.6 241.9 C 413.7 239.6 415.8 238.2 420.0 238.2 C 424.1 238.2 426.2 258.5 430.3 258.5 C 434.5 258.5 436.6 234.5 440.7 234.5 C 444.9 234.5 446.9 237.8 451.1 241.9 C 455.2 245.9 457.3 250.4 461.5 254.8 C 465.6 259.2 467.7 264.0 471.8 264.0 C 476.0 264.0 478.1 252.9 482.2 252.9 C 486.4 252.9 488.4 267.7 492.6 269.6 C 496.7 271.4 503.0 271.4 503.0 271.4" stroke="black" stroke-width="5"  stroke-linejoin="round" stroke-linecap="round"  stroke-opacity="0.0" transform="translate(1, 1)"></path><path fill="none" d="M 4.9 277 C 4.9 277 11.2 277 15.3 277 C 19.5 277 21.5 269.2 25.7 265.9 C 29.8 262.5 31.9 260.3 36.1 260.3 C 40.2 260.3 42.3 260.3 46.4 262.2 C 50.6 264.0 52.7 270.3 56.8 273.3 C 61.0 276.2 63.0 277 67.2 277 C 71.3 277 73.4 277 77.6 277 C 81.7 277 83.8 277 87.9 277 C 92.1 277 94.2 277 98.3 275.1 C 102.5 273.3 104.5 267.7 108.7 265.9 C 112.8 264.0 114.9 264.8 119.1 264.0 C 123.2 263.3 125.3 262.2 129.4 262.2 C 133.6 262.2 135.7 263.7 139.8 265.9 C 144.0 268.1 146.0 271.0 150.2 273.3 C 154.3 275.5 156.4 277 160.6 277 C 164.7 277 166.8 276.2 170.9 275.1 C 175.1 274.0 177.2 271.4 181.3 271.4 C 185.5 271.4 187.5 271.4 191.7 271.4 C 195.8 271.4 197.9 277 202.1 277 C 206.2 277 208.3 275.1 212.4 275.1 C 216.6 275.1 218.7 277 222.8 277 C 227.0 277 229.0 277 233.2 277 C 237.3 277 239.4 277 243.6 277 C 247.7 277 249.8 273.3 254 273.3 C 258.1 273.3 260.2 274.4 264.3 275.1 C 268.5 275.8 270.6 277 274.7 277 C 278.9 277 280.9 271.4 285.1 271.4 C 289.2 271.4 291.3 277 295.5 277 C 299.6 277 301.7 275.8 305.8 275.1 C 310.0 274.4 312.1 273.3 316.2 273.3 C 320.4 273.3 322.4 275.1 326.6 275.1 C 330.7 275.1 332.8 271.4 337.0 271.4 C 341.1 271.4 343.2 271.4 347.3 271.4 C 351.5 271.4 353.6 277 357.7 277 C 361.9 277 363.9 219.7 368.1 219.7 C 372.2 219.7 374.3 219.7 378.5 219.7 C 382.6 219.7 384.7 224.9 388.8 230.8 C 393.0 236.7 395.1 249.3 399.2 249.3 C 403.4 249.3 405.4 244.1 409.6 241.9 C 413.7 239.6 415.8 238.2 420.0 238.2 C 424.1 238.2 426.2 258.5 430.3 258.5 C 434.5 258.5 436.6 234.5 440.7 234.5 C 444.9 234.5 446.9 237.8 451.1 241.9 C 455.2 245.9 457.3 250.4 461.5 254.8 C 465.6 259.2 467.7 264.0 471.8 264.0 C 476.0 264.0 478.1 252.9 482.2 252.9 C 486.4 252.9 488.4 267.7 492.6 269.6 C 496.7 271.4 503.0 271.4 503.0 271.4" stroke="black" stroke-width="3"  stroke-linejoin="round" stroke-linecap="round"  stroke-opacity="0.0" transform="translate(1, 1)"></path><path fill="none" d="M 4.9 277 C 4.9 277 11.2 277 15.3 277 C 19.5 277 21.5 269.2 25.7 265.9 C 29.8 262.5 31.9 260.3 36.1 260.3 C 40.2 260.3 42.3 260.3 46.4 262.2 C 50.6 264.0 52.7 270.3 56.8 273.3 C 61.0 276.2 63.0 277 67.2 277 C 71.3 277 73.4 277 77.6 277 C 81.7 277 83.8 277 87.9 277 C 92.1 277 94.2 277 98.3 275.1 C 102.5 273.3 104.5 267.7 108.7 265.9 C 112.8 264.0 114.9 264.8 119.1 264.0 C 123.2 263.3 125.3 262.2 129.4 262.2 C 133.6 262.2 135.7 263.7 139.8 265.9 C 144.0 268.1 146.0 271.0 150.2 273.3 C 154.3 275.5 156.4 277 160.6 277 C 164.7 277 166.8 276.2 170.9 275.1 C 175.1 274.0 177.2 271.4 181.3 271.4 C 185.5 271.4 187.5 271.4 191.7 271.4 C 195.8 271.4 197.9 277 202.1 277 C 206.2 277 208.3 275.1 212.4 275.1 C 216.6 275.1 218.7 277 222.8 277 C 227.0 277 229.0 277 233.2 277 C 237.3 277 239.4 277 243.6 277 C 247.7 277 249.8 273.3 254 273.3 C 258.1 273.3 260.2 274.4 264.3 275.1 C 268.5 275.8 270.6 277 274.7 277 C 278.9 277 280.9 271.4 285.1 271.4 C 289.2 271.4 291.3 277 295.5 277 C 299.6 277 301.7 275.8 305.8 275.1 C 310.0 274.4 312.1 273.3 316.2 273.3 C 320.4 273.3 322.4 275.1 326.6 275.1 C 330.7 275.1 332.8 271.4 337.0 271.4 C 341.1 271.4 343.2 271.4 347.3 271.4 C 351.5 271.4 353.6 277 357.7 277 C 361.9 277 363.9 219.7 368.1 219.7 C 372.2 219.7 374.3 219.7 378.5 219.7 C 382.6 219.7 384.7 224.9 388.8 230.8 C 393.0 236.7 395.1 249.3 399.2 249.3 C 403.4 249.3 405.4 244.1 409.6 241.9 C 413.7 239.6 415.8 238.2 420.0 238.2 C 424.1 238.2 426.2 258.5 430.3 258.5 C 434.5 258.5 436.6 234.5 440.7 234.5 C 444.9 234.5 446.9 237.8 451.1 241.9 C 455.2 245.9 457.3 250.4 461.5 254.8 C 465.6 259.2 467.7 264.0 471.8 264.0 C 476.0 264.0 478.1 252.9 482.2 252.9 C 486.4 252.9 488.4 267.7 492.6 269.6 C 496.7 271.4 503.0 271.4 503.0 271.4" stroke="black" stroke-width="1"  stroke-linejoin="round" stroke-linecap="round"  stroke-opacity="0.1" transform="translate(1, 1)"></path><path fill="none" d="M 4.9 277 C 4.9 277 11.2 277 15.3 277 C 19.5 277 21.5 269.2 25.7 265.9 C 29.8 262.5 31.9 260.3 36.1 260.3 C 40.2 260.3 42.3 260.3 46.4 262.2 C 50.6 264.0 52.7 270.3 56.8 273.3 C 61.0 276.2 63.0 277 67.2 277 C 71.3 277 73.4 277 77.6 277 C 81.7 277 83.8 277 87.9 277 C 92.1 277 94.2 277 98.3 275.1 C 102.5 273.3 104.5 267.7 108.7 265.9 C 112.8 264.0 114.9 264.8 119.1 264.0 C 123.2 263.3 125.3 262.2 129.4 262.2 C 133.6 262.2 135.7 263.7 139.8 265.9 C 144.0 268.1 146.0 271.0 150.2 273.3 C 154.3 275.5 156.4 277 160.6 277 C 164.7 277 166.8 276.2 170.9 275.1 C 175.1 274.0 177.2 271.4 181.3 271.4 C 185.5 271.4 187.5 271.4 191.7 271.4 C 195.8 271.4 197.9 277 202.1 277 C 206.2 277 208.3 275.1 212.4 275.1 C 216.6 275.1 218.7 277 222.8 277 C 227.0 277 229.0 277 233.2 277 C 237.3 277 239.4 277 243.6 277 C 247.7 277 249.8 273.3 254 273.3 C 258.1 273.3 260.2 274.4 264.3 275.1 C 268.5 275.8 270.6 277 274.7 277 C 278.9 277 280.9 271.4 285.1 271.4 C 289.2 271.4 291.3 277 295.5 277 C 299.6 277 301.7 275.8 305.8 275.1 C 310.0 274.4 312.1 273.3 316.2 273.3 C 320.4 273.3 322.4 275.1 326.6 275.1 C 330.7 275.1 332.8 271.4 337.0 271.4 C 341.1 271.4 343.2 271.4 347.3 271.4 C 351.5 271.4 353.6 277 357.7 277 C 361.9 277 363.9 219.7 368.1 219.7 C 372.2 219.7 374.3 219.7 378.5 219.7 C 382.6 219.7 384.7 224.9 388.8 230.8 C 393.0 236.7 395.1 249.3 399.2 249.3 C 403.4 249.3 405.4 244.1 409.6 241.9 C 413.7 239.6 415.8 238.2 420.0 238.2 C 424.1 238.2 426.2 258.5 430.3 258.5 C 434.5 258.5 436.6 234.5 440.7 234.5 C 444.9 234.5 446.9 237.8 451.1 241.9 C 455.2 245.9 457.3 250.4 461.5 254.8 C 465.6 259.2 467.7 264.0 471.8 264.0 C 476.0 264.0 478.1 252.9 482.2 252.9 C 486.4 252.9 488.4 267.7 492.6 269.6 C 496.7 271.4 503.0 271.4 503.0 271.4" stroke="#8085e9" stroke-width="4"  stroke-linejoin="round" stroke-linecap="round"></path><path fill="none" d="M -5.0 277 L 4.9 277 C 4.9 277 11.2 277 15.3 277 C 19.5 277 21.5 269.2 25.7 265.9 C 29.8 262.5 31.9 260.3 36.1 260.3 C 40.2 260.3 42.3 260.3 46.4 262.2 C 50.6 264.0 52.7 270.3 56.8 273.3 C 61.0 276.2 63.0 277 67.2 277 C 71.3 277 73.4 277 77.6 277 C 81.7 277 83.8 277 87.9 277 C 92.1 277 94.2 277 98.3 275.1 C 102.5 273.3 104.5 267.7 108.7 265.9 C 112.8 264.0 114.9 264.8 119.1 264.0 C 123.2 263.3 125.3 262.2 129.4 262.2 C 133.6 262.2 135.7 263.7 139.8 265.9 C 144.0 268.1 146.0 271.0 150.2 273.3 C 154.3 275.5 156.4 277 160.6 277 C 164.7 277 166.8 276.2 170.9 275.1 C 175.1 274.0 177.2 271.4 181.3 271.4 C 185.5 271.4 187.5 271.4 191.7 271.4 C 195.8 271.4 197.9 277 202.1 277 C 206.2 277 208.3 275.1 212.4 275.1 C 216.6 275.1 218.7 277 222.8 277 C 227.0 277 229.0 277 233.2 277 C 237.3 277 239.4 277 243.6 277 C 247.7 277 249.8 273.3 254 273.3 C 258.1 273.3 260.2 274.4 264.3 275.1 C 268.5 275.8 270.6 277 274.7 277 C 278.9 277 280.9 271.4 285.1 271.4 C 289.2 271.4 291.3 277 295.5 277 C 299.6 277 301.7 275.8 305.8 275.1 C 310.0 274.4 312.1 273.3 316.2 273.3 C 320.4 273.3 322.4 275.1 326.6 275.1 C 330.7 275.1 332.8 271.4 337.0 271.4 C 341.1 271.4 343.2 271.4 347.3 271.4 C 351.5 271.4 353.6 277 357.7 277 C 361.9 277 363.9 219.7 368.1 219.7 C 372.2 219.7 374.3 219.7 378.5 219.7 C 382.6 219.7 384.7 224.9 388.8 230.8 C 393.0 236.7 395.1 249.3 399.2 249.3 C 403.4 249.3 405.4 244.1 409.6 241.9 C 413.7 239.6 415.8 238.2 420.0 238.2 C 424.1 238.2 426.2 258.5 430.3 258.5 C 434.5 258.5 436.6 234.5 440.7 234.5 C 444.9 234.5 446.9 237.8 451.1 241.9 C 455.2 245.9 457.3 250.4 461.5 254.8 C 465.6 259.2 467.7 264.0 471.8 264.0 C 476.0 264.0 478.1 252.9 482.2 252.9 C 486.4 252.9 488.4 267.7 492.6 269.6 C 496.7 271.4 503.0 271.4 503.0 271.4 L 513.0 271.4" stroke-linejoin="round" visibility="visible" stroke="rgb(192,192,192)" stroke-opacity="0.0" stroke-width="24"  class=" highcharts-tracker" style=""></path></g><g class="highcharts-markers highcharts-tracker" visibility="visible"  transform="translate(66,53) scale(1 1)" clip-path="url(#highcharts-2)" style=""></g></g><text x="292" text-anchor="middle" class="highcharts-title"  style="color:black;font-size:16px;font-weight:bold;fill:black;width:520px;" y="22"><tspan>Wind speed during two days</tspan></text><text x="292" text-anchor="middle" class="highcharts-subtitle"  style="color:black;fill:black;width:520px;" y="40"><tspan>May 31 and and June 1, 2015 at two locations in Vik i Sogn, Norway</tspan></text><g class="highcharts-legend"  transform="translate(207,361)"><g ><g><g class="highcharts-legend-item"  transform="translate(8,3)"><path fill="none" d="M 0 12 L 16 12" stroke="#f45b5b" stroke-width="4"></path><text x="21" style="color:#333333;font-size:13px;font-weight:bold;cursor:pointer;fill:#333333;" text-anchor="start"  y="16">Hestavollane</text></g><g class="highcharts-legend-item"  transform="translate(120.4,3)"><path fill="none" d="M 0 12 L 16 12" stroke="#8085e9" stroke-width="4"></path><text x="21" y="16" style="color:#333333;font-size:13px;font-weight:bold;cursor:pointer;fill:#333333;" text-anchor="start" >Vik</text></g></g></g></g><g class="highcharts-axis-labels highcharts-xaxis-labels" ><text x="70.9" style="color:#6e6e70;cursor:default;font-size:11px;fill:#6e6e70;width:75px;text-overflow:clip;" text-anchor="middle" transform="translate(0,0)" y="349" opacity="1"><tspan>31. May</tspan></text><text x="153.9" style="color:#6e6e70;cursor:default;font-size:11px;fill:#6e6e70;width:75px;text-overflow:clip;" text-anchor="middle" transform="translate(0,0)" y="349" opacity="1">08:00</text><text x="236.9" style="color:#6e6e70;cursor:default;font-size:11px;fill:#6e6e70;width:75px;text-overflow:clip;" text-anchor="middle" transform="translate(0,0)" y="349" opacity="1">16:00</text><text x="320" style="color:#6e6e70;cursor:default;font-size:11px;fill:#6e6e70;width:75px;text-overflow:clip;" text-anchor="middle" transform="translate(0,0)" y="349" opacity="1"><tspan>1. Jun</tspan></text><text x="403.0" style="color:#6e6e70;cursor:default;font-size:11px;fill:#6e6e70;width:75px;text-overflow:clip;" text-anchor="middle" transform="translate(0,0)" y="349" opacity="1">08:00</text><text x="486.0" style="color:#6e6e70;cursor:default;font-size:11px;fill:#6e6e70;width:75px;text-overflow:clip;" text-anchor="middle" transform="translate(0,0)" y="349" opacity="1">16:00</text><text x="560.8" style="color:#6e6e70;cursor:default;font-size:11px;fill:#6e6e70;width:75px;text-overflow:clip;" text-anchor="middle" transform="translate(0,0)" y="349" opacity="1"><tspan>2. Jun</tspan></text></g><g class="highcharts-axis-labels highcharts-yaxis-labels" ><text x="51" style="color:#6e6e70;cursor:default;font-size:11px;fill:#6e6e70;width:183px;text-overflow:clip;" text-anchor="end" transform="translate(0,0)" y="336" opacity="1">0</text><text x="51" style="color:#6e6e70;cursor:default;font-size:11px;fill:#6e6e70;width:183px;text-overflow:clip;" text-anchor="end" transform="translate(0,0)" y="289" opacity="1">2.5</text><text x="51" style="color:#6e6e70;cursor:default;font-size:11px;fill:#6e6e70;width:183px;text-overflow:clip;" text-anchor="end" transform="translate(0,0)" y="243" opacity="1">5</text><text x="51" style="color:#6e6e70;cursor:default;font-size:11px;fill:#6e6e70;width:183px;text-overflow:clip;" text-anchor="end" transform="translate(0,0)" y="197" opacity="1">7.5</text><text x="51" style="color:#6e6e70;cursor:default;font-size:11px;fill:#6e6e70;width:183px;text-overflow:clip;" text-anchor="end" transform="translate(0,0)" y="151" opacity="1">10</text><text x="51" style="color:#6e6e70;cursor:default;font-size:11px;fill:#6e6e70;width:183px;text-overflow:clip;" text-anchor="end" transform="translate(0,0)" y="105" opacity="1">12.5</text><text x="51" style="color:#6e6e70;cursor:default;font-size:11px;fill:#6e6e70;width:183px;text-overflow:clip;" text-anchor="end" transform="translate(0,0)" y="59" opacity="1">15</text></g><g class="highcharts-tooltip"  style="cursor:default;padding:0;white-space:nowrap;" transform="translate(0,-9999)"><path fill="none" d="M 3 0 L 13 0 C 16 0 16 0 16 3 L 16 13 C 16 16 16 16 13 16 L 3 16 C 0 16 0 16 0 13 L 0 3 C 0 0 0 0 3 0"  stroke="black" stroke-opacity="0.0" stroke-width="5" transform="translate(1, 1)"></path><path fill="none" d="M 3 0 L 13 0 C 16 0 16 0 16 3 L 16 13 C 16 16 16 16 13 16 L 3 16 C 0 16 0 16 0 13 L 0 3 C 0 0 0 0 3 0"  stroke="black" stroke-opacity="0.0" stroke-width="3" transform="translate(1, 1)"></path><path fill="none" d="M 3 0 L 13 0 C 16 0 16 0 16 3 L 16 13 C 16 16 16 16 13 16 L 3 16 C 0 16 0 16 0 13 L 0 3 C 0 0 0 0 3 0"  stroke="black" stroke-opacity="0.1" stroke-width="1" transform="translate(1, 1)"></path><path fill="rgb(249, 249, 249)" fill-opacity=" .85" d="M 3 0 L 13 0 C 16 0 16 0 16 3 L 16 13 C 16 16 16 16 13 16 L 3 16 C 0 16 0 16 0 13 L 0 3 C 0 0 0 0 3 0"></path><text x="8"  style="font-size:12px;color:#333333;fill:#333333;" y="20"></text></g></svg>