<svg version="1.1" style="font-family: signika, serif; font-size: 12px; background-image: url(http://www.highcharts.com/samples/graphics/sand.png); background-position: initial initial; background-repeat: initial initial;" xmlns="http://www.w3.org/2000/svg" width="584" height="400" viewBox="0 0 584 400" xmlns:xlink="http://www.w3.org/1999/xlink"><style type="text/css"><![CDATA[@import url(http://fonts.googleapis.com/css?family=Signika:700);]]></style><desc>Created with Highcharts 4.1.7</desc><defs><clipPath id="highcharts-1"><rect x="0" y="0" width="521" height="260"></rect></clipPath><clipPath id="highcharts-2"><rect x="-99" y="-53" width="620" height="400"></rect></clipPath><clipPath id="highcharts-3"><rect x="0" y="0" width="521" height="260"></rect></clipPath></defs><g class="highcharts-grid" ></g><g class="highcharts-grid" ><path fill="none" d="M 53 313.5 L 574 313.5" stroke="#D8D8D8" stroke-width="1"  opacity="1"></path><path fill="none" d="M 53 226.5 L 574 226.5" stroke="#D8D8D8" stroke-width="1"  opacity="1"></path><path fill="none" d="M 53 140.5 L 574 140.5" stroke="#D8D8D8" stroke-width="1"  opacity="1"></path><path fill="none" d="M 53 52.5 L 574 52.5" stroke="#D8D8D8" stroke-width="1"  opacity="1"></path></g><g class="highcharts-axis" ><path fill="none" d="M 80.5 313 L 80.5 323" stroke="#C0D0E0" stroke-width="1" opacity="1"></path><path fill="none" d="M 207.5 313 L 207.5 323" stroke="#C0D0E0" stroke-width="1" opacity="1"></path><path fill="none" d="M 330.5 313 L 330.5 323" stroke="#C0D0E0" stroke-width="1" opacity="1"></path><path fill="none" d="M 457.5 313 L 457.5 323" stroke="#C0D0E0" stroke-width="1" opacity="1"></path><text x="313.5"  text-anchor="middle" transform="translate(0,0)" class=" highcharts-xaxis-title" style="color:#707070;fill:#707070;" visibility="visible" y="349">Date</text><path fill="none" d="M 53 313.5 L 574 313.5" stroke="#C0D0E0" stroke-width="1"  visibility="visible"></path></g><g class="highcharts-axis" ><text x="22.5"  text-anchor="middle" transform="translate(0,0) rotate(270 22.5 183)" class=" highcharts-yaxis-title" style="color:#707070;fill:#707070;" visibility="visible" y="183"><tspan>Snow depth (m)</tspan></text></g><g class="highcharts-series-group" ><g class="highcharts-series" visibility="visible"  transform="translate(53,53) scale(1 1)" clip-path="url(#highcharts-3)"><path fill="none" d="M 5.1 260 C 5.1 260 22.6 235.7 34.2 235.7 C 38.4 235.7 40.5 237.7 44.7 238.3 C 59.7 240.5 67.2 242.6 82.2 242.6 C 86.4 242.6 88.5 235.7 92.6 235.7 C 112.6 235.7 122.6 235.7 142.7 235.7 C 145.2 235.7 146.4 222.5 148.9 219.2 C 159.8 204.9 165.2 191.5 176.0 191.5 C 188.5 191.5 194.8 197.6 207.3 197.6 C 214.0 197.6 217.3 178.5 224.0 171.6 C 230.6 164.6 234.0 165.2 240.6 162.9 C 252.3 158.9 258.2 156 269.8 156 C 281.5 156 287.3 157.7 299.0 157.7 C 324.9 157.7 337.8 157.7 363.6 156.8 C 380.3 156 388.7 129.4 405.3 99.6 C 408.7 93.7 410.3 67.5 413.7 67.5 C 425.4 67.5 431.2 123.1 442.9 160.3 C 455.4 200.1 474.1 260 474.1 260" stroke="black" stroke-width="5"  stroke-linejoin="round" stroke-linecap="round"  stroke-opacity="0.0" transform="translate(1, 1)"></path><path fill="none" d="M 5.1 260 C 5.1 260 22.6 235.7 34.2 235.7 C 38.4 235.7 40.5 237.7 44.7 238.3 C 59.7 240.5 67.2 242.6 82.2 242.6 C 86.4 242.6 88.5 235.7 92.6 235.7 C 112.6 235.7 122.6 235.7 142.7 235.7 C 145.2 235.7 146.4 222.5 148.9 219.2 C 159.8 204.9 165.2 191.5 176.0 191.5 C 188.5 191.5 194.8 197.6 207.3 197.6 C 214.0 197.6 217.3 178.5 224.0 171.6 C 230.6 164.6 234.0 165.2 240.6 162.9 C 252.3 158.9 258.2 156 269.8 156 C 281.5 156 287.3 157.7 299.0 157.7 C 324.9 157.7 337.8 157.7 363.6 156.8 C 380.3 156 388.7 129.4 405.3 99.6 C 408.7 93.7 410.3 67.5 413.7 67.5 C 425.4 67.5 431.2 123.1 442.9 160.3 C 455.4 200.1 474.1 260 474.1 260" stroke="black" stroke-width="3"  stroke-linejoin="round" stroke-linecap="round"  stroke-opacity="0.0" transform="translate(1, 1)"></path><path fill="none" d="M 5.1 260 C 5.1 260 22.6 235.7 34.2 235.7 C 38.4 235.7 40.5 237.7 44.7 238.3 C 59.7 240.5 67.2 242.6 82.2 242.6 C 86.4 242.6 88.5 235.7 92.6 235.7 C 112.6 235.7 122.6 235.7 142.7 235.7 C 145.2 235.7 146.4 222.5 148.9 219.2 C 159.8 204.9 165.2 191.5 176.0 191.5 C 188.5 191.5 194.8 197.6 207.3 197.6 C 214.0 197.6 217.3 178.5 224.0 171.6 C 230.6 164.6 234.0 165.2 240.6 162.9 C 252.3 158.9 258.2 156 269.8 156 C 281.5 156 287.3 157.7 299.0 157.7 C 324.9 157.7 337.8 157.7 363.6 156.8 C 380.3 156 388.7 129.4 405.3 99.6 C 408.7 93.7 410.3 67.5 413.7 67.5 C 425.4 67.5 431.2 123.1 442.9 160.3 C 455.4 200.1 474.1 260 474.1 260" stroke="black" stroke-width="1"  stroke-linejoin="round" stroke-linecap="round"  stroke-opacity="0.1" transform="translate(1, 1)"></path><path fill="none" d="M 5.1 260 C 5.1 260 22.6 235.7 34.2 235.7 C 38.4 235.7 40.5 237.7 44.7 238.3 C 59.7 240.5 67.2 242.6 82.2 242.6 C 86.4 242.6 88.5 235.7 92.6 235.7 C 112.6 235.7 122.6 235.7 142.7 235.7 C 145.2 235.7 146.4 222.5 148.9 219.2 C 159.8 204.9 165.2 191.5 176.0 191.5 C 188.5 191.5 194.8 197.6 207.3 197.6 C 214.0 197.6 217.3 178.5 224.0 171.6 C 230.6 164.6 234.0 165.2 240.6 162.9 C 252.3 158.9 258.2 156 269.8 156 C 281.5 156 287.3 157.7 299.0 157.7 C 324.9 157.7 337.8 157.7 363.6 156.8 C 380.3 156 388.7 129.4 405.3 99.6 C 408.7 93.7 410.3 67.5 413.7 67.5 C 425.4 67.5 431.2 123.1 442.9 160.3 C 455.4 200.1 474.1 260 474.1 260" stroke="#f45b5b" stroke-width="2"  stroke-linejoin="round" stroke-linecap="round"></path><path fill="none" d="M -4.8 260 L 5.1 260 C 5.1 260 22.6 235.7 34.2 235.7 C 38.4 235.7 40.5 237.7 44.7 238.3 C 59.7 240.5 67.2 242.6 82.2 242.6 C 86.4 242.6 88.5 235.7 92.6 235.7 C 112.6 235.7 122.6 235.7 142.7 235.7 C 145.2 235.7 146.4 222.5 148.9 219.2 C 159.8 204.9 165.2 191.5 176.0 191.5 C 188.5 191.5 194.8 197.6 207.3 197.6 C 214.0 197.6 217.3 178.5 224.0 171.6 C 230.6 164.6 234.0 165.2 240.6 162.9 C 252.3 158.9 258.2 156 269.8 156 C 281.5 156 287.3 157.7 299.0 157.7 C 324.9 157.7 337.8 157.7 363.6 156.8 C 380.3 156 388.7 129.4 405.3 99.6 C 408.7 93.7 410.3 67.5 413.7 67.5 C 425.4 67.5 431.2 123.1 442.9 160.3 C 455.4 200.1 474.1 260 474.1 260 L 484.1 260" stroke-linejoin="round" visibility="visible" stroke="rgb(192,192,192)" stroke-opacity="0.0" stroke-width="22"  class=" highcharts-tracker" style=""></path></g><g class="highcharts-markers highcharts-tracker" visibility="visible"  transform="translate(53,53) scale(1 1)" clip-path="url(#highcharts-2)" style=""><path fill="#f45b5b" d="M 474 256 C 479.3 256 479.3 264 474 264 C 468.6 264 468.6 256 474 256 Z"></path><path fill="#f45b5b" d="M 442 156.3 C 447.3 156.3 447.3 164.3 442 164.3 C 436.6 164.3 436.6 156.3 442 156.3 Z"></path><path fill="#f45b5b" d="M 413 63.5 C 418.3 63.5 418.3 71.5 413 71.5 C 407.6 71.5 407.6 63.5 413 63.5 Z"></path><path fill="#f45b5b" d="M 405 95.6 C 410.3 95.6 410.3 103.6 405 103.6 C 399.6 103.6 399.6 95.6 405 95.6 Z"></path><path fill="#f45b5b" d="M 363 152.8 C 368.3 152.8 368.3 160.8 363 160.8 C 357.6 160.8 357.6 152.8 363 152.8 Z"></path><path fill="#f45b5b" d="M 299 153.7 C 304.3 153.7 304.3 161.7 299 161.7 C 293.6 161.7 293.6 153.7 299 153.7 Z"></path><path fill="#f45b5b" d="M 269 152 C 274.3 152 274.3 160 269 160 C 263.6 160 263.6 152 269 152 Z"></path><path fill="#f45b5b" d="M 240 158.9 C 245.3 158.9 245.3 166.9 240 166.9 C 234.6 166.9 234.6 158.9 240 158.9 Z"></path><path fill="#f45b5b" d="M 224 167.6 C 229.3 167.6 229.3 175.6 224 175.6 C 218.6 175.6 218.6 167.6 224 167.6 Z"></path><path fill="#f45b5b" d="M 207 193.6 C 212.3 193.6 212.3 201.6 207 201.6 C 201.6 201.6 201.6 193.6 207 193.6 Z"></path><path fill="#f45b5b" d="M 176 187.5 C 181.3 187.5 181.3 195.5 176 195.5 C 170.6 195.5 170.6 187.5 176 187.5 Z"></path><path fill="#f45b5b" d="M 148 215.2 C 153.3 215.2 153.3 223.2 148 223.2 C 142.6 223.2 142.6 215.2 148 215.2 Z"></path><path fill="#f45b5b" d="M 142 231.7 C 147.3 231.7 147.3 239.7 142 239.7 C 136.6 239.7 136.6 231.7 142 231.7 Z"></path><path fill="#f45b5b" d="M 92 231.7 C 97.3 231.7 97.3 239.7 92 239.7 C 86.6 239.7 86.6 231.7 92 231.7 Z"></path><path fill="#f45b5b" d="M 82 238.6 C 87.3 238.6 87.3 246.6 82 246.6 C 76.6 246.6 76.6 238.6 82 238.6 Z"></path><path fill="#f45b5b" d="M 44 234.3 C 49.3 234.3 49.3 242.3 44 242.3 C 38.6 242.3 38.6 234.3 44 234.3 Z"></path><path fill="#f45b5b" d="M 34 231.7 C 39.3 231.7 39.3 239.7 34 239.7 C 28.6 239.7 28.6 231.7 34 231.7 Z"></path><path fill="#f45b5b" d="M 5 256 C 10.3 256 10.3 264 5 264 C -0.3 264 -0.3 256 5 256 Z"></path></g><g class="highcharts-series" visibility="visible"  transform="translate(53,53) scale(1 1)" clip-path="url(#highcharts-3)"><path fill="none" d="M 21.7 260 C 21.7 260 35.5 225.3 44.7 225.3 C 63.0 225.3 72.2 238.3 90.5 238.3 C 116.4 238.3 129.3 157.7 155.2 116.1 C 162.7 104.0 166.4 104 173.9 104 C 207.3 104 224.0 107.4 257.3 107.4 C 285.7 107.4 299.9 32.9 328.2 32.9 C 349.1 32.9 359.5 37.4 380.3 51.1 C 389.5 57.1 394.1 71.5 403.3 82.3 C 414.9 96.1 420.8 93.4 432.4 112.6 C 440.8 126.3 445.0 142.8 453.3 164.6 C 467.5 201.7 488.7 260 488.7 260" stroke="black" stroke-width="5"  stroke-linejoin="round" stroke-linecap="round"  stroke-opacity="0.0" transform="translate(1, 1)"></path><path fill="none" d="M 21.7 260 C 21.7 260 35.5 225.3 44.7 225.3 C 63.0 225.3 72.2 238.3 90.5 238.3 C 116.4 238.3 129.3 157.7 155.2 116.1 C 162.7 104.0 166.4 104 173.9 104 C 207.3 104 224.0 107.4 257.3 107.4 C 285.7 107.4 299.9 32.9 328.2 32.9 C 349.1 32.9 359.5 37.4 380.3 51.1 C 389.5 57.1 394.1 71.5 403.3 82.3 C 414.9 96.1 420.8 93.4 432.4 112.6 C 440.8 126.3 445.0 142.8 453.3 164.6 C 467.5 201.7 488.7 260 488.7 260" stroke="black" stroke-width="3"  stroke-linejoin="round" stroke-linecap="round"  stroke-opacity="0.0" transform="translate(1, 1)"></path><path fill="none" d="M 21.7 260 C 21.7 260 35.5 225.3 44.7 225.3 C 63.0 225.3 72.2 238.3 90.5 238.3 C 116.4 238.3 129.3 157.7 155.2 116.1 C 162.7 104.0 166.4 104 173.9 104 C 207.3 104 224.0 107.4 257.3 107.4 C 285.7 107.4 299.9 32.9 328.2 32.9 C 349.1 32.9 359.5 37.4 380.3 51.1 C 389.5 57.1 394.1 71.5 403.3 82.3 C 414.9 96.1 420.8 93.4 432.4 112.6 C 440.8 126.3 445.0 142.8 453.3 164.6 C 467.5 201.7 488.7 260 488.7 260" stroke="black" stroke-width="1"  stroke-linejoin="round" stroke-linecap="round"  stroke-opacity="0.1" transform="translate(1, 1)"></path><path fill="none" d="M 21.7 260 C 21.7 260 35.5 225.3 44.7 225.3 C 63.0 225.3 72.2 238.3 90.5 238.3 C 116.4 238.3 129.3 157.7 155.2 116.1 C 162.7 104.0 166.4 104 173.9 104 C 207.3 104 224.0 107.4 257.3 107.4 C 285.7 107.4 299.9 32.9 328.2 32.9 C 349.1 32.9 359.5 37.4 380.3 51.1 C 389.5 57.1 394.1 71.5 403.3 82.3 C 414.9 96.1 420.8 93.4 432.4 112.6 C 440.8 126.3 445.0 142.8 453.3 164.6 C 467.5 201.7 488.7 260 488.7 260" stroke="#8085e9" stroke-width="2"  stroke-linejoin="round" stroke-linecap="round"></path><path fill="none" d="M 11.7 260 L 21.7 260 C 21.7 260 35.5 225.3 44.7 225.3 C 63.0 225.3 72.2 238.3 90.5 238.3 C 116.4 238.3 129.3 157.7 155.2 116.1 C 162.7 104.0 166.4 104 173.9 104 C 207.3 104 224.0 107.4 257.3 107.4 C 285.7 107.4 299.9 32.9 328.2 32.9 C 349.1 32.9 359.5 37.4 380.3 51.1 C 389.5 57.1 394.1 71.5 403.3 82.3 C 414.9 96.1 420.8 93.4 432.4 112.6 C 440.8 126.3 445.0 142.8 453.3 164.6 C 467.5 201.7 488.7 260 488.7 260 L 498.7 260" stroke-linejoin="round" visibility="visible" stroke="rgb(192,192,192)" stroke-opacity="0.0" stroke-width="22"  class=" highcharts-tracker" style=""></path></g><g class="highcharts-markers highcharts-tracker" visibility="visible"  transform="translate(53,53) scale(1 1)" clip-path="url(#highcharts-2)" style=""><path fill="#8085e9" d="M 488 256 L 492 260 488 264 484 260 Z"></path><path fill="#8085e9" d="M 453 160.6 L 457 164.6 453 168.6 449 164.6 Z"></path><path fill="#8085e9" d="M 432 108.6 L 436 112.6 432 116.6 428 112.6 Z"></path><path fill="#8085e9" d="M 403 78.3 L 407 82.3 403 86.3 399 82.3 Z"></path><path fill="#8085e9" d="M 380 47.1 L 384 51.1 380 55.1 376 51.1 Z"></path><path fill="#8085e9" d="M 328 28.9 L 332 32.9 328 36.9 324 32.9 Z"></path><path fill="#8085e9" d="M 257 103.4 L 261 107.4 257 111.4 253 107.4 Z"></path><path fill="#8085e9" d="M 173 100 L 177 104 173 108 169 104 Z"></path><path fill="#8085e9" d="M 155 112.1 L 159 116.1 155 120.1 151 116.1 Z"></path><path fill="#8085e9" d="M 90 234.3 L 94 238.3 90 242.3 86 238.3 Z"></path><path fill="#8085e9" d="M 44 221.3 L 48 225.3 44 229.3 40 225.3 Z"></path><path fill="#8085e9" d="M 21 256 L 25 260 21 264 17 260 Z"></path></g><g class="highcharts-series" visibility="visible"  transform="translate(53,53) scale(1 1)" clip-path="url(#highcharts-3)"><path fill="none" d="M 78.0 260 C 78.0 260 91.8 259.8 101.0 238.3 C 112.6 210.9 118.5 173.3 130.1 137.8 C 134.3 125.1 136.4 117.8 140.6 117.8 C 148.9 117.8 153.1 121.3 161.4 121.3 C 172.3 121.3 177.7 45.0 188.5 39 C 194.4 32.9 197.3 32.9 203.1 32.9 C 212.3 32.9 216.9 39.7 226.1 43.3 C 234.4 46.6 238.6 50.2 246.9 50.2 C 263.6 50.2 271.9 22.5 288.6 22.5 C 295.3 22.5 298.6 31.1 305.3 32.9 C 313.6 34.6 317.8 34.6 326.1 34.6 C 333.6 34.6 337.4 16.4 344.9 16.4 C 353.2 16.4 357.4 32.0 365.7 32.0 C 379.1 32.0 385.7 19.9 399.1 19.9 C 404.9 19.9 407.8 23.4 413.7 27.7 C 417.9 30.7 419.9 33.1 424.1 38.1 C 428.3 43.1 430.4 48.3 434.5 52.8 C 438.7 57.3 440.8 57.4 445.0 60.6 C 458.3 70.9 465.0 74.7 478.3 86.6 C 482.5 90.3 484.6 90.8 488.7 99.6 C 492.9 108.5 495.0 120.6 499.2 130.8 C 505.8 147.2 515.8 166.3 515.8 166.3" stroke="black" stroke-width="5"  stroke-linejoin="round" stroke-linecap="round"  stroke-opacity="0.0" transform="translate(1, 1)"></path><path fill="none" d="M 78.0 260 C 78.0 260 91.8 259.8 101.0 238.3 C 112.6 210.9 118.5 173.3 130.1 137.8 C 134.3 125.1 136.4 117.8 140.6 117.8 C 148.9 117.8 153.1 121.3 161.4 121.3 C 172.3 121.3 177.7 45.0 188.5 39 C 194.4 32.9 197.3 32.9 203.1 32.9 C 212.3 32.9 216.9 39.7 226.1 43.3 C 234.4 46.6 238.6 50.2 246.9 50.2 C 263.6 50.2 271.9 22.5 288.6 22.5 C 295.3 22.5 298.6 31.1 305.3 32.9 C 313.6 34.6 317.8 34.6 326.1 34.6 C 333.6 34.6 337.4 16.4 344.9 16.4 C 353.2 16.4 357.4 32.0 365.7 32.0 C 379.1 32.0 385.7 19.9 399.1 19.9 C 404.9 19.9 407.8 23.4 413.7 27.7 C 417.9 30.7 419.9 33.1 424.1 38.1 C 428.3 43.1 430.4 48.3 434.5 52.8 C 438.7 57.3 440.8 57.4 445.0 60.6 C 458.3 70.9 465.0 74.7 478.3 86.6 C 482.5 90.3 484.6 90.8 488.7 99.6 C 492.9 108.5 495.0 120.6 499.2 130.8 C 505.8 147.2 515.8 166.3 515.8 166.3" stroke="black" stroke-width="3"  stroke-linejoin="round" stroke-linecap="round"  stroke-opacity="0.0" transform="translate(1, 1)"></path><path fill="none" d="M 78.0 260 C 78.0 260 91.8 259.8 101.0 238.3 C 112.6 210.9 118.5 173.3 130.1 137.8 C 134.3 125.1 136.4 117.8 140.6 117.8 C 148.9 117.8 153.1 121.3 161.4 121.3 C 172.3 121.3 177.7 45.0 188.5 39 C 194.4 32.9 197.3 32.9 203.1 32.9 C 212.3 32.9 216.9 39.7 226.1 43.3 C 234.4 46.6 238.6 50.2 246.9 50.2 C 263.6 50.2 271.9 22.5 288.6 22.5 C 295.3 22.5 298.6 31.1 305.3 32.9 C 313.6 34.6 317.8 34.6 326.1 34.6 C 333.6 34.6 337.4 16.4 344.9 16.4 C 353.2 16.4 357.4 32.0 365.7 32.0 C 379.1 32.0 385.7 19.9 399.1 19.9 C 404.9 19.9 407.8 23.4 413.7 27.7 C 417.9 30.7 419.9 33.1 424.1 38.1 C 428.3 43.1 430.4 48.3 434.5 52.8 C 438.7 57.3 440.8 57.4 445.0 60.6 C 458.3 70.9 465.0 74.7 478.3 86.6 C 482.5 90.3 484.6 90.8 488.7 99.6 C 492.9 108.5 495.0 120.6 499.2 130.8 C 505.8 147.2 515.8 166.3 515.8 166.3" stroke="black" stroke-width="1"  stroke-linejoin="round" stroke-linecap="round"  stroke-opacity="0.1" transform="translate(1, 1)"></path><path fill="none" d="M 78.0 260 C 78.0 260 91.8 259.8 101.0 238.3 C 112.6 210.9 118.5 173.3 130.1 137.8 C 134.3 125.1 136.4 117.8 140.6 117.8 C 148.9 117.8 153.1 121.3 161.4 121.3 C 172.3 121.3 177.7 45.0 188.5 39 C 194.4 32.9 197.3 32.9 203.1 32.9 C 212.3 32.9 216.9 39.7 226.1 43.3 C 234.4 46.6 238.6 50.2 246.9 50.2 C 263.6 50.2 271.9 22.5 288.6 22.5 C 295.3 22.5 298.6 31.1 305.3 32.9 C 313.6 34.6 317.8 34.6 326.1 34.6 C 333.6 34.6 337.4 16.4 344.9 16.4 C 353.2 16.4 357.4 32.0 365.7 32.0 C 379.1 32.0 385.7 19.9 399.1 19.9 C 404.9 19.9 407.8 23.4 413.7 27.7 C 417.9 30.7 419.9 33.1 424.1 38.1 C 428.3 43.1 430.4 48.3 434.5 52.8 C 438.7 57.3 440.8 57.4 445.0 60.6 C 458.3 70.9 465.0 74.7 478.3 86.6 C 482.5 90.3 484.6 90.8 488.7 99.6 C 492.9 108.5 495.0 120.6 499.2 130.8 C 505.8 147.2 515.8 166.3 515.8 166.3" stroke="#8d4654" stroke-width="2"  stroke-linejoin="round" stroke-linecap="round"></path><path fill="none" d="M 68.0 260 L 78.0 260 C 78.0 260 91.8 259.8 101.0 238.3 C 112.6 210.9 118.5 173.3 130.1 137.8 C 134.3 125.1 136.4 117.8 140.6 117.8 C 148.9 117.8 153.1 121.3 161.4 121.3 C 172.3 121.3 177.7 45.0 188.5 39 C 194.4 32.9 197.3 32.9 203.1 32.9 C 212.3 32.9 216.9 39.7 226.1 43.3 C 234.4 46.6 238.6 50.2 246.9 50.2 C 263.6 50.2 271.9 22.5 288.6 22.5 C 295.3 22.5 298.6 31.1 305.3 32.9 C 313.6 34.6 317.8 34.6 326.1 34.6 C 333.6 34.6 337.4 16.4 344.9 16.4 C 353.2 16.4 357.4 32.0 365.7 32.0 C 379.1 32.0 385.7 19.9 399.1 19.9 C 404.9 19.9 407.8 23.4 413.7 27.7 C 417.9 30.7 419.9 33.1 424.1 38.1 C 428.3 43.1 430.4 48.3 434.5 52.8 C 438.7 57.3 440.8 57.4 445.0 60.6 C 458.3 70.9 465.0 74.7 478.3 86.6 C 482.5 90.3 484.6 90.8 488.7 99.6 C 492.9 108.5 495.0 120.6 499.2 130.8 C 505.8 147.2 515.8 166.3 515.8 166.3 L 525.8 166.3" stroke-linejoin="round" visibility="visible" stroke="rgb(192,192,192)" stroke-opacity="0.0" stroke-width="22"  class=" highcharts-tracker" style=""></path></g><g class="highcharts-markers highcharts-tracker" visibility="visible"  transform="translate(53,53) scale(1 1)" clip-path="url(#highcharts-2)" style=""><path fill="#8d4654" d="M 511 162.3 L 519 162.3 519 170.3 511 170.3 Z"></path><path fill="#8d4654" d="M 495 126.8 L 503 126.8 503 134.8 495 134.8 Z"></path><path fill="#8d4654" d="M 484 95.6 L 492 95.6 492 103.6 484 103.6 Z"></path><path fill="#8d4654" d="M 474 82.6 L 482 82.6 482 90.6 474 90.6 Z"></path><path fill="#8d4654" d="M 441 56.6 L 449 56.6 449 64.6 441 64.6 Z"></path><path fill="#8d4654" d="M 430 48.8 L 438 48.8 438 56.8 430 56.8 Z"></path><path fill="#8d4654" d="M 420 34.1 L 428 34.1 428 42.1 420 42.1 Z"></path><path fill="#8d4654" d="M 409 23.7 L 417 23.7 417 31.7 409 31.7 Z"></path><path fill="#8d4654" d="M 395 15.9 L 403 15.9 403 23.9 395 23.9 Z"></path><path fill="#8d4654" d="M 361 28.0 L 369 28.0 369 36.0 361 36.0 Z"></path><path fill="#8d4654" d="M 340 12.4 L 348 12.4 348 20.4 340 20.4 Z"></path><path fill="#8d4654" d="M 322 30.6 L 330 30.6 330 38.6 322 38.6 Z"></path><path fill="#8d4654" d="M 301 28.9 L 309 28.9 309 36.9 301 36.9 Z"></path><path fill="#8d4654" d="M 284 18.5 L 292 18.5 292 26.5 284 26.5 Z"></path><path fill="#8d4654" d="M 242 46.2 L 250 46.2 250 54.2 242 54.2 Z"></path><path fill="#8d4654" d="M 222 39.3 L 230 39.3 230 47.3 222 47.3 Z"></path><path fill="#8d4654" d="M 199 28.9 L 207 28.9 207 36.9 199 36.9 Z"></path><path fill="#8d4654" d="M 184 35 L 192 35 192 43 184 43 Z"></path><path fill="#8d4654" d="M 157 117.3 L 165 117.3 165 125.3 157 125.3 Z"></path><path fill="#8d4654" d="M 136 113.8 L 144 113.8 144 121.8 136 121.8 Z"></path><path fill="#8d4654" d="M 126 133.8 L 134 133.8 134 141.8 126 141.8 Z"></path><path fill="#8d4654" d="M 97 234.3 L 105 234.3 105 242.3 97 242.3 Z"></path><path fill="#8d4654" d="M 74 256 L 82 256 82 264 74 264 Z"></path></g></g><text x="292" text-anchor="middle" class="highcharts-title"  style="color:black;font-size:16px;font-weight:bold;fill:black;width:520px;" y="22"><tspan>Snow depth at Vikjafjellet, Norway</tspan></text><text x="292" text-anchor="middle" class="highcharts-subtitle"  style="color:black;fill:black;width:520px;" y="40"><tspan>Irregular time data in Highcharts JS</tspan></text><g class="highcharts-legend"  transform="translate(84,361)"><g ><g><g class="highcharts-legend-item"  transform="translate(8,3)"><path fill="none" d="M 0 12 L 16 12" stroke="#f45b5b" stroke-width="2"></path><path fill="#f45b5b" d="M 8 8 C 13.3 8 13.3 16 8 16 C 2.6 16 2.6 8 8 8 Z"></path><text x="21" style="color:#333333;font-size:13px;font-weight:bold;cursor:pointer;fill:#333333;" text-anchor="start"  y="16"><tspan>Winter 2012-2013</tspan></text></g><g class="highcharts-legend-item"  transform="translate(148.2,3)"><path fill="none" d="M 0 12 L 16 12" stroke="#8085e9" stroke-width="2"></path><path fill="#8085e9" d="M 8 8 L 12 12 8 16 4 12 Z"></path><text x="21" y="16" style="color:#333333;font-size:13px;font-weight:bold;cursor:pointer;fill:#333333;" text-anchor="start" ><tspan>Winter 2013-2014</tspan></text></g><g class="highcharts-legend-item"  transform="translate(288.5,3)"><path fill="none" d="M 0 12 L 16 12" stroke="#8d4654" stroke-width="2"></path><path fill="#8d4654" d="M 4 8 L 12 8 12 16 4 16 Z"></path><text x="21" y="16" style="color:#333333;font-size:13px;font-weight:bold;cursor:pointer;fill:#333333;" text-anchor="start" ><tspan>Winter 2014-2015</tspan></text></g></g></g></g><g class="highcharts-axis-labels highcharts-xaxis-labels" ><text x="81.0" style="color:#6e6e70;cursor:default;font-size:11px;fill:#6e6e70;width:178px;text-overflow:clip;" text-anchor="middle" transform="translate(0,0)" y="332" opacity="1"><tspan>1. Nov</tspan></text><text x="208.2" style="color:#6e6e70;cursor:default;font-size:11px;fill:#6e6e70;width:178px;text-overflow:clip;" text-anchor="middle" transform="translate(0,0)" y="332" opacity="1"><tspan>1. Jan</tspan></text><text x="331.2" style="color:#6e6e70;cursor:default;font-size:11px;fill:#6e6e70;width:178px;text-overflow:clip;" text-anchor="middle" transform="translate(0,0)" y="332" opacity="1"><tspan>1. Mar</tspan></text><text x="458.3" style="color:#6e6e70;cursor:default;font-size:11px;fill:#6e6e70;width:178px;text-overflow:clip;" text-anchor="middle" transform="translate(0,0)" y="332" opacity="1"><tspan>1. May</tspan></text></g><g class="highcharts-axis-labels highcharts-yaxis-labels" ><text x="38" style="color:#6e6e70;cursor:default;font-size:11px;fill:#6e6e70;width:183px;text-overflow:clip;" text-anchor="end" transform="translate(0,0)" y="319" opacity="1">0</text><text x="38" style="color:#6e6e70;cursor:default;font-size:11px;fill:#6e6e70;width:183px;text-overflow:clip;" text-anchor="end" transform="translate(0,0)" y="232" opacity="1">1</text><text x="38" style="color:#6e6e70;cursor:default;font-size:11px;fill:#6e6e70;width:183px;text-overflow:clip;" text-anchor="end" transform="translate(0,0)" y="145" opacity="1">2</text><text x="38" style="color:#6e6e70;cursor:default;font-size:11px;fill:#6e6e70;width:183px;text-overflow:clip;" text-anchor="end" transform="translate(0,0)" y="59" opacity="1">3</text></g><g class="highcharts-tooltip"  style="cursor:default;padding:0;white-space:nowrap;" transform="translate(0,-9999)"><path fill="none" d="M 3 0 L 13 0 C 16 0 16 0 16 3 L 16 13 C 16 16 16 16 13 16 L 3 16 C 0 16 0 16 0 13 L 0 3 C 0 0 0 0 3 0"  stroke="black" stroke-opacity="0.0" stroke-width="5" transform="translate(1, 1)"></path><path fill="none" d="M 3 0 L 13 0 C 16 0 16 0 16 3 L 16 13 C 16 16 16 16 13 16 L 3 16 C 0 16 0 16 0 13 L 0 3 C 0 0 0 0 3 0"  stroke="black" stroke-opacity="0.0" stroke-width="3" transform="translate(1, 1)"></path><path fill="none" d="M 3 0 L 13 0 C 16 0 16 0 16 3 L 16 13 C 16 16 16 16 13 16 L 3 16 C 0 16 0 16 0 13 L 0 3 C 0 0 0 0 3 0"  stroke="black" stroke-opacity="0.1" stroke-width="1" transform="translate(1, 1)"></path><path fill="rgb(249, 249, 249)" fill-opacity=" .85" d="M 3 0 L 13 0 C 16 0 16 0 16 3 L 16 13 C 16 16 16 16 13 16 L 3 16 C 0 16 0 16 0 13 L 0 3 C 0 0 0 0 3 0"></path><text x="8"  style="font-size:12px;color:#333333;fill:#333333;" y="20"></text></g></svg>