<svg version="1.1" style="font-family: signika, serif; font-size: 12px; background-image: url(http://www.highcharts.com/samples/graphics/sand.png); background-position: initial initial; background-repeat: initial initial;" xmlns="http://www.w3.org/2000/svg" width="584" height="400" viewBox="0 0 584 400" xmlns:xlink="http://www.w3.org/1999/xlink"><style type="text/css"><![CDATA[@import url(http://fonts.googleapis.com/css?family=Signika:700);]]></style><desc>Created with Highcharts 4.1.7</desc><defs><clipPath id="highcharts-1"><rect x="1" y="0" width="295" height="502"></rect></clipPath><clipPath id="highcharts-2"><rect x="-99" y="-72" width="395" height="584"></rect></clipPath><clipPath id="highcharts-3"><rect x="1" y="0" width="296" height="502"></rect></clipPath></defs><g class="highcharts-grid" ></g><g class="highcharts-grid" ><path fill="none" d="M 71.5 53 L 71.5 349" stroke="#D8D8D8" stroke-width="1"  opacity="1"></path><path fill="none" d="M 117.5 53 L 117.5 349" stroke="#D8D8D8" stroke-width="1"  opacity="1"></path><path fill="none" d="M 162.5 53 L 162.5 349" stroke="#D8D8D8" stroke-width="1"  opacity="1"></path><path fill="none" d="M 208.5 53 L 208.5 349" stroke="#D8D8D8" stroke-width="1"  opacity="1"></path><path fill="none" d="M 254.5 53 L 254.5 349" stroke="#D8D8D8" stroke-width="1"  opacity="1"></path><path fill="none" d="M 299.5 53 L 299.5 349" stroke="#D8D8D8" stroke-width="1"  opacity="1"></path><path fill="none" d="M 345.5 53 L 345.5 349" stroke="#D8D8D8" stroke-width="1"  opacity="1"></path><path fill="none" d="M 390.5 53 L 390.5 349" stroke="#D8D8D8" stroke-width="1"  opacity="1"></path><path fill="none" d="M 436.5 53 L 436.5 349" stroke="#D8D8D8" stroke-width="1"  opacity="1"></path><path fill="none" d="M 482.5 53 L 482.5 349" stroke="#D8D8D8" stroke-width="1"  opacity="1"></path><path fill="none" d="M 527.5 53 L 527.5 349" stroke="#D8D8D8" stroke-width="1"  opacity="1"></path><path fill="none" d="M 574.5 53 L 574.5 349" stroke="#D8D8D8" stroke-width="1"  opacity="1"></path></g><g class="highcharts-axis" ><path fill="none" d="M 72 346.5 L 62 346.5" stroke="#C0D0E0" stroke-width="1" opacity="1"></path><path fill="none" d="M 72 259.5 L 62 259.5" stroke="#C0D0E0" stroke-width="1" opacity="1"></path><path fill="none" d="M 72 172.5 L 62 172.5" stroke="#C0D0E0" stroke-width="1" opacity="1"></path><path fill="none" d="M 72 84.5 L 62 84.5" stroke="#C0D0E0" stroke-width="1" opacity="1"></path><text x="21.9"  text-anchor="middle" transform="translate(0,0) rotate(270 21.9 201)" class=" highcharts-xaxis-title" style="color:#707070;fill:#707070;" visibility="visible" y="201">Altitude</text><path fill="none" d="M 71.5 53 L 71.5 349" stroke="#C0D0E0" stroke-width="1"  visibility="visible"></path></g><g class="highcharts-axis" ><text x="323"  text-anchor="middle" transform="translate(0,0)" class=" highcharts-yaxis-title" style="color:#707070;fill:#707070;" visibility="visible" y="385">Temperature</text><path fill="none" d="M 72 349 L 574 349" stroke="#C0D0E0" stroke-width="2"  visibility="visible"></path></g><g class="highcharts-series-group" ><g class="highcharts-series" visibility="visible"  transform="translate(574,349) rotate(90) scale(-1,1) scale(1 1)" clip-path="url(#highcharts-3)" width="502" height="296"><path fill="none" d="M 2.7 22.8 C 2.7 22.8 23.7 289.7 37.6 319.4 C 51.6 349.1 58.6 349.1 72.6 349.1 C 86.5 349.1 93.5 334.8 107.5 303.4 C 121.4 272.0 128.4 232.2 142.4 192.1 C 156.3 151.9 163.3 102.6 177.3 102.6 C 191.2 102.6 198.2 169.1 212.2 217.6 C 226.1 266.2 233.1 300.9 247.1 345.4 C 261.0 390.0 282.0 440.3 282.0 440.3" stroke="black" stroke-width="5"  stroke-linejoin="round" stroke-linecap="round"  stroke-opacity="0.0" transform="translate(-1,-1)"></path><path fill="none" d="M 2.7 22.8 C 2.7 22.8 23.7 289.7 37.6 319.4 C 51.6 349.1 58.6 349.1 72.6 349.1 C 86.5 349.1 93.5 334.8 107.5 303.4 C 121.4 272.0 128.4 232.2 142.4 192.1 C 156.3 151.9 163.3 102.6 177.3 102.6 C 191.2 102.6 198.2 169.1 212.2 217.6 C 226.1 266.2 233.1 300.9 247.1 345.4 C 261.0 390.0 282.0 440.3 282.0 440.3" stroke="black" stroke-width="3"  stroke-linejoin="round" stroke-linecap="round"  stroke-opacity="0.0" transform="translate(-1,-1)"></path><path fill="none" d="M 2.7 22.8 C 2.7 22.8 23.7 289.7 37.6 319.4 C 51.6 349.1 58.6 349.1 72.6 349.1 C 86.5 349.1 93.5 334.8 107.5 303.4 C 121.4 272.0 128.4 232.2 142.4 192.1 C 156.3 151.9 163.3 102.6 177.3 102.6 C 191.2 102.6 198.2 169.1 212.2 217.6 C 226.1 266.2 233.1 300.9 247.1 345.4 C 261.0 390.0 282.0 440.3 282.0 440.3" stroke="black" stroke-width="1"  stroke-linejoin="round" stroke-linecap="round"  stroke-opacity="0.1" transform="translate(-1,-1)"></path><path fill="none" d="M 2.7 22.8 C 2.7 22.8 23.7 289.7 37.6 319.4 C 51.6 349.1 58.6 349.1 72.6 349.1 C 86.5 349.1 93.5 334.8 107.5 303.4 C 121.4 272.0 128.4 232.2 142.4 192.1 C 156.3 151.9 163.3 102.6 177.3 102.6 C 191.2 102.6 198.2 169.1 212.2 217.6 C 226.1 266.2 233.1 300.9 247.1 345.4 C 261.0 390.0 282.0 440.3 282.0 440.3" stroke="#f45b5b" stroke-width="2"  stroke-linejoin="round" stroke-linecap="round"></path><path fill="none" d="M -7.2 22.8 L 2.7 22.8 C 2.7 22.8 23.7 289.7 37.6 319.4 C 51.6 349.1 58.6 349.1 72.6 349.1 C 86.5 349.1 93.5 334.8 107.5 303.4 C 121.4 272.0 128.4 232.2 142.4 192.1 C 156.3 151.9 163.3 102.6 177.3 102.6 C 191.2 102.6 198.2 169.1 212.2 217.6 C 226.1 266.2 233.1 300.9 247.1 345.4 C 261.0 390.0 282.0 440.3 282.0 440.3 L 292.0 440.3" stroke-linejoin="round" visibility="visible" stroke="rgb(192,192,192)" stroke-opacity="0.0" stroke-width="22"  class=" highcharts-tracker" style=""></path></g><g class="highcharts-markers highcharts-tracker" visibility="visible"  transform="translate(574,349) rotate(90) scale(-1,1) scale(1 1)" clip-path="url(#highcharts-2)" style="" width="502" height="296"><path fill="#f45b5b" d="M 282 436.3 C 287.3 436.3 287.3 444.3 282 444.3 C 276.6 444.3 276.6 436.3 282 436.3 Z"></path><path fill="#f45b5b" d="M 247 341.4 C 252.3 341.4 252.3 349.4 247 349.4 C 241.6 349.4 241.6 341.4 247 341.4 Z"></path><path fill="#f45b5b" d="M 212 213.6 C 217.3 213.6 217.3 221.6 212 221.6 C 206.6 221.6 206.6 213.6 212 213.6 Z"></path><path fill="#f45b5b" d="M 177 98.6 C 182.3 98.6 182.3 106.6 177 106.6 C 171.6 106.6 171.6 98.6 177 98.6 Z"></path><path fill="#f45b5b" d="M 142 188.1 C 147.3 188.1 147.3 196.1 142 196.1 C 136.6 196.1 136.6 188.1 142 188.1 Z"></path><path fill="#f45b5b" d="M 107 299.4 C 112.3 299.4 112.3 307.4 107 307.4 C 101.6 307.4 101.6 299.4 107 299.4 Z"></path><path fill="#f45b5b" d="M 72 345.1 C 77.3 345.1 77.3 353.1 72 353.1 C 66.6 353.1 66.6 345.1 72 345.1 Z"></path><path fill="#f45b5b" d="M 37 315.4 C 42.3 315.4 42.3 323.4 37 323.4 C 31.6 323.4 31.6 315.4 37 315.4 Z"></path><path fill="#f45b5b" d="M 2 18.8 C 7.3 18.8 7.3 26.8 2 26.8 C -3.3 26.8 -3.3 18.8 2 18.8 Z"></path></g></g><text x="292" text-anchor="middle" class="highcharts-title"  style="color:black;font-size:16px;font-weight:bold;fill:black;width:520px;" y="22"><tspan>Atmosphere Temperature by Altitude</tspan></text><text x="292" text-anchor="middle" class="highcharts-subtitle"  style="color:black;fill:black;width:520px;" y="40"><tspan>According to the Standard Atmosphere Model</tspan></text><g class="highcharts-axis-labels highcharts-xaxis-labels" ><text x="57" style="color:#6e6e70;cursor:default;font-size:11px;fill:#6e6e70;width:183px;text-overflow:clip;" text-anchor="end" transform="translate(0,0)" y="352" opacity="1">0km</text><text x="57" style="color:#6e6e70;cursor:default;font-size:11px;fill:#6e6e70;width:183px;text-overflow:clip;" text-anchor="end" transform="translate(0,0)" y="264" opacity="1">25km</text><text x="57" style="color:#6e6e70;cursor:default;font-size:11px;fill:#6e6e70;width:183px;text-overflow:clip;" text-anchor="end" transform="translate(0,0)" y="177" opacity="1">50km</text><text x="57" style="color:#6e6e70;cursor:default;font-size:11px;fill:#6e6e70;width:183px;text-overflow:clip;" text-anchor="end" transform="translate(0,0)" y="90" opacity="1">75km</text></g><g class="highcharts-axis-labels highcharts-yaxis-labels" ><text x="72" style="color:#6e6e70;cursor:default;font-size:11px;fill:#6e6e70;" text-anchor="middle" transform="translate(0,0)" y="368" opacity="1">-90°</text><text x="117.6" style="color:#6e6e70;cursor:default;font-size:11px;fill:#6e6e70;" text-anchor="middle" transform="translate(0,0)" y="368" opacity="1">-80°</text><text x="163.2" style="color:#6e6e70;cursor:default;font-size:11px;fill:#6e6e70;" text-anchor="middle" transform="translate(0,0)" y="368" opacity="1">-70°</text><text x="208.9" style="color:#6e6e70;cursor:default;font-size:11px;fill:#6e6e70;" text-anchor="middle" transform="translate(0,0)" y="368" opacity="1">-60°</text><text x="254.5" style="color:#6e6e70;cursor:default;font-size:11px;fill:#6e6e70;" text-anchor="middle" transform="translate(0,0)" y="368" opacity="1">-50°</text><text x="300.1" style="color:#6e6e70;cursor:default;font-size:11px;fill:#6e6e70;" text-anchor="middle" transform="translate(0,0)" y="368" opacity="1">-40°</text><text x="345.8" style="color:#6e6e70;cursor:default;font-size:11px;fill:#6e6e70;" text-anchor="middle" transform="translate(0,0)" y="368" opacity="1">-30°</text><text x="391.4" style="color:#6e6e70;cursor:default;font-size:11px;fill:#6e6e70;" text-anchor="middle" transform="translate(0,0)" y="368" opacity="1">-20°</text><text x="437.0" style="color:#6e6e70;cursor:default;font-size:11px;fill:#6e6e70;" text-anchor="middle" transform="translate(0,0)" y="368" opacity="1">-10°</text><text x="482.7" style="color:#6e6e70;cursor:default;font-size:11px;fill:#6e6e70;" text-anchor="middle" transform="translate(0,0)" y="368" opacity="1">0°</text><text x="528.3" style="color:#6e6e70;cursor:default;font-size:11px;fill:#6e6e70;" text-anchor="middle" transform="translate(0,0)" y="368" opacity="1">10°</text><text x="566.3" style="color:#6e6e70;cursor:default;font-size:11px;fill:#6e6e70;" text-anchor="middle" transform="translate(0,0)" y="368" opacity="1">20°</text></g><g class="highcharts-tooltip"  style="cursor:default;padding:0;white-space:nowrap;" transform="translate(0,-9999)"><path fill="none" d="M 3 0 L 13 0 C 16 0 16 0 16 3 L 16 13 C 16 16 16 16 13 16 L 3 16 C 0 16 0 16 0 13 L 0 3 C 0 0 0 0 3 0"  stroke="black" stroke-opacity="0.0" stroke-width="5" transform="translate(1, 1)"></path><path fill="none" d="M 3 0 L 13 0 C 16 0 16 0 16 3 L 16 13 C 16 16 16 16 13 16 L 3 16 C 0 16 0 16 0 13 L 0 3 C 0 0 0 0 3 0"  stroke="black" stroke-opacity="0.0" stroke-width="3" transform="translate(1, 1)"></path><path fill="none" d="M 3 0 L 13 0 C 16 0 16 0 16 3 L 16 13 C 16 16 16 16 13 16 L 3 16 C 0 16 0 16 0 13 L 0 3 C 0 0 0 0 3 0"  stroke="black" stroke-opacity="0.1" stroke-width="1" transform="translate(1, 1)"></path><path fill="rgb(249, 249, 249)" fill-opacity=" .85" d="M 3 0 L 13 0 C 16 0 16 0 16 3 L 16 13 C 16 16 16 16 13 16 L 3 16 C 0 16 0 16 0 13 L 0 3 C 0 0 0 0 3 0"></path><text x="8"  style="font-size:12px;color:#333333;fill:#333333;" y="20"></text></g></svg>