<svg version="1.1" style="font-family: signika, serif; font-size: 12px; background-image: url(http://www.highcharts.com/samples/graphics/sand.png); background-position: initial initial; background-repeat: initial initial;" xmlns="http://www.w3.org/2000/svg" width="584" height="400" viewBox="0 0 584 400" xmlns:xlink="http://www.w3.org/1999/xlink"><style type="text/css"><![CDATA[@import url(http://fonts.googleapis.com/css?family=Signika:700);]]></style><desc>Created with Highcharts 4.1.7</desc><defs><clipPath id="highcharts-1"><rect x="0" y="0" width="564" height="344"></rect></clipPath><clipPath id="highcharts-2"><rect x="-99" y="-41" width="663" height="400"></rect></clipPath><clipPath id="highcharts-3"><rect x="0" y="0" width="564" height="344"></rect></clipPath></defs><g class="highcharts-grid" ></g><g class="highcharts-grid" ></g><g class="highcharts-axis" ></g><g class="highcharts-axis" ></g><g class="highcharts-series-group" ><g class="highcharts-series highcharts-tracker" visibility="visible"  transform="translate(10,41) scale(1 1)" clip-path="url(#highcharts-3)" style=""><rect x="235" y="0" width="329" height="82" stroke="black" stroke-width="5" fill="none" rx="0" ry="0"   stroke-opacity="0.0" transform="translate(1, 1)" r="0"></rect><rect x="235" y="0" width="329" height="82" stroke="black" stroke-width="3" fill="none" rx="0" ry="0"   stroke-opacity="0.0" transform="translate(1, 1)" r="0"></rect><rect x="235" y="0" width="329" height="82" stroke="black" stroke-width="1" fill="none" rx="0" ry="0"   stroke-opacity="0.1" transform="translate(1, 1)" r="0"></rect><rect x="235" y="0" width="329" height="82" stroke="#E0E0E0" stroke-width="1" fill="#EC2500" rx="0" ry="0" ></rect><rect x="235" y="147" width="329" height="50" stroke="black" stroke-width="5" fill="none" rx="0" ry="0"   stroke-opacity="0.0" transform="translate(1, 1)" r="0"></rect><rect x="235" y="147" width="329" height="50" stroke="black" stroke-width="3" fill="none" rx="0" ry="0"   stroke-opacity="0.0" transform="translate(1, 1)" r="0"></rect><rect x="235" y="147" width="329" height="50" stroke="black" stroke-width="1" fill="none" rx="0" ry="0"   stroke-opacity="0.1" transform="translate(1, 1)" r="0"></rect><rect x="235" y="147" width="329" height="50" stroke="#E0E0E0" stroke-width="1" fill="#EC2500" rx="0" ry="0" ></rect><rect x="235" y="82" width="329" height="65" stroke="black" stroke-width="5" fill="none" rx="0" ry="0"   stroke-opacity="0.0" transform="translate(1, 1)" r="0"></rect><rect x="235" y="82" width="329" height="65" stroke="black" stroke-width="3" fill="none" rx="0" ry="0"   stroke-opacity="0.0" transform="translate(1, 1)" r="0"></rect><rect x="235" y="82" width="329" height="65" stroke="black" stroke-width="1" fill="none" rx="0" ry="0"   stroke-opacity="0.1" transform="translate(1, 1)" r="0"></rect><rect x="235" y="82" width="329" height="65" stroke="#E0E0E0" stroke-width="1" fill="#EC2500" rx="0" ry="0" ></rect><rect x="0" y="229" width="235" height="92" stroke="black" stroke-width="5" fill="none" rx="0" ry="0"   stroke-opacity="0.0" transform="translate(1, 1)" r="0"></rect><rect x="0" y="229" width="235" height="92" stroke="black" stroke-width="3" fill="none" rx="0" ry="0"   stroke-opacity="0.0" transform="translate(1, 1)" r="0"></rect><rect x="0" y="229" width="235" height="92" stroke="black" stroke-width="1" fill="none" rx="0" ry="0"   stroke-opacity="0.1" transform="translate(1, 1)" r="0"></rect><rect x="0" y="229" width="235" height="92" stroke="#E0E0E0" stroke-width="1" fill="#ECE100" rx="0" ry="0" ></rect><rect x="0" y="0" width="235" height="229" stroke="black" stroke-width="5" fill="none" rx="0" ry="0"   stroke-opacity="0.0" transform="translate(1, 1)" r="0"></rect><rect x="0" y="0" width="235" height="229" stroke="black" stroke-width="3" fill="none" rx="0" ry="0"   stroke-opacity="0.0" transform="translate(1, 1)" r="0"></rect><rect x="0" y="0" width="235" height="229" stroke="black" stroke-width="1" fill="none" rx="0" ry="0"   stroke-opacity="0.1" transform="translate(1, 1)" r="0"></rect><rect x="0" y="0" width="235" height="229" stroke="#E0E0E0" stroke-width="1" fill="#ECE100" rx="0" ry="0" ></rect><rect x="0" y="321" width="235" height="23" stroke="black" stroke-width="5" fill="none" rx="0" ry="0"   stroke-opacity="0.0" transform="translate(1, 1)" r="0"></rect><rect x="0" y="321" width="235" height="23" stroke="black" stroke-width="3" fill="none" rx="0" ry="0"   stroke-opacity="0.0" transform="translate(1, 1)" r="0"></rect><rect x="0" y="321" width="235" height="23" stroke="black" stroke-width="1" fill="none" rx="0" ry="0"   stroke-opacity="0.1" transform="translate(1, 1)" r="0"></rect><rect x="0" y="321" width="235" height="23" stroke="#E0E0E0" stroke-width="1" fill="#ECE100" rx="0" ry="0" ></rect><rect x="235" y="323" width="256" height="21" stroke="black" stroke-width="5" fill="none" rx="0" ry="0"   stroke-opacity="0.0" transform="translate(1, 1)" r="0"></rect><rect x="235" y="323" width="256" height="21" stroke="black" stroke-width="3" fill="none" rx="0" ry="0"   stroke-opacity="0.0" transform="translate(1, 1)" r="0"></rect><rect x="235" y="323" width="256" height="21" stroke="black" stroke-width="1" fill="none" rx="0" ry="0"   stroke-opacity="0.1" transform="translate(1, 1)" r="0"></rect><rect x="235" y="323" width="256" height="21" stroke="#E0E0E0" stroke-width="1" fill="#EC9800" rx="0" ry="0" ></rect><rect x="235" y="197" width="256" height="63" stroke="black" stroke-width="5" fill="none" rx="0" ry="0"   stroke-opacity="0.0" transform="translate(1, 1)" r="0"></rect><rect x="235" y="197" width="256" height="63" stroke="black" stroke-width="3" fill="none" rx="0" ry="0"   stroke-opacity="0.0" transform="translate(1, 1)" r="0"></rect><rect x="235" y="197" width="256" height="63" stroke="black" stroke-width="1" fill="none" rx="0" ry="0"   stroke-opacity="0.1" transform="translate(1, 1)" r="0"></rect><rect x="235" y="197" width="256" height="63" stroke="#E0E0E0" stroke-width="1" fill="#EC9800" rx="0" ry="0" ></rect><rect x="235" y="260" width="256" height="63" stroke="black" stroke-width="5" fill="none" rx="0" ry="0"   stroke-opacity="0.0" transform="translate(1, 1)" r="0"></rect><rect x="235" y="260" width="256" height="63" stroke="black" stroke-width="3" fill="none" rx="0" ry="0"   stroke-opacity="0.0" transform="translate(1, 1)" r="0"></rect><rect x="235" y="260" width="256" height="63" stroke="black" stroke-width="1" fill="none" rx="0" ry="0"   stroke-opacity="0.1" transform="translate(1, 1)" r="0"></rect><rect x="235" y="260" width="256" height="63" stroke="#E0E0E0" stroke-width="1" fill="#EC9800" rx="0" ry="0" ></rect><g  style="" transform="translate(382,31)"><text x="5"  style="font-size: 11px; font-weight: bold; color: rgb(255, 255, 255); width: 329px; fill: #ffffff; text-shadow: rgb(0, 0, 0) 0px 0px 6px, rgb(0, 0, 0) 0px 0px 3px; text-rendering: geometricprecision;" y="16"><tspan>Anne</tspan></text></g><g  style="" transform="translate(384,162)"><text x="5"  style="font-size: 11px; font-weight: bold; color: rgb(255, 255, 255); width: 329px; fill: #ffffff; text-shadow: rgb(0, 0, 0) 0px 0px 6px, rgb(0, 0, 0) 0px 0px 3px; text-rendering: geometricprecision;" y="16"><tspan>Rick</tspan></text></g><g  style="" transform="translate(382,104)"><text x="5"  style="font-size: 11px; font-weight: bold; color: rgb(255, 255, 255); width: 329px; fill: #ffffff; text-shadow: rgb(0, 0, 0) 0px 0px 6px, rgb(0, 0, 0) 0px 0px 3px; text-rendering: geometricprecision;" y="16"><tspan>Peter</tspan></text></g><g  style="" transform="translate(100,265)"><text x="5"  style="font-size: 11px; font-weight: bold; color: rgb(0, 0, 0); width: 235px; fill: #000000; text-shadow: rgb(255, 255, 255) 0px 0px 6px, rgb(255, 255, 255) 0px 0px 3px; text-rendering: geometricprecision;" y="16"><tspan>Anne</tspan></text></g><g  style="" transform="translate(102,104)"><text x="5"  style="font-size: 11px; font-weight: bold; color: rgb(0, 0, 0); width: 235px; fill: #000000; text-shadow: rgb(255, 255, 255) 0px 0px 6px, rgb(255, 255, 255) 0px 0px 3px; text-rendering: geometricprecision;" y="16"><tspan>Rick</tspan></text></g><g  style="" transform="translate(100,322)"><text x="5"  style="font-size: 11px; font-weight: bold; color: rgb(0, 0, 0); width: 235px; fill: #000000; text-shadow: rgb(255, 255, 255) 0px 0px 6px, rgb(255, 255, 255) 0px 0px 3px; text-rendering: geometricprecision;" y="16"><tspan>Peter</tspan></text></g><g  style="" transform="translate(345,323)"><text x="5"  style="font-size: 11px; font-weight: bold; color: rgb(0, 0, 0); width: 256px; fill: #000000; text-shadow: rgb(255, 255, 255) 0px 0px 6px, rgb(255, 255, 255) 0px 0px 3px; text-rendering: geometricprecision;" y="16"><tspan>Anne</tspan></text></g><g  style="" transform="translate(347,218)"><text x="5"  style="font-size: 11px; font-weight: bold; color: rgb(0, 0, 0); width: 256px; fill: #000000; text-shadow: rgb(255, 255, 255) 0px 0px 6px, rgb(255, 255, 255) 0px 0px 3px; text-rendering: geometricprecision;" y="16"><tspan>Rick</tspan></text></g><g  style="" transform="translate(346,281)"><text x="5"  style="font-size: 11px; font-weight: bold; color: rgb(0, 0, 0); width: 256px; fill: #000000; text-shadow: rgb(255, 255, 255) 0px 0px 6px, rgb(255, 255, 255) 0px 0px 3px; text-rendering: geometricprecision;" y="16"><tspan>Peter</tspan></text></g><rect x="235" y="0" width="329" height="197" stroke="black" stroke-width="5" fill="none" rx="0" ry="0"   stroke-opacity="0.0" transform="translate(1, 1)" r="0"></rect><rect x="235" y="0" width="329" height="197" stroke="black" stroke-width="3" fill="none" rx="0" ry="0"   stroke-opacity="0.0" transform="translate(1, 1)" r="0"></rect><rect x="235" y="0" width="329" height="197" stroke="black" stroke-width="1" fill="none" rx="0" ry="0"   stroke-opacity="0.1" transform="translate(1, 1)" r="0"></rect><rect x="235" y="0" width="329" height="197" stroke="#E0E0E0" stroke-width="1" fill="none" rx="0" ry="0" ></rect><rect x="0" y="0" width="235" height="344" stroke="black" stroke-width="5" fill="none" rx="0" ry="0"   stroke-opacity="0.0" transform="translate(1, 1)" r="0"></rect><rect x="0" y="0" width="235" height="344" stroke="black" stroke-width="3" fill="none" rx="0" ry="0"   stroke-opacity="0.0" transform="translate(1, 1)" r="0"></rect><rect x="0" y="0" width="235" height="344" stroke="black" stroke-width="1" fill="none" rx="0" ry="0"   stroke-opacity="0.1" transform="translate(1, 1)" r="0"></rect><rect x="0" y="0" width="235" height="344" stroke="#E0E0E0" stroke-width="1" fill="none" rx="0" ry="0" ></rect><rect x="235" y="197" width="256" height="147" stroke="black" stroke-width="5" fill="none" rx="0" ry="0"   stroke-opacity="0.0" transform="translate(1, 1)" r="0"></rect><rect x="235" y="197" width="256" height="147" stroke="black" stroke-width="3" fill="none" rx="0" ry="0"   stroke-opacity="0.0" transform="translate(1, 1)" r="0"></rect><rect x="235" y="197" width="256" height="147" stroke="black" stroke-width="1" fill="none" rx="0" ry="0"   stroke-opacity="0.1" transform="translate(1, 1)" r="0"></rect><rect x="235" y="197" width="256" height="147" stroke="#E0E0E0" stroke-width="1" fill="none" rx="0" ry="0" ></rect><rect x="491" y="197" width="73" height="147" stroke="black" stroke-width="5" fill="none" rx="0" ry="0"   stroke-opacity="0.0" transform="translate(1, 1)" r="0"></rect><rect x="491" y="197" width="73" height="147" stroke="black" stroke-width="3" fill="none" rx="0" ry="0"   stroke-opacity="0.0" transform="translate(1, 1)" r="0"></rect><rect x="491" y="197" width="73" height="147" stroke="black" stroke-width="1" fill="none" rx="0" ry="0"   stroke-opacity="0.1" transform="translate(1, 1)" r="0"></rect><rect x="491" y="197" width="73" height="147" stroke="#E0E0E0" stroke-width="1" fill="#9EDE00" rx="0" ry="0" ></rect><g  style="" transform="translate(235,0)"><text x="5"  style="font-size: 15px; font-weight: bold; color: rgb(255, 255, 255); width: 329px; fill: #ffffff; text-shadow: rgb(0, 0, 0) 0px 0px 6px, rgb(0, 0, 0) 0px 0px 3px; text-rendering: geometricprecision;" y="19"><tspan>Apples</tspan></text></g><g  style="" transform="translate(0,0)"><text x="5"  style="font-size: 15px; font-weight: bold; color: rgb(0, 0, 0); width: 235px; fill: #000000; text-shadow: rgb(255, 255, 255) 0px 0px 6px, rgb(255, 255, 255) 0px 0px 3px; text-rendering: geometricprecision;" y="19"><tspan>Bananas</tspan></text></g><g  style="" transform="translate(235,197)"><text x="5"  style="font-size: 15px; font-weight: bold; color: rgb(0, 0, 0); width: 256px; fill: #000000; text-shadow: rgb(255, 255, 255) 0px 0px 6px, rgb(255, 255, 255) 0px 0px 3px; text-rendering: geometricprecision;" y="19"><tspan>Oranges</tspan></text></g><g  style="" transform="translate(491,197)"><text x="5"  style="font-size: 15px; font-weight: bold; color: rgb(255, 255, 255); width: 73px; fill: #ffffff; text-shadow: rgb(0, 0, 0) 0px 0px 6px, rgb(0, 0, 0) 0px 0px 3px; text-rendering: geometricprecision;" y="19"><tspan>Susanne</tspan></text></g></g><g class="highcharts-markers" visibility="visible"  transform="translate(10,41) scale(1 1)" clip-path="url(#highcharts-2)"></g></g><text x="292" text-anchor="middle" class="highcharts-title"  style="color:black;font-size:16px;font-weight:bold;fill:black;width:520px;" y="22"><tspan>Fruit consumption</tspan></text><g class="highcharts-legend" ><g ><g></g></g></g><g class="highcharts-axis-labels highcharts-xaxis-labels" ></g><g class="highcharts-axis-labels highcharts-yaxis-labels" ></g><g class="highcharts-tooltip"  style="cursor:default;padding:0;white-space:nowrap;" transform="translate(0,-9999)"><path fill="none" d="M 3 0 L 13 0 C 16 0 16 0 16 3 L 16 13 C 16 16 16 16 13 16 L 3 16 C 0 16 0 16 0 13 L 0 3 C 0 0 0 0 3 0"  stroke="black" stroke-opacity="0.0" stroke-width="5" transform="translate(1, 1)"></path><path fill="none" d="M 3 0 L 13 0 C 16 0 16 0 16 3 L 16 13 C 16 16 16 16 13 16 L 3 16 C 0 16 0 16 0 13 L 0 3 C 0 0 0 0 3 0"  stroke="black" stroke-opacity="0.0" stroke-width="3" transform="translate(1, 1)"></path><path fill="none" d="M 3 0 L 13 0 C 16 0 16 0 16 3 L 16 13 C 16 16 16 16 13 16 L 3 16 C 0 16 0 16 0 13 L 0 3 C 0 0 0 0 3 0"  stroke="black" stroke-opacity="0.1" stroke-width="1" transform="translate(1, 1)"></path><path fill="rgb(249, 249, 249)" fill-opacity=" .85" d="M 3 0 L 13 0 C 16 0 16 0 16 3 L 16 13 C 16 16 16 16 13 16 L 3 16 C 0 16 0 16 0 13 L 0 3 C 0 0 0 0 3 0"></path><text x="8"  style="font-size:12px;color:#333333;fill:#333333;" y="20"></text></g></svg>