<svg version="1.1" style="font-family:&quot;lucida grande&quot;, &quot;lucida sans unicode&quot;, arial, helvetica, sans-serif;font-size:12px;" xmlns="http://www.w3.org/2000/svg" width="584" height="400" viewBox="0 0 584 400"><desc>Created with Highcharts 4.1.7</desc><defs><clipPath id="highcharts-1"><rect x="0" y="0" width="564" height="339"></rect></clipPath><clipPath id="highcharts-2"><rect x="-99" y="-46" width="663" height="400"></rect></clipPath><clipPath id="highcharts-3"><rect x="0" y="0" width="564" height="339"></rect></clipPath></defs><rect x="0" y="0" width="584" height="400" strokeWidth="0" fill="#FFFFFF" class=" highcharts-background" stroke="transparent"></rect><g class="highcharts-grid" ></g><g class="highcharts-grid" ></g><g class="highcharts-axis" ></g><g class="highcharts-axis" ></g><g class="highcharts-series-group" ><g class="highcharts-series highcharts-tracker" visibility="visible"  transform="translate(10,46) scale(1 1)" clip-path="url(#highcharts-3)" style=""><rect x="235" y="0" width="329" height="81" stroke="#E0E0E0" stroke-width="1" fill="#EC2500" rx="0" ry="0" ></rect><rect x="235" y="145" width="329" height="49" stroke="#E0E0E0" stroke-width="1" fill="#EC2500" rx="0" ry="0" ></rect><rect x="235" y="81" width="329" height="64" stroke="#E0E0E0" stroke-width="1" fill="#EC2500" rx="0" ry="0" ></rect><rect x="0" y="226" width="235" height="90" stroke="#E0E0E0" stroke-width="1" fill="#ECE100" rx="0" ry="0" ></rect><rect x="0" y="0" width="235" height="226" stroke="#E0E0E0" stroke-width="1" fill="#ECE100" rx="0" ry="0" ></rect><rect x="0" y="316" width="235" height="23" stroke="#E0E0E0" stroke-width="1" fill="#ECE100" rx="0" ry="0" ></rect><rect x="235" y="318" width="256" height="21" stroke="#E0E0E0" stroke-width="1" fill="#EC9800" rx="0" ry="0" ></rect><rect x="235" y="194" width="256" height="62" stroke="#E0E0E0" stroke-width="1" fill="#EC9800" rx="0" ry="0" ></rect><rect x="235" y="256" width="256" height="62" stroke="#E0E0E0" stroke-width="1" fill="#EC9800" rx="0" ry="0" ></rect><g  style="" transform="translate(380,29)"><text x="5"  style="font-size: 11px; font-weight: bold; color: rgb(255, 255, 255); width: 329px; fill: #ffffff; text-shadow: rgb(0, 0, 0) 0px 0px 6px, rgb(0, 0, 0) 0px 0px 3px; text-rendering: geometricprecision;" y="16"><tspan>Anne</tspan></text></g><g  style="" transform="translate(383,158)"><text x="5"  style="font-size: 11px; font-weight: bold; color: rgb(255, 255, 255); width: 329px; fill: #ffffff; text-shadow: rgb(0, 0, 0) 0px 0px 6px, rgb(0, 0, 0) 0px 0px 3px; text-rendering: geometricprecision;" y="16"><tspan>Rick</tspan></text></g><g  style="" transform="translate(380,102)"><text x="5"  style="font-size: 11px; font-weight: bold; color: rgb(255, 255, 255); width: 329px; fill: #ffffff; text-shadow: rgb(0, 0, 0) 0px 0px 6px, rgb(0, 0, 0) 0px 0px 3px; text-rendering: geometricprecision;" y="16"><tspan>Peter</tspan></text></g><g  style="" transform="translate(98,260)"><text x="5"  style="font-size: 11px; font-weight: bold; color: rgb(0, 0, 0); width: 235px; fill: #000000; text-shadow: rgb(255, 255, 255) 0px 0px 6px, rgb(255, 255, 255) 0px 0px 3px; text-rendering: geometricprecision;" y="16"><tspan>Anne</tspan></text></g><g  style="" transform="translate(101,102)"><text x="5"  style="font-size: 11px; font-weight: bold; color: rgb(0, 0, 0); width: 235px; fill: #000000; text-shadow: rgb(255, 255, 255) 0px 0px 6px, rgb(255, 255, 255) 0px 0px 3px; text-rendering: geometricprecision;" y="16"><tspan>Rick</tspan></text></g><g  style="" transform="translate(98,316)"><text x="5"  style="font-size: 11px; font-weight: bold; color: rgb(0, 0, 0); width: 235px; fill: #000000; text-shadow: rgb(255, 255, 255) 0px 0px 6px, rgb(255, 255, 255) 0px 0px 3px; text-rendering: geometricprecision;" y="16"><tspan>Peter</tspan></text></g><g  style="" transform="translate(344,317)"><text x="5"  style="font-size: 11px; font-weight: bold; color: rgb(0, 0, 0); width: 256px; fill: #000000; text-shadow: rgb(255, 255, 255) 0px 0px 6px, rgb(255, 255, 255) 0px 0px 3px; text-rendering: geometricprecision;" y="16"><tspan>Anne</tspan></text></g><g  style="" transform="translate(346,214)"><text x="5"  style="font-size: 11px; font-weight: bold; color: rgb(0, 0, 0); width: 256px; fill: #000000; text-shadow: rgb(255, 255, 255) 0px 0px 6px, rgb(255, 255, 255) 0px 0px 3px; text-rendering: geometricprecision;" y="16"><tspan>Rick</tspan></text></g><g  style="" transform="translate(343,276)"><text x="5"  style="font-size: 11px; font-weight: bold; color: rgb(0, 0, 0); width: 256px; fill: #000000; text-shadow: rgb(255, 255, 255) 0px 0px 6px, rgb(255, 255, 255) 0px 0px 3px; text-rendering: geometricprecision;" y="16"><tspan>Peter</tspan></text></g><rect x="235" y="0" width="329" height="194" stroke="#E0E0E0" stroke-width="1" fill="none" rx="0" ry="0" ></rect><rect x="0" y="0" width="235" height="339" stroke="#E0E0E0" stroke-width="1" fill="none" rx="0" ry="0" ></rect><rect x="235" y="194" width="256" height="145" stroke="#E0E0E0" stroke-width="1" fill="none" rx="0" ry="0" ></rect><rect x="491" y="194" width="73" height="145" stroke="#E0E0E0" stroke-width="1" fill="#9EDE00" rx="0" ry="0" ></rect><g  style="" transform="translate(235,0)"><text x="5"  style="font-size: 15px; font-weight: bold; color: rgb(255, 255, 255); width: 329px; fill: #ffffff; text-shadow: rgb(0, 0, 0) 0px 0px 6px, rgb(0, 0, 0) 0px 0px 3px; text-rendering: geometricprecision;" y="19"><tspan>Apples</tspan></text></g><g  style="" transform="translate(0,0)"><text x="5"  style="font-size: 15px; font-weight: bold; color: rgb(0, 0, 0); width: 235px; fill: #000000; text-shadow: rgb(255, 255, 255) 0px 0px 6px, rgb(255, 255, 255) 0px 0px 3px; text-rendering: geometricprecision;" y="19"><tspan>Bananas</tspan></text></g><g  style="" transform="translate(235,194)"><text x="5"  style="font-size: 15px; font-weight: bold; color: rgb(0, 0, 0); width: 256px; fill: #000000; text-shadow: rgb(255, 255, 255) 0px 0px 6px, rgb(255, 255, 255) 0px 0px 3px; text-rendering: geometricprecision;" y="19"><tspan>Oranges</tspan></text></g><g  style="" transform="translate(491,194)"><text x="5"  style="font-size: 15px; font-weight: bold; color: rgb(255, 255, 255); width: 73px; fill: #ffffff; text-shadow: rgb(0, 0, 0) 0px 0px 6px, rgb(0, 0, 0) 0px 0px 3px; text-rendering: geometricprecision;" y="19"><tspan>Susanne</tspan></text></g></g><g class="highcharts-markers" visibility="visible"  transform="translate(10,46) scale(1 1)" clip-path="url(#highcharts-2)"></g></g><text x="292" text-anchor="middle" class="highcharts-title"  style="color:#333333;font-size:18px;fill:#333333;width:520px;" y="24"><tspan>Fruit consumption</tspan></text><g class="highcharts-legend" ><g ><g></g></g></g><g class="highcharts-axis-labels highcharts-xaxis-labels" ></g><g class="highcharts-axis-labels highcharts-yaxis-labels" ></g><g class="highcharts-tooltip"  style="cursor:default;padding:0;white-space:nowrap;" transform="translate(0,-9999)"><path fill="none" d="M 3.5 0.5 L 13.5 0.5 C 16.5 0.5 16.5 0.5 16.5 3.5 L 16.5 13.5 C 16.5 16.5 16.5 16.5 13.5 16.5 L 3.5 16.5 C 0.5 16.5 0.5 16.5 0.5 13.5 L 0.5 3.5 C 0.5 0.5 0.5 0.5 3.5 0.5"  stroke="black" stroke-opacity="0.0" stroke-width="5" transform="translate(1, 1)"></path><path fill="none" d="M 3.5 0.5 L 13.5 0.5 C 16.5 0.5 16.5 0.5 16.5 3.5 L 16.5 13.5 C 16.5 16.5 16.5 16.5 13.5 16.5 L 3.5 16.5 C 0.5 16.5 0.5 16.5 0.5 13.5 L 0.5 3.5 C 0.5 0.5 0.5 0.5 3.5 0.5"  stroke="black" stroke-opacity="0.0" stroke-width="3" transform="translate(1, 1)"></path><path fill="none" d="M 3.5 0.5 L 13.5 0.5 C 16.5 0.5 16.5 0.5 16.5 3.5 L 16.5 13.5 C 16.5 16.5 16.5 16.5 13.5 16.5 L 3.5 16.5 C 0.5 16.5 0.5 16.5 0.5 13.5 L 0.5 3.5 C 0.5 0.5 0.5 0.5 3.5 0.5"  stroke="black" stroke-opacity="0.1" stroke-width="1" transform="translate(1, 1)"></path><path fill="rgb(249, 249, 249)" fill-opacity=" .85" d="M 3.5 0.5 L 13.5 0.5 C 16.5 0.5 16.5 0.5 16.5 3.5 L 16.5 13.5 C 16.5 16.5 16.5 16.5 13.5 16.5 L 3.5 16.5 C 0.5 16.5 0.5 16.5 0.5 13.5 L 0.5 3.5 C 0.5 0.5 0.5 0.5 3.5 0.5"></path><text x="8"  style="font-size:12px;color:#333333;fill:#333333;" y="20"></text></g></svg>