<svg version="1.1" style="font-family: signika, serif; font-size: 12px; background-image: url(http://www.highcharts.com/samples/graphics/sand.png); background-position: initial initial; background-repeat: initial initial;" xmlns="http://www.w3.org/2000/svg" width="584" height="400" viewBox="0 0 584 400" xmlns:xlink="http://www.w3.org/1999/xlink"><style type="text/css"><![CDATA[@import url(http://fonts.googleapis.com/css?family=Signika:700);]]></style><desc>Created with Highcharts 4.1.7</desc><defs><clipPath id="highcharts-1"><rect x="0" y="0" width="497" height="275"></rect></clipPath></defs><g class="highcharts-grid" ></g><g class="highcharts-grid" ><path fill="none" d="M 77 316.5 L 574 316.5" stroke="#D8D8D8" stroke-width="1"  opacity="1"></path><path fill="none" d="M 77 261.5 L 574 261.5" stroke="#D8D8D8" stroke-width="1"  opacity="1"></path><path fill="none" d="M 77 206.5 L 574 206.5" stroke="#D8D8D8" stroke-width="1"  opacity="1"></path><path fill="none" d="M 77 151.5 L 574 151.5" stroke="#D8D8D8" stroke-width="1"  opacity="1"></path><path fill="none" d="M 77 96.5 L 574 96.5" stroke="#D8D8D8" stroke-width="1"  opacity="1"></path><path fill="none" d="M 77 40.5 L 574 40.5" stroke="#D8D8D8" stroke-width="1"  opacity="1"></path></g><g class="highcharts-axis" ><path fill="none" d="M 147.5 316 L 147.5 326" stroke="#C0D0E0" stroke-width="1" opacity="1"></path><path fill="none" d="M 218.5 316 L 218.5 326" stroke="#C0D0E0" stroke-width="1" opacity="1"></path><path fill="none" d="M 289.5 316 L 289.5 326" stroke="#C0D0E0" stroke-width="1" opacity="1"></path><path fill="none" d="M 360.5 316 L 360.5 326" stroke="#C0D0E0" stroke-width="1" opacity="1"></path><path fill="none" d="M 431.5 316 L 431.5 326" stroke="#C0D0E0" stroke-width="1" opacity="1"></path><path fill="none" d="M 502.5 316 L 502.5 326" stroke="#C0D0E0" stroke-width="1" opacity="1"></path><path fill="none" d="M 574.5 316 L 574.5 326" stroke="#C0D0E0" stroke-width="1" opacity="1"></path><path fill="none" d="M 76.5 316 L 76.5 326" stroke="#C0D0E0" stroke-width="1" opacity="1"></path><path fill="none" d="M 77 316.5 L 574 316.5" stroke="#C0D0E0" stroke-width="1"  visibility="visible"></path></g><g class="highcharts-axis" ><text x="21.7"  text-anchor="middle" transform="translate(0,0) rotate(270 21.7 178.5)" class=" highcharts-yaxis-title" style="color:#707070;fill:#707070;" visibility="visible" y="178.5">USD</text></g><g class="highcharts-series-group" ><g class="highcharts-series highcharts-tracker" visibility="visible"  transform="translate(77,41) scale(1 1)" style="" clip-path="url(#highcharts-1)"><rect x="13.5" y="241.5" width="43" height="33" stroke="black" stroke-width="5" fill="none" rx="0" ry="0"  stroke-opacity="0.0" transform="translate(1, 1)"></rect><rect x="13.5" y="241.5" width="43" height="33" stroke="black" stroke-width="3" fill="none" rx="0" ry="0"  stroke-opacity="0.0" transform="translate(1, 1)"></rect><rect x="13.5" y="241.5" width="43" height="33" stroke="black" stroke-width="1" fill="none" rx="0" ry="0"  stroke-opacity="0.1" transform="translate(1, 1)"></rect><rect x="13.5" y="241.5" width="43" height="33" stroke="#333" stroke-width="1" fill="#8d4654" rx="0" ry="0"></rect><rect x="84.5" y="85.5" width="43" height="156" stroke="black" stroke-width="5" fill="none" rx="0" ry="0"  stroke-opacity="0.0" transform="translate(1, 1)"></rect><rect x="84.5" y="85.5" width="43" height="156" stroke="black" stroke-width="3" fill="none" rx="0" ry="0"  stroke-opacity="0.0" transform="translate(1, 1)"></rect><rect x="84.5" y="85.5" width="43" height="156" stroke="black" stroke-width="1" fill="none" rx="0" ry="0"  stroke-opacity="0.1" transform="translate(1, 1)"></rect><rect x="84.5" y="85.5" width="43" height="156" stroke="#333" stroke-width="1" fill="#8d4654" rx="0" ry="0"></rect><rect x="155.5" y="21.5" width="43" height="64" stroke="black" stroke-width="5" fill="none" rx="0" ry="0"  stroke-opacity="0.0" transform="translate(1, 1)"></rect><rect x="155.5" y="21.5" width="43" height="64" stroke="black" stroke-width="3" fill="none" rx="0" ry="0"  stroke-opacity="0.0" transform="translate(1, 1)"></rect><rect x="155.5" y="21.5" width="43" height="64" stroke="black" stroke-width="1" fill="none" rx="0" ry="0"  stroke-opacity="0.1" transform="translate(1, 1)"></rect><rect x="155.5" y="21.5" width="43" height="64" stroke="#333" stroke-width="1" fill="#8d4654" rx="0" ry="0"></rect><rect x="226.5" y="21.5" width="43" height="253" stroke="black" stroke-width="5" fill="none" rx="0" ry="0"  stroke-opacity="0.0" transform="translate(1, 1)"></rect><rect x="226.5" y="21.5" width="43" height="253" stroke="black" stroke-width="3" fill="none" rx="0" ry="0"  stroke-opacity="0.0" transform="translate(1, 1)"></rect><rect x="226.5" y="21.5" width="43" height="253" stroke="black" stroke-width="1" fill="none" rx="0" ry="0"  stroke-opacity="0.1" transform="translate(1, 1)"></rect><rect x="226.5" y="21.5" width="43" height="253" stroke="#333" stroke-width="1" fill="#8085e9" rx="0" ry="0"></rect><rect x="297.5" y="21.5" width="43" height="94" stroke="black" stroke-width="5" fill="none" rx="0" ry="0"  stroke-opacity="0.0" transform="translate(1, 1)"></rect><rect x="297.5" y="21.5" width="43" height="94" stroke="black" stroke-width="3" fill="none" rx="0" ry="0"  stroke-opacity="0.0" transform="translate(1, 1)"></rect><rect x="297.5" y="21.5" width="43" height="94" stroke="black" stroke-width="1" fill="none" rx="0" ry="0"  stroke-opacity="0.1" transform="translate(1, 1)"></rect><rect x="297.5" y="21.5" width="43" height="94" stroke="#333" stroke-width="1" fill="#7798BF" rx="0" ry="0"></rect><rect x="368.5" y="115.5" width="43" height="64" stroke="black" stroke-width="5" fill="none" rx="0" ry="0"  stroke-opacity="0.0" transform="translate(1, 1)"></rect><rect x="368.5" y="115.5" width="43" height="64" stroke="black" stroke-width="3" fill="none" rx="0" ry="0"  stroke-opacity="0.0" transform="translate(1, 1)"></rect><rect x="368.5" y="115.5" width="43" height="64" stroke="black" stroke-width="1" fill="none" rx="0" ry="0"  stroke-opacity="0.1" transform="translate(1, 1)"></rect><rect x="368.5" y="115.5" width="43" height="64" stroke="#333" stroke-width="1" fill="#7798BF" rx="0" ry="0"></rect><rect x="439.5" y="179.5" width="43" height="95" stroke="black" stroke-width="5" fill="none" rx="0" ry="0"  stroke-opacity="0.0" transform="translate(1, 1)"></rect><rect x="439.5" y="179.5" width="43" height="95" stroke="black" stroke-width="3" fill="none" rx="0" ry="0"  stroke-opacity="0.0" transform="translate(1, 1)"></rect><rect x="439.5" y="179.5" width="43" height="95" stroke="black" stroke-width="1" fill="none" rx="0" ry="0"  stroke-opacity="0.1" transform="translate(1, 1)"></rect><rect x="439.5" y="179.5" width="43" height="95" stroke="#333" stroke-width="1" fill="#8085e9" rx="0" ry="0"></rect><path fill="none" d="M 56.5 241.5 L 84.5 241.5 M 127.5 85.5 L 155.5 85.5 M 198.5 21.5 L 226.5 21.5 M 269.5 21.5 L 297.5 21.5 M 340.5 115.5 L 368.5 115.5 M 411.5 179.5 L 439.5 179.5" stroke="black" stroke-width="5"  stroke-dasharray="1,3"  stroke-opacity="0.0" transform="translate(1, 1)"></path><path fill="none" d="M 56.5 241.5 L 84.5 241.5 M 127.5 85.5 L 155.5 85.5 M 198.5 21.5 L 226.5 21.5 M 269.5 21.5 L 297.5 21.5 M 340.5 115.5 L 368.5 115.5 M 411.5 179.5 L 439.5 179.5" stroke="black" stroke-width="3"  stroke-dasharray="1,3"  stroke-opacity="0.0" transform="translate(1, 1)"></path><path fill="none" d="M 56.5 241.5 L 84.5 241.5 M 127.5 85.5 L 155.5 85.5 M 198.5 21.5 L 226.5 21.5 M 269.5 21.5 L 297.5 21.5 M 340.5 115.5 L 368.5 115.5 M 411.5 179.5 L 439.5 179.5" stroke="black" stroke-width="1"  stroke-dasharray="1,3"  stroke-opacity="0.1" transform="translate(1, 1)"></path><path fill="none" d="M 56.5 241.5 L 84.5 241.5 M 127.5 85.5 L 155.5 85.5 M 198.5 21.5 L 226.5 21.5 M 269.5 21.5 L 297.5 21.5 M 340.5 115.5 L 368.5 115.5 M 411.5 179.5 L 439.5 179.5" stroke="#333" stroke-width="1"  stroke-dasharray="1,3"></path></g><g class="highcharts-markers" visibility="visible"  transform="translate(77,41) scale(1 1)"></g></g><text x="292" text-anchor="middle" class="highcharts-title"  style="color:black;font-size:16px;font-weight:bold;fill:black;width:520px;" y="22"><tspan>Highcharts Waterfall</tspan></text><g class="highcharts-data-labels highcharts-tracker" visibility="visible"  transform="translate(77,41) scale(1 1)" style=""><g  style="" transform="translate(19,248)"><text x="5"  style="font-size: 11px; font-weight: bold; color: rgb(255, 255, 255); text-shadow: black 0px 0px 3px; fill: #ffffff; text-rendering: geometricprecision;" y="16"><tspan>120k</tspan></text></g><g  style="" transform="translate(90,153)"><text x="5"  style="font-size: 11px; font-weight: bold; color: rgb(255, 255, 255); text-shadow: black 0px 0px 3px; fill: #ffffff; text-rendering: geometricprecision;" y="16"><tspan>569k</tspan></text></g><g  style="" transform="translate(161,43)"><text x="5"  style="font-size: 11px; font-weight: bold; color: rgb(255, 255, 255); text-shadow: black 0px 0px 3px; fill: #ffffff; text-rendering: geometricprecision;" y="16"><tspan>231k</tspan></text></g><g  style="" transform="translate(232,138)"><text x="5"  style="font-size: 11px; font-weight: bold; color: rgb(255, 255, 255); text-shadow: black 0px 0px 3px; fill: #ffffff; text-rendering: geometricprecision;" y="16"><tspan>920k</tspan></text></g><g  style="" transform="translate(301,58)"><text x="5"  style="font-size: 11px; font-weight: bold; color: rgb(255, 255, 255); text-shadow: black 0px 0px 3px; fill: #ffffff; text-rendering: geometricprecision;" y="16"><tspan>-342k</tspan></text></g><g  style="" transform="translate(372,137)"><text x="5"  style="font-size: 11px; font-weight: bold; color: rgb(255, 255, 255); text-shadow: black 0px 0px 3px; fill: #ffffff; text-rendering: geometricprecision;" y="16"><tspan>-233k</tspan></text></g><g  style="" transform="translate(445,217)"><text x="5"  style="font-size: 11px; font-weight: bold; color: rgb(255, 255, 255); text-shadow: black 0px 0px 3px; fill: #ffffff; text-rendering: geometricprecision;" y="16"><tspan>345k</tspan></text></g></g><g class="highcharts-axis-labels highcharts-xaxis-labels" ><text x="115.0" style="color:#6e6e70;cursor:default;font-size:11px;fill:#6e6e70;width:400px;text-overflow:ellipsis;" text-anchor="end" transform="translate(0,0) rotate(-45 115.0 332)" y="332" opacity="1"><tspan>Start</tspan></text><text x="186.0" style="color:#6e6e70;cursor:default;font-size:11px;fill:#6e6e70;width:400px;text-overflow:ellipsis;" text-anchor="end" transform="translate(0,0) rotate(-45 186.0 332)" y="332" opacity="1"><tspan>Product Revenue</tspan></text><text x="257.0" style="color:#6e6e70;cursor:default;font-size:11px;fill:#6e6e70;width:400px;text-overflow:ellipsis;" text-anchor="end" transform="translate(0,0) rotate(-45 257.0 332)" y="332" opacity="1"><tspan>Service Revenue</tspan></text><text x="328.0" style="color:#6e6e70;cursor:default;font-size:11px;fill:#6e6e70;width:400px;text-overflow:ellipsis;" text-anchor="end" transform="translate(0,0) rotate(-45 328.0 332)" y="332" opacity="1"><tspan>Positive Balance</tspan></text><text x="399.0" style="color:#6e6e70;cursor:default;font-size:11px;fill:#6e6e70;width:400px;text-overflow:ellipsis;" text-anchor="end" transform="translate(0,0) rotate(-45 399.0 332)" y="332" opacity="1"><tspan>Fixed Costs</tspan></text><text x="470.0" style="color:#6e6e70;cursor:default;font-size:11px;fill:#6e6e70;width:400px;text-overflow:ellipsis;" text-anchor="end" transform="translate(0,0) rotate(-45 470.0 332)" y="332" opacity="1"><tspan>Variable Costs</tspan></text><text x="541.0" style="color:#6e6e70;cursor:default;font-size:11px;fill:#6e6e70;width:400px;text-overflow:ellipsis;" text-anchor="end" transform="translate(0,0) rotate(-45 541.0 332)" y="332" opacity="1"><tspan>Balance</tspan></text></g><g class="highcharts-axis-labels highcharts-yaxis-labels" ><text x="62" style="color:#6e6e70;cursor:default;font-size:11px;fill:#6e6e70;width:183px;text-overflow:clip;" text-anchor="end" transform="translate(0,0)" y="322" opacity="1">0k</text><text x="62" style="color:#6e6e70;cursor:default;font-size:11px;fill:#6e6e70;width:183px;text-overflow:clip;" text-anchor="end" transform="translate(0,0)" y="267" opacity="1">200k</text><text x="62" style="color:#6e6e70;cursor:default;font-size:11px;fill:#6e6e70;width:183px;text-overflow:clip;" text-anchor="end" transform="translate(0,0)" y="212" opacity="1">400k</text><text x="62" style="color:#6e6e70;cursor:default;font-size:11px;fill:#6e6e70;width:183px;text-overflow:clip;" text-anchor="end" transform="translate(0,0)" y="157" opacity="1">600k</text><text x="62" style="color:#6e6e70;cursor:default;font-size:11px;fill:#6e6e70;width:183px;text-overflow:clip;" text-anchor="end" transform="translate(0,0)" y="102" opacity="1">800k</text><text x="62" style="color:#6e6e70;cursor:default;font-size:11px;fill:#6e6e70;width:183px;text-overflow:clip;" text-anchor="end" transform="translate(0,0)" y="47" opacity="1"><tspan>1 000k</tspan></text></g><g class="highcharts-tooltip"  style="cursor:default;padding:0;white-space:nowrap;" transform="translate(0,-9999)"><path fill="none" d="M 3 0 L 13 0 C 16 0 16 0 16 3 L 16 13 C 16 16 16 16 13 16 L 3 16 C 0 16 0 16 0 13 L 0 3 C 0 0 0 0 3 0"  stroke="black" stroke-opacity="0.0" stroke-width="5" transform="translate(1, 1)"></path><path fill="none" d="M 3 0 L 13 0 C 16 0 16 0 16 3 L 16 13 C 16 16 16 16 13 16 L 3 16 C 0 16 0 16 0 13 L 0 3 C 0 0 0 0 3 0"  stroke="black" stroke-opacity="0.0" stroke-width="3" transform="translate(1, 1)"></path><path fill="none" d="M 3 0 L 13 0 C 16 0 16 0 16 3 L 16 13 C 16 16 16 16 13 16 L 3 16 C 0 16 0 16 0 13 L 0 3 C 0 0 0 0 3 0"  stroke="black" stroke-opacity="0.1" stroke-width="1" transform="translate(1, 1)"></path><path fill="rgb(249, 249, 249)" fill-opacity=" .85" d="M 3 0 L 13 0 C 16 0 16 0 16 3 L 16 13 C 16 16 16 16 13 16 L 3 16 C 0 16 0 16 0 13 L 0 3 C 0 0 0 0 3 0"></path><text x="8"  style="font-size:12px;color:#333333;fill:#333333;" y="20"></text></g></svg>