<svg version="1.1" style="font-family:&quot;lucida grande&quot;, &quot;lucida sans unicode&quot;, arial, helvetica, sans-serif;font-size:12px;" xmlns="http://www.w3.org/2000/svg" width="584" height="400" viewBox="0 0 584 400"><desc>Created with Highcharts 4.1.6</desc><defs><clipPath id="highcharts-1"><rect x="0" y="0" width="487" height="258"></rect></clipPath></defs><rect x="0" y="0" width="584" height="400" strokeWidth="0" fill="#FFFFFF" class=" highcharts-background" stroke="transparent"></rect><g class="highcharts-grid" ></g><g class="highcharts-grid" ><path fill="none" d="M 87 304.5 L 574 304.5" stroke="#D8D8D8" stroke-width="1"  opacity="1"></path><path fill="none" d="M 87 252.5 L 574 252.5" stroke="#D8D8D8" stroke-width="1"  opacity="1"></path><path fill="none" d="M 87 201.5 L 574 201.5" stroke="#D8D8D8" stroke-width="1"  opacity="1"></path><path fill="none" d="M 87 149.5 L 574 149.5" stroke="#D8D8D8" stroke-width="1"  opacity="1"></path><path fill="none" d="M 87 98.5 L 574 98.5" stroke="#D8D8D8" stroke-width="1"  opacity="1"></path><path fill="none" d="M 87 45.5 L 574 45.5" stroke="#D8D8D8" stroke-width="1"  opacity="1"></path></g><g class="highcharts-axis" ><path fill="none" d="M 156.5 304 L 156.5 314" stroke="#C0D0E0" stroke-width="1" opacity="1"></path><path fill="none" d="M 225.5 304 L 225.5 314" stroke="#C0D0E0" stroke-width="1" opacity="1"></path><path fill="none" d="M 295.5 304 L 295.5 314" stroke="#C0D0E0" stroke-width="1" opacity="1"></path><path fill="none" d="M 364.5 304 L 364.5 314" stroke="#C0D0E0" stroke-width="1" opacity="1"></path><path fill="none" d="M 434.5 304 L 434.5 314" stroke="#C0D0E0" stroke-width="1" opacity="1"></path><path fill="none" d="M 503.5 304 L 503.5 314" stroke="#C0D0E0" stroke-width="1" opacity="1"></path><path fill="none" d="M 574.5 304 L 574.5 314" stroke="#C0D0E0" stroke-width="1" opacity="1"></path><path fill="none" d="M 86.5 304 L 86.5 314" stroke="#C0D0E0" stroke-width="1" opacity="1"></path><path fill="none" d="M 87 304.5 L 574 304.5" stroke="#C0D0E0" stroke-width="1"  visibility="visible"></path></g><g class="highcharts-axis" ><text x="25"  text-anchor="middle" transform="translate(0,0) rotate(270 25 175)" class=" highcharts-yaxis-title" style="color:#707070;fill:#707070;" visibility="visible" y="175">USD</text></g><g class="highcharts-series-group" ><g class="highcharts-series highcharts-tracker" visibility="visible"  transform="translate(87,46) scale(1 1)" style="" clip-path="url(#highcharts-1)"><rect x="13.5" y="226.5" width="42" height="31" stroke="#333" stroke-width="1" fill="#90ed7d" rx="0" ry="0"></rect><rect x="82.5" y="79.5" width="42" height="147" stroke="#333" stroke-width="1" fill="#90ed7d" rx="0" ry="0"></rect><rect x="152.5" y="20.5" width="42" height="60" stroke="#333" stroke-width="1" fill="#90ed7d" rx="0" ry="0"></rect><rect x="222.5" y="20.5" width="41" height="237" stroke="#333" stroke-width="1" fill="#434348" rx="0" ry="0"></rect><rect x="291.5" y="20.5" width="42" height="88" stroke="#333" stroke-width="1" fill="#f7a35c" rx="0" ry="0"></rect><rect x="361.5" y="108.5" width="42" height="60" stroke="#333" stroke-width="1" fill="#f7a35c" rx="0" ry="0"></rect><rect x="430.5" y="168.5" width="42" height="89" stroke="#333" stroke-width="1" fill="#434348" rx="0" ry="0"></rect><path fill="none" d="M 55.5 226.5 L 82.5 226.5 M 124.5 79.5 L 152.5 79.5 M 194.5 20.5 L 222.5 20.5 M 263.5 20.5 L 291.5 20.5 M 333.5 108.5 L 361.5 108.5 M 403.5 168.5 L 430.5 168.5" stroke="#333" stroke-width="1"  stroke-dasharray="1,3"></path></g><g class="highcharts-markers" visibility="visible"  transform="translate(87,46) scale(1 1)"></g></g><text x="292" text-anchor="middle" class="highcharts-title"  style="color:#333333;font-size:18px;fill:#333333;width:520px;" y="24"><tspan>Highcharts Waterfall</tspan></text><g class="highcharts-data-labels highcharts-tracker" visibility="visible"  transform="translate(87,46) scale(1 1)" style=""><g  style="" transform="translate(16,231)"><text x="5"  style="font-size: 11px; font-weight: bold; color: rgb(255, 255, 255); text-shadow: black 0px 0px 3px; fill: #ffffff; text-rendering: geometricprecision; " y="16"><tspan>120k</tspan></text></g><g  style="" transform="translate(85,142)"><text x="5"  style="font-size: 11px; font-weight: bold; color: rgb(255, 255, 255); text-shadow: black 0px 0px 3px; fill: #ffffff; text-rendering: geometricprecision; " y="16"><tspan>569k</tspan></text></g><g  style="" transform="translate(155,39)"><text x="5"  style="font-size: 11px; font-weight: bold; color: rgb(255, 255, 255); text-shadow: black 0px 0px 3px; fill: #ffffff; text-rendering: geometricprecision; " y="16"><tspan>231k</tspan></text></g><g  style="" transform="translate(224,128)"><text x="5"  style="font-size: 11px; font-weight: bold; color: rgb(255, 255, 255); text-shadow: black 0px 0px 3px; fill: #ffffff; text-rendering: geometricprecision; " y="16"><tspan>920k</tspan></text></g><g  style="" transform="translate(290,53)"><text x="5"  style="font-size: 11px; font-weight: bold; color: rgb(255, 255, 255); text-shadow: black 0px 0px 3px; fill: #ffffff; text-rendering: geometricprecision; " y="16"><tspan>-342k</tspan></text></g><g  style="" transform="translate(360,127)"><text x="5"  style="font-size: 11px; font-weight: bold; color: rgb(255, 255, 255); text-shadow: black 0px 0px 3px; fill: #ffffff; text-rendering: geometricprecision; " y="16"><tspan>-233k</tspan></text></g><g  style="" transform="translate(433,202)"><text x="5"  style="font-size: 11px; font-weight: bold; color: rgb(255, 255, 255); text-shadow: black 0px 0px 3px; fill: #ffffff; text-rendering: geometricprecision; " y="16"><tspan>345k</tspan></text></g></g><g class="highcharts-axis-labels highcharts-xaxis-labels" ><text x="124.3" style="color:#606060;cursor:default;font-size:11px;fill:#606060;width:400px;text-overflow:ellipsis;" text-anchor="end" transform="translate(0,0) rotate(-45 124.3 320)" y="320" opacity="1"><tspan>Start</tspan></text><text x="193.9" style="color:#606060;cursor:default;font-size:11px;fill:#606060;width:400px;text-overflow:ellipsis;" text-anchor="end" transform="translate(0,0) rotate(-45 193.9 320)" y="320" opacity="1"><tspan>Product Revenue</tspan></text><text x="263.5" style="color:#606060;cursor:default;font-size:11px;fill:#606060;width:400px;text-overflow:ellipsis;" text-anchor="end" transform="translate(0,0) rotate(-45 263.5 320)" y="320" opacity="1"><tspan>Service Revenue</tspan></text><text x="333.0" style="color:#606060;cursor:default;font-size:11px;fill:#606060;width:400px;text-overflow:ellipsis;" text-anchor="end" transform="translate(0,0) rotate(-45 333.0 320)" y="320" opacity="1"><tspan>Positive Balance</tspan></text><text x="402.6" style="color:#606060;cursor:default;font-size:11px;fill:#606060;width:400px;text-overflow:ellipsis;" text-anchor="end" transform="translate(0,0) rotate(-45 402.6 320)" y="320" opacity="1"><tspan>Fixed Costs</tspan></text><text x="472.2" style="color:#606060;cursor:default;font-size:11px;fill:#606060;width:400px;text-overflow:ellipsis;" text-anchor="end" transform="translate(0,0) rotate(-45 472.2 320)" y="320" opacity="1"><tspan>Variable Costs</tspan></text><text x="541.8" style="color:#606060;cursor:default;font-size:11px;fill:#606060;width:400px;text-overflow:ellipsis;" text-anchor="end" transform="translate(0,0) rotate(-45 541.8 320)" y="320" opacity="1"><tspan>Balance</tspan></text></g><g class="highcharts-axis-labels highcharts-yaxis-labels" ><text x="72" style="color:#606060;cursor:default;font-size:11px;fill:#606060;width:183px;text-overflow:clip;" text-anchor="end" transform="translate(0,0)" y="309" opacity="1">0k</text><text x="72" style="color:#606060;cursor:default;font-size:11px;fill:#606060;width:183px;text-overflow:clip;" text-anchor="end" transform="translate(0,0)" y="257" opacity="1">200k</text><text x="72" style="color:#606060;cursor:default;font-size:11px;fill:#606060;width:183px;text-overflow:clip;" text-anchor="end" transform="translate(0,0)" y="205" opacity="1">400k</text><text x="72" style="color:#606060;cursor:default;font-size:11px;fill:#606060;width:183px;text-overflow:clip;" text-anchor="end" transform="translate(0,0)" y="154" opacity="1">600k</text><text x="72" style="color:#606060;cursor:default;font-size:11px;fill:#606060;width:183px;text-overflow:clip;" text-anchor="end" transform="translate(0,0)" y="102" opacity="1">800k</text><text x="72" style="color:#606060;cursor:default;font-size:11px;fill:#606060;width:183px;text-overflow:clip;" text-anchor="end" transform="translate(0,0)" y="51" opacity="1"><tspan>1 000k</tspan></text></g><g class="highcharts-tooltip"  style="cursor:default;padding:0;white-space:nowrap;" transform="translate(0,-9999)"><path fill="none" d="M 3.5 0.5 L 13.5 0.5 C 16.5 0.5 16.5 0.5 16.5 3.5 L 16.5 13.5 C 16.5 16.5 16.5 16.5 13.5 16.5 L 3.5 16.5 C 0.5 16.5 0.5 16.5 0.5 13.5 L 0.5 3.5 C 0.5 0.5 0.5 0.5 3.5 0.5"  stroke="black" stroke-opacity="0.0" stroke-width="5" transform="translate(1, 1)"></path><path fill="none" d="M 3.5 0.5 L 13.5 0.5 C 16.5 0.5 16.5 0.5 16.5 3.5 L 16.5 13.5 C 16.5 16.5 16.5 16.5 13.5 16.5 L 3.5 16.5 C 0.5 16.5 0.5 16.5 0.5 13.5 L 0.5 3.5 C 0.5 0.5 0.5 0.5 3.5 0.5"  stroke="black" stroke-opacity="0.0" stroke-width="3" transform="translate(1, 1)"></path><path fill="none" d="M 3.5 0.5 L 13.5 0.5 C 16.5 0.5 16.5 0.5 16.5 3.5 L 16.5 13.5 C 16.5 16.5 16.5 16.5 13.5 16.5 L 3.5 16.5 C 0.5 16.5 0.5 16.5 0.5 13.5 L 0.5 3.5 C 0.5 0.5 0.5 0.5 3.5 0.5"  stroke="black" stroke-opacity="0.1" stroke-width="1" transform="translate(1, 1)"></path><path fill="rgb(249, 249, 249)" fill-opacity=" .85" d="M 3.5 0.5 L 13.5 0.5 C 16.5 0.5 16.5 0.5 16.5 3.5 L 16.5 13.5 C 16.5 16.5 16.5 16.5 13.5 16.5 L 3.5 16.5 C 0.5 16.5 0.5 16.5 0.5 13.5 L 0.5 3.5 C 0.5 0.5 0.5 0.5 3.5 0.5"></path><text x="8"  style="font-size:12px;color:#333333;fill:#333333;" y="20"></text></g></svg>